<svg width="745" height="175" viewBox="0 0 745 175" fill="none" xmlns="http://www.w3.org/2000/svg">
<path d="M13.8867 29.236V25.236H9.88671V29.236H13.8867ZM108.831 29.236H112.831V25.236H108.831V29.236ZM108.831 53.66V57.66H112.831V53.66H108.831ZM38.9987 53.66V49.66H34.9987V53.66H38.9987ZM38.9987 90.124H34.9987V94.124H38.9987V90.124ZM89.0507 90.124H93.0507V86.124H89.0507V90.124ZM89.0507 114.892V118.892H93.0507V114.892H89.0507ZM38.9987 114.892V110.892H34.9987V114.892H38.9987ZM38.9987 156V160H42.9987V156H38.9987ZM13.8867 156H9.88671V160H13.8867V156ZM13.8867 33.236H108.831V25.236H13.8867V33.236ZM104.831 29.236V53.66H112.831V29.236H104.831ZM108.831 49.66H38.9987V57.66H108.831V49.66ZM34.9987 53.66V90.124H42.9987V53.66H34.9987ZM38.9987 94.124H89.0507V86.124H38.9987V94.124ZM85.0507 90.124V114.892H93.0507V90.124H85.0507ZM89.0507 110.892H38.9987V118.892H89.0507V110.892ZM34.9987 114.892V156H42.9987V114.892H34.9987ZM38.9987 152H13.8867V160H38.9987V152ZM17.8867 156V29.236H9.88671V156H17.8867ZM126.95 29.236V25.236H122.95V29.236H126.95ZM152.062 29.236H156.062V25.236H152.062V29.236ZM152.062 156V160H156.062V156H152.062ZM126.95 156H122.95V160H126.95V156ZM126.95 33.236H152.062V25.236H126.95V33.236ZM148.062 29.236V156H156.062V29.236H148.062ZM152.062 152H126.95V160H152.062V152ZM130.95 156V29.236H122.95V156H130.95ZM180.384 29.236V25.236H176.384V29.236H180.384ZM204.464 29.236L207.685 26.8645L206.486 25.236H204.464V29.236ZM266.384 113.344L263.163 115.715L270.384 125.524V113.344H266.384ZM266.384 29.236V25.236H262.384V29.236H266.384ZM291.496 29.236H295.496V25.236H291.496V29.236ZM291.496 156V160H295.496V156H291.496ZM267.244 156L264.015 158.361L265.214 160H267.244V156ZM205.496 71.548L208.725 69.1871L201.496 59.3001V71.548H205.496ZM205.496 156V160H209.496V156H205.496ZM180.384 156H176.384V160H180.384V156ZM180.384 33.236H204.464V25.236H180.384V33.236ZM201.243 31.6074L263.163 115.715L269.605 110.973L207.685 26.8645L201.243 31.6074ZM270.384 113.344V29.236H262.384V113.344H270.384ZM266.384 33.236H291.496V25.236H266.384V33.236ZM287.496 29.236V156H295.496V29.236H287.496ZM291.496 152H267.244V160H291.496V152ZM270.473 153.639L208.725 69.1871L202.267 73.9089L264.015 158.361L270.473 153.639ZM201.496 71.548V156H209.496V71.548H201.496ZM205.496 152H180.384V160H205.496V152ZM184.384 156V29.236H176.384V156H184.384ZM319.818 29.236V25.236H315.818V29.236H319.818ZM396.186 33.536L394.648 37.2283L394.674 37.2393L394.701 37.2499L396.186 33.536ZM415.106 46.264L417.961 43.4626L417.948 43.449L417.935 43.4356L415.106 46.264ZM415.106 138.972L417.964 141.77L417.969 141.765L417.975 141.76L415.106 138.972ZM396.186 151.7L394.66 148.002L394.648 148.008L396.186 151.7ZM319.818 156H315.818V160H319.818V156ZM398.422 120.396L395.389 117.789L395.379 117.801L395.369 117.812L398.422 120.396ZM398.422 64.84L395.372 67.4279L395.38 67.4375L395.389 67.4471L398.422 64.84ZM344.93 53.488V49.488H340.93V53.488H344.93ZM344.93 131.576H340.93V135.576H344.93V131.576ZM319.818 33.236H374.17V25.236H319.818V33.236ZM374.17 33.236C381.464 33.236 388.278 34.5741 394.648 37.2283L397.725 29.8437C390.335 26.7646 382.471 25.236 374.17 25.236V33.236ZM394.701 37.2499C401.032 39.7825 406.891 43.7058 412.278 49.0924L417.935 43.4356C411.855 37.3555 405.1 32.7935 397.672 29.8221L394.701 37.2499ZM412.251 49.0654C423.368 60.3958 428.994 74.7769 428.994 92.532H436.994C436.994 72.9058 430.696 56.4415 417.961 43.4626L412.251 49.0654ZM428.994 92.532C428.994 110.287 423.367 124.734 412.238 136.184L417.975 141.76C430.696 128.672 436.994 112.158 436.994 92.532H428.994ZM412.248 136.174C407.243 141.285 401.391 145.225 394.66 148.003L397.712 155.397C405.429 152.213 412.191 147.667 417.964 141.77L412.248 136.174ZM394.648 148.008C388.278 150.662 381.464 152 374.17 152V160C382.471 160 390.335 158.471 397.725 155.392L394.648 148.008ZM374.17 152H319.818V160H374.17V152ZM323.818 156V29.236H315.818V156H323.818ZM373.654 135.576C384.975 135.576 394.371 131.377 401.476 122.98L395.369 117.812C389.861 124.322 382.744 127.576 373.654 127.576V135.576ZM401.456 123.003C408.485 114.824 411.882 104.563 411.882 92.532H403.882C403.882 102.976 400.973 111.291 395.389 117.789L401.456 123.003ZM411.882 92.532C411.882 80.6044 408.478 70.4044 401.456 62.2329L395.389 67.4471C400.98 73.9529 403.882 82.2143 403.882 92.532H411.882ZM401.472 62.2521C394.276 53.7713 384.897 49.488 373.654 49.488V57.488C382.593 57.488 389.725 60.7727 395.372 67.4279L401.472 62.2521ZM373.654 49.488H344.93V57.488H373.654V49.488ZM340.93 53.488V131.576H348.93V53.488H340.93ZM344.93 135.576H373.654V127.576H344.93V135.576ZM511.997 141.552L509.138 144.349L509.138 144.349L511.997 141.552ZM496.689 29.236V25.236H492.689V29.236H496.689ZM521.801 29.236H525.801V25.236H521.801V29.236ZM530.917 125.384L533.712 122.522L533.702 122.512L533.691 122.502L530.917 125.384ZM572.197 125.384L574.927 128.308L574.934 128.301L574.942 128.294L572.197 125.384ZM581.313 29.236V25.236H577.313V29.236H581.313ZM606.253 29.236H610.253V25.236H606.253V29.236ZM590.945 141.552L593.82 144.333L590.945 141.552ZM551.385 153.376C536.427 153.376 524.36 148.469 514.857 138.755L509.138 144.349C520.275 155.733 534.466 161.376 551.385 161.376V153.376ZM514.857 138.755C505.496 129.184 500.689 116.601 500.689 100.616H492.689C492.689 118.343 498.088 133.05 509.138 144.349L514.857 138.755ZM500.689 100.616V29.236H492.689V100.616H500.689ZM496.689 33.236H521.801V25.236H496.689V33.236ZM517.801 29.236V100.96H525.801V29.236H517.801ZM517.801 100.96C517.801 112.207 521.105 121.493 528.144 128.266L533.691 122.502C528.575 117.579 525.801 110.582 525.801 100.96H517.801ZM528.122 128.246C533.985 133.971 541.916 136.608 551.385 136.608V128.608C543.426 128.608 537.711 126.429 533.712 122.522L528.122 128.246ZM551.385 136.608C560.864 136.608 568.862 133.969 574.927 128.308L569.468 122.46C565.213 126.431 559.336 128.608 551.385 128.608V136.608ZM574.942 128.294C582.02 121.617 585.313 112.303 585.313 100.96H577.313C577.313 110.715 574.53 117.685 569.452 122.474L574.942 128.294ZM585.313 100.96V29.236H577.313V100.96H585.313ZM581.313 33.236H606.253V25.236H581.313V33.236ZM602.253 29.236V100.616H610.253V29.236H602.253ZM602.253 100.616C602.253 116.477 597.451 129.074 588.07 138.771L593.82 144.333C604.85 132.932 610.253 118.237 610.253 100.616H602.253ZM588.07 138.771C578.699 148.458 566.591 153.376 551.385 153.376V161.376C568.516 161.376 582.781 155.745 593.82 144.333L588.07 138.771ZM643.464 145.164L640.966 148.287L640.975 148.295L643.464 145.164ZM628.5 115.408L624.521 115.816L624.522 115.823L624.523 115.83L628.5 115.408ZM627.812 108.7V104.7H623.381L623.833 109.108L627.812 108.7ZM653.612 108.7L657.605 108.458L657.377 104.7H653.612V108.7ZM653.956 114.376L657.949 114.136L657.949 114.134L653.956 114.376ZM662.384 127.62L660.36 131.07L660.371 131.077L660.383 131.083L662.384 127.62ZM701.772 129.684L703.335 133.366L703.361 133.355L703.387 133.344L701.772 129.684ZM708.996 124.18L712.616 125.883L712.616 125.883L708.996 124.18ZM707.276 111.968L709.57 108.691L709.559 108.683L709.547 108.675L707.276 111.968ZM694.376 106.12L693.191 109.94L693.201 109.944L693.212 109.947L694.376 106.12ZM675.8 101.476L676.689 97.576L676.666 97.5708L676.644 97.5659L675.8 101.476ZM656.02 95.284L657.476 91.5582L657.473 91.5572L656.02 95.284ZM639.508 84.62L642.41 81.867L642.358 81.8121L642.304 81.7592L639.508 84.62ZM644.84 37.148L642.326 34.037L642.317 34.0448L644.84 37.148ZM718.8 38.352L716.236 41.4217L716.254 41.4367L716.272 41.4515L718.8 38.352ZM732.56 65.356L728.564 65.5243L728.565 65.5481L728.566 65.5719L732.56 65.356ZM732.904 71.72V75.72H737.127L736.899 71.5041L732.904 71.72ZM707.792 71.72L703.825 72.2319L704.275 75.72H707.792V71.72ZM707.104 66.388L703.133 66.8646L703.135 66.8822L703.137 66.8999L707.104 66.388ZM703.664 58.476L706.773 55.9592L706.773 55.9592L703.664 58.476ZM693.172 52.628L692.023 56.4593L692.031 56.4617L692.039 56.4641L693.172 52.628ZM667.2 52.8L668.465 56.5947L668.485 56.5882L668.504 56.5815L667.2 52.8ZM659.976 56.412L657.478 53.2885L657.373 53.3725L657.274 53.4634L659.976 56.412ZM657.396 60.196L661.191 61.4609L661.226 61.3556L661.256 61.2485L657.396 60.196ZM658.084 68.452L655.256 71.2804L655.256 71.2804L658.084 68.452ZM665.136 72.752L663.627 76.4564L663.664 76.4712L663.701 76.4854L665.136 72.752ZM677.004 76.536L675.929 80.3888L675.994 80.4068L676.059 80.4227L677.004 76.536ZM683.368 78.084L682.423 81.9707L682.44 81.9748L682.457 81.9788L683.368 78.084ZM691.452 79.976L692.505 76.1169L692.435 76.0978L692.364 76.0812L691.452 79.976ZM695.236 81.008L696.295 77.1507L696.289 77.1489L695.236 81.008ZM706.416 84.276L705.071 88.043L705.125 88.0623L705.18 88.0801L706.416 84.276ZM720.348 90.984L718.206 94.362L718.214 94.3668L718.221 94.3716L720.348 90.984ZM731.528 102.336L728.045 104.301L728.063 104.335L728.083 104.368L731.528 102.336ZM720.864 146.884L718.584 143.598L718.577 143.603L718.571 143.607L720.864 146.884ZM684.056 152.516C667.028 152.516 654.51 148.836 645.954 142.033L640.975 148.295C651.454 156.628 665.997 160.516 684.056 160.516V152.516ZM645.963 142.041C638.348 135.948 633.764 127.091 632.478 114.986L624.523 115.83C625.989 129.64 631.381 140.62 640.966 148.287L645.963 142.041ZM632.48 115L631.792 108.292L623.833 109.108L624.521 115.816L632.48 115ZM627.812 112.7H653.612V104.7H627.812V112.7ZM649.62 108.942L649.964 114.618L657.949 114.134L657.605 108.458L649.62 108.942ZM649.964 114.616C650.393 121.78 654.024 127.351 660.36 131.07L664.409 124.17C660.196 121.697 658.207 118.439 657.949 114.136L649.964 114.616ZM660.383 131.083C666.406 134.563 674.492 136.092 684.228 136.092V128.092C675.16 128.092 668.683 126.639 664.386 124.157L660.383 131.083ZM684.228 136.092C692.273 136.092 698.786 135.296 703.335 133.366L700.21 126.002C697.191 127.283 692.008 128.092 684.228 128.092V136.092ZM703.387 133.344C707.429 131.56 711.041 129.23 712.616 125.883L705.377 122.477C705.118 123.029 703.913 124.368 700.158 126.024L703.387 133.344ZM712.616 125.883C713.787 123.395 714.372 120.749 714.372 117.988H706.372C706.372 119.585 706.041 121.066 705.377 122.477L712.616 125.883ZM714.372 117.988C714.372 116.193 714.077 114.388 713.262 112.759L706.107 116.337C706.21 116.542 706.372 117.031 706.372 117.988H714.372ZM713.262 112.759C712.417 111.069 711.072 109.743 709.57 108.691L704.983 115.245C705.774 115.799 706.034 116.192 706.107 116.337L713.262 112.759ZM709.547 108.675C705.785 106.08 701.077 103.978 695.541 102.293L693.212 109.947C698.226 111.473 702.118 113.269 705.006 115.261L709.547 108.675ZM695.562 102.3C692.07 101.216 685.736 99.6373 676.689 97.576L674.912 105.376C683.982 107.443 690.032 108.96 693.191 109.94L695.562 102.3ZM676.644 97.5659C671.058 96.3611 664.674 94.37 657.476 91.5582L654.565 99.0098C662.044 101.931 668.847 104.068 674.957 105.386L676.644 97.5659ZM657.473 91.5572C651.16 89.096 646.182 85.8422 642.41 81.867L636.607 87.373C641.321 92.3418 647.35 96.1973 654.568 99.0108L657.473 91.5572ZM642.304 81.7592C638.171 77.7202 635.94 72.1784 635.94 64.668H627.94C627.94 73.8989 630.755 81.6585 636.713 87.4807L642.304 81.7592ZM635.94 64.668C635.94 54.4862 639.724 46.4653 647.364 40.2512L642.317 34.0448C632.757 41.82 627.94 52.1458 627.94 64.668H635.94ZM647.355 40.259C654.746 34.285 665.808 31 681.132 31V23C664.809 23 651.676 26.4804 642.326 34.037L647.355 40.259ZM681.132 31C696.586 31 708.119 34.6404 716.236 41.4217L721.365 35.2823C711.365 26.9276 697.786 23 681.132 23V31ZM716.272 41.4515C724.133 47.8643 728.155 55.8132 728.564 65.5243L736.557 65.1877C736.048 53.1121 730.897 43.0584 721.329 35.2525L716.272 41.4515ZM728.566 65.5719L728.91 71.9359L736.899 71.5041L736.555 65.1401L728.566 65.5719ZM732.904 67.72H707.792V75.72H732.904V67.72ZM711.76 71.2081L711.072 65.8761L703.137 66.8999L703.825 72.2319L711.76 71.2081ZM711.076 65.9114C710.636 62.2421 709.161 58.908 706.773 55.9592L700.555 60.9928C702.067 62.86 702.885 64.8006 703.133 66.8646L711.076 65.9114ZM706.773 55.9592C704.069 52.6183 699.643 50.3688 694.306 48.7919L692.039 56.4641C696.793 57.8685 699.361 59.5177 700.555 60.9928L706.773 55.9592ZM694.322 48.7967C690.379 47.6138 685.6 47.08 680.1 47.08V55.08C685.15 55.08 689.086 55.5782 692.023 56.4593L694.322 48.7967ZM680.1 47.08C674.581 47.08 669.795 47.6741 665.897 49.0185L668.504 56.5815C671.256 55.6326 675.07 55.08 680.1 55.08V47.08ZM665.936 49.0053C662.587 50.1215 659.698 51.512 657.478 53.2885L662.475 59.5355C663.695 58.56 665.622 57.5425 668.465 56.5947L665.936 49.0053ZM657.274 53.4634C655.567 55.0274 654.148 56.9053 653.537 59.1435L661.256 61.2485C661.333 60.964 661.634 60.3192 662.679 59.3606L657.274 53.4634ZM653.602 58.9311C652.883 61.0885 652.536 63.3531 652.536 65.7H660.536C660.536 64.1482 660.764 62.7435 661.191 61.4609L653.602 58.9311ZM652.536 65.7C652.536 68.1531 654.032 70.0562 655.256 71.2804L660.913 65.6236C660.745 65.4555 660.624 65.3181 660.54 65.212C660.455 65.1051 660.418 65.044 660.41 65.029C660.387 64.9882 660.536 65.2331 660.536 65.7H652.536ZM655.256 71.2804C657.373 73.3969 660.25 75.0806 663.627 76.4564L666.646 69.0476C663.83 67.9007 662.007 66.7177 660.913 65.6236L655.256 71.2804ZM663.701 76.4854C666.849 77.6962 670.94 78.9963 675.929 80.3888L678.08 72.6832C673.208 71.3236 669.387 70.1011 666.572 69.0186L663.701 76.4854ZM676.059 80.4227L682.423 81.9707L684.314 74.1973L677.95 72.6493L676.059 80.4227ZM682.457 81.9788L690.541 83.8707L692.364 76.0812L684.28 74.1892L682.457 81.9788ZM690.4 83.835L694.184 84.8671L696.289 77.1489L692.505 76.1169L690.4 83.835ZM694.178 84.8653C700.068 86.4823 703.636 87.5305 705.071 88.043L707.762 80.509C705.986 79.8748 702.101 78.7444 696.295 77.1507L694.178 84.8653ZM705.18 88.0801C709.404 89.4528 713.745 91.5332 718.206 94.362L722.491 87.606C717.549 84.4722 712.603 82.0805 707.653 80.4719L705.18 88.0801ZM718.221 94.3716C722.665 97.1617 725.89 100.483 728.045 104.301L735.012 100.371C732.121 95.2453 727.893 90.9983 722.476 87.5964L718.221 94.3716ZM728.083 104.368C730.335 108.187 731.484 112.466 731.484 117.3H739.484C739.484 111.126 737.996 105.429 734.974 100.304L728.083 104.368ZM731.484 117.3C731.484 129.088 727.142 137.657 718.584 143.598L723.145 150.17C734.08 142.58 739.484 131.427 739.484 117.3H731.484ZM718.571 143.607C710.278 149.412 698.899 152.516 684.056 152.516V160.516C699.945 160.516 713.104 157.199 723.158 150.161L718.571 143.607Z" fill="url(#paint0_linear_69_2)"/>
<path d="M13.8867 29.236V25.236H9.88671V29.236H13.8867ZM108.831 29.236H112.831V25.236H108.831V29.236ZM108.831 53.66V57.66H112.831V53.66H108.831ZM38.9987 53.66V49.66H34.9987V53.66H38.9987ZM38.9987 90.124H34.9987V94.124H38.9987V90.124ZM89.0507 90.124H93.0507V86.124H89.0507V90.124ZM89.0507 114.892V118.892H93.0507V114.892H89.0507ZM38.9987 114.892V110.892H34.9987V114.892H38.9987ZM38.9987 156V160H42.9987V156H38.9987ZM13.8867 156H9.88671V160H13.8867V156ZM13.8867 33.236H108.831V25.236H13.8867V33.236ZM104.831 29.236V53.66H112.831V29.236H104.831ZM108.831 49.66H38.9987V57.66H108.831V49.66ZM34.9987 53.66V90.124H42.9987V53.66H34.9987ZM38.9987 94.124H89.0507V86.124H38.9987V94.124ZM85.0507 90.124V114.892H93.0507V90.124H85.0507ZM89.0507 110.892H38.9987V118.892H89.0507V110.892ZM34.9987 114.892V156H42.9987V114.892H34.9987ZM38.9987 152H13.8867V160H38.9987V152ZM17.8867 156V29.236H9.88671V156H17.8867ZM126.95 29.236V25.236H122.95V29.236H126.95ZM152.062 29.236H156.062V25.236H152.062V29.236ZM152.062 156V160H156.062V156H152.062ZM126.95 156H122.95V160H126.95V156ZM126.95 33.236H152.062V25.236H126.95V33.236ZM148.062 29.236V156H156.062V29.236H148.062ZM152.062 152H126.95V160H152.062V152ZM130.95 156V29.236H122.95V156H130.95ZM180.384 29.236V25.236H176.384V29.236H180.384ZM204.464 29.236L207.685 26.8645L206.486 25.236H204.464V29.236ZM266.384 113.344L263.163 115.715L270.384 125.524V113.344H266.384ZM266.384 29.236V25.236H262.384V29.236H266.384ZM291.496 29.236H295.496V25.236H291.496V29.236ZM291.496 156V160H295.496V156H291.496ZM267.244 156L264.015 158.361L265.214 160H267.244V156ZM205.496 71.548L208.725 69.1871L201.496 59.3001V71.548H205.496ZM205.496 156V160H209.496V156H205.496ZM180.384 156H176.384V160H180.384V156ZM180.384 33.236H204.464V25.236H180.384V33.236ZM201.243 31.6074L263.163 115.715L269.605 110.973L207.685 26.8645L201.243 31.6074ZM270.384 113.344V29.236H262.384V113.344H270.384ZM266.384 33.236H291.496V25.236H266.384V33.236ZM287.496 29.236V156H295.496V29.236H287.496ZM291.496 152H267.244V160H291.496V152ZM270.473 153.639L208.725 69.1871L202.267 73.9089L264.015 158.361L270.473 153.639ZM201.496 71.548V156H209.496V71.548H201.496ZM205.496 152H180.384V160H205.496V152ZM184.384 156V29.236H176.384V156H184.384ZM319.818 29.236V25.236H315.818V29.236H319.818ZM396.186 33.536L394.648 37.2283L394.674 37.2393L394.701 37.2499L396.186 33.536ZM415.106 46.264L417.961 43.4626L417.948 43.449L417.935 43.4356L415.106 46.264ZM415.106 138.972L417.964 141.77L417.969 141.765L417.975 141.76L415.106 138.972ZM396.186 151.7L394.66 148.002L394.648 148.008L396.186 151.7ZM319.818 156H315.818V160H319.818V156ZM398.422 120.396L395.389 117.789L395.379 117.801L395.369 117.812L398.422 120.396ZM398.422 64.84L395.372 67.4279L395.38 67.4375L395.389 67.4471L398.422 64.84ZM344.93 53.488V49.488H340.93V53.488H344.93ZM344.93 131.576H340.93V135.576H344.93V131.576ZM319.818 33.236H374.17V25.236H319.818V33.236ZM374.17 33.236C381.464 33.236 388.278 34.5741 394.648 37.2283L397.725 29.8437C390.335 26.7646 382.471 25.236 374.17 25.236V33.236ZM394.701 37.2499C401.032 39.7825 406.891 43.7058 412.278 49.0924L417.935 43.4356C411.855 37.3555 405.1 32.7935 397.672 29.8221L394.701 37.2499ZM412.251 49.0654C423.368 60.3958 428.994 74.7769 428.994 92.532H436.994C436.994 72.9058 430.696 56.4415 417.961 43.4626L412.251 49.0654ZM428.994 92.532C428.994 110.287 423.367 124.734 412.238 136.184L417.975 141.76C430.696 128.672 436.994 112.158 436.994 92.532H428.994ZM412.248 136.174C407.243 141.285 401.391 145.225 394.66 148.003L397.712 155.397C405.429 152.213 412.191 147.667 417.964 141.77L412.248 136.174ZM394.648 148.008C388.278 150.662 381.464 152 374.17 152V160C382.471 160 390.335 158.471 397.725 155.392L394.648 148.008ZM374.17 152H319.818V160H374.17V152ZM323.818 156V29.236H315.818V156H323.818ZM373.654 135.576C384.975 135.576 394.371 131.377 401.476 122.98L395.369 117.812C389.861 124.322 382.744 127.576 373.654 127.576V135.576ZM401.456 123.003C408.485 114.824 411.882 104.563 411.882 92.532H403.882C403.882 102.976 400.973 111.291 395.389 117.789L401.456 123.003ZM411.882 92.532C411.882 80.6044 408.478 70.4044 401.456 62.2329L395.389 67.4471C400.98 73.9529 403.882 82.2143 403.882 92.532H411.882ZM401.472 62.2521C394.276 53.7713 384.897 49.488 373.654 49.488V57.488C382.593 57.488 389.725 60.7727 395.372 67.4279L401.472 62.2521ZM373.654 49.488H344.93V57.488H373.654V49.488ZM340.93 53.488V131.576H348.93V53.488H340.93ZM344.93 135.576H373.654V127.576H344.93V135.576ZM511.997 141.552L509.138 144.349L509.138 144.349L511.997 141.552ZM496.689 29.236V25.236H492.689V29.236H496.689ZM521.801 29.236H525.801V25.236H521.801V29.236ZM530.917 125.384L533.712 122.522L533.702 122.512L533.691 122.502L530.917 125.384ZM572.197 125.384L574.927 128.308L574.934 128.301L574.942 128.294L572.197 125.384ZM581.313 29.236V25.236H577.313V29.236H581.313ZM606.253 29.236H610.253V25.236H606.253V29.236ZM590.945 141.552L593.82 144.333L590.945 141.552ZM551.385 153.376C536.427 153.376 524.36 148.469 514.857 138.755L509.138 144.349C520.275 155.733 534.466 161.376 551.385 161.376V153.376ZM514.857 138.755C505.496 129.184 500.689 116.601 500.689 100.616H492.689C492.689 118.343 498.088 133.05 509.138 144.349L514.857 138.755ZM500.689 100.616V29.236H492.689V100.616H500.689ZM496.689 33.236H521.801V25.236H496.689V33.236ZM517.801 29.236V100.96H525.801V29.236H517.801ZM517.801 100.96C517.801 112.207 521.105 121.493 528.144 128.266L533.691 122.502C528.575 117.579 525.801 110.582 525.801 100.96H517.801ZM528.122 128.246C533.985 133.971 541.916 136.608 551.385 136.608V128.608C543.426 128.608 537.711 126.429 533.712 122.522L528.122 128.246ZM551.385 136.608C560.864 136.608 568.862 133.969 574.927 128.308L569.468 122.46C565.213 126.431 559.336 128.608 551.385 128.608V136.608ZM574.942 128.294C582.02 121.617 585.313 112.303 585.313 100.96H577.313C577.313 110.715 574.53 117.685 569.452 122.474L574.942 128.294ZM585.313 100.96V29.236H577.313V100.96H585.313ZM581.313 33.236H606.253V25.236H581.313V33.236ZM602.253 29.236V100.616H610.253V29.236H602.253ZM602.253 100.616C602.253 116.477 597.451 129.074 588.07 138.771L593.82 144.333C604.85 132.932 610.253 118.237 610.253 100.616H602.253ZM588.07 138.771C578.699 148.458 566.591 153.376 551.385 153.376V161.376C568.516 161.376 582.781 155.745 593.82 144.333L588.07 138.771ZM643.464 145.164L640.966 148.287L640.975 148.295L643.464 145.164ZM628.5 115.408L624.521 115.816L624.522 115.823L624.523 115.83L628.5 115.408ZM627.812 108.7V104.7H623.381L623.833 109.108L627.812 108.7ZM653.612 108.7L657.605 108.458L657.377 104.7H653.612V108.7ZM653.956 114.376L657.949 114.136L657.949 114.134L653.956 114.376ZM662.384 127.62L660.36 131.07L660.371 131.077L660.383 131.083L662.384 127.62ZM701.772 129.684L703.335 133.366L703.361 133.355L703.387 133.344L701.772 129.684ZM708.996 124.18L712.616 125.883L712.616 125.883L708.996 124.18ZM707.276 111.968L709.57 108.691L709.559 108.683L709.547 108.675L707.276 111.968ZM694.376 106.12L693.191 109.94L693.201 109.944L693.212 109.947L694.376 106.12ZM675.8 101.476L676.689 97.576L676.666 97.5708L676.644 97.5659L675.8 101.476ZM656.02 95.284L657.476 91.5582L657.473 91.5572L656.02 95.284ZM639.508 84.62L642.41 81.867L642.358 81.8121L642.304 81.7592L639.508 84.62ZM644.84 37.148L642.326 34.037L642.317 34.0448L644.84 37.148ZM718.8 38.352L716.236 41.4217L716.254 41.4367L716.272 41.4515L718.8 38.352ZM732.56 65.356L728.564 65.5243L728.565 65.5481L728.566 65.5719L732.56 65.356ZM732.904 71.72V75.72H737.127L736.899 71.5041L732.904 71.72ZM707.792 71.72L703.825 72.2319L704.275 75.72H707.792V71.72ZM707.104 66.388L703.133 66.8646L703.135 66.8822L703.137 66.8999L707.104 66.388ZM703.664 58.476L706.773 55.9592L706.773 55.9592L703.664 58.476ZM693.172 52.628L692.023 56.4593L692.031 56.4617L692.039 56.4641L693.172 52.628ZM667.2 52.8L668.465 56.5947L668.485 56.5882L668.504 56.5815L667.2 52.8ZM659.976 56.412L657.478 53.2885L657.373 53.3725L657.274 53.4634L659.976 56.412ZM657.396 60.196L661.191 61.4609L661.226 61.3556L661.256 61.2485L657.396 60.196ZM658.084 68.452L655.256 71.2804L655.256 71.2804L658.084 68.452ZM665.136 72.752L663.627 76.4564L663.664 76.4712L663.701 76.4854L665.136 72.752ZM677.004 76.536L675.929 80.3888L675.994 80.4068L676.059 80.4227L677.004 76.536ZM683.368 78.084L682.423 81.9707L682.44 81.9748L682.457 81.9788L683.368 78.084ZM691.452 79.976L692.505 76.1169L692.435 76.0978L692.364 76.0812L691.452 79.976ZM695.236 81.008L696.295 77.1507L696.289 77.1489L695.236 81.008ZM706.416 84.276L705.071 88.043L705.125 88.0623L705.18 88.0801L706.416 84.276ZM720.348 90.984L718.206 94.362L718.214 94.3668L718.221 94.3716L720.348 90.984ZM731.528 102.336L728.045 104.301L728.063 104.335L728.083 104.368L731.528 102.336ZM720.864 146.884L718.584 143.598L718.577 143.603L718.571 143.607L720.864 146.884ZM684.056 152.516C667.028 152.516 654.51 148.836 645.954 142.033L640.975 148.295C651.454 156.628 665.997 160.516 684.056 160.516V152.516ZM645.963 142.041C638.348 135.948 633.764 127.091 632.478 114.986L624.523 115.83C625.989 129.64 631.381 140.62 640.966 148.287L645.963 142.041ZM632.48 115L631.792 108.292L623.833 109.108L624.521 115.816L632.48 115ZM627.812 112.7H653.612V104.7H627.812V112.7ZM649.62 108.942L649.964 114.618L657.949 114.134L657.605 108.458L649.62 108.942ZM649.964 114.616C650.393 121.78 654.024 127.351 660.36 131.07L664.409 124.17C660.196 121.697 658.207 118.439 657.949 114.136L649.964 114.616ZM660.383 131.083C666.406 134.563 674.492 136.092 684.228 136.092V128.092C675.16 128.092 668.683 126.639 664.386 124.157L660.383 131.083ZM684.228 136.092C692.273 136.092 698.786 135.296 703.335 133.366L700.21 126.002C697.191 127.283 692.008 128.092 684.228 128.092V136.092ZM703.387 133.344C707.429 131.56 711.041 129.23 712.616 125.883L705.377 122.477C705.118 123.029 703.913 124.368 700.158 126.024L703.387 133.344ZM712.616 125.883C713.787 123.395 714.372 120.749 714.372 117.988H706.372C706.372 119.585 706.041 121.066 705.377 122.477L712.616 125.883ZM714.372 117.988C714.372 116.193 714.077 114.388 713.262 112.759L706.107 116.337C706.21 116.542 706.372 117.031 706.372 117.988H714.372ZM713.262 112.759C712.417 111.069 711.072 109.743 709.57 108.691L704.983 115.245C705.774 115.799 706.034 116.192 706.107 116.337L713.262 112.759ZM709.547 108.675C705.785 106.08 701.077 103.978 695.541 102.293L693.212 109.947C698.226 111.473 702.118 113.269 705.006 115.261L709.547 108.675ZM695.562 102.3C692.07 101.216 685.736 99.6373 676.689 97.576L674.912 105.376C683.982 107.443 690.032 108.96 693.191 109.94L695.562 102.3ZM676.644 97.5659C671.058 96.3611 664.674 94.37 657.476 91.5582L654.565 99.0098C662.044 101.931 668.847 104.068 674.957 105.386L676.644 97.5659ZM657.473 91.5572C651.16 89.096 646.182 85.8422 642.41 81.867L636.607 87.373C641.321 92.3418 647.35 96.1973 654.568 99.0108L657.473 91.5572ZM642.304 81.7592C638.171 77.7202 635.94 72.1784 635.94 64.668H627.94C627.94 73.8989 630.755 81.6585 636.713 87.4807L642.304 81.7592ZM635.94 64.668C635.94 54.4862 639.724 46.4653 647.364 40.2512L642.317 34.0448C632.757 41.82 627.94 52.1458 627.94 64.668H635.94ZM647.355 40.259C654.746 34.285 665.808 31 681.132 31V23C664.809 23 651.676 26.4804 642.326 34.037L647.355 40.259ZM681.132 31C696.586 31 708.119 34.6404 716.236 41.4217L721.365 35.2823C711.365 26.9276 697.786 23 681.132 23V31ZM716.272 41.4515C724.133 47.8643 728.155 55.8132 728.564 65.5243L736.557 65.1877C736.048 53.1121 730.897 43.0584 721.329 35.2525L716.272 41.4515ZM728.566 65.5719L728.91 71.9359L736.899 71.5041L736.555 65.1401L728.566 65.5719ZM732.904 67.72H707.792V75.72H732.904V67.72ZM711.76 71.2081L711.072 65.8761L703.137 66.8999L703.825 72.2319L711.76 71.2081ZM711.076 65.9114C710.636 62.2421 709.161 58.908 706.773 55.9592L700.555 60.9928C702.067 62.86 702.885 64.8006 703.133 66.8646L711.076 65.9114ZM706.773 55.9592C704.069 52.6183 699.643 50.3688 694.306 48.7919L692.039 56.4641C696.793 57.8685 699.361 59.5177 700.555 60.9928L706.773 55.9592ZM694.322 48.7967C690.379 47.6138 685.6 47.08 680.1 47.08V55.08C685.15 55.08 689.086 55.5782 692.023 56.4593L694.322 48.7967ZM680.1 47.08C674.581 47.08 669.795 47.6741 665.897 49.0185L668.504 56.5815C671.256 55.6326 675.07 55.08 680.1 55.08V47.08ZM665.936 49.0053C662.587 50.1215 659.698 51.512 657.478 53.2885L662.475 59.5355C663.695 58.56 665.622 57.5425 668.465 56.5947L665.936 49.0053ZM657.274 53.4634C655.567 55.0274 654.148 56.9053 653.537 59.1435L661.256 61.2485C661.333 60.964 661.634 60.3192 662.679 59.3606L657.274 53.4634ZM653.602 58.9311C652.883 61.0885 652.536 63.3531 652.536 65.7H660.536C660.536 64.1482 660.764 62.7435 661.191 61.4609L653.602 58.9311ZM652.536 65.7C652.536 68.1531 654.032 70.0562 655.256 71.2804L660.913 65.6236C660.745 65.4555 660.624 65.3181 660.54 65.212C660.455 65.1051 660.418 65.044 660.41 65.029C660.387 64.9882 660.536 65.2331 660.536 65.7H652.536ZM655.256 71.2804C657.373 73.3969 660.25 75.0806 663.627 76.4564L666.646 69.0476C663.83 67.9007 662.007 66.7177 660.913 65.6236L655.256 71.2804ZM663.701 76.4854C666.849 77.6962 670.94 78.9963 675.929 80.3888L678.08 72.6832C673.208 71.3236 669.387 70.1011 666.572 69.0186L663.701 76.4854ZM676.059 80.4227L682.423 81.9707L684.314 74.1973L677.95 72.6493L676.059 80.4227ZM682.457 81.9788L690.541 83.8707L692.364 76.0812L684.28 74.1892L682.457 81.9788ZM690.4 83.835L694.184 84.8671L696.289 77.1489L692.505 76.1169L690.4 83.835ZM694.178 84.8653C700.068 86.4823 703.636 87.5305 705.071 88.043L707.762 80.509C705.986 79.8748 702.101 78.7444 696.295 77.1507L694.178 84.8653ZM705.18 88.0801C709.404 89.4528 713.745 91.5332 718.206 94.362L722.491 87.606C717.549 84.4722 712.603 82.0805 707.653 80.4719L705.18 88.0801ZM718.221 94.3716C722.665 97.1617 725.89 100.483 728.045 104.301L735.012 100.371C732.121 95.2453 727.893 90.9983 722.476 87.5964L718.221 94.3716ZM728.083 104.368C730.335 108.187 731.484 112.466 731.484 117.3H739.484C739.484 111.126 737.996 105.429 734.974 100.304L728.083 104.368ZM731.484 117.3C731.484 129.088 727.142 137.657 718.584 143.598L723.145 150.17C734.08 142.58 739.484 131.427 739.484 117.3H731.484ZM718.571 143.607C710.278 149.412 698.899 152.516 684.056 152.516V160.516C699.945 160.516 713.104 157.199 723.158 150.161L718.571 143.607Z" fill="black" fill-opacity="0.3"/>
<defs>
<linearGradient id="paint0_linear_69_2" x1="5.8406" y1="87.5" x2="637.317" y2="-173.267" gradientUnits="userSpaceOnUse">
<stop stop-color="#F24D56"/>
<stop offset="0.509216" stop-color="#EE0C77"/>
<stop offset="0.964829" stop-color="#F24D56"/>
</linearGradient>
</defs>
</svg>
