<svg width="554" height="131" viewBox="0 0 554 131" fill="none" xmlns="http://www.w3.org/2000/svg">
<path d="M10.445 22.664V18.664H6.44499V22.664H10.445ZM81.101 22.664H85.101V18.664H81.101V22.664ZM81.101 40.84V44.84H85.101V40.84H81.101ZM29.133 40.84V36.84H25.133V40.84H29.133ZM29.133 67.976H25.133V71.976H29.133V67.976ZM66.381 67.976H70.381V63.976H66.381V67.976ZM66.381 86.408V90.408H70.381V86.408H66.381ZM29.133 86.408V82.408H25.133V86.408H29.133ZM29.133 117V121H33.133V117H29.133ZM10.445 117H6.44499V121H10.445V117ZM10.445 26.664H81.101V18.664H10.445V26.664ZM77.101 22.664V40.84H85.101V22.664H77.101ZM81.101 36.84H29.133V44.84H81.101V36.84ZM25.133 40.84V67.976H33.133V40.84H25.133ZM29.133 71.976H66.381V63.976H29.133V71.976ZM62.381 67.976V86.408H70.381V67.976H62.381ZM66.381 82.408H29.133V90.408H66.381V82.408ZM25.133 86.408V117H33.133V86.408H25.133ZM29.133 113H10.445V121H29.133V113ZM14.445 117V22.664H6.44499V117H14.445ZM94.585 22.664V18.664H90.585V22.664H94.585ZM113.273 22.664H117.273V18.664H113.273V22.664ZM113.273 117V121H117.273V117H113.273ZM94.585 117H90.585V121H94.585V117ZM94.585 26.664H113.273V18.664H94.585V26.664ZM109.273 22.664V117H117.273V22.664H109.273ZM113.273 113H94.585V121H113.273V113ZM98.585 117V22.664H90.585V117H98.585ZM134.35 22.664V18.664H130.35V22.664H134.35ZM152.27 22.664L155.491 20.2925L154.292 18.664H152.27V22.664ZM198.35 85.256L195.129 87.6274L202.35 97.4363V85.256H198.35ZM198.35 22.664V18.664H194.35V22.664H198.35ZM217.038 22.664H221.038V18.664H217.038V22.664ZM217.038 117V121H221.038V117H217.038ZM198.99 117L195.761 119.361L196.959 121H198.99V117ZM153.038 54.152L156.267 51.7911L149.038 41.9041V54.152H153.038ZM153.038 117V121H157.038V117H153.038ZM134.35 117H130.35V121H134.35V117ZM134.35 26.664H152.27V18.664H134.35V26.664ZM149.049 25.0354L195.129 87.6274L201.571 82.8846L155.491 20.2925L149.049 25.0354ZM202.35 85.256V22.664H194.35V85.256H202.35ZM198.35 26.664H217.038V18.664H198.35V26.664ZM213.038 22.664V117H221.038V22.664H213.038ZM217.038 113H198.99V121H217.038V113ZM202.219 114.639L156.267 51.7911L149.809 56.5129L195.761 119.361L202.219 114.639ZM149.038 54.152V117H157.038V54.152H149.038ZM153.038 113H134.35V121H153.038V113ZM138.35 117V22.664H130.35V117H138.35ZM238.115 22.664V18.664H234.115V22.664H238.115ZM294.947 25.864L293.409 29.5563L293.435 29.5673L293.461 29.5779L294.947 25.864ZM309.027 35.336L311.882 32.5346L311.869 32.521L311.855 32.5076L309.027 35.336ZM309.027 104.328L311.885 107.126L311.89 107.121L311.895 107.116L309.027 104.328ZM294.947 113.8L293.421 110.102L293.409 110.108L294.947 113.8ZM238.115 117H234.115V121H238.115V117ZM296.611 90.504L293.577 87.8969L293.567 87.9085L293.557 87.9202L296.611 90.504ZM296.611 49.16L293.561 51.7479L293.569 51.7575L293.577 51.7671L296.611 49.16ZM256.803 40.712V36.712H252.803V40.712H256.803ZM256.803 98.824H252.803V102.824H256.803V98.824ZM238.115 26.664H278.563V18.664H238.115V26.664ZM278.563 26.664C283.862 26.664 288.798 27.6354 293.409 29.5563L296.485 22.1717C290.856 19.8259 284.869 18.664 278.563 18.664V26.664ZM293.461 29.5779C298.033 31.4065 302.279 34.2445 306.199 38.1644L311.855 32.5076C307.242 27.8942 302.101 24.4175 296.433 22.1501L293.461 29.5779ZM306.172 38.1374C314.238 46.3585 318.339 56.7942 318.339 69.768H326.339C326.339 54.9231 321.566 42.4042 311.882 32.5346L306.172 38.1374ZM318.339 69.768C318.339 82.7416 314.237 93.2283 306.159 101.54L311.895 107.116C321.566 97.1663 326.339 84.6131 326.339 69.768H318.339ZM306.169 101.53C302.543 105.233 298.304 108.087 293.421 110.103L296.473 117.497C302.342 115.075 307.49 111.615 311.885 107.126L306.169 101.53ZM293.409 110.108C288.798 112.029 283.862 113 278.563 113V121C284.869 121 290.856 119.838 296.485 117.492L293.409 110.108ZM278.563 113H238.115V121H278.563V113ZM242.115 117V22.664H234.115V117H242.115ZM278.179 102.824C286.889 102.824 294.173 99.5782 299.665 93.0878L293.557 87.9202C289.663 92.5232 284.658 94.824 278.179 94.824V102.824ZM299.645 93.1111C305.06 86.8094 307.651 78.9241 307.651 69.768H299.651C299.651 77.3372 297.548 83.276 293.577 87.8969L299.645 93.1111ZM307.651 69.768C307.651 60.6857 305.054 52.8471 299.645 46.5529L293.577 51.7671C297.555 56.3956 299.651 62.2956 299.651 69.768H307.651ZM299.661 46.5721C294.108 40.0273 286.84 36.712 278.179 36.712V44.712C284.536 44.712 289.557 47.0287 293.561 51.7479L299.661 46.5721ZM278.179 36.712H256.803V44.712H278.179V36.712ZM252.803 40.712V98.824H260.803V40.712H252.803ZM256.803 102.824H278.179V94.824H256.803V102.824ZM381.132 106.248L378.272 109.045L378.273 109.045L381.132 106.248ZM369.74 22.664V18.664H365.74V22.664H369.74ZM388.428 22.664H392.428V18.664H388.428V22.664ZM395.212 94.216L398.007 91.3545L397.996 91.3441L397.986 91.3337L395.212 94.216ZM425.932 94.216L428.661 97.1402L428.669 97.1329L428.677 97.1256L425.932 94.216ZM432.716 22.664V18.664H428.716V22.664H432.716ZM451.276 22.664H455.276V18.664H451.276V22.664ZM439.884 106.248L442.759 109.029L439.884 106.248ZM410.444 114.024C399.563 114.024 390.855 110.467 383.991 103.451L378.273 109.045C386.769 117.731 397.602 122.024 410.444 122.024V114.024ZM383.992 103.451C377.242 96.5495 373.74 87.4573 373.74 75.784H365.74C365.74 89.1987 369.833 100.416 378.272 109.045L383.992 103.451ZM373.74 75.784V22.664H365.74V75.784H373.74ZM369.74 26.664H388.428V18.664H369.74V26.664ZM384.428 22.664V76.04H392.428V22.664H384.428ZM384.428 76.04C384.428 84.6178 386.954 91.8207 392.438 97.0983L397.986 91.3337C394.425 87.9073 392.428 82.9929 392.428 76.04H384.428ZM392.417 97.0775C397.018 101.571 403.204 103.592 410.444 103.592V95.592C404.714 95.592 400.745 94.0286 398.007 91.3545L392.417 97.0775ZM410.444 103.592C417.693 103.592 423.916 101.569 428.661 97.1402L423.203 91.2918C420.268 94.0312 416.166 95.592 410.444 95.592V103.592ZM428.677 97.1256C434.2 91.9154 436.716 84.6846 436.716 76.04H428.716C428.716 83.0967 426.71 87.9833 423.187 91.3064L428.677 97.1256ZM436.716 76.04V22.664H428.716V76.04H436.716ZM432.716 26.664H451.276V18.664H432.716V26.664ZM447.276 22.664V75.784H455.276V22.664H447.276ZM447.276 75.784C447.276 87.3626 443.779 96.4684 437.009 103.467L442.759 109.029C451.178 100.326 455.276 89.1228 455.276 75.784H447.276ZM437.009 103.467C430.249 110.455 421.514 114.024 410.444 114.024V122.024C423.438 122.024 434.33 117.742 442.759 109.029L437.009 103.467ZM478.968 108.936L476.469 112.059L476.478 112.067L478.968 108.936ZM467.832 86.792L463.853 87.2001L463.854 87.2073L463.854 87.2144L467.832 86.792ZM467.32 81.8V77.8H462.889L463.341 82.2081L467.32 81.8ZM486.52 81.8L490.513 81.558L490.285 77.8H486.52V81.8ZM486.776 86.024L490.769 85.7844L490.769 85.782L486.776 86.024ZM493.048 95.88L491.023 99.3297L491.035 99.3366L491.047 99.3435L493.048 95.88ZM522.36 97.416L523.922 101.098L523.948 101.087L523.975 101.076L522.36 97.416ZM527.736 93.32L531.355 95.0232L531.355 95.0232L527.736 93.32ZM526.456 84.232L528.75 80.9551L528.738 80.9471L528.727 80.9391L526.456 84.232ZM516.856 79.88L515.67 83.7003L515.681 83.7035L515.691 83.7067L516.856 79.88ZM503.032 76.424L503.921 72.524L503.898 72.5188L503.875 72.5139L503.032 76.424ZM488.312 71.816L489.767 68.0902L489.765 68.0892L488.312 71.816ZM476.024 63.88L478.926 61.127L478.874 61.0721L478.82 61.0192L476.024 63.88ZM479.992 28.552L477.478 25.441L477.468 25.4488L479.992 28.552ZM535.032 29.448L532.467 32.5177L532.485 32.5327L532.503 32.5475L535.032 29.448ZM545.272 49.544L541.276 49.7123L541.277 49.7361L541.278 49.7599L545.272 49.544ZM545.528 54.28V58.28H549.75L549.522 54.0641L545.528 54.28ZM526.84 54.28L522.873 54.7919L523.323 58.28H526.84V54.28ZM526.328 50.312L522.356 50.7886L522.359 50.8062L522.361 50.8239L526.328 50.312ZM523.768 44.424L526.877 41.9072L526.877 41.9072L523.768 44.424ZM515.96 40.072L514.811 43.9033L514.819 43.9057L514.827 43.9081L515.96 40.072ZM496.632 40.2L497.897 43.9947L497.916 43.9882L497.936 43.9815L496.632 40.2ZM491.256 42.888L488.757 39.7645L488.652 39.8485L488.553 39.9394L491.256 42.888ZM489.336 45.704L493.131 46.9689L493.166 46.8636L493.195 46.7565L489.336 45.704ZM489.848 51.848L487.02 54.6764L487.02 54.6764L489.848 51.848ZM495.096 55.048L493.587 58.7524L493.623 58.7672L493.66 58.7814L495.096 55.048ZM503.928 57.864L502.853 61.7168L502.917 61.7348L502.983 61.7507L503.928 57.864ZM508.664 59.016L507.719 62.9027L507.735 62.9068L507.752 62.9108L508.664 59.016ZM514.68 60.424L515.732 56.5649L515.662 56.5458L515.592 56.5292L514.68 60.424ZM517.496 61.192L518.555 57.3347L518.548 57.3329L517.496 61.192ZM525.816 63.624L524.471 67.391L524.525 67.4103L524.58 67.4281L525.816 63.624ZM536.184 68.616L534.042 71.994L534.049 71.9988L534.057 72.0036L536.184 68.616ZM544.504 77.064L541.02 79.0293L541.039 79.0628L541.059 79.0959L544.504 77.064ZM536.568 110.216L534.287 106.93L534.281 106.935L534.274 106.939L536.568 110.216ZM509.176 113.384C496.635 113.384 487.578 110.672 481.458 105.805L476.478 112.067C484.523 118.464 495.605 121.384 509.176 121.384V113.384ZM481.467 105.813C476.052 101.48 472.743 95.16 471.81 86.3696L463.854 87.2144C464.969 97.7094 469.084 106.152 476.469 112.059L481.467 105.813ZM471.811 86.3839L471.299 81.3919L463.341 82.2081L463.853 87.2001L471.811 86.3839ZM467.32 85.8H486.52V77.8H467.32V85.8ZM482.527 82.042L482.783 86.266L490.769 85.782L490.513 81.558L482.527 82.042ZM482.783 86.2636C483.125 91.9609 486.036 96.4027 491.023 99.3297L495.073 92.4303C492.209 90.7493 490.939 88.6204 490.769 85.7844L482.783 86.2636ZM491.047 99.3435C495.75 102.061 501.972 103.208 509.304 103.208V95.208C502.641 95.208 498.026 94.1366 495.049 92.4165L491.047 99.3435ZM509.304 103.208C515.324 103.208 520.341 102.617 523.922 101.098L520.798 93.7337C518.747 94.6039 515.06 95.208 509.304 95.208V103.208ZM523.975 101.076C527.02 99.7323 530.015 97.8714 531.355 95.0232L524.117 91.6168C524.137 91.5731 524.035 91.8087 523.456 92.2503C522.888 92.6827 522.015 93.1962 520.745 93.7563L523.975 101.076ZM531.355 95.0232C532.292 93.0336 532.76 90.9153 532.76 88.712H524.76C524.76 89.7514 524.546 90.7051 524.117 91.6168L531.355 95.0232ZM532.76 88.712C532.76 87.2694 532.523 85.7576 531.826 84.3631L524.67 87.9409C524.656 87.9117 524.76 88.1066 524.76 88.712H532.76ZM531.826 84.3631C531.098 82.908 529.959 81.8012 528.75 80.9551L524.162 87.5089C524.66 87.8575 524.715 88.0307 524.67 87.9409L531.826 84.3631ZM528.727 80.9391C525.815 78.9308 522.207 77.3273 518.021 76.0533L515.691 83.7067C519.356 84.822 522.148 86.1198 524.185 87.5248L528.727 80.9391ZM518.042 76.0597C515.4 75.24 510.65 74.0573 503.921 72.524L502.143 80.324C508.896 81.8627 513.363 82.984 515.67 83.7003L518.042 76.0597ZM503.875 72.5139C499.785 71.6318 495.088 70.1687 489.767 68.0902L486.857 75.5418C492.458 77.73 497.575 79.3389 502.189 80.3341L503.875 72.5139ZM489.765 68.0892C485.182 66.3027 481.612 63.9582 478.926 61.127L473.122 66.633C476.751 70.4578 481.372 73.404 486.859 75.5428L489.765 68.0892ZM478.82 61.0192C475.977 58.2415 474.392 54.4011 474.392 49.032H466.392C466.392 56.1216 468.561 62.1798 473.228 66.7407L478.82 61.0192ZM474.392 49.032C474.392 41.7542 477.076 36.08 482.516 31.6552L477.468 25.4488C470.108 31.4347 466.392 39.4138 466.392 49.032H474.392ZM482.506 31.663C487.757 27.4196 495.723 25 507 25V17C494.725 17 484.686 19.615 477.478 25.441L482.506 31.663ZM507 25C518.347 25 526.668 27.6724 532.467 32.5177L537.597 26.3783C529.914 19.9596 519.547 17 507 17V25ZM532.503 32.5475C538.135 37.1416 540.984 42.7879 541.276 49.7123L549.268 49.3757C548.877 40.0867 544.9 32.3357 537.56 26.3485L532.503 32.5475ZM541.278 49.7599L541.534 54.4959L549.522 54.0641L549.266 49.3281L541.278 49.7599ZM545.528 50.28H526.84V58.28H545.528V50.28ZM530.807 53.7681L530.295 49.8001L522.361 50.8239L522.873 54.7919L530.807 53.7681ZM530.299 49.8354C529.947 46.8994 528.765 44.24 526.877 41.9072L520.659 46.9408C521.672 48.192 522.197 49.4579 522.356 50.7886L530.299 49.8354ZM526.877 41.9072C524.671 39.1823 521.14 37.4315 517.093 36.2359L514.827 43.9081C518.289 44.9312 519.964 46.0817 520.659 46.9408L526.877 41.9072ZM517.109 36.2407C514.046 35.3218 510.382 34.92 506.232 34.92V42.92C509.932 42.92 512.754 43.2862 514.811 43.9033L517.109 36.2407ZM506.232 34.92C502.062 34.92 498.376 35.3674 495.328 36.4185L497.936 43.9815C499.837 43.3259 502.551 42.92 506.232 42.92V34.92ZM495.367 36.4053C492.81 37.2575 490.538 38.34 488.757 39.7645L493.755 46.0115C494.534 45.388 495.846 44.6785 497.897 43.9947L495.367 36.4053ZM488.553 39.9394C487.199 41.1808 485.999 42.736 485.477 44.6515L493.195 46.7565C493.185 46.7947 493.265 46.4726 493.959 45.8366L488.553 39.9394ZM485.541 44.4391C484.969 46.1565 484.696 47.9517 484.696 49.8H492.696C492.696 48.7469 492.85 47.8115 493.131 46.9689L485.541 44.4391ZM484.696 49.8C484.696 52.0478 486.059 53.7162 487.02 54.6764L492.676 49.0196C492.459 48.8018 492.43 48.7266 492.47 48.799C492.513 48.8755 492.696 49.2304 492.696 49.8H484.696ZM487.02 54.6764C488.725 56.3823 491.002 57.6993 493.587 58.7524L496.605 51.3436C494.582 50.5194 493.36 49.7031 492.676 49.0196L487.02 54.6764ZM493.66 58.7814C496.046 59.6989 499.125 60.6763 502.853 61.7168L505.003 54.0112C501.393 53.0036 498.584 52.1038 496.532 51.3146L493.66 58.7814ZM502.983 61.7507L507.719 62.9027L509.609 55.1293L504.873 53.9773L502.983 61.7507ZM507.752 62.9108L513.768 64.3187L515.592 56.5292L509.576 55.1212L507.752 62.9108ZM513.628 64.2831L516.444 65.0511L518.548 57.3329L515.732 56.5649L513.628 64.2831ZM516.437 65.0493C520.831 66.2556 523.447 67.0252 524.471 67.391L527.161 59.857C525.796 59.3694 522.865 58.5177 518.555 57.3347L516.437 65.0493ZM524.58 67.4281C527.63 68.4195 530.784 69.9278 534.042 71.994L538.326 65.238C534.587 62.8668 530.829 61.0472 527.052 59.8199L524.58 67.4281ZM534.057 72.0036C537.239 74.0017 539.511 76.3547 541.02 79.0293L547.988 75.0987C545.742 71.1173 542.467 67.8383 538.311 65.2284L534.057 72.0036ZM541.059 79.0959C542.636 81.7709 543.448 84.774 543.448 88.2H551.448C551.448 83.434 550.297 79.0131 547.949 75.0321L541.059 79.0959ZM543.448 88.2C543.448 96.6735 540.352 102.72 534.287 106.93L538.849 113.502C547.29 107.643 551.448 99.0119 551.448 88.2H543.448ZM534.274 106.939C528.328 111.101 520.088 113.384 509.176 113.384V121.384C521.133 121.384 531.154 118.888 538.862 113.493L534.274 106.939Z" fill="url(#paint0_linear_76_2)"/>
<path d="M10.445 22.664V18.664H6.44499V22.664H10.445ZM81.101 22.664H85.101V18.664H81.101V22.664ZM81.101 40.84V44.84H85.101V40.84H81.101ZM29.133 40.84V36.84H25.133V40.84H29.133ZM29.133 67.976H25.133V71.976H29.133V67.976ZM66.381 67.976H70.381V63.976H66.381V67.976ZM66.381 86.408V90.408H70.381V86.408H66.381ZM29.133 86.408V82.408H25.133V86.408H29.133ZM29.133 117V121H33.133V117H29.133ZM10.445 117H6.44499V121H10.445V117ZM10.445 26.664H81.101V18.664H10.445V26.664ZM77.101 22.664V40.84H85.101V22.664H77.101ZM81.101 36.84H29.133V44.84H81.101V36.84ZM25.133 40.84V67.976H33.133V40.84H25.133ZM29.133 71.976H66.381V63.976H29.133V71.976ZM62.381 67.976V86.408H70.381V67.976H62.381ZM66.381 82.408H29.133V90.408H66.381V82.408ZM25.133 86.408V117H33.133V86.408H25.133ZM29.133 113H10.445V121H29.133V113ZM14.445 117V22.664H6.44499V117H14.445ZM94.585 22.664V18.664H90.585V22.664H94.585ZM113.273 22.664H117.273V18.664H113.273V22.664ZM113.273 117V121H117.273V117H113.273ZM94.585 117H90.585V121H94.585V117ZM94.585 26.664H113.273V18.664H94.585V26.664ZM109.273 22.664V117H117.273V22.664H109.273ZM113.273 113H94.585V121H113.273V113ZM98.585 117V22.664H90.585V117H98.585ZM134.35 22.664V18.664H130.35V22.664H134.35ZM152.27 22.664L155.491 20.2925L154.292 18.664H152.27V22.664ZM198.35 85.256L195.129 87.6274L202.35 97.4363V85.256H198.35ZM198.35 22.664V18.664H194.35V22.664H198.35ZM217.038 22.664H221.038V18.664H217.038V22.664ZM217.038 117V121H221.038V117H217.038ZM198.99 117L195.761 119.361L196.959 121H198.99V117ZM153.038 54.152L156.267 51.7911L149.038 41.9041V54.152H153.038ZM153.038 117V121H157.038V117H153.038ZM134.35 117H130.35V121H134.35V117ZM134.35 26.664H152.27V18.664H134.35V26.664ZM149.049 25.0354L195.129 87.6274L201.571 82.8846L155.491 20.2925L149.049 25.0354ZM202.35 85.256V22.664H194.35V85.256H202.35ZM198.35 26.664H217.038V18.664H198.35V26.664ZM213.038 22.664V117H221.038V22.664H213.038ZM217.038 113H198.99V121H217.038V113ZM202.219 114.639L156.267 51.7911L149.809 56.5129L195.761 119.361L202.219 114.639ZM149.038 54.152V117H157.038V54.152H149.038ZM153.038 113H134.35V121H153.038V113ZM138.35 117V22.664H130.35V117H138.35ZM238.115 22.664V18.664H234.115V22.664H238.115ZM294.947 25.864L293.409 29.5563L293.435 29.5673L293.461 29.5779L294.947 25.864ZM309.027 35.336L311.882 32.5346L311.869 32.521L311.855 32.5076L309.027 35.336ZM309.027 104.328L311.885 107.126L311.89 107.121L311.895 107.116L309.027 104.328ZM294.947 113.8L293.421 110.102L293.409 110.108L294.947 113.8ZM238.115 117H234.115V121H238.115V117ZM296.611 90.504L293.577 87.8969L293.567 87.9085L293.557 87.9202L296.611 90.504ZM296.611 49.16L293.561 51.7479L293.569 51.7575L293.577 51.7671L296.611 49.16ZM256.803 40.712V36.712H252.803V40.712H256.803ZM256.803 98.824H252.803V102.824H256.803V98.824ZM238.115 26.664H278.563V18.664H238.115V26.664ZM278.563 26.664C283.862 26.664 288.798 27.6354 293.409 29.5563L296.485 22.1717C290.856 19.8259 284.869 18.664 278.563 18.664V26.664ZM293.461 29.5779C298.033 31.4065 302.279 34.2445 306.199 38.1644L311.855 32.5076C307.242 27.8942 302.101 24.4175 296.433 22.1501L293.461 29.5779ZM306.172 38.1374C314.238 46.3585 318.339 56.7942 318.339 69.768H326.339C326.339 54.9231 321.566 42.4042 311.882 32.5346L306.172 38.1374ZM318.339 69.768C318.339 82.7416 314.237 93.2283 306.159 101.54L311.895 107.116C321.566 97.1663 326.339 84.6131 326.339 69.768H318.339ZM306.169 101.53C302.543 105.233 298.304 108.087 293.421 110.103L296.473 117.497C302.342 115.075 307.49 111.615 311.885 107.126L306.169 101.53ZM293.409 110.108C288.798 112.029 283.862 113 278.563 113V121C284.869 121 290.856 119.838 296.485 117.492L293.409 110.108ZM278.563 113H238.115V121H278.563V113ZM242.115 117V22.664H234.115V117H242.115ZM278.179 102.824C286.889 102.824 294.173 99.5782 299.665 93.0878L293.557 87.9202C289.663 92.5232 284.658 94.824 278.179 94.824V102.824ZM299.645 93.1111C305.06 86.8094 307.651 78.9241 307.651 69.768H299.651C299.651 77.3372 297.548 83.276 293.577 87.8969L299.645 93.1111ZM307.651 69.768C307.651 60.6857 305.054 52.8471 299.645 46.5529L293.577 51.7671C297.555 56.3956 299.651 62.2956 299.651 69.768H307.651ZM299.661 46.5721C294.108 40.0273 286.84 36.712 278.179 36.712V44.712C284.536 44.712 289.557 47.0287 293.561 51.7479L299.661 46.5721ZM278.179 36.712H256.803V44.712H278.179V36.712ZM252.803 40.712V98.824H260.803V40.712H252.803ZM256.803 102.824H278.179V94.824H256.803V102.824ZM381.132 106.248L378.272 109.045L378.273 109.045L381.132 106.248ZM369.74 22.664V18.664H365.74V22.664H369.74ZM388.428 22.664H392.428V18.664H388.428V22.664ZM395.212 94.216L398.007 91.3545L397.996 91.3441L397.986 91.3337L395.212 94.216ZM425.932 94.216L428.661 97.1402L428.669 97.1329L428.677 97.1256L425.932 94.216ZM432.716 22.664V18.664H428.716V22.664H432.716ZM451.276 22.664H455.276V18.664H451.276V22.664ZM439.884 106.248L442.759 109.029L439.884 106.248ZM410.444 114.024C399.563 114.024 390.855 110.467 383.991 103.451L378.273 109.045C386.769 117.731 397.602 122.024 410.444 122.024V114.024ZM383.992 103.451C377.242 96.5495 373.74 87.4573 373.74 75.784H365.74C365.74 89.1987 369.833 100.416 378.272 109.045L383.992 103.451ZM373.74 75.784V22.664H365.74V75.784H373.74ZM369.74 26.664H388.428V18.664H369.74V26.664ZM384.428 22.664V76.04H392.428V22.664H384.428ZM384.428 76.04C384.428 84.6178 386.954 91.8207 392.438 97.0983L397.986 91.3337C394.425 87.9073 392.428 82.9929 392.428 76.04H384.428ZM392.417 97.0775C397.018 101.571 403.204 103.592 410.444 103.592V95.592C404.714 95.592 400.745 94.0286 398.007 91.3545L392.417 97.0775ZM410.444 103.592C417.693 103.592 423.916 101.569 428.661 97.1402L423.203 91.2918C420.268 94.0312 416.166 95.592 410.444 95.592V103.592ZM428.677 97.1256C434.2 91.9154 436.716 84.6846 436.716 76.04H428.716C428.716 83.0967 426.71 87.9833 423.187 91.3064L428.677 97.1256ZM436.716 76.04V22.664H428.716V76.04H436.716ZM432.716 26.664H451.276V18.664H432.716V26.664ZM447.276 22.664V75.784H455.276V22.664H447.276ZM447.276 75.784C447.276 87.3626 443.779 96.4684 437.009 103.467L442.759 109.029C451.178 100.326 455.276 89.1228 455.276 75.784H447.276ZM437.009 103.467C430.249 110.455 421.514 114.024 410.444 114.024V122.024C423.438 122.024 434.33 117.742 442.759 109.029L437.009 103.467ZM478.968 108.936L476.469 112.059L476.478 112.067L478.968 108.936ZM467.832 86.792L463.853 87.2001L463.854 87.2073L463.854 87.2144L467.832 86.792ZM467.32 81.8V77.8H462.889L463.341 82.2081L467.32 81.8ZM486.52 81.8L490.513 81.558L490.285 77.8H486.52V81.8ZM486.776 86.024L490.769 85.7844L490.769 85.782L486.776 86.024ZM493.048 95.88L491.023 99.3297L491.035 99.3366L491.047 99.3435L493.048 95.88ZM522.36 97.416L523.922 101.098L523.948 101.087L523.975 101.076L522.36 97.416ZM527.736 93.32L531.355 95.0232L531.355 95.0232L527.736 93.32ZM526.456 84.232L528.75 80.9551L528.738 80.9471L528.727 80.9391L526.456 84.232ZM516.856 79.88L515.67 83.7003L515.681 83.7035L515.691 83.7067L516.856 79.88ZM503.032 76.424L503.921 72.524L503.898 72.5188L503.875 72.5139L503.032 76.424ZM488.312 71.816L489.767 68.0902L489.765 68.0892L488.312 71.816ZM476.024 63.88L478.926 61.127L478.874 61.0721L478.82 61.0192L476.024 63.88ZM479.992 28.552L477.478 25.441L477.468 25.4488L479.992 28.552ZM535.032 29.448L532.467 32.5177L532.485 32.5327L532.503 32.5475L535.032 29.448ZM545.272 49.544L541.276 49.7123L541.277 49.7361L541.278 49.7599L545.272 49.544ZM545.528 54.28V58.28H549.75L549.522 54.0641L545.528 54.28ZM526.84 54.28L522.873 54.7919L523.323 58.28H526.84V54.28ZM526.328 50.312L522.356 50.7886L522.359 50.8062L522.361 50.8239L526.328 50.312ZM523.768 44.424L526.877 41.9072L526.877 41.9072L523.768 44.424ZM515.96 40.072L514.811 43.9033L514.819 43.9057L514.827 43.9081L515.96 40.072ZM496.632 40.2L497.897 43.9947L497.916 43.9882L497.936 43.9815L496.632 40.2ZM491.256 42.888L488.757 39.7645L488.652 39.8485L488.553 39.9394L491.256 42.888ZM489.336 45.704L493.131 46.9689L493.166 46.8636L493.195 46.7565L489.336 45.704ZM489.848 51.848L487.02 54.6764L487.02 54.6764L489.848 51.848ZM495.096 55.048L493.587 58.7524L493.623 58.7672L493.66 58.7814L495.096 55.048ZM503.928 57.864L502.853 61.7168L502.917 61.7348L502.983 61.7507L503.928 57.864ZM508.664 59.016L507.719 62.9027L507.735 62.9068L507.752 62.9108L508.664 59.016ZM514.68 60.424L515.732 56.5649L515.662 56.5458L515.592 56.5292L514.68 60.424ZM517.496 61.192L518.555 57.3347L518.548 57.3329L517.496 61.192ZM525.816 63.624L524.471 67.391L524.525 67.4103L524.58 67.4281L525.816 63.624ZM536.184 68.616L534.042 71.994L534.049 71.9988L534.057 72.0036L536.184 68.616ZM544.504 77.064L541.02 79.0293L541.039 79.0628L541.059 79.0959L544.504 77.064ZM536.568 110.216L534.287 106.93L534.281 106.935L534.274 106.939L536.568 110.216ZM509.176 113.384C496.635 113.384 487.578 110.672 481.458 105.805L476.478 112.067C484.523 118.464 495.605 121.384 509.176 121.384V113.384ZM481.467 105.813C476.052 101.48 472.743 95.16 471.81 86.3696L463.854 87.2144C464.969 97.7094 469.084 106.152 476.469 112.059L481.467 105.813ZM471.811 86.3839L471.299 81.3919L463.341 82.2081L463.853 87.2001L471.811 86.3839ZM467.32 85.8H486.52V77.8H467.32V85.8ZM482.527 82.042L482.783 86.266L490.769 85.782L490.513 81.558L482.527 82.042ZM482.783 86.2636C483.125 91.9609 486.036 96.4027 491.023 99.3297L495.073 92.4303C492.209 90.7493 490.939 88.6204 490.769 85.7844L482.783 86.2636ZM491.047 99.3435C495.75 102.061 501.972 103.208 509.304 103.208V95.208C502.641 95.208 498.026 94.1366 495.049 92.4165L491.047 99.3435ZM509.304 103.208C515.324 103.208 520.341 102.617 523.922 101.098L520.798 93.7337C518.747 94.6039 515.06 95.208 509.304 95.208V103.208ZM523.975 101.076C527.02 99.7323 530.015 97.8714 531.355 95.0232L524.117 91.6168C524.137 91.5731 524.035 91.8087 523.456 92.2503C522.888 92.6827 522.015 93.1962 520.745 93.7563L523.975 101.076ZM531.355 95.0232C532.292 93.0336 532.76 90.9153 532.76 88.712H524.76C524.76 89.7514 524.546 90.7051 524.117 91.6168L531.355 95.0232ZM532.76 88.712C532.76 87.2694 532.523 85.7576 531.826 84.3631L524.67 87.9409C524.656 87.9117 524.76 88.1066 524.76 88.712H532.76ZM531.826 84.3631C531.098 82.908 529.959 81.8012 528.75 80.9551L524.162 87.5089C524.66 87.8575 524.715 88.0307 524.67 87.9409L531.826 84.3631ZM528.727 80.9391C525.815 78.9308 522.207 77.3273 518.021 76.0533L515.691 83.7067C519.356 84.822 522.148 86.1198 524.185 87.5248L528.727 80.9391ZM518.042 76.0597C515.4 75.24 510.65 74.0573 503.921 72.524L502.143 80.324C508.896 81.8627 513.363 82.984 515.67 83.7003L518.042 76.0597ZM503.875 72.5139C499.785 71.6318 495.088 70.1687 489.767 68.0902L486.857 75.5418C492.458 77.73 497.575 79.3389 502.189 80.3341L503.875 72.5139ZM489.765 68.0892C485.182 66.3027 481.612 63.9582 478.926 61.127L473.122 66.633C476.751 70.4578 481.372 73.404 486.859 75.5428L489.765 68.0892ZM478.82 61.0192C475.977 58.2415 474.392 54.4011 474.392 49.032H466.392C466.392 56.1216 468.561 62.1798 473.228 66.7407L478.82 61.0192ZM474.392 49.032C474.392 41.7542 477.076 36.08 482.516 31.6552L477.468 25.4488C470.108 31.4347 466.392 39.4138 466.392 49.032H474.392ZM482.506 31.663C487.757 27.4196 495.723 25 507 25V17C494.725 17 484.686 19.615 477.478 25.441L482.506 31.663ZM507 25C518.347 25 526.668 27.6724 532.467 32.5177L537.597 26.3783C529.914 19.9596 519.547 17 507 17V25ZM532.503 32.5475C538.135 37.1416 540.984 42.7879 541.276 49.7123L549.268 49.3757C548.877 40.0867 544.9 32.3357 537.56 26.3485L532.503 32.5475ZM541.278 49.7599L541.534 54.4959L549.522 54.0641L549.266 49.3281L541.278 49.7599ZM545.528 50.28H526.84V58.28H545.528V50.28ZM530.807 53.7681L530.295 49.8001L522.361 50.8239L522.873 54.7919L530.807 53.7681ZM530.299 49.8354C529.947 46.8994 528.765 44.24 526.877 41.9072L520.659 46.9408C521.672 48.192 522.197 49.4579 522.356 50.7886L530.299 49.8354ZM526.877 41.9072C524.671 39.1823 521.14 37.4315 517.093 36.2359L514.827 43.9081C518.289 44.9312 519.964 46.0817 520.659 46.9408L526.877 41.9072ZM517.109 36.2407C514.046 35.3218 510.382 34.92 506.232 34.92V42.92C509.932 42.92 512.754 43.2862 514.811 43.9033L517.109 36.2407ZM506.232 34.92C502.062 34.92 498.376 35.3674 495.328 36.4185L497.936 43.9815C499.837 43.3259 502.551 42.92 506.232 42.92V34.92ZM495.367 36.4053C492.81 37.2575 490.538 38.34 488.757 39.7645L493.755 46.0115C494.534 45.388 495.846 44.6785 497.897 43.9947L495.367 36.4053ZM488.553 39.9394C487.199 41.1808 485.999 42.736 485.477 44.6515L493.195 46.7565C493.185 46.7947 493.265 46.4726 493.959 45.8366L488.553 39.9394ZM485.541 44.4391C484.969 46.1565 484.696 47.9517 484.696 49.8H492.696C492.696 48.7469 492.85 47.8115 493.131 46.9689L485.541 44.4391ZM484.696 49.8C484.696 52.0478 486.059 53.7162 487.02 54.6764L492.676 49.0196C492.459 48.8018 492.43 48.7266 492.47 48.799C492.513 48.8755 492.696 49.2304 492.696 49.8H484.696ZM487.02 54.6764C488.725 56.3823 491.002 57.6993 493.587 58.7524L496.605 51.3436C494.582 50.5194 493.36 49.7031 492.676 49.0196L487.02 54.6764ZM493.66 58.7814C496.046 59.6989 499.125 60.6763 502.853 61.7168L505.003 54.0112C501.393 53.0036 498.584 52.1038 496.532 51.3146L493.66 58.7814ZM502.983 61.7507L507.719 62.9027L509.609 55.1293L504.873 53.9773L502.983 61.7507ZM507.752 62.9108L513.768 64.3187L515.592 56.5292L509.576 55.1212L507.752 62.9108ZM513.628 64.2831L516.444 65.0511L518.548 57.3329L515.732 56.5649L513.628 64.2831ZM516.437 65.0493C520.831 66.2556 523.447 67.0252 524.471 67.391L527.161 59.857C525.796 59.3694 522.865 58.5177 518.555 57.3347L516.437 65.0493ZM524.58 67.4281C527.63 68.4195 530.784 69.9278 534.042 71.994L538.326 65.238C534.587 62.8668 530.829 61.0472 527.052 59.8199L524.58 67.4281ZM534.057 72.0036C537.239 74.0017 539.511 76.3547 541.02 79.0293L547.988 75.0987C545.742 71.1173 542.467 67.8383 538.311 65.2284L534.057 72.0036ZM541.059 79.0959C542.636 81.7709 543.448 84.774 543.448 88.2H551.448C551.448 83.434 550.297 79.0131 547.949 75.0321L541.059 79.0959ZM543.448 88.2C543.448 96.6735 540.352 102.72 534.287 106.93L538.849 113.502C547.29 107.643 551.448 99.0119 551.448 88.2H543.448ZM534.274 106.939C528.328 111.101 520.088 113.384 509.176 113.384V121.384C521.133 121.384 531.154 118.888 538.862 113.493L534.274 106.939Z" fill="black" fill-opacity="0.3"/>
<defs>
<linearGradient id="paint0_linear_76_2" x1="4.34321" y1="65.5" x2="474.827" y2="-127.501" gradientUnits="userSpaceOnUse">
<stop stop-color="#F24D56"/>
<stop offset="0.509216" stop-color="#EE0C77"/>
<stop offset="0.964829" stop-color="#F24D56"/>
</linearGradient>
</defs>
</svg>
