<svg width="1085" height="330" viewBox="0 0 1085 330" fill="none" xmlns="http://www.w3.org/2000/svg">
<path d="M66.8064 223.164L64.3077 226.287L64.3169 226.295L66.8064 223.164ZM51.8424 193.408L47.8633 193.816L47.8641 193.823L47.8648 193.83L51.8424 193.408ZM51.1544 186.7V182.7H46.7232L47.1753 187.108L51.1544 186.7ZM76.9544 186.7L80.9471 186.458L80.7194 182.7H76.9544V186.7ZM77.2984 192.376L81.2913 192.136L81.2911 192.134L77.2984 192.376ZM85.7264 205.62L83.7016 209.07L83.7135 209.077L83.7253 209.083L85.7264 205.62ZM125.114 207.684L126.677 211.366L126.703 211.355L126.729 211.344L125.114 207.684ZM132.338 202.18L135.958 203.883L135.958 203.883L132.338 202.18ZM130.618 189.968L132.912 186.691L132.901 186.683L132.889 186.675L130.618 189.968ZM117.718 184.12L116.533 187.94L116.543 187.944L116.554 187.947L117.718 184.12ZM99.1424 179.476L100.031 175.576L100.008 175.571L99.9858 175.566L99.1424 179.476ZM79.3624 173.284L80.8178 169.558L80.8153 169.557L79.3624 173.284ZM62.8504 162.62L65.7523 159.867L65.7003 159.812L65.6462 159.759L62.8504 162.62ZM68.1824 115.148L65.6681 112.037L65.6585 112.045L68.1824 115.148ZM142.142 116.352L139.578 119.422L139.596 119.437L139.614 119.451L142.142 116.352ZM155.902 143.356L151.906 143.524L151.907 143.548L151.908 143.572L155.902 143.356ZM156.246 149.72V153.72H160.468L160.241 149.504L156.246 149.72ZM131.134 149.72L127.167 150.232L127.617 153.72H131.134V149.72ZM130.446 144.388L126.475 144.865L126.477 144.882L126.479 144.9L130.446 144.388ZM127.006 136.476L130.115 133.959L130.115 133.959L127.006 136.476ZM116.514 130.628L115.365 134.459L115.373 134.462L115.381 134.464L116.514 130.628ZM90.5424 130.8L91.8074 134.595L91.8269 134.588L91.8464 134.581L90.5424 130.8ZM83.3184 134.412L80.8197 131.289L80.7147 131.373L80.6155 131.463L83.3184 134.412ZM80.7384 138.196L84.5332 139.461L84.5683 139.356L84.5975 139.248L80.7384 138.196ZM81.4264 146.452L78.598 149.28L78.598 149.28L81.4264 146.452ZM88.4784 150.752L86.9693 154.456L87.0058 154.471L87.0425 154.485L88.4784 150.752ZM100.346 154.536L99.2713 158.389L99.3359 158.407L99.401 158.423L100.346 154.536ZM106.71 156.084L105.765 159.971L105.782 159.975L105.799 159.979L106.71 156.084ZM114.794 157.976L115.847 154.117L115.777 154.098L115.706 154.081L114.794 157.976ZM118.578 159.008L119.637 155.151L119.631 155.149L118.578 159.008ZM129.758 162.276L128.413 166.043L128.467 166.062L128.522 166.08L129.758 162.276ZM143.69 168.984L141.548 172.362L141.556 172.367L141.563 172.372L143.69 168.984ZM154.87 180.336L151.387 182.301L151.405 182.335L151.425 182.368L154.87 180.336ZM144.206 224.884L141.926 221.598L141.919 221.603L141.913 221.607L144.206 224.884ZM107.398 230.516C90.3696 230.516 77.8516 226.836 69.296 220.033L64.3169 226.295C74.7959 234.628 89.3393 238.516 107.398 238.516V230.516ZM69.3052 220.041C61.69 213.948 57.1056 205.091 55.8201 192.986L47.8648 193.83C49.3313 207.64 54.7229 218.62 64.3077 226.287L69.3052 220.041ZM55.8216 193L55.1336 186.292L47.1753 187.108L47.8633 193.816L55.8216 193ZM51.1544 190.7H76.9544V182.7H51.1544V190.7ZM72.9618 186.942L73.3058 192.618L81.2911 192.134L80.9471 186.458L72.9618 186.942ZM73.3056 192.616C73.7355 199.78 77.3656 205.351 83.7016 209.07L87.7512 202.17C83.538 199.697 81.5494 196.439 81.2913 192.136L73.3056 192.616ZM83.7253 209.083C89.7484 212.563 97.8335 214.092 107.57 214.092V206.092C98.502 206.092 92.0245 204.639 87.7276 202.157L83.7253 209.083ZM107.57 214.092C115.615 214.092 122.128 213.296 126.677 211.366L123.552 204.002C120.533 205.283 115.35 206.092 107.57 206.092V214.092ZM126.729 211.344C130.771 209.56 134.383 207.23 135.958 203.883L128.719 200.477C128.459 201.029 127.255 202.368 123.5 204.024L126.729 211.344ZM135.958 203.883C137.129 201.395 137.714 198.749 137.714 195.988H129.714C129.714 197.585 129.383 199.066 128.719 200.477L135.958 203.883ZM137.714 195.988C137.714 194.193 137.419 192.388 136.604 190.759L129.449 194.337C129.551 194.542 129.714 195.031 129.714 195.988H137.714ZM136.604 190.759C135.759 189.069 134.414 187.743 132.912 186.691L128.325 193.245C129.116 193.799 129.376 194.192 129.449 194.337L136.604 190.759ZM132.889 186.675C129.127 184.08 124.418 181.978 118.883 180.293L116.554 187.947C121.568 189.473 125.46 191.269 128.348 193.261L132.889 186.675ZM118.904 180.3C115.412 179.216 109.078 177.637 100.031 175.576L98.2538 183.376C107.324 185.443 113.374 186.96 116.533 187.94L118.904 180.3ZM99.9858 175.566C94.3998 174.361 88.0161 172.37 80.8178 169.558L77.907 177.01C85.3861 179.931 92.1891 182.068 98.2991 183.386L99.9858 175.566ZM80.8153 169.557C74.5019 167.096 69.5236 163.842 65.7523 159.867L59.9486 165.373C64.6626 170.342 70.6923 174.197 77.9096 177.011L80.8153 169.557ZM65.6462 159.759C61.5132 155.72 59.2824 150.178 59.2824 142.668H51.2824C51.2824 151.899 54.097 159.658 60.0547 165.481L65.6462 159.759ZM59.2824 142.668C59.2824 132.486 63.066 124.465 70.7064 118.251L65.6585 112.045C56.0989 119.82 51.2824 130.146 51.2824 142.668H59.2824ZM70.6968 118.259C78.0883 112.285 89.1496 109 104.474 109V101C88.1513 101 75.0179 104.48 65.6681 112.037L70.6968 118.259ZM104.474 109C119.928 109 131.461 112.64 139.578 119.422L144.707 113.282C134.707 104.928 121.128 101 104.474 101V109ZM139.614 119.451C147.475 125.864 151.497 133.813 151.906 143.524L159.899 143.188C159.39 131.112 154.239 121.058 144.671 113.253L139.614 119.451ZM151.908 143.572L152.252 149.936L160.241 149.504L159.897 143.14L151.908 143.572ZM156.246 145.72H131.134V153.72H156.246V145.72ZM135.102 149.208L134.414 143.876L126.479 144.9L127.167 150.232L135.102 149.208ZM134.418 143.911C133.978 140.242 132.503 136.908 130.115 133.959L123.897 138.993C125.409 140.86 126.227 142.801 126.475 144.865L134.418 143.911ZM130.115 133.959C127.411 130.618 122.985 128.369 117.648 126.792L115.381 134.464C120.135 135.869 122.703 137.518 123.897 138.993L130.115 133.959ZM117.664 126.797C113.721 125.614 108.942 125.08 103.442 125.08V133.08C108.492 133.08 112.428 133.578 115.365 134.459L117.664 126.797ZM103.442 125.08C97.9231 125.08 93.1374 125.674 89.2385 127.019L91.8464 134.581C94.5982 133.633 98.4125 133.08 103.442 133.08V125.08ZM89.2775 127.005C85.9289 128.121 83.0403 129.512 80.8197 131.289L85.8172 137.535C87.0366 136.56 88.964 135.543 91.8074 134.595L89.2775 127.005ZM80.6155 131.463C78.9093 133.027 77.4898 134.905 76.8794 137.144L84.5975 139.248C84.6751 138.964 84.9756 138.319 86.0213 137.361L80.6155 131.463ZM76.9437 136.931C76.2246 139.089 75.8784 141.353 75.8784 143.7H83.8784C83.8784 142.148 84.1057 140.743 84.5332 139.461L76.9437 136.931ZM75.8784 143.7C75.8784 146.153 77.3738 148.056 78.598 149.28L84.2549 143.624C84.0868 143.455 83.9659 143.318 83.8816 143.212C83.7968 143.105 83.7602 143.044 83.7517 143.029C83.7288 142.988 83.8784 143.233 83.8784 143.7H75.8784ZM78.598 149.28C80.7145 151.397 83.5924 153.081 86.9693 154.456L89.9876 147.048C87.1725 145.901 85.349 144.718 84.2549 143.624L78.598 149.28ZM87.0425 154.485C90.1907 155.696 94.2817 156.996 99.2713 158.389L101.422 150.683C96.5499 149.324 92.7289 148.101 89.9144 147.019L87.0425 154.485ZM99.401 158.423L105.765 159.971L107.656 152.197L101.292 150.649L99.401 158.423ZM105.799 159.979L113.883 161.871L115.706 154.081L107.622 152.189L105.799 159.979ZM113.742 161.835L117.526 162.867L119.631 155.149L115.847 154.117L113.742 161.835ZM117.52 162.865C123.41 164.482 126.978 165.531 128.413 166.043L131.104 158.509C129.328 157.875 125.443 156.744 119.637 155.151L117.52 162.865ZM128.522 166.08C132.746 167.453 137.087 169.533 141.548 172.362L145.833 165.606C140.891 162.472 135.945 160.081 130.995 158.472L128.522 166.08ZM141.563 172.372C146.007 175.162 149.232 178.483 151.387 182.301L158.354 178.371C155.463 173.245 151.235 168.998 145.818 165.596L141.563 172.372ZM151.425 182.368C153.677 186.187 154.826 190.466 154.826 195.3H162.826C162.826 189.126 161.338 183.429 158.316 178.304L151.425 182.368ZM154.826 195.3C154.826 207.088 150.484 215.657 141.926 221.598L146.487 228.17C157.422 220.58 162.826 209.427 162.826 195.3H154.826ZM141.913 221.607C133.62 227.412 122.241 230.516 107.398 230.516V238.516C123.287 238.516 136.446 235.199 146.5 228.161L141.913 221.607ZM191.435 215.94L194.434 213.293L194.426 213.284L191.435 215.94ZM191.435 124.608L188.463 121.931L188.456 121.938L191.435 124.608ZM273.135 116.696L270.86 119.986L270.879 119.999L270.897 120.011L273.135 116.696ZM293.431 143.012L295.084 146.654L298.516 145.097L297.166 141.579L293.431 143.012ZM271.071 153.16V157.16H271.936L272.724 156.802L271.071 153.16ZM270.899 153.16L267.223 154.736L268.262 157.16H270.899V153.16ZM269.351 149.548L265.667 151.107L265.671 151.115L265.675 151.124L269.351 149.548ZM257.827 135.444L255.592 138.761L255.6 138.767L255.608 138.772L257.827 135.444ZM221.535 133.208L219.927 129.545L219.927 129.545L221.535 133.208ZM209.839 141.464L206.866 138.788L206.858 138.797L206.85 138.807L209.839 141.464ZM209.839 198.912L206.809 201.523L206.812 201.526L209.839 198.912ZM257.827 205.104L255.625 201.765L255.599 201.782L255.574 201.799L257.827 205.104ZM269.351 191L265.649 189.485L265.638 189.512L265.627 189.54L269.351 191ZM270.899 187.216V183.216H268.214L267.197 185.701L270.899 187.216ZM271.071 187.216L272.747 183.584L271.95 183.216H271.071V187.216ZM293.431 197.536L297.142 199.028L298.562 195.498L295.107 193.904L293.431 197.536ZM273.135 223.852L275.427 227.131L275.438 227.123L275.448 227.115L273.135 223.852ZM236.671 231.032C218.752 231.032 204.82 225.057 194.434 213.293L188.437 218.587C200.525 232.279 216.751 239.032 236.671 239.032V231.032ZM194.426 213.284C184.257 201.83 179.095 187.558 179.095 170.188H171.095C171.095 189.282 176.827 205.511 188.444 218.596L194.426 213.284ZM179.095 170.188C179.095 152.817 184.257 138.611 194.414 127.278L188.456 121.938C176.827 134.914 171.095 151.095 171.095 170.188H179.095ZM194.407 127.285C205.041 115.481 218.998 109.516 236.671 109.516V101.516C216.963 101.516 200.763 108.279 188.463 121.931L194.407 127.285ZM236.671 109.516C249.417 109.516 260.773 113.011 270.86 119.986L275.41 113.406C263.94 105.475 250.987 101.516 236.671 101.516V109.516ZM270.897 120.011C279.324 125.699 285.603 133.78 289.697 144.445L297.166 141.579C292.545 129.54 285.294 120.077 275.373 113.381L270.897 120.011ZM291.778 139.37L269.418 149.518L272.724 156.802L295.084 146.654L291.778 139.37ZM271.071 149.16H270.899V157.16H271.071V149.16ZM274.576 151.584L273.028 147.972L265.675 151.124L267.223 154.736L274.576 151.584ZM273.035 147.989C270.222 141.34 265.886 136.009 260.046 132.116L255.608 138.772C260.088 141.759 263.435 145.831 265.667 151.107L273.035 147.989ZM260.063 132.127C254.073 128.091 247.204 126.112 239.595 126.112V134.112C245.747 134.112 251.032 135.688 255.592 138.761L260.063 132.127ZM239.595 126.112C231.923 126.112 225.304 127.185 219.927 129.545L223.143 136.871C227.169 135.103 232.59 134.112 239.595 134.112V126.112ZM219.927 129.545C214.763 131.813 210.382 134.882 206.866 138.788L212.812 144.14C215.489 141.166 218.905 138.731 223.143 136.871L219.927 129.545ZM206.85 138.807C199.635 146.923 196.207 157.522 196.207 170.188H204.207C204.207 159.004 207.201 150.453 212.829 144.121L206.85 138.807ZM196.207 170.188C196.207 182.652 199.648 193.211 206.809 201.523L212.87 196.301C207.188 189.706 204.207 181.116 204.207 170.188H196.207ZM206.812 201.526C214.338 210.241 225.538 214.264 239.595 214.264V206.264C227.05 206.264 218.412 202.719 212.867 196.298L206.812 201.526ZM239.595 214.264C247.373 214.264 254.267 212.373 260.081 208.409L255.574 201.799C251.297 204.715 246.036 206.264 239.595 206.264V214.264ZM260.03 208.443C266.087 204.448 270.472 199.099 273.075 192.46L265.627 189.54C263.644 194.597 260.346 198.651 255.625 201.765L260.03 208.443ZM273.053 192.515L274.601 188.731L267.197 185.701L265.649 189.485L273.053 192.515ZM270.899 191.216H271.071V183.216H270.899V191.216ZM269.395 190.848L291.755 201.168L295.107 193.904L272.747 183.584L269.395 190.848ZM289.72 196.044C285.511 206.513 279.204 214.647 270.822 220.589L275.448 227.115C285.184 220.214 292.408 210.804 297.142 199.028L289.72 196.044ZM270.844 220.573C260.886 227.533 249.539 231.032 236.671 231.032V239.032C251.094 239.032 264.057 235.077 275.427 227.131L270.844 220.573ZM314.859 107.236V103.236H310.859V107.236H314.859ZM339.971 107.236H343.971V103.236H339.971V107.236ZM339.971 158.148H335.971V162.148H339.971V158.148ZM394.667 158.148V162.148H398.667V158.148H394.667ZM394.667 107.236V103.236H390.667V107.236H394.667ZM419.607 107.236H423.607V103.236H419.607V107.236ZM419.607 234V238H423.607V234H419.607ZM394.667 234H390.667V238H394.667V234ZM394.667 182.916H398.667V178.916H394.667V182.916ZM339.971 182.916V178.916H335.971V182.916H339.971ZM339.971 234V238H343.971V234H339.971ZM314.859 234H310.859V238H314.859V234ZM314.859 111.236H339.971V103.236H314.859V111.236ZM335.971 107.236V158.148H343.971V107.236H335.971ZM339.971 162.148H394.667V154.148H339.971V162.148ZM398.667 158.148V107.236H390.667V158.148H398.667ZM394.667 111.236H419.607V103.236H394.667V111.236ZM415.607 107.236V234H423.607V107.236H415.607ZM419.607 230H394.667V238H419.607V230ZM398.667 234V182.916H390.667V234H398.667ZM394.667 178.916H339.971V186.916H394.667V178.916ZM335.971 182.916V234H343.971V182.916H335.971ZM339.971 230H314.859V238H339.971V230ZM318.859 234V107.236H310.859V234H318.859ZM447.91 107.236V103.236H443.91V107.236H447.91ZM544.402 107.236H548.402V103.236H544.402V107.236ZM544.402 131.66V135.66H548.402V131.66H544.402ZM473.022 131.66V127.66H469.022V131.66H473.022ZM473.022 158.148H469.022V162.148H473.022V158.148ZM524.794 158.148H528.794V154.148H524.794V158.148ZM524.794 182.916V186.916H528.794V182.916H524.794ZM473.022 182.916V178.916H469.022V182.916H473.022ZM473.022 209.404H469.022V213.404H473.022V209.404ZM544.402 209.404H548.402V205.404H544.402V209.404ZM544.402 234V238H548.402V234H544.402ZM447.91 234H443.91V238H447.91V234ZM447.91 111.236H544.402V103.236H447.91V111.236ZM540.402 107.236V131.66H548.402V107.236H540.402ZM544.402 127.66H473.022V135.66H544.402V127.66ZM469.022 131.66V158.148H477.022V131.66H469.022ZM473.022 162.148H524.794V154.148H473.022V162.148ZM520.794 158.148V182.916H528.794V158.148H520.794ZM524.794 178.916H473.022V186.916H524.794V178.916ZM469.022 182.916V209.404H477.022V182.916H469.022ZM473.022 213.404H544.402V205.404H473.022V213.404ZM540.402 209.404V234H548.402V209.404H540.402ZM544.402 230H447.91V238H544.402V230ZM451.91 234V107.236H443.91V234H451.91ZM565.844 107.236V103.236H561.844V107.236H565.844ZM642.212 111.536L640.674 115.228L640.7 115.239L640.727 115.25L642.212 111.536ZM661.132 124.264L663.988 121.463L663.974 121.449L663.961 121.436L661.132 124.264ZM661.132 216.972L663.99 219.77L663.995 219.765L664.001 219.76L661.132 216.972ZM642.212 229.7L640.686 226.002L640.674 226.008L642.212 229.7ZM565.844 234H561.844V238H565.844V234ZM644.448 198.396L641.415 195.789L641.405 195.801L641.395 195.812L644.448 198.396ZM644.448 142.84L641.398 145.428L641.406 145.438L641.415 145.447L644.448 142.84ZM590.956 131.488V127.488H586.956V131.488H590.956ZM590.956 209.576H586.956V213.576H590.956V209.576ZM565.844 111.236H620.196V103.236H565.844V111.236ZM620.196 111.236C627.49 111.236 634.304 112.574 640.674 115.228L643.751 107.844C636.361 104.765 628.497 103.236 620.196 103.236V111.236ZM640.727 115.25C647.058 117.782 652.917 121.706 658.304 127.092L663.961 121.436C657.881 115.356 651.126 110.794 643.698 107.822L640.727 115.25ZM658.277 127.065C669.394 138.396 675.02 152.777 675.02 170.532H683.02C683.02 150.906 676.722 134.442 663.988 121.463L658.277 127.065ZM675.02 170.532C675.02 188.287 669.393 202.734 658.264 214.184L664.001 219.76C676.722 206.672 683.02 190.158 683.02 170.532H675.02ZM658.274 214.174C653.269 219.285 647.418 223.225 640.686 226.003L643.738 233.397C651.455 230.213 658.217 225.667 663.99 219.77L658.274 214.174ZM640.674 226.008C634.304 228.662 627.49 230 620.196 230V238C628.497 238 636.361 236.471 643.751 233.392L640.674 226.008ZM620.196 230H565.844V238H620.196V230ZM569.844 234V107.236H561.844V234H569.844ZM619.68 213.576C631.001 213.576 640.397 209.377 647.502 200.98L641.395 195.812C635.887 202.322 628.77 205.576 619.68 205.576V213.576ZM647.482 201.003C654.511 192.824 657.908 182.563 657.908 170.532H649.908C649.908 180.976 646.999 189.291 641.415 195.789L647.482 201.003ZM657.908 170.532C657.908 158.604 654.504 148.404 647.482 140.233L641.415 145.447C647.006 151.953 649.908 160.214 649.908 170.532H657.908ZM647.498 140.252C640.302 131.771 630.923 127.488 619.68 127.488V135.488C628.619 135.488 635.751 138.773 641.398 145.428L647.498 140.252ZM619.68 127.488H590.956V135.488H619.68V127.488ZM586.956 131.488V209.576H594.956V131.488H586.956ZM590.956 213.576H619.68V205.576H590.956V213.576ZM714.163 219.552L711.304 222.349L711.304 222.349L714.163 219.552ZM698.855 107.236V103.236H694.855V107.236H698.855ZM723.967 107.236H727.967V103.236H723.967V107.236ZM733.083 203.384L735.878 200.522L735.868 200.512L735.857 200.502L733.083 203.384ZM774.363 203.384L777.093 206.308L777.1 206.301L777.108 206.294L774.363 203.384ZM783.479 107.236V103.236H779.479V107.236H783.479ZM808.419 107.236H812.419V103.236H808.419V107.236ZM793.111 219.552L795.986 222.333L793.111 219.552ZM753.551 231.376C738.593 231.376 726.526 226.469 717.023 216.755L711.304 222.349C722.441 233.733 736.632 239.376 753.551 239.376V231.376ZM717.023 216.755C707.662 207.184 702.855 194.601 702.855 178.616H694.855C694.855 196.343 700.254 211.05 711.304 222.349L717.023 216.755ZM702.855 178.616V107.236H694.855V178.616H702.855ZM698.855 111.236H723.967V103.236H698.855V111.236ZM719.967 107.236V178.96H727.967V107.236H719.967ZM719.967 178.96C719.967 190.207 723.271 199.493 730.31 206.266L735.857 200.502C730.741 195.579 727.967 188.582 727.967 178.96H719.967ZM730.288 206.246C736.151 211.971 744.082 214.608 753.551 214.608V206.608C745.592 206.608 739.877 204.429 735.878 200.522L730.288 206.246ZM753.551 214.608C763.03 214.608 771.028 211.969 777.093 206.308L771.634 200.46C767.379 204.431 761.502 206.608 753.551 206.608V214.608ZM777.108 206.294C784.186 199.617 787.479 190.303 787.479 178.96H779.479C779.479 188.715 776.696 195.685 771.618 200.474L777.108 206.294ZM787.479 178.96V107.236H779.479V178.96H787.479ZM783.479 111.236H808.419V103.236H783.479V111.236ZM804.419 107.236V178.616H812.419V107.236H804.419ZM804.419 178.616C804.419 194.477 799.617 207.074 790.236 216.771L795.986 222.333C807.016 210.932 812.419 196.237 812.419 178.616H804.419ZM790.236 216.771C780.865 226.458 768.757 231.376 753.551 231.376V239.376C770.682 239.376 784.947 233.745 795.986 222.333L790.236 216.771ZM835.138 107.236V103.236H831.138V107.236H835.138ZM860.25 107.236H864.25V103.236H860.25V107.236ZM860.25 209.404H856.25V213.404H860.25V209.404ZM922.858 209.404H926.858V205.404H922.858V209.404ZM922.858 234V238H926.858V234H922.858ZM835.138 234H831.138V238H835.138V234ZM835.138 111.236H860.25V103.236H835.138V111.236ZM856.25 107.236V209.404H864.25V107.236H856.25ZM860.25 213.404H922.858V205.404H860.25V213.404ZM918.858 209.404V234H926.858V209.404H918.858ZM922.858 230H835.138V238H922.858V230ZM839.138 234V107.236H831.138V234H839.138ZM939.131 107.236V103.236H935.131V107.236H939.131ZM1035.62 107.236H1039.62V103.236H1035.62V107.236ZM1035.62 131.66V135.66H1039.62V131.66H1035.62ZM964.243 131.66V127.66H960.243V131.66H964.243ZM964.243 158.148H960.243V162.148H964.243V158.148ZM1016.02 158.148H1020.02V154.148H1016.02V158.148ZM1016.02 182.916V186.916H1020.02V182.916H1016.02ZM964.243 182.916V178.916H960.243V182.916H964.243ZM964.243 209.404H960.243V213.404H964.243V209.404ZM1035.62 209.404H1039.62V205.404H1035.62V209.404ZM1035.62 234V238H1039.62V234H1035.62ZM939.131 234H935.131V238H939.131V234ZM939.131 111.236H1035.62V103.236H939.131V111.236ZM1031.62 107.236V131.66H1039.62V107.236H1031.62ZM1035.62 127.66H964.243V135.66H1035.62V127.66ZM960.243 131.66V158.148H968.243V131.66H960.243ZM964.243 162.148H1016.02V154.148H964.243V162.148ZM1012.02 158.148V182.916H1020.02V158.148H1012.02ZM1016.02 178.916H964.243V186.916H1016.02V178.916ZM960.243 182.916V209.404H968.243V182.916H960.243ZM964.243 213.404H1035.62V205.404H964.243V213.404ZM1031.62 209.404V234H1039.62V209.404H1031.62ZM1035.62 230H939.131V238H1035.62V230ZM943.131 234V107.236H935.131V234H943.131Z" fill="url(#paint0_linear_454_3)"/>
<path d="M66.8064 223.164L64.3077 226.287L64.3169 226.295L66.8064 223.164ZM51.8424 193.408L47.8633 193.816L47.8641 193.823L47.8648 193.83L51.8424 193.408ZM51.1544 186.7V182.7H46.7232L47.1753 187.108L51.1544 186.7ZM76.9544 186.7L80.9471 186.458L80.7194 182.7H76.9544V186.7ZM77.2984 192.376L81.2913 192.136L81.2911 192.134L77.2984 192.376ZM85.7264 205.62L83.7016 209.07L83.7135 209.077L83.7253 209.083L85.7264 205.62ZM125.114 207.684L126.677 211.366L126.703 211.355L126.729 211.344L125.114 207.684ZM132.338 202.18L135.958 203.883L135.958 203.883L132.338 202.18ZM130.618 189.968L132.912 186.691L132.901 186.683L132.889 186.675L130.618 189.968ZM117.718 184.12L116.533 187.94L116.543 187.944L116.554 187.947L117.718 184.12ZM99.1424 179.476L100.031 175.576L100.008 175.571L99.9858 175.566L99.1424 179.476ZM79.3624 173.284L80.8178 169.558L80.8153 169.557L79.3624 173.284ZM62.8504 162.62L65.7523 159.867L65.7003 159.812L65.6462 159.759L62.8504 162.62ZM68.1824 115.148L65.6681 112.037L65.6585 112.045L68.1824 115.148ZM142.142 116.352L139.578 119.422L139.596 119.437L139.614 119.451L142.142 116.352ZM155.902 143.356L151.906 143.524L151.907 143.548L151.908 143.572L155.902 143.356ZM156.246 149.72V153.72H160.468L160.241 149.504L156.246 149.72ZM131.134 149.72L127.167 150.232L127.617 153.72H131.134V149.72ZM130.446 144.388L126.475 144.865L126.477 144.882L126.479 144.9L130.446 144.388ZM127.006 136.476L130.115 133.959L130.115 133.959L127.006 136.476ZM116.514 130.628L115.365 134.459L115.373 134.462L115.381 134.464L116.514 130.628ZM90.5424 130.8L91.8074 134.595L91.8269 134.588L91.8464 134.581L90.5424 130.8ZM83.3184 134.412L80.8197 131.289L80.7147 131.373L80.6155 131.463L83.3184 134.412ZM80.7384 138.196L84.5332 139.461L84.5683 139.356L84.5975 139.248L80.7384 138.196ZM81.4264 146.452L78.598 149.28L78.598 149.28L81.4264 146.452ZM88.4784 150.752L86.9693 154.456L87.0058 154.471L87.0425 154.485L88.4784 150.752ZM100.346 154.536L99.2713 158.389L99.3359 158.407L99.401 158.423L100.346 154.536ZM106.71 156.084L105.765 159.971L105.782 159.975L105.799 159.979L106.71 156.084ZM114.794 157.976L115.847 154.117L115.777 154.098L115.706 154.081L114.794 157.976ZM118.578 159.008L119.637 155.151L119.631 155.149L118.578 159.008ZM129.758 162.276L128.413 166.043L128.467 166.062L128.522 166.08L129.758 162.276ZM143.69 168.984L141.548 172.362L141.556 172.367L141.563 172.372L143.69 168.984ZM154.87 180.336L151.387 182.301L151.405 182.335L151.425 182.368L154.87 180.336ZM144.206 224.884L141.926 221.598L141.919 221.603L141.913 221.607L144.206 224.884ZM107.398 230.516C90.3696 230.516 77.8516 226.836 69.296 220.033L64.3169 226.295C74.7959 234.628 89.3393 238.516 107.398 238.516V230.516ZM69.3052 220.041C61.69 213.948 57.1056 205.091 55.8201 192.986L47.8648 193.83C49.3313 207.64 54.7229 218.62 64.3077 226.287L69.3052 220.041ZM55.8216 193L55.1336 186.292L47.1753 187.108L47.8633 193.816L55.8216 193ZM51.1544 190.7H76.9544V182.7H51.1544V190.7ZM72.9618 186.942L73.3058 192.618L81.2911 192.134L80.9471 186.458L72.9618 186.942ZM73.3056 192.616C73.7355 199.78 77.3656 205.351 83.7016 209.07L87.7512 202.17C83.538 199.697 81.5494 196.439 81.2913 192.136L73.3056 192.616ZM83.7253 209.083C89.7484 212.563 97.8335 214.092 107.57 214.092V206.092C98.502 206.092 92.0245 204.639 87.7276 202.157L83.7253 209.083ZM107.57 214.092C115.615 214.092 122.128 213.296 126.677 211.366L123.552 204.002C120.533 205.283 115.35 206.092 107.57 206.092V214.092ZM126.729 211.344C130.771 209.56 134.383 207.23 135.958 203.883L128.719 200.477C128.459 201.029 127.255 202.368 123.5 204.024L126.729 211.344ZM135.958 203.883C137.129 201.395 137.714 198.749 137.714 195.988H129.714C129.714 197.585 129.383 199.066 128.719 200.477L135.958 203.883ZM137.714 195.988C137.714 194.193 137.419 192.388 136.604 190.759L129.449 194.337C129.551 194.542 129.714 195.031 129.714 195.988H137.714ZM136.604 190.759C135.759 189.069 134.414 187.743 132.912 186.691L128.325 193.245C129.116 193.799 129.376 194.192 129.449 194.337L136.604 190.759ZM132.889 186.675C129.127 184.08 124.418 181.978 118.883 180.293L116.554 187.947C121.568 189.473 125.46 191.269 128.348 193.261L132.889 186.675ZM118.904 180.3C115.412 179.216 109.078 177.637 100.031 175.576L98.2538 183.376C107.324 185.443 113.374 186.96 116.533 187.94L118.904 180.3ZM99.9858 175.566C94.3998 174.361 88.0161 172.37 80.8178 169.558L77.907 177.01C85.3861 179.931 92.1891 182.068 98.2991 183.386L99.9858 175.566ZM80.8153 169.557C74.5019 167.096 69.5236 163.842 65.7523 159.867L59.9486 165.373C64.6626 170.342 70.6923 174.197 77.9096 177.011L80.8153 169.557ZM65.6462 159.759C61.5132 155.72 59.2824 150.178 59.2824 142.668H51.2824C51.2824 151.899 54.097 159.658 60.0547 165.481L65.6462 159.759ZM59.2824 142.668C59.2824 132.486 63.066 124.465 70.7064 118.251L65.6585 112.045C56.0989 119.82 51.2824 130.146 51.2824 142.668H59.2824ZM70.6968 118.259C78.0883 112.285 89.1496 109 104.474 109V101C88.1513 101 75.0179 104.48 65.6681 112.037L70.6968 118.259ZM104.474 109C119.928 109 131.461 112.64 139.578 119.422L144.707 113.282C134.707 104.928 121.128 101 104.474 101V109ZM139.614 119.451C147.475 125.864 151.497 133.813 151.906 143.524L159.899 143.188C159.39 131.112 154.239 121.058 144.671 113.253L139.614 119.451ZM151.908 143.572L152.252 149.936L160.241 149.504L159.897 143.14L151.908 143.572ZM156.246 145.72H131.134V153.72H156.246V145.72ZM135.102 149.208L134.414 143.876L126.479 144.9L127.167 150.232L135.102 149.208ZM134.418 143.911C133.978 140.242 132.503 136.908 130.115 133.959L123.897 138.993C125.409 140.86 126.227 142.801 126.475 144.865L134.418 143.911ZM130.115 133.959C127.411 130.618 122.985 128.369 117.648 126.792L115.381 134.464C120.135 135.869 122.703 137.518 123.897 138.993L130.115 133.959ZM117.664 126.797C113.721 125.614 108.942 125.08 103.442 125.08V133.08C108.492 133.08 112.428 133.578 115.365 134.459L117.664 126.797ZM103.442 125.08C97.9231 125.08 93.1374 125.674 89.2385 127.019L91.8464 134.581C94.5982 133.633 98.4125 133.08 103.442 133.08V125.08ZM89.2775 127.005C85.9289 128.121 83.0403 129.512 80.8197 131.289L85.8172 137.535C87.0366 136.56 88.964 135.543 91.8074 134.595L89.2775 127.005ZM80.6155 131.463C78.9093 133.027 77.4898 134.905 76.8794 137.144L84.5975 139.248C84.6751 138.964 84.9756 138.319 86.0213 137.361L80.6155 131.463ZM76.9437 136.931C76.2246 139.089 75.8784 141.353 75.8784 143.7H83.8784C83.8784 142.148 84.1057 140.743 84.5332 139.461L76.9437 136.931ZM75.8784 143.7C75.8784 146.153 77.3738 148.056 78.598 149.28L84.2549 143.624C84.0868 143.455 83.9659 143.318 83.8816 143.212C83.7968 143.105 83.7602 143.044 83.7517 143.029C83.7288 142.988 83.8784 143.233 83.8784 143.7H75.8784ZM78.598 149.28C80.7145 151.397 83.5924 153.081 86.9693 154.456L89.9876 147.048C87.1725 145.901 85.349 144.718 84.2549 143.624L78.598 149.28ZM87.0425 154.485C90.1907 155.696 94.2817 156.996 99.2713 158.389L101.422 150.683C96.5499 149.324 92.7289 148.101 89.9144 147.019L87.0425 154.485ZM99.401 158.423L105.765 159.971L107.656 152.197L101.292 150.649L99.401 158.423ZM105.799 159.979L113.883 161.871L115.706 154.081L107.622 152.189L105.799 159.979ZM113.742 161.835L117.526 162.867L119.631 155.149L115.847 154.117L113.742 161.835ZM117.52 162.865C123.41 164.482 126.978 165.531 128.413 166.043L131.104 158.509C129.328 157.875 125.443 156.744 119.637 155.151L117.52 162.865ZM128.522 166.08C132.746 167.453 137.087 169.533 141.548 172.362L145.833 165.606C140.891 162.472 135.945 160.081 130.995 158.472L128.522 166.08ZM141.563 172.372C146.007 175.162 149.232 178.483 151.387 182.301L158.354 178.371C155.463 173.245 151.235 168.998 145.818 165.596L141.563 172.372ZM151.425 182.368C153.677 186.187 154.826 190.466 154.826 195.3H162.826C162.826 189.126 161.338 183.429 158.316 178.304L151.425 182.368ZM154.826 195.3C154.826 207.088 150.484 215.657 141.926 221.598L146.487 228.17C157.422 220.58 162.826 209.427 162.826 195.3H154.826ZM141.913 221.607C133.62 227.412 122.241 230.516 107.398 230.516V238.516C123.287 238.516 136.446 235.199 146.5 228.161L141.913 221.607ZM191.435 215.94L194.434 213.293L194.426 213.284L191.435 215.94ZM191.435 124.608L188.463 121.931L188.456 121.938L191.435 124.608ZM273.135 116.696L270.86 119.986L270.879 119.999L270.897 120.011L273.135 116.696ZM293.431 143.012L295.084 146.654L298.516 145.097L297.166 141.579L293.431 143.012ZM271.071 153.16V157.16H271.936L272.724 156.802L271.071 153.16ZM270.899 153.16L267.223 154.736L268.262 157.16H270.899V153.16ZM269.351 149.548L265.667 151.107L265.671 151.115L265.675 151.124L269.351 149.548ZM257.827 135.444L255.592 138.761L255.6 138.767L255.608 138.772L257.827 135.444ZM221.535 133.208L219.927 129.545L219.927 129.545L221.535 133.208ZM209.839 141.464L206.866 138.788L206.858 138.797L206.85 138.807L209.839 141.464ZM209.839 198.912L206.809 201.523L206.812 201.526L209.839 198.912ZM257.827 205.104L255.625 201.765L255.599 201.782L255.574 201.799L257.827 205.104ZM269.351 191L265.649 189.485L265.638 189.512L265.627 189.54L269.351 191ZM270.899 187.216V183.216H268.214L267.197 185.701L270.899 187.216ZM271.071 187.216L272.747 183.584L271.95 183.216H271.071V187.216ZM293.431 197.536L297.142 199.028L298.562 195.498L295.107 193.904L293.431 197.536ZM273.135 223.852L275.427 227.131L275.438 227.123L275.448 227.115L273.135 223.852ZM236.671 231.032C218.752 231.032 204.82 225.057 194.434 213.293L188.437 218.587C200.525 232.279 216.751 239.032 236.671 239.032V231.032ZM194.426 213.284C184.257 201.83 179.095 187.558 179.095 170.188H171.095C171.095 189.282 176.827 205.511 188.444 218.596L194.426 213.284ZM179.095 170.188C179.095 152.817 184.257 138.611 194.414 127.278L188.456 121.938C176.827 134.914 171.095 151.095 171.095 170.188H179.095ZM194.407 127.285C205.041 115.481 218.998 109.516 236.671 109.516V101.516C216.963 101.516 200.763 108.279 188.463 121.931L194.407 127.285ZM236.671 109.516C249.417 109.516 260.773 113.011 270.86 119.986L275.41 113.406C263.94 105.475 250.987 101.516 236.671 101.516V109.516ZM270.897 120.011C279.324 125.699 285.603 133.78 289.697 144.445L297.166 141.579C292.545 129.54 285.294 120.077 275.373 113.381L270.897 120.011ZM291.778 139.37L269.418 149.518L272.724 156.802L295.084 146.654L291.778 139.37ZM271.071 149.16H270.899V157.16H271.071V149.16ZM274.576 151.584L273.028 147.972L265.675 151.124L267.223 154.736L274.576 151.584ZM273.035 147.989C270.222 141.34 265.886 136.009 260.046 132.116L255.608 138.772C260.088 141.759 263.435 145.831 265.667 151.107L273.035 147.989ZM260.063 132.127C254.073 128.091 247.204 126.112 239.595 126.112V134.112C245.747 134.112 251.032 135.688 255.592 138.761L260.063 132.127ZM239.595 126.112C231.923 126.112 225.304 127.185 219.927 129.545L223.143 136.871C227.169 135.103 232.59 134.112 239.595 134.112V126.112ZM219.927 129.545C214.763 131.813 210.382 134.882 206.866 138.788L212.812 144.14C215.489 141.166 218.905 138.731 223.143 136.871L219.927 129.545ZM206.85 138.807C199.635 146.923 196.207 157.522 196.207 170.188H204.207C204.207 159.004 207.201 150.453 212.829 144.121L206.85 138.807ZM196.207 170.188C196.207 182.652 199.648 193.211 206.809 201.523L212.87 196.301C207.188 189.706 204.207 181.116 204.207 170.188H196.207ZM206.812 201.526C214.338 210.241 225.538 214.264 239.595 214.264V206.264C227.05 206.264 218.412 202.719 212.867 196.298L206.812 201.526ZM239.595 214.264C247.373 214.264 254.267 212.373 260.081 208.409L255.574 201.799C251.297 204.715 246.036 206.264 239.595 206.264V214.264ZM260.03 208.443C266.087 204.448 270.472 199.099 273.075 192.46L265.627 189.54C263.644 194.597 260.346 198.651 255.625 201.765L260.03 208.443ZM273.053 192.515L274.601 188.731L267.197 185.701L265.649 189.485L273.053 192.515ZM270.899 191.216H271.071V183.216H270.899V191.216ZM269.395 190.848L291.755 201.168L295.107 193.904L272.747 183.584L269.395 190.848ZM289.72 196.044C285.511 206.513 279.204 214.647 270.822 220.589L275.448 227.115C285.184 220.214 292.408 210.804 297.142 199.028L289.72 196.044ZM270.844 220.573C260.886 227.533 249.539 231.032 236.671 231.032V239.032C251.094 239.032 264.057 235.077 275.427 227.131L270.844 220.573ZM314.859 107.236V103.236H310.859V107.236H314.859ZM339.971 107.236H343.971V103.236H339.971V107.236ZM339.971 158.148H335.971V162.148H339.971V158.148ZM394.667 158.148V162.148H398.667V158.148H394.667ZM394.667 107.236V103.236H390.667V107.236H394.667ZM419.607 107.236H423.607V103.236H419.607V107.236ZM419.607 234V238H423.607V234H419.607ZM394.667 234H390.667V238H394.667V234ZM394.667 182.916H398.667V178.916H394.667V182.916ZM339.971 182.916V178.916H335.971V182.916H339.971ZM339.971 234V238H343.971V234H339.971ZM314.859 234H310.859V238H314.859V234ZM314.859 111.236H339.971V103.236H314.859V111.236ZM335.971 107.236V158.148H343.971V107.236H335.971ZM339.971 162.148H394.667V154.148H339.971V162.148ZM398.667 158.148V107.236H390.667V158.148H398.667ZM394.667 111.236H419.607V103.236H394.667V111.236ZM415.607 107.236V234H423.607V107.236H415.607ZM419.607 230H394.667V238H419.607V230ZM398.667 234V182.916H390.667V234H398.667ZM394.667 178.916H339.971V186.916H394.667V178.916ZM335.971 182.916V234H343.971V182.916H335.971ZM339.971 230H314.859V238H339.971V230ZM318.859 234V107.236H310.859V234H318.859ZM447.91 107.236V103.236H443.91V107.236H447.91ZM544.402 107.236H548.402V103.236H544.402V107.236ZM544.402 131.66V135.66H548.402V131.66H544.402ZM473.022 131.66V127.66H469.022V131.66H473.022ZM473.022 158.148H469.022V162.148H473.022V158.148ZM524.794 158.148H528.794V154.148H524.794V158.148ZM524.794 182.916V186.916H528.794V182.916H524.794ZM473.022 182.916V178.916H469.022V182.916H473.022ZM473.022 209.404H469.022V213.404H473.022V209.404ZM544.402 209.404H548.402V205.404H544.402V209.404ZM544.402 234V238H548.402V234H544.402ZM447.91 234H443.91V238H447.91V234ZM447.91 111.236H544.402V103.236H447.91V111.236ZM540.402 107.236V131.66H548.402V107.236H540.402ZM544.402 127.66H473.022V135.66H544.402V127.66ZM469.022 131.66V158.148H477.022V131.66H469.022ZM473.022 162.148H524.794V154.148H473.022V162.148ZM520.794 158.148V182.916H528.794V158.148H520.794ZM524.794 178.916H473.022V186.916H524.794V178.916ZM469.022 182.916V209.404H477.022V182.916H469.022ZM473.022 213.404H544.402V205.404H473.022V213.404ZM540.402 209.404V234H548.402V209.404H540.402ZM544.402 230H447.91V238H544.402V230ZM451.91 234V107.236H443.91V234H451.91ZM565.844 107.236V103.236H561.844V107.236H565.844ZM642.212 111.536L640.674 115.228L640.7 115.239L640.727 115.25L642.212 111.536ZM661.132 124.264L663.988 121.463L663.974 121.449L663.961 121.436L661.132 124.264ZM661.132 216.972L663.99 219.77L663.995 219.765L664.001 219.76L661.132 216.972ZM642.212 229.7L640.686 226.002L640.674 226.008L642.212 229.7ZM565.844 234H561.844V238H565.844V234ZM644.448 198.396L641.415 195.789L641.405 195.801L641.395 195.812L644.448 198.396ZM644.448 142.84L641.398 145.428L641.406 145.438L641.415 145.447L644.448 142.84ZM590.956 131.488V127.488H586.956V131.488H590.956ZM590.956 209.576H586.956V213.576H590.956V209.576ZM565.844 111.236H620.196V103.236H565.844V111.236ZM620.196 111.236C627.49 111.236 634.304 112.574 640.674 115.228L643.751 107.844C636.361 104.765 628.497 103.236 620.196 103.236V111.236ZM640.727 115.25C647.058 117.782 652.917 121.706 658.304 127.092L663.961 121.436C657.881 115.356 651.126 110.794 643.698 107.822L640.727 115.25ZM658.277 127.065C669.394 138.396 675.02 152.777 675.02 170.532H683.02C683.02 150.906 676.722 134.442 663.988 121.463L658.277 127.065ZM675.02 170.532C675.02 188.287 669.393 202.734 658.264 214.184L664.001 219.76C676.722 206.672 683.02 190.158 683.02 170.532H675.02ZM658.274 214.174C653.269 219.285 647.418 223.225 640.686 226.003L643.738 233.397C651.455 230.213 658.217 225.667 663.99 219.77L658.274 214.174ZM640.674 226.008C634.304 228.662 627.49 230 620.196 230V238C628.497 238 636.361 236.471 643.751 233.392L640.674 226.008ZM620.196 230H565.844V238H620.196V230ZM569.844 234V107.236H561.844V234H569.844ZM619.68 213.576C631.001 213.576 640.397 209.377 647.502 200.98L641.395 195.812C635.887 202.322 628.77 205.576 619.68 205.576V213.576ZM647.482 201.003C654.511 192.824 657.908 182.563 657.908 170.532H649.908C649.908 180.976 646.999 189.291 641.415 195.789L647.482 201.003ZM657.908 170.532C657.908 158.604 654.504 148.404 647.482 140.233L641.415 145.447C647.006 151.953 649.908 160.214 649.908 170.532H657.908ZM647.498 140.252C640.302 131.771 630.923 127.488 619.68 127.488V135.488C628.619 135.488 635.751 138.773 641.398 145.428L647.498 140.252ZM619.68 127.488H590.956V135.488H619.68V127.488ZM586.956 131.488V209.576H594.956V131.488H586.956ZM590.956 213.576H619.68V205.576H590.956V213.576ZM714.163 219.552L711.304 222.349L711.304 222.349L714.163 219.552ZM698.855 107.236V103.236H694.855V107.236H698.855ZM723.967 107.236H727.967V103.236H723.967V107.236ZM733.083 203.384L735.878 200.522L735.868 200.512L735.857 200.502L733.083 203.384ZM774.363 203.384L777.093 206.308L777.1 206.301L777.108 206.294L774.363 203.384ZM783.479 107.236V103.236H779.479V107.236H783.479ZM808.419 107.236H812.419V103.236H808.419V107.236ZM793.111 219.552L795.986 222.333L793.111 219.552ZM753.551 231.376C738.593 231.376 726.526 226.469 717.023 216.755L711.304 222.349C722.441 233.733 736.632 239.376 753.551 239.376V231.376ZM717.023 216.755C707.662 207.184 702.855 194.601 702.855 178.616H694.855C694.855 196.343 700.254 211.05 711.304 222.349L717.023 216.755ZM702.855 178.616V107.236H694.855V178.616H702.855ZM698.855 111.236H723.967V103.236H698.855V111.236ZM719.967 107.236V178.96H727.967V107.236H719.967ZM719.967 178.96C719.967 190.207 723.271 199.493 730.31 206.266L735.857 200.502C730.741 195.579 727.967 188.582 727.967 178.96H719.967ZM730.288 206.246C736.151 211.971 744.082 214.608 753.551 214.608V206.608C745.592 206.608 739.877 204.429 735.878 200.522L730.288 206.246ZM753.551 214.608C763.03 214.608 771.028 211.969 777.093 206.308L771.634 200.46C767.379 204.431 761.502 206.608 753.551 206.608V214.608ZM777.108 206.294C784.186 199.617 787.479 190.303 787.479 178.96H779.479C779.479 188.715 776.696 195.685 771.618 200.474L777.108 206.294ZM787.479 178.96V107.236H779.479V178.96H787.479ZM783.479 111.236H808.419V103.236H783.479V111.236ZM804.419 107.236V178.616H812.419V107.236H804.419ZM804.419 178.616C804.419 194.477 799.617 207.074 790.236 216.771L795.986 222.333C807.016 210.932 812.419 196.237 812.419 178.616H804.419ZM790.236 216.771C780.865 226.458 768.757 231.376 753.551 231.376V239.376C770.682 239.376 784.947 233.745 795.986 222.333L790.236 216.771ZM835.138 107.236V103.236H831.138V107.236H835.138ZM860.25 107.236H864.25V103.236H860.25V107.236ZM860.25 209.404H856.25V213.404H860.25V209.404ZM922.858 209.404H926.858V205.404H922.858V209.404ZM922.858 234V238H926.858V234H922.858ZM835.138 234H831.138V238H835.138V234ZM835.138 111.236H860.25V103.236H835.138V111.236ZM856.25 107.236V209.404H864.25V107.236H856.25ZM860.25 213.404H922.858V205.404H860.25V213.404ZM918.858 209.404V234H926.858V209.404H918.858ZM922.858 230H835.138V238H922.858V230ZM839.138 234V107.236H831.138V234H839.138ZM939.131 107.236V103.236H935.131V107.236H939.131ZM1035.62 107.236H1039.62V103.236H1035.62V107.236ZM1035.62 131.66V135.66H1039.62V131.66H1035.62ZM964.243 131.66V127.66H960.243V131.66H964.243ZM964.243 158.148H960.243V162.148H964.243V158.148ZM1016.02 158.148H1020.02V154.148H1016.02V158.148ZM1016.02 182.916V186.916H1020.02V182.916H1016.02ZM964.243 182.916V178.916H960.243V182.916H964.243ZM964.243 209.404H960.243V213.404H964.243V209.404ZM1035.62 209.404H1039.62V205.404H1035.62V209.404ZM1035.62 234V238H1039.62V234H1035.62ZM939.131 234H935.131V238H939.131V234ZM939.131 111.236H1035.62V103.236H939.131V111.236ZM1031.62 107.236V131.66H1039.62V107.236H1031.62ZM1035.62 127.66H964.243V135.66H1035.62V127.66ZM960.243 131.66V158.148H968.243V131.66H960.243ZM964.243 162.148H1016.02V154.148H964.243V162.148ZM1012.02 158.148V182.916H1020.02V158.148H1012.02ZM1016.02 178.916H964.243V186.916H1016.02V178.916ZM960.243 182.916V209.404H968.243V182.916H960.243ZM964.243 213.404H1035.62V205.404H964.243V213.404ZM1031.62 209.404V234H1039.62V209.404H1031.62ZM1035.62 230H939.131V238H1035.62V230ZM943.131 234V107.236H935.131V234H943.131Z" fill="black" fill-opacity="0.3"/>
<defs>
<linearGradient id="paint0_linear_454_3" x1="8.50611" y1="165" x2="985.614" y2="-146.627" gradientUnits="userSpaceOnUse">
<stop stop-color="#F24D56"/>
<stop offset="0.509216" stop-color="#EE0C77"/>
<stop offset="0.964829" stop-color="#F24D56"/>
</linearGradient>
</defs>
</svg>
