<?xml version="1.0" standalone="no"?>
<!DOCTYPE svg PUBLIC "-//W3C//DTD SVG 20010904//EN"
 "http://www.w3.org/TR/2001/REC-SVG-20010904/DTD/svg10.dtd">
<svg version="1.0" xmlns="http://www.w3.org/2000/svg"
 width="600.000000pt" height="322.000000pt" viewBox="0 0 600.000000 322.000000"
 preserveAspectRatio="xMidYMid meet">

<g transform="translate(0.000000,322.000000) scale(0.100000,-0.100000)"
fill="#000000" stroke="none">
<path d="M110 2078 c0 -995 1 -1070 19 -1173 56 -329 250 -595 535 -734 324
-158 739 -120 1016 95 164 127 280 292 345 488 20 60 36 95 39 86 4 -9 5 -181
4 -383 l-3 -367 203 0 202 0 1 448 c1 246 4 436 6 422 46 -274 121 -441 273
-604 241 -257 591 -346 934 -236 162 52 315 164 426 312 104 137 157 262 200
464 l19 89 0 -447 1 -448 230 0 230 0 0 583 c0 635 1 644 58 751 36 68 124
154 198 193 114 61 161 67 531 67 l333 1 0 223 0 222 -277 0 c-423 0 -562 -19
-732 -100 -290 -139 -503 -416 -552 -716 -9 -55 -15 -72 -20 -58 -4 10 -8 207
-8 437 l-1 417 -210 0 -210 0 0 -593 c0 -500 -2 -602 -15 -652 -65 -249 -300
-402 -562 -365 -191 26 -333 145 -400 335 l-28 80 -3 598 -3 597 -209 0 -210
0 0 515 0 515 -200 0 -200 0 0 -899 c0 -518 -4 -902 -9 -905 -5 -3 -17 26 -26
65 -37 149 -158 347 -281 458 -327 296 -811 336 -1179 97 l-70 -45 -3 615 -2
614 -195 0 -195 0 0 -1062z m1156 -481 c225 -65 374 -271 374 -515 0 -140 -46
-261 -136 -360 -128 -142 -319 -200 -525 -162 -70 13 -181 68 -240 120 -277
239 -217 715 111 885 110 57 284 71 416 32z"/>
</g>
</svg>
