<?xml version="1.0" standalone="no"?>
<!DOCTYPE svg PUBLIC "-//W3C//DTD SVG 20010904//EN"
 "http://www.w3.org/TR/2001/REC-SVG-20010904/DTD/svg10.dtd">
<svg version="1.0" xmlns="http://www.w3.org/2000/svg"
 width="700.000000pt" height="400.000000pt" viewBox="0 0 700.000000 400.000000"
 preserveAspectRatio="xMidYMid meet">

<g transform="translate(0.000000,400.000000) scale(0.100000,-0.100000)"
fill="#000000" stroke="none">
<path d="M180 2205 l0 -635 110 0 110 0 0 153 1 152 34 38 c20 20 37 37 39 37
2 0 59 -85 127 -190 l123 -190 134 0 133 0 -23 33 c-12 17 -92 128 -176 245
-84 118 -156 220 -159 228 -3 9 47 72 133 167 75 83 146 162 157 175 l20 22
-129 0 -129 0 -126 -167 c-70 -93 -134 -179 -143 -193 -15 -23 -16 1 -16 368
l0 392 -110 0 -110 0 0 -635z"/>
<path d="M5743 2758 l-103 -72 0 -558 0 -558 110 0 110 0 0 630 c0 347 -3 630
-7 630 -5 -1 -54 -33 -110 -72z"/>
<path d="M5318 2644 l-108 -75 0 -500 0 -499 110 0 110 0 0 575 c0 316 -1 575
-2 575 -2 -1 -51 -35 -110 -76z"/>
<path d="M1477 2450 c-61 -16 -110 -45 -155 -94 -23 -25 -45 -46 -47 -46 -3 0
-5 22 -5 49 0 81 0 81 -101 81 l-89 0 0 -435 0 -435 110 0 109 0 3 293 3 294
28 41 c73 112 235 110 292 -3 18 -37 20 -63 23 -332 l3 -293 109 0 110 0 0
283 c0 308 -9 385 -54 462 -31 51 -84 100 -134 121 -46 19 -154 26 -205 14z"/>
<path d="M2361 2449 c-70 -14 -166 -64 -215 -112 -83 -83 -126 -200 -126 -340
0 -219 117 -380 315 -432 210 -54 437 46 521 229 55 122 55 311 -1 430 -84
177 -281 267 -494 225z m185 -169 c78 -38 125 -136 127 -265 1 -102 -21 -177
-69 -233 -47 -55 -81 -72 -146 -72 -73 0 -124 31 -165 99 -74 124 -67 303 17
420 46 66 156 89 236 51z"/>
<path d="M4585 2446 c-194 -47 -315 -222 -315 -456 0 -211 90 -348 271 -411
89 -31 277 -31 393 0 44 11 80 22 82 24 2 2 -27 140 -31 145 -1 1 -30 -5 -64
-14 -75 -19 -221 -22 -277 -6 -90 26 -156 101 -166 187 l-3 30 291 3 292 2 6
43 c8 54 -8 171 -33 236 -32 84 -95 157 -166 193 -71 36 -188 46 -280 24z
m168 -150 c61 -25 107 -102 107 -178 l0 -28 -191 0 -192 0 6 41 c17 129 155
214 270 165z"/>
<path d="M6344 2446 c-147 -34 -255 -131 -302 -272 -56 -165 -28 -353 70 -476
77 -98 227 -156 372 -145 178 13 316 110 377 264 31 78 34 289 6 371 -38 106
-136 206 -242 243 -75 26 -202 33 -281 15z m196 -166 c51 -26 88 -75 111 -151
35 -114 16 -264 -46 -344 -67 -89 -200 -101 -278 -27 -57 54 -80 117 -85 227
-3 85 -1 109 18 158 12 31 33 71 47 88 57 67 156 88 233 49z"/>
<path d="M3052 2073 c60 -203 118 -398 129 -435 l20 -68 102 0 102 0 68 218
c37 119 76 260 88 312 11 52 22 96 23 98 2 2 11 -32 20 -75 10 -43 48 -184 85
-313 l68 -235 102 0 103 0 134 425 c73 234 134 428 134 433 0 4 -47 7 -105 7
l-104 0 -10 -37 c-38 -142 -112 -459 -127 -543 -10 -55 -19 -98 -21 -97 -2 2
-19 68 -38 147 -34 136 -81 311 -126 463 l-20 67 -88 0 -87 0 -77 -272 c-42
-150 -84 -304 -93 -341 -9 -37 -18 -66 -19 -65 -2 2 -10 44 -20 93 -9 50 -41
201 -72 338 l-57 247 -111 0 -112 0 109 -367z"/>
<path d="M1780 1095 c0 -178 1 -185 20 -185 17 0 20 7 20 43 0 24 6 52 14 62
12 17 16 14 57 -43 36 -50 49 -62 72 -62 l28 0 -47 63 c-26 34 -51 67 -56 73
-5 7 9 30 38 63 42 47 44 51 22 51 -16 0 -40 -18 -75 -57 l-52 -58 -1 118 c0
110 -1 117 -20 117 -19 0 -20 -7 -20 -185z"/>
<path d="M4530 1095 l0 -185 25 0 c23 0 25 3 25 49 0 78 19 81 69 11 32 -46
47 -60 67 -60 29 0 29 1 -33 82 -24 31 -43 60 -43 64 0 5 21 30 47 56 l47 48
-29 0 c-24 -1 -39 -12 -75 -56 l-45 -55 -3 115 c-3 116 -3 116 -27 116 l-25 0
0 -185z"/>
<path d="M6550 1095 l0 -185 25 0 25 0 0 185 0 185 -25 0 -25 0 0 -185z"/>
<path d="M6680 1095 c0 -178 1 -185 20 -185 19 0 20 7 20 185 0 178 -1 185
-20 185 -19 0 -20 -7 -20 -185z"/>
<path d="M6800 1217 c0 -104 12 -207 25 -207 13 0 25 103 25 207 0 50 -1 53
-25 53 -24 0 -25 -3 -25 -53z"/>
<path d="M2113 1150 c-27 -16 -33 -17 -33 -5 0 8 -9 15 -20 15 -19 0 -20 -7
-20 -125 l0 -125 25 0 c25 0 25 0 25 93 0 104 12 127 63 127 47 0 57 -22 57
-126 0 -94 0 -94 25 -94 25 0 25 1 25 85 0 100 -17 151 -55 165 -38 14 -56 12
-92 -10z"/>
<path d="M2393 1156 c-50 -23 -75 -70 -70 -134 3 -37 10 -59 26 -76 100 -106
259 -1 210 138 -25 69 -100 102 -166 72z m80 -27 c69 -31 59 -171 -13 -194
-10 -3 -33 1 -49 10 -62 31 -64 147 -3 180 33 18 35 18 65 4z"/>
<path d="M3230 1163 c-8 -3 -22 -12 -31 -20 -14 -12 -17 -12 -22 2 -4 8 -13
15 -22 15 -13 0 -15 -19 -15 -125 0 -118 1 -125 20 -125 18 0 20 7 20 88 0 75
3 92 20 110 24 26 62 29 84 6 12 -12 16 -37 16 -110 0 -87 1 -94 20 -94 18 0
20 7 20 81 0 103 17 138 67 139 43 0 53 -24 53 -126 0 -94 0 -94 25 -94 25 0
25 1 24 83 0 45 -5 98 -12 117 -21 61 -100 77 -143 29 -18 -20 -18 -20 -34 0
-16 22 -64 34 -90 24z"/>
<path d="M3632 1153 c-90 -44 -86 -201 5 -240 50 -20 99 -9 140 32 29 29 33
40 33 84 0 66 -22 109 -65 127 -44 18 -72 17 -113 -3z m89 -23 c16 0 49 -63
49 -93 0 -66 -54 -117 -104 -97 -74 28 -75 161 -2 190 11 5 27 7 34 4 8 -2 18
-4 23 -4z"/>
<path d="M3944 1145 c-30 -30 -34 -31 -34 -5 0 12 -7 20 -17 20 -16 0 -18 -11
-15 -125 3 -116 5 -125 23 -125 17 0 19 7 19 74 0 93 12 125 50 139 18 7 30
19 30 29 0 26 -27 22 -56 -7z"/>
<path d="M4100 1157 c-89 -45 -93 -200 -5 -241 49 -24 145 -17 145 9 0 9 -17
13 -61 12 -55 -2 -63 1 -85 26 -13 16 -24 37 -24 48 0 17 8 19 95 19 l96 0 -7
38 c-9 52 -20 70 -54 87 -35 18 -67 19 -100 2z m90 -37 c11 -11 20 -29 20 -40
0 -18 -7 -20 -70 -20 -43 0 -70 4 -70 11 0 19 58 69 79 69 12 0 30 -9 41 -20z"/>
<path d="M4890 1163 c-8 -3 -23 -12 -32 -21 -16 -13 -18 -13 -24 2 -3 9 -14
16 -23 16 -14 0 -16 -14 -13 -125 3 -116 5 -125 23 -125 17 0 19 8 19 88 0
101 17 132 70 132 46 0 60 -30 60 -132 0 -81 2 -88 20 -88 19 0 20 7 20 101 0
98 -1 101 -29 130 -28 28 -57 35 -91 22z"/>
<path d="M5142 1153 c-90 -44 -86 -201 5 -240 50 -20 99 -9 140 32 29 29 33
40 33 84 0 66 -22 109 -65 127 -44 18 -72 17 -113 -3z m89 -23 c16 0 49 -63
49 -93 0 -66 -54 -117 -104 -97 -74 28 -75 161 -2 190 11 5 27 7 34 4 8 -2 18
-4 23 -4z"/>
<path d="M6328 1155 c-60 -34 -83 -147 -41 -203 28 -37 81 -56 138 -48 35 6
45 11 45 26 0 16 -4 17 -32 9 -63 -18 -128 17 -128 68 0 22 3 23 91 23 l92 0
-6 42 c-3 25 -15 51 -30 65 -30 31 -92 39 -129 18z m97 -40 c44 -43 34 -55
-45 -55 -56 0 -70 3 -70 15 0 23 46 65 70 65 12 0 32 -11 45 -25z"/>
<path d="M2615 1113 c8 -27 25 -83 37 -125 20 -67 26 -78 45 -78 19 0 26 14
55 101 l33 101 30 -99 c28 -88 33 -98 55 -98 21 0 27 11 61 120 21 66 39 121
39 123 0 2 -10 2 -21 0 -18 -2 -26 -18 -45 -83 -13 -44 -24 -88 -24 -97 0 -42
-17 -11 -44 83 -25 88 -31 100 -49 97 -17 -2 -27 -21 -52 -100 -16 -54 -32
-98 -35 -98 -3 0 -16 45 -29 100 -22 91 -26 100 -47 100 -23 0 -23 0 -9 -47z"/>
<path d="M5362 1148 c2 -7 20 -64 38 -125 30 -100 36 -113 56 -113 19 0 26 13
55 102 l32 102 30 -102 c27 -90 33 -102 53 -102 23 0 21 -4 89 208 13 41 13
42 -8 42 -20 0 -25 -11 -46 -87 -12 -49 -25 -97 -28 -107 -5 -18 -39 79 -59
167 -5 19 -13 27 -29 27 -19 0 -26 -13 -55 -107 l-32 -106 -27 104 c-23 93
-29 104 -50 107 -16 3 -22 0 -19 -10z"/>
<path d="M5870 1151 c0 -4 4 -21 10 -37 5 -16 21 -68 35 -116 23 -77 29 -88
49 -88 20 0 26 11 52 95 16 52 31 95 34 95 3 0 18 -43 34 -95 25 -81 32 -95
50 -95 19 0 27 16 59 113 43 130 44 137 18 137 -15 0 -24 -19 -48 -106 l-29
-106 -30 104 c-25 87 -33 103 -52 106 -19 3 -25 -7 -54 -103 l-33 -107 -16 64
c-37 142 -39 148 -59 148 -11 0 -20 -4 -20 -9z"/>
<path d="M4302 923 c-6 -27 -14 -56 -17 -65 -5 -13 -2 -18 9 -18 15 0 40 45
60 108 6 19 4 22 -17 22 -20 0 -25 -7 -35 -47z"/>
<path d="M6805 954 c-11 -12 -12 -20 -4 -35 14 -28 43 -20 47 12 4 32 -21 45
-43 23z"/>
</g>
</svg>
