<?xml version="1.0" standalone="no"?>
<!DOCTYPE svg PUBLIC "-//W3C//DTD SVG 20010904//EN"
 "http://www.w3.org/TR/2001/REC-SVG-20010904/DTD/svg10.dtd">
<svg version="1.0" xmlns="http://www.w3.org/2000/svg"
 width="353.000000pt" height="143.000000pt" viewBox="0 0 353.000000 143.000000"
 preserveAspectRatio="xMidYMid meet">

<g transform="translate(0.000000,143.000000) scale(0.100000,-0.100000)"
fill="#000000" stroke="none">
<path d="M1692 1072 c-17 -26 -40 -69 -52 -95 l-21 -48 -31 22 -30 22 -34 -34
-33 -34 -11 -154 c-5 -85 -11 -156 -13 -157 -1 -2 -40 28 -84 67 l-82 70 -35
-38 -35 -38 5 -95 c2 -52 7 -123 10 -158 2 -34 2 -62 -1 -62 -2 0 -43 52 -90
115 l-85 115 -34 -37 c-32 -36 -34 -43 -41 -142 -5 -85 -4 -102 7 -96 34 20
48 40 48 71 0 18 4 35 9 38 4 3 50 -51 101 -120 l93 -126 34 34 33 34 -8 179
c-5 99 -7 182 -6 184 2 2 36 -24 76 -58 39 -33 75 -61 78 -61 3 0 19 14 36 31
25 26 30 40 36 112 3 45 7 117 7 160 1 80 8 91 41 62 15 -13 19 -11 47 18 23
24 33 47 42 95 5 35 21 88 35 118 14 30 23 54 21 54 -1 0 -17 -21 -33 -48z"/>
<path d="M3200 770 c0 -238 5 -260 64 -280 19 -6 51 -8 70 -4 31 5 36 10 36
34 0 24 -5 30 -32 35 -59 13 -58 11 -58 226 l0 199 -40 0 -40 0 0 -210z"/>
<path d="M274 830 c-12 -5 -29 -19 -38 -32 l-16 -22 0 27 c0 24 -4 27 -35 27
l-35 0 0 -230 0 -230 35 0 35 0 0 80 0 81 31 -23 c65 -49 149 -19 181 63 59
153 -36 308 -158 259z m76 -82 c40 -67 19 -190 -36 -204 -55 -14 -94 32 -94
111 0 79 30 125 81 125 22 0 34 -8 49 -32z"/>
<path d="M755 832 c-64 -21 -105 -84 -105 -164 0 -68 12 -103 48 -141 70 -73
199 -50 248 45 22 43 18 146 -9 192 -35 62 -111 90 -182 68z m99 -71 c39 -43
40 -161 2 -199 -25 -25 -85 -20 -106 8 -36 47 -30 160 10 192 29 24 72 23 94
-1z"/>
<path d="M1835 826 c-63 -29 -95 -85 -95 -167 0 -123 86 -196 200 -169 78 19
132 95 73 102 -19 2 -35 -5 -54 -24 -52 -53 -139 -20 -139 52 l0 30 115 0 115
0 0 38 c0 46 -26 99 -62 125 -34 25 -113 32 -153 13z m116 -65 c50 -50 41 -61
-51 -61 -74 0 -80 2 -80 20 0 29 44 70 75 70 16 0 38 -12 56 -29z"/>
<path d="M2404 824 c-17 -8 -38 -29 -47 -47 l-16 -32 0 43 c-1 41 -2 42 -36
42 l-35 0 0 -175 0 -175 40 0 40 0 0 103 c0 119 16 160 69 170 28 6 31 10 31
41 0 43 -8 48 -46 30z"/>
<path d="M2744 826 c-131 -59 -120 -292 16 -334 144 -45 260 115 188 258 -13
24 -35 53 -50 63 -34 25 -113 32 -154 13z m116 -66 c26 -26 34 -60 28 -122 -4
-40 -12 -57 -32 -75 -34 -29 -58 -29 -92 0 -20 18 -28 35 -32 75 -8 90 20 142
78 142 17 0 39 -9 50 -20z"/>
<path d="M2000 230 c0 -73 2 -80 20 -80 18 0 20 7 20 65 l0 65 30 0 30 0 0
-65 c0 -58 2 -65 20 -65 16 0 19 8 22 63 3 59 4 62 31 65 l27 3 0 -65 c0 -60
2 -66 20 -66 19 0 21 5 18 78 l-3 77 -117 3 -118 3 0 -81z"/>
<path d="M2470 230 c0 -64 3 -80 15 -80 11 0 15 12 15 46 l0 45 38 -3 c36 -3
37 -4 40 -45 3 -35 7 -43 23 -43 16 0 19 7 19 48 0 26 -5 53 -12 60 -15 15
-74 16 -83 2 -12 -20 -25 -9 -25 20 0 20 -5 30 -15 30 -12 0 -15 -16 -15 -80z"/>
<path d="M2650 285 c0 -23 2 -24 20 -15 11 6 20 17 20 25 0 8 -9 15 -20 15
-15 0 -20 -7 -20 -25z"/>
<path d="M3020 245 l0 -65 -34 0 c-19 0 -38 5 -41 10 -12 20 6 49 32 52 47 5
39 28 -10 28 -55 0 -69 -15 -65 -72 l3 -43 78 -3 77 -3 0 81 c0 73 -2 80 -20
80 -18 0 -20 -7 -20 -65z"/>
<path d="M1741 222 l-1 -73 38 3 c35 3 37 5 40 42 4 43 -10 59 -45 51 -18 -4
-22 0 -26 22 -2 16 -5 -5 -6 -45z m67 -24 c-2 -25 -8 -33 -23 -33 -15 0 -21 8
-23 33 -3 29 -1 32 23 32 24 0 26 -3 23 -32z"/>
<path d="M2290 255 c-11 -13 -6 -15 44 -15 56 0 56 0 56 -30 0 -28 -2 -30 -40
-30 -22 0 -40 5 -40 10 0 6 14 10 30 10 17 0 30 5 30 10 0 6 -20 10 -45 10
-45 0 -45 0 -45 -35 l0 -35 75 0 76 0 -3 58 -3 57 -61 3 c-45 2 -64 -1 -74
-13z"/>
<path d="M2730 210 c0 -53 2 -60 20 -60 17 0 20 7 20 45 0 43 1 45 30 45 29 0
30 -2 30 -45 0 -40 2 -45 23 -45 21 0 22 3 17 58 l-5 57 -67 3 -68 3 0 -61z"/>
<path d="M3100 210 c0 -54 2 -60 21 -60 16 0 19 4 14 21 -12 36 2 67 32 71 14
2 28 9 31 16 2 8 -11 12 -47 12 l-51 0 0 -60z"/>
<path d="M3227 263 c-16 -15 -4 -22 46 -25 48 -3 52 -5 55 -30 3 -27 1 -28
-37 -28 -23 0 -41 5 -41 10 0 6 14 10 32 10 23 0 29 3 21 11 -6 6 -28 9 -49 7
-36 -3 -39 -6 -42 -35 l-3 -33 80 0 81 0 0 48 c0 26 -5 53 -12 60 -13 13 -120
17 -131 5z"/>
<path d="M2668 249 c-13 -7 -18 -23 -18 -54 0 -38 3 -45 20 -45 18 0 20 7 20
55 0 30 -1 55 -2 55 -2 0 -11 -5 -20 -11z"/>
<path d="M1840 243 c0 -6 9 -33 20 -58 16 -36 18 -51 9 -61 -9 -11 -8 -14 3
-14 13 0 48 96 48 130 0 24 -18 -2 -24 -35 -7 -35 -26 -40 -26 -6 0 19 -29 63
-30 44z"/>
</g>
</svg>
