<?xml version="1.0" standalone="no"?>
<!DOCTYPE svg PUBLIC "-//W3C//DTD SVG 20010904//EN"
 "http://www.w3.org/TR/2001/REC-SVG-20010904/DTD/svg10.dtd">
<svg version="1.0" xmlns="http://www.w3.org/2000/svg"
 width="600.000000pt" height="390.000000pt" viewBox="0 0 600.000000 390.000000"
 preserveAspectRatio="xMidYMid meet">

<g transform="translate(0.000000,390.000000) scale(0.100000,-0.100000)"
fill="#000000" stroke="none">
<path d="M2080 3054 c-100 -17 -211 -63 -330 -138 -47 -29 -60 -42 -46 -44 23
-5 87 29 79 41 -3 6 -1 7 5 3 13 -8 84 28 75 38 -4 4 0 4 10 0 10 -3 17 -1 17
5 0 6 3 10 8 9 4 -1 20 4 35 10 16 7 33 12 38 12 6 0 7 4 4 10 -3 6 1 7 10 4
8 -4 22 -1 29 5 8 7 46 15 86 18 63 5 74 4 101 -16 17 -13 33 -21 35 -18 8 8
-56 57 -74 57 -9 0 -26 2 -37 4 -11 2 -31 2 -45 0z"/>
<path d="M1325 2823 c-4 -21 -13 -61 -21 -90 -17 -64 -18 -73 0 -73 9 0 16 17
21 46 8 57 27 53 40 -9 7 -31 14 -44 22 -39 9 5 9 18 0 49 -10 40 -9 44 16 67
48 44 27 86 -42 86 -27 0 -31 -4 -36 -37z m73 -6 c4 -33 -13 -57 -39 -57 -14
0 -19 7 -19 26 0 61 52 89 58 31z"/>
<path d="M1810 2803 c-6 -32 -15 -71 -21 -87 -16 -49 -12 -56 29 -56 66 0 106
52 70 89 -11 10 -10 15 3 24 23 17 33 55 19 72 -7 9 -29 15 -51 15 l-38 0 -11
-57z m84 32 c6 -16 -1 -42 -17 -63 -6 -7 -11 -32 -11 -55 -1 -38 -4 -42 -28
-45 -33 -4 -32 -8 -13 91 8 43 15 81 15 83 0 12 49 2 54 -11z"/>
<path d="M1571 2836 c-8 -9 -15 -29 -16 -44 -1 -15 -6 -53 -10 -84 -7 -52 -6
-56 11 -53 11 2 21 4 24 4 3 1 -2 5 -10 11 -12 7 -13 18 -2 67 6 32 20 64 29
71 9 6 12 12 6 12 -7 0 -13 7 -15 17 -3 15 -4 15 -17 -1z"/>
<path d="M2061 2836 c-8 -10 -15 -27 -16 -39 -1 -12 -5 -50 -10 -84 -7 -57 -6
-61 11 -58 11 2 21 4 24 4 3 1 -2 5 -10 11 -12 7 -13 18 -2 67 6 32 20 64 29
71 9 6 12 12 6 12 -7 0 -13 7 -15 17 -3 15 -4 15 -17 -1z"/>
<path d="M1672 2813 c-41 -16 -58 -134 -22 -153 14 -7 20 -7 20 0 0 5 -5 10
-11 10 -15 0 -5 106 12 126 20 25 54 13 54 -18 1 -34 12 -47 21 -24 11 27 -12
66 -38 65 -13 0 -29 -3 -36 -6z"/>
<path d="M2162 2813 c-41 -16 -58 -134 -22 -153 14 -7 20 -7 20 0 0 5 -5 10
-11 10 -15 0 -5 105 12 126 20 25 54 14 54 -18 1 -34 12 -47 21 -24 11 27 -12
66 -38 65 -13 0 -29 -3 -36 -6z"/>
<path d="M1475 2798 c-2 -7 -6 -31 -10 -53 -3 -22 -9 -50 -12 -62 -3 -13 -1
-23 5 -23 8 0 42 116 42 143 0 12 -20 8 -25 -5z"/>
<path d="M1966 2798 c-11 -35 -25 -132 -21 -136 9 -9 15 3 25 49 5 24 12 56
16 72 6 27 -12 41 -20 15z"/>
<path d="M1401 2569 c-58 -31 -127 -39 -149 -17 -8 8 -12 9 -12 1 0 -23 32
-43 68 -43 46 0 124 29 115 43 -3 6 -1 7 5 3 7 -4 31 4 54 18 l43 26 -35 -2
c-19 0 -59 -14 -89 -29z"/>
<path d="M3065 2224 l-129 -147 -35 39 c-20 22 -51 56 -69 77 l-32 38 -101 -3
-102 -3 117 -133 c105 -119 116 -136 104 -150 -8 -10 -60 -69 -116 -133 -56
-64 -102 -119 -102 -123 0 -3 45 -6 99 -6 l99 0 63 74 c35 41 69 75 74 75 6 0
39 -33 74 -74 l63 -75 99 0 c55 0 99 3 99 6 0 4 -39 51 -87 106 -49 55 -101
115 -116 134 l-28 33 176 198 c96 109 175 201 175 206 0 4 -44 7 -98 7 l-98 0
-129 -146z"/>
<path d="M1240 1959 c0 -306 -8 -284 85 -225 l54 35 3 110 3 110 80 -94 80
-95 40 43 c22 23 62 67 88 97 l47 55 0 -158 0 -157 70 0 70 0 0 275 0 275 -72
-1 -73 0 -80 -94 c-44 -52 -83 -93 -87 -92 -3 1 -43 44 -88 95 l-81 92 -70 0
-69 0 0 -271z"/>
<path d="M2156 1960 c-130 -148 -236 -272 -236 -275 0 -3 44 -5 98 -5 l98 0
34 35 35 36 105 -3 105 -3 0 -30 1 -30 67 -3 67 -3 0 276 0 275 -69 0 -69 0
-236 -270z m244 -25 c0 -67 -6 -75 -55 -75 -24 0 -46 3 -48 8 -7 10 85 122 95
116 4 -3 8 -25 8 -49z"/>
<path d="M1240 1320 c0 -169 4 -270 10 -270 5 0 34 12 65 27 l55 27 0 52 c0
87 -4 84 136 84 123 0 123 0 158 30 60 53 72 182 25 259 -32 53 -66 61 -269
61 l-180 0 0 -270z m335 95 l0 -30 -100 0 c-88 0 -100 2 -103 18 -9 43 2 48
105 45 l98 -3 0 -30z"/>
<path d="M1780 1315 l0 -275 70 0 70 0 0 100 0 100 54 0 c63 0 62 0 119 -111
l42 -84 78 -3 c42 -2 77 0 77 3 0 3 -20 46 -45 95 -25 49 -45 93 -45 98 0 5
11 14 25 20 45 20 65 68 65 152 0 89 -20 134 -71 162 -29 16 -59 18 -236 18
l-203 0 0 -275z m338 98 l3 -33 -100 0 -101 0 0 35 0 36 98 -3 97 -3 3 -32z"/>
<path d="M2489 1580 c-44 -13 -74 -38 -100 -82 -22 -40 -24 -53 -24 -183 0
-130 2 -143 25 -183 41 -73 75 -86 220 -90 188 -6 250 19 287 116 24 64 24
259 -1 317 -40 94 -87 115 -256 114 -69 0 -137 -4 -151 -9z m275 -172 c11 -15
16 -45 16 -93 0 -109 -7 -115 -137 -115 -139 0 -143 3 -143 116 0 112 2 114
140 114 101 0 110 -2 124 -22z"/>
<path d="M2962 1513 l3 -78 80 -1 80 -2 3 -196 2 -197 68 3 67 3 3 192 2 192
83 3 82 3 3 78 3 77 -241 0 -241 0 3 -77z"/>
<path d="M3500 1315 l0 -275 223 2 222 3 0 65 0 65 -150 5 -150 5 0 25 0 25
128 3 127 3 0 69 0 70 -130 0 -130 0 0 35 0 34 153 3 152 3 0 65 0 65 -222 3
-223 2 0 -275z"/>
<path d="M4010 1315 l0 -275 70 0 70 0 0 275 0 275 -70 0 -70 0 0 -275z"/>
<path d="M4210 1315 l0 -276 68 3 67 3 5 150 5 150 133 -153 133 -152 70 0 69
0 0 270 c0 210 -3 270 -12 269 -7 0 -38 -17 -68 -37 l-55 -38 -3 -107 c-1 -59
-6 -107 -10 -106 -4 0 -65 68 -136 150 l-129 149 -68 0 -69 0 0 -275z"/>
<path d="M4830 1170 c-24 -24 -27 -82 -4 -104 8 -9 26 -19 39 -22 27 -7 76 14
83 35 3 10 -5 7 -23 -7 -33 -26 -53 -28 -83 -6 -46 32 -18 114 40 114 27 0 63
-33 71 -65 4 -19 5 -19 6 1 0 12 -8 33 -20 48 -26 33 -79 36 -109 6z"/>
<path d="M4892 1125 c-1 -13 3 -27 8 -30 6 -4 10 7 10 24 0 37 -15 42 -18 6z"/>
<path d="M4850 1120 c0 -5 5 -10 10 -10 6 0 10 5 10 10 0 6 -4 10 -10 10 -5 0
-10 -4 -10 -10z"/>
</g>
</svg>
