<?xml version="1.0" standalone="no"?>
<!DOCTYPE svg PUBLIC "-//W3C//DTD SVG 20010904//EN"
 "http://www.w3.org/TR/2001/REC-SVG-20010904/DTD/svg10.dtd">
<svg version="1.0" xmlns="http://www.w3.org/2000/svg"
 width="1200.000000pt" height="628.000000pt" viewBox="0 0 1200.000000 628.000000"
 preserveAspectRatio="xMidYMid meet">

<g transform="translate(0.000000,628.000000) scale(0.100000,-0.100000)"
fill="#000000" stroke="none">
<path d="M0 3140 l0 -3140 6000 0 6000 0 0 3140 0 3140 -6000 0 -6000 0 0
-3140z m846 927 c11 -12 79 -96 150 -187 71 -91 136 -172 144 -180 8 -9 66
-82 129 -163 72 -92 121 -147 133 -147 11 0 55 47 114 121 53 67 105 131 115
143 10 11 30 38 46 58 104 136 231 292 290 355 l22 23 291 0 c182 0 299 -4
311 -10 17 -10 19 -22 19 -145 0 -136 -11 -175 -31 -116 -6 17 -15 31 -19 31
-4 0 -11 12 -14 26 -4 14 -18 43 -31 64 l-24 38 -48 -9 c-26 -5 -94 -13 -150
-18 -114 -10 -135 -21 -179 -88 -14 -21 -31 -42 -38 -48 -6 -5 -45 -53 -85
-105 -41 -52 -80 -102 -88 -110 -8 -8 -35 -42 -61 -76 -68 -88 -244 -307 -259
-322 -19 -19 -16 -46 8 -73 12 -13 60 -73 107 -134 48 -60 92 -114 98 -120 6
-5 31 -37 55 -70 23 -33 48 -64 54 -70 7 -5 44 -53 85 -105 40 -52 78 -99 84
-105 9 -8 51 -62 73 -94 1 -2 33 -7 70 -11 38 -4 104 -13 148 -21 100 -16 130
-9 144 32 6 16 23 49 39 72 15 23 31 50 35 60 3 9 11 17 17 17 6 0 10 -52 10
-144 0 -122 -2 -145 -16 -150 -9 -3 -154 -6 -322 -6 l-307 0 -25 24 c-14 13
-38 41 -55 62 -16 21 -37 45 -45 54 -8 8 -27 34 -42 55 -15 22 -44 58 -63 80
-41 46 -42 48 -74 95 -13 19 -29 40 -36 45 -6 6 -55 65 -108 133 -54 67 -103
122 -110 122 -22 0 -39 -19 -165 -180 -182 -232 -341 -432 -368 -462 l-24 -28
-311 0 c-195 0 -318 4 -330 10 -17 10 -19 22 -19 140 0 71 4 131 8 134 12 7
52 -23 52 -39 0 -8 16 -41 35 -74 l36 -61 55 0 c30 0 64 5 74 10 10 6 60 13
110 17 88 6 91 7 118 41 15 19 32 40 38 46 6 6 15 18 20 27 5 9 26 36 46 60
36 44 208 258 366 457 45 57 82 112 82 122 0 14 -138 203 -161 220 -4 3 -69
84 -145 181 -198 250 -273 342 -295 357 -11 7 -63 18 -117 23 -53 5 -123 12
-154 15 l-57 6 -32 -68 c-18 -38 -38 -73 -46 -77 -7 -4 -13 -15 -13 -22 0 -8
-5 -15 -11 -15 -7 0 -9 45 -7 140 2 112 6 143 18 150 9 6 144 10 315 10 298 0
300 -1 321 -23z m4692 4 c43 -10 89 -25 103 -32 169 -93 278 -235 309 -399 12
-62 12 -187 0 -249 -17 -93 -76 -199 -150 -271 -62 -60 -96 -83 -192 -124 -21
-8 -38 -22 -38 -30 0 -12 92 -161 120 -193 6 -7 14 -21 18 -31 4 -10 38 -65
76 -122 38 -58 91 -137 117 -177 53 -80 79 -127 79 -143 0 -6 -29 -10 -73 -10
l-74 0 -44 68 c-24 37 -46 72 -49 77 -3 6 -20 31 -37 57 -18 26 -33 51 -33 56
0 6 -3 12 -7 14 -11 4 -53 65 -53 76 0 5 -7 16 -16 23 -9 7 -20 22 -25 34 -5
11 -27 47 -49 80 -21 33 -53 84 -70 113 -17 28 -40 57 -50 62 -12 7 -121 9
-287 8 l-268 -3 -5 -322 c-3 -216 -9 -326 -16 -333 -6 -6 -35 -10 -65 -8 l-54
3 -3 889 c-2 705 0 891 10 898 7 4 178 8 380 8 325 0 376 -2 446 -19z m2673
-11 c9 -31 11 -1681 3 -1732 l-7 -38 -62 0 c-48 0 -64 4 -69 16 -11 28 -7
1730 4 1759 9 24 13 26 67 23 51 -3 58 -6 64 -28z m3159 7 c108 -33 214 -93
288 -164 72 -69 142 -164 142 -193 0 -20 -77 -72 -98 -68 -9 2 -33 28 -53 58
-81 117 -145 168 -284 226 -105 43 -337 47 -440 8 -59 -23 -129 -57 -140 -70
-5 -5 -29 -23 -53 -39 -54 -36 -110 -99 -174 -196 -38 -58 -60 -109 -83 -194
-8 -27 -19 -68 -25 -90 -15 -49 -10 -326 6 -346 6 -8 14 -31 18 -51 6 -32 37
-99 105 -226 27 -49 165 -177 237 -219 127 -72 180 -86 334 -85 116 1 144 4
202 25 37 13 73 28 80 33 7 5 35 20 62 34 27 14 91 66 143 116 l94 90 -3 165
-3 164 -192 5 c-105 3 -194 8 -198 11 -3 4 -8 22 -11 41 -11 66 -4 68 265 68
171 0 240 -3 249 -12 9 -9 12 -117 12 -424 0 -227 -3 -419 -6 -428 -9 -23 -99
-23 -108 0 -3 9 -6 63 -6 120 0 121 -5 126 -71 63 -81 -77 -215 -154 -309
-179 -95 -25 -128 -29 -215 -29 -86 0 -110 3 -215 29 -39 9 -177 71 -205 92
-115 85 -178 148 -235 232 -79 118 -110 182 -153 321 -18 59 -21 96 -21 235
-1 193 12 256 87 420 65 143 238 337 338 380 13 5 31 14 39 19 37 22 109 51
126 51 10 1 30 7 44 15 36 21 352 15 430 -8z"/>
<path d="M4839 3938 c-2 -7 -2 -200 1 -428 l5 -415 315 -3 c358 -3 392 2 488
68 59 41 98 91 140 180 24 50 26 66 26 180 0 132 1 130 -63 246 -30 54 -93
112 -165 148 l-69 36 -337 0 c-262 0 -339 -3 -341 -12z"/>
</g>
</svg>
