<svg width="1620" height="330" viewBox="0 0 1620 330" fill="none" xmlns="http://www.w3.org/2000/svg">
<path d="M158.379 215.94L161.377 213.293L161.37 213.284L158.379 215.94ZM158.379 124.608L155.407 121.931L155.4 121.938L158.379 124.608ZM240.079 116.696L237.804 119.986L237.822 119.999L237.841 120.011L240.079 116.696ZM260.375 143.012L262.028 146.654L265.46 145.097L264.109 141.579L260.375 143.012ZM238.015 153.16V157.16H238.88L239.668 156.802L238.015 153.16ZM237.843 153.16L234.166 154.736L235.205 157.16H237.843V153.16ZM236.295 149.548L232.611 151.107L232.614 151.115L232.618 151.124L236.295 149.548ZM224.771 135.444L222.535 138.761L222.544 138.767L222.552 138.772L224.771 135.444ZM188.479 133.208L186.871 129.545L186.871 129.545L188.479 133.208ZM176.783 141.464L173.81 138.788L173.801 138.797L173.793 138.807L176.783 141.464ZM176.783 198.912L173.752 201.523L173.755 201.526L176.783 198.912ZM224.771 205.104L222.568 201.765L222.543 201.782L222.517 201.799L224.771 205.104ZM236.295 191L232.593 189.485L232.581 189.512L232.571 189.54L236.295 191ZM237.843 187.216V183.216H235.157L234.141 185.701L237.843 187.216ZM238.015 187.216L239.691 183.584L238.893 183.216H238.015V187.216ZM260.375 197.536L264.086 199.028L265.505 195.498L262.051 193.904L260.375 197.536ZM240.079 223.852L242.37 227.131L242.381 227.123L242.392 227.115L240.079 223.852ZM203.615 231.032C185.695 231.032 171.763 225.057 161.377 213.293L155.38 218.587C167.469 232.279 183.694 239.032 203.615 239.032V231.032ZM161.37 213.284C151.2 201.83 146.039 187.558 146.039 170.188H138.039C138.039 189.282 143.771 205.511 155.388 218.596L161.37 213.284ZM146.039 170.188C146.039 152.817 151.2 138.611 161.357 127.278L155.4 121.938C143.771 134.914 138.039 151.095 138.039 170.188H146.039ZM161.351 127.285C171.985 115.481 185.942 109.516 203.615 109.516V101.516C183.906 101.516 167.706 108.279 155.407 121.931L161.351 127.285ZM203.615 109.516C216.361 109.516 227.716 113.011 237.804 119.986L242.354 113.406C230.884 105.475 217.93 101.516 203.615 101.516V109.516ZM237.841 120.011C246.267 125.699 252.547 133.78 256.64 144.445L264.109 141.579C259.488 129.54 252.237 120.077 242.317 113.381L237.841 120.011ZM258.722 139.37L236.362 149.518L239.668 156.802L262.028 146.654L258.722 139.37ZM238.015 149.16H237.843V157.16H238.015V149.16ZM241.519 151.584L239.971 147.972L232.618 151.124L234.166 154.736L241.519 151.584ZM239.979 147.989C237.165 141.34 232.83 136.009 226.989 132.116L222.552 138.772C227.031 141.759 230.379 145.831 232.611 151.107L239.979 147.989ZM227.006 132.127C221.017 128.091 214.147 126.112 206.539 126.112V134.112C212.69 134.112 217.975 135.688 222.535 138.761L227.006 132.127ZM206.539 126.112C198.866 126.112 192.248 127.185 186.871 129.545L190.087 136.871C194.113 135.103 199.534 134.112 206.539 134.112V126.112ZM186.871 129.545C181.707 131.813 177.325 134.882 173.81 138.788L179.756 144.14C182.432 141.166 185.848 138.731 190.087 136.871L186.871 129.545ZM173.793 138.807C166.578 146.923 163.151 157.522 163.151 170.188H171.151C171.151 159.004 174.145 150.453 179.772 144.121L173.793 138.807ZM163.151 170.188C163.151 182.652 166.592 193.211 173.752 201.523L179.813 196.301C174.131 189.706 171.151 181.116 171.151 170.188H163.151ZM173.755 201.526C181.282 210.241 192.481 214.264 206.539 214.264V206.264C193.993 206.264 185.356 202.719 179.81 196.298L173.755 201.526ZM206.539 214.264C214.316 214.264 221.211 212.373 227.024 208.409L222.517 201.799C218.24 204.715 212.98 206.264 206.539 206.264V214.264ZM226.973 208.443C233.031 204.448 237.415 199.099 240.019 192.46L232.571 189.54C230.588 194.597 227.289 198.651 222.568 201.765L226.973 208.443ZM239.997 192.515L241.545 188.731L234.141 185.701L232.593 189.485L239.997 192.515ZM237.843 191.216H238.015V183.216H237.843V191.216ZM236.338 190.848L258.698 201.168L262.051 193.904L239.691 183.584L236.338 190.848ZM256.663 196.044C252.454 206.513 246.148 214.647 237.765 220.589L242.392 227.115C252.127 220.214 259.351 210.804 264.086 199.028L256.663 196.044ZM237.787 220.573C227.829 227.533 216.483 231.032 203.615 231.032V239.032C218.037 239.032 231 235.077 242.37 227.131L237.787 220.573ZM281.802 107.236V103.236H277.802V107.236H281.802ZM306.914 107.236H310.914V103.236H306.914V107.236ZM306.914 158.148H302.914V162.148H306.914V158.148ZM361.61 158.148V162.148H365.61V158.148H361.61ZM361.61 107.236V103.236H357.61V107.236H361.61ZM386.55 107.236H390.55V103.236H386.55V107.236ZM386.55 234V238H390.55V234H386.55ZM361.61 234H357.61V238H361.61V234ZM361.61 182.916H365.61V178.916H361.61V182.916ZM306.914 182.916V178.916H302.914V182.916H306.914ZM306.914 234V238H310.914V234H306.914ZM281.802 234H277.802V238H281.802V234ZM281.802 111.236H306.914V103.236H281.802V111.236ZM302.914 107.236V158.148H310.914V107.236H302.914ZM306.914 162.148H361.61V154.148H306.914V162.148ZM365.61 158.148V107.236H357.61V158.148H365.61ZM361.61 111.236H386.55V103.236H361.61V111.236ZM382.55 107.236V234H390.55V107.236H382.55ZM386.55 230H361.61V238H386.55V230ZM365.61 234V182.916H357.61V234H365.61ZM361.61 178.916H306.914V186.916H361.61V178.916ZM302.914 182.916V234H310.914V182.916H302.914ZM306.914 230H281.802V238H306.914V230ZM285.802 234V107.236H277.802V234H285.802ZM414.854 107.236V103.236H410.854V107.236H414.854ZM439.966 107.236H443.966V103.236H439.966V107.236ZM439.966 234V238H443.966V234H439.966ZM414.854 234H410.854V238H414.854V234ZM414.854 111.236H439.966V103.236H414.854V111.236ZM435.966 107.236V234H443.966V107.236H435.966ZM439.966 230H414.854V238H439.966V230ZM418.854 234V107.236H410.854V234H418.854ZM468.288 107.236V103.236H464.288V107.236H468.288ZM564.78 107.236H568.78V103.236H564.78V107.236ZM564.78 131.66V135.66H568.78V131.66H564.78ZM493.4 131.66V127.66H489.4V131.66H493.4ZM493.4 158.148H489.4V162.148H493.4V158.148ZM545.172 158.148H549.172V154.148H545.172V158.148ZM545.172 182.916V186.916H549.172V182.916H545.172ZM493.4 182.916V178.916H489.4V182.916H493.4ZM493.4 209.404H489.4V213.404H493.4V209.404ZM564.78 209.404H568.78V205.404H564.78V209.404ZM564.78 234V238H568.78V234H564.78ZM468.288 234H464.288V238H468.288V234ZM468.288 111.236H564.78V103.236H468.288V111.236ZM560.78 107.236V131.66H568.78V107.236H560.78ZM564.78 127.66H493.4V135.66H564.78V127.66ZM489.4 131.66V158.148H497.4V131.66H489.4ZM493.4 162.148H545.172V154.148H493.4V162.148ZM541.172 158.148V182.916H549.172V158.148H541.172ZM545.172 178.916H493.4V186.916H545.172V178.916ZM489.4 182.916V209.404H497.4V182.916H489.4ZM493.4 213.404H564.78V205.404H493.4V213.404ZM560.78 209.404V234H568.78V209.404H560.78ZM564.78 230H468.288V238H564.78V230ZM472.288 234V107.236H464.288V234H472.288ZM586.222 107.236V103.236H582.222V107.236H586.222ZM681.166 107.236H685.166V103.236H681.166V107.236ZM681.166 131.66V135.66H685.166V131.66H681.166ZM611.334 131.66V127.66H607.334V131.66H611.334ZM611.334 168.124H607.334V172.124H611.334V168.124ZM661.386 168.124H665.386V164.124H661.386V168.124ZM661.386 192.892V196.892H665.386V192.892H661.386ZM611.334 192.892V188.892H607.334V192.892H611.334ZM611.334 234V238H615.334V234H611.334ZM586.222 234H582.222V238H586.222V234ZM586.222 111.236H681.166V103.236H586.222V111.236ZM677.166 107.236V131.66H685.166V107.236H677.166ZM681.166 127.66H611.334V135.66H681.166V127.66ZM607.334 131.66V168.124H615.334V131.66H607.334ZM611.334 172.124H661.386V164.124H611.334V172.124ZM657.386 168.124V192.892H665.386V168.124H657.386ZM661.386 188.892H611.334V196.892H661.386V188.892ZM607.334 192.892V234H615.334V192.892H607.334ZM611.334 230H586.222V238H611.334V230ZM590.222 234V107.236H582.222V234H590.222ZM753.981 215.94L756.861 213.164L756.855 213.158L756.85 213.152L753.981 215.94ZM754.153 124.436L757.021 127.224L757.034 127.211L757.046 127.198L754.153 124.436ZM847.033 124.436L844.14 127.198L844.156 127.215L844.172 127.231L847.033 124.436ZM858.729 141.464L862.363 139.792L862.357 139.78L858.729 141.464ZM862.685 150.064V154.064H868.928L866.319 148.392L862.685 150.064ZM835.509 150.064L832.213 152.33L833.405 154.064H835.509V150.064ZM833.617 147.312L830.187 149.37L830.251 149.476L830.321 149.578L833.617 147.312ZM829.317 141.636L832.307 138.979L832.291 138.961L832.275 138.943L829.317 141.636ZM771.869 141.636L774.765 144.396L774.774 144.386L774.783 144.376L771.869 141.636ZM771.869 198.912L768.952 201.649L768.954 201.651L771.869 198.912ZM829.317 198.912L826.372 196.205L826.365 196.213L826.357 196.221L829.317 198.912ZM837.745 184.464L841.556 185.68L843.22 180.464H837.745V184.464ZM795.605 184.464H791.605V188.464H795.605V184.464ZM795.605 160.212V156.212H791.605V160.212H795.605ZM864.405 160.212L868.4 160.002L868.2 156.212H864.405V160.212ZM864.749 166.748H868.749V166.643L868.744 166.538L864.749 166.748ZM864.233 179.132L860.253 178.734L860.253 178.737L864.233 179.132ZM847.033 215.94L844.128 213.191L844.127 213.191L847.033 215.94ZM800.593 231.032C782.797 231.032 768.324 225.056 756.861 213.164L751.101 218.716C764.176 232.28 780.779 239.032 800.593 239.032V231.032ZM756.85 213.152C745.828 201.809 740.265 187.588 740.265 170.188H732.265C732.265 189.481 738.513 205.761 751.112 218.728L756.85 213.152ZM740.265 170.188C740.265 152.922 745.873 138.694 757.021 127.224L751.285 121.648C738.583 134.716 732.265 150.99 732.265 170.188H740.265ZM757.046 127.198C768.263 115.447 782.663 109.516 800.593 109.516V101.516C780.683 101.516 764.123 108.198 751.26 121.674L757.046 127.198ZM800.593 109.516C818.523 109.516 832.923 115.447 844.14 127.198L849.926 121.674C837.063 108.198 820.503 101.516 800.593 101.516V109.516ZM844.172 127.231C848.662 131.829 852.305 137.127 855.101 143.148L862.357 139.78C859.19 132.959 855.036 126.905 849.895 121.641L844.172 127.231ZM855.095 143.136L859.051 151.736L866.319 148.392L862.363 139.792L855.095 143.136ZM862.685 146.064H835.509V154.064H862.685V146.064ZM838.805 147.798L836.913 145.046L830.321 149.578L832.213 152.33L838.805 147.798ZM837.047 145.254C835.85 143.258 834.25 141.164 832.307 138.979L826.327 144.293C828.054 146.236 829.32 147.926 830.187 149.37L837.047 145.254ZM832.275 138.943C824.392 130.285 813.664 126.112 800.593 126.112V134.112C811.831 134.112 820.253 137.622 826.359 144.329L832.275 138.943ZM800.593 126.112C787.723 126.112 777.037 130.3 768.955 138.896L774.783 144.376C781.149 137.606 789.612 134.112 800.593 134.112V126.112ZM768.974 138.876C761.161 147.073 757.377 157.634 757.377 170.188H765.377C765.377 159.35 768.588 150.876 774.765 144.396L768.974 138.876ZM757.377 170.188C757.377 182.743 761.161 193.347 768.952 201.649L774.786 196.175C768.588 189.571 765.377 181.025 765.377 170.188H757.377ZM768.954 201.651C776.941 210.154 787.641 214.264 800.593 214.264V206.264C789.465 206.264 781.015 202.806 774.784 196.173L768.954 201.651ZM800.593 214.264C813.745 214.264 824.489 210.17 832.277 201.603L826.357 196.221C820.386 202.79 811.98 206.264 800.593 206.264V214.264ZM832.262 201.618C836.547 196.956 839.656 191.634 841.556 185.68L833.934 183.248C832.395 188.073 829.885 192.383 826.372 196.205L832.262 201.618ZM837.745 180.464H795.605V188.464H837.745V180.464ZM799.605 184.464V160.212H791.605V184.464H799.605ZM795.605 164.212H864.405V156.212H795.605V164.212ZM860.411 160.422L860.755 166.958L868.744 166.538L868.4 160.002L860.411 160.422ZM860.749 166.748V170.188H868.749V166.748H860.749ZM860.749 170.188C860.749 172.539 860.588 175.382 860.253 178.734L868.213 179.53C868.566 176.002 868.749 172.882 868.749 170.188H860.749ZM860.253 178.737C858.969 191.681 853.644 203.134 844.128 213.191L849.939 218.689C860.604 207.418 866.745 194.333 868.214 179.527L860.253 178.737ZM844.127 213.191C832.907 225.052 818.512 231.032 800.593 231.032V239.032C820.515 239.032 837.079 232.284 849.939 218.689L844.127 213.191ZM899.863 219.552L897.003 222.349L897.003 222.349L899.863 219.552ZM884.555 107.236V103.236H880.555V107.236H884.555ZM909.667 107.236H913.667V103.236H909.667V107.236ZM918.783 203.384L921.578 200.522L921.567 200.512L921.556 200.502L918.783 203.384ZM960.063 203.384L962.792 206.308L962.8 206.301L962.808 206.294L960.063 203.384ZM969.179 107.236V103.236H965.179V107.236H969.179ZM994.119 107.236H998.119V103.236H994.119V107.236ZM978.811 219.552L981.686 222.333L978.811 219.552ZM939.251 231.376C924.293 231.376 912.225 226.469 902.722 216.755L897.003 222.349C908.14 233.733 922.331 239.376 939.251 239.376V231.376ZM902.722 216.755C893.362 207.184 888.555 194.601 888.555 178.616H880.555C880.555 196.343 885.953 211.05 897.003 222.349L902.722 216.755ZM888.555 178.616V107.236H880.555V178.616H888.555ZM884.555 111.236H909.667V103.236H884.555V111.236ZM905.667 107.236V178.96H913.667V107.236H905.667ZM905.667 178.96C905.667 190.207 908.97 199.493 916.009 206.266L921.556 200.502C916.441 195.579 913.667 188.582 913.667 178.96H905.667ZM915.988 206.246C921.85 211.971 929.781 214.608 939.251 214.608V206.608C931.291 206.608 925.577 204.429 921.578 200.522L915.988 206.246ZM939.251 214.608C948.729 214.608 956.727 211.969 962.792 206.308L957.333 200.46C953.078 204.431 947.202 206.608 939.251 206.608V214.608ZM962.808 206.294C969.885 199.617 973.179 190.303 973.179 178.96H965.179C965.179 188.715 962.395 195.685 957.318 200.474L962.808 206.294ZM973.179 178.96V107.236H965.179V178.96H973.179ZM969.179 111.236H994.119V103.236H969.179V111.236ZM990.119 107.236V178.616H998.119V107.236H990.119ZM990.119 178.616C990.119 194.477 985.317 207.074 975.936 216.771L981.686 222.333C992.715 210.932 998.119 196.237 998.119 178.616H990.119ZM975.936 216.771C966.564 226.458 954.456 231.376 939.251 231.376V239.376C956.381 239.376 970.646 233.745 981.686 222.333L975.936 216.771ZM1020.84 107.236V103.236H1016.84V107.236H1020.84ZM1117.33 107.236H1121.33V103.236H1117.33V107.236ZM1117.33 131.66V135.66H1121.33V131.66H1117.33ZM1045.95 131.66V127.66H1041.95V131.66H1045.95ZM1045.95 158.148H1041.95V162.148H1045.95V158.148ZM1097.72 158.148H1101.72V154.148H1097.72V158.148ZM1097.72 182.916V186.916H1101.72V182.916H1097.72ZM1045.95 182.916V178.916H1041.95V182.916H1045.95ZM1045.95 209.404H1041.95V213.404H1045.95V209.404ZM1117.33 209.404H1121.33V205.404H1117.33V209.404ZM1117.33 234V238H1121.33V234H1117.33ZM1020.84 234H1016.84V238H1020.84V234ZM1020.84 111.236H1117.33V103.236H1020.84V111.236ZM1113.33 107.236V131.66H1121.33V107.236H1113.33ZM1117.33 127.66H1045.95V135.66H1117.33V127.66ZM1041.95 131.66V158.148H1049.95V131.66H1041.95ZM1045.95 162.148H1097.72V154.148H1045.95V162.148ZM1093.72 158.148V182.916H1101.72V158.148H1093.72ZM1097.72 178.916H1045.95V186.916H1097.72V178.916ZM1041.95 182.916V209.404H1049.95V182.916H1041.95ZM1045.95 213.404H1117.33V205.404H1045.95V213.404ZM1113.33 209.404V234H1121.33V209.404H1113.33ZM1117.33 230H1020.84V238H1117.33V230ZM1024.84 234V107.236H1016.84V234H1024.84ZM1149.26 223.164L1146.77 226.287L1146.77 226.295L1149.26 223.164ZM1134.3 193.408L1130.32 193.816L1130.32 193.823L1130.32 193.83L1134.3 193.408ZM1133.61 186.7V182.7H1129.18L1129.63 187.108L1133.61 186.7ZM1159.41 186.7L1163.4 186.458L1163.18 182.7H1159.41V186.7ZM1159.76 192.376L1163.75 192.136L1163.75 192.134L1159.76 192.376ZM1168.18 205.62L1166.16 209.07L1166.17 209.077L1166.18 209.083L1168.18 205.62ZM1207.57 207.684L1209.13 211.366L1209.16 211.355L1209.19 211.344L1207.57 207.684ZM1214.8 202.18L1218.42 203.883L1218.42 203.883L1214.8 202.18ZM1213.08 189.968L1215.37 186.691L1215.36 186.683L1215.35 186.675L1213.08 189.968ZM1200.18 184.12L1198.99 187.94L1199 187.944L1199.01 187.947L1200.18 184.12ZM1181.6 179.476L1182.49 175.576L1182.47 175.571L1182.44 175.566L1181.6 179.476ZM1161.82 173.284L1163.28 169.558L1163.27 169.557L1161.82 173.284ZM1145.31 162.62L1148.21 159.867L1148.16 159.812L1148.1 159.759L1145.31 162.62ZM1150.64 115.148L1148.13 112.037L1148.12 112.045L1150.64 115.148ZM1224.6 116.352L1222.04 119.422L1222.05 119.437L1222.07 119.451L1224.6 116.352ZM1238.36 143.356L1234.36 143.524L1234.36 143.548L1234.37 143.572L1238.36 143.356ZM1238.7 149.72V153.72H1242.93L1242.7 149.504L1238.7 149.72ZM1213.59 149.72L1209.62 150.232L1210.07 153.72H1213.59V149.72ZM1212.9 144.388L1208.93 144.865L1208.93 144.882L1208.94 144.9L1212.9 144.388ZM1209.46 136.476L1212.57 133.959L1212.57 133.959L1209.46 136.476ZM1198.97 130.628L1197.82 134.459L1197.83 134.462L1197.84 134.464L1198.97 130.628ZM1173 130.8L1174.26 134.595L1174.28 134.588L1174.3 134.581L1173 130.8ZM1165.78 134.412L1163.28 131.289L1163.17 131.373L1163.07 131.463L1165.78 134.412ZM1163.2 138.196L1166.99 139.461L1167.03 139.356L1167.06 139.248L1163.2 138.196ZM1163.88 146.452L1161.06 149.28L1161.06 149.28L1163.88 146.452ZM1170.94 150.752L1169.43 154.456L1169.46 154.471L1169.5 154.485L1170.94 150.752ZM1182.8 154.536L1181.73 158.389L1181.79 158.407L1181.86 158.423L1182.8 154.536ZM1189.17 156.084L1188.22 159.971L1188.24 159.975L1188.26 159.979L1189.17 156.084ZM1197.25 157.976L1198.3 154.117L1198.23 154.098L1198.16 154.081L1197.25 157.976ZM1201.04 159.008L1202.09 155.151L1202.09 155.149L1201.04 159.008ZM1212.22 162.276L1210.87 166.043L1210.92 166.062L1210.98 166.08L1212.22 162.276ZM1226.15 168.984L1224.01 172.362L1224.01 172.367L1224.02 172.372L1226.15 168.984ZM1237.33 180.336L1233.84 182.301L1233.86 182.335L1233.88 182.368L1237.33 180.336ZM1226.66 224.884L1224.38 221.598L1224.38 221.603L1224.37 221.607L1226.66 224.884ZM1189.86 230.516C1172.83 230.516 1160.31 226.836 1151.75 220.033L1146.77 226.295C1157.25 234.628 1171.8 238.516 1189.86 238.516V230.516ZM1151.76 220.041C1144.15 213.948 1139.56 205.091 1138.28 192.986L1130.32 193.83C1131.79 207.64 1137.18 218.62 1146.77 226.287L1151.76 220.041ZM1138.28 193L1137.59 186.292L1129.63 187.108L1130.32 193.816L1138.28 193ZM1133.61 190.7H1159.41V182.7H1133.61V190.7ZM1155.42 186.942L1155.76 192.618L1163.75 192.134L1163.4 186.458L1155.42 186.942ZM1155.76 192.616C1156.19 199.78 1159.82 205.351 1166.16 209.07L1170.21 202.17C1166 199.697 1164.01 196.439 1163.75 192.136L1155.76 192.616ZM1166.18 209.083C1172.21 212.563 1180.29 214.092 1190.03 214.092V206.092C1180.96 206.092 1174.48 204.639 1170.19 202.157L1166.18 209.083ZM1190.03 214.092C1198.07 214.092 1204.59 213.296 1209.13 211.366L1206.01 204.002C1202.99 205.283 1197.81 206.092 1190.03 206.092V214.092ZM1209.19 211.344C1213.23 209.56 1216.84 207.23 1218.42 203.883L1211.18 200.477C1210.92 201.029 1209.71 202.368 1205.96 204.024L1209.19 211.344ZM1218.42 203.883C1219.59 201.395 1220.17 198.749 1220.17 195.988H1212.17C1212.17 197.585 1211.84 199.066 1211.18 200.477L1218.42 203.883ZM1220.17 195.988C1220.17 194.193 1219.88 192.388 1219.06 190.759L1211.91 194.337C1212.01 194.542 1212.17 195.031 1212.17 195.988H1220.17ZM1219.06 190.759C1218.22 189.069 1216.87 187.743 1215.37 186.691L1210.78 193.245C1211.57 193.799 1211.83 194.192 1211.91 194.337L1219.06 190.759ZM1215.35 186.675C1211.58 184.08 1206.88 181.978 1201.34 180.293L1199.01 187.947C1204.03 189.473 1207.92 191.269 1210.81 193.261L1215.35 186.675ZM1201.36 180.3C1197.87 179.216 1191.54 177.637 1182.49 175.576L1180.71 183.376C1189.78 185.443 1195.83 186.96 1198.99 187.94L1201.36 180.3ZM1182.44 175.566C1176.86 174.361 1170.47 172.37 1163.28 169.558L1160.36 177.01C1167.84 179.931 1174.65 182.068 1180.76 183.386L1182.44 175.566ZM1163.27 169.557C1156.96 167.096 1151.98 163.842 1148.21 159.867L1142.41 165.373C1147.12 170.342 1153.15 174.197 1160.37 177.011L1163.27 169.557ZM1148.1 159.759C1143.97 155.72 1141.74 150.178 1141.74 142.668H1133.74C1133.74 151.899 1136.55 159.658 1142.51 165.481L1148.1 159.759ZM1141.74 142.668C1141.74 132.486 1145.52 124.465 1153.16 118.251L1148.12 112.045C1138.56 119.82 1133.74 130.146 1133.74 142.668H1141.74ZM1153.15 118.259C1160.55 112.285 1171.61 109 1186.93 109V101C1170.61 101 1157.48 104.48 1148.13 112.037L1153.15 118.259ZM1186.93 109C1202.39 109 1213.92 112.64 1222.04 119.422L1227.16 113.282C1217.16 104.928 1203.59 101 1186.93 101V109ZM1222.07 119.451C1229.93 125.864 1233.95 133.813 1234.36 143.524L1242.36 143.188C1241.85 131.112 1236.7 121.058 1227.13 113.253L1222.07 119.451ZM1234.37 143.572L1234.71 149.936L1242.7 149.504L1242.35 143.14L1234.37 143.572ZM1238.7 145.72H1213.59V153.72H1238.7V145.72ZM1217.56 149.208L1216.87 143.876L1208.94 144.9L1209.62 150.232L1217.56 149.208ZM1216.88 143.911C1216.44 140.242 1214.96 136.908 1212.57 133.959L1206.35 138.993C1207.87 140.86 1208.68 142.801 1208.93 144.865L1216.88 143.911ZM1212.57 133.959C1209.87 130.618 1205.44 128.369 1200.11 126.792L1197.84 134.464C1202.59 135.869 1205.16 137.518 1206.35 138.993L1212.57 133.959ZM1200.12 126.797C1196.18 125.614 1191.4 125.08 1185.9 125.08V133.08C1190.95 133.08 1194.89 133.578 1197.82 134.459L1200.12 126.797ZM1185.9 125.08C1180.38 125.08 1175.59 125.674 1171.7 127.019L1174.3 134.581C1177.06 133.633 1180.87 133.08 1185.9 133.08V125.08ZM1171.74 127.005C1168.39 128.121 1165.5 129.512 1163.28 131.289L1168.27 137.535C1169.49 136.56 1171.42 135.543 1174.26 134.595L1171.74 127.005ZM1163.07 131.463C1161.37 133.027 1159.95 134.905 1159.34 137.144L1167.06 139.248C1167.13 138.964 1167.43 138.319 1168.48 137.361L1163.07 131.463ZM1159.4 136.931C1158.68 139.089 1158.34 141.353 1158.34 143.7H1166.34C1166.34 142.148 1166.56 140.743 1166.99 139.461L1159.4 136.931ZM1158.34 143.7C1158.34 146.153 1159.83 148.056 1161.06 149.28L1166.71 143.624C1166.54 143.455 1166.42 143.318 1166.34 143.212C1166.25 143.105 1166.22 143.044 1166.21 143.029C1166.19 142.988 1166.34 143.233 1166.34 143.7H1158.34ZM1161.06 149.28C1163.17 151.397 1166.05 153.081 1169.43 154.456L1172.45 147.048C1169.63 145.901 1167.81 144.718 1166.71 143.624L1161.06 149.28ZM1169.5 154.485C1172.65 155.696 1176.74 156.996 1181.73 158.389L1183.88 150.683C1179.01 149.324 1175.19 148.101 1172.37 147.019L1169.5 154.485ZM1181.86 158.423L1188.22 159.971L1190.11 152.197L1183.75 150.649L1181.86 158.423ZM1188.26 159.979L1196.34 161.871L1198.16 154.081L1190.08 152.189L1188.26 159.979ZM1196.2 161.835L1199.98 162.867L1202.09 155.149L1198.3 154.117L1196.2 161.835ZM1199.98 162.865C1205.87 164.482 1209.44 165.531 1210.87 166.043L1213.56 158.509C1211.79 157.875 1207.9 156.744 1202.09 155.151L1199.98 162.865ZM1210.98 166.08C1215.2 167.453 1219.54 169.533 1224.01 172.362L1228.29 165.606C1223.35 162.472 1218.4 160.081 1213.45 158.472L1210.98 166.08ZM1224.02 172.372C1228.46 175.162 1231.69 178.483 1233.84 182.301L1240.81 178.371C1237.92 173.245 1233.69 168.998 1228.28 165.596L1224.02 172.372ZM1233.88 182.368C1236.13 186.187 1237.28 190.466 1237.28 195.3H1245.28C1245.28 189.126 1243.8 183.429 1240.77 178.304L1233.88 182.368ZM1237.28 195.3C1237.28 207.088 1232.94 215.657 1224.38 221.598L1228.94 228.17C1239.88 220.58 1245.28 209.427 1245.28 195.3H1237.28ZM1224.37 221.607C1216.08 227.412 1204.7 230.516 1189.86 230.516V238.516C1205.74 238.516 1218.9 235.199 1228.96 228.161L1224.37 221.607ZM1292.47 131.66H1296.47V127.66H1292.47V131.66ZM1252.39 131.66H1248.39V135.66H1252.39V131.66ZM1252.39 107.236V103.236H1248.39V107.236H1252.39ZM1357.48 107.236H1361.48V103.236H1357.48V107.236ZM1357.48 131.66V135.66H1361.48V131.66H1357.48ZM1317.41 131.66V127.66H1313.41V131.66H1317.41ZM1317.41 234V238H1321.41V234H1317.41ZM1292.47 234H1288.47V238H1292.47V234ZM1292.47 127.66H1252.39V135.66H1292.47V127.66ZM1256.39 131.66V107.236H1248.39V131.66H1256.39ZM1252.39 111.236H1357.48V103.236H1252.39V111.236ZM1353.48 107.236V131.66H1361.48V107.236H1353.48ZM1357.48 127.66H1317.41V135.66H1357.48V127.66ZM1313.41 131.66V234H1321.41V131.66H1313.41ZM1317.41 230H1292.47V238H1317.41V230ZM1296.47 234V131.66H1288.47V234H1296.47ZM1384.29 223.164L1381.79 226.287L1381.8 226.295L1384.29 223.164ZM1369.33 193.408L1365.35 193.816L1365.35 193.823L1365.35 193.83L1369.33 193.408ZM1368.64 186.7V182.7H1364.21L1364.66 187.108L1368.64 186.7ZM1394.44 186.7L1398.43 186.458L1398.21 182.7H1394.44V186.7ZM1394.78 192.376L1398.78 192.136L1398.78 192.134L1394.78 192.376ZM1403.21 205.62L1401.19 209.07L1401.2 209.077L1401.21 209.083L1403.21 205.62ZM1442.6 207.684L1444.16 211.366L1444.19 211.355L1444.22 211.344L1442.6 207.684ZM1449.82 202.18L1453.44 203.883L1453.44 203.883L1449.82 202.18ZM1448.1 189.968L1450.4 186.691L1450.39 186.683L1450.38 186.675L1448.1 189.968ZM1435.2 184.12L1434.02 187.94L1434.03 187.944L1434.04 187.947L1435.2 184.12ZM1416.63 179.476L1417.52 175.576L1417.49 175.571L1417.47 175.566L1416.63 179.476ZM1396.85 173.284L1398.3 169.558L1398.3 169.557L1396.85 173.284ZM1380.34 162.62L1383.24 159.867L1383.19 159.812L1383.13 159.759L1380.34 162.62ZM1385.67 115.148L1383.15 112.037L1383.14 112.045L1385.67 115.148ZM1459.63 116.352L1457.06 119.422L1457.08 119.437L1457.1 119.451L1459.63 116.352ZM1473.39 143.356L1469.39 143.524L1469.39 143.548L1469.39 143.572L1473.39 143.356ZM1473.73 149.72V153.72H1477.95L1477.73 149.504L1473.73 149.72ZM1448.62 149.72L1444.65 150.232L1445.1 153.72H1448.62V149.72ZM1447.93 144.388L1443.96 144.865L1443.96 144.882L1443.97 144.9L1447.93 144.388ZM1444.49 136.476L1447.6 133.959L1447.6 133.959L1444.49 136.476ZM1434 130.628L1432.85 134.459L1432.86 134.462L1432.87 134.464L1434 130.628ZM1408.03 130.8L1409.29 134.595L1409.31 134.588L1409.33 134.581L1408.03 130.8ZM1400.8 134.412L1398.31 131.289L1398.2 131.373L1398.1 131.463L1400.8 134.412ZM1398.22 138.196L1402.02 139.461L1402.05 139.356L1402.08 139.248L1398.22 138.196ZM1398.91 146.452L1396.08 149.28L1396.08 149.28L1398.91 146.452ZM1405.96 150.752L1404.46 154.456L1404.49 154.471L1404.53 154.485L1405.96 150.752ZM1417.83 154.536L1416.76 158.389L1416.82 158.407L1416.89 158.423L1417.83 154.536ZM1424.2 156.084L1423.25 159.971L1423.27 159.975L1423.28 159.979L1424.2 156.084ZM1432.28 157.976L1433.33 154.117L1433.26 154.098L1433.19 154.081L1432.28 157.976ZM1436.06 159.008L1437.12 155.151L1437.12 155.149L1436.06 159.008ZM1447.24 162.276L1445.9 166.043L1445.95 166.062L1446.01 166.08L1447.24 162.276ZM1461.18 168.984L1459.03 172.362L1459.04 172.367L1459.05 172.372L1461.18 168.984ZM1472.36 180.336L1468.87 182.301L1468.89 182.335L1468.91 182.368L1472.36 180.336ZM1461.69 224.884L1459.41 221.598L1459.41 221.603L1459.4 221.607L1461.69 224.884ZM1424.88 230.516C1407.86 230.516 1395.34 226.836 1386.78 220.033L1381.8 226.295C1392.28 234.628 1406.83 238.516 1424.88 238.516V230.516ZM1386.79 220.041C1379.18 213.948 1374.59 205.091 1373.31 192.986L1365.35 193.83C1366.82 207.64 1372.21 218.62 1381.79 226.287L1386.79 220.041ZM1373.31 193L1372.62 186.292L1364.66 187.108L1365.35 193.816L1373.31 193ZM1368.64 190.7H1394.44V182.7H1368.64V190.7ZM1390.45 186.942L1390.79 192.618L1398.78 192.134L1398.43 186.458L1390.45 186.942ZM1390.79 192.616C1391.22 199.78 1394.85 205.351 1401.19 209.07L1405.24 202.17C1401.02 199.697 1399.04 196.439 1398.78 192.136L1390.79 192.616ZM1401.21 209.083C1407.23 212.563 1415.32 214.092 1425.06 214.092V206.092C1415.99 206.092 1409.51 204.639 1405.21 202.157L1401.21 209.083ZM1425.06 214.092C1433.1 214.092 1439.61 213.296 1444.16 211.366L1441.04 204.002C1438.02 205.283 1432.84 206.092 1425.06 206.092V214.092ZM1444.22 211.344C1448.26 209.56 1451.87 207.23 1453.44 203.883L1446.21 200.477C1445.95 201.029 1444.74 202.368 1440.99 204.024L1444.22 211.344ZM1453.44 203.883C1454.61 201.395 1455.2 198.749 1455.2 195.988H1447.2C1447.2 197.585 1446.87 199.066 1446.21 200.477L1453.44 203.883ZM1455.2 195.988C1455.2 194.193 1454.9 192.388 1454.09 190.759L1446.93 194.337C1447.04 194.542 1447.2 195.031 1447.2 195.988H1455.2ZM1454.09 190.759C1453.25 189.069 1451.9 187.743 1450.4 186.691L1445.81 193.245C1446.6 193.799 1446.86 194.192 1446.93 194.337L1454.09 190.759ZM1450.38 186.675C1446.61 184.08 1441.9 181.978 1436.37 180.293L1434.04 187.947C1439.05 189.473 1442.95 191.269 1445.83 193.261L1450.38 186.675ZM1436.39 180.3C1432.9 179.216 1426.56 177.637 1417.52 175.576L1415.74 183.376C1424.81 185.443 1430.86 186.96 1434.02 187.94L1436.39 180.3ZM1417.47 175.566C1411.89 174.361 1405.5 172.37 1398.3 169.558L1395.39 177.01C1402.87 179.931 1409.68 182.068 1415.79 183.386L1417.47 175.566ZM1398.3 169.557C1391.99 167.096 1387.01 163.842 1383.24 159.867L1377.43 165.373C1382.15 170.342 1388.18 174.197 1395.4 177.011L1398.3 169.557ZM1383.13 159.759C1379 155.72 1376.77 150.178 1376.77 142.668H1368.77C1368.77 151.899 1371.58 159.658 1377.54 165.481L1383.13 159.759ZM1376.77 142.668C1376.77 132.486 1380.55 124.465 1388.19 118.251L1383.14 112.045C1373.58 119.82 1368.77 130.146 1368.77 142.668H1376.77ZM1388.18 118.259C1395.57 112.285 1406.64 109 1421.96 109V101C1405.64 101 1392.5 104.48 1383.15 112.037L1388.18 118.259ZM1421.96 109C1437.41 109 1448.95 112.64 1457.06 119.422L1462.19 113.282C1452.19 104.928 1438.61 101 1421.96 101V109ZM1457.1 119.451C1464.96 125.864 1468.98 133.813 1469.39 143.524L1477.38 143.188C1476.88 131.112 1471.73 121.058 1462.16 113.253L1457.1 119.451ZM1469.39 143.572L1469.74 149.936L1477.73 149.504L1477.38 143.14L1469.39 143.572ZM1473.73 145.72H1448.62V153.72H1473.73V145.72ZM1452.59 149.208L1451.9 143.876L1443.97 144.9L1444.65 150.232L1452.59 149.208ZM1451.9 143.911C1451.46 140.242 1449.99 136.908 1447.6 133.959L1441.38 138.993C1442.9 140.86 1443.71 142.801 1443.96 144.865L1451.9 143.911ZM1447.6 133.959C1444.9 130.618 1440.47 128.369 1435.13 126.792L1432.87 134.464C1437.62 135.869 1440.19 137.518 1441.38 138.993L1447.6 133.959ZM1435.15 126.797C1431.21 125.614 1426.43 125.08 1420.93 125.08V133.08C1425.98 133.08 1429.91 133.578 1432.85 134.459L1435.15 126.797ZM1420.93 125.08C1415.41 125.08 1410.62 125.674 1406.72 127.019L1409.33 134.581C1412.08 133.633 1415.9 133.08 1420.93 133.08V125.08ZM1406.76 127.005C1403.41 128.121 1400.53 129.512 1398.31 131.289L1403.3 137.535C1404.52 136.56 1406.45 135.543 1409.29 134.595L1406.76 127.005ZM1398.1 131.463C1396.4 133.027 1394.98 134.905 1394.37 137.144L1402.08 139.248C1402.16 138.964 1402.46 138.319 1403.51 137.361L1398.1 131.463ZM1394.43 136.931C1393.71 139.089 1393.36 141.353 1393.36 143.7H1401.36C1401.36 142.148 1401.59 140.743 1402.02 139.461L1394.43 136.931ZM1393.36 143.7C1393.36 146.153 1394.86 148.056 1396.08 149.28L1401.74 143.624C1401.57 143.455 1401.45 143.318 1401.37 143.212C1401.28 143.105 1401.25 143.044 1401.24 143.029C1401.21 142.988 1401.36 143.233 1401.36 143.7H1393.36ZM1396.08 149.28C1398.2 151.397 1401.08 153.081 1404.46 154.456L1407.47 147.048C1404.66 145.901 1402.84 144.718 1401.74 143.624L1396.08 149.28ZM1404.53 154.485C1407.68 155.696 1411.77 156.996 1416.76 158.389L1418.91 150.683C1414.04 149.324 1410.21 148.101 1407.4 147.019L1404.53 154.485ZM1416.89 158.423L1423.25 159.971L1425.14 152.197L1418.78 150.649L1416.89 158.423ZM1423.28 159.979L1431.37 161.871L1433.19 154.081L1425.11 152.189L1423.28 159.979ZM1431.23 161.835L1435.01 162.867L1437.12 155.149L1433.33 154.117L1431.23 161.835ZM1435.01 162.865C1440.9 164.482 1444.46 165.531 1445.9 166.043L1448.59 158.509C1446.81 157.875 1442.93 156.744 1437.12 155.151L1435.01 162.865ZM1446.01 166.08C1450.23 167.453 1454.57 169.533 1459.03 172.362L1463.32 165.606C1458.38 162.472 1453.43 160.081 1448.48 158.472L1446.01 166.08ZM1459.05 172.372C1463.49 175.162 1466.72 178.483 1468.87 182.301L1475.84 178.371C1472.95 173.245 1468.72 168.998 1463.3 165.596L1459.05 172.372ZM1468.91 182.368C1471.16 186.187 1472.31 190.466 1472.31 195.3H1480.31C1480.31 189.126 1478.82 183.429 1475.8 178.304L1468.91 182.368ZM1472.31 195.3C1472.31 207.088 1467.97 215.657 1459.41 221.598L1463.97 228.17C1474.91 220.58 1480.31 209.427 1480.31 195.3H1472.31ZM1459.4 221.607C1451.11 227.412 1439.73 230.516 1424.88 230.516V238.516C1440.77 238.516 1453.93 235.199 1463.99 228.161L1459.4 221.607Z" fill="url(#paint0_linear_454_3)"/>
<path d="M158.379 215.94L161.377 213.293L161.37 213.284L158.379 215.94ZM158.379 124.608L155.407 121.931L155.4 121.938L158.379 124.608ZM240.079 116.696L237.804 119.986L237.822 119.999L237.841 120.011L240.079 116.696ZM260.375 143.012L262.028 146.654L265.46 145.097L264.109 141.579L260.375 143.012ZM238.015 153.16V157.16H238.88L239.668 156.802L238.015 153.16ZM237.843 153.16L234.166 154.736L235.205 157.16H237.843V153.16ZM236.295 149.548L232.611 151.107L232.614 151.115L232.618 151.124L236.295 149.548ZM224.771 135.444L222.535 138.761L222.544 138.767L222.552 138.772L224.771 135.444ZM188.479 133.208L186.871 129.545L186.871 129.545L188.479 133.208ZM176.783 141.464L173.81 138.788L173.801 138.797L173.793 138.807L176.783 141.464ZM176.783 198.912L173.752 201.523L173.755 201.526L176.783 198.912ZM224.771 205.104L222.568 201.765L222.543 201.782L222.517 201.799L224.771 205.104ZM236.295 191L232.593 189.485L232.581 189.512L232.571 189.54L236.295 191ZM237.843 187.216V183.216H235.157L234.141 185.701L237.843 187.216ZM238.015 187.216L239.691 183.584L238.893 183.216H238.015V187.216ZM260.375 197.536L264.086 199.028L265.505 195.498L262.051 193.904L260.375 197.536ZM240.079 223.852L242.37 227.131L242.381 227.123L242.392 227.115L240.079 223.852ZM203.615 231.032C185.695 231.032 171.763 225.057 161.377 213.293L155.38 218.587C167.469 232.279 183.694 239.032 203.615 239.032V231.032ZM161.37 213.284C151.2 201.83 146.039 187.558 146.039 170.188H138.039C138.039 189.282 143.771 205.511 155.388 218.596L161.37 213.284ZM146.039 170.188C146.039 152.817 151.2 138.611 161.357 127.278L155.4 121.938C143.771 134.914 138.039 151.095 138.039 170.188H146.039ZM161.351 127.285C171.985 115.481 185.942 109.516 203.615 109.516V101.516C183.906 101.516 167.706 108.279 155.407 121.931L161.351 127.285ZM203.615 109.516C216.361 109.516 227.716 113.011 237.804 119.986L242.354 113.406C230.884 105.475 217.93 101.516 203.615 101.516V109.516ZM237.841 120.011C246.267 125.699 252.547 133.78 256.64 144.445L264.109 141.579C259.488 129.54 252.237 120.077 242.317 113.381L237.841 120.011ZM258.722 139.37L236.362 149.518L239.668 156.802L262.028 146.654L258.722 139.37ZM238.015 149.16H237.843V157.16H238.015V149.16ZM241.519 151.584L239.971 147.972L232.618 151.124L234.166 154.736L241.519 151.584ZM239.979 147.989C237.165 141.34 232.83 136.009 226.989 132.116L222.552 138.772C227.031 141.759 230.379 145.831 232.611 151.107L239.979 147.989ZM227.006 132.127C221.017 128.091 214.147 126.112 206.539 126.112V134.112C212.69 134.112 217.975 135.688 222.535 138.761L227.006 132.127ZM206.539 126.112C198.866 126.112 192.248 127.185 186.871 129.545L190.087 136.871C194.113 135.103 199.534 134.112 206.539 134.112V126.112ZM186.871 129.545C181.707 131.813 177.325 134.882 173.81 138.788L179.756 144.14C182.432 141.166 185.848 138.731 190.087 136.871L186.871 129.545ZM173.793 138.807C166.578 146.923 163.151 157.522 163.151 170.188H171.151C171.151 159.004 174.145 150.453 179.772 144.121L173.793 138.807ZM163.151 170.188C163.151 182.652 166.592 193.211 173.752 201.523L179.813 196.301C174.131 189.706 171.151 181.116 171.151 170.188H163.151ZM173.755 201.526C181.282 210.241 192.481 214.264 206.539 214.264V206.264C193.993 206.264 185.356 202.719 179.81 196.298L173.755 201.526ZM206.539 214.264C214.316 214.264 221.211 212.373 227.024 208.409L222.517 201.799C218.24 204.715 212.98 206.264 206.539 206.264V214.264ZM226.973 208.443C233.031 204.448 237.415 199.099 240.019 192.46L232.571 189.54C230.588 194.597 227.289 198.651 222.568 201.765L226.973 208.443ZM239.997 192.515L241.545 188.731L234.141 185.701L232.593 189.485L239.997 192.515ZM237.843 191.216H238.015V183.216H237.843V191.216ZM236.338 190.848L258.698 201.168L262.051 193.904L239.691 183.584L236.338 190.848ZM256.663 196.044C252.454 206.513 246.148 214.647 237.765 220.589L242.392 227.115C252.127 220.214 259.351 210.804 264.086 199.028L256.663 196.044ZM237.787 220.573C227.829 227.533 216.483 231.032 203.615 231.032V239.032C218.037 239.032 231 235.077 242.37 227.131L237.787 220.573ZM281.802 107.236V103.236H277.802V107.236H281.802ZM306.914 107.236H310.914V103.236H306.914V107.236ZM306.914 158.148H302.914V162.148H306.914V158.148ZM361.61 158.148V162.148H365.61V158.148H361.61ZM361.61 107.236V103.236H357.61V107.236H361.61ZM386.55 107.236H390.55V103.236H386.55V107.236ZM386.55 234V238H390.55V234H386.55ZM361.61 234H357.61V238H361.61V234ZM361.61 182.916H365.61V178.916H361.61V182.916ZM306.914 182.916V178.916H302.914V182.916H306.914ZM306.914 234V238H310.914V234H306.914ZM281.802 234H277.802V238H281.802V234ZM281.802 111.236H306.914V103.236H281.802V111.236ZM302.914 107.236V158.148H310.914V107.236H302.914ZM306.914 162.148H361.61V154.148H306.914V162.148ZM365.61 158.148V107.236H357.61V158.148H365.61ZM361.61 111.236H386.55V103.236H361.61V111.236ZM382.55 107.236V234H390.55V107.236H382.55ZM386.55 230H361.61V238H386.55V230ZM365.61 234V182.916H357.61V234H365.61ZM361.61 178.916H306.914V186.916H361.61V178.916ZM302.914 182.916V234H310.914V182.916H302.914ZM306.914 230H281.802V238H306.914V230ZM285.802 234V107.236H277.802V234H285.802ZM414.854 107.236V103.236H410.854V107.236H414.854ZM439.966 107.236H443.966V103.236H439.966V107.236ZM439.966 234V238H443.966V234H439.966ZM414.854 234H410.854V238H414.854V234ZM414.854 111.236H439.966V103.236H414.854V111.236ZM435.966 107.236V234H443.966V107.236H435.966ZM439.966 230H414.854V238H439.966V230ZM418.854 234V107.236H410.854V234H418.854ZM468.288 107.236V103.236H464.288V107.236H468.288ZM564.78 107.236H568.78V103.236H564.78V107.236ZM564.78 131.66V135.66H568.78V131.66H564.78ZM493.4 131.66V127.66H489.4V131.66H493.4ZM493.4 158.148H489.4V162.148H493.4V158.148ZM545.172 158.148H549.172V154.148H545.172V158.148ZM545.172 182.916V186.916H549.172V182.916H545.172ZM493.4 182.916V178.916H489.4V182.916H493.4ZM493.4 209.404H489.4V213.404H493.4V209.404ZM564.78 209.404H568.78V205.404H564.78V209.404ZM564.78 234V238H568.78V234H564.78ZM468.288 234H464.288V238H468.288V234ZM468.288 111.236H564.78V103.236H468.288V111.236ZM560.78 107.236V131.66H568.78V107.236H560.78ZM564.78 127.66H493.4V135.66H564.78V127.66ZM489.4 131.66V158.148H497.4V131.66H489.4ZM493.4 162.148H545.172V154.148H493.4V162.148ZM541.172 158.148V182.916H549.172V158.148H541.172ZM545.172 178.916H493.4V186.916H545.172V178.916ZM489.4 182.916V209.404H497.4V182.916H489.4ZM493.4 213.404H564.78V205.404H493.4V213.404ZM560.78 209.404V234H568.78V209.404H560.78ZM564.78 230H468.288V238H564.78V230ZM472.288 234V107.236H464.288V234H472.288ZM586.222 107.236V103.236H582.222V107.236H586.222ZM681.166 107.236H685.166V103.236H681.166V107.236ZM681.166 131.66V135.66H685.166V131.66H681.166ZM611.334 131.66V127.66H607.334V131.66H611.334ZM611.334 168.124H607.334V172.124H611.334V168.124ZM661.386 168.124H665.386V164.124H661.386V168.124ZM661.386 192.892V196.892H665.386V192.892H661.386ZM611.334 192.892V188.892H607.334V192.892H611.334ZM611.334 234V238H615.334V234H611.334ZM586.222 234H582.222V238H586.222V234ZM586.222 111.236H681.166V103.236H586.222V111.236ZM677.166 107.236V131.66H685.166V107.236H677.166ZM681.166 127.66H611.334V135.66H681.166V127.66ZM607.334 131.66V168.124H615.334V131.66H607.334ZM611.334 172.124H661.386V164.124H611.334V172.124ZM657.386 168.124V192.892H665.386V168.124H657.386ZM661.386 188.892H611.334V196.892H661.386V188.892ZM607.334 192.892V234H615.334V192.892H607.334ZM611.334 230H586.222V238H611.334V230ZM590.222 234V107.236H582.222V234H590.222ZM753.981 215.94L756.861 213.164L756.855 213.158L756.85 213.152L753.981 215.94ZM754.153 124.436L757.021 127.224L757.034 127.211L757.046 127.198L754.153 124.436ZM847.033 124.436L844.14 127.198L844.156 127.215L844.172 127.231L847.033 124.436ZM858.729 141.464L862.363 139.792L862.357 139.78L858.729 141.464ZM862.685 150.064V154.064H868.928L866.319 148.392L862.685 150.064ZM835.509 150.064L832.213 152.33L833.405 154.064H835.509V150.064ZM833.617 147.312L830.187 149.37L830.251 149.476L830.321 149.578L833.617 147.312ZM829.317 141.636L832.307 138.979L832.291 138.961L832.275 138.943L829.317 141.636ZM771.869 141.636L774.765 144.396L774.774 144.386L774.783 144.376L771.869 141.636ZM771.869 198.912L768.952 201.649L768.954 201.651L771.869 198.912ZM829.317 198.912L826.372 196.205L826.365 196.213L826.357 196.221L829.317 198.912ZM837.745 184.464L841.556 185.68L843.22 180.464H837.745V184.464ZM795.605 184.464H791.605V188.464H795.605V184.464ZM795.605 160.212V156.212H791.605V160.212H795.605ZM864.405 160.212L868.4 160.002L868.2 156.212H864.405V160.212ZM864.749 166.748H868.749V166.643L868.744 166.538L864.749 166.748ZM864.233 179.132L860.253 178.734L860.253 178.737L864.233 179.132ZM847.033 215.94L844.128 213.191L844.127 213.191L847.033 215.94ZM800.593 231.032C782.797 231.032 768.324 225.056 756.861 213.164L751.101 218.716C764.176 232.28 780.779 239.032 800.593 239.032V231.032ZM756.85 213.152C745.828 201.809 740.265 187.588 740.265 170.188H732.265C732.265 189.481 738.513 205.761 751.112 218.728L756.85 213.152ZM740.265 170.188C740.265 152.922 745.873 138.694 757.021 127.224L751.285 121.648C738.583 134.716 732.265 150.99 732.265 170.188H740.265ZM757.046 127.198C768.263 115.447 782.663 109.516 800.593 109.516V101.516C780.683 101.516 764.123 108.198 751.26 121.674L757.046 127.198ZM800.593 109.516C818.523 109.516 832.923 115.447 844.14 127.198L849.926 121.674C837.063 108.198 820.503 101.516 800.593 101.516V109.516ZM844.172 127.231C848.662 131.829 852.305 137.127 855.101 143.148L862.357 139.78C859.19 132.959 855.036 126.905 849.895 121.641L844.172 127.231ZM855.095 143.136L859.051 151.736L866.319 148.392L862.363 139.792L855.095 143.136ZM862.685 146.064H835.509V154.064H862.685V146.064ZM838.805 147.798L836.913 145.046L830.321 149.578L832.213 152.33L838.805 147.798ZM837.047 145.254C835.85 143.258 834.25 141.164 832.307 138.979L826.327 144.293C828.054 146.236 829.32 147.926 830.187 149.37L837.047 145.254ZM832.275 138.943C824.392 130.285 813.664 126.112 800.593 126.112V134.112C811.831 134.112 820.253 137.622 826.359 144.329L832.275 138.943ZM800.593 126.112C787.723 126.112 777.037 130.3 768.955 138.896L774.783 144.376C781.149 137.606 789.612 134.112 800.593 134.112V126.112ZM768.974 138.876C761.161 147.073 757.377 157.634 757.377 170.188H765.377C765.377 159.35 768.588 150.876 774.765 144.396L768.974 138.876ZM757.377 170.188C757.377 182.743 761.161 193.347 768.952 201.649L774.786 196.175C768.588 189.571 765.377 181.025 765.377 170.188H757.377ZM768.954 201.651C776.941 210.154 787.641 214.264 800.593 214.264V206.264C789.465 206.264 781.015 202.806 774.784 196.173L768.954 201.651ZM800.593 214.264C813.745 214.264 824.489 210.17 832.277 201.603L826.357 196.221C820.386 202.79 811.98 206.264 800.593 206.264V214.264ZM832.262 201.618C836.547 196.956 839.656 191.634 841.556 185.68L833.934 183.248C832.395 188.073 829.885 192.383 826.372 196.205L832.262 201.618ZM837.745 180.464H795.605V188.464H837.745V180.464ZM799.605 184.464V160.212H791.605V184.464H799.605ZM795.605 164.212H864.405V156.212H795.605V164.212ZM860.411 160.422L860.755 166.958L868.744 166.538L868.4 160.002L860.411 160.422ZM860.749 166.748V170.188H868.749V166.748H860.749ZM860.749 170.188C860.749 172.539 860.588 175.382 860.253 178.734L868.213 179.53C868.566 176.002 868.749 172.882 868.749 170.188H860.749ZM860.253 178.737C858.969 191.681 853.644 203.134 844.128 213.191L849.939 218.689C860.604 207.418 866.745 194.333 868.214 179.527L860.253 178.737ZM844.127 213.191C832.907 225.052 818.512 231.032 800.593 231.032V239.032C820.515 239.032 837.079 232.284 849.939 218.689L844.127 213.191ZM899.863 219.552L897.003 222.349L897.003 222.349L899.863 219.552ZM884.555 107.236V103.236H880.555V107.236H884.555ZM909.667 107.236H913.667V103.236H909.667V107.236ZM918.783 203.384L921.578 200.522L921.567 200.512L921.556 200.502L918.783 203.384ZM960.063 203.384L962.792 206.308L962.8 206.301L962.808 206.294L960.063 203.384ZM969.179 107.236V103.236H965.179V107.236H969.179ZM994.119 107.236H998.119V103.236H994.119V107.236ZM978.811 219.552L981.686 222.333L978.811 219.552ZM939.251 231.376C924.293 231.376 912.225 226.469 902.722 216.755L897.003 222.349C908.14 233.733 922.331 239.376 939.251 239.376V231.376ZM902.722 216.755C893.362 207.184 888.555 194.601 888.555 178.616H880.555C880.555 196.343 885.953 211.05 897.003 222.349L902.722 216.755ZM888.555 178.616V107.236H880.555V178.616H888.555ZM884.555 111.236H909.667V103.236H884.555V111.236ZM905.667 107.236V178.96H913.667V107.236H905.667ZM905.667 178.96C905.667 190.207 908.97 199.493 916.009 206.266L921.556 200.502C916.441 195.579 913.667 188.582 913.667 178.96H905.667ZM915.988 206.246C921.85 211.971 929.781 214.608 939.251 214.608V206.608C931.291 206.608 925.577 204.429 921.578 200.522L915.988 206.246ZM939.251 214.608C948.729 214.608 956.727 211.969 962.792 206.308L957.333 200.46C953.078 204.431 947.202 206.608 939.251 206.608V214.608ZM962.808 206.294C969.885 199.617 973.179 190.303 973.179 178.96H965.179C965.179 188.715 962.395 195.685 957.318 200.474L962.808 206.294ZM973.179 178.96V107.236H965.179V178.96H973.179ZM969.179 111.236H994.119V103.236H969.179V111.236ZM990.119 107.236V178.616H998.119V107.236H990.119ZM990.119 178.616C990.119 194.477 985.317 207.074 975.936 216.771L981.686 222.333C992.715 210.932 998.119 196.237 998.119 178.616H990.119ZM975.936 216.771C966.564 226.458 954.456 231.376 939.251 231.376V239.376C956.381 239.376 970.646 233.745 981.686 222.333L975.936 216.771ZM1020.84 107.236V103.236H1016.84V107.236H1020.84ZM1117.33 107.236H1121.33V103.236H1117.33V107.236ZM1117.33 131.66V135.66H1121.33V131.66H1117.33ZM1045.95 131.66V127.66H1041.95V131.66H1045.95ZM1045.95 158.148H1041.95V162.148H1045.95V158.148ZM1097.72 158.148H1101.72V154.148H1097.72V158.148ZM1097.72 182.916V186.916H1101.72V182.916H1097.72ZM1045.95 182.916V178.916H1041.95V182.916H1045.95ZM1045.95 209.404H1041.95V213.404H1045.95V209.404ZM1117.33 209.404H1121.33V205.404H1117.33V209.404ZM1117.33 234V238H1121.33V234H1117.33ZM1020.84 234H1016.84V238H1020.84V234ZM1020.84 111.236H1117.33V103.236H1020.84V111.236ZM1113.33 107.236V131.66H1121.33V107.236H1113.33ZM1117.33 127.66H1045.95V135.66H1117.33V127.66ZM1041.95 131.66V158.148H1049.95V131.66H1041.95ZM1045.95 162.148H1097.72V154.148H1045.95V162.148ZM1093.72 158.148V182.916H1101.72V158.148H1093.72ZM1097.72 178.916H1045.95V186.916H1097.72V178.916ZM1041.95 182.916V209.404H1049.95V182.916H1041.95ZM1045.95 213.404H1117.33V205.404H1045.95V213.404ZM1113.33 209.404V234H1121.33V209.404H1113.33ZM1117.33 230H1020.84V238H1117.33V230ZM1024.84 234V107.236H1016.84V234H1024.84ZM1149.26 223.164L1146.77 226.287L1146.77 226.295L1149.26 223.164ZM1134.3 193.408L1130.32 193.816L1130.32 193.823L1130.32 193.83L1134.3 193.408ZM1133.61 186.7V182.7H1129.18L1129.63 187.108L1133.61 186.7ZM1159.41 186.7L1163.4 186.458L1163.18 182.7H1159.41V186.7ZM1159.76 192.376L1163.75 192.136L1163.75 192.134L1159.76 192.376ZM1168.18 205.62L1166.16 209.07L1166.17 209.077L1166.18 209.083L1168.18 205.62ZM1207.57 207.684L1209.13 211.366L1209.16 211.355L1209.19 211.344L1207.57 207.684ZM1214.8 202.18L1218.42 203.883L1218.42 203.883L1214.8 202.18ZM1213.08 189.968L1215.37 186.691L1215.36 186.683L1215.35 186.675L1213.08 189.968ZM1200.18 184.12L1198.99 187.94L1199 187.944L1199.01 187.947L1200.18 184.12ZM1181.6 179.476L1182.49 175.576L1182.47 175.571L1182.44 175.566L1181.6 179.476ZM1161.82 173.284L1163.28 169.558L1163.27 169.557L1161.82 173.284ZM1145.31 162.62L1148.21 159.867L1148.16 159.812L1148.1 159.759L1145.31 162.62ZM1150.64 115.148L1148.13 112.037L1148.12 112.045L1150.64 115.148ZM1224.6 116.352L1222.04 119.422L1222.05 119.437L1222.07 119.451L1224.6 116.352ZM1238.36 143.356L1234.36 143.524L1234.36 143.548L1234.37 143.572L1238.36 143.356ZM1238.7 149.72V153.72H1242.93L1242.7 149.504L1238.7 149.72ZM1213.59 149.72L1209.62 150.232L1210.07 153.72H1213.59V149.72ZM1212.9 144.388L1208.93 144.865L1208.93 144.882L1208.94 144.9L1212.9 144.388ZM1209.46 136.476L1212.57 133.959L1212.57 133.959L1209.46 136.476ZM1198.97 130.628L1197.82 134.459L1197.83 134.462L1197.84 134.464L1198.97 130.628ZM1173 130.8L1174.26 134.595L1174.28 134.588L1174.3 134.581L1173 130.8ZM1165.78 134.412L1163.28 131.289L1163.17 131.373L1163.07 131.463L1165.78 134.412ZM1163.2 138.196L1166.99 139.461L1167.03 139.356L1167.06 139.248L1163.2 138.196ZM1163.88 146.452L1161.06 149.28L1161.06 149.28L1163.88 146.452ZM1170.94 150.752L1169.43 154.456L1169.46 154.471L1169.5 154.485L1170.94 150.752ZM1182.8 154.536L1181.73 158.389L1181.79 158.407L1181.86 158.423L1182.8 154.536ZM1189.17 156.084L1188.22 159.971L1188.24 159.975L1188.26 159.979L1189.17 156.084ZM1197.25 157.976L1198.3 154.117L1198.23 154.098L1198.16 154.081L1197.25 157.976ZM1201.04 159.008L1202.09 155.151L1202.09 155.149L1201.04 159.008ZM1212.22 162.276L1210.87 166.043L1210.92 166.062L1210.98 166.08L1212.22 162.276ZM1226.15 168.984L1224.01 172.362L1224.01 172.367L1224.02 172.372L1226.15 168.984ZM1237.33 180.336L1233.84 182.301L1233.86 182.335L1233.88 182.368L1237.33 180.336ZM1226.66 224.884L1224.38 221.598L1224.38 221.603L1224.37 221.607L1226.66 224.884ZM1189.86 230.516C1172.83 230.516 1160.31 226.836 1151.75 220.033L1146.77 226.295C1157.25 234.628 1171.8 238.516 1189.86 238.516V230.516ZM1151.76 220.041C1144.15 213.948 1139.56 205.091 1138.28 192.986L1130.32 193.83C1131.79 207.64 1137.18 218.62 1146.77 226.287L1151.76 220.041ZM1138.28 193L1137.59 186.292L1129.63 187.108L1130.32 193.816L1138.28 193ZM1133.61 190.7H1159.41V182.7H1133.61V190.7ZM1155.42 186.942L1155.76 192.618L1163.75 192.134L1163.4 186.458L1155.42 186.942ZM1155.76 192.616C1156.19 199.78 1159.82 205.351 1166.16 209.07L1170.21 202.17C1166 199.697 1164.01 196.439 1163.75 192.136L1155.76 192.616ZM1166.18 209.083C1172.21 212.563 1180.29 214.092 1190.03 214.092V206.092C1180.96 206.092 1174.48 204.639 1170.19 202.157L1166.18 209.083ZM1190.03 214.092C1198.07 214.092 1204.59 213.296 1209.13 211.366L1206.01 204.002C1202.99 205.283 1197.81 206.092 1190.03 206.092V214.092ZM1209.19 211.344C1213.23 209.56 1216.84 207.23 1218.42 203.883L1211.18 200.477C1210.92 201.029 1209.71 202.368 1205.96 204.024L1209.19 211.344ZM1218.42 203.883C1219.59 201.395 1220.17 198.749 1220.17 195.988H1212.17C1212.17 197.585 1211.84 199.066 1211.18 200.477L1218.42 203.883ZM1220.17 195.988C1220.17 194.193 1219.88 192.388 1219.06 190.759L1211.91 194.337C1212.01 194.542 1212.17 195.031 1212.17 195.988H1220.17ZM1219.06 190.759C1218.22 189.069 1216.87 187.743 1215.37 186.691L1210.78 193.245C1211.57 193.799 1211.83 194.192 1211.91 194.337L1219.06 190.759ZM1215.35 186.675C1211.58 184.08 1206.88 181.978 1201.34 180.293L1199.01 187.947C1204.03 189.473 1207.92 191.269 1210.81 193.261L1215.35 186.675ZM1201.36 180.3C1197.87 179.216 1191.54 177.637 1182.49 175.576L1180.71 183.376C1189.78 185.443 1195.83 186.96 1198.99 187.94L1201.36 180.3ZM1182.44 175.566C1176.86 174.361 1170.47 172.37 1163.28 169.558L1160.36 177.01C1167.84 179.931 1174.65 182.068 1180.76 183.386L1182.44 175.566ZM1163.27 169.557C1156.96 167.096 1151.98 163.842 1148.21 159.867L1142.41 165.373C1147.12 170.342 1153.15 174.197 1160.37 177.011L1163.27 169.557ZM1148.1 159.759C1143.97 155.72 1141.74 150.178 1141.74 142.668H1133.74C1133.74 151.899 1136.55 159.658 1142.51 165.481L1148.1 159.759ZM1141.74 142.668C1141.74 132.486 1145.52 124.465 1153.16 118.251L1148.12 112.045C1138.56 119.82 1133.74 130.146 1133.74 142.668H1141.74ZM1153.15 118.259C1160.55 112.285 1171.61 109 1186.93 109V101C1170.61 101 1157.48 104.48 1148.13 112.037L1153.15 118.259ZM1186.93 109C1202.39 109 1213.92 112.64 1222.04 119.422L1227.16 113.282C1217.16 104.928 1203.59 101 1186.93 101V109ZM1222.07 119.451C1229.93 125.864 1233.95 133.813 1234.36 143.524L1242.36 143.188C1241.85 131.112 1236.7 121.058 1227.13 113.253L1222.07 119.451ZM1234.37 143.572L1234.71 149.936L1242.7 149.504L1242.35 143.14L1234.37 143.572ZM1238.7 145.72H1213.59V153.72H1238.7V145.72ZM1217.56 149.208L1216.87 143.876L1208.94 144.9L1209.62 150.232L1217.56 149.208ZM1216.88 143.911C1216.44 140.242 1214.96 136.908 1212.57 133.959L1206.35 138.993C1207.87 140.86 1208.68 142.801 1208.93 144.865L1216.88 143.911ZM1212.57 133.959C1209.87 130.618 1205.44 128.369 1200.11 126.792L1197.84 134.464C1202.59 135.869 1205.16 137.518 1206.35 138.993L1212.57 133.959ZM1200.12 126.797C1196.18 125.614 1191.4 125.08 1185.9 125.08V133.08C1190.95 133.08 1194.89 133.578 1197.82 134.459L1200.12 126.797ZM1185.9 125.08C1180.38 125.08 1175.59 125.674 1171.7 127.019L1174.3 134.581C1177.06 133.633 1180.87 133.08 1185.9 133.08V125.08ZM1171.74 127.005C1168.39 128.121 1165.5 129.512 1163.28 131.289L1168.27 137.535C1169.49 136.56 1171.42 135.543 1174.26 134.595L1171.74 127.005ZM1163.07 131.463C1161.37 133.027 1159.95 134.905 1159.34 137.144L1167.06 139.248C1167.13 138.964 1167.43 138.319 1168.48 137.361L1163.07 131.463ZM1159.4 136.931C1158.68 139.089 1158.34 141.353 1158.34 143.7H1166.34C1166.34 142.148 1166.56 140.743 1166.99 139.461L1159.4 136.931ZM1158.34 143.7C1158.34 146.153 1159.83 148.056 1161.06 149.28L1166.71 143.624C1166.54 143.455 1166.42 143.318 1166.34 143.212C1166.25 143.105 1166.22 143.044 1166.21 143.029C1166.19 142.988 1166.34 143.233 1166.34 143.7H1158.34ZM1161.06 149.28C1163.17 151.397 1166.05 153.081 1169.43 154.456L1172.45 147.048C1169.63 145.901 1167.81 144.718 1166.71 143.624L1161.06 149.28ZM1169.5 154.485C1172.65 155.696 1176.74 156.996 1181.73 158.389L1183.88 150.683C1179.01 149.324 1175.19 148.101 1172.37 147.019L1169.5 154.485ZM1181.86 158.423L1188.22 159.971L1190.11 152.197L1183.75 150.649L1181.86 158.423ZM1188.26 159.979L1196.34 161.871L1198.16 154.081L1190.08 152.189L1188.26 159.979ZM1196.2 161.835L1199.98 162.867L1202.09 155.149L1198.3 154.117L1196.2 161.835ZM1199.98 162.865C1205.87 164.482 1209.44 165.531 1210.87 166.043L1213.56 158.509C1211.79 157.875 1207.9 156.744 1202.09 155.151L1199.98 162.865ZM1210.98 166.08C1215.2 167.453 1219.54 169.533 1224.01 172.362L1228.29 165.606C1223.35 162.472 1218.4 160.081 1213.45 158.472L1210.98 166.08ZM1224.02 172.372C1228.46 175.162 1231.69 178.483 1233.84 182.301L1240.81 178.371C1237.92 173.245 1233.69 168.998 1228.28 165.596L1224.02 172.372ZM1233.88 182.368C1236.13 186.187 1237.28 190.466 1237.28 195.3H1245.28C1245.28 189.126 1243.8 183.429 1240.77 178.304L1233.88 182.368ZM1237.28 195.3C1237.28 207.088 1232.94 215.657 1224.38 221.598L1228.94 228.17C1239.88 220.58 1245.28 209.427 1245.28 195.3H1237.28ZM1224.37 221.607C1216.08 227.412 1204.7 230.516 1189.86 230.516V238.516C1205.74 238.516 1218.9 235.199 1228.96 228.161L1224.37 221.607ZM1292.47 131.66H1296.47V127.66H1292.47V131.66ZM1252.39 131.66H1248.39V135.66H1252.39V131.66ZM1252.39 107.236V103.236H1248.39V107.236H1252.39ZM1357.48 107.236H1361.48V103.236H1357.48V107.236ZM1357.48 131.66V135.66H1361.48V131.66H1357.48ZM1317.41 131.66V127.66H1313.41V131.66H1317.41ZM1317.41 234V238H1321.41V234H1317.41ZM1292.47 234H1288.47V238H1292.47V234ZM1292.47 127.66H1252.39V135.66H1292.47V127.66ZM1256.39 131.66V107.236H1248.39V131.66H1256.39ZM1252.39 111.236H1357.48V103.236H1252.39V111.236ZM1353.48 107.236V131.66H1361.48V107.236H1353.48ZM1357.48 127.66H1317.41V135.66H1357.48V127.66ZM1313.41 131.66V234H1321.41V131.66H1313.41ZM1317.41 230H1292.47V238H1317.41V230ZM1296.47 234V131.66H1288.47V234H1296.47ZM1384.29 223.164L1381.79 226.287L1381.8 226.295L1384.29 223.164ZM1369.33 193.408L1365.35 193.816L1365.35 193.823L1365.35 193.83L1369.33 193.408ZM1368.64 186.7V182.7H1364.21L1364.66 187.108L1368.64 186.7ZM1394.44 186.7L1398.43 186.458L1398.21 182.7H1394.44V186.7ZM1394.78 192.376L1398.78 192.136L1398.78 192.134L1394.78 192.376ZM1403.21 205.62L1401.19 209.07L1401.2 209.077L1401.21 209.083L1403.21 205.62ZM1442.6 207.684L1444.16 211.366L1444.19 211.355L1444.22 211.344L1442.6 207.684ZM1449.82 202.18L1453.44 203.883L1453.44 203.883L1449.82 202.18ZM1448.1 189.968L1450.4 186.691L1450.39 186.683L1450.38 186.675L1448.1 189.968ZM1435.2 184.12L1434.02 187.94L1434.03 187.944L1434.04 187.947L1435.2 184.12ZM1416.63 179.476L1417.52 175.576L1417.49 175.571L1417.47 175.566L1416.63 179.476ZM1396.85 173.284L1398.3 169.558L1398.3 169.557L1396.85 173.284ZM1380.34 162.62L1383.24 159.867L1383.19 159.812L1383.13 159.759L1380.34 162.62ZM1385.67 115.148L1383.15 112.037L1383.14 112.045L1385.67 115.148ZM1459.63 116.352L1457.06 119.422L1457.08 119.437L1457.1 119.451L1459.63 116.352ZM1473.39 143.356L1469.39 143.524L1469.39 143.548L1469.39 143.572L1473.39 143.356ZM1473.73 149.72V153.72H1477.95L1477.73 149.504L1473.73 149.72ZM1448.62 149.72L1444.65 150.232L1445.1 153.72H1448.62V149.72ZM1447.93 144.388L1443.96 144.865L1443.96 144.882L1443.97 144.9L1447.93 144.388ZM1444.49 136.476L1447.6 133.959L1447.6 133.959L1444.49 136.476ZM1434 130.628L1432.85 134.459L1432.86 134.462L1432.87 134.464L1434 130.628ZM1408.03 130.8L1409.29 134.595L1409.31 134.588L1409.33 134.581L1408.03 130.8ZM1400.8 134.412L1398.31 131.289L1398.2 131.373L1398.1 131.463L1400.8 134.412ZM1398.22 138.196L1402.02 139.461L1402.05 139.356L1402.08 139.248L1398.22 138.196ZM1398.91 146.452L1396.08 149.28L1396.08 149.28L1398.91 146.452ZM1405.96 150.752L1404.46 154.456L1404.49 154.471L1404.53 154.485L1405.96 150.752ZM1417.83 154.536L1416.76 158.389L1416.82 158.407L1416.89 158.423L1417.83 154.536ZM1424.2 156.084L1423.25 159.971L1423.27 159.975L1423.28 159.979L1424.2 156.084ZM1432.28 157.976L1433.33 154.117L1433.26 154.098L1433.19 154.081L1432.28 157.976ZM1436.06 159.008L1437.12 155.151L1437.12 155.149L1436.06 159.008ZM1447.24 162.276L1445.9 166.043L1445.95 166.062L1446.01 166.08L1447.24 162.276ZM1461.18 168.984L1459.03 172.362L1459.04 172.367L1459.05 172.372L1461.18 168.984ZM1472.36 180.336L1468.87 182.301L1468.89 182.335L1468.91 182.368L1472.36 180.336ZM1461.69 224.884L1459.41 221.598L1459.41 221.603L1459.4 221.607L1461.69 224.884ZM1424.88 230.516C1407.86 230.516 1395.34 226.836 1386.78 220.033L1381.8 226.295C1392.28 234.628 1406.83 238.516 1424.88 238.516V230.516ZM1386.79 220.041C1379.18 213.948 1374.59 205.091 1373.31 192.986L1365.35 193.83C1366.82 207.64 1372.21 218.62 1381.79 226.287L1386.79 220.041ZM1373.31 193L1372.62 186.292L1364.66 187.108L1365.35 193.816L1373.31 193ZM1368.64 190.7H1394.44V182.7H1368.64V190.7ZM1390.45 186.942L1390.79 192.618L1398.78 192.134L1398.43 186.458L1390.45 186.942ZM1390.79 192.616C1391.22 199.78 1394.85 205.351 1401.19 209.07L1405.24 202.17C1401.02 199.697 1399.04 196.439 1398.78 192.136L1390.79 192.616ZM1401.21 209.083C1407.23 212.563 1415.32 214.092 1425.06 214.092V206.092C1415.99 206.092 1409.51 204.639 1405.21 202.157L1401.21 209.083ZM1425.06 214.092C1433.1 214.092 1439.61 213.296 1444.16 211.366L1441.04 204.002C1438.02 205.283 1432.84 206.092 1425.06 206.092V214.092ZM1444.22 211.344C1448.26 209.56 1451.87 207.23 1453.44 203.883L1446.21 200.477C1445.95 201.029 1444.74 202.368 1440.99 204.024L1444.22 211.344ZM1453.44 203.883C1454.61 201.395 1455.2 198.749 1455.2 195.988H1447.2C1447.2 197.585 1446.87 199.066 1446.21 200.477L1453.44 203.883ZM1455.2 195.988C1455.2 194.193 1454.9 192.388 1454.09 190.759L1446.93 194.337C1447.04 194.542 1447.2 195.031 1447.2 195.988H1455.2ZM1454.09 190.759C1453.25 189.069 1451.9 187.743 1450.4 186.691L1445.81 193.245C1446.6 193.799 1446.86 194.192 1446.93 194.337L1454.09 190.759ZM1450.38 186.675C1446.61 184.08 1441.9 181.978 1436.37 180.293L1434.04 187.947C1439.05 189.473 1442.95 191.269 1445.83 193.261L1450.38 186.675ZM1436.39 180.3C1432.9 179.216 1426.56 177.637 1417.52 175.576L1415.74 183.376C1424.81 185.443 1430.86 186.96 1434.02 187.94L1436.39 180.3ZM1417.47 175.566C1411.89 174.361 1405.5 172.37 1398.3 169.558L1395.39 177.01C1402.87 179.931 1409.68 182.068 1415.79 183.386L1417.47 175.566ZM1398.3 169.557C1391.99 167.096 1387.01 163.842 1383.24 159.867L1377.43 165.373C1382.15 170.342 1388.18 174.197 1395.4 177.011L1398.3 169.557ZM1383.13 159.759C1379 155.72 1376.77 150.178 1376.77 142.668H1368.77C1368.77 151.899 1371.58 159.658 1377.54 165.481L1383.13 159.759ZM1376.77 142.668C1376.77 132.486 1380.55 124.465 1388.19 118.251L1383.14 112.045C1373.58 119.82 1368.77 130.146 1368.77 142.668H1376.77ZM1388.18 118.259C1395.57 112.285 1406.64 109 1421.96 109V101C1405.64 101 1392.5 104.48 1383.15 112.037L1388.18 118.259ZM1421.96 109C1437.41 109 1448.95 112.64 1457.06 119.422L1462.19 113.282C1452.19 104.928 1438.61 101 1421.96 101V109ZM1457.1 119.451C1464.96 125.864 1468.98 133.813 1469.39 143.524L1477.38 143.188C1476.88 131.112 1471.73 121.058 1462.16 113.253L1457.1 119.451ZM1469.39 143.572L1469.74 149.936L1477.73 149.504L1477.38 143.14L1469.39 143.572ZM1473.73 145.72H1448.62V153.72H1473.73V145.72ZM1452.59 149.208L1451.9 143.876L1443.97 144.9L1444.65 150.232L1452.59 149.208ZM1451.9 143.911C1451.46 140.242 1449.99 136.908 1447.6 133.959L1441.38 138.993C1442.9 140.86 1443.71 142.801 1443.96 144.865L1451.9 143.911ZM1447.6 133.959C1444.9 130.618 1440.47 128.369 1435.13 126.792L1432.87 134.464C1437.62 135.869 1440.19 137.518 1441.38 138.993L1447.6 133.959ZM1435.15 126.797C1431.21 125.614 1426.43 125.08 1420.93 125.08V133.08C1425.98 133.08 1429.91 133.578 1432.85 134.459L1435.15 126.797ZM1420.93 125.08C1415.41 125.08 1410.62 125.674 1406.72 127.019L1409.33 134.581C1412.08 133.633 1415.9 133.08 1420.93 133.08V125.08ZM1406.76 127.005C1403.41 128.121 1400.53 129.512 1398.31 131.289L1403.3 137.535C1404.52 136.56 1406.45 135.543 1409.29 134.595L1406.76 127.005ZM1398.1 131.463C1396.4 133.027 1394.98 134.905 1394.37 137.144L1402.08 139.248C1402.16 138.964 1402.46 138.319 1403.51 137.361L1398.1 131.463ZM1394.43 136.931C1393.71 139.089 1393.36 141.353 1393.36 143.7H1401.36C1401.36 142.148 1401.59 140.743 1402.02 139.461L1394.43 136.931ZM1393.36 143.7C1393.36 146.153 1394.86 148.056 1396.08 149.28L1401.74 143.624C1401.57 143.455 1401.45 143.318 1401.37 143.212C1401.28 143.105 1401.25 143.044 1401.24 143.029C1401.21 142.988 1401.36 143.233 1401.36 143.7H1393.36ZM1396.08 149.28C1398.2 151.397 1401.08 153.081 1404.46 154.456L1407.47 147.048C1404.66 145.901 1402.84 144.718 1401.74 143.624L1396.08 149.28ZM1404.53 154.485C1407.68 155.696 1411.77 156.996 1416.76 158.389L1418.91 150.683C1414.04 149.324 1410.21 148.101 1407.4 147.019L1404.53 154.485ZM1416.89 158.423L1423.25 159.971L1425.14 152.197L1418.78 150.649L1416.89 158.423ZM1423.28 159.979L1431.37 161.871L1433.19 154.081L1425.11 152.189L1423.28 159.979ZM1431.23 161.835L1435.01 162.867L1437.12 155.149L1433.33 154.117L1431.23 161.835ZM1435.01 162.865C1440.9 164.482 1444.46 165.531 1445.9 166.043L1448.59 158.509C1446.81 157.875 1442.93 156.744 1437.12 155.151L1435.01 162.865ZM1446.01 166.08C1450.23 167.453 1454.57 169.533 1459.03 172.362L1463.32 165.606C1458.38 162.472 1453.43 160.081 1448.48 158.472L1446.01 166.08ZM1459.05 172.372C1463.49 175.162 1466.72 178.483 1468.87 182.301L1475.84 178.371C1472.95 173.245 1468.72 168.998 1463.3 165.596L1459.05 172.372ZM1468.91 182.368C1471.16 186.187 1472.31 190.466 1472.31 195.3H1480.31C1480.31 189.126 1478.82 183.429 1475.8 178.304L1468.91 182.368ZM1472.31 195.3C1472.31 207.088 1467.97 215.657 1459.41 221.598L1463.97 228.17C1474.91 220.58 1480.31 209.427 1480.31 195.3H1472.31ZM1459.4 221.607C1451.11 227.412 1439.73 230.516 1424.88 230.516V238.516C1440.77 238.516 1453.93 235.199 1463.99 228.161L1459.4 221.607Z" fill="black" fill-opacity="0.3"/>
<defs>
<linearGradient id="paint0_linear_454_3" x1="12.7004" y1="165" x2="1322.91" y2="-458.903" gradientUnits="userSpaceOnUse">
<stop stop-color="#F24D56"/>
<stop offset="0.509216" stop-color="#EE0C77"/>
<stop offset="0.964829" stop-color="#F24D56"/>
</linearGradient>
</defs>
</svg>
