<svg width="1620" height="330" viewBox="0 0 1620 330" fill="none" xmlns="http://www.w3.org/2000/svg">
<path d="M206.086 201.98L209.085 199.333L209.077 199.324L206.086 201.98ZM206.086 136.136L203.114 133.459L203.107 133.466L206.086 136.136ZM264.986 130.432L262.711 133.722L262.73 133.735L262.748 133.747L264.986 130.432ZM279.618 149.404L281.271 153.046L284.703 151.489L283.352 147.971L279.618 149.404ZM263.498 156.72V160.72H264.363L265.151 160.362L263.498 156.72ZM263.374 156.72L259.697 158.296L260.736 160.72H263.374V156.72ZM262.258 154.116L258.574 155.675L258.578 155.683L258.581 155.692L262.258 154.116ZM253.95 143.948L251.715 147.265L251.723 147.271L251.731 147.276L253.95 143.948ZM227.786 142.336L226.178 138.673L226.178 138.673L227.786 142.336ZM219.354 148.288L216.381 145.612L216.373 145.621L216.364 145.631L219.354 148.288ZM219.354 189.704L216.324 192.315L216.327 192.318L219.354 189.704ZM253.95 194.168L251.748 190.829L251.722 190.846L251.697 190.863L253.95 194.168ZM262.258 184L258.556 182.485L258.545 182.512L258.534 182.54L262.258 184ZM263.374 181.272V177.272H260.689L259.672 179.757L263.374 181.272ZM263.498 181.272L265.174 177.64L264.377 177.272H263.498V181.272ZM279.618 188.712L283.329 190.204L284.749 186.674L281.294 185.08L279.618 188.712ZM264.986 207.684L267.278 210.963L267.288 210.955L267.299 210.947L264.986 207.684ZM238.698 211.744C226.059 211.744 216.335 207.545 209.085 199.333L203.088 204.627C212.04 214.767 224.057 219.744 238.698 219.744V211.744ZM209.077 199.324C201.948 191.294 198.306 181.278 198.306 168.996H190.306C190.306 183.002 194.518 194.975 203.095 204.636L209.077 199.324ZM198.306 168.996C198.306 156.713 201.947 146.747 209.065 138.806L203.107 133.466C194.518 143.05 190.306 154.991 190.306 168.996H198.306ZM209.058 138.813C216.492 130.561 226.241 126.372 238.698 126.372V118.372C224.206 118.372 212.213 123.359 203.114 133.459L209.058 138.813ZM238.698 126.372C247.668 126.372 255.632 128.827 262.711 133.722L267.261 127.142C258.799 121.291 249.237 118.372 238.698 118.372V126.372ZM262.748 133.747C268.614 137.707 273.006 143.34 275.884 150.837L283.352 147.971C279.947 139.1 274.584 132.085 267.224 127.117L262.748 133.747ZM277.965 145.762L261.845 153.078L265.151 160.362L281.271 153.046L277.965 145.762ZM263.498 152.72H263.374V160.72H263.498V152.72ZM267.051 155.144L265.935 152.54L258.581 155.692L259.697 158.296L267.051 155.144ZM265.942 152.557C263.833 147.572 260.569 143.553 256.169 140.62L251.731 147.276C254.771 149.303 257.046 152.063 258.574 155.675L265.942 152.557ZM256.185 140.631C251.668 137.587 246.494 136.104 240.806 136.104V144.104C245.038 144.104 248.627 145.184 251.715 147.265L256.185 140.631ZM240.806 136.104C235.182 136.104 230.243 136.889 226.178 138.673L229.394 145.999C232.108 144.807 235.849 144.104 240.806 144.104V136.104ZM226.178 138.673C222.326 140.365 219.032 142.666 216.381 145.612L222.327 150.964C224.14 148.95 226.467 147.283 229.394 145.999L226.178 138.673ZM216.364 145.631C210.941 151.731 208.41 159.658 208.41 168.996H216.41C216.41 161.14 218.508 155.261 222.344 150.945L216.364 145.631ZM208.41 168.996C208.41 178.196 210.955 186.083 216.324 192.315L222.385 187.093C218.494 182.578 216.41 176.66 216.41 168.996H208.41ZM216.327 192.318C222.029 198.921 230.461 201.888 240.806 201.888V193.888C231.973 193.888 226.103 191.399 222.381 187.09L216.327 192.318ZM240.806 201.888C246.6 201.888 251.798 200.477 256.203 197.473L251.697 190.863C248.827 192.819 245.263 193.888 240.806 193.888V201.888ZM256.152 197.507C260.706 194.504 264.019 190.467 265.982 185.46L258.534 182.54C257.191 185.965 254.965 188.707 251.748 190.829L256.152 197.507ZM265.96 185.515L267.076 182.787L259.672 179.757L258.556 182.485L265.96 185.515ZM263.374 185.272H263.498V177.272H263.374V185.272ZM261.822 184.904L277.942 192.344L281.294 185.08L265.174 177.64L261.822 184.904ZM275.907 187.22C272.945 194.585 268.527 200.271 262.673 204.421L267.299 210.947C274.506 205.838 279.843 198.876 283.329 190.204L275.907 187.22ZM262.695 204.405C255.712 209.285 247.758 211.744 238.698 211.744V219.744C249.313 219.744 258.884 216.829 267.278 210.963L262.695 204.405ZM324.454 179.288H328.454V178.035L327.739 177.005L324.454 179.288ZM285.766 123.612V119.612H278.115L282.481 125.895L285.766 123.612ZM307.714 123.612L310.999 121.33L309.806 119.612H307.714V123.612ZM333.382 160.564L330.097 162.846L333.374 167.564L336.662 162.853L333.382 160.564ZM359.174 123.612V119.612H357.088L355.894 121.323L359.174 123.612ZM381.122 123.612L384.41 125.89L388.758 119.612H381.122V123.612ZM342.558 179.288L339.27 177.01L338.558 178.038V179.288H342.558ZM342.558 215V219H346.558V215H342.558ZM324.454 215H320.454V219H324.454V215ZM327.739 177.005L289.051 121.329L282.481 125.895L321.169 181.571L327.739 177.005ZM285.766 127.612H307.714V119.612H285.766V127.612ZM304.429 125.894L330.097 162.846L336.667 158.282L310.999 121.33L304.429 125.894ZM336.662 162.853L362.454 125.901L355.894 121.323L330.102 158.275L336.662 162.853ZM359.174 127.612H381.122V119.612H359.174V127.612ZM377.834 121.334L339.27 177.01L345.846 181.566L384.41 125.89L377.834 121.334ZM338.558 179.288V215H346.558V179.288H338.558ZM342.558 211H324.454V219H342.558V211ZM328.454 215V179.288H320.454V215H328.454ZM392.319 123.612V119.612H388.319V123.612H392.319ZM457.295 132.168L454.425 134.955L454.445 134.976L454.466 134.996L457.295 132.168ZM457.419 167.756L454.643 164.876L451.079 168.31L455.185 171.074L457.419 167.756ZM466.719 179.164L463.009 180.661L463.031 180.714L463.054 180.767L466.719 179.164ZM463.619 204.088L460.465 201.628L460.458 201.637L463.619 204.088ZM449.607 213.016L448.434 209.192L448.35 209.218L448.267 209.247L449.607 213.016ZM392.319 215H388.319V219H392.319V215ZM445.267 155.108L441.689 153.319L441.672 153.352L441.657 153.385L445.267 155.108ZM445.515 146.924L441.781 148.36L441.824 148.471L441.873 148.579L445.515 146.924ZM443.779 144.196L440.893 146.966L440.921 146.996L440.95 147.024L443.779 144.196ZM410.423 141.096V137.096H406.423V141.096H410.423ZM410.423 160.564H406.423V164.564H410.423V160.564ZM447.499 194.788L445.099 191.588L445.07 191.609L445.043 191.631L447.499 194.788ZM447.375 181.148L444.699 184.121L444.715 184.136L444.732 184.151L447.375 181.148ZM410.423 177.8V173.8H406.423V177.8H410.423ZM410.423 197.392H406.423V201.392H410.423V197.392ZM392.319 127.612H433.735V119.612H392.319V127.612ZM433.735 127.612C443.139 127.612 449.835 130.228 454.425 134.955L460.164 129.381C453.677 122.7 444.666 119.612 433.735 119.612V127.612ZM454.466 134.996C458.277 138.807 460.239 143.627 460.239 149.776H468.239C468.239 141.706 465.571 134.787 460.123 129.34L454.466 134.996ZM460.239 149.776C460.239 156.534 458.25 161.399 454.643 164.876L460.194 170.636C465.68 165.35 468.239 158.229 468.239 149.776H460.239ZM455.185 171.074C458.835 173.531 461.413 176.705 463.009 180.661L470.428 177.667C468.221 172.199 464.6 167.768 459.652 164.438L455.185 171.074ZM463.054 180.767C463.928 182.765 464.455 185.446 464.455 188.96H472.455C472.455 184.703 471.824 180.854 470.383 177.561L463.054 180.767ZM464.455 188.96C464.455 194.147 463.067 198.291 460.465 201.628L466.773 206.548C470.618 201.618 472.455 195.677 472.455 188.96H464.455ZM460.458 201.637C457.941 204.882 454.055 207.468 448.434 209.192L450.779 216.84C457.558 214.761 463.013 211.396 466.779 206.539L460.458 201.637ZM448.267 209.247C445.106 210.371 441.004 211 435.843 211V219C441.594 219 446.667 218.307 450.947 216.785L448.267 209.247ZM435.843 211H392.319V219H435.843V211ZM396.319 215V123.612H388.319V215H396.319ZM433.735 164.564C440.395 164.564 446.18 162.48 448.876 156.831L441.657 153.385C440.881 155.011 438.978 156.564 433.735 156.564V164.564ZM448.844 156.897C449.74 155.106 450.135 153.156 450.135 151.14H442.135C442.135 152.1 441.951 152.795 441.689 153.319L448.844 156.897ZM450.135 151.14C450.135 149.092 449.934 146.98 449.156 145.269L441.873 148.579C441.87 148.571 441.891 148.617 441.922 148.734C441.953 148.85 441.989 149.016 442.022 149.242C442.089 149.7 442.135 150.323 442.135 151.14H450.135ZM449.248 145.488C448.653 143.941 447.783 142.543 446.607 141.368L440.95 147.024C441.262 147.337 441.55 147.758 441.781 148.36L449.248 145.488ZM446.664 141.426C443.658 138.295 439.408 137.096 434.727 137.096V145.096C438.147 145.096 439.931 145.964 440.893 146.966L446.664 141.426ZM434.727 137.096H410.423V145.096H434.727V137.096ZM406.423 141.096V160.564H414.423V141.096H406.423ZM410.423 164.564H433.735V156.564H410.423V164.564ZM436.959 201.392C442.081 201.392 446.678 200.494 449.954 197.945L445.043 191.631C443.855 192.554 441.425 193.392 436.959 193.392V201.392ZM449.899 197.988C453.066 195.612 454.475 192.13 454.475 188.216H446.475C446.475 190.088 445.899 190.988 445.099 191.588L449.899 197.988ZM454.475 188.216C454.475 184.24 452.995 180.766 450.017 178.145L444.732 184.151C445.887 185.167 446.475 186.406 446.475 188.216H454.475ZM450.05 178.175C446.519 174.997 441.508 173.8 435.843 173.8V181.8C440.593 181.8 443.27 182.835 444.699 184.121L450.05 178.175ZM435.843 173.8H410.423V181.8H435.843V173.8ZM406.423 177.8V197.392H414.423V177.8H406.423ZM410.423 201.392H436.959V193.392H410.423V201.392ZM484.001 123.612V119.612H480.001V123.612H484.001ZM553.565 123.612H557.565V119.612H553.565V123.612ZM553.565 141.22V145.22H557.565V141.22H553.565ZM502.105 141.22V137.22H498.105V141.22H502.105ZM502.105 160.316H498.105V164.316H502.105V160.316ZM539.429 160.316H543.429V156.316H539.429V160.316ZM539.429 178.172V182.172H543.429V178.172H539.429ZM502.105 178.172V174.172H498.105V178.172H502.105ZM502.105 197.268H498.105V201.268H502.105V197.268ZM553.565 197.268H557.565V193.268H553.565V197.268ZM553.565 215V219H557.565V215H553.565ZM484.001 215H480.001V219H484.001V215ZM484.001 127.612H553.565V119.612H484.001V127.612ZM549.565 123.612V141.22H557.565V123.612H549.565ZM553.565 137.22H502.105V145.22H553.565V137.22ZM498.105 141.22V160.316H506.105V141.22H498.105ZM502.105 164.316H539.429V156.316H502.105V164.316ZM535.429 160.316V178.172H543.429V160.316H535.429ZM539.429 174.172H502.105V182.172H539.429V174.172ZM498.105 178.172V197.268H506.105V178.172H498.105ZM502.105 201.268H553.565V193.268H502.105V201.268ZM549.565 197.268V215H557.565V197.268H549.565ZM553.565 211H484.001V219H553.565V211ZM488.001 215V123.612H480.001V215H488.001ZM569.023 123.612V119.612H565.023V123.612H569.023ZM636.231 131.672L638.934 128.723L638.913 128.704L638.891 128.685L636.231 131.672ZM641.191 169.244L637.785 167.148L637.779 167.157L637.773 167.166L641.191 169.244ZM629.783 178.916L631.166 182.669L631.286 182.625L631.402 182.574L629.783 178.916ZM627.427 179.784L626.045 176.031L621.517 177.699L623.995 181.838L627.427 179.784ZM648.507 215V219H655.564L651.939 212.946L648.507 215ZM627.179 215L623.711 216.992L624.864 219H627.179V215ZM608.951 183.256L612.42 181.264L611.267 179.256H608.951V183.256ZM587.127 183.256V179.256H583.127V183.256H587.127ZM587.127 215V219H591.127V215H587.127ZM569.023 215H565.023V219H569.023V215ZM625.939 159.572L629.32 161.711L629.381 161.614L629.436 161.515L625.939 159.572ZM623.335 144.692L625.963 141.676L625.925 141.643L625.887 141.612L623.335 144.692ZM587.127 141.096V137.096H583.127V141.096H587.127ZM587.127 165.648H583.127V169.648H587.127V165.648ZM569.023 127.612H613.043V119.612H569.023V127.612ZM613.043 127.612C621.66 127.612 628.389 130.045 633.571 134.659L638.891 128.685C632.004 122.552 623.275 119.612 613.043 119.612V127.612ZM633.528 134.621C638.529 139.205 641.159 145.426 641.159 153.744H649.159C649.159 143.545 645.837 135.051 638.934 128.723L633.528 134.621ZM641.159 153.744C641.159 159.184 639.972 163.593 637.785 167.148L644.598 171.34C647.701 166.298 649.159 160.373 649.159 153.744H641.159ZM637.773 167.166C635.684 170.603 632.552 173.316 628.164 175.258L631.402 182.574C637.1 180.052 641.573 176.317 644.609 171.322L637.773 167.166ZM628.401 175.163L626.045 176.031L628.81 183.537L631.166 182.669L628.401 175.163ZM623.995 181.838L645.075 217.054L651.939 212.946L630.859 177.73L623.995 181.838ZM648.507 211H627.179V219H648.507V211ZM630.648 213.008L612.42 181.264L605.483 185.248L623.711 216.992L630.648 213.008ZM608.951 179.256H587.127V187.256H608.951V179.256ZM583.127 183.256V215H591.127V183.256H583.127ZM587.127 211H569.023V219H587.127V211ZM573.023 215V123.612H565.023V215H573.023ZM611.307 169.648C619.137 169.648 625.703 167.428 629.32 161.711L622.559 157.433C621.051 159.818 617.862 161.648 611.307 161.648V169.648ZM629.436 161.515C630.7 159.239 631.179 156.559 631.179 153.744H623.179C623.179 155.724 622.832 156.929 622.443 157.629L629.436 161.515ZM631.179 153.744C631.179 148.939 629.507 144.763 625.963 141.676L620.708 147.708C622.289 149.085 623.179 150.944 623.179 153.744H631.179ZM625.887 141.612C622.097 138.472 617.267 137.096 611.803 137.096V145.096C615.929 145.096 618.787 146.118 620.783 147.772L625.887 141.612ZM611.803 137.096H587.127V145.096H611.803V137.096ZM583.127 141.096V165.648H591.127V141.096H583.127ZM587.127 169.648H611.307V161.648H587.127V169.648ZM702.415 201.98L705.414 199.333L705.407 199.324L702.415 201.98ZM702.415 136.136L699.444 133.459L699.437 133.466L702.415 136.136ZM761.315 130.432L759.04 133.722L759.059 133.735L759.078 133.747L761.315 130.432ZM775.947 149.404L777.601 153.046L781.032 151.489L779.682 147.971L775.947 149.404ZM759.827 156.72V160.72H760.693L761.481 160.362L759.827 156.72ZM759.703 156.72L756.027 158.296L757.066 160.72H759.703V156.72ZM758.587 154.116L754.904 155.675L754.907 155.683L754.911 155.692L758.587 154.116ZM750.279 143.948L748.044 147.265L748.052 147.271L748.061 147.276L750.279 143.948ZM724.115 142.336L722.507 138.673L722.507 138.673L724.115 142.336ZM715.683 148.288L712.71 145.612L712.702 145.621L712.694 145.631L715.683 148.288ZM715.683 189.704L712.653 192.315L712.656 192.318L715.683 189.704ZM750.279 194.168L748.077 190.829L748.051 190.846L748.026 190.863L750.279 194.168ZM758.587 184L754.885 182.485L754.874 182.512L754.864 182.54L758.587 184ZM759.703 181.272V177.272H757.018L756.001 179.757L759.703 181.272ZM759.827 181.272L761.504 177.64L760.706 177.272H759.827V181.272ZM775.947 188.712L779.659 190.204L781.078 186.674L777.624 185.08L775.947 188.712ZM761.315 207.684L763.607 210.963L763.618 210.955L763.629 210.947L761.315 207.684ZM735.027 211.744C722.388 211.744 712.664 207.545 705.414 199.333L699.417 204.627C708.369 214.767 720.387 219.744 735.027 219.744V211.744ZM705.407 199.324C698.277 191.294 694.635 181.278 694.635 168.996H686.635C686.635 183.002 690.847 194.975 699.424 204.636L705.407 199.324ZM694.635 168.996C694.635 156.713 698.277 146.747 705.394 138.806L699.437 133.466C690.847 143.05 686.635 154.991 686.635 168.996H694.635ZM705.387 138.813C712.821 130.561 722.57 126.372 735.027 126.372V118.372C720.535 118.372 708.543 123.359 699.444 133.459L705.387 138.813ZM735.027 126.372C743.997 126.372 751.961 128.827 759.04 133.722L763.59 127.142C755.128 121.291 745.567 118.372 735.027 118.372V126.372ZM759.078 133.747C764.944 137.707 769.335 143.34 772.213 150.837L779.682 147.971C776.277 139.1 770.914 132.085 763.553 127.117L759.078 133.747ZM774.294 145.762L758.174 153.078L761.481 160.362L777.601 153.046L774.294 145.762ZM759.827 152.72H759.703V160.72H759.827V152.72ZM763.38 155.144L762.264 152.54L754.911 155.692L756.027 158.296L763.38 155.144ZM762.271 152.557C760.162 147.572 756.899 143.553 752.498 140.62L748.061 147.276C751.1 149.303 753.376 152.063 754.904 155.675L762.271 152.557ZM752.515 140.631C747.997 137.587 742.824 136.104 737.135 136.104V144.104C741.367 144.104 744.956 145.184 748.044 147.265L752.515 140.631ZM737.135 136.104C731.511 136.104 726.572 136.889 722.507 138.673L725.723 145.999C728.437 144.807 732.179 144.104 737.135 144.104V136.104ZM722.507 138.673C718.655 140.365 715.362 142.666 712.71 145.612L718.657 150.964C720.469 148.95 722.797 147.283 725.723 145.999L722.507 138.673ZM712.694 145.631C707.271 151.731 704.739 159.658 704.739 168.996H712.739C712.739 161.14 714.837 155.261 718.673 150.945L712.694 145.631ZM704.739 168.996C704.739 178.196 707.284 186.083 712.653 192.315L718.714 187.093C714.824 182.578 712.739 176.66 712.739 168.996H704.739ZM712.656 192.318C718.358 198.921 726.79 201.888 737.135 201.888V193.888C728.302 193.888 722.432 191.399 718.711 187.09L712.656 192.318ZM737.135 201.888C742.929 201.888 748.127 200.477 752.533 197.473L748.026 190.863C745.157 192.819 741.592 193.888 737.135 193.888V201.888ZM752.482 197.507C757.036 194.504 760.348 190.467 762.311 185.46L754.864 182.54C753.52 185.965 751.294 188.707 748.077 190.829L752.482 197.507ZM762.29 185.515L763.406 182.787L756.001 179.757L754.885 182.485L762.29 185.515ZM759.703 185.272H759.827V177.272H759.703V185.272ZM758.151 184.904L774.271 192.344L777.624 185.08L761.504 177.64L758.151 184.904ZM772.236 187.22C769.275 194.585 764.856 200.271 759.002 204.421L763.629 210.947C770.836 205.838 776.172 198.876 779.659 190.204L772.236 187.22ZM759.024 204.405C752.042 209.285 744.087 211.744 735.027 211.744V219.744C745.642 219.744 755.213 216.829 763.607 210.963L759.024 204.405ZM820.783 179.288H824.783V178.035L824.068 177.005L820.783 179.288ZM782.095 123.612V119.612H774.445L778.81 125.895L782.095 123.612ZM804.043 123.612L807.328 121.33L806.135 119.612H804.043V123.612ZM829.711 160.564L826.426 162.846L829.703 167.564L832.991 162.853L829.711 160.564ZM855.503 123.612V119.612H853.417L852.223 121.323L855.503 123.612ZM877.451 123.612L880.739 125.89L885.088 119.612H877.451V123.612ZM838.887 179.288L835.599 177.01L834.887 178.038V179.288H838.887ZM838.887 215V219H842.887V215H838.887ZM820.783 215H816.783V219H820.783V215ZM824.068 177.005L785.38 121.329L778.81 125.895L817.498 181.571L824.068 177.005ZM782.095 127.612H804.043V119.612H782.095V127.612ZM800.758 125.894L826.426 162.846L832.996 158.282L807.328 121.33L800.758 125.894ZM832.991 162.853L858.783 125.901L852.223 121.323L826.431 158.275L832.991 162.853ZM855.503 127.612H877.451V119.612H855.503V127.612ZM874.163 121.334L835.599 177.01L842.175 181.566L880.739 125.89L874.163 121.334ZM834.887 179.288V215H842.887V179.288H834.887ZM838.887 211H820.783V219H838.887V211ZM824.783 215V179.288H816.783V215H824.783ZM888.648 123.612V119.612H884.648V123.612H888.648ZM954.12 132.044L956.845 129.116L956.836 129.107L956.826 129.099L954.12 132.044ZM953.996 177.18L956.701 180.127L956.722 180.107L956.744 180.087L953.996 177.18ZM906.752 185.488V181.488H902.752V185.488H906.752ZM906.752 215V219H910.752V215H906.752ZM888.648 215H884.648V219H888.648V215ZM941.348 164.532L944.081 167.453L944.105 167.431L944.128 167.408L941.348 164.532ZM941.348 144.692L938.615 147.613L938.619 147.616L941.348 144.692ZM906.752 141.096V137.096H902.752V141.096H906.752ZM906.752 168.128H902.752V172.128H906.752V168.128ZM888.648 127.612H930.188V119.612H888.648V127.612ZM930.188 127.612C939.219 127.612 946.167 130.168 951.413 134.989L956.826 129.099C949.838 122.677 940.832 119.612 930.188 119.612V127.612ZM951.395 134.972C956.402 139.632 959.048 145.981 959.048 154.488H967.048C967.048 144.147 963.742 135.534 956.845 129.116L951.395 134.972ZM959.048 154.488C959.048 162.975 956.372 169.43 951.248 174.273L956.744 180.087C963.689 173.522 967.048 164.849 967.048 154.488H959.048ZM951.291 174.233C946.137 178.963 939.236 181.488 930.188 181.488V189.488C940.814 189.488 949.785 186.474 956.701 180.127L951.291 174.233ZM930.188 181.488H906.752V189.488H930.188V181.488ZM902.752 185.488V215H910.752V185.488H902.752ZM906.752 211H888.648V219H906.752V211ZM892.648 215V123.612H884.648V215H892.648ZM929.568 172.128C935.37 172.128 940.477 170.824 944.081 167.453L938.615 161.611C937.094 163.034 934.347 164.128 929.568 164.128V172.128ZM944.128 167.408C947.555 164.095 949.068 159.655 949.068 154.612H941.068C941.068 158.001 940.1 160.175 938.568 161.656L944.128 167.408ZM949.068 154.612C949.068 149.52 947.572 145.03 944.077 141.768L938.619 147.616C940.084 148.983 941.068 151.107 941.068 154.612H949.068ZM944.081 141.771C940.477 138.4 935.37 137.096 929.568 137.096V145.096C934.347 145.096 937.094 146.19 938.615 147.613L944.081 141.771ZM929.568 137.096H906.752V145.096H929.568V137.096ZM902.752 141.096V168.128H910.752V141.096H902.752ZM906.752 172.128H929.568V164.128H906.752V172.128ZM976.092 123.612V119.612H972.092V123.612H976.092ZM994.196 123.612H998.196V119.612H994.196V123.612ZM994.196 160.316H990.196V164.316H994.196V160.316ZM1033.63 160.316V164.316H1037.63V160.316H1033.63ZM1033.63 123.612V119.612H1029.63V123.612H1033.63ZM1051.61 123.612H1055.61V119.612H1051.61V123.612ZM1051.61 215V219H1055.61V215H1051.61ZM1033.63 215H1029.63V219H1033.63V215ZM1033.63 178.172H1037.63V174.172H1033.63V178.172ZM994.196 178.172V174.172H990.196V178.172H994.196ZM994.196 215V219H998.196V215H994.196ZM976.092 215H972.092V219H976.092V215ZM976.092 127.612H994.196V119.612H976.092V127.612ZM990.196 123.612V160.316H998.196V123.612H990.196ZM994.196 164.316H1033.63V156.316H994.196V164.316ZM1037.63 160.316V123.612H1029.63V160.316H1037.63ZM1033.63 127.612H1051.61V119.612H1033.63V127.612ZM1047.61 123.612V215H1055.61V123.612H1047.61ZM1051.61 211H1033.63V219H1051.61V211ZM1037.63 215V178.172H1029.63V215H1037.63ZM1033.63 174.172H994.196V182.172H1033.63V174.172ZM990.196 178.172V215H998.196V178.172H990.196ZM994.196 211H976.092V219H994.196V211ZM980.092 215V123.612H972.092V215H980.092ZM1072.01 123.612V119.612H1068.01V123.612H1072.01ZM1141.58 123.612H1145.58V119.612H1141.58V123.612ZM1141.58 141.22V145.22H1145.58V141.22H1141.58ZM1090.12 141.22V137.22H1086.12V141.22H1090.12ZM1090.12 160.316H1086.12V164.316H1090.12V160.316ZM1127.44 160.316H1131.44V156.316H1127.44V160.316ZM1127.44 178.172V182.172H1131.44V178.172H1127.44ZM1090.12 178.172V174.172H1086.12V178.172H1090.12ZM1090.12 197.268H1086.12V201.268H1090.12V197.268ZM1141.58 197.268H1145.58V193.268H1141.58V197.268ZM1141.58 215V219H1145.58V215H1141.58ZM1072.01 215H1068.01V219H1072.01V215ZM1072.01 127.612H1141.58V119.612H1072.01V127.612ZM1137.58 123.612V141.22H1145.58V123.612H1137.58ZM1141.58 137.22H1090.12V145.22H1141.58V137.22ZM1086.12 141.22V160.316H1094.12V141.22H1086.12ZM1090.12 164.316H1127.44V156.316H1090.12V164.316ZM1123.44 160.316V178.172H1131.44V160.316H1123.44ZM1127.44 174.172H1090.12V182.172H1127.44V174.172ZM1086.12 178.172V197.268H1094.12V178.172H1086.12ZM1090.12 201.268H1141.58V193.268H1090.12V201.268ZM1137.58 197.268V215H1145.58V197.268H1137.58ZM1141.58 211H1072.01V219H1141.58V211ZM1076.01 215V123.612H1068.01V215H1076.01ZM1157.04 123.612V119.612H1153.04V123.612H1157.04ZM1224.24 131.672L1226.95 128.723L1226.92 128.704L1226.9 128.685L1224.24 131.672ZM1229.2 169.244L1225.8 167.148L1225.79 167.157L1225.79 167.166L1229.2 169.244ZM1217.8 178.916L1219.18 182.669L1219.3 182.625L1219.41 182.574L1217.8 178.916ZM1215.44 179.784L1214.06 176.031L1209.53 177.699L1212.01 181.838L1215.44 179.784ZM1236.52 215V219H1243.58L1239.95 212.946L1236.52 215ZM1215.19 215L1211.72 216.992L1212.88 219H1215.19V215ZM1196.96 183.256L1200.43 181.264L1199.28 179.256H1196.96V183.256ZM1175.14 183.256V179.256H1171.14V183.256H1175.14ZM1175.14 215V219H1179.14V215H1175.14ZM1157.04 215H1153.04V219H1157.04V215ZM1213.95 159.572L1217.33 161.711L1217.39 161.614L1217.45 161.515L1213.95 159.572ZM1211.35 144.692L1213.97 141.676L1213.94 141.643L1213.9 141.612L1211.35 144.692ZM1175.14 141.096V137.096H1171.14V141.096H1175.14ZM1175.14 165.648H1171.14V169.648H1175.14V165.648ZM1157.04 127.612H1201.06V119.612H1157.04V127.612ZM1201.06 127.612C1209.67 127.612 1216.4 130.045 1221.58 134.659L1226.9 128.685C1220.02 122.552 1211.29 119.612 1201.06 119.612V127.612ZM1221.54 134.621C1226.54 139.205 1229.17 145.426 1229.17 153.744H1237.17C1237.17 143.545 1233.85 135.051 1226.95 128.723L1221.54 134.621ZM1229.17 153.744C1229.17 159.184 1227.98 163.593 1225.8 167.148L1232.61 171.34C1235.71 166.298 1237.17 160.373 1237.17 153.744H1229.17ZM1225.79 167.166C1223.7 170.603 1220.56 173.316 1216.18 175.258L1219.41 182.574C1225.11 180.052 1229.59 176.317 1232.62 171.322L1225.79 167.166ZM1216.41 175.163L1214.06 176.031L1216.82 183.537L1219.18 182.669L1216.41 175.163ZM1212.01 181.838L1233.09 217.054L1239.95 212.946L1218.87 177.73L1212.01 181.838ZM1236.52 211H1215.19V219H1236.52V211ZM1218.66 213.008L1200.43 181.264L1193.49 185.248L1211.72 216.992L1218.66 213.008ZM1196.96 179.256H1175.14V187.256H1196.96V179.256ZM1171.14 183.256V215H1179.14V183.256H1171.14ZM1175.14 211H1157.04V219H1175.14V211ZM1161.04 215V123.612H1153.04V215H1161.04ZM1199.32 169.648C1207.15 169.648 1213.71 167.428 1217.33 161.711L1210.57 157.433C1209.06 159.818 1205.87 161.648 1199.32 161.648V169.648ZM1217.45 161.515C1218.71 159.239 1219.19 156.559 1219.19 153.744H1211.19C1211.19 155.724 1210.84 156.929 1210.45 157.629L1217.45 161.515ZM1219.19 153.744C1219.19 148.939 1217.52 144.763 1213.97 141.676L1208.72 147.708C1210.3 149.085 1211.19 150.944 1211.19 153.744H1219.19ZM1213.9 141.612C1210.11 138.472 1205.28 137.096 1199.82 137.096V145.096C1203.94 145.096 1206.8 146.118 1208.8 147.772L1213.9 141.612ZM1199.82 137.096H1175.14V145.096H1199.82V137.096ZM1171.14 141.096V165.648H1179.14V141.096H1171.14ZM1175.14 169.648H1199.32V161.648H1175.14V169.648ZM1294.64 141.22H1298.64V137.22H1294.64V141.22ZM1282.37 141.22H1278.37V145.22H1282.37V141.22ZM1282.37 123.612V119.612H1278.37V123.612H1282.37ZM1312.75 123.612H1316.75V119.612H1312.75V123.612ZM1312.75 215V219H1316.75V215H1312.75ZM1294.64 215H1290.64V219H1294.64V215ZM1294.64 137.22H1282.37V145.22H1294.64V137.22ZM1286.37 141.22V123.612H1278.37V141.22H1286.37ZM1282.37 127.612H1312.75V119.612H1282.37V127.612ZM1308.75 123.612V215H1316.75V123.612H1308.75ZM1312.75 211H1294.64V219H1312.75V211ZM1298.64 215V141.22H1290.64V215H1298.64ZM1328.19 193.176V189.176H1324.19V193.176H1328.19ZM1348.4 193.176H1352.4V189.176H1348.4V193.176ZM1348.4 215V219H1352.4V215H1348.4ZM1328.19 215H1324.19V219H1328.19V215ZM1328.19 197.176H1348.4V189.176H1328.19V197.176ZM1344.4 193.176V215H1352.4V193.176H1344.4ZM1348.4 211H1328.19V219H1348.4V211ZM1332.19 215V193.176H1324.19V215H1332.19ZM1366.28 202.228L1362.76 204.132L1362.77 204.145L1362.77 204.157L1366.28 202.228ZM1366.28 135.888L1369.8 137.792L1369.8 137.792L1366.28 135.888ZM1419.23 137.748L1422.73 135.827L1422.73 135.815L1422.72 135.803L1419.23 137.748ZM1418.23 202.228L1414.73 200.299L1414.72 200.311L1414.72 200.324L1418.23 202.228ZM1401.37 194.416L1403.96 197.466L1403.98 197.444L1404.01 197.421L1401.37 194.416ZM1406.83 180.156L1402.86 179.627L1402.86 179.638L1402.86 179.649L1406.83 180.156ZM1403.48 146.18L1407 144.277L1406.99 144.263L1406.98 144.25L1403.48 146.18ZM1381.03 146.18L1384.55 148.087L1384.56 148.071L1384.57 148.055L1381.03 146.18ZM1381.03 191.936L1384.52 189.975L1384.51 189.95L1384.49 189.924L1381.03 191.936ZM1392.32 211.744C1381.02 211.744 1373.88 207.748 1369.78 200.299L1362.77 204.157C1368.59 214.73 1378.82 219.744 1392.32 219.744V211.744ZM1369.8 200.324C1365.31 192.04 1362.96 181.658 1362.96 168.996H1354.96C1354.96 182.622 1357.49 194.394 1362.76 204.132L1369.8 200.324ZM1362.96 168.996C1362.96 156.421 1365.31 146.079 1369.8 137.792L1362.76 133.984C1357.49 143.718 1354.96 155.448 1354.96 168.996H1362.96ZM1369.8 137.792C1373.82 130.347 1380.84 126.372 1391.95 126.372V118.372C1378.58 118.372 1368.48 123.407 1362.76 133.984L1369.8 137.792ZM1391.95 126.372C1397.63 126.372 1402.32 127.536 1406.16 129.701C1409.99 131.858 1413.19 135.13 1415.73 139.693L1422.72 135.803C1419.56 130.115 1415.36 125.7 1410.09 122.731C1404.84 119.77 1398.74 118.372 1391.95 118.372V126.372ZM1415.72 139.669C1419.58 146.727 1421.67 156.407 1421.67 168.996H1429.67C1429.67 155.628 1427.47 144.475 1422.73 135.827L1415.72 139.669ZM1421.67 168.996C1421.67 181.649 1419.29 192.021 1414.73 200.299L1421.74 204.157C1427.1 194.413 1429.67 182.631 1429.67 168.996H1421.67ZM1414.72 200.324C1410.7 207.749 1403.62 211.744 1392.32 211.744V219.744C1405.82 219.744 1416.02 214.728 1421.75 204.132L1414.72 200.324ZM1391.82 201.888C1396.39 201.888 1400.49 200.405 1403.96 197.466L1398.78 191.366C1396.79 193.056 1394.53 193.888 1391.82 193.888V201.888ZM1404.01 197.421C1407.91 193.994 1409.86 187.931 1410.79 180.663L1402.86 179.649C1401.97 186.599 1400.29 190.044 1398.73 191.411L1404.01 197.421ZM1410.79 180.685C1411.31 176.791 1411.57 172.894 1411.57 168.996H1403.57C1403.57 172.538 1403.33 176.081 1402.86 179.627L1410.79 180.685ZM1411.57 168.996C1411.57 158.605 1410.2 150.197 1407 144.277L1399.96 148.083C1402.21 152.248 1403.57 159.051 1403.57 168.996H1411.57ZM1406.98 144.25C1403.94 138.738 1398.76 136.104 1392.32 136.104V144.104C1396.29 144.104 1398.55 145.521 1399.97 148.11L1406.98 144.25ZM1392.32 136.104C1385.77 136.104 1380.48 138.696 1377.5 144.305L1384.57 148.055C1385.89 145.563 1388.12 144.104 1392.32 144.104V136.104ZM1377.52 144.273C1374.38 150.049 1373.07 158.479 1373.07 168.996H1381.07C1381.07 158.846 1382.39 152.066 1384.55 148.087L1377.52 144.273ZM1373.07 168.996C1373.07 179.854 1374.36 188.426 1377.58 193.948L1384.49 189.924C1382.41 186.353 1381.07 179.632 1381.07 168.996H1373.07ZM1377.55 193.897C1380.56 199.256 1385.57 201.888 1391.82 201.888V193.888C1388.15 193.888 1385.97 192.552 1384.52 189.975L1377.55 193.897Z" fill="url(#paint0_linear_454_3)"/>
<path d="M206.086 201.98L209.085 199.333L209.077 199.324L206.086 201.98ZM206.086 136.136L203.114 133.459L203.107 133.466L206.086 136.136ZM264.986 130.432L262.711 133.722L262.73 133.735L262.748 133.747L264.986 130.432ZM279.618 149.404L281.271 153.046L284.703 151.489L283.352 147.971L279.618 149.404ZM263.498 156.72V160.72H264.363L265.151 160.362L263.498 156.72ZM263.374 156.72L259.697 158.296L260.736 160.72H263.374V156.72ZM262.258 154.116L258.574 155.675L258.578 155.683L258.581 155.692L262.258 154.116ZM253.95 143.948L251.715 147.265L251.723 147.271L251.731 147.276L253.95 143.948ZM227.786 142.336L226.178 138.673L226.178 138.673L227.786 142.336ZM219.354 148.288L216.381 145.612L216.373 145.621L216.364 145.631L219.354 148.288ZM219.354 189.704L216.324 192.315L216.327 192.318L219.354 189.704ZM253.95 194.168L251.748 190.829L251.722 190.846L251.697 190.863L253.95 194.168ZM262.258 184L258.556 182.485L258.545 182.512L258.534 182.54L262.258 184ZM263.374 181.272V177.272H260.689L259.672 179.757L263.374 181.272ZM263.498 181.272L265.174 177.64L264.377 177.272H263.498V181.272ZM279.618 188.712L283.329 190.204L284.749 186.674L281.294 185.08L279.618 188.712ZM264.986 207.684L267.278 210.963L267.288 210.955L267.299 210.947L264.986 207.684ZM238.698 211.744C226.059 211.744 216.335 207.545 209.085 199.333L203.088 204.627C212.04 214.767 224.057 219.744 238.698 219.744V211.744ZM209.077 199.324C201.948 191.294 198.306 181.278 198.306 168.996H190.306C190.306 183.002 194.518 194.975 203.095 204.636L209.077 199.324ZM198.306 168.996C198.306 156.713 201.947 146.747 209.065 138.806L203.107 133.466C194.518 143.05 190.306 154.991 190.306 168.996H198.306ZM209.058 138.813C216.492 130.561 226.241 126.372 238.698 126.372V118.372C224.206 118.372 212.213 123.359 203.114 133.459L209.058 138.813ZM238.698 126.372C247.668 126.372 255.632 128.827 262.711 133.722L267.261 127.142C258.799 121.291 249.237 118.372 238.698 118.372V126.372ZM262.748 133.747C268.614 137.707 273.006 143.34 275.884 150.837L283.352 147.971C279.947 139.1 274.584 132.085 267.224 127.117L262.748 133.747ZM277.965 145.762L261.845 153.078L265.151 160.362L281.271 153.046L277.965 145.762ZM263.498 152.72H263.374V160.72H263.498V152.72ZM267.051 155.144L265.935 152.54L258.581 155.692L259.697 158.296L267.051 155.144ZM265.942 152.557C263.833 147.572 260.569 143.553 256.169 140.62L251.731 147.276C254.771 149.303 257.046 152.063 258.574 155.675L265.942 152.557ZM256.185 140.631C251.668 137.587 246.494 136.104 240.806 136.104V144.104C245.038 144.104 248.627 145.184 251.715 147.265L256.185 140.631ZM240.806 136.104C235.182 136.104 230.243 136.889 226.178 138.673L229.394 145.999C232.108 144.807 235.849 144.104 240.806 144.104V136.104ZM226.178 138.673C222.326 140.365 219.032 142.666 216.381 145.612L222.327 150.964C224.14 148.95 226.467 147.283 229.394 145.999L226.178 138.673ZM216.364 145.631C210.941 151.731 208.41 159.658 208.41 168.996H216.41C216.41 161.14 218.508 155.261 222.344 150.945L216.364 145.631ZM208.41 168.996C208.41 178.196 210.955 186.083 216.324 192.315L222.385 187.093C218.494 182.578 216.41 176.66 216.41 168.996H208.41ZM216.327 192.318C222.029 198.921 230.461 201.888 240.806 201.888V193.888C231.973 193.888 226.103 191.399 222.381 187.09L216.327 192.318ZM240.806 201.888C246.6 201.888 251.798 200.477 256.203 197.473L251.697 190.863C248.827 192.819 245.263 193.888 240.806 193.888V201.888ZM256.152 197.507C260.706 194.504 264.019 190.467 265.982 185.46L258.534 182.54C257.191 185.965 254.965 188.707 251.748 190.829L256.152 197.507ZM265.96 185.515L267.076 182.787L259.672 179.757L258.556 182.485L265.96 185.515ZM263.374 185.272H263.498V177.272H263.374V185.272ZM261.822 184.904L277.942 192.344L281.294 185.08L265.174 177.64L261.822 184.904ZM275.907 187.22C272.945 194.585 268.527 200.271 262.673 204.421L267.299 210.947C274.506 205.838 279.843 198.876 283.329 190.204L275.907 187.22ZM262.695 204.405C255.712 209.285 247.758 211.744 238.698 211.744V219.744C249.313 219.744 258.884 216.829 267.278 210.963L262.695 204.405ZM324.454 179.288H328.454V178.035L327.739 177.005L324.454 179.288ZM285.766 123.612V119.612H278.115L282.481 125.895L285.766 123.612ZM307.714 123.612L310.999 121.33L309.806 119.612H307.714V123.612ZM333.382 160.564L330.097 162.846L333.374 167.564L336.662 162.853L333.382 160.564ZM359.174 123.612V119.612H357.088L355.894 121.323L359.174 123.612ZM381.122 123.612L384.41 125.89L388.758 119.612H381.122V123.612ZM342.558 179.288L339.27 177.01L338.558 178.038V179.288H342.558ZM342.558 215V219H346.558V215H342.558ZM324.454 215H320.454V219H324.454V215ZM327.739 177.005L289.051 121.329L282.481 125.895L321.169 181.571L327.739 177.005ZM285.766 127.612H307.714V119.612H285.766V127.612ZM304.429 125.894L330.097 162.846L336.667 158.282L310.999 121.33L304.429 125.894ZM336.662 162.853L362.454 125.901L355.894 121.323L330.102 158.275L336.662 162.853ZM359.174 127.612H381.122V119.612H359.174V127.612ZM377.834 121.334L339.27 177.01L345.846 181.566L384.41 125.89L377.834 121.334ZM338.558 179.288V215H346.558V179.288H338.558ZM342.558 211H324.454V219H342.558V211ZM328.454 215V179.288H320.454V215H328.454ZM392.319 123.612V119.612H388.319V123.612H392.319ZM457.295 132.168L454.425 134.955L454.445 134.976L454.466 134.996L457.295 132.168ZM457.419 167.756L454.643 164.876L451.079 168.31L455.185 171.074L457.419 167.756ZM466.719 179.164L463.009 180.661L463.031 180.714L463.054 180.767L466.719 179.164ZM463.619 204.088L460.465 201.628L460.458 201.637L463.619 204.088ZM449.607 213.016L448.434 209.192L448.35 209.218L448.267 209.247L449.607 213.016ZM392.319 215H388.319V219H392.319V215ZM445.267 155.108L441.689 153.319L441.672 153.352L441.657 153.385L445.267 155.108ZM445.515 146.924L441.781 148.36L441.824 148.471L441.873 148.579L445.515 146.924ZM443.779 144.196L440.893 146.966L440.921 146.996L440.95 147.024L443.779 144.196ZM410.423 141.096V137.096H406.423V141.096H410.423ZM410.423 160.564H406.423V164.564H410.423V160.564ZM447.499 194.788L445.099 191.588L445.07 191.609L445.043 191.631L447.499 194.788ZM447.375 181.148L444.699 184.121L444.715 184.136L444.732 184.151L447.375 181.148ZM410.423 177.8V173.8H406.423V177.8H410.423ZM410.423 197.392H406.423V201.392H410.423V197.392ZM392.319 127.612H433.735V119.612H392.319V127.612ZM433.735 127.612C443.139 127.612 449.835 130.228 454.425 134.955L460.164 129.381C453.677 122.7 444.666 119.612 433.735 119.612V127.612ZM454.466 134.996C458.277 138.807 460.239 143.627 460.239 149.776H468.239C468.239 141.706 465.571 134.787 460.123 129.34L454.466 134.996ZM460.239 149.776C460.239 156.534 458.25 161.399 454.643 164.876L460.194 170.636C465.68 165.35 468.239 158.229 468.239 149.776H460.239ZM455.185 171.074C458.835 173.531 461.413 176.705 463.009 180.661L470.428 177.667C468.221 172.199 464.6 167.768 459.652 164.438L455.185 171.074ZM463.054 180.767C463.928 182.765 464.455 185.446 464.455 188.96H472.455C472.455 184.703 471.824 180.854 470.383 177.561L463.054 180.767ZM464.455 188.96C464.455 194.147 463.067 198.291 460.465 201.628L466.773 206.548C470.618 201.618 472.455 195.677 472.455 188.96H464.455ZM460.458 201.637C457.941 204.882 454.055 207.468 448.434 209.192L450.779 216.84C457.558 214.761 463.013 211.396 466.779 206.539L460.458 201.637ZM448.267 209.247C445.106 210.371 441.004 211 435.843 211V219C441.594 219 446.667 218.307 450.947 216.785L448.267 209.247ZM435.843 211H392.319V219H435.843V211ZM396.319 215V123.612H388.319V215H396.319ZM433.735 164.564C440.395 164.564 446.18 162.48 448.876 156.831L441.657 153.385C440.881 155.011 438.978 156.564 433.735 156.564V164.564ZM448.844 156.897C449.74 155.106 450.135 153.156 450.135 151.14H442.135C442.135 152.1 441.951 152.795 441.689 153.319L448.844 156.897ZM450.135 151.14C450.135 149.092 449.934 146.98 449.156 145.269L441.873 148.579C441.87 148.571 441.891 148.617 441.922 148.734C441.953 148.85 441.989 149.016 442.022 149.242C442.089 149.7 442.135 150.323 442.135 151.14H450.135ZM449.248 145.488C448.653 143.941 447.783 142.543 446.607 141.368L440.95 147.024C441.262 147.337 441.55 147.758 441.781 148.36L449.248 145.488ZM446.664 141.426C443.658 138.295 439.408 137.096 434.727 137.096V145.096C438.147 145.096 439.931 145.964 440.893 146.966L446.664 141.426ZM434.727 137.096H410.423V145.096H434.727V137.096ZM406.423 141.096V160.564H414.423V141.096H406.423ZM410.423 164.564H433.735V156.564H410.423V164.564ZM436.959 201.392C442.081 201.392 446.678 200.494 449.954 197.945L445.043 191.631C443.855 192.554 441.425 193.392 436.959 193.392V201.392ZM449.899 197.988C453.066 195.612 454.475 192.13 454.475 188.216H446.475C446.475 190.088 445.899 190.988 445.099 191.588L449.899 197.988ZM454.475 188.216C454.475 184.24 452.995 180.766 450.017 178.145L444.732 184.151C445.887 185.167 446.475 186.406 446.475 188.216H454.475ZM450.05 178.175C446.519 174.997 441.508 173.8 435.843 173.8V181.8C440.593 181.8 443.27 182.835 444.699 184.121L450.05 178.175ZM435.843 173.8H410.423V181.8H435.843V173.8ZM406.423 177.8V197.392H414.423V177.8H406.423ZM410.423 201.392H436.959V193.392H410.423V201.392ZM484.001 123.612V119.612H480.001V123.612H484.001ZM553.565 123.612H557.565V119.612H553.565V123.612ZM553.565 141.22V145.22H557.565V141.22H553.565ZM502.105 141.22V137.22H498.105V141.22H502.105ZM502.105 160.316H498.105V164.316H502.105V160.316ZM539.429 160.316H543.429V156.316H539.429V160.316ZM539.429 178.172V182.172H543.429V178.172H539.429ZM502.105 178.172V174.172H498.105V178.172H502.105ZM502.105 197.268H498.105V201.268H502.105V197.268ZM553.565 197.268H557.565V193.268H553.565V197.268ZM553.565 215V219H557.565V215H553.565ZM484.001 215H480.001V219H484.001V215ZM484.001 127.612H553.565V119.612H484.001V127.612ZM549.565 123.612V141.22H557.565V123.612H549.565ZM553.565 137.22H502.105V145.22H553.565V137.22ZM498.105 141.22V160.316H506.105V141.22H498.105ZM502.105 164.316H539.429V156.316H502.105V164.316ZM535.429 160.316V178.172H543.429V160.316H535.429ZM539.429 174.172H502.105V182.172H539.429V174.172ZM498.105 178.172V197.268H506.105V178.172H498.105ZM502.105 201.268H553.565V193.268H502.105V201.268ZM549.565 197.268V215H557.565V197.268H549.565ZM553.565 211H484.001V219H553.565V211ZM488.001 215V123.612H480.001V215H488.001ZM569.023 123.612V119.612H565.023V123.612H569.023ZM636.231 131.672L638.934 128.723L638.913 128.704L638.891 128.685L636.231 131.672ZM641.191 169.244L637.785 167.148L637.779 167.157L637.773 167.166L641.191 169.244ZM629.783 178.916L631.166 182.669L631.286 182.625L631.402 182.574L629.783 178.916ZM627.427 179.784L626.045 176.031L621.517 177.699L623.995 181.838L627.427 179.784ZM648.507 215V219H655.564L651.939 212.946L648.507 215ZM627.179 215L623.711 216.992L624.864 219H627.179V215ZM608.951 183.256L612.42 181.264L611.267 179.256H608.951V183.256ZM587.127 183.256V179.256H583.127V183.256H587.127ZM587.127 215V219H591.127V215H587.127ZM569.023 215H565.023V219H569.023V215ZM625.939 159.572L629.32 161.711L629.381 161.614L629.436 161.515L625.939 159.572ZM623.335 144.692L625.963 141.676L625.925 141.643L625.887 141.612L623.335 144.692ZM587.127 141.096V137.096H583.127V141.096H587.127ZM587.127 165.648H583.127V169.648H587.127V165.648ZM569.023 127.612H613.043V119.612H569.023V127.612ZM613.043 127.612C621.66 127.612 628.389 130.045 633.571 134.659L638.891 128.685C632.004 122.552 623.275 119.612 613.043 119.612V127.612ZM633.528 134.621C638.529 139.205 641.159 145.426 641.159 153.744H649.159C649.159 143.545 645.837 135.051 638.934 128.723L633.528 134.621ZM641.159 153.744C641.159 159.184 639.972 163.593 637.785 167.148L644.598 171.34C647.701 166.298 649.159 160.373 649.159 153.744H641.159ZM637.773 167.166C635.684 170.603 632.552 173.316 628.164 175.258L631.402 182.574C637.1 180.052 641.573 176.317 644.609 171.322L637.773 167.166ZM628.401 175.163L626.045 176.031L628.81 183.537L631.166 182.669L628.401 175.163ZM623.995 181.838L645.075 217.054L651.939 212.946L630.859 177.73L623.995 181.838ZM648.507 211H627.179V219H648.507V211ZM630.648 213.008L612.42 181.264L605.483 185.248L623.711 216.992L630.648 213.008ZM608.951 179.256H587.127V187.256H608.951V179.256ZM583.127 183.256V215H591.127V183.256H583.127ZM587.127 211H569.023V219H587.127V211ZM573.023 215V123.612H565.023V215H573.023ZM611.307 169.648C619.137 169.648 625.703 167.428 629.32 161.711L622.559 157.433C621.051 159.818 617.862 161.648 611.307 161.648V169.648ZM629.436 161.515C630.7 159.239 631.179 156.559 631.179 153.744H623.179C623.179 155.724 622.832 156.929 622.443 157.629L629.436 161.515ZM631.179 153.744C631.179 148.939 629.507 144.763 625.963 141.676L620.708 147.708C622.289 149.085 623.179 150.944 623.179 153.744H631.179ZM625.887 141.612C622.097 138.472 617.267 137.096 611.803 137.096V145.096C615.929 145.096 618.787 146.118 620.783 147.772L625.887 141.612ZM611.803 137.096H587.127V145.096H611.803V137.096ZM583.127 141.096V165.648H591.127V141.096H583.127ZM587.127 169.648H611.307V161.648H587.127V169.648ZM702.415 201.98L705.414 199.333L705.407 199.324L702.415 201.98ZM702.415 136.136L699.444 133.459L699.437 133.466L702.415 136.136ZM761.315 130.432L759.04 133.722L759.059 133.735L759.078 133.747L761.315 130.432ZM775.947 149.404L777.601 153.046L781.032 151.489L779.682 147.971L775.947 149.404ZM759.827 156.72V160.72H760.693L761.481 160.362L759.827 156.72ZM759.703 156.72L756.027 158.296L757.066 160.72H759.703V156.72ZM758.587 154.116L754.904 155.675L754.907 155.683L754.911 155.692L758.587 154.116ZM750.279 143.948L748.044 147.265L748.052 147.271L748.061 147.276L750.279 143.948ZM724.115 142.336L722.507 138.673L722.507 138.673L724.115 142.336ZM715.683 148.288L712.71 145.612L712.702 145.621L712.694 145.631L715.683 148.288ZM715.683 189.704L712.653 192.315L712.656 192.318L715.683 189.704ZM750.279 194.168L748.077 190.829L748.051 190.846L748.026 190.863L750.279 194.168ZM758.587 184L754.885 182.485L754.874 182.512L754.864 182.54L758.587 184ZM759.703 181.272V177.272H757.018L756.001 179.757L759.703 181.272ZM759.827 181.272L761.504 177.64L760.706 177.272H759.827V181.272ZM775.947 188.712L779.659 190.204L781.078 186.674L777.624 185.08L775.947 188.712ZM761.315 207.684L763.607 210.963L763.618 210.955L763.629 210.947L761.315 207.684ZM735.027 211.744C722.388 211.744 712.664 207.545 705.414 199.333L699.417 204.627C708.369 214.767 720.387 219.744 735.027 219.744V211.744ZM705.407 199.324C698.277 191.294 694.635 181.278 694.635 168.996H686.635C686.635 183.002 690.847 194.975 699.424 204.636L705.407 199.324ZM694.635 168.996C694.635 156.713 698.277 146.747 705.394 138.806L699.437 133.466C690.847 143.05 686.635 154.991 686.635 168.996H694.635ZM705.387 138.813C712.821 130.561 722.57 126.372 735.027 126.372V118.372C720.535 118.372 708.543 123.359 699.444 133.459L705.387 138.813ZM735.027 126.372C743.997 126.372 751.961 128.827 759.04 133.722L763.59 127.142C755.128 121.291 745.567 118.372 735.027 118.372V126.372ZM759.078 133.747C764.944 137.707 769.335 143.34 772.213 150.837L779.682 147.971C776.277 139.1 770.914 132.085 763.553 127.117L759.078 133.747ZM774.294 145.762L758.174 153.078L761.481 160.362L777.601 153.046L774.294 145.762ZM759.827 152.72H759.703V160.72H759.827V152.72ZM763.38 155.144L762.264 152.54L754.911 155.692L756.027 158.296L763.38 155.144ZM762.271 152.557C760.162 147.572 756.899 143.553 752.498 140.62L748.061 147.276C751.1 149.303 753.376 152.063 754.904 155.675L762.271 152.557ZM752.515 140.631C747.997 137.587 742.824 136.104 737.135 136.104V144.104C741.367 144.104 744.956 145.184 748.044 147.265L752.515 140.631ZM737.135 136.104C731.511 136.104 726.572 136.889 722.507 138.673L725.723 145.999C728.437 144.807 732.179 144.104 737.135 144.104V136.104ZM722.507 138.673C718.655 140.365 715.362 142.666 712.71 145.612L718.657 150.964C720.469 148.95 722.797 147.283 725.723 145.999L722.507 138.673ZM712.694 145.631C707.271 151.731 704.739 159.658 704.739 168.996H712.739C712.739 161.14 714.837 155.261 718.673 150.945L712.694 145.631ZM704.739 168.996C704.739 178.196 707.284 186.083 712.653 192.315L718.714 187.093C714.824 182.578 712.739 176.66 712.739 168.996H704.739ZM712.656 192.318C718.358 198.921 726.79 201.888 737.135 201.888V193.888C728.302 193.888 722.432 191.399 718.711 187.09L712.656 192.318ZM737.135 201.888C742.929 201.888 748.127 200.477 752.533 197.473L748.026 190.863C745.157 192.819 741.592 193.888 737.135 193.888V201.888ZM752.482 197.507C757.036 194.504 760.348 190.467 762.311 185.46L754.864 182.54C753.52 185.965 751.294 188.707 748.077 190.829L752.482 197.507ZM762.29 185.515L763.406 182.787L756.001 179.757L754.885 182.485L762.29 185.515ZM759.703 185.272H759.827V177.272H759.703V185.272ZM758.151 184.904L774.271 192.344L777.624 185.08L761.504 177.64L758.151 184.904ZM772.236 187.22C769.275 194.585 764.856 200.271 759.002 204.421L763.629 210.947C770.836 205.838 776.172 198.876 779.659 190.204L772.236 187.22ZM759.024 204.405C752.042 209.285 744.087 211.744 735.027 211.744V219.744C745.642 219.744 755.213 216.829 763.607 210.963L759.024 204.405ZM820.783 179.288H824.783V178.035L824.068 177.005L820.783 179.288ZM782.095 123.612V119.612H774.445L778.81 125.895L782.095 123.612ZM804.043 123.612L807.328 121.33L806.135 119.612H804.043V123.612ZM829.711 160.564L826.426 162.846L829.703 167.564L832.991 162.853L829.711 160.564ZM855.503 123.612V119.612H853.417L852.223 121.323L855.503 123.612ZM877.451 123.612L880.739 125.89L885.088 119.612H877.451V123.612ZM838.887 179.288L835.599 177.01L834.887 178.038V179.288H838.887ZM838.887 215V219H842.887V215H838.887ZM820.783 215H816.783V219H820.783V215ZM824.068 177.005L785.38 121.329L778.81 125.895L817.498 181.571L824.068 177.005ZM782.095 127.612H804.043V119.612H782.095V127.612ZM800.758 125.894L826.426 162.846L832.996 158.282L807.328 121.33L800.758 125.894ZM832.991 162.853L858.783 125.901L852.223 121.323L826.431 158.275L832.991 162.853ZM855.503 127.612H877.451V119.612H855.503V127.612ZM874.163 121.334L835.599 177.01L842.175 181.566L880.739 125.89L874.163 121.334ZM834.887 179.288V215H842.887V179.288H834.887ZM838.887 211H820.783V219H838.887V211ZM824.783 215V179.288H816.783V215H824.783ZM888.648 123.612V119.612H884.648V123.612H888.648ZM954.12 132.044L956.845 129.116L956.836 129.107L956.826 129.099L954.12 132.044ZM953.996 177.18L956.701 180.127L956.722 180.107L956.744 180.087L953.996 177.18ZM906.752 185.488V181.488H902.752V185.488H906.752ZM906.752 215V219H910.752V215H906.752ZM888.648 215H884.648V219H888.648V215ZM941.348 164.532L944.081 167.453L944.105 167.431L944.128 167.408L941.348 164.532ZM941.348 144.692L938.615 147.613L938.619 147.616L941.348 144.692ZM906.752 141.096V137.096H902.752V141.096H906.752ZM906.752 168.128H902.752V172.128H906.752V168.128ZM888.648 127.612H930.188V119.612H888.648V127.612ZM930.188 127.612C939.219 127.612 946.167 130.168 951.413 134.989L956.826 129.099C949.838 122.677 940.832 119.612 930.188 119.612V127.612ZM951.395 134.972C956.402 139.632 959.048 145.981 959.048 154.488H967.048C967.048 144.147 963.742 135.534 956.845 129.116L951.395 134.972ZM959.048 154.488C959.048 162.975 956.372 169.43 951.248 174.273L956.744 180.087C963.689 173.522 967.048 164.849 967.048 154.488H959.048ZM951.291 174.233C946.137 178.963 939.236 181.488 930.188 181.488V189.488C940.814 189.488 949.785 186.474 956.701 180.127L951.291 174.233ZM930.188 181.488H906.752V189.488H930.188V181.488ZM902.752 185.488V215H910.752V185.488H902.752ZM906.752 211H888.648V219H906.752V211ZM892.648 215V123.612H884.648V215H892.648ZM929.568 172.128C935.37 172.128 940.477 170.824 944.081 167.453L938.615 161.611C937.094 163.034 934.347 164.128 929.568 164.128V172.128ZM944.128 167.408C947.555 164.095 949.068 159.655 949.068 154.612H941.068C941.068 158.001 940.1 160.175 938.568 161.656L944.128 167.408ZM949.068 154.612C949.068 149.52 947.572 145.03 944.077 141.768L938.619 147.616C940.084 148.983 941.068 151.107 941.068 154.612H949.068ZM944.081 141.771C940.477 138.4 935.37 137.096 929.568 137.096V145.096C934.347 145.096 937.094 146.19 938.615 147.613L944.081 141.771ZM929.568 137.096H906.752V145.096H929.568V137.096ZM902.752 141.096V168.128H910.752V141.096H902.752ZM906.752 172.128H929.568V164.128H906.752V172.128ZM976.092 123.612V119.612H972.092V123.612H976.092ZM994.196 123.612H998.196V119.612H994.196V123.612ZM994.196 160.316H990.196V164.316H994.196V160.316ZM1033.63 160.316V164.316H1037.63V160.316H1033.63ZM1033.63 123.612V119.612H1029.63V123.612H1033.63ZM1051.61 123.612H1055.61V119.612H1051.61V123.612ZM1051.61 215V219H1055.61V215H1051.61ZM1033.63 215H1029.63V219H1033.63V215ZM1033.63 178.172H1037.63V174.172H1033.63V178.172ZM994.196 178.172V174.172H990.196V178.172H994.196ZM994.196 215V219H998.196V215H994.196ZM976.092 215H972.092V219H976.092V215ZM976.092 127.612H994.196V119.612H976.092V127.612ZM990.196 123.612V160.316H998.196V123.612H990.196ZM994.196 164.316H1033.63V156.316H994.196V164.316ZM1037.63 160.316V123.612H1029.63V160.316H1037.63ZM1033.63 127.612H1051.61V119.612H1033.63V127.612ZM1047.61 123.612V215H1055.61V123.612H1047.61ZM1051.61 211H1033.63V219H1051.61V211ZM1037.63 215V178.172H1029.63V215H1037.63ZM1033.63 174.172H994.196V182.172H1033.63V174.172ZM990.196 178.172V215H998.196V178.172H990.196ZM994.196 211H976.092V219H994.196V211ZM980.092 215V123.612H972.092V215H980.092ZM1072.01 123.612V119.612H1068.01V123.612H1072.01ZM1141.58 123.612H1145.58V119.612H1141.58V123.612ZM1141.58 141.22V145.22H1145.58V141.22H1141.58ZM1090.12 141.22V137.22H1086.12V141.22H1090.12ZM1090.12 160.316H1086.12V164.316H1090.12V160.316ZM1127.44 160.316H1131.44V156.316H1127.44V160.316ZM1127.44 178.172V182.172H1131.44V178.172H1127.44ZM1090.12 178.172V174.172H1086.12V178.172H1090.12ZM1090.12 197.268H1086.12V201.268H1090.12V197.268ZM1141.58 197.268H1145.58V193.268H1141.58V197.268ZM1141.58 215V219H1145.58V215H1141.58ZM1072.01 215H1068.01V219H1072.01V215ZM1072.01 127.612H1141.58V119.612H1072.01V127.612ZM1137.58 123.612V141.22H1145.58V123.612H1137.58ZM1141.58 137.22H1090.12V145.22H1141.58V137.22ZM1086.12 141.22V160.316H1094.12V141.22H1086.12ZM1090.12 164.316H1127.44V156.316H1090.12V164.316ZM1123.44 160.316V178.172H1131.44V160.316H1123.44ZM1127.44 174.172H1090.12V182.172H1127.44V174.172ZM1086.12 178.172V197.268H1094.12V178.172H1086.12ZM1090.12 201.268H1141.58V193.268H1090.12V201.268ZM1137.58 197.268V215H1145.58V197.268H1137.58ZM1141.58 211H1072.01V219H1141.58V211ZM1076.01 215V123.612H1068.01V215H1076.01ZM1157.04 123.612V119.612H1153.04V123.612H1157.04ZM1224.24 131.672L1226.95 128.723L1226.92 128.704L1226.9 128.685L1224.24 131.672ZM1229.2 169.244L1225.8 167.148L1225.79 167.157L1225.79 167.166L1229.2 169.244ZM1217.8 178.916L1219.18 182.669L1219.3 182.625L1219.41 182.574L1217.8 178.916ZM1215.44 179.784L1214.06 176.031L1209.53 177.699L1212.01 181.838L1215.44 179.784ZM1236.52 215V219H1243.58L1239.95 212.946L1236.52 215ZM1215.19 215L1211.72 216.992L1212.88 219H1215.19V215ZM1196.96 183.256L1200.43 181.264L1199.28 179.256H1196.96V183.256ZM1175.14 183.256V179.256H1171.14V183.256H1175.14ZM1175.14 215V219H1179.14V215H1175.14ZM1157.04 215H1153.04V219H1157.04V215ZM1213.95 159.572L1217.33 161.711L1217.39 161.614L1217.45 161.515L1213.95 159.572ZM1211.35 144.692L1213.97 141.676L1213.94 141.643L1213.9 141.612L1211.35 144.692ZM1175.14 141.096V137.096H1171.14V141.096H1175.14ZM1175.14 165.648H1171.14V169.648H1175.14V165.648ZM1157.04 127.612H1201.06V119.612H1157.04V127.612ZM1201.06 127.612C1209.67 127.612 1216.4 130.045 1221.58 134.659L1226.9 128.685C1220.02 122.552 1211.29 119.612 1201.06 119.612V127.612ZM1221.54 134.621C1226.54 139.205 1229.17 145.426 1229.17 153.744H1237.17C1237.17 143.545 1233.85 135.051 1226.95 128.723L1221.54 134.621ZM1229.17 153.744C1229.17 159.184 1227.98 163.593 1225.8 167.148L1232.61 171.34C1235.71 166.298 1237.17 160.373 1237.17 153.744H1229.17ZM1225.79 167.166C1223.7 170.603 1220.56 173.316 1216.18 175.258L1219.41 182.574C1225.11 180.052 1229.59 176.317 1232.62 171.322L1225.79 167.166ZM1216.41 175.163L1214.06 176.031L1216.82 183.537L1219.18 182.669L1216.41 175.163ZM1212.01 181.838L1233.09 217.054L1239.95 212.946L1218.87 177.73L1212.01 181.838ZM1236.52 211H1215.19V219H1236.52V211ZM1218.66 213.008L1200.43 181.264L1193.49 185.248L1211.72 216.992L1218.66 213.008ZM1196.96 179.256H1175.14V187.256H1196.96V179.256ZM1171.14 183.256V215H1179.14V183.256H1171.14ZM1175.14 211H1157.04V219H1175.14V211ZM1161.04 215V123.612H1153.04V215H1161.04ZM1199.32 169.648C1207.15 169.648 1213.71 167.428 1217.33 161.711L1210.57 157.433C1209.06 159.818 1205.87 161.648 1199.32 161.648V169.648ZM1217.45 161.515C1218.71 159.239 1219.19 156.559 1219.19 153.744H1211.19C1211.19 155.724 1210.84 156.929 1210.45 157.629L1217.45 161.515ZM1219.19 153.744C1219.19 148.939 1217.52 144.763 1213.97 141.676L1208.72 147.708C1210.3 149.085 1211.19 150.944 1211.19 153.744H1219.19ZM1213.9 141.612C1210.11 138.472 1205.28 137.096 1199.82 137.096V145.096C1203.94 145.096 1206.8 146.118 1208.8 147.772L1213.9 141.612ZM1199.82 137.096H1175.14V145.096H1199.82V137.096ZM1171.14 141.096V165.648H1179.14V141.096H1171.14ZM1175.14 169.648H1199.32V161.648H1175.14V169.648ZM1294.64 141.22H1298.64V137.22H1294.64V141.22ZM1282.37 141.22H1278.37V145.22H1282.37V141.22ZM1282.37 123.612V119.612H1278.37V123.612H1282.37ZM1312.75 123.612H1316.75V119.612H1312.75V123.612ZM1312.75 215V219H1316.75V215H1312.75ZM1294.64 215H1290.64V219H1294.64V215ZM1294.64 137.22H1282.37V145.22H1294.64V137.22ZM1286.37 141.22V123.612H1278.37V141.22H1286.37ZM1282.37 127.612H1312.75V119.612H1282.37V127.612ZM1308.75 123.612V215H1316.75V123.612H1308.75ZM1312.75 211H1294.64V219H1312.75V211ZM1298.64 215V141.22H1290.64V215H1298.64ZM1328.19 193.176V189.176H1324.19V193.176H1328.19ZM1348.4 193.176H1352.4V189.176H1348.4V193.176ZM1348.4 215V219H1352.4V215H1348.4ZM1328.19 215H1324.19V219H1328.19V215ZM1328.19 197.176H1348.4V189.176H1328.19V197.176ZM1344.4 193.176V215H1352.4V193.176H1344.4ZM1348.4 211H1328.19V219H1348.4V211ZM1332.19 215V193.176H1324.19V215H1332.19ZM1366.28 202.228L1362.76 204.132L1362.77 204.145L1362.77 204.157L1366.28 202.228ZM1366.28 135.888L1369.8 137.792L1369.8 137.792L1366.28 135.888ZM1419.23 137.748L1422.73 135.827L1422.73 135.815L1422.72 135.803L1419.23 137.748ZM1418.23 202.228L1414.73 200.299L1414.72 200.311L1414.72 200.324L1418.23 202.228ZM1401.37 194.416L1403.96 197.466L1403.98 197.444L1404.01 197.421L1401.37 194.416ZM1406.83 180.156L1402.86 179.627L1402.86 179.638L1402.86 179.649L1406.83 180.156ZM1403.48 146.18L1407 144.277L1406.99 144.263L1406.98 144.25L1403.48 146.18ZM1381.03 146.18L1384.55 148.087L1384.56 148.071L1384.57 148.055L1381.03 146.18ZM1381.03 191.936L1384.52 189.975L1384.51 189.95L1384.49 189.924L1381.03 191.936ZM1392.32 211.744C1381.02 211.744 1373.88 207.748 1369.78 200.299L1362.77 204.157C1368.59 214.73 1378.82 219.744 1392.32 219.744V211.744ZM1369.8 200.324C1365.31 192.04 1362.96 181.658 1362.96 168.996H1354.96C1354.96 182.622 1357.49 194.394 1362.76 204.132L1369.8 200.324ZM1362.96 168.996C1362.96 156.421 1365.31 146.079 1369.8 137.792L1362.76 133.984C1357.49 143.718 1354.96 155.448 1354.96 168.996H1362.96ZM1369.8 137.792C1373.82 130.347 1380.84 126.372 1391.95 126.372V118.372C1378.58 118.372 1368.48 123.407 1362.76 133.984L1369.8 137.792ZM1391.95 126.372C1397.63 126.372 1402.32 127.536 1406.16 129.701C1409.99 131.858 1413.19 135.13 1415.73 139.693L1422.72 135.803C1419.56 130.115 1415.36 125.7 1410.09 122.731C1404.84 119.77 1398.74 118.372 1391.95 118.372V126.372ZM1415.72 139.669C1419.58 146.727 1421.67 156.407 1421.67 168.996H1429.67C1429.67 155.628 1427.47 144.475 1422.73 135.827L1415.72 139.669ZM1421.67 168.996C1421.67 181.649 1419.29 192.021 1414.73 200.299L1421.74 204.157C1427.1 194.413 1429.67 182.631 1429.67 168.996H1421.67ZM1414.72 200.324C1410.7 207.749 1403.62 211.744 1392.32 211.744V219.744C1405.82 219.744 1416.02 214.728 1421.75 204.132L1414.72 200.324ZM1391.82 201.888C1396.39 201.888 1400.49 200.405 1403.96 197.466L1398.78 191.366C1396.79 193.056 1394.53 193.888 1391.82 193.888V201.888ZM1404.01 197.421C1407.91 193.994 1409.86 187.931 1410.79 180.663L1402.86 179.649C1401.97 186.599 1400.29 190.044 1398.73 191.411L1404.01 197.421ZM1410.79 180.685C1411.31 176.791 1411.57 172.894 1411.57 168.996H1403.57C1403.57 172.538 1403.33 176.081 1402.86 179.627L1410.79 180.685ZM1411.57 168.996C1411.57 158.605 1410.2 150.197 1407 144.277L1399.96 148.083C1402.21 152.248 1403.57 159.051 1403.57 168.996H1411.57ZM1406.98 144.25C1403.94 138.738 1398.76 136.104 1392.32 136.104V144.104C1396.29 144.104 1398.55 145.521 1399.97 148.11L1406.98 144.25ZM1392.32 136.104C1385.77 136.104 1380.48 138.696 1377.5 144.305L1384.57 148.055C1385.89 145.563 1388.12 144.104 1392.32 144.104V136.104ZM1377.52 144.273C1374.38 150.049 1373.07 158.479 1373.07 168.996H1381.07C1381.07 158.846 1382.39 152.066 1384.55 148.087L1377.52 144.273ZM1373.07 168.996C1373.07 179.854 1374.36 188.426 1377.58 193.948L1384.49 189.924C1382.41 186.353 1381.07 179.632 1381.07 168.996H1373.07ZM1377.55 193.897C1380.56 199.256 1385.57 201.888 1391.82 201.888V193.888C1388.15 193.888 1385.97 192.552 1384.52 189.975L1377.55 193.897Z" fill="black" fill-opacity="0.3"/>
<defs>
<linearGradient id="paint0_linear_454_3" x1="12.7004" y1="165" x2="1322.91" y2="-458.903" gradientUnits="userSpaceOnUse">
<stop stop-color="#F24D56"/>
<stop offset="0.509216" stop-color="#EE0C77"/>
<stop offset="0.964829" stop-color="#F24D56"/>
</linearGradient>
</defs>
</svg>
