<svg width="2783" height="352" viewBox="0 0 2783 352" fill="none" xmlns="http://www.w3.org/2000/svg">
<path d="M687.505 226.94L690.385 224.164L690.379 224.158L690.373 224.152L687.505 226.94ZM687.677 135.436L690.545 138.224L690.558 138.211L690.57 138.198L687.677 135.436ZM780.557 135.436L777.663 138.198L777.676 138.211L777.688 138.224L780.557 135.436ZM780.557 227.112L777.688 224.324L777.676 224.337L777.663 224.35L780.557 227.112ZM762.841 209.912L759.924 207.175L759.902 207.198L759.881 207.221L762.841 209.912ZM762.841 152.636L765.736 149.876L765.733 149.873L762.841 152.636ZM705.393 152.636L708.288 155.396L708.298 155.386L708.307 155.376L705.393 152.636ZM705.393 209.912L702.476 212.649L702.477 212.651L705.393 209.912ZM734.117 242.032C716.32 242.032 701.848 236.056 690.385 224.164L684.625 229.716C697.7 243.28 714.302 250.032 734.117 250.032V242.032ZM690.373 224.152C679.351 212.809 673.789 198.588 673.789 181.188H665.789C665.789 200.481 672.037 216.761 684.636 229.728L690.373 224.152ZM673.789 181.188C673.789 163.922 679.396 149.694 690.545 138.224L684.808 132.648C672.106 145.716 665.789 161.99 665.789 181.188H673.789ZM690.57 138.198C701.787 126.447 716.187 120.516 734.117 120.516V112.516C714.207 112.516 697.647 119.198 684.783 132.674L690.57 138.198ZM734.117 120.516C752.047 120.516 766.447 126.447 777.663 138.198L783.45 132.674C770.587 119.198 754.027 112.516 734.117 112.516V120.516ZM777.688 138.224C788.71 149.567 794.273 163.788 794.273 181.188H802.273C802.273 161.895 796.025 145.615 783.425 132.648L777.688 138.224ZM794.273 181.188C794.273 198.71 788.705 212.986 777.688 224.324L783.425 229.9C796.03 216.928 802.273 200.588 802.273 181.188H794.273ZM777.663 224.35C766.447 236.101 752.047 242.032 734.117 242.032V250.032C754.027 250.032 770.587 243.35 783.45 229.874L777.663 224.35ZM734.117 225.264C747.268 225.264 758.012 221.17 765.8 212.603L759.881 207.221C753.909 213.79 745.504 217.264 734.117 217.264V225.264ZM765.757 212.649C773.549 204.347 777.333 193.743 777.333 181.188H769.333C769.333 192.025 766.122 200.571 759.924 207.175L765.757 212.649ZM777.333 181.188C777.333 168.634 773.549 158.073 765.736 149.876L759.945 155.396C766.122 161.876 769.333 170.35 769.333 181.188H777.333ZM765.733 149.873C757.552 141.308 746.885 137.112 734.117 137.112V145.112C744.969 145.112 753.452 148.599 759.948 155.399L765.733 149.873ZM734.117 137.112C721.247 137.112 710.561 141.3 702.479 149.896L708.307 155.376C714.672 148.606 723.136 145.112 734.117 145.112V137.112ZM702.497 149.876C694.684 158.073 690.901 168.634 690.901 181.188H698.901C698.901 170.35 702.112 161.876 708.288 155.396L702.497 149.876ZM690.901 181.188C690.901 193.743 694.684 204.347 702.476 212.649L708.309 207.175C702.112 200.571 698.901 192.025 698.901 181.188H690.901ZM702.477 212.651C710.465 221.154 721.165 225.264 734.117 225.264V217.264C722.988 217.264 714.539 213.806 708.308 207.173L702.477 212.651ZM833.386 230.552L830.527 233.349L830.527 233.349L833.386 230.552ZM818.078 118.236V114.236H814.078V118.236H818.078ZM843.19 118.236H847.19V114.236H843.19V118.236ZM852.306 214.384L855.101 211.522L855.09 211.512L855.08 211.502L852.306 214.384ZM893.586 214.384L896.315 217.308L896.323 217.301L896.331 217.294L893.586 214.384ZM902.702 118.236V114.236H898.702V118.236H902.702ZM927.642 118.236H931.642V114.236H927.642V118.236ZM912.334 230.552L915.209 233.333L912.334 230.552ZM872.774 242.376C857.816 242.376 845.749 237.469 836.246 227.755L830.527 233.349C841.664 244.733 855.855 250.376 872.774 250.376V242.376ZM836.246 227.755C826.885 218.184 822.078 205.601 822.078 189.616H814.078C814.078 207.343 819.476 222.05 830.527 233.349L836.246 227.755ZM822.078 189.616V118.236H814.078V189.616H822.078ZM818.078 122.236H843.19V114.236H818.078V122.236ZM839.19 118.236V189.96H847.19V118.236H839.19ZM839.19 189.96C839.19 201.207 842.493 210.493 849.533 217.266L855.08 211.502C849.964 206.579 847.19 199.582 847.19 189.96H839.19ZM849.511 217.246C855.373 222.971 863.305 225.608 872.774 225.608V217.608C864.815 217.608 859.1 215.429 855.101 211.522L849.511 217.246ZM872.774 225.608C882.253 225.608 890.251 222.969 896.315 217.308L890.857 211.46C886.602 215.431 880.725 217.608 872.774 217.608V225.608ZM896.331 217.294C903.409 210.617 906.702 201.303 906.702 189.96H898.702C898.702 199.715 895.919 206.685 890.841 211.474L896.331 217.294ZM906.702 189.96V118.236H898.702V189.96H906.702ZM902.702 122.236H927.642V114.236H902.702V122.236ZM923.642 118.236V189.616H931.642V118.236H923.642ZM923.642 189.616C923.642 205.477 918.84 218.074 909.459 227.771L915.209 233.333C926.239 221.932 931.642 207.237 931.642 189.616H923.642ZM909.459 227.771C900.088 237.458 887.98 242.376 872.774 242.376V250.376C889.905 250.376 904.17 244.745 915.209 233.333L909.459 227.771ZM954.361 118.236V114.236H950.361V118.236H954.361ZM1047.59 129.416L1050.29 126.467L1050.27 126.448L1050.25 126.429L1047.59 129.416ZM1054.47 181.532L1051.06 179.436L1051.05 179.445L1051.05 179.454L1054.47 181.532ZM1038.64 194.948L1040.02 198.701L1040.14 198.657L1040.26 198.606L1038.64 194.948ZM1035.37 196.152L1033.99 192.399L1029.46 194.067L1031.94 198.206L1035.37 196.152ZM1064.61 245V249H1071.67L1068.05 242.946L1064.61 245ZM1035.03 245L1031.56 246.992L1032.71 249H1035.03V245ZM1009.75 200.968L1013.21 198.976L1012.06 196.968H1009.75V200.968ZM979.473 200.968V196.968H975.473V200.968H979.473ZM979.473 245V249H983.473V245H979.473ZM954.361 245H950.361V249H954.361V245ZM1033.31 168.116L1036.69 170.255L1036.75 170.158L1036.81 170.059L1033.31 168.116ZM1029.7 147.476L1032.32 144.46L1032.29 144.427L1032.25 144.396L1029.7 147.476ZM979.473 142.488V138.488H975.473V142.488H979.473ZM979.473 176.544H975.473V180.544H979.473V176.544ZM954.361 122.236H1015.42V114.236H954.361V122.236ZM1015.42 122.236C1027.69 122.236 1037.41 125.709 1044.93 132.403L1050.25 126.429C1041.02 118.216 1029.3 114.236 1015.42 114.236V122.236ZM1044.88 132.365C1052.19 139.061 1055.97 148.13 1055.97 160.032H1063.97C1063.97 146.249 1059.5 134.907 1050.29 126.467L1044.88 132.365ZM1055.97 160.032C1055.97 167.808 1054.27 174.217 1051.06 179.436L1057.87 183.628C1062 176.922 1063.97 168.997 1063.97 160.032H1055.97ZM1051.05 179.454C1047.97 184.523 1043.36 188.484 1037.02 191.29L1040.26 198.606C1047.91 195.22 1053.86 190.237 1057.88 183.61L1051.05 179.454ZM1037.26 191.195L1033.99 192.399L1036.76 199.905L1040.02 198.701L1037.26 191.195ZM1031.94 198.206L1061.18 247.054L1068.05 242.946L1038.81 194.098L1031.94 198.206ZM1064.61 241H1035.03V249H1064.61V241ZM1038.5 243.008L1013.21 198.976L1006.28 202.96L1031.56 246.992L1038.5 243.008ZM1009.75 196.968H979.473V204.968H1009.75V196.968ZM975.473 200.968V245H983.473V200.968H975.473ZM979.473 241H954.361V249H979.473V241ZM958.361 245V118.236H950.361V245H958.361ZM1013.01 180.544C1023.63 180.544 1032.08 177.54 1036.69 170.255L1029.93 165.977C1027.43 169.93 1022.35 172.544 1013.01 172.544V180.544ZM1036.81 170.059C1038.39 167.207 1039.03 163.775 1039.03 160.032H1031.03C1031.03 162.94 1030.52 164.897 1029.81 166.173L1036.81 170.059ZM1039.03 160.032C1039.03 153.755 1036.86 148.411 1032.32 144.46L1027.07 150.492C1029.64 152.733 1031.03 155.76 1031.03 160.032H1039.03ZM1032.25 144.396C1027.34 140.328 1021.02 138.488 1013.7 138.488V146.488C1019.68 146.488 1024.03 147.974 1027.15 150.556L1032.25 144.396ZM1013.7 138.488H979.473V146.488H1013.7V138.488ZM975.473 142.488V176.544H983.473V142.488H975.473ZM979.473 180.544H1013.01V172.544H979.473V180.544ZM1129.93 118.236V114.236H1125.93V118.236H1129.93ZM1220.74 129.932L1223.47 127.004L1223.46 126.995L1223.45 126.987L1220.74 129.932ZM1220.57 192.54L1223.28 195.487L1223.3 195.467L1223.32 195.447L1220.57 192.54ZM1155.04 204.064V200.064H1151.04V204.064H1155.04ZM1155.04 245V249H1159.04V245H1155.04ZM1129.93 245H1125.93V249H1129.93V245ZM1203.03 174.996L1205.76 177.917L1205.79 177.895L1205.81 177.872L1203.03 174.996ZM1203.03 147.476L1200.3 150.397L1200.3 150.4L1203.03 147.476ZM1155.04 142.488V138.488H1151.04V142.488H1155.04ZM1155.04 179.984H1151.04V183.984H1155.04V179.984ZM1129.93 122.236H1187.55V114.236H1129.93V122.236ZM1187.55 122.236C1200.39 122.236 1210.42 125.88 1218.04 132.877L1223.45 126.987C1214.1 118.389 1202 114.236 1187.55 114.236V122.236ZM1218.02 132.86C1225.33 139.664 1229.13 148.909 1229.13 161.064H1237.13C1237.13 147.075 1232.67 135.566 1223.47 127.004L1218.02 132.86ZM1229.13 161.064C1229.13 173.199 1225.29 182.582 1217.83 189.633L1223.32 195.447C1232.6 186.674 1237.13 175.073 1237.13 161.064H1229.13ZM1217.87 189.593C1210.38 196.467 1200.41 200.064 1187.55 200.064V208.064C1201.98 208.064 1214.03 203.978 1223.28 195.487L1217.87 189.593ZM1187.55 200.064H1155.04V208.064H1187.55V200.064ZM1151.04 204.064V245H1159.04V204.064H1151.04ZM1155.04 241H1129.93V249H1155.04V241ZM1133.93 245V118.236H1125.93V245H1133.93ZM1186.69 183.984C1194.54 183.984 1201.17 182.216 1205.76 177.917L1200.3 172.075C1197.78 174.426 1193.52 175.984 1186.69 175.984V183.984ZM1205.81 177.872C1210.2 173.631 1212.19 167.911 1212.19 161.236H1204.19C1204.19 166.257 1202.74 169.711 1200.25 172.12L1205.81 177.872ZM1212.19 161.236C1212.19 154.48 1210.21 148.71 1205.76 144.552L1200.3 150.4C1202.72 152.663 1204.19 156.067 1204.19 161.236H1212.19ZM1205.76 144.555C1201.17 140.256 1194.54 138.488 1186.69 138.488V146.488C1193.52 146.488 1197.78 148.046 1200.3 150.397L1205.76 144.555ZM1186.69 138.488H1155.04V146.488H1186.69V138.488ZM1151.04 142.488V179.984H1159.04V142.488H1151.04ZM1155.04 183.984H1186.69V175.984H1155.04V183.984ZM1285.27 118.236V114.236H1282.62L1281.59 116.672L1285.27 118.236ZM1309.52 118.236L1313.21 116.672L1312.17 114.236H1309.52V118.236ZM1363.36 245V249H1369.4L1367.04 243.436L1363.36 245ZM1335.84 245L1332.15 246.548L1333.18 249H1335.84V245ZM1321.91 211.804L1325.6 210.256L1324.57 207.804H1321.91V211.804ZM1272.89 211.804V207.804H1270.23L1269.2 210.256L1272.89 211.804ZM1258.96 245V249H1261.62L1262.64 246.548L1258.96 245ZM1231.44 245L1227.75 243.436L1225.39 249H1231.44V245ZM1311.76 187.724V191.724H1317.78L1315.45 186.175L1311.76 187.724ZM1297.31 153.324L1301 151.775L1297.29 142.942L1293.62 151.791L1297.31 153.324ZM1283.04 187.724L1279.34 186.191L1277.05 191.724H1283.04V187.724ZM1285.27 122.236H1309.52V114.236H1285.27V122.236ZM1305.84 119.8L1359.68 246.564L1367.04 243.436L1313.21 116.672L1305.84 119.8ZM1363.36 241H1335.84V249H1363.36V241ZM1339.53 243.452L1325.6 210.256L1318.22 213.352L1332.15 246.548L1339.53 243.452ZM1321.91 207.804H1272.89V215.804H1321.91V207.804ZM1269.2 210.256L1255.27 243.452L1262.64 246.548L1276.58 213.352L1269.2 210.256ZM1258.96 241H1231.44V249H1258.96V241ZM1235.12 246.564L1288.95 119.8L1281.59 116.672L1227.75 243.436L1235.12 246.564ZM1315.45 186.175L1301 151.775L1293.62 154.873L1308.07 189.273L1315.45 186.175ZM1293.62 151.791L1279.34 186.191L1286.73 189.257L1301.01 154.857L1293.62 151.791ZM1283.04 191.724H1311.76V183.724H1283.04V191.724ZM1378.9 118.236V114.236H1374.9V118.236H1378.9ZM1472.12 129.416L1474.83 126.467L1474.8 126.448L1474.78 126.429L1472.12 129.416ZM1479 181.532L1475.6 179.436L1475.59 179.445L1475.58 179.454L1479 181.532ZM1463.18 194.948L1464.56 198.701L1464.68 198.657L1464.8 198.606L1463.18 194.948ZM1459.91 196.152L1458.53 192.399L1454 194.067L1456.48 198.206L1459.91 196.152ZM1489.15 245V249H1496.21L1492.58 242.946L1489.15 245ZM1459.57 245L1456.1 246.992L1457.25 249H1459.57V245ZM1434.28 200.968L1437.75 198.976L1436.6 196.968H1434.28V200.968ZM1404.01 200.968V196.968H1400.01V200.968H1404.01ZM1404.01 245V249H1408.01V245H1404.01ZM1378.9 245H1374.9V249H1378.9V245ZM1457.85 168.116L1461.23 170.255L1461.29 170.158L1461.34 170.059L1457.85 168.116ZM1454.23 147.476L1456.86 144.46L1456.82 144.427L1456.79 144.396L1454.23 147.476ZM1404.01 142.488V138.488H1400.01V142.488H1404.01ZM1404.01 176.544H1400.01V180.544H1404.01V176.544ZM1378.9 122.236H1439.96V114.236H1378.9V122.236ZM1439.96 122.236C1452.22 122.236 1461.94 125.709 1469.46 132.403L1474.78 126.429C1465.56 118.216 1453.84 114.236 1439.96 114.236V122.236ZM1469.42 132.365C1476.72 139.061 1480.51 148.13 1480.51 160.032H1488.51C1488.51 146.249 1484.03 134.907 1474.83 126.467L1469.42 132.365ZM1480.51 160.032C1480.51 167.808 1478.81 174.217 1475.6 179.436L1482.41 183.628C1486.54 176.922 1488.51 168.997 1488.51 160.032H1480.51ZM1475.58 179.454C1472.5 184.523 1467.9 188.484 1461.56 191.29L1464.8 198.606C1472.45 195.22 1478.39 190.237 1482.42 183.61L1475.58 179.454ZM1461.8 191.195L1458.53 192.399L1461.29 199.905L1464.56 198.701L1461.8 191.195ZM1456.48 198.206L1485.72 247.054L1492.58 242.946L1463.34 194.098L1456.48 198.206ZM1489.15 241H1459.57V249H1489.15V241ZM1463.04 243.008L1437.75 198.976L1430.81 202.96L1456.1 246.992L1463.04 243.008ZM1434.28 196.968H1404.01V204.968H1434.28V196.968ZM1400.01 200.968V245H1408.01V200.968H1400.01ZM1404.01 241H1378.9V249H1404.01V241ZM1382.9 245V118.236H1374.9V245H1382.9ZM1437.55 180.544C1448.16 180.544 1456.62 177.54 1461.23 170.255L1454.47 165.977C1451.97 169.93 1446.89 172.544 1437.55 172.544V180.544ZM1461.34 170.059C1462.93 167.207 1463.57 163.775 1463.57 160.032H1455.57C1455.57 162.94 1455.06 164.897 1454.35 166.173L1461.34 170.059ZM1463.57 160.032C1463.57 153.755 1461.4 148.411 1456.86 144.46L1451.61 150.492C1454.18 152.733 1455.57 155.76 1455.57 160.032H1463.57ZM1456.79 144.396C1451.88 140.328 1445.56 138.488 1438.24 138.488V146.488C1444.22 146.488 1448.57 147.974 1451.68 150.556L1456.79 144.396ZM1438.24 138.488H1404.01V146.488H1438.24V138.488ZM1400.01 142.488V176.544H1408.01V142.488H1400.01ZM1404.01 180.544H1437.55V172.544H1404.01V180.544ZM1538.64 142.66H1542.64V138.66H1538.64V142.66ZM1498.57 142.66H1494.57V146.66H1498.57V142.66ZM1498.57 118.236V114.236H1494.57V118.236H1498.57ZM1603.66 118.236H1607.66V114.236H1603.66V118.236ZM1603.66 142.66V146.66H1607.66V142.66H1603.66ZM1563.58 142.66V138.66H1559.58V142.66H1563.58ZM1563.58 245V249H1567.58V245H1563.58ZM1538.64 245H1534.64V249H1538.64V245ZM1538.64 138.66H1498.57V146.66H1538.64V138.66ZM1502.57 142.66V118.236H1494.57V142.66H1502.57ZM1498.57 122.236H1603.66V114.236H1498.57V122.236ZM1599.66 118.236V142.66H1607.66V118.236H1599.66ZM1603.66 138.66H1563.58V146.66H1603.66V138.66ZM1559.58 142.66V245H1567.58V142.66H1559.58ZM1563.58 241H1538.64V249H1563.58V241ZM1542.64 245V142.66H1534.64V245H1542.64ZM1619.97 118.236V114.236H1615.97V118.236H1619.97ZM1644.05 118.236L1647.28 115.865L1646.08 114.236H1644.05V118.236ZM1705.97 202.344L1702.75 204.715L1709.97 214.524V202.344H1705.97ZM1705.97 118.236V114.236H1701.97V118.236H1705.97ZM1731.09 118.236H1735.09V114.236H1731.09V118.236ZM1731.09 245V249H1735.09V245H1731.09ZM1706.83 245L1703.61 247.361L1704.8 249H1706.83V245ZM1645.09 160.548L1648.32 158.187L1641.09 148.3V160.548H1645.09ZM1645.09 245V249H1649.09V245H1645.09ZM1619.97 245H1615.97V249H1619.97V245ZM1619.97 122.236H1644.05V114.236H1619.97V122.236ZM1640.83 120.607L1702.75 204.715L1709.2 199.973L1647.28 115.865L1640.83 120.607ZM1709.97 202.344V118.236H1701.97V202.344H1709.97ZM1705.97 122.236H1731.09V114.236H1705.97V122.236ZM1727.09 118.236V245H1735.09V118.236H1727.09ZM1731.09 241H1706.83V249H1731.09V241ZM1710.06 242.639L1648.32 158.187L1641.86 162.909L1703.61 247.361L1710.06 242.639ZM1641.09 160.548V245H1649.09V160.548H1641.09ZM1645.09 241H1619.97V249H1645.09V241ZM1623.97 245V118.236H1615.97V245H1623.97ZM1759.41 118.236V114.236H1755.41V118.236H1759.41ZM1855.9 118.236H1859.9V114.236H1855.9V118.236ZM1855.9 142.66V146.66H1859.9V142.66H1855.9ZM1784.52 142.66V138.66H1780.52V142.66H1784.52ZM1784.52 169.148H1780.52V173.148H1784.52V169.148ZM1836.29 169.148H1840.29V165.148H1836.29V169.148ZM1836.29 193.916V197.916H1840.29V193.916H1836.29ZM1784.52 193.916V189.916H1780.52V193.916H1784.52ZM1784.52 220.404H1780.52V224.404H1784.52V220.404ZM1855.9 220.404H1859.9V216.404H1855.9V220.404ZM1855.9 245V249H1859.9V245H1855.9ZM1759.41 245H1755.41V249H1759.41V245ZM1759.41 122.236H1855.9V114.236H1759.41V122.236ZM1851.9 118.236V142.66H1859.9V118.236H1851.9ZM1855.9 138.66H1784.52V146.66H1855.9V138.66ZM1780.52 142.66V169.148H1788.52V142.66H1780.52ZM1784.52 173.148H1836.29V165.148H1784.52V173.148ZM1832.29 169.148V193.916H1840.29V169.148H1832.29ZM1836.29 189.916H1784.52V197.916H1836.29V189.916ZM1780.52 193.916V220.404H1788.52V193.916H1780.52ZM1784.52 224.404H1855.9V216.404H1784.52V224.404ZM1851.9 220.404V245H1859.9V220.404H1851.9ZM1855.9 241H1759.41V249H1855.9V241ZM1763.41 245V118.236H1755.41V245H1763.41ZM1877.34 118.236V114.236H1873.34V118.236H1877.34ZM1970.57 129.416L1973.27 126.467L1973.25 126.448L1973.23 126.429L1970.57 129.416ZM1977.45 181.532L1974.04 179.436L1974.03 179.445L1974.03 179.454L1977.45 181.532ZM1961.62 194.948L1963.01 198.701L1963.13 198.657L1963.24 198.606L1961.62 194.948ZM1958.35 196.152L1956.97 192.399L1952.44 194.067L1954.92 198.206L1958.35 196.152ZM1987.59 245V249H1994.65L1991.03 242.946L1987.59 245ZM1958.01 245L1954.54 246.992L1955.7 249H1958.01V245ZM1932.73 200.968L1936.2 198.976L1935.04 196.968H1932.73V200.968ZM1902.45 200.968V196.968H1898.45V200.968H1902.45ZM1902.45 245V249H1906.45V245H1902.45ZM1877.34 245H1873.34V249H1877.34V245ZM1956.29 168.116L1959.67 170.255L1959.73 170.158L1959.79 170.059L1956.29 168.116ZM1952.68 147.476L1955.31 144.46L1955.27 144.427L1955.23 144.396L1952.68 147.476ZM1902.45 142.488V138.488H1898.45V142.488H1902.45ZM1902.45 176.544H1898.45V180.544H1902.45V176.544ZM1877.34 122.236H1938.4V114.236H1877.34V122.236ZM1938.4 122.236C1950.67 122.236 1960.39 125.709 1967.91 132.403L1973.23 126.429C1964 118.216 1952.28 114.236 1938.4 114.236V122.236ZM1967.86 132.365C1975.17 139.061 1978.95 148.13 1978.95 160.032H1986.95C1986.95 146.249 1982.48 134.907 1973.27 126.467L1967.86 132.365ZM1978.95 160.032C1978.95 167.808 1977.25 174.217 1974.04 179.436L1980.85 183.628C1984.98 176.922 1986.95 168.997 1986.95 160.032H1978.95ZM1974.03 179.454C1970.95 184.523 1966.34 188.484 1960 191.29L1963.24 198.606C1970.89 195.22 1976.84 190.237 1980.86 183.61L1974.03 179.454ZM1960.24 191.195L1956.97 192.399L1959.74 199.905L1963.01 198.701L1960.24 191.195ZM1954.92 198.206L1984.16 247.054L1991.03 242.946L1961.79 194.098L1954.92 198.206ZM1987.59 241H1958.01V249H1987.59V241ZM1961.48 243.008L1936.2 198.976L1929.26 202.96L1954.54 246.992L1961.48 243.008ZM1932.73 196.968H1902.45V204.968H1932.73V196.968ZM1898.45 200.968V245H1906.45V200.968H1898.45ZM1902.45 241H1877.34V249H1902.45V241ZM1881.34 245V118.236H1873.34V245H1881.34ZM1935.99 180.544C1946.61 180.544 1955.06 177.54 1959.67 170.255L1952.91 165.977C1950.41 169.93 1945.33 172.544 1935.99 172.544V180.544ZM1959.79 170.059C1961.37 167.207 1962.01 163.775 1962.01 160.032H1954.01C1954.01 162.94 1953.5 164.897 1952.79 166.173L1959.79 170.059ZM1962.01 160.032C1962.01 153.755 1959.84 148.411 1955.31 144.46L1950.05 150.492C1952.62 152.733 1954.01 155.76 1954.01 160.032H1962.01ZM1955.23 144.396C1950.32 140.328 1944 138.488 1936.68 138.488V146.488C1942.66 146.488 1947.01 147.974 1950.13 150.556L1955.23 144.396ZM1936.68 138.488H1902.45V146.488H1936.68V138.488ZM1898.45 142.488V176.544H1906.45V142.488H1898.45ZM1902.45 180.544H1935.99V172.544H1902.45V180.544ZM2019.54 234.164L2017.04 237.287L2017.05 237.295L2019.54 234.164ZM2004.58 204.408L2000.6 204.816L2000.6 204.823L2000.6 204.83L2004.58 204.408ZM2003.89 197.7V193.7H1999.46L1999.91 198.108L2003.89 197.7ZM2029.69 197.7L2033.68 197.458L2033.46 193.7H2029.69V197.7ZM2030.03 203.376L2034.03 203.136L2034.03 203.134L2030.03 203.376ZM2038.46 216.62L2036.44 220.07L2036.45 220.077L2036.46 220.083L2038.46 216.62ZM2077.85 218.684L2079.41 222.366L2079.44 222.355L2079.47 222.344L2077.85 218.684ZM2085.07 213.18L2088.69 214.883L2088.69 214.883L2085.07 213.18ZM2083.35 200.968L2085.65 197.691L2085.64 197.683L2085.63 197.675L2083.35 200.968ZM2070.45 195.12L2069.27 198.94L2069.28 198.944L2069.29 198.947L2070.45 195.12ZM2051.88 190.476L2052.77 186.576L2052.74 186.571L2052.72 186.566L2051.88 190.476ZM2032.1 184.284L2033.55 180.558L2033.55 180.557L2032.1 184.284ZM2015.59 173.62L2018.49 170.867L2018.44 170.812L2018.38 170.759L2015.59 173.62ZM2020.92 126.148L2018.4 123.037L2018.39 123.045L2020.92 126.148ZM2094.88 127.352L2092.31 130.422L2092.33 130.437L2092.35 130.451L2094.88 127.352ZM2108.64 154.356L2104.64 154.524L2104.64 154.548L2104.64 154.572L2108.64 154.356ZM2108.98 160.72V164.72H2113.2L2112.98 160.504L2108.98 160.72ZM2083.87 160.72L2079.9 161.232L2080.35 164.72H2083.87V160.72ZM2083.18 155.388L2079.21 155.865L2079.21 155.882L2079.22 155.9L2083.18 155.388ZM2079.74 147.476L2082.85 144.959L2082.85 144.959L2079.74 147.476ZM2069.25 141.628L2068.1 145.459L2068.11 145.462L2068.12 145.464L2069.25 141.628ZM2043.28 141.8L2044.54 145.595L2044.56 145.588L2044.58 145.581L2043.28 141.8ZM2036.05 145.412L2033.56 142.289L2033.45 142.373L2033.35 142.463L2036.05 145.412ZM2033.47 149.196L2037.27 150.461L2037.3 150.356L2037.33 150.248L2033.47 149.196ZM2034.16 157.452L2031.33 160.28L2031.33 160.28L2034.16 157.452ZM2041.21 161.752L2039.71 165.456L2039.74 165.471L2039.78 165.485L2041.21 161.752ZM2053.08 165.536L2052.01 169.389L2052.07 169.407L2052.14 169.423L2053.08 165.536ZM2059.45 167.084L2058.5 170.971L2058.52 170.975L2058.53 170.979L2059.45 167.084ZM2067.53 168.976L2068.58 165.117L2068.51 165.098L2068.44 165.081L2067.53 168.976ZM2071.31 170.008L2072.37 166.151L2072.37 166.149L2071.31 170.008ZM2082.49 173.276L2081.15 177.043L2081.2 177.062L2081.26 177.08L2082.49 173.276ZM2096.43 179.984L2094.28 183.362L2094.29 183.367L2094.3 183.372L2096.43 179.984ZM2107.61 191.336L2104.12 193.301L2104.14 193.335L2104.16 193.368L2107.61 191.336ZM2096.94 235.884L2094.66 232.598L2094.66 232.603L2094.65 232.607L2096.94 235.884ZM2060.13 241.516C2043.11 241.516 2030.59 237.836 2022.03 231.033L2017.05 237.295C2027.53 245.628 2042.08 249.516 2060.13 249.516V241.516ZM2022.04 231.041C2014.43 224.948 2009.84 216.091 2008.56 203.986L2000.6 204.83C2002.07 218.64 2007.46 229.62 2017.04 237.287L2022.04 231.041ZM2008.56 204L2007.87 197.292L1999.91 198.108L2000.6 204.816L2008.56 204ZM2003.89 201.7H2029.69V193.7H2003.89V201.7ZM2025.7 197.942L2026.04 203.618L2034.03 203.134L2033.68 197.458L2025.7 197.942ZM2026.04 203.616C2026.47 210.78 2030.1 216.351 2036.44 220.07L2040.49 213.17C2036.27 210.697 2034.29 207.439 2034.03 203.136L2026.04 203.616ZM2036.46 220.083C2042.48 223.563 2050.57 225.092 2060.31 225.092V217.092C2051.24 217.092 2044.76 215.639 2040.46 213.157L2036.46 220.083ZM2060.31 225.092C2068.35 225.092 2074.86 224.296 2079.41 222.366L2076.29 215.002C2073.27 216.283 2068.09 217.092 2060.31 217.092V225.092ZM2079.47 222.344C2083.51 220.56 2087.12 218.23 2088.69 214.883L2081.46 211.477C2081.2 212.029 2079.99 213.368 2076.24 215.024L2079.47 222.344ZM2088.69 214.883C2089.86 212.395 2090.45 209.749 2090.45 206.988H2082.45C2082.45 208.585 2082.12 210.066 2081.46 211.477L2088.69 214.883ZM2090.45 206.988C2090.45 205.193 2090.15 203.388 2089.34 201.759L2082.18 205.337C2082.29 205.542 2082.45 206.031 2082.45 206.988H2090.45ZM2089.34 201.759C2088.5 200.069 2087.15 198.743 2085.65 197.691L2081.06 204.245C2081.85 204.799 2082.11 205.192 2082.18 205.337L2089.34 201.759ZM2085.63 197.675C2081.86 195.08 2077.15 192.978 2071.62 191.293L2069.29 198.947C2074.3 200.473 2078.2 202.269 2081.08 204.261L2085.63 197.675ZM2071.64 191.3C2068.15 190.216 2061.81 188.637 2052.77 186.576L2050.99 194.376C2060.06 196.443 2066.11 197.96 2069.27 198.94L2071.64 191.3ZM2052.72 186.566C2047.14 185.361 2040.75 183.37 2033.55 180.558L2030.64 188.01C2038.12 190.931 2044.93 193.068 2051.04 194.386L2052.72 186.566ZM2033.55 180.557C2027.24 178.096 2022.26 174.842 2018.49 170.867L2012.68 176.373C2017.4 181.342 2023.43 185.197 2030.65 188.011L2033.55 180.557ZM2018.38 170.759C2014.25 166.72 2012.02 161.178 2012.02 153.668H2004.02C2004.02 162.899 2006.83 170.658 2012.79 176.481L2018.38 170.759ZM2012.02 153.668C2012.02 143.486 2015.8 135.465 2023.44 129.251L2018.39 123.045C2008.83 130.82 2004.02 141.146 2004.02 153.668H2012.02ZM2023.43 129.259C2030.82 123.285 2041.89 120 2057.21 120V112C2040.89 112 2027.75 115.48 2018.4 123.037L2023.43 129.259ZM2057.21 120C2072.66 120 2084.2 123.64 2092.31 130.422L2097.44 124.282C2087.44 115.928 2073.86 112 2057.21 112V120ZM2092.35 130.451C2100.21 136.864 2104.23 144.813 2104.64 154.524L2112.63 154.188C2112.13 142.112 2106.98 132.058 2097.41 124.253L2092.35 130.451ZM2104.64 154.572L2104.99 160.936L2112.98 160.504L2112.63 154.14L2104.64 154.572ZM2108.98 156.72H2083.87V164.72H2108.98V156.72ZM2087.84 160.208L2087.15 154.876L2079.22 155.9L2079.9 161.232L2087.84 160.208ZM2087.15 154.911C2086.71 151.242 2085.24 147.908 2082.85 144.959L2076.63 149.993C2078.15 151.86 2078.96 153.801 2079.21 155.865L2087.15 154.911ZM2082.85 144.959C2080.15 141.618 2075.72 139.369 2070.38 137.792L2068.12 145.464C2072.87 146.869 2075.44 148.518 2076.63 149.993L2082.85 144.959ZM2070.4 137.797C2066.46 136.614 2061.68 136.08 2056.18 136.08V144.08C2061.23 144.08 2065.16 144.578 2068.1 145.459L2070.4 137.797ZM2056.18 136.08C2050.66 136.08 2045.87 136.674 2041.97 138.019L2044.58 145.581C2047.33 144.633 2051.15 144.08 2056.18 144.08V136.08ZM2042.01 138.005C2038.66 139.121 2035.78 140.512 2033.56 142.289L2038.55 148.535C2039.77 147.56 2041.7 146.543 2044.54 145.595L2042.01 138.005ZM2033.35 142.463C2031.65 144.027 2030.23 145.905 2029.62 148.144L2037.33 150.248C2037.41 149.964 2037.71 149.319 2038.76 148.361L2033.35 142.463ZM2029.68 147.931C2028.96 150.089 2028.61 152.353 2028.61 154.7H2036.61C2036.61 153.148 2036.84 151.743 2037.27 150.461L2029.68 147.931ZM2028.61 154.7C2028.61 157.153 2030.11 159.056 2031.33 160.28L2036.99 154.624C2036.82 154.455 2036.7 154.318 2036.62 154.212C2036.53 154.105 2036.5 154.044 2036.49 154.029C2036.46 153.988 2036.61 154.233 2036.61 154.7H2028.61ZM2031.33 160.28C2033.45 162.397 2036.33 164.081 2039.71 165.456L2042.72 158.048C2039.91 156.901 2038.09 155.718 2036.99 154.624L2031.33 160.28ZM2039.78 165.485C2042.93 166.696 2047.02 167.996 2052.01 169.389L2054.16 161.683C2049.29 160.324 2045.46 159.101 2042.65 158.019L2039.78 165.485ZM2052.14 169.423L2058.5 170.971L2060.39 163.197L2054.03 161.649L2052.14 169.423ZM2058.53 170.979L2066.62 172.871L2068.44 165.081L2060.36 163.189L2058.53 170.979ZM2066.48 172.835L2070.26 173.867L2072.37 166.149L2068.58 165.117L2066.48 172.835ZM2070.26 173.865C2076.15 175.482 2079.71 176.531 2081.15 177.043L2083.84 169.509C2082.06 168.875 2078.18 167.744 2072.37 166.151L2070.26 173.865ZM2081.26 177.08C2085.48 178.453 2089.82 180.533 2094.28 183.362L2098.57 176.606C2093.63 173.472 2088.68 171.081 2083.73 169.472L2081.26 177.08ZM2094.3 183.372C2098.74 186.162 2101.97 189.483 2104.12 193.301L2111.09 189.371C2108.2 184.245 2103.97 179.998 2098.55 176.596L2094.3 183.372ZM2104.16 193.368C2106.41 197.187 2107.56 201.466 2107.56 206.3H2115.56C2115.56 200.126 2114.07 194.429 2111.05 189.304L2104.16 193.368ZM2107.56 206.3C2107.56 218.088 2103.22 226.657 2094.66 232.598L2099.22 239.17C2110.16 231.58 2115.56 220.427 2115.56 206.3H2107.56ZM2094.65 232.607C2086.36 238.412 2074.98 241.516 2060.13 241.516V249.516C2076.02 249.516 2089.18 246.199 2099.24 239.161L2094.65 232.607Z" fill="url(#paint0_linear_12_2)"/>
<path d="M687.505 226.94L690.385 224.164L690.379 224.158L690.373 224.152L687.505 226.94ZM687.677 135.436L690.545 138.224L690.558 138.211L690.57 138.198L687.677 135.436ZM780.557 135.436L777.663 138.198L777.676 138.211L777.688 138.224L780.557 135.436ZM780.557 227.112L777.688 224.324L777.676 224.337L777.663 224.35L780.557 227.112ZM762.841 209.912L759.924 207.175L759.902 207.198L759.881 207.221L762.841 209.912ZM762.841 152.636L765.736 149.876L765.733 149.873L762.841 152.636ZM705.393 152.636L708.288 155.396L708.298 155.386L708.307 155.376L705.393 152.636ZM705.393 209.912L702.476 212.649L702.477 212.651L705.393 209.912ZM734.117 242.032C716.32 242.032 701.848 236.056 690.385 224.164L684.625 229.716C697.7 243.28 714.302 250.032 734.117 250.032V242.032ZM690.373 224.152C679.351 212.809 673.789 198.588 673.789 181.188H665.789C665.789 200.481 672.037 216.761 684.636 229.728L690.373 224.152ZM673.789 181.188C673.789 163.922 679.396 149.694 690.545 138.224L684.808 132.648C672.106 145.716 665.789 161.99 665.789 181.188H673.789ZM690.57 138.198C701.787 126.447 716.187 120.516 734.117 120.516V112.516C714.207 112.516 697.647 119.198 684.783 132.674L690.57 138.198ZM734.117 120.516C752.047 120.516 766.447 126.447 777.663 138.198L783.45 132.674C770.587 119.198 754.027 112.516 734.117 112.516V120.516ZM777.688 138.224C788.71 149.567 794.273 163.788 794.273 181.188H802.273C802.273 161.895 796.025 145.615 783.425 132.648L777.688 138.224ZM794.273 181.188C794.273 198.71 788.705 212.986 777.688 224.324L783.425 229.9C796.03 216.928 802.273 200.588 802.273 181.188H794.273ZM777.663 224.35C766.447 236.101 752.047 242.032 734.117 242.032V250.032C754.027 250.032 770.587 243.35 783.45 229.874L777.663 224.35ZM734.117 225.264C747.268 225.264 758.012 221.17 765.8 212.603L759.881 207.221C753.909 213.79 745.504 217.264 734.117 217.264V225.264ZM765.757 212.649C773.549 204.347 777.333 193.743 777.333 181.188H769.333C769.333 192.025 766.122 200.571 759.924 207.175L765.757 212.649ZM777.333 181.188C777.333 168.634 773.549 158.073 765.736 149.876L759.945 155.396C766.122 161.876 769.333 170.35 769.333 181.188H777.333ZM765.733 149.873C757.552 141.308 746.885 137.112 734.117 137.112V145.112C744.969 145.112 753.452 148.599 759.948 155.399L765.733 149.873ZM734.117 137.112C721.247 137.112 710.561 141.3 702.479 149.896L708.307 155.376C714.672 148.606 723.136 145.112 734.117 145.112V137.112ZM702.497 149.876C694.684 158.073 690.901 168.634 690.901 181.188H698.901C698.901 170.35 702.112 161.876 708.288 155.396L702.497 149.876ZM690.901 181.188C690.901 193.743 694.684 204.347 702.476 212.649L708.309 207.175C702.112 200.571 698.901 192.025 698.901 181.188H690.901ZM702.477 212.651C710.465 221.154 721.165 225.264 734.117 225.264V217.264C722.988 217.264 714.539 213.806 708.308 207.173L702.477 212.651ZM833.386 230.552L830.527 233.349L830.527 233.349L833.386 230.552ZM818.078 118.236V114.236H814.078V118.236H818.078ZM843.19 118.236H847.19V114.236H843.19V118.236ZM852.306 214.384L855.101 211.522L855.09 211.512L855.08 211.502L852.306 214.384ZM893.586 214.384L896.315 217.308L896.323 217.301L896.331 217.294L893.586 214.384ZM902.702 118.236V114.236H898.702V118.236H902.702ZM927.642 118.236H931.642V114.236H927.642V118.236ZM912.334 230.552L915.209 233.333L912.334 230.552ZM872.774 242.376C857.816 242.376 845.749 237.469 836.246 227.755L830.527 233.349C841.664 244.733 855.855 250.376 872.774 250.376V242.376ZM836.246 227.755C826.885 218.184 822.078 205.601 822.078 189.616H814.078C814.078 207.343 819.476 222.05 830.527 233.349L836.246 227.755ZM822.078 189.616V118.236H814.078V189.616H822.078ZM818.078 122.236H843.19V114.236H818.078V122.236ZM839.19 118.236V189.96H847.19V118.236H839.19ZM839.19 189.96C839.19 201.207 842.493 210.493 849.533 217.266L855.08 211.502C849.964 206.579 847.19 199.582 847.19 189.96H839.19ZM849.511 217.246C855.373 222.971 863.305 225.608 872.774 225.608V217.608C864.815 217.608 859.1 215.429 855.101 211.522L849.511 217.246ZM872.774 225.608C882.253 225.608 890.251 222.969 896.315 217.308L890.857 211.46C886.602 215.431 880.725 217.608 872.774 217.608V225.608ZM896.331 217.294C903.409 210.617 906.702 201.303 906.702 189.96H898.702C898.702 199.715 895.919 206.685 890.841 211.474L896.331 217.294ZM906.702 189.96V118.236H898.702V189.96H906.702ZM902.702 122.236H927.642V114.236H902.702V122.236ZM923.642 118.236V189.616H931.642V118.236H923.642ZM923.642 189.616C923.642 205.477 918.84 218.074 909.459 227.771L915.209 233.333C926.239 221.932 931.642 207.237 931.642 189.616H923.642ZM909.459 227.771C900.088 237.458 887.98 242.376 872.774 242.376V250.376C889.905 250.376 904.17 244.745 915.209 233.333L909.459 227.771ZM954.361 118.236V114.236H950.361V118.236H954.361ZM1047.59 129.416L1050.29 126.467L1050.27 126.448L1050.25 126.429L1047.59 129.416ZM1054.47 181.532L1051.06 179.436L1051.05 179.445L1051.05 179.454L1054.47 181.532ZM1038.64 194.948L1040.02 198.701L1040.14 198.657L1040.26 198.606L1038.64 194.948ZM1035.37 196.152L1033.99 192.399L1029.46 194.067L1031.94 198.206L1035.37 196.152ZM1064.61 245V249H1071.67L1068.05 242.946L1064.61 245ZM1035.03 245L1031.56 246.992L1032.71 249H1035.03V245ZM1009.75 200.968L1013.21 198.976L1012.06 196.968H1009.75V200.968ZM979.473 200.968V196.968H975.473V200.968H979.473ZM979.473 245V249H983.473V245H979.473ZM954.361 245H950.361V249H954.361V245ZM1033.31 168.116L1036.69 170.255L1036.75 170.158L1036.81 170.059L1033.31 168.116ZM1029.7 147.476L1032.32 144.46L1032.29 144.427L1032.25 144.396L1029.7 147.476ZM979.473 142.488V138.488H975.473V142.488H979.473ZM979.473 176.544H975.473V180.544H979.473V176.544ZM954.361 122.236H1015.42V114.236H954.361V122.236ZM1015.42 122.236C1027.69 122.236 1037.41 125.709 1044.93 132.403L1050.25 126.429C1041.02 118.216 1029.3 114.236 1015.42 114.236V122.236ZM1044.88 132.365C1052.19 139.061 1055.97 148.13 1055.97 160.032H1063.97C1063.97 146.249 1059.5 134.907 1050.29 126.467L1044.88 132.365ZM1055.97 160.032C1055.97 167.808 1054.27 174.217 1051.06 179.436L1057.87 183.628C1062 176.922 1063.97 168.997 1063.97 160.032H1055.97ZM1051.05 179.454C1047.97 184.523 1043.36 188.484 1037.02 191.29L1040.26 198.606C1047.91 195.22 1053.86 190.237 1057.88 183.61L1051.05 179.454ZM1037.26 191.195L1033.99 192.399L1036.76 199.905L1040.02 198.701L1037.26 191.195ZM1031.94 198.206L1061.18 247.054L1068.05 242.946L1038.81 194.098L1031.94 198.206ZM1064.61 241H1035.03V249H1064.61V241ZM1038.5 243.008L1013.21 198.976L1006.28 202.96L1031.56 246.992L1038.5 243.008ZM1009.75 196.968H979.473V204.968H1009.75V196.968ZM975.473 200.968V245H983.473V200.968H975.473ZM979.473 241H954.361V249H979.473V241ZM958.361 245V118.236H950.361V245H958.361ZM1013.01 180.544C1023.63 180.544 1032.08 177.54 1036.69 170.255L1029.93 165.977C1027.43 169.93 1022.35 172.544 1013.01 172.544V180.544ZM1036.81 170.059C1038.39 167.207 1039.03 163.775 1039.03 160.032H1031.03C1031.03 162.94 1030.52 164.897 1029.81 166.173L1036.81 170.059ZM1039.03 160.032C1039.03 153.755 1036.86 148.411 1032.32 144.46L1027.07 150.492C1029.64 152.733 1031.03 155.76 1031.03 160.032H1039.03ZM1032.25 144.396C1027.34 140.328 1021.02 138.488 1013.7 138.488V146.488C1019.68 146.488 1024.03 147.974 1027.15 150.556L1032.25 144.396ZM1013.7 138.488H979.473V146.488H1013.7V138.488ZM975.473 142.488V176.544H983.473V142.488H975.473ZM979.473 180.544H1013.01V172.544H979.473V180.544ZM1129.93 118.236V114.236H1125.93V118.236H1129.93ZM1220.74 129.932L1223.47 127.004L1223.46 126.995L1223.45 126.987L1220.74 129.932ZM1220.57 192.54L1223.28 195.487L1223.3 195.467L1223.32 195.447L1220.57 192.54ZM1155.04 204.064V200.064H1151.04V204.064H1155.04ZM1155.04 245V249H1159.04V245H1155.04ZM1129.93 245H1125.93V249H1129.93V245ZM1203.03 174.996L1205.76 177.917L1205.79 177.895L1205.81 177.872L1203.03 174.996ZM1203.03 147.476L1200.3 150.397L1200.3 150.4L1203.03 147.476ZM1155.04 142.488V138.488H1151.04V142.488H1155.04ZM1155.04 179.984H1151.04V183.984H1155.04V179.984ZM1129.93 122.236H1187.55V114.236H1129.93V122.236ZM1187.55 122.236C1200.39 122.236 1210.42 125.88 1218.04 132.877L1223.45 126.987C1214.1 118.389 1202 114.236 1187.55 114.236V122.236ZM1218.02 132.86C1225.33 139.664 1229.13 148.909 1229.13 161.064H1237.13C1237.13 147.075 1232.67 135.566 1223.47 127.004L1218.02 132.86ZM1229.13 161.064C1229.13 173.199 1225.29 182.582 1217.83 189.633L1223.32 195.447C1232.6 186.674 1237.13 175.073 1237.13 161.064H1229.13ZM1217.87 189.593C1210.38 196.467 1200.41 200.064 1187.55 200.064V208.064C1201.98 208.064 1214.03 203.978 1223.28 195.487L1217.87 189.593ZM1187.55 200.064H1155.04V208.064H1187.55V200.064ZM1151.04 204.064V245H1159.04V204.064H1151.04ZM1155.04 241H1129.93V249H1155.04V241ZM1133.93 245V118.236H1125.93V245H1133.93ZM1186.69 183.984C1194.54 183.984 1201.17 182.216 1205.76 177.917L1200.3 172.075C1197.78 174.426 1193.52 175.984 1186.69 175.984V183.984ZM1205.81 177.872C1210.2 173.631 1212.19 167.911 1212.19 161.236H1204.19C1204.19 166.257 1202.74 169.711 1200.25 172.12L1205.81 177.872ZM1212.19 161.236C1212.19 154.48 1210.21 148.71 1205.76 144.552L1200.3 150.4C1202.72 152.663 1204.19 156.067 1204.19 161.236H1212.19ZM1205.76 144.555C1201.17 140.256 1194.54 138.488 1186.69 138.488V146.488C1193.52 146.488 1197.78 148.046 1200.3 150.397L1205.76 144.555ZM1186.69 138.488H1155.04V146.488H1186.69V138.488ZM1151.04 142.488V179.984H1159.04V142.488H1151.04ZM1155.04 183.984H1186.69V175.984H1155.04V183.984ZM1285.27 118.236V114.236H1282.62L1281.59 116.672L1285.27 118.236ZM1309.52 118.236L1313.21 116.672L1312.17 114.236H1309.52V118.236ZM1363.36 245V249H1369.4L1367.04 243.436L1363.36 245ZM1335.84 245L1332.15 246.548L1333.18 249H1335.84V245ZM1321.91 211.804L1325.6 210.256L1324.57 207.804H1321.91V211.804ZM1272.89 211.804V207.804H1270.23L1269.2 210.256L1272.89 211.804ZM1258.96 245V249H1261.62L1262.64 246.548L1258.96 245ZM1231.44 245L1227.75 243.436L1225.39 249H1231.44V245ZM1311.76 187.724V191.724H1317.78L1315.45 186.175L1311.76 187.724ZM1297.31 153.324L1301 151.775L1297.29 142.942L1293.62 151.791L1297.31 153.324ZM1283.04 187.724L1279.34 186.191L1277.05 191.724H1283.04V187.724ZM1285.27 122.236H1309.52V114.236H1285.27V122.236ZM1305.84 119.8L1359.68 246.564L1367.04 243.436L1313.21 116.672L1305.84 119.8ZM1363.36 241H1335.84V249H1363.36V241ZM1339.53 243.452L1325.6 210.256L1318.22 213.352L1332.15 246.548L1339.53 243.452ZM1321.91 207.804H1272.89V215.804H1321.91V207.804ZM1269.2 210.256L1255.27 243.452L1262.64 246.548L1276.58 213.352L1269.2 210.256ZM1258.96 241H1231.44V249H1258.96V241ZM1235.12 246.564L1288.95 119.8L1281.59 116.672L1227.75 243.436L1235.12 246.564ZM1315.45 186.175L1301 151.775L1293.62 154.873L1308.07 189.273L1315.45 186.175ZM1293.62 151.791L1279.34 186.191L1286.73 189.257L1301.01 154.857L1293.62 151.791ZM1283.04 191.724H1311.76V183.724H1283.04V191.724ZM1378.9 118.236V114.236H1374.9V118.236H1378.9ZM1472.12 129.416L1474.83 126.467L1474.8 126.448L1474.78 126.429L1472.12 129.416ZM1479 181.532L1475.6 179.436L1475.59 179.445L1475.58 179.454L1479 181.532ZM1463.18 194.948L1464.56 198.701L1464.68 198.657L1464.8 198.606L1463.18 194.948ZM1459.91 196.152L1458.53 192.399L1454 194.067L1456.48 198.206L1459.91 196.152ZM1489.15 245V249H1496.21L1492.58 242.946L1489.15 245ZM1459.57 245L1456.1 246.992L1457.25 249H1459.57V245ZM1434.28 200.968L1437.75 198.976L1436.6 196.968H1434.28V200.968ZM1404.01 200.968V196.968H1400.01V200.968H1404.01ZM1404.01 245V249H1408.01V245H1404.01ZM1378.9 245H1374.9V249H1378.9V245ZM1457.85 168.116L1461.23 170.255L1461.29 170.158L1461.34 170.059L1457.85 168.116ZM1454.23 147.476L1456.86 144.46L1456.82 144.427L1456.79 144.396L1454.23 147.476ZM1404.01 142.488V138.488H1400.01V142.488H1404.01ZM1404.01 176.544H1400.01V180.544H1404.01V176.544ZM1378.9 122.236H1439.96V114.236H1378.9V122.236ZM1439.96 122.236C1452.22 122.236 1461.94 125.709 1469.46 132.403L1474.78 126.429C1465.56 118.216 1453.84 114.236 1439.96 114.236V122.236ZM1469.42 132.365C1476.72 139.061 1480.51 148.13 1480.51 160.032H1488.51C1488.51 146.249 1484.03 134.907 1474.83 126.467L1469.42 132.365ZM1480.51 160.032C1480.51 167.808 1478.81 174.217 1475.6 179.436L1482.41 183.628C1486.54 176.922 1488.51 168.997 1488.51 160.032H1480.51ZM1475.58 179.454C1472.5 184.523 1467.9 188.484 1461.56 191.29L1464.8 198.606C1472.45 195.22 1478.39 190.237 1482.42 183.61L1475.58 179.454ZM1461.8 191.195L1458.53 192.399L1461.29 199.905L1464.56 198.701L1461.8 191.195ZM1456.48 198.206L1485.72 247.054L1492.58 242.946L1463.34 194.098L1456.48 198.206ZM1489.15 241H1459.57V249H1489.15V241ZM1463.04 243.008L1437.75 198.976L1430.81 202.96L1456.1 246.992L1463.04 243.008ZM1434.28 196.968H1404.01V204.968H1434.28V196.968ZM1400.01 200.968V245H1408.01V200.968H1400.01ZM1404.01 241H1378.9V249H1404.01V241ZM1382.9 245V118.236H1374.9V245H1382.9ZM1437.55 180.544C1448.16 180.544 1456.62 177.54 1461.23 170.255L1454.47 165.977C1451.97 169.93 1446.89 172.544 1437.55 172.544V180.544ZM1461.34 170.059C1462.93 167.207 1463.57 163.775 1463.57 160.032H1455.57C1455.57 162.94 1455.06 164.897 1454.35 166.173L1461.34 170.059ZM1463.57 160.032C1463.57 153.755 1461.4 148.411 1456.86 144.46L1451.61 150.492C1454.18 152.733 1455.57 155.76 1455.57 160.032H1463.57ZM1456.79 144.396C1451.88 140.328 1445.56 138.488 1438.24 138.488V146.488C1444.22 146.488 1448.57 147.974 1451.68 150.556L1456.79 144.396ZM1438.24 138.488H1404.01V146.488H1438.24V138.488ZM1400.01 142.488V176.544H1408.01V142.488H1400.01ZM1404.01 180.544H1437.55V172.544H1404.01V180.544ZM1538.64 142.66H1542.64V138.66H1538.64V142.66ZM1498.57 142.66H1494.57V146.66H1498.57V142.66ZM1498.57 118.236V114.236H1494.57V118.236H1498.57ZM1603.66 118.236H1607.66V114.236H1603.66V118.236ZM1603.66 142.66V146.66H1607.66V142.66H1603.66ZM1563.58 142.66V138.66H1559.58V142.66H1563.58ZM1563.58 245V249H1567.58V245H1563.58ZM1538.64 245H1534.64V249H1538.64V245ZM1538.64 138.66H1498.57V146.66H1538.64V138.66ZM1502.57 142.66V118.236H1494.57V142.66H1502.57ZM1498.57 122.236H1603.66V114.236H1498.57V122.236ZM1599.66 118.236V142.66H1607.66V118.236H1599.66ZM1603.66 138.66H1563.58V146.66H1603.66V138.66ZM1559.58 142.66V245H1567.58V142.66H1559.58ZM1563.58 241H1538.64V249H1563.58V241ZM1542.64 245V142.66H1534.64V245H1542.64ZM1619.97 118.236V114.236H1615.97V118.236H1619.97ZM1644.05 118.236L1647.28 115.865L1646.08 114.236H1644.05V118.236ZM1705.97 202.344L1702.75 204.715L1709.97 214.524V202.344H1705.97ZM1705.97 118.236V114.236H1701.97V118.236H1705.97ZM1731.09 118.236H1735.09V114.236H1731.09V118.236ZM1731.09 245V249H1735.09V245H1731.09ZM1706.83 245L1703.61 247.361L1704.8 249H1706.83V245ZM1645.09 160.548L1648.32 158.187L1641.09 148.3V160.548H1645.09ZM1645.09 245V249H1649.09V245H1645.09ZM1619.97 245H1615.97V249H1619.97V245ZM1619.97 122.236H1644.05V114.236H1619.97V122.236ZM1640.83 120.607L1702.75 204.715L1709.2 199.973L1647.28 115.865L1640.83 120.607ZM1709.97 202.344V118.236H1701.97V202.344H1709.97ZM1705.97 122.236H1731.09V114.236H1705.97V122.236ZM1727.09 118.236V245H1735.09V118.236H1727.09ZM1731.09 241H1706.83V249H1731.09V241ZM1710.06 242.639L1648.32 158.187L1641.86 162.909L1703.61 247.361L1710.06 242.639ZM1641.09 160.548V245H1649.09V160.548H1641.09ZM1645.09 241H1619.97V249H1645.09V241ZM1623.97 245V118.236H1615.97V245H1623.97ZM1759.41 118.236V114.236H1755.41V118.236H1759.41ZM1855.9 118.236H1859.9V114.236H1855.9V118.236ZM1855.9 142.66V146.66H1859.9V142.66H1855.9ZM1784.52 142.66V138.66H1780.52V142.66H1784.52ZM1784.52 169.148H1780.52V173.148H1784.52V169.148ZM1836.29 169.148H1840.29V165.148H1836.29V169.148ZM1836.29 193.916V197.916H1840.29V193.916H1836.29ZM1784.52 193.916V189.916H1780.52V193.916H1784.52ZM1784.52 220.404H1780.52V224.404H1784.52V220.404ZM1855.9 220.404H1859.9V216.404H1855.9V220.404ZM1855.9 245V249H1859.9V245H1855.9ZM1759.41 245H1755.41V249H1759.41V245ZM1759.41 122.236H1855.9V114.236H1759.41V122.236ZM1851.9 118.236V142.66H1859.9V118.236H1851.9ZM1855.9 138.66H1784.52V146.66H1855.9V138.66ZM1780.52 142.66V169.148H1788.52V142.66H1780.52ZM1784.52 173.148H1836.29V165.148H1784.52V173.148ZM1832.29 169.148V193.916H1840.29V169.148H1832.29ZM1836.29 189.916H1784.52V197.916H1836.29V189.916ZM1780.52 193.916V220.404H1788.52V193.916H1780.52ZM1784.52 224.404H1855.9V216.404H1784.52V224.404ZM1851.9 220.404V245H1859.9V220.404H1851.9ZM1855.9 241H1759.41V249H1855.9V241ZM1763.41 245V118.236H1755.41V245H1763.41ZM1877.34 118.236V114.236H1873.34V118.236H1877.34ZM1970.57 129.416L1973.27 126.467L1973.25 126.448L1973.23 126.429L1970.57 129.416ZM1977.45 181.532L1974.04 179.436L1974.03 179.445L1974.03 179.454L1977.45 181.532ZM1961.62 194.948L1963.01 198.701L1963.13 198.657L1963.24 198.606L1961.62 194.948ZM1958.35 196.152L1956.97 192.399L1952.44 194.067L1954.92 198.206L1958.35 196.152ZM1987.59 245V249H1994.65L1991.03 242.946L1987.59 245ZM1958.01 245L1954.54 246.992L1955.7 249H1958.01V245ZM1932.73 200.968L1936.2 198.976L1935.04 196.968H1932.73V200.968ZM1902.45 200.968V196.968H1898.45V200.968H1902.45ZM1902.45 245V249H1906.45V245H1902.45ZM1877.34 245H1873.34V249H1877.34V245ZM1956.29 168.116L1959.67 170.255L1959.73 170.158L1959.79 170.059L1956.29 168.116ZM1952.68 147.476L1955.31 144.46L1955.27 144.427L1955.23 144.396L1952.68 147.476ZM1902.45 142.488V138.488H1898.45V142.488H1902.45ZM1902.45 176.544H1898.45V180.544H1902.45V176.544ZM1877.34 122.236H1938.4V114.236H1877.34V122.236ZM1938.4 122.236C1950.67 122.236 1960.39 125.709 1967.91 132.403L1973.23 126.429C1964 118.216 1952.28 114.236 1938.4 114.236V122.236ZM1967.86 132.365C1975.17 139.061 1978.95 148.13 1978.95 160.032H1986.95C1986.95 146.249 1982.48 134.907 1973.27 126.467L1967.86 132.365ZM1978.95 160.032C1978.95 167.808 1977.25 174.217 1974.04 179.436L1980.85 183.628C1984.98 176.922 1986.95 168.997 1986.95 160.032H1978.95ZM1974.03 179.454C1970.95 184.523 1966.34 188.484 1960 191.29L1963.24 198.606C1970.89 195.22 1976.84 190.237 1980.86 183.61L1974.03 179.454ZM1960.24 191.195L1956.97 192.399L1959.74 199.905L1963.01 198.701L1960.24 191.195ZM1954.92 198.206L1984.16 247.054L1991.03 242.946L1961.79 194.098L1954.92 198.206ZM1987.59 241H1958.01V249H1987.59V241ZM1961.48 243.008L1936.2 198.976L1929.26 202.96L1954.54 246.992L1961.48 243.008ZM1932.73 196.968H1902.45V204.968H1932.73V196.968ZM1898.45 200.968V245H1906.45V200.968H1898.45ZM1902.45 241H1877.34V249H1902.45V241ZM1881.34 245V118.236H1873.34V245H1881.34ZM1935.99 180.544C1946.61 180.544 1955.06 177.54 1959.67 170.255L1952.91 165.977C1950.41 169.93 1945.33 172.544 1935.99 172.544V180.544ZM1959.79 170.059C1961.37 167.207 1962.01 163.775 1962.01 160.032H1954.01C1954.01 162.94 1953.5 164.897 1952.79 166.173L1959.79 170.059ZM1962.01 160.032C1962.01 153.755 1959.84 148.411 1955.31 144.46L1950.05 150.492C1952.62 152.733 1954.01 155.76 1954.01 160.032H1962.01ZM1955.23 144.396C1950.32 140.328 1944 138.488 1936.68 138.488V146.488C1942.66 146.488 1947.01 147.974 1950.13 150.556L1955.23 144.396ZM1936.68 138.488H1902.45V146.488H1936.68V138.488ZM1898.45 142.488V176.544H1906.45V142.488H1898.45ZM1902.45 180.544H1935.99V172.544H1902.45V180.544ZM2019.54 234.164L2017.04 237.287L2017.05 237.295L2019.54 234.164ZM2004.58 204.408L2000.6 204.816L2000.6 204.823L2000.6 204.83L2004.58 204.408ZM2003.89 197.7V193.7H1999.46L1999.91 198.108L2003.89 197.7ZM2029.69 197.7L2033.68 197.458L2033.46 193.7H2029.69V197.7ZM2030.03 203.376L2034.03 203.136L2034.03 203.134L2030.03 203.376ZM2038.46 216.62L2036.44 220.07L2036.45 220.077L2036.46 220.083L2038.46 216.62ZM2077.85 218.684L2079.41 222.366L2079.44 222.355L2079.47 222.344L2077.85 218.684ZM2085.07 213.18L2088.69 214.883L2088.69 214.883L2085.07 213.18ZM2083.35 200.968L2085.65 197.691L2085.64 197.683L2085.63 197.675L2083.35 200.968ZM2070.45 195.12L2069.27 198.94L2069.28 198.944L2069.29 198.947L2070.45 195.12ZM2051.88 190.476L2052.77 186.576L2052.74 186.571L2052.72 186.566L2051.88 190.476ZM2032.1 184.284L2033.55 180.558L2033.55 180.557L2032.1 184.284ZM2015.59 173.62L2018.49 170.867L2018.44 170.812L2018.38 170.759L2015.59 173.62ZM2020.92 126.148L2018.4 123.037L2018.39 123.045L2020.92 126.148ZM2094.88 127.352L2092.31 130.422L2092.33 130.437L2092.35 130.451L2094.88 127.352ZM2108.64 154.356L2104.64 154.524L2104.64 154.548L2104.64 154.572L2108.64 154.356ZM2108.98 160.72V164.72H2113.2L2112.98 160.504L2108.98 160.72ZM2083.87 160.72L2079.9 161.232L2080.35 164.72H2083.87V160.72ZM2083.18 155.388L2079.21 155.865L2079.21 155.882L2079.22 155.9L2083.18 155.388ZM2079.74 147.476L2082.85 144.959L2082.85 144.959L2079.74 147.476ZM2069.25 141.628L2068.1 145.459L2068.11 145.462L2068.12 145.464L2069.25 141.628ZM2043.28 141.8L2044.54 145.595L2044.56 145.588L2044.58 145.581L2043.28 141.8ZM2036.05 145.412L2033.56 142.289L2033.45 142.373L2033.35 142.463L2036.05 145.412ZM2033.47 149.196L2037.27 150.461L2037.3 150.356L2037.33 150.248L2033.47 149.196ZM2034.16 157.452L2031.33 160.28L2031.33 160.28L2034.16 157.452ZM2041.21 161.752L2039.71 165.456L2039.74 165.471L2039.78 165.485L2041.21 161.752ZM2053.08 165.536L2052.01 169.389L2052.07 169.407L2052.14 169.423L2053.08 165.536ZM2059.45 167.084L2058.5 170.971L2058.52 170.975L2058.53 170.979L2059.45 167.084ZM2067.53 168.976L2068.58 165.117L2068.51 165.098L2068.44 165.081L2067.53 168.976ZM2071.31 170.008L2072.37 166.151L2072.37 166.149L2071.31 170.008ZM2082.49 173.276L2081.15 177.043L2081.2 177.062L2081.26 177.08L2082.49 173.276ZM2096.43 179.984L2094.28 183.362L2094.29 183.367L2094.3 183.372L2096.43 179.984ZM2107.61 191.336L2104.12 193.301L2104.14 193.335L2104.16 193.368L2107.61 191.336ZM2096.94 235.884L2094.66 232.598L2094.66 232.603L2094.65 232.607L2096.94 235.884ZM2060.13 241.516C2043.11 241.516 2030.59 237.836 2022.03 231.033L2017.05 237.295C2027.53 245.628 2042.08 249.516 2060.13 249.516V241.516ZM2022.04 231.041C2014.43 224.948 2009.84 216.091 2008.56 203.986L2000.6 204.83C2002.07 218.64 2007.46 229.62 2017.04 237.287L2022.04 231.041ZM2008.56 204L2007.87 197.292L1999.91 198.108L2000.6 204.816L2008.56 204ZM2003.89 201.7H2029.69V193.7H2003.89V201.7ZM2025.7 197.942L2026.04 203.618L2034.03 203.134L2033.68 197.458L2025.7 197.942ZM2026.04 203.616C2026.47 210.78 2030.1 216.351 2036.44 220.07L2040.49 213.17C2036.27 210.697 2034.29 207.439 2034.03 203.136L2026.04 203.616ZM2036.46 220.083C2042.48 223.563 2050.57 225.092 2060.31 225.092V217.092C2051.24 217.092 2044.76 215.639 2040.46 213.157L2036.46 220.083ZM2060.31 225.092C2068.35 225.092 2074.86 224.296 2079.41 222.366L2076.29 215.002C2073.27 216.283 2068.09 217.092 2060.31 217.092V225.092ZM2079.47 222.344C2083.51 220.56 2087.12 218.23 2088.69 214.883L2081.46 211.477C2081.2 212.029 2079.99 213.368 2076.24 215.024L2079.47 222.344ZM2088.69 214.883C2089.86 212.395 2090.45 209.749 2090.45 206.988H2082.45C2082.45 208.585 2082.12 210.066 2081.46 211.477L2088.69 214.883ZM2090.45 206.988C2090.45 205.193 2090.15 203.388 2089.34 201.759L2082.18 205.337C2082.29 205.542 2082.45 206.031 2082.45 206.988H2090.45ZM2089.34 201.759C2088.5 200.069 2087.15 198.743 2085.65 197.691L2081.06 204.245C2081.85 204.799 2082.11 205.192 2082.18 205.337L2089.34 201.759ZM2085.63 197.675C2081.86 195.08 2077.15 192.978 2071.62 191.293L2069.29 198.947C2074.3 200.473 2078.2 202.269 2081.08 204.261L2085.63 197.675ZM2071.64 191.3C2068.15 190.216 2061.81 188.637 2052.77 186.576L2050.99 194.376C2060.06 196.443 2066.11 197.96 2069.27 198.94L2071.64 191.3ZM2052.72 186.566C2047.14 185.361 2040.75 183.37 2033.55 180.558L2030.64 188.01C2038.12 190.931 2044.93 193.068 2051.04 194.386L2052.72 186.566ZM2033.55 180.557C2027.24 178.096 2022.26 174.842 2018.49 170.867L2012.68 176.373C2017.4 181.342 2023.43 185.197 2030.65 188.011L2033.55 180.557ZM2018.38 170.759C2014.25 166.72 2012.02 161.178 2012.02 153.668H2004.02C2004.02 162.899 2006.83 170.658 2012.79 176.481L2018.38 170.759ZM2012.02 153.668C2012.02 143.486 2015.8 135.465 2023.44 129.251L2018.39 123.045C2008.83 130.82 2004.02 141.146 2004.02 153.668H2012.02ZM2023.43 129.259C2030.82 123.285 2041.89 120 2057.21 120V112C2040.89 112 2027.75 115.48 2018.4 123.037L2023.43 129.259ZM2057.21 120C2072.66 120 2084.2 123.64 2092.31 130.422L2097.44 124.282C2087.44 115.928 2073.86 112 2057.21 112V120ZM2092.35 130.451C2100.21 136.864 2104.23 144.813 2104.64 154.524L2112.63 154.188C2112.13 142.112 2106.98 132.058 2097.41 124.253L2092.35 130.451ZM2104.64 154.572L2104.99 160.936L2112.98 160.504L2112.63 154.14L2104.64 154.572ZM2108.98 156.72H2083.87V164.72H2108.98V156.72ZM2087.84 160.208L2087.15 154.876L2079.22 155.9L2079.9 161.232L2087.84 160.208ZM2087.15 154.911C2086.71 151.242 2085.24 147.908 2082.85 144.959L2076.63 149.993C2078.15 151.86 2078.96 153.801 2079.21 155.865L2087.15 154.911ZM2082.85 144.959C2080.15 141.618 2075.72 139.369 2070.38 137.792L2068.12 145.464C2072.87 146.869 2075.44 148.518 2076.63 149.993L2082.85 144.959ZM2070.4 137.797C2066.46 136.614 2061.68 136.08 2056.18 136.08V144.08C2061.23 144.08 2065.16 144.578 2068.1 145.459L2070.4 137.797ZM2056.18 136.08C2050.66 136.08 2045.87 136.674 2041.97 138.019L2044.58 145.581C2047.33 144.633 2051.15 144.08 2056.18 144.08V136.08ZM2042.01 138.005C2038.66 139.121 2035.78 140.512 2033.56 142.289L2038.55 148.535C2039.77 147.56 2041.7 146.543 2044.54 145.595L2042.01 138.005ZM2033.35 142.463C2031.65 144.027 2030.23 145.905 2029.62 148.144L2037.33 150.248C2037.41 149.964 2037.71 149.319 2038.76 148.361L2033.35 142.463ZM2029.68 147.931C2028.96 150.089 2028.61 152.353 2028.61 154.7H2036.61C2036.61 153.148 2036.84 151.743 2037.27 150.461L2029.68 147.931ZM2028.61 154.7C2028.61 157.153 2030.11 159.056 2031.33 160.28L2036.99 154.624C2036.82 154.455 2036.7 154.318 2036.62 154.212C2036.53 154.105 2036.5 154.044 2036.49 154.029C2036.46 153.988 2036.61 154.233 2036.61 154.7H2028.61ZM2031.33 160.28C2033.45 162.397 2036.33 164.081 2039.71 165.456L2042.72 158.048C2039.91 156.901 2038.09 155.718 2036.99 154.624L2031.33 160.28ZM2039.78 165.485C2042.93 166.696 2047.02 167.996 2052.01 169.389L2054.16 161.683C2049.29 160.324 2045.46 159.101 2042.65 158.019L2039.78 165.485ZM2052.14 169.423L2058.5 170.971L2060.39 163.197L2054.03 161.649L2052.14 169.423ZM2058.53 170.979L2066.62 172.871L2068.44 165.081L2060.36 163.189L2058.53 170.979ZM2066.48 172.835L2070.26 173.867L2072.37 166.149L2068.58 165.117L2066.48 172.835ZM2070.26 173.865C2076.15 175.482 2079.71 176.531 2081.15 177.043L2083.84 169.509C2082.06 168.875 2078.18 167.744 2072.37 166.151L2070.26 173.865ZM2081.26 177.08C2085.48 178.453 2089.82 180.533 2094.28 183.362L2098.57 176.606C2093.63 173.472 2088.68 171.081 2083.73 169.472L2081.26 177.08ZM2094.3 183.372C2098.74 186.162 2101.97 189.483 2104.12 193.301L2111.09 189.371C2108.2 184.245 2103.97 179.998 2098.55 176.596L2094.3 183.372ZM2104.16 193.368C2106.41 197.187 2107.56 201.466 2107.56 206.3H2115.56C2115.56 200.126 2114.07 194.429 2111.05 189.304L2104.16 193.368ZM2107.56 206.3C2107.56 218.088 2103.22 226.657 2094.66 232.598L2099.22 239.17C2110.16 231.58 2115.56 220.427 2115.56 206.3H2107.56ZM2094.65 232.607C2086.36 238.412 2074.98 241.516 2060.13 241.516V249.516C2076.02 249.516 2089.18 246.199 2099.24 239.161L2094.65 232.607Z" fill="black" fill-opacity="0.3"/>
<defs>
<linearGradient id="paint0_linear_12_2" x1="21.818" y1="176" x2="1760.42" y2="-1157.36" gradientUnits="userSpaceOnUse">
<stop stop-color="#F24D56"/>
<stop offset="0.509216" stop-color="#EE0C77"/>
<stop offset="0.964829" stop-color="#F24D56"/>
</linearGradient>
</defs>
</svg>
