<svg width="1085" height="131" viewBox="0 0 1085 131" fill="none" xmlns="http://www.w3.org/2000/svg">
<path d="M18.5965 103.56L21.4763 100.784L21.4708 100.778L21.4652 100.772L18.5965 103.56ZM18.7245 35.464L21.5928 38.2519L21.6054 38.239L21.6179 38.2259L18.7245 35.464ZM87.8445 35.464L84.9511 38.2259L84.9633 38.2388L84.9758 38.2515L87.8445 35.464ZM87.8445 103.688L84.9758 100.9L84.9633 100.913L84.9511 100.926L87.8445 103.688ZM74.6605 90.888L71.7437 88.1507L71.722 88.1739L71.7007 88.1973L74.6605 90.888ZM74.6605 48.264L77.556 45.5042L77.5529 45.5011L74.6605 48.264ZM31.9085 48.264L34.804 51.0238L34.8133 51.014L34.8226 51.0041L31.9085 48.264ZM31.9085 90.888L28.9917 93.6253L28.9931 93.6267L31.9085 90.888ZM53.2845 113.768C40.2989 113.768 29.8011 109.42 21.4763 100.784L15.7166 106.336C25.6532 116.644 38.2807 121.768 53.2845 121.768V113.768ZM21.4652 100.772C13.4646 92.5388 9.41248 82.2187 9.41248 69.512H1.41248C1.41248 84.1119 6.14974 96.4906 15.7278 106.348L21.4652 100.772ZM9.41248 69.512C9.41248 56.9098 13.4947 46.5836 21.5928 38.2519L15.8561 32.6761C6.20491 42.6057 1.41248 54.9782 1.41248 69.512H9.41248ZM21.6179 38.2259C29.7547 29.7017 40.1943 25.384 53.2845 25.384V17.384C38.2146 17.384 25.6143 22.453 15.8311 32.7021L21.6179 38.2259ZM53.2845 25.384C66.3746 25.384 76.8143 29.7017 84.9511 38.2259L90.7379 32.7021C80.9547 22.453 68.3543 17.384 53.2845 17.384V25.384ZM84.9758 38.2515C92.9764 46.4852 97.0285 56.8052 97.0285 69.512H105.028C105.028 54.9121 100.291 42.5334 90.7132 32.6765L84.9758 38.2515ZM97.0285 69.512C97.0285 82.3116 92.9716 92.6718 84.9758 100.9L90.7132 106.476C100.296 96.6136 105.028 84.1897 105.028 69.512H97.0285ZM84.9511 100.926C76.8143 109.45 66.3746 113.768 53.2845 113.768V121.768C68.3543 121.768 80.9547 116.699 90.7379 106.45L84.9511 100.926ZM53.2845 103.336C63.2976 103.336 71.5919 100.21 77.6202 93.5787L71.7007 88.1973C67.489 92.8302 61.5327 95.336 53.2845 95.336V103.336ZM77.5772 93.6253C83.5794 87.2295 86.4685 79.0751 86.4685 69.512H78.4685C78.4685 77.3568 76.1522 83.4532 71.7437 88.1507L77.5772 93.6253ZM86.4685 69.512C86.4685 59.9502 83.5794 51.8239 77.556 45.5042L71.765 51.0238C76.1522 55.6267 78.4685 61.6658 78.4685 69.512H86.4685ZM77.5529 45.5011C71.2487 38.9013 63.0319 35.688 53.2845 35.688V43.688C61.1158 43.688 67.1496 46.192 71.768 51.0269L77.5529 45.5011ZM53.2845 35.688C43.4652 35.688 35.2288 38.8937 28.9944 45.5239L34.8226 51.0041C39.3402 46.1996 45.3545 43.688 53.2845 43.688V35.688ZM29.013 45.5042C22.9896 51.8239 20.1005 59.9502 20.1005 69.512H28.1005C28.1005 61.6658 30.4167 55.6267 34.804 51.0238L29.013 45.5042ZM20.1005 69.512C20.1005 79.0751 22.9895 87.2295 28.9917 93.6253L34.8252 88.1507C30.4168 83.4532 28.1005 77.3568 28.1005 69.512H20.1005ZM28.9931 93.6267C35.1622 100.194 43.4127 103.336 53.2845 103.336V95.336C45.2362 95.336 39.2361 92.8462 34.8239 88.1493L28.9931 93.6267ZM127.159 106.248L124.3 109.045L124.3 109.045L127.159 106.248ZM115.767 22.664V18.664H111.767V22.664H115.767ZM134.455 22.664H138.455V18.664H134.455V22.664ZM141.239 94.216L144.034 91.3545L144.024 91.3441L144.013 91.3337L141.239 94.216ZM171.959 94.216L174.689 97.1402L174.697 97.1329L174.704 97.1256L171.959 94.216ZM178.743 22.664V18.664H174.743V22.664H178.743ZM197.303 22.664H201.303V18.664H197.303V22.664ZM185.911 106.248L188.786 109.029L185.911 106.248ZM156.471 114.024C145.591 114.024 136.882 110.467 130.019 103.451L124.3 109.045C132.797 117.731 143.629 122.024 156.471 122.024V114.024ZM130.019 103.451C123.269 96.5495 119.767 87.4573 119.767 75.784H111.767C111.767 89.1987 115.86 100.416 124.3 109.045L130.019 103.451ZM119.767 75.784V22.664H111.767V75.784H119.767ZM115.767 26.664H134.455V18.664H115.767V26.664ZM130.455 22.664V76.04H138.455V22.664H130.455ZM130.455 76.04C130.455 84.6178 132.981 91.8207 138.466 97.0983L144.013 91.3337C140.452 87.9073 138.455 82.9929 138.455 76.04H130.455ZM138.445 97.0775C143.045 101.571 149.231 103.592 156.471 103.592V95.592C150.741 95.592 146.772 94.0286 144.034 91.3545L138.445 97.0775ZM156.471 103.592C163.72 103.592 169.944 101.569 174.689 97.1402L169.23 91.2918C166.295 94.0312 162.193 95.592 156.471 95.592V103.592ZM174.704 97.1256C180.227 91.9154 182.743 84.6846 182.743 76.04H174.743C174.743 83.0967 172.737 87.9833 169.215 91.3064L174.704 97.1256ZM182.743 76.04V22.664H174.743V76.04H182.743ZM178.743 26.664H197.303V18.664H178.743V26.664ZM193.303 22.664V75.784H201.303V22.664H193.303ZM193.303 75.784C193.303 87.3626 189.807 96.4684 183.037 103.467L188.786 109.029C197.205 100.326 201.303 89.1228 201.303 75.784H193.303ZM183.037 103.467C176.276 110.455 167.541 114.024 156.471 114.024V122.024C169.466 122.024 180.358 117.742 188.786 109.029L183.037 103.467ZM217.187 22.664V18.664H213.187V22.664H217.187ZM286.563 30.984L289.266 28.0354L289.245 28.0158L289.223 27.9966L286.563 30.984ZM291.683 69.768L288.277 67.6716L288.271 67.681L288.265 67.6903L291.683 69.768ZM279.907 79.752L281.29 83.5054L281.41 83.4613L281.526 83.4097L279.907 79.752ZM277.475 80.648L276.093 76.8946L271.565 78.5626L274.043 82.7024L277.475 80.648ZM299.235 117V121H306.292L302.668 114.946L299.235 117ZM277.219 117L273.751 118.992L274.904 121H277.219V117ZM258.403 84.232L261.872 82.2402L260.719 80.232H258.403V84.232ZM235.875 84.232V80.232H231.875V84.232H235.875ZM235.875 117V121H239.875V117H235.875ZM217.187 117H213.187V121H217.187V117ZM275.939 59.784L279.32 61.9226L279.381 61.8262L279.436 61.7266L275.939 59.784ZM273.251 44.424L275.879 41.4077L275.841 41.3753L275.804 41.3439L273.251 44.424ZM235.875 40.712V36.712H231.875V40.712H235.875ZM235.875 66.056H231.875V70.056H235.875V66.056ZM217.187 26.664H262.627V18.664H217.187V26.664ZM262.627 26.664C271.548 26.664 278.526 29.1836 283.903 33.9714L289.223 27.9966C282.142 21.6911 273.163 18.664 262.627 18.664V26.664ZM283.861 33.9326C289.053 38.6927 291.779 45.1509 291.779 53.768H299.779C299.779 43.2705 296.362 34.5393 289.266 28.0354L283.861 33.9326ZM291.779 53.768C291.779 59.403 290.55 63.9784 288.277 67.6716L295.09 71.8644C298.279 66.6829 299.779 60.5916 299.779 53.768H291.779ZM288.265 67.6903C286.094 71.2633 282.838 74.0804 278.288 76.0943L281.526 83.4097C287.387 80.8156 291.983 76.9767 295.102 71.8457L288.265 67.6903ZM278.525 75.9986L276.093 76.8946L278.858 84.4014L281.29 83.5054L278.525 75.9986ZM274.043 82.7024L295.803 119.054L302.668 114.946L280.908 78.5936L274.043 82.7024ZM299.235 113H277.219V121H299.235V113ZM280.688 115.008L261.872 82.2402L254.935 86.2238L273.751 118.992L280.688 115.008ZM258.403 80.232H235.875V88.232H258.403V80.232ZM231.875 84.232V117H239.875V84.232H231.875ZM235.875 113H217.187V121H235.875V113ZM221.187 117V22.664H213.187V117H221.187ZM260.835 70.056C268.897 70.056 275.62 67.7702 279.32 61.9226L272.559 57.6454C270.968 60.1604 267.622 62.056 260.835 62.056V70.056ZM279.436 61.7266C280.727 59.4028 281.219 56.6601 281.219 53.768H273.219C273.219 55.8252 272.859 57.0931 272.443 57.8414L279.436 61.7266ZM281.219 53.768C281.219 48.8399 279.506 44.5669 275.879 41.4077L270.624 47.4403C272.288 48.8891 273.219 50.8454 273.219 53.768H281.219ZM275.804 41.3439C271.92 38.1263 266.966 36.712 261.347 36.712V44.712C265.628 44.712 268.609 45.7724 270.699 47.5041L275.804 41.3439ZM261.347 36.712H235.875V44.712H261.347V36.712ZM231.875 40.712V66.056H239.875V40.712H231.875ZM235.875 70.056H260.835V62.056H235.875V70.056ZM347.842 22.664V18.664H343.842V22.664H347.842ZM415.426 31.368L418.151 28.4397L418.142 28.4312L418.133 28.4227L415.426 31.368ZM415.298 77.96L418.003 80.9069L418.025 80.8871L418.046 80.8669L415.298 77.96ZM366.53 86.536V82.536H362.53V86.536H366.53ZM366.53 117V121H370.53V117H366.53ZM347.842 117H343.842V121H347.842V117ZM402.242 64.904L404.975 67.8251L404.999 67.8027L405.023 67.78L402.242 64.904ZM402.242 44.424L399.51 47.3451L399.513 47.3482L402.242 44.424ZM366.53 40.712V36.712H362.53V40.712H366.53ZM366.53 68.616H362.53V72.616H366.53V68.616ZM347.842 26.664H390.722V18.664H347.842V26.664ZM390.722 26.664C400.071 26.664 407.276 29.3107 412.72 34.3133L418.133 28.4227C410.948 21.8199 401.684 18.664 390.722 18.664V26.664ZM412.702 34.2963C417.901 39.1345 420.642 45.7254 420.642 54.536H428.642C428.642 43.8906 425.24 35.0362 418.151 28.4397L412.702 34.2963ZM420.642 54.536C420.642 63.3271 417.87 70.0258 412.551 75.0531L418.046 80.8669C425.186 74.1182 428.642 65.2009 428.642 54.536H420.642ZM412.594 75.0131C407.245 79.9219 400.088 82.536 390.722 82.536V90.536C401.666 90.536 410.893 87.4328 418.003 80.9069L412.594 75.0131ZM390.722 82.536H366.53V90.536H390.722V82.536ZM362.53 86.536V117H370.53V86.536H362.53ZM366.53 113H347.842V121H366.53V113ZM351.842 117V22.664H343.842V117H351.842ZM390.082 72.616C396.056 72.616 401.289 71.2736 404.975 67.8251L399.51 61.9829C397.905 63.4838 395.032 64.616 390.082 64.616V72.616ZM405.023 67.78C408.53 64.3895 410.082 59.8425 410.082 54.664H402.082C402.082 58.1895 401.075 60.4692 399.462 62.028L405.023 67.78ZM410.082 54.664C410.082 49.4328 408.547 44.8366 404.972 41.4998L399.513 47.3482C401.058 48.7901 402.082 51.0205 402.082 54.664H410.082ZM404.975 41.5029C401.289 38.0544 396.056 36.712 390.082 36.712V44.712C395.032 44.712 397.905 45.8442 399.51 47.3451L404.975 41.5029ZM390.082 36.712H366.53V44.712H390.082V36.712ZM362.53 40.712V68.616H370.53V40.712H362.53ZM366.53 72.616H390.082V64.616H366.53V72.616ZM463.446 22.664V18.664H460.799L459.765 21.1004L463.446 22.664ZM481.494 22.664L485.176 21.1004L484.142 18.664H481.494V22.664ZM521.558 117V121H527.603L525.24 115.436L521.558 117ZM501.078 117L497.39 118.548L498.419 121H501.078V117ZM490.71 92.296L494.399 90.748L493.37 88.296H490.71V92.296ZM454.23 92.296V88.296H451.571L450.542 90.748L454.23 92.296ZM443.862 117V121H446.522L447.551 118.548L443.862 117ZM423.382 117L419.701 115.436L417.338 121H423.382V117ZM483.158 74.376V78.376H489.177L486.846 72.8271L483.158 74.376ZM472.406 48.776L476.094 47.2271L472.384 38.3937L468.712 47.2428L472.406 48.776ZM461.782 74.376L458.088 72.8428L455.792 78.376H461.782V74.376ZM463.446 26.664H481.494V18.664H463.446V26.664ZM477.813 24.2276L517.877 118.564L525.24 115.436L485.176 21.1004L477.813 24.2276ZM521.558 113H501.078V121H521.558V113ZM504.767 115.452L494.399 90.748L487.022 93.844L497.39 118.548L504.767 115.452ZM490.71 88.296H454.23V96.296H490.71V88.296ZM450.542 90.748L440.174 115.452L447.551 118.548L457.919 93.844L450.542 90.748ZM443.862 113H423.382V121H443.862V113ZM427.064 118.564L467.128 24.2276L459.765 21.1004L419.701 115.436L427.064 118.564ZM486.846 72.8271L476.094 47.2271L468.719 50.3249L479.471 75.9249L486.846 72.8271ZM468.712 47.2428L458.088 72.8428L465.477 75.9092L476.101 50.3092L468.712 47.2428ZM461.782 78.376H483.158V70.376H461.782V78.376ZM533.123 22.664V18.664H529.123V22.664H533.123ZM602.499 30.984L605.201 28.0354L605.18 28.0158L605.159 27.9966L602.499 30.984ZM607.619 69.768L604.212 67.6716L604.206 67.681L604.2 67.6903L607.619 69.768ZM595.843 79.752L597.225 83.5054L597.345 83.4613L597.462 83.4097L595.843 79.752ZM593.411 80.648L592.028 76.8946L587.5 78.5626L589.978 82.7024L593.411 80.648ZM615.171 117V121H622.227L618.603 114.946L615.171 117ZM593.155 117L589.686 118.992L590.839 121H593.155V117ZM574.339 84.232L577.807 82.2402L576.654 80.232H574.339V84.232ZM551.811 84.232V80.232H547.811V84.232H551.811ZM551.811 117V121H555.811V117H551.811ZM533.123 117H529.123V121H533.123V117ZM591.875 59.784L595.255 61.9226L595.316 61.8262L595.371 61.7266L591.875 59.784ZM589.187 44.424L591.814 41.4077L591.776 41.3753L591.739 41.3439L589.187 44.424ZM551.811 40.712V36.712H547.811V40.712H551.811ZM551.811 66.056H547.811V70.056H551.811V66.056ZM533.123 26.664H578.563V18.664H533.123V26.664ZM578.563 26.664C587.483 26.664 594.461 29.1836 599.839 33.9714L605.159 27.9966C598.077 21.6911 589.098 18.664 578.563 18.664V26.664ZM599.796 33.9326C604.988 38.6927 607.715 45.1509 607.715 53.768H615.715C615.715 43.2705 612.297 34.5393 605.201 28.0354L599.796 33.9326ZM607.715 53.768C607.715 59.403 606.485 63.9784 604.212 67.6716L611.025 71.8644C614.214 66.6829 615.715 60.5916 615.715 53.768H607.715ZM604.2 67.6903C602.029 71.2633 598.773 74.0804 594.224 76.0943L597.462 83.4097C603.322 80.8156 607.918 76.9767 611.037 71.8457L604.2 67.6903ZM594.46 75.9986L592.028 76.8946L594.793 84.4014L597.225 83.5054L594.46 75.9986ZM589.978 82.7024L611.738 119.054L618.603 114.946L596.843 78.5936L589.978 82.7024ZM615.171 113H593.155V121H615.171V113ZM596.623 115.008L577.807 82.2402L570.87 86.2238L589.686 118.992L596.623 115.008ZM574.339 80.232H551.811V88.232H574.339V80.232ZM547.811 84.232V117H555.811V84.232H547.811ZM551.811 113H533.123V121H551.811V113ZM537.123 117V22.664H529.123V117H537.123ZM576.771 70.056C584.832 70.056 591.555 67.7702 595.255 61.9226L588.494 57.6454C586.903 60.1604 583.557 62.056 576.771 62.056V70.056ZM595.371 61.7266C596.662 59.4028 597.155 56.6601 597.155 53.768H589.155C589.155 55.8252 588.794 57.0931 588.378 57.8414L595.371 61.7266ZM597.155 53.768C597.155 48.8399 595.441 44.5669 591.814 41.4077L586.559 47.4403C588.223 48.8891 589.155 50.8454 589.155 53.768H597.155ZM591.739 41.3439C587.855 38.1263 582.901 36.712 577.283 36.712V44.712C581.563 44.712 584.544 45.7724 586.634 47.5041L591.739 41.3439ZM577.283 36.712H551.811V44.712H577.283V36.712ZM547.811 40.712V66.056H555.811V40.712H547.811ZM551.811 70.056H576.771V62.056H551.811V70.056ZM652.001 40.84H656.001V36.84H652.001V40.84ZM622.177 40.84H618.177V44.84H622.177V40.84ZM622.177 22.664V18.664H618.177V22.664H622.177ZM700.385 22.664H704.385V18.664H700.385V22.664ZM700.385 40.84V44.84H704.385V40.84H700.385ZM670.561 40.84V36.84H666.561V40.84H670.561ZM670.561 117V121H674.561V117H670.561ZM652.001 117H648.001V121H652.001V117ZM652.001 36.84H622.177V44.84H652.001V36.84ZM626.177 40.84V22.664H618.177V40.84H626.177ZM622.177 26.664H700.385V18.664H622.177V26.664ZM696.385 22.664V40.84H704.385V22.664H696.385ZM700.385 36.84H670.561V44.84H700.385V36.84ZM666.561 40.84V117H674.561V40.84H666.561ZM670.561 113H652.001V121H670.561V113ZM656.001 117V40.84H648.001V117H656.001ZM712.527 22.664V18.664H708.527V22.664H712.527ZM730.447 22.664L733.669 20.2925L732.47 18.664H730.447V22.664ZM776.527 85.256L773.306 87.6274L780.527 97.4363V85.256H776.527ZM776.527 22.664V18.664H772.527V22.664H776.527ZM795.215 22.664H799.215V18.664H795.215V22.664ZM795.215 117V121H799.215V117H795.215ZM777.167 117L773.939 119.361L775.137 121H777.167V117ZM731.215 54.152L734.444 51.7911L727.215 41.9041V54.152H731.215ZM731.215 117V121H735.215V117H731.215ZM712.527 117H708.527V121H712.527V117ZM712.527 26.664H730.447V18.664H712.527V26.664ZM727.226 25.0354L773.306 87.6274L779.749 82.8846L733.669 20.2925L727.226 25.0354ZM780.527 85.256V22.664H772.527V85.256H780.527ZM776.527 26.664H795.215V18.664H776.527V26.664ZM791.215 22.664V117H799.215V22.664H791.215ZM795.215 113H777.167V121H795.215V113ZM780.396 114.639L734.444 51.7911L727.987 56.5129L773.939 119.361L780.396 114.639ZM727.215 54.152V117H735.215V54.152H727.215ZM731.215 113H712.527V121H731.215V113ZM716.527 117V22.664H708.527V117H716.527ZM816.292 22.664V18.664H812.292V22.664H816.292ZM888.1 22.664H892.1V18.664H888.1V22.664ZM888.1 40.84V44.84H892.1V40.84H888.1ZM834.98 40.84V36.84H830.98V40.84H834.98ZM834.98 60.552H830.98V64.552H834.98V60.552ZM873.508 60.552H877.508V56.552H873.508V60.552ZM873.508 78.984V82.984H877.508V78.984H873.508ZM834.98 78.984V74.984H830.98V78.984H834.98ZM834.98 98.696H830.98V102.696H834.98V98.696ZM888.1 98.696H892.1V94.696H888.1V98.696ZM888.1 117V121H892.1V117H888.1ZM816.292 117H812.292V121H816.292V117ZM816.292 26.664H888.1V18.664H816.292V26.664ZM884.1 22.664V40.84H892.1V22.664H884.1ZM888.1 36.84H834.98V44.84H888.1V36.84ZM830.98 40.84V60.552H838.98V40.84H830.98ZM834.98 64.552H873.508V56.552H834.98V64.552ZM869.508 60.552V78.984H877.508V60.552H869.508ZM873.508 74.984H834.98V82.984H873.508V74.984ZM830.98 78.984V98.696H838.98V78.984H830.98ZM834.98 102.696H888.1V94.696H834.98V102.696ZM884.1 98.696V117H892.1V98.696H884.1ZM888.1 113H816.292V121H888.1V113ZM820.292 117V22.664H812.292V117H820.292ZM904.058 22.664V18.664H900.058V22.664H904.058ZM973.434 30.984L976.136 28.0354L976.115 28.0158L976.094 27.9966L973.434 30.984ZM978.554 69.768L975.147 67.6716L975.141 67.681L975.135 67.6903L978.554 69.768ZM966.778 79.752L968.16 83.5054L968.28 83.4613L968.397 83.4097L966.778 79.752ZM964.346 80.648L962.963 76.8946L958.435 78.5626L960.913 82.7024L964.346 80.648ZM986.106 117V121H993.162L989.538 114.946L986.106 117ZM964.09 117L960.621 118.992L961.774 121H964.09V117ZM945.274 84.232L948.742 82.2402L947.589 80.232H945.274V84.232ZM922.746 84.232V80.232H918.746V84.232H922.746ZM922.746 117V121H926.746V117H922.746ZM904.058 117H900.058V121H904.058V117ZM962.81 59.784L966.19 61.9226L966.251 61.8262L966.306 61.7266L962.81 59.784ZM960.122 44.424L962.749 41.4077L962.711 41.3753L962.674 41.3439L960.122 44.424ZM922.746 40.712V36.712H918.746V40.712H922.746ZM922.746 66.056H918.746V70.056H922.746V66.056ZM904.058 26.664H949.498V18.664H904.058V26.664ZM949.498 26.664C958.418 26.664 965.396 29.1836 970.774 33.9714L976.094 27.9966C969.012 21.6911 960.033 18.664 949.498 18.664V26.664ZM970.731 33.9326C975.923 38.6927 978.65 45.1509 978.65 53.768H986.65C986.65 43.2705 983.232 34.5393 976.136 28.0354L970.731 33.9326ZM978.65 53.768C978.65 59.403 977.42 63.9784 975.147 67.6716L981.96 71.8644C985.149 66.6829 986.65 60.5916 986.65 53.768H978.65ZM975.135 67.6903C972.964 71.2633 969.708 74.0804 965.159 76.0943L968.397 83.4097C974.257 80.8156 978.853 76.9767 981.972 71.8457L975.135 67.6903ZM965.395 75.9986L962.963 76.8946L965.728 84.4014L968.16 83.5054L965.395 75.9986ZM960.913 82.7024L982.673 119.054L989.538 114.946L967.778 78.5936L960.913 82.7024ZM986.106 113H964.09V121H986.106V113ZM967.558 115.008L948.742 82.2402L941.805 86.2238L960.621 118.992L967.558 115.008ZM945.274 80.232H922.746V88.232H945.274V80.232ZM918.746 84.232V117H926.746V84.232H918.746ZM922.746 113H904.058V121H922.746V113ZM908.058 117V22.664H900.058V117H908.058ZM947.706 70.056C955.767 70.056 962.49 67.7702 966.19 61.9226L959.429 57.6454C957.838 60.1604 954.492 62.056 947.706 62.056V70.056ZM966.306 61.7266C967.597 59.4028 968.09 56.6601 968.09 53.768H960.09C960.09 55.8252 959.729 57.0931 959.313 57.8414L966.306 61.7266ZM968.09 53.768C968.09 48.8399 966.376 44.5669 962.749 41.4077L957.494 47.4403C959.158 48.8891 960.09 50.8454 960.09 53.768H968.09ZM962.674 41.3439C958.79 38.1263 953.836 36.712 948.218 36.712V44.712C952.498 44.712 955.479 45.7724 957.569 47.5041L962.674 41.3439ZM948.218 36.712H922.746V44.712H948.218V36.712ZM918.746 40.712V66.056H926.746V40.712H918.746ZM922.746 70.056H947.706V62.056H922.746V70.056ZM1009.88 108.936L1007.38 112.059L1007.39 112.067L1009.88 108.936ZM998.744 86.792L994.765 87.2001L994.766 87.2073L994.767 87.2144L998.744 86.792ZM998.232 81.8V77.8H993.801L994.253 82.2081L998.232 81.8ZM1017.43 81.8L1021.43 81.558L1021.2 77.8H1017.43V81.8ZM1017.69 86.024L1021.68 85.7844L1021.68 85.782L1017.69 86.024ZM1023.96 95.88L1021.94 99.3297L1021.95 99.3366L1021.96 99.3435L1023.96 95.88ZM1053.27 97.416L1054.83 101.098L1054.86 101.087L1054.89 101.076L1053.27 97.416ZM1058.65 93.32L1062.27 95.0232L1062.27 95.0232L1058.65 93.32ZM1057.37 84.232L1059.66 80.9551L1059.65 80.9471L1059.64 80.9391L1057.37 84.232ZM1047.77 79.88L1046.58 83.7003L1046.59 83.7035L1046.6 83.7067L1047.77 79.88ZM1033.94 76.424L1034.83 72.524L1034.81 72.5188L1034.79 72.5139L1033.94 76.424ZM1019.22 71.816L1020.68 68.0902L1020.68 68.0892L1019.22 71.816ZM1006.94 63.88L1009.84 61.127L1009.79 61.0721L1009.73 61.0192L1006.94 63.88ZM1010.9 28.552L1008.39 25.441L1008.38 25.4488L1010.9 28.552ZM1065.94 29.448L1063.38 32.5177L1063.4 32.5327L1063.42 32.5475L1065.94 29.448ZM1076.18 49.544L1072.19 49.7123L1072.19 49.7361L1072.19 49.7599L1076.18 49.544ZM1076.44 54.28V58.28H1080.66L1080.43 54.0641L1076.44 54.28ZM1057.75 54.28L1053.79 54.7919L1054.24 58.28H1057.75V54.28ZM1057.24 50.312L1053.27 50.7886L1053.27 50.8062L1053.27 50.8239L1057.24 50.312ZM1054.68 44.424L1057.79 41.9072L1057.79 41.9072L1054.68 44.424ZM1046.87 40.072L1045.72 43.9033L1045.73 43.9057L1045.74 43.9081L1046.87 40.072ZM1027.54 40.2L1028.81 43.9947L1028.83 43.9882L1028.85 43.9815L1027.54 40.2ZM1022.17 42.888L1019.67 39.7645L1019.56 39.8485L1019.47 39.9394L1022.17 42.888ZM1020.25 45.704L1024.04 46.9689L1024.08 46.8636L1024.11 46.7565L1020.25 45.704ZM1020.76 51.848L1017.93 54.6764L1017.93 54.6764L1020.76 51.848ZM1026.01 55.048L1024.5 58.7524L1024.54 58.7672L1024.57 58.7814L1026.01 55.048ZM1034.84 57.864L1033.77 61.7168L1033.83 61.7348L1033.9 61.7507L1034.84 57.864ZM1039.58 59.016L1038.63 62.9027L1038.65 62.9068L1038.66 62.9108L1039.58 59.016ZM1045.59 60.424L1046.64 56.5649L1046.57 56.5458L1046.5 56.5292L1045.59 60.424ZM1048.41 61.192L1049.47 57.3347L1049.46 57.3329L1048.41 61.192ZM1056.73 63.624L1055.38 67.391L1055.44 67.4103L1055.49 67.4281L1056.73 63.624ZM1067.1 68.616L1064.95 71.994L1064.96 71.9988L1064.97 72.0036L1067.1 68.616ZM1075.42 77.064L1071.93 79.0293L1071.95 79.0628L1071.97 79.0959L1075.42 77.064ZM1067.48 110.216L1065.2 106.93L1065.19 106.935L1065.19 106.939L1067.48 110.216ZM1040.09 113.384C1027.55 113.384 1018.49 110.672 1012.37 105.805L1007.39 112.067C1015.44 118.464 1026.52 121.384 1040.09 121.384V113.384ZM1012.38 105.813C1006.96 101.48 1003.66 95.16 1002.72 86.3696L994.767 87.2144C995.881 97.7094 999.997 106.152 1007.38 112.059L1012.38 105.813ZM1002.72 86.3839L1002.21 81.3919L994.253 82.2081L994.765 87.2001L1002.72 86.3839ZM998.232 85.8H1017.43V77.8H998.232V85.8ZM1013.44 82.042L1013.7 86.266L1021.68 85.782L1021.43 81.558L1013.44 82.042ZM1013.7 86.2636C1014.04 91.9609 1016.95 96.4027 1021.94 99.3297L1025.99 92.4303C1023.12 90.7493 1021.85 88.6204 1021.68 85.7844L1013.7 86.2636ZM1021.96 99.3435C1026.66 102.061 1032.88 103.208 1040.22 103.208V95.208C1033.55 95.208 1028.94 94.1366 1025.96 92.4165L1021.96 99.3435ZM1040.22 103.208C1046.24 103.208 1051.25 102.617 1054.83 101.098L1051.71 93.7337C1049.66 94.6039 1045.97 95.208 1040.22 95.208V103.208ZM1054.89 101.076C1057.93 99.7323 1060.93 97.8714 1062.27 95.0232L1055.03 91.6168C1055.05 91.5731 1054.95 91.8087 1054.37 92.2503C1053.8 92.6827 1052.93 93.1962 1051.66 93.7563L1054.89 101.076ZM1062.27 95.0232C1063.2 93.0336 1063.67 90.9153 1063.67 88.712H1055.67C1055.67 89.7514 1055.46 90.7051 1055.03 91.6168L1062.27 95.0232ZM1063.67 88.712C1063.67 87.2694 1063.44 85.7576 1062.74 84.3631L1055.58 87.9409C1055.57 87.9117 1055.67 88.1066 1055.67 88.712H1063.67ZM1062.74 84.3631C1062.01 82.908 1060.87 81.8012 1059.66 80.9551L1055.07 87.5089C1055.57 87.8575 1055.63 88.0307 1055.58 87.9409L1062.74 84.3631ZM1059.64 80.9391C1056.73 78.9308 1053.12 77.3273 1048.93 76.0533L1046.6 83.7067C1050.27 84.822 1053.06 86.1198 1055.1 87.5248L1059.64 80.9391ZM1048.95 76.0597C1046.31 75.24 1041.56 74.0573 1034.83 72.524L1033.06 80.324C1039.81 81.8627 1044.28 82.984 1046.58 83.7003L1048.95 76.0597ZM1034.79 72.5139C1030.7 71.6318 1026 70.1687 1020.68 68.0902L1017.77 75.5418C1023.37 77.73 1028.49 79.3389 1033.1 80.3341L1034.79 72.5139ZM1020.68 68.0892C1016.09 66.3027 1012.52 63.9582 1009.84 61.127L1004.03 66.633C1007.66 70.4578 1012.28 73.404 1017.77 75.5428L1020.68 68.0892ZM1009.73 61.0192C1006.89 58.2415 1005.3 54.4011 1005.3 49.032H997.304C997.304 56.1216 999.474 62.1798 1004.14 66.7407L1009.73 61.0192ZM1005.3 49.032C1005.3 41.7542 1007.99 36.08 1013.43 31.6552L1008.38 25.4488C1001.02 31.4347 997.304 39.4138 997.304 49.032H1005.3ZM1013.42 31.663C1018.67 27.4196 1026.64 25 1037.91 25V17C1025.64 17 1015.6 19.615 1008.39 25.441L1013.42 31.663ZM1037.91 25C1049.26 25 1057.58 27.6724 1063.38 32.5177L1068.51 26.3783C1060.83 19.9596 1050.46 17 1037.91 17V25ZM1063.42 32.5475C1069.05 37.1416 1071.9 42.7879 1072.19 49.7123L1080.18 49.3757C1079.79 40.0867 1075.81 32.3357 1068.47 26.3485L1063.42 32.5475ZM1072.19 49.7599L1072.45 54.4959L1080.43 54.0641L1080.18 49.3281L1072.19 49.7599ZM1076.44 50.28H1057.75V58.28H1076.44V50.28ZM1061.72 53.7681L1061.21 49.8001L1053.27 50.8239L1053.79 54.7919L1061.72 53.7681ZM1061.21 49.8354C1060.86 46.8994 1059.68 44.24 1057.79 41.9072L1051.57 46.9408C1052.58 48.192 1053.11 49.4579 1053.27 50.7886L1061.21 49.8354ZM1057.79 41.9072C1055.58 39.1823 1052.05 37.4315 1048.01 36.2359L1045.74 43.9081C1049.2 44.9312 1050.88 46.0817 1051.57 46.9408L1057.79 41.9072ZM1048.02 36.2407C1044.96 35.3218 1041.29 34.92 1037.14 34.92V42.92C1040.84 42.92 1043.67 43.2862 1045.72 43.9033L1048.02 36.2407ZM1037.14 34.92C1032.97 34.92 1029.29 35.3674 1026.24 36.4185L1028.85 43.9815C1030.75 43.3259 1033.46 42.92 1037.14 42.92V34.92ZM1026.28 36.4053C1023.72 37.2575 1021.45 38.34 1019.67 39.7645L1024.67 46.0115C1025.45 45.388 1026.76 44.6785 1028.81 43.9947L1026.28 36.4053ZM1019.47 39.9394C1018.11 41.1808 1016.91 42.736 1016.39 44.6515L1024.11 46.7565C1024.1 46.7947 1024.18 46.4726 1024.87 45.8366L1019.47 39.9394ZM1016.45 44.4391C1015.88 46.1565 1015.61 47.9517 1015.61 49.8H1023.61C1023.61 48.7469 1023.76 47.8115 1024.04 46.9689L1016.45 44.4391ZM1015.61 49.8C1015.61 52.0478 1016.97 53.7162 1017.93 54.6764L1023.59 49.0196C1023.37 48.8018 1023.34 48.7266 1023.38 48.799C1023.43 48.8755 1023.61 49.2304 1023.61 49.8H1015.61ZM1017.93 54.6764C1019.64 56.3823 1021.91 57.6993 1024.5 58.7524L1027.52 51.3436C1025.49 50.5194 1024.27 49.7031 1023.59 49.0196L1017.93 54.6764ZM1024.57 58.7814C1026.96 59.6989 1030.04 60.6763 1033.77 61.7168L1035.92 54.0112C1032.31 53.0036 1029.5 52.1038 1027.44 51.3146L1024.57 58.7814ZM1033.9 61.7507L1038.63 62.9027L1040.52 55.1293L1035.79 53.9773L1033.9 61.7507ZM1038.66 62.9108L1044.68 64.3187L1046.5 56.5292L1040.49 55.1212L1038.66 62.9108ZM1044.54 64.2831L1047.36 65.0511L1049.46 57.3329L1046.64 56.5649L1044.54 64.2831ZM1047.35 65.0493C1051.74 66.2556 1054.36 67.0252 1055.38 67.391L1058.07 59.857C1056.71 59.3694 1053.78 58.5177 1049.47 57.3347L1047.35 65.0493ZM1055.49 67.4281C1058.54 68.4195 1061.7 69.9278 1064.95 71.994L1069.24 65.238C1065.5 62.8668 1061.74 61.0472 1057.96 59.8199L1055.49 67.4281ZM1064.97 72.0036C1068.15 74.0017 1070.42 76.3547 1071.93 79.0293L1078.9 75.0987C1076.65 71.1173 1073.38 67.8383 1069.22 65.2284L1064.97 72.0036ZM1071.97 79.0959C1073.55 81.7709 1074.36 84.774 1074.36 88.2H1082.36C1082.36 83.434 1081.21 79.0131 1078.86 75.0321L1071.97 79.0959ZM1074.36 88.2C1074.36 96.6735 1071.26 102.72 1065.2 106.93L1069.76 113.502C1078.2 107.643 1082.36 99.0119 1082.36 88.2H1074.36ZM1065.19 106.939C1059.24 111.101 1051 113.384 1040.09 113.384V121.384C1052.05 121.384 1062.07 118.888 1069.77 113.493L1065.19 106.939Z" fill="url(#paint0_linear_76_2)"/>
<path d="M18.5965 103.56L21.4763 100.784L21.4708 100.778L21.4652 100.772L18.5965 103.56ZM18.7245 35.464L21.5928 38.2519L21.6054 38.239L21.6179 38.2259L18.7245 35.464ZM87.8445 35.464L84.9511 38.2259L84.9633 38.2388L84.9758 38.2515L87.8445 35.464ZM87.8445 103.688L84.9758 100.9L84.9633 100.913L84.9511 100.926L87.8445 103.688ZM74.6605 90.888L71.7437 88.1507L71.722 88.1739L71.7007 88.1973L74.6605 90.888ZM74.6605 48.264L77.556 45.5042L77.5529 45.5011L74.6605 48.264ZM31.9085 48.264L34.804 51.0238L34.8133 51.014L34.8226 51.0041L31.9085 48.264ZM31.9085 90.888L28.9917 93.6253L28.9931 93.6267L31.9085 90.888ZM53.2845 113.768C40.2989 113.768 29.8011 109.42 21.4763 100.784L15.7166 106.336C25.6532 116.644 38.2807 121.768 53.2845 121.768V113.768ZM21.4652 100.772C13.4646 92.5388 9.41248 82.2187 9.41248 69.512H1.41248C1.41248 84.1119 6.14974 96.4906 15.7278 106.348L21.4652 100.772ZM9.41248 69.512C9.41248 56.9098 13.4947 46.5836 21.5928 38.2519L15.8561 32.6761C6.20491 42.6057 1.41248 54.9782 1.41248 69.512H9.41248ZM21.6179 38.2259C29.7547 29.7017 40.1943 25.384 53.2845 25.384V17.384C38.2146 17.384 25.6143 22.453 15.8311 32.7021L21.6179 38.2259ZM53.2845 25.384C66.3746 25.384 76.8143 29.7017 84.9511 38.2259L90.7379 32.7021C80.9547 22.453 68.3543 17.384 53.2845 17.384V25.384ZM84.9758 38.2515C92.9764 46.4852 97.0285 56.8052 97.0285 69.512H105.028C105.028 54.9121 100.291 42.5334 90.7132 32.6765L84.9758 38.2515ZM97.0285 69.512C97.0285 82.3116 92.9716 92.6718 84.9758 100.9L90.7132 106.476C100.296 96.6136 105.028 84.1897 105.028 69.512H97.0285ZM84.9511 100.926C76.8143 109.45 66.3746 113.768 53.2845 113.768V121.768C68.3543 121.768 80.9547 116.699 90.7379 106.45L84.9511 100.926ZM53.2845 103.336C63.2976 103.336 71.5919 100.21 77.6202 93.5787L71.7007 88.1973C67.489 92.8302 61.5327 95.336 53.2845 95.336V103.336ZM77.5772 93.6253C83.5794 87.2295 86.4685 79.0751 86.4685 69.512H78.4685C78.4685 77.3568 76.1522 83.4532 71.7437 88.1507L77.5772 93.6253ZM86.4685 69.512C86.4685 59.9502 83.5794 51.8239 77.556 45.5042L71.765 51.0238C76.1522 55.6267 78.4685 61.6658 78.4685 69.512H86.4685ZM77.5529 45.5011C71.2487 38.9013 63.0319 35.688 53.2845 35.688V43.688C61.1158 43.688 67.1496 46.192 71.768 51.0269L77.5529 45.5011ZM53.2845 35.688C43.4652 35.688 35.2288 38.8937 28.9944 45.5239L34.8226 51.0041C39.3402 46.1996 45.3545 43.688 53.2845 43.688V35.688ZM29.013 45.5042C22.9896 51.8239 20.1005 59.9502 20.1005 69.512H28.1005C28.1005 61.6658 30.4167 55.6267 34.804 51.0238L29.013 45.5042ZM20.1005 69.512C20.1005 79.0751 22.9895 87.2295 28.9917 93.6253L34.8252 88.1507C30.4168 83.4532 28.1005 77.3568 28.1005 69.512H20.1005ZM28.9931 93.6267C35.1622 100.194 43.4127 103.336 53.2845 103.336V95.336C45.2362 95.336 39.2361 92.8462 34.8239 88.1493L28.9931 93.6267ZM127.159 106.248L124.3 109.045L124.3 109.045L127.159 106.248ZM115.767 22.664V18.664H111.767V22.664H115.767ZM134.455 22.664H138.455V18.664H134.455V22.664ZM141.239 94.216L144.034 91.3545L144.024 91.3441L144.013 91.3337L141.239 94.216ZM171.959 94.216L174.689 97.1402L174.697 97.1329L174.704 97.1256L171.959 94.216ZM178.743 22.664V18.664H174.743V22.664H178.743ZM197.303 22.664H201.303V18.664H197.303V22.664ZM185.911 106.248L188.786 109.029L185.911 106.248ZM156.471 114.024C145.591 114.024 136.882 110.467 130.019 103.451L124.3 109.045C132.797 117.731 143.629 122.024 156.471 122.024V114.024ZM130.019 103.451C123.269 96.5495 119.767 87.4573 119.767 75.784H111.767C111.767 89.1987 115.86 100.416 124.3 109.045L130.019 103.451ZM119.767 75.784V22.664H111.767V75.784H119.767ZM115.767 26.664H134.455V18.664H115.767V26.664ZM130.455 22.664V76.04H138.455V22.664H130.455ZM130.455 76.04C130.455 84.6178 132.981 91.8207 138.466 97.0983L144.013 91.3337C140.452 87.9073 138.455 82.9929 138.455 76.04H130.455ZM138.445 97.0775C143.045 101.571 149.231 103.592 156.471 103.592V95.592C150.741 95.592 146.772 94.0286 144.034 91.3545L138.445 97.0775ZM156.471 103.592C163.72 103.592 169.944 101.569 174.689 97.1402L169.23 91.2918C166.295 94.0312 162.193 95.592 156.471 95.592V103.592ZM174.704 97.1256C180.227 91.9154 182.743 84.6846 182.743 76.04H174.743C174.743 83.0967 172.737 87.9833 169.215 91.3064L174.704 97.1256ZM182.743 76.04V22.664H174.743V76.04H182.743ZM178.743 26.664H197.303V18.664H178.743V26.664ZM193.303 22.664V75.784H201.303V22.664H193.303ZM193.303 75.784C193.303 87.3626 189.807 96.4684 183.037 103.467L188.786 109.029C197.205 100.326 201.303 89.1228 201.303 75.784H193.303ZM183.037 103.467C176.276 110.455 167.541 114.024 156.471 114.024V122.024C169.466 122.024 180.358 117.742 188.786 109.029L183.037 103.467ZM217.187 22.664V18.664H213.187V22.664H217.187ZM286.563 30.984L289.266 28.0354L289.245 28.0158L289.223 27.9966L286.563 30.984ZM291.683 69.768L288.277 67.6716L288.271 67.681L288.265 67.6903L291.683 69.768ZM279.907 79.752L281.29 83.5054L281.41 83.4613L281.526 83.4097L279.907 79.752ZM277.475 80.648L276.093 76.8946L271.565 78.5626L274.043 82.7024L277.475 80.648ZM299.235 117V121H306.292L302.668 114.946L299.235 117ZM277.219 117L273.751 118.992L274.904 121H277.219V117ZM258.403 84.232L261.872 82.2402L260.719 80.232H258.403V84.232ZM235.875 84.232V80.232H231.875V84.232H235.875ZM235.875 117V121H239.875V117H235.875ZM217.187 117H213.187V121H217.187V117ZM275.939 59.784L279.32 61.9226L279.381 61.8262L279.436 61.7266L275.939 59.784ZM273.251 44.424L275.879 41.4077L275.841 41.3753L275.804 41.3439L273.251 44.424ZM235.875 40.712V36.712H231.875V40.712H235.875ZM235.875 66.056H231.875V70.056H235.875V66.056ZM217.187 26.664H262.627V18.664H217.187V26.664ZM262.627 26.664C271.548 26.664 278.526 29.1836 283.903 33.9714L289.223 27.9966C282.142 21.6911 273.163 18.664 262.627 18.664V26.664ZM283.861 33.9326C289.053 38.6927 291.779 45.1509 291.779 53.768H299.779C299.779 43.2705 296.362 34.5393 289.266 28.0354L283.861 33.9326ZM291.779 53.768C291.779 59.403 290.55 63.9784 288.277 67.6716L295.09 71.8644C298.279 66.6829 299.779 60.5916 299.779 53.768H291.779ZM288.265 67.6903C286.094 71.2633 282.838 74.0804 278.288 76.0943L281.526 83.4097C287.387 80.8156 291.983 76.9767 295.102 71.8457L288.265 67.6903ZM278.525 75.9986L276.093 76.8946L278.858 84.4014L281.29 83.5054L278.525 75.9986ZM274.043 82.7024L295.803 119.054L302.668 114.946L280.908 78.5936L274.043 82.7024ZM299.235 113H277.219V121H299.235V113ZM280.688 115.008L261.872 82.2402L254.935 86.2238L273.751 118.992L280.688 115.008ZM258.403 80.232H235.875V88.232H258.403V80.232ZM231.875 84.232V117H239.875V84.232H231.875ZM235.875 113H217.187V121H235.875V113ZM221.187 117V22.664H213.187V117H221.187ZM260.835 70.056C268.897 70.056 275.62 67.7702 279.32 61.9226L272.559 57.6454C270.968 60.1604 267.622 62.056 260.835 62.056V70.056ZM279.436 61.7266C280.727 59.4028 281.219 56.6601 281.219 53.768H273.219C273.219 55.8252 272.859 57.0931 272.443 57.8414L279.436 61.7266ZM281.219 53.768C281.219 48.8399 279.506 44.5669 275.879 41.4077L270.624 47.4403C272.288 48.8891 273.219 50.8454 273.219 53.768H281.219ZM275.804 41.3439C271.92 38.1263 266.966 36.712 261.347 36.712V44.712C265.628 44.712 268.609 45.7724 270.699 47.5041L275.804 41.3439ZM261.347 36.712H235.875V44.712H261.347V36.712ZM231.875 40.712V66.056H239.875V40.712H231.875ZM235.875 70.056H260.835V62.056H235.875V70.056ZM347.842 22.664V18.664H343.842V22.664H347.842ZM415.426 31.368L418.151 28.4397L418.142 28.4312L418.133 28.4227L415.426 31.368ZM415.298 77.96L418.003 80.9069L418.025 80.8871L418.046 80.8669L415.298 77.96ZM366.53 86.536V82.536H362.53V86.536H366.53ZM366.53 117V121H370.53V117H366.53ZM347.842 117H343.842V121H347.842V117ZM402.242 64.904L404.975 67.8251L404.999 67.8027L405.023 67.78L402.242 64.904ZM402.242 44.424L399.51 47.3451L399.513 47.3482L402.242 44.424ZM366.53 40.712V36.712H362.53V40.712H366.53ZM366.53 68.616H362.53V72.616H366.53V68.616ZM347.842 26.664H390.722V18.664H347.842V26.664ZM390.722 26.664C400.071 26.664 407.276 29.3107 412.72 34.3133L418.133 28.4227C410.948 21.8199 401.684 18.664 390.722 18.664V26.664ZM412.702 34.2963C417.901 39.1345 420.642 45.7254 420.642 54.536H428.642C428.642 43.8906 425.24 35.0362 418.151 28.4397L412.702 34.2963ZM420.642 54.536C420.642 63.3271 417.87 70.0258 412.551 75.0531L418.046 80.8669C425.186 74.1182 428.642 65.2009 428.642 54.536H420.642ZM412.594 75.0131C407.245 79.9219 400.088 82.536 390.722 82.536V90.536C401.666 90.536 410.893 87.4328 418.003 80.9069L412.594 75.0131ZM390.722 82.536H366.53V90.536H390.722V82.536ZM362.53 86.536V117H370.53V86.536H362.53ZM366.53 113H347.842V121H366.53V113ZM351.842 117V22.664H343.842V117H351.842ZM390.082 72.616C396.056 72.616 401.289 71.2736 404.975 67.8251L399.51 61.9829C397.905 63.4838 395.032 64.616 390.082 64.616V72.616ZM405.023 67.78C408.53 64.3895 410.082 59.8425 410.082 54.664H402.082C402.082 58.1895 401.075 60.4692 399.462 62.028L405.023 67.78ZM410.082 54.664C410.082 49.4328 408.547 44.8366 404.972 41.4998L399.513 47.3482C401.058 48.7901 402.082 51.0205 402.082 54.664H410.082ZM404.975 41.5029C401.289 38.0544 396.056 36.712 390.082 36.712V44.712C395.032 44.712 397.905 45.8442 399.51 47.3451L404.975 41.5029ZM390.082 36.712H366.53V44.712H390.082V36.712ZM362.53 40.712V68.616H370.53V40.712H362.53ZM366.53 72.616H390.082V64.616H366.53V72.616ZM463.446 22.664V18.664H460.799L459.765 21.1004L463.446 22.664ZM481.494 22.664L485.176 21.1004L484.142 18.664H481.494V22.664ZM521.558 117V121H527.603L525.24 115.436L521.558 117ZM501.078 117L497.39 118.548L498.419 121H501.078V117ZM490.71 92.296L494.399 90.748L493.37 88.296H490.71V92.296ZM454.23 92.296V88.296H451.571L450.542 90.748L454.23 92.296ZM443.862 117V121H446.522L447.551 118.548L443.862 117ZM423.382 117L419.701 115.436L417.338 121H423.382V117ZM483.158 74.376V78.376H489.177L486.846 72.8271L483.158 74.376ZM472.406 48.776L476.094 47.2271L472.384 38.3937L468.712 47.2428L472.406 48.776ZM461.782 74.376L458.088 72.8428L455.792 78.376H461.782V74.376ZM463.446 26.664H481.494V18.664H463.446V26.664ZM477.813 24.2276L517.877 118.564L525.24 115.436L485.176 21.1004L477.813 24.2276ZM521.558 113H501.078V121H521.558V113ZM504.767 115.452L494.399 90.748L487.022 93.844L497.39 118.548L504.767 115.452ZM490.71 88.296H454.23V96.296H490.71V88.296ZM450.542 90.748L440.174 115.452L447.551 118.548L457.919 93.844L450.542 90.748ZM443.862 113H423.382V121H443.862V113ZM427.064 118.564L467.128 24.2276L459.765 21.1004L419.701 115.436L427.064 118.564ZM486.846 72.8271L476.094 47.2271L468.719 50.3249L479.471 75.9249L486.846 72.8271ZM468.712 47.2428L458.088 72.8428L465.477 75.9092L476.101 50.3092L468.712 47.2428ZM461.782 78.376H483.158V70.376H461.782V78.376ZM533.123 22.664V18.664H529.123V22.664H533.123ZM602.499 30.984L605.201 28.0354L605.18 28.0158L605.159 27.9966L602.499 30.984ZM607.619 69.768L604.212 67.6716L604.206 67.681L604.2 67.6903L607.619 69.768ZM595.843 79.752L597.225 83.5054L597.345 83.4613L597.462 83.4097L595.843 79.752ZM593.411 80.648L592.028 76.8946L587.5 78.5626L589.978 82.7024L593.411 80.648ZM615.171 117V121H622.227L618.603 114.946L615.171 117ZM593.155 117L589.686 118.992L590.839 121H593.155V117ZM574.339 84.232L577.807 82.2402L576.654 80.232H574.339V84.232ZM551.811 84.232V80.232H547.811V84.232H551.811ZM551.811 117V121H555.811V117H551.811ZM533.123 117H529.123V121H533.123V117ZM591.875 59.784L595.255 61.9226L595.316 61.8262L595.371 61.7266L591.875 59.784ZM589.187 44.424L591.814 41.4077L591.776 41.3753L591.739 41.3439L589.187 44.424ZM551.811 40.712V36.712H547.811V40.712H551.811ZM551.811 66.056H547.811V70.056H551.811V66.056ZM533.123 26.664H578.563V18.664H533.123V26.664ZM578.563 26.664C587.483 26.664 594.461 29.1836 599.839 33.9714L605.159 27.9966C598.077 21.6911 589.098 18.664 578.563 18.664V26.664ZM599.796 33.9326C604.988 38.6927 607.715 45.1509 607.715 53.768H615.715C615.715 43.2705 612.297 34.5393 605.201 28.0354L599.796 33.9326ZM607.715 53.768C607.715 59.403 606.485 63.9784 604.212 67.6716L611.025 71.8644C614.214 66.6829 615.715 60.5916 615.715 53.768H607.715ZM604.2 67.6903C602.029 71.2633 598.773 74.0804 594.224 76.0943L597.462 83.4097C603.322 80.8156 607.918 76.9767 611.037 71.8457L604.2 67.6903ZM594.46 75.9986L592.028 76.8946L594.793 84.4014L597.225 83.5054L594.46 75.9986ZM589.978 82.7024L611.738 119.054L618.603 114.946L596.843 78.5936L589.978 82.7024ZM615.171 113H593.155V121H615.171V113ZM596.623 115.008L577.807 82.2402L570.87 86.2238L589.686 118.992L596.623 115.008ZM574.339 80.232H551.811V88.232H574.339V80.232ZM547.811 84.232V117H555.811V84.232H547.811ZM551.811 113H533.123V121H551.811V113ZM537.123 117V22.664H529.123V117H537.123ZM576.771 70.056C584.832 70.056 591.555 67.7702 595.255 61.9226L588.494 57.6454C586.903 60.1604 583.557 62.056 576.771 62.056V70.056ZM595.371 61.7266C596.662 59.4028 597.155 56.6601 597.155 53.768H589.155C589.155 55.8252 588.794 57.0931 588.378 57.8414L595.371 61.7266ZM597.155 53.768C597.155 48.8399 595.441 44.5669 591.814 41.4077L586.559 47.4403C588.223 48.8891 589.155 50.8454 589.155 53.768H597.155ZM591.739 41.3439C587.855 38.1263 582.901 36.712 577.283 36.712V44.712C581.563 44.712 584.544 45.7724 586.634 47.5041L591.739 41.3439ZM577.283 36.712H551.811V44.712H577.283V36.712ZM547.811 40.712V66.056H555.811V40.712H547.811ZM551.811 70.056H576.771V62.056H551.811V70.056ZM652.001 40.84H656.001V36.84H652.001V40.84ZM622.177 40.84H618.177V44.84H622.177V40.84ZM622.177 22.664V18.664H618.177V22.664H622.177ZM700.385 22.664H704.385V18.664H700.385V22.664ZM700.385 40.84V44.84H704.385V40.84H700.385ZM670.561 40.84V36.84H666.561V40.84H670.561ZM670.561 117V121H674.561V117H670.561ZM652.001 117H648.001V121H652.001V117ZM652.001 36.84H622.177V44.84H652.001V36.84ZM626.177 40.84V22.664H618.177V40.84H626.177ZM622.177 26.664H700.385V18.664H622.177V26.664ZM696.385 22.664V40.84H704.385V22.664H696.385ZM700.385 36.84H670.561V44.84H700.385V36.84ZM666.561 40.84V117H674.561V40.84H666.561ZM670.561 113H652.001V121H670.561V113ZM656.001 117V40.84H648.001V117H656.001ZM712.527 22.664V18.664H708.527V22.664H712.527ZM730.447 22.664L733.669 20.2925L732.47 18.664H730.447V22.664ZM776.527 85.256L773.306 87.6274L780.527 97.4363V85.256H776.527ZM776.527 22.664V18.664H772.527V22.664H776.527ZM795.215 22.664H799.215V18.664H795.215V22.664ZM795.215 117V121H799.215V117H795.215ZM777.167 117L773.939 119.361L775.137 121H777.167V117ZM731.215 54.152L734.444 51.7911L727.215 41.9041V54.152H731.215ZM731.215 117V121H735.215V117H731.215ZM712.527 117H708.527V121H712.527V117ZM712.527 26.664H730.447V18.664H712.527V26.664ZM727.226 25.0354L773.306 87.6274L779.749 82.8846L733.669 20.2925L727.226 25.0354ZM780.527 85.256V22.664H772.527V85.256H780.527ZM776.527 26.664H795.215V18.664H776.527V26.664ZM791.215 22.664V117H799.215V22.664H791.215ZM795.215 113H777.167V121H795.215V113ZM780.396 114.639L734.444 51.7911L727.987 56.5129L773.939 119.361L780.396 114.639ZM727.215 54.152V117H735.215V54.152H727.215ZM731.215 113H712.527V121H731.215V113ZM716.527 117V22.664H708.527V117H716.527ZM816.292 22.664V18.664H812.292V22.664H816.292ZM888.1 22.664H892.1V18.664H888.1V22.664ZM888.1 40.84V44.84H892.1V40.84H888.1ZM834.98 40.84V36.84H830.98V40.84H834.98ZM834.98 60.552H830.98V64.552H834.98V60.552ZM873.508 60.552H877.508V56.552H873.508V60.552ZM873.508 78.984V82.984H877.508V78.984H873.508ZM834.98 78.984V74.984H830.98V78.984H834.98ZM834.98 98.696H830.98V102.696H834.98V98.696ZM888.1 98.696H892.1V94.696H888.1V98.696ZM888.1 117V121H892.1V117H888.1ZM816.292 117H812.292V121H816.292V117ZM816.292 26.664H888.1V18.664H816.292V26.664ZM884.1 22.664V40.84H892.1V22.664H884.1ZM888.1 36.84H834.98V44.84H888.1V36.84ZM830.98 40.84V60.552H838.98V40.84H830.98ZM834.98 64.552H873.508V56.552H834.98V64.552ZM869.508 60.552V78.984H877.508V60.552H869.508ZM873.508 74.984H834.98V82.984H873.508V74.984ZM830.98 78.984V98.696H838.98V78.984H830.98ZM834.98 102.696H888.1V94.696H834.98V102.696ZM884.1 98.696V117H892.1V98.696H884.1ZM888.1 113H816.292V121H888.1V113ZM820.292 117V22.664H812.292V117H820.292ZM904.058 22.664V18.664H900.058V22.664H904.058ZM973.434 30.984L976.136 28.0354L976.115 28.0158L976.094 27.9966L973.434 30.984ZM978.554 69.768L975.147 67.6716L975.141 67.681L975.135 67.6903L978.554 69.768ZM966.778 79.752L968.16 83.5054L968.28 83.4613L968.397 83.4097L966.778 79.752ZM964.346 80.648L962.963 76.8946L958.435 78.5626L960.913 82.7024L964.346 80.648ZM986.106 117V121H993.162L989.538 114.946L986.106 117ZM964.09 117L960.621 118.992L961.774 121H964.09V117ZM945.274 84.232L948.742 82.2402L947.589 80.232H945.274V84.232ZM922.746 84.232V80.232H918.746V84.232H922.746ZM922.746 117V121H926.746V117H922.746ZM904.058 117H900.058V121H904.058V117ZM962.81 59.784L966.19 61.9226L966.251 61.8262L966.306 61.7266L962.81 59.784ZM960.122 44.424L962.749 41.4077L962.711 41.3753L962.674 41.3439L960.122 44.424ZM922.746 40.712V36.712H918.746V40.712H922.746ZM922.746 66.056H918.746V70.056H922.746V66.056ZM904.058 26.664H949.498V18.664H904.058V26.664ZM949.498 26.664C958.418 26.664 965.396 29.1836 970.774 33.9714L976.094 27.9966C969.012 21.6911 960.033 18.664 949.498 18.664V26.664ZM970.731 33.9326C975.923 38.6927 978.65 45.1509 978.65 53.768H986.65C986.65 43.2705 983.232 34.5393 976.136 28.0354L970.731 33.9326ZM978.65 53.768C978.65 59.403 977.42 63.9784 975.147 67.6716L981.96 71.8644C985.149 66.6829 986.65 60.5916 986.65 53.768H978.65ZM975.135 67.6903C972.964 71.2633 969.708 74.0804 965.159 76.0943L968.397 83.4097C974.257 80.8156 978.853 76.9767 981.972 71.8457L975.135 67.6903ZM965.395 75.9986L962.963 76.8946L965.728 84.4014L968.16 83.5054L965.395 75.9986ZM960.913 82.7024L982.673 119.054L989.538 114.946L967.778 78.5936L960.913 82.7024ZM986.106 113H964.09V121H986.106V113ZM967.558 115.008L948.742 82.2402L941.805 86.2238L960.621 118.992L967.558 115.008ZM945.274 80.232H922.746V88.232H945.274V80.232ZM918.746 84.232V117H926.746V84.232H918.746ZM922.746 113H904.058V121H922.746V113ZM908.058 117V22.664H900.058V117H908.058ZM947.706 70.056C955.767 70.056 962.49 67.7702 966.19 61.9226L959.429 57.6454C957.838 60.1604 954.492 62.056 947.706 62.056V70.056ZM966.306 61.7266C967.597 59.4028 968.09 56.6601 968.09 53.768H960.09C960.09 55.8252 959.729 57.0931 959.313 57.8414L966.306 61.7266ZM968.09 53.768C968.09 48.8399 966.376 44.5669 962.749 41.4077L957.494 47.4403C959.158 48.8891 960.09 50.8454 960.09 53.768H968.09ZM962.674 41.3439C958.79 38.1263 953.836 36.712 948.218 36.712V44.712C952.498 44.712 955.479 45.7724 957.569 47.5041L962.674 41.3439ZM948.218 36.712H922.746V44.712H948.218V36.712ZM918.746 40.712V66.056H926.746V40.712H918.746ZM922.746 70.056H947.706V62.056H922.746V70.056ZM1009.88 108.936L1007.38 112.059L1007.39 112.067L1009.88 108.936ZM998.744 86.792L994.765 87.2001L994.766 87.2073L994.767 87.2144L998.744 86.792ZM998.232 81.8V77.8H993.801L994.253 82.2081L998.232 81.8ZM1017.43 81.8L1021.43 81.558L1021.2 77.8H1017.43V81.8ZM1017.69 86.024L1021.68 85.7844L1021.68 85.782L1017.69 86.024ZM1023.96 95.88L1021.94 99.3297L1021.95 99.3366L1021.96 99.3435L1023.96 95.88ZM1053.27 97.416L1054.83 101.098L1054.86 101.087L1054.89 101.076L1053.27 97.416ZM1058.65 93.32L1062.27 95.0232L1062.27 95.0232L1058.65 93.32ZM1057.37 84.232L1059.66 80.9551L1059.65 80.9471L1059.64 80.9391L1057.37 84.232ZM1047.77 79.88L1046.58 83.7003L1046.59 83.7035L1046.6 83.7067L1047.77 79.88ZM1033.94 76.424L1034.83 72.524L1034.81 72.5188L1034.79 72.5139L1033.94 76.424ZM1019.22 71.816L1020.68 68.0902L1020.68 68.0892L1019.22 71.816ZM1006.94 63.88L1009.84 61.127L1009.79 61.0721L1009.73 61.0192L1006.94 63.88ZM1010.9 28.552L1008.39 25.441L1008.38 25.4488L1010.9 28.552ZM1065.94 29.448L1063.38 32.5177L1063.4 32.5327L1063.42 32.5475L1065.94 29.448ZM1076.18 49.544L1072.19 49.7123L1072.19 49.7361L1072.19 49.7599L1076.18 49.544ZM1076.44 54.28V58.28H1080.66L1080.43 54.0641L1076.44 54.28ZM1057.75 54.28L1053.79 54.7919L1054.24 58.28H1057.75V54.28ZM1057.24 50.312L1053.27 50.7886L1053.27 50.8062L1053.27 50.8239L1057.24 50.312ZM1054.68 44.424L1057.79 41.9072L1057.79 41.9072L1054.68 44.424ZM1046.87 40.072L1045.72 43.9033L1045.73 43.9057L1045.74 43.9081L1046.87 40.072ZM1027.54 40.2L1028.81 43.9947L1028.83 43.9882L1028.85 43.9815L1027.54 40.2ZM1022.17 42.888L1019.67 39.7645L1019.56 39.8485L1019.47 39.9394L1022.17 42.888ZM1020.25 45.704L1024.04 46.9689L1024.08 46.8636L1024.11 46.7565L1020.25 45.704ZM1020.76 51.848L1017.93 54.6764L1017.93 54.6764L1020.76 51.848ZM1026.01 55.048L1024.5 58.7524L1024.54 58.7672L1024.57 58.7814L1026.01 55.048ZM1034.84 57.864L1033.77 61.7168L1033.83 61.7348L1033.9 61.7507L1034.84 57.864ZM1039.58 59.016L1038.63 62.9027L1038.65 62.9068L1038.66 62.9108L1039.58 59.016ZM1045.59 60.424L1046.64 56.5649L1046.57 56.5458L1046.5 56.5292L1045.59 60.424ZM1048.41 61.192L1049.47 57.3347L1049.46 57.3329L1048.41 61.192ZM1056.73 63.624L1055.38 67.391L1055.44 67.4103L1055.49 67.4281L1056.73 63.624ZM1067.1 68.616L1064.95 71.994L1064.96 71.9988L1064.97 72.0036L1067.1 68.616ZM1075.42 77.064L1071.93 79.0293L1071.95 79.0628L1071.97 79.0959L1075.42 77.064ZM1067.48 110.216L1065.2 106.93L1065.19 106.935L1065.19 106.939L1067.48 110.216ZM1040.09 113.384C1027.55 113.384 1018.49 110.672 1012.37 105.805L1007.39 112.067C1015.44 118.464 1026.52 121.384 1040.09 121.384V113.384ZM1012.38 105.813C1006.96 101.48 1003.66 95.16 1002.72 86.3696L994.767 87.2144C995.881 97.7094 999.997 106.152 1007.38 112.059L1012.38 105.813ZM1002.72 86.3839L1002.21 81.3919L994.253 82.2081L994.765 87.2001L1002.72 86.3839ZM998.232 85.8H1017.43V77.8H998.232V85.8ZM1013.44 82.042L1013.7 86.266L1021.68 85.782L1021.43 81.558L1013.44 82.042ZM1013.7 86.2636C1014.04 91.9609 1016.95 96.4027 1021.94 99.3297L1025.99 92.4303C1023.12 90.7493 1021.85 88.6204 1021.68 85.7844L1013.7 86.2636ZM1021.96 99.3435C1026.66 102.061 1032.88 103.208 1040.22 103.208V95.208C1033.55 95.208 1028.94 94.1366 1025.96 92.4165L1021.96 99.3435ZM1040.22 103.208C1046.24 103.208 1051.25 102.617 1054.83 101.098L1051.71 93.7337C1049.66 94.6039 1045.97 95.208 1040.22 95.208V103.208ZM1054.89 101.076C1057.93 99.7323 1060.93 97.8714 1062.27 95.0232L1055.03 91.6168C1055.05 91.5731 1054.95 91.8087 1054.37 92.2503C1053.8 92.6827 1052.93 93.1962 1051.66 93.7563L1054.89 101.076ZM1062.27 95.0232C1063.2 93.0336 1063.67 90.9153 1063.67 88.712H1055.67C1055.67 89.7514 1055.46 90.7051 1055.03 91.6168L1062.27 95.0232ZM1063.67 88.712C1063.67 87.2694 1063.44 85.7576 1062.74 84.3631L1055.58 87.9409C1055.57 87.9117 1055.67 88.1066 1055.67 88.712H1063.67ZM1062.74 84.3631C1062.01 82.908 1060.87 81.8012 1059.66 80.9551L1055.07 87.5089C1055.57 87.8575 1055.63 88.0307 1055.58 87.9409L1062.74 84.3631ZM1059.64 80.9391C1056.73 78.9308 1053.12 77.3273 1048.93 76.0533L1046.6 83.7067C1050.27 84.822 1053.06 86.1198 1055.1 87.5248L1059.64 80.9391ZM1048.95 76.0597C1046.31 75.24 1041.56 74.0573 1034.83 72.524L1033.06 80.324C1039.81 81.8627 1044.28 82.984 1046.58 83.7003L1048.95 76.0597ZM1034.79 72.5139C1030.7 71.6318 1026 70.1687 1020.68 68.0902L1017.77 75.5418C1023.37 77.73 1028.49 79.3389 1033.1 80.3341L1034.79 72.5139ZM1020.68 68.0892C1016.09 66.3027 1012.52 63.9582 1009.84 61.127L1004.03 66.633C1007.66 70.4578 1012.28 73.404 1017.77 75.5428L1020.68 68.0892ZM1009.73 61.0192C1006.89 58.2415 1005.3 54.4011 1005.3 49.032H997.304C997.304 56.1216 999.474 62.1798 1004.14 66.7407L1009.73 61.0192ZM1005.3 49.032C1005.3 41.7542 1007.99 36.08 1013.43 31.6552L1008.38 25.4488C1001.02 31.4347 997.304 39.4138 997.304 49.032H1005.3ZM1013.42 31.663C1018.67 27.4196 1026.64 25 1037.91 25V17C1025.64 17 1015.6 19.615 1008.39 25.441L1013.42 31.663ZM1037.91 25C1049.26 25 1057.58 27.6724 1063.38 32.5177L1068.51 26.3783C1060.83 19.9596 1050.46 17 1037.91 17V25ZM1063.42 32.5475C1069.05 37.1416 1071.9 42.7879 1072.19 49.7123L1080.18 49.3757C1079.79 40.0867 1075.81 32.3357 1068.47 26.3485L1063.42 32.5475ZM1072.19 49.7599L1072.45 54.4959L1080.43 54.0641L1080.18 49.3281L1072.19 49.7599ZM1076.44 50.28H1057.75V58.28H1076.44V50.28ZM1061.72 53.7681L1061.21 49.8001L1053.27 50.8239L1053.79 54.7919L1061.72 53.7681ZM1061.21 49.8354C1060.86 46.8994 1059.68 44.24 1057.79 41.9072L1051.57 46.9408C1052.58 48.192 1053.11 49.4579 1053.27 50.7886L1061.21 49.8354ZM1057.79 41.9072C1055.58 39.1823 1052.05 37.4315 1048.01 36.2359L1045.74 43.9081C1049.2 44.9312 1050.88 46.0817 1051.57 46.9408L1057.79 41.9072ZM1048.02 36.2407C1044.96 35.3218 1041.29 34.92 1037.14 34.92V42.92C1040.84 42.92 1043.67 43.2862 1045.72 43.9033L1048.02 36.2407ZM1037.14 34.92C1032.97 34.92 1029.29 35.3674 1026.24 36.4185L1028.85 43.9815C1030.75 43.3259 1033.46 42.92 1037.14 42.92V34.92ZM1026.28 36.4053C1023.72 37.2575 1021.45 38.34 1019.67 39.7645L1024.67 46.0115C1025.45 45.388 1026.76 44.6785 1028.81 43.9947L1026.28 36.4053ZM1019.47 39.9394C1018.11 41.1808 1016.91 42.736 1016.39 44.6515L1024.11 46.7565C1024.1 46.7947 1024.18 46.4726 1024.87 45.8366L1019.47 39.9394ZM1016.45 44.4391C1015.88 46.1565 1015.61 47.9517 1015.61 49.8H1023.61C1023.61 48.7469 1023.76 47.8115 1024.04 46.9689L1016.45 44.4391ZM1015.61 49.8C1015.61 52.0478 1016.97 53.7162 1017.93 54.6764L1023.59 49.0196C1023.37 48.8018 1023.34 48.7266 1023.38 48.799C1023.43 48.8755 1023.61 49.2304 1023.61 49.8H1015.61ZM1017.93 54.6764C1019.64 56.3823 1021.91 57.6993 1024.5 58.7524L1027.52 51.3436C1025.49 50.5194 1024.27 49.7031 1023.59 49.0196L1017.93 54.6764ZM1024.57 58.7814C1026.96 59.6989 1030.04 60.6763 1033.77 61.7168L1035.92 54.0112C1032.31 53.0036 1029.5 52.1038 1027.44 51.3146L1024.57 58.7814ZM1033.9 61.7507L1038.63 62.9027L1040.52 55.1293L1035.79 53.9773L1033.9 61.7507ZM1038.66 62.9108L1044.68 64.3187L1046.5 56.5292L1040.49 55.1212L1038.66 62.9108ZM1044.54 64.2831L1047.36 65.0511L1049.46 57.3329L1046.64 56.5649L1044.54 64.2831ZM1047.35 65.0493C1051.74 66.2556 1054.36 67.0252 1055.38 67.391L1058.07 59.857C1056.71 59.3694 1053.78 58.5177 1049.47 57.3347L1047.35 65.0493ZM1055.49 67.4281C1058.54 68.4195 1061.7 69.9278 1064.95 71.994L1069.24 65.238C1065.5 62.8668 1061.74 61.0472 1057.96 59.8199L1055.49 67.4281ZM1064.97 72.0036C1068.15 74.0017 1070.42 76.3547 1071.93 79.0293L1078.9 75.0987C1076.65 71.1173 1073.38 67.8383 1069.22 65.2284L1064.97 72.0036ZM1071.97 79.0959C1073.55 81.7709 1074.36 84.774 1074.36 88.2H1082.36C1082.36 83.434 1081.21 79.0131 1078.86 75.0321L1071.97 79.0959ZM1074.36 88.2C1074.36 96.6735 1071.26 102.72 1065.2 106.93L1069.76 113.502C1078.2 107.643 1082.36 99.0119 1082.36 88.2H1074.36ZM1065.19 106.939C1059.24 111.101 1051 113.384 1040.09 113.384V121.384C1052.05 121.384 1062.07 118.888 1069.77 113.493L1065.19 106.939Z" fill="black" fill-opacity="0.3"/>
<defs>
<linearGradient id="paint0_linear_76_2" x1="8.50611" y1="65.5" x2="662.727" y2="-460.104" gradientUnits="userSpaceOnUse">
<stop stop-color="#F24D56"/>
<stop offset="0.509216" stop-color="#EE0C77"/>
<stop offset="0.964829" stop-color="#F24D56"/>
</linearGradient>
</defs>
</svg>
