<?xml version="1.0" encoding="UTF-8" standalone="no"?>
<svg
   xmlns:dc="http://purl.org/dc/elements/1.1/"
   xmlns:cc="http://creativecommons.org/ns#"
   xmlns:rdf="http://www.w3.org/1999/02/22-rdf-syntax-ns#"
   xmlns:svg="http://www.w3.org/2000/svg"
   xmlns="http://www.w3.org/2000/svg"
   viewBox="0 0 666.66669 666.66669"
   height="666.66669"
   width="666.66669"
   xml:space="preserve"
   id="svg2"
   version="1.1"><metadata
     id="metadata8"><rdf:RDF><cc:Work
         rdf:about=""><dc:format>image/svg+xml</dc:format><dc:type
           rdf:resource="http://purl.org/dc/dcmitype/StillImage" /></cc:Work></rdf:RDF></metadata><defs
     id="defs6"><clipPath
       id="clipPath20"
       clipPathUnits="userSpaceOnUse"><path
         id="path18"
         d="M 0,500 H 500 V 0 H 0 Z" /></clipPath><clipPath
       id="clipPath240"
       clipPathUnits="userSpaceOnUse"><path
         id="path238"
         d="m 220.48,406.988 h 19.072 v -34.27 H 220.48 Z" /></clipPath></defs><g
     transform="matrix(1.3333333,0,0,-1.3333333,0,666.66667)"
     id="g10"><path
       id="path12"
       style="fill:#ffffff;fill-opacity:1;fill-rule:nonzero;stroke:none"
       d="M 0,0 H 500 V 500 H 0 Z" /><g
       id="g14"><g
         clip-path="url(#clipPath20)"
         id="g16"><g
           transform="translate(392.3799,235.957)"
           id="g22"><path
             id="path24"
             style="fill:#108f6e;fill-opacity:1;fill-rule:nonzero;stroke:none"
             d="m 0,0 -0.136,1.943 c 0,0 0.866,0.06 2.32,0.057 C 3.645,2.017 5.72,1.948 8.203,1.762 13.167,1.404 19.752,0.398 26.134,-1.44 c 6.409,-1.752 12.51,-4.475 16.894,-6.823 2.186,-1.197 4.013,-2.183 5.197,-3.035 1.213,-0.8 1.908,-1.256 1.908,-1.256 l -1.093,-1.613 c 0,0 -0.677,0.445 -1.86,1.225 -1.153,0.833 -2.938,1.793 -5.07,2.962 -4.279,2.29 -10.236,4.953 -16.508,6.667 C 19.359,-1.515 12.906,-0.529 8.055,-0.181 5.63,0.002 3.602,0.068 2.191,0.052 0.773,0.055 0,0 0,0" /></g><g
           transform="translate(444.4902,213.0186)"
           id="g26"><path
             id="path28"
             style="fill:#fce300;fill-opacity:1;fill-rule:nonzero;stroke:none"
             d="m 0,0 c -1.469,1.145 -2.363,2.726 -2.692,4.402 -0.309,1.693 -0.165,3.325 0.817,4.748 0.947,1.376 2.579,2.261 4.336,2.272 C 4.225,11.457 6.222,10.769 7.946,9.407 9.615,7.981 10.564,6.056 10.825,4.311 11.077,2.546 10.586,0.896 9.366,-0.288 8.147,-1.474 6.455,-1.997 4.766,-1.943 3.059,-1.9 1.413,-1.211 0,0" /></g><g
           transform="translate(445.1826,216.9951)"
           id="g30"><path
             id="path32"
             style="fill:#108f6e;fill-opacity:1;fill-rule:nonzero;stroke:none"
             d="M 0,0 C 0,0 0.78,-0.391 1.887,-0.733 3.004,-1.063 4.314,-1.516 5.59,-1.375 5.602,-0.118 5.109,1.344 4.478,2.343 3.856,3.354 3.241,4.06 3.241,4.06 5.128,4.538 6.62,5.428 7.624,6.212 8.63,6.994 9.146,7.671 9.146,7.671 6.907,8.821 4.919,9.345 3.226,9.471 1.542,9.614 0.035,9.206 -1.103,8.776 -3.408,7.865 -4.562,6.487 -4.562,6.487 c 0,0 -0.748,-1.645 -0.816,-4.029 -0.054,-1.213 0.127,-2.506 0.502,-4.03 0.389,-1.509 1.082,-3.09 2.291,-4.646 0,0 0.581,0.628 1.203,1.71 C -0.761,-3.423 -0.099,-1.882 0,0" /></g><g
           transform="translate(453.0498,71.0625)"
           id="g34"><path
             id="path36"
             style="fill:#ededed;fill-opacity:1;fill-rule:nonzero;stroke:none"
             d="m 0,0 c 0,-9.273 -89.599,-16.79 -200.125,-16.79 -110.525,0 -200.124,7.517 -200.124,16.79 0,9.273 89.599,16.79 200.124,16.79 C -89.599,16.79 0,9.273 0,0" /></g><g
           transform="translate(116.813,240.2852)"
           id="g38"><path
             id="path40"
             style="fill:#108f6e;fill-opacity:1;fill-rule:nonzero;stroke:none"
             d="m 0,0 -0.711,-1.97 c 0,0 -0.799,0.287 -2.263,0.74 -1.455,0.458 -3.556,1.072 -6.101,1.718 -5.085,1.314 -11.965,2.733 -18.922,3.571 -6.955,0.878 -13.966,1.092 -19.209,1.001 -2.618,-0.133 -4.808,-0.147 -6.328,-0.315 -1.521,-0.151 -2.39,-0.237 -2.39,-0.237 l -0.209,2.083 c 0,0 0.886,0.088 2.437,0.242 1.55,0.17 3.777,0.187 6.443,0.32 5.335,0.095 12.458,-0.126 19.511,-1.015 C -20.684,5.287 -13.715,3.85 -8.555,2.517 -5.971,1.86 -3.837,1.236 -2.348,0.769 -0.862,0.31 0,0 0,0" /></g><g
           transform="translate(50.915,251.1274)"
           id="g42"><path
             id="path44"
             style="fill:#fce300;fill-opacity:1;fill-rule:nonzero;stroke:none"
             d="m 0,0 c 2.299,0.38 4.502,-0.008 6.132,-0.962 1.642,-1.039 2.712,-2.596 2.906,-4.413 0.194,-1.818 -0.496,-3.549 -1.7,-4.871 -1.194,-1.406 -2.89,-2.442 -4.897,-2.766 -1.014,-0.133 -1.977,-0.21 -2.909,-0.082 -0.93,0.122 -1.819,0.409 -2.625,0.833 -1.608,0.85 -2.898,2.245 -3.39,4.005 -0.493,1.76 -0.062,3.564 1.113,5.076 0.585,0.755 1.352,1.436 2.262,1.995 C -2.199,-0.631 -1.152,-0.158 0,0" /></g><g
           transform="translate(53.9219,247.7441)"
           id="g46"><path
             id="path48"
             style="fill:#108f6e;fill-opacity:1;fill-rule:nonzero;stroke:none"
             d="m 0,0 c 0,0 -0.939,-0.345 -2.049,-0.976 -1.117,-0.59 -2.363,-1.647 -3.021,-2.846 1.11,-0.793 2.585,-1.115 3.813,-1.405 1.219,-0.249 2.161,-0.284 2.161,-0.284 -0.902,-1.828 -1.107,-3.629 -1.104,-4.976 0.005,-1.347 0.215,-2.241 0.215,-2.241 1.999,0.852 3.51,1.995 4.683,3.208 1.19,1.135 2.023,2.379 2.604,3.533 1.166,2.307 1.284,4.249 1.284,4.249 0,0 -0.402,1.888 -2.101,3.912 -0.852,1.012 -2.037,2.055 -3.68,2.909 -1.638,0.77 -3.742,1.307 -6.393,1.399 0,0 0.124,-0.908 0.646,-2.17 C -2.423,3.049 -1.508,1.432 0,0" /></g><g
           transform="translate(252.1025,368.0645)"
           id="g50"><path
             id="path52"
             style="fill:#ffd200;fill-opacity:1;fill-rule:nonzero;stroke:none"
             d="m 0,0 c 0,0 -16.21,8.022 -19.047,25.651 -2.837,17.629 25.303,24.316 36.967,-4.863 0,0 -2.115,31.61 17.135,35.055 19.25,3.445 16.141,-35.016 10.299,-41.114 0,0 8.086,5.856 16.016,0.994 C 69.299,10.859 66.739,-8.188 41.171,-13.253 15.603,-18.319 0,0 0,0" /></g><g
           transform="translate(269.7676,363.1738)"
           id="g54"><path
             id="path56"
             style="fill:#ffffff;fill-opacity:1;fill-rule:nonzero;stroke:none"
             d="m 0,0 c -4.493,9.93 -12.656,20.557 -12.738,20.663 l 0.445,0.343 C -12.21,20.899 -4.008,10.223 0.511,0.231 Z" /></g><g
           transform="translate(283.7041,364.7886)"
           id="g58"><path
             id="path60"
             style="fill:#ffffff;fill-opacity:1;fill-rule:nonzero;stroke:none"
             d="M 0,0 -0.553,0.096 6.137,38.975 6.69,38.879 Z" /></g><g
           transform="translate(159.5967,333.2515)"
           id="g62"><path
             id="path64"
             style="fill:#bce13e;fill-opacity:1;fill-rule:nonzero;stroke:none"
             d="m 0,0 c 0,0 -6.68,14.648 -20.452,14.643 -13.773,-0.005 -15.769,-14.548 -7.713,-25.345 0,0 -13.222,9.178 -32.229,8.444 -19.006,-0.733 -33.055,-14.782 -28.923,-30.482 4.132,-15.701 25.342,-19.282 31.402,-17.63 0,0 -20.934,-14.875 -12.67,-28.372 8.263,-13.498 34.156,0 34.156,0 z" /></g><g
           transform="translate(131.8027,295.1104)"
           id="g66"><path
             id="path68"
             style="fill:#ffffff;fill-opacity:1;fill-rule:nonzero;stroke:none"
             d="m 0,0 c -0.235,0.098 -23.674,9.762 -35.657,10.953 l 0.111,1.118 C -23.398,10.864 0.193,1.136 0.43,1.038 Z" /></g><g
           transform="translate(96.5342,295.1763)"
           id="g70"><path
             id="path72"
             style="fill:#ffffff;fill-opacity:1;fill-rule:nonzero;stroke:none"
             d="M 0,0 -0.665,0.906 C 4.039,4.355 13.321,7.809 13.714,7.954 L 14.104,6.9 C 14.009,6.865 4.576,3.356 0,0" /></g><g
           transform="translate(121.0078,299.4648)"
           id="g74"><path
             id="path76"
             style="fill:#ffffff;fill-opacity:1;fill-rule:nonzero;stroke:none"
             d="m 0,0 c -0.132,0.363 -3.229,8.916 -3.502,12.395 l 1.12,0.087 C -2.121,9.155 1.024,0.471 1.056,0.384 Z" /></g><g
           transform="translate(101.0029,260.856)"
           id="g78"><path
             id="path80"
             style="fill:#ffffff;fill-opacity:1;fill-rule:nonzero;stroke:none"
             d="M 0,0 -0.566,0.97 C 11.102,7.779 20.361,9.158 20.453,9.171 L 20.612,8.059 C 20.522,8.046 11.464,6.689 0,0" /></g><g
           transform="translate(151.1987,317.9346)"
           id="g82"><path
             id="path84"
             style="fill:#ffffff;fill-opacity:1;fill-rule:nonzero;stroke:none"
             d="m 0,0 c -0.369,0.4 -9.08,9.903 -11.457,17.632 l 1.075,0.33 C -8.081,10.479 0.737,0.858 0.826,0.762 Z" /></g><g
           transform="translate(92.6509,229.2646)"
           id="g86"><path
             id="path88"
             style="fill:#ffd200;fill-opacity:1;fill-rule:nonzero;stroke:none"
             d="M 0,0 -0.923,6.85 C -4.506,7.351 -8.369,7.652 -12.542,7.664 -23.886,7.702 -35.021,5.644 -44.278,1.883 l -0.411,-4.854 -2.335,3.659 c -1.546,-0.711 -3.031,-1.476 -4.451,-2.301 l 1.472,-8.972 -5.362,6.468 c -4.213,-3.037 -7.46,-6.515 -9.463,-10.437 -1.984,-3.898 -2.619,-8.119 -1.702,-12.59 0.791,-3.861 2.559,-7.123 5.015,-9.82 1.233,-1.35 2.623,-2.551 4.184,-3.628 1.575,-1.085 3.304,-2.032 5.161,-2.844 7.447,-3.262 17.152,-4.458 27.624,-3.692 l 2.482,7.875 3.454,-7.246 c 2.367,0.342 4.77,0.769 7.163,1.302 l -0.666,4.715 3.919,-3.941 c 0.925,0.236 1.85,0.486 2.773,0.752 16.579,4.793 27.047,12.657 33.36,19.374 6.314,6.71 8.478,12.253 8.478,12.253 0,0 -9.524,13.45 -32.944,18.146 z" /></g><g
           transform="translate(44.5356,202.0615)"
           id="g90"><path
             id="path92"
             style="fill:#ffffff;fill-opacity:1;fill-rule:nonzero;stroke:none"
             d="m 0,0 -0.208,1.104 77.104,14.528 0.208,-1.104 z" /></g><g
           transform="translate(70.3608,206.9443)"
           id="g94"><path
             id="path96"
             style="fill:#ffffff;fill-opacity:1;fill-rule:nonzero;stroke:none"
             d="M 0,0 C -5.495,0.318 -16.384,5.069 -16.845,5.271 L -16.394,6.3 C -16.282,6.252 -5.229,1.429 0.064,1.121 Z" /></g><g
           transform="translate(74.7817,198.3027)"
           id="g98"><path
             id="path100"
             style="fill:#ffffff;fill-opacity:1;fill-rule:nonzero;stroke:none"
             d="M 0,0 -1.09,0.272 C 0.085,4.971 6.164,11.246 6.422,11.51 L 7.227,10.727 C 7.166,10.663 1.102,4.403 0,0" /></g><g
           transform="translate(100.5938,212.6719)"
           id="g102"><path
             id="path104"
             style="fill:#ffffff;fill-opacity:1;fill-rule:nonzero;stroke:none"
             d="m 0,0 c -6.305,1.444 -12.894,8.119 -13.171,8.402 l 0.803,0.786 C -12.303,9.121 -5.73,2.466 0.251,1.095 Z" /></g><g
           transform="translate(401.9854,162.8652)"
           id="g106"><path
             id="path108"
             style="fill:#ffd200;fill-opacity:1;fill-rule:nonzero;stroke:none"
             d="m 0,0 -1.477,-6.579 c 3.109,-1.674 6.54,-3.258 10.355,-4.683 10.365,-3.879 21.252,-5.768 30.994,-5.464 l 2.022,4.301 0.895,-4.138 c 1.657,0.127 3.274,0.324 4.853,0.597 l 1.694,8.707 2.714,-7.734 c 4.884,1.351 9.032,3.432 12.193,6.342 3.137,2.895 5.148,6.542 5.823,10.942 0.585,3.801 0.073,7.385 -1.261,10.685 -0.669,1.653 -1.535,3.222 -2.598,4.737 -1.073,1.526 -2.335,2.978 -3.758,4.35 -5.709,5.508 -14.182,9.89 -24.023,12.738 l -4.939,-6.364 -0.706,7.8 c -2.281,0.49 -4.624,0.912 -6.994,1.237 l -0.988,-4.54 -2.25,4.933 c -0.928,0.097 -1.858,0.182 -2.792,0.251 -16.793,1.233 -29.035,-2.416 -37.086,-6.422 -8.051,-4 -11.909,-8.338 -11.909,-8.338 0,0 4.157,-15.533 23.993,-27.764 z" /></g><g
           transform="translate(455.0381,170.3564)"
           id="g110"><path
             id="path112"
             style="fill:#ffffff;fill-opacity:1;fill-rule:nonzero;stroke:none"
             d="m 0,0 -75.468,12.833 0.19,1.108 L 0.188,1.108 Z" /></g><g
           transform="translate(442.7959,164.4053)"
           id="g114"><path
             id="path116"
             style="fill:#ffffff;fill-opacity:1;fill-rule:nonzero;stroke:none"
             d="m 0,0 c -0.084,0.082 -8.563,8.238 -13.298,10.311 l 0.449,1.03 C -7.928,9.188 0.428,1.148 0.781,0.808 Z" /></g><g
           transform="translate(419.0557,176.7705)"
           id="g118"><path
             id="path120"
             style="fill:#ffffff;fill-opacity:1;fill-rule:nonzero;stroke:none"
             d="M 0,0 -0.482,1.015 C -0.405,1.052 7.26,4.723 9.757,8.376 L 10.686,7.741 C 8.017,3.838 0.326,0.155 0,0" /></g><g
           transform="translate(408.5312,168.1338)"
           id="g122"><path
             id="path124"
             style="fill:#ffffff;fill-opacity:1;fill-rule:nonzero;stroke:none"
             d="m 0,0 c -0.038,0.084 -3.794,8.396 -8.8,11.676 l 0.616,0.939 C -2.9,9.154 0.868,0.812 1.025,0.459 Z" /></g><g
           transform="translate(335.0596,72.7383)"
           id="g126"><path
             id="path128"
             style="fill:#bce13e;fill-opacity:1;fill-rule:nonzero;stroke:none"
             d="M 0,0 -2.209,0.851 12.61,39.348 14.819,38.497 Z" /></g><g
           transform="translate(362.4883,72.7383)"
           id="g130"><path
             id="path132"
             style="fill:#bce13e;fill-opacity:1;fill-rule:nonzero;stroke:none"
             d="m 0,0 -14.818,38.497 2.209,0.851 L 2.21,0.851 Z" /></g><path
           id="path134"
           style="fill:#bce13e;fill-opacity:1;fill-rule:nonzero;stroke:none"
           d="m 355.401,94.428 h -12.806 v 2.366 h 12.806 z" /><path
           id="path136"
           style="fill:#bce13e;fill-opacity:1;fill-rule:nonzero;stroke:none"
           d="m 358.21,85.965 h -18.558 v 2.367 h 18.558 z" /><g
           transform="translate(89.8872,73.1152)"
           id="g138"><path
             id="path140"
             style="fill:#91b31e;fill-opacity:1;fill-rule:nonzero;stroke:none"
             d="M 0,0 C 0,0 0.361,-1.413 1.335,-2.748 2.31,-4.083 3.789,-5.743 3.97,-6.465 4.15,-7.187 3.284,-7.836 2.454,-7.548 c -0.83,0.289 -6.82,2.995 -8.227,4.078 -1.408,1.082 -1.805,1.48 -1.769,1.733 0.036,0.252 1.751,3.268 2.247,4.015 C -4.799,3.025 -1.046,3.001 0,0" /></g><g
           transform="translate(105.4839,81.1182)"
           id="g142"><path
             id="path144"
             style="fill:#91b31e;fill-opacity:1;fill-rule:nonzero;stroke:none"
             d="M 0,0 C 0,0 0.992,-1.069 2.486,-1.776 3.98,-2.483 6.074,-3.234 6.577,-3.782 7.081,-4.329 6.63,-5.314 5.763,-5.457 4.896,-5.601 -1.659,-6.086 -3.413,-5.808 -5.167,-5.53 -5.705,-5.371 -5.794,-5.132 -5.883,-4.893 -5.818,-1.424 -5.74,-0.53 -5.662,0.363 -2.354,2.136 0,0" /></g><g
           transform="translate(105.7578,133.7559)"
           id="g146"><path
             id="path148"
             style="fill:#0e1a34;fill-opacity:1;fill-rule:nonzero;stroke:none"
             d="M 0,0 C 0,0 2.893,-19.366 3.014,-24.437 3.134,-29.507 0,-52.968 0,-52.968 h -6.111 c 0,0 0.596,11.433 0.596,13.222 0,1.79 -0.596,17.397 -0.596,17.397 l 0.596,21.727 c 0,0 3.573,2.193 5.515,0.622" /></g><g
           transform="translate(91.6182,133.0762)"
           id="g150"><path
             id="path152"
             style="fill:#0e1a34;fill-opacity:1;fill-rule:nonzero;stroke:none"
             d="m 0,0 c 0,0 -1.913,-4.968 -1.316,-15.207 0.596,-10.239 1.087,-12.626 1.087,-12.626 0,0 -6.853,-26.642 -7.748,-29.823 0,0 3.182,-2.286 6.661,-2.486 0,0 7.257,17.895 9.842,24.257 2.584,6.363 3.328,10.836 3.354,16.403 0.026,5.567 0.622,20.579 0.622,20.579 z" /></g><g
           transform="translate(100.9883,98.5811)"
           id="g154"><path
             id="path156"
             style="fill:#ffffff;fill-opacity:1;fill-rule:nonzero;stroke:none"
             d="m 0,0 -0.538,0.164 c 1.92,6.267 2.872,13.35 2.91,21.655 L 2.934,21.817 C 2.895,13.455 1.936,6.318 0,0" /></g><g
           transform="translate(110.543,136.5459)"
           id="g158"><path
             id="path160"
             style="fill:#ff9a5c;fill-opacity:1;fill-rule:nonzero;stroke:none"
             d="m 0,0 c 0,0 -12.597,2.176 -17.16,4.703 -4.562,2.526 -4.001,4.773 -3.369,6.387 0.632,1.615 2.597,5.055 2.597,5.055 l 4.464,-3.195 -0.113,-0.995 -0.762,-1.739 c 0,0 1.457,-0.924 3.655,-2.144 C -8.489,6.852 0.46,2.747 0.46,2.747 0.46,2.747 2.635,0.953 0,0" /></g><g
           transform="translate(110.2051,136.6533)"
           id="g162"><path
             id="path164"
             style="fill:#ff9a5c;fill-opacity:1;fill-rule:nonzero;stroke:none"
             d="m 0,0 c 1.033,-1.114 2.371,-1.702 2.371,-1.702 0.098,-0.851 0.589,-1.211 0.865,-1.179 0.276,0.031 0.281,1.31 0.281,1.31 0.245,-0.589 1.211,-1.179 1.342,-0.819 0.131,0.361 0,0.95 0,0.95 0,0 0.393,-0.524 0.687,-0.524 0.295,0 0.656,0.262 0.524,0.917 C 5.939,-0.393 5.546,0.59 5.154,1.113 4.761,1.637 4.532,2.161 3.681,2.357 2.83,2.554 2.535,2.423 1.553,2.521 c -0.982,0.098 -2.455,0 -2.455,0 z" /></g><g
           transform="translate(100.9175,176.5723)"
           id="g166"><path
             id="path168"
             style="fill:#753519;fill-opacity:1;fill-rule:nonzero;stroke:none"
             d="m 0,0 c 0,0 -1.677,3.648 -6.41,2.268 -4.733,-1.38 -3.254,-5.818 -6.311,-7.692 -3.057,-1.873 -7.592,-2.859 -8.776,-8.086 -1.183,-5.226 2.465,-5.62 0,-8.776 -2.465,-3.155 -3.353,-5.423 -0.69,-8.678 2.662,-3.254 7.351,-2.267 10.282,-0.689 2.931,1.577 15.751,7.592 15.751,7.592 0,0 2.973,3.15 0,6.508 -2.973,3.359 -2.17,8.481 -2.17,8.481 0,0 1.085,0.197 1.479,3.155 C 3.55,-2.958 2.607,0.895 0,0" /></g><g
           transform="translate(333.3154,424.3188)"
           id="g170"><path
             id="path172"
             style="fill:#ff9a5c;fill-opacity:1;fill-rule:nonzero;stroke:none"
             d="m 0,0 1.65,1.196 c 0,0 5.666,-6.921 14.937,-11.594 9.27,-4.674 12.45,-6.457 13.293,-6.61 0.843,-0.154 4.826,-0.843 6.205,-2.605 1.379,-1.762 1.532,-2.759 1.227,-2.835 -0.307,-0.076 -1.839,2.145 -1.839,2.145 0,0 1.533,-1.977 1.379,-2.715 -0.154,-0.737 -1.014,0.523 -1.322,0.83 -0.307,0.308 -1.076,1.199 -1.076,1.199 0,0 1.63,-2.121 1.692,-2.766 0.06,-0.646 -1.015,0.184 -1.845,1.106 -0.83,0.922 -1.752,1.353 -1.967,1.076 -0.216,-0.277 -0.308,-1.414 -0.646,-1.199 -0.338,0.215 -0.4,1.076 -0.553,1.691 -0.546,0.012 -3.045,0.912 -7.543,1.811 -4.498,0.9 -22.489,8.796 -26.588,13.894 C -7.094,-0.279 0,0 0,0" /></g><g
           transform="translate(447.2812,239.7119)"
           id="g174"><path
             id="path176"
             style="fill:#bce13e;fill-opacity:1;fill-rule:nonzero;stroke:none"
             d="m 0,0 v 0 c 1.581,1.855 2.548,3.9 2.847,6.058 0.21,2.073 -0.277,4.237 -1.438,6.342 0,0 0.527,-0.56 1.316,-1.4 C 3.503,10.149 4.592,9.061 5.594,7.896 L 9.412,3.076 C 7.761,1.157 6.842,-0.863 6.341,-3.058 5.88,-5.228 6.023,-7.427 6.842,-9.575 c 1.784,1.634 2.962,3.52 3.48,5.592 0.26,1.035 0.356,2.115 0.286,3.223 -0.072,1.107 -0.279,2.264 -0.791,3.325 0,0 0.266,-0.335 0.665,-0.838 0.377,-0.52 0.833,-1.247 1.311,-1.956 0.945,-1.43 1.891,-2.859 1.891,-2.859 0.022,-1.237 0.194,-2.391 0.513,-3.462 0.265,-1.104 0.633,-2.153 1.173,-3.102 1.068,-1.908 2.73,-3.481 4.973,-4.711 0.238,2.45 -0.231,4.784 -1.294,6.79 -0.537,0.999 -1.198,1.929 -2.037,2.724 -0.894,0.764 -1.919,1.417 -3.058,1.936 0,0 -0.474,0.716 -1.183,1.788 -0.355,0.537 -0.77,1.163 -1.213,1.834 C 11.336,1.044 11.106,1.391 10.874,1.742 10.612,2.074 10.348,2.411 10.082,2.748 7.951,5.438 5.821,8.128 5.821,8.128 9.569,5.272 14.304,4.772 18.776,6.622 H 18.775 C 16.781,8.526 14.433,9.6 12.175,9.948 9.883,10.278 7.623,9.854 5.396,8.625 c 0,0 -2.112,2.248 -4.223,4.497 -1.017,1.164 -2.219,2.14 -3.064,2.929 -0.858,0.775 -1.43,1.292 -1.43,1.292 1.058,-0.555 2.144,-0.956 3.25,-1.211 1.115,-0.244 2.229,-0.36 3.297,-0.383 2.17,-0.007 4.392,0.585 6.507,1.827 -1.12,0.82 -2.265,1.452 -3.411,1.888 -1.13,0.452 -2.386,0.587 -3.542,0.6 -2.346,-0.005 -4.573,-0.782 -6.587,-2.282 0,0 -0.572,0.517 -1.43,1.292 -0.915,0.708 -2.135,1.652 -3.355,2.596 -1.221,0.943 -2.429,1.903 -3.423,2.502 l -1.611,1.059 c 1.134,-0.389 2.272,-0.623 3.409,-0.709 1.108,-0.125 2.194,-0.13 3.282,0.033 2.17,0.319 4.303,1.231 6.233,2.761 -2.504,1.261 -4.928,1.845 -7.255,1.498 -2.335,-0.35 -4.435,-1.446 -6.215,-3.223 0,0 -0.644,0.423 -1.611,1.059 -0.971,0.628 -2.344,1.339 -3.68,2.108 -0.673,0.377 -1.346,0.755 -1.976,1.108 -0.653,0.312 -1.261,0.604 -1.784,0.854 -1.043,0.499 -1.739,0.832 -1.739,0.832 2.345,-0.46 4.639,-0.28 6.72,0.302 2.1,0.628 4.081,1.838 5.77,3.629 -1.326,0.456 -2.622,0.725 -3.86,0.806 -0.619,0.04 -1.222,0.037 -1.812,-0.02 -0.601,-0.079 -1.184,-0.203 -1.748,-0.37 -2.253,-0.67 -4.164,-2.05 -5.66,-4.065 0,0 -0.296,0.141 -0.813,0.388 -0.531,0.216 -1.29,0.524 -2.201,0.894 -1.804,0.784 -4.283,1.642 -6.776,2.45 -2.512,0.75 -5.052,1.409 -6.987,1.771 -1.926,0.399 -3.243,0.526 -3.243,0.526 l -0.03,-0.321 c 0,0 0.912,-0.096 2.273,-0.342 1.363,-0.235 3.163,-0.646 4.951,-1.1 1.775,-0.507 3.557,-0.994 4.856,-1.477 1.309,-0.449 2.182,-0.748 2.182,-0.748 -0.341,-2.479 -0.09,-4.843 0.681,-6.852 0.791,-1.971 2.017,-3.8 3.783,-5.208 0.675,2.327 0.705,4.556 0.069,6.608 -0.612,2.096 -1.998,3.767 -3.922,5.224 0,0 0.711,-0.289 1.78,-0.722 1.064,-0.442 2.508,-0.977 3.878,-1.677 1.381,-0.672 2.783,-1.307 3.801,-1.844 1.005,-0.565 1.675,-0.941 1.675,-0.941 -0.72,-2.421 -0.8,-4.749 -0.317,-6.827 0.461,-2.123 1.413,-4.115 2.984,-5.731 1.004,2.199 1.352,4.391 1.014,6.5 -0.169,1.053 -0.507,2.085 -1.01,3.078 -0.526,0.954 -1.241,1.83 -2.102,2.661 0,0 0.67,-0.376 1.675,-0.941 1.03,-0.524 2.279,-1.427 3.572,-2.256 2.621,-1.615 5.014,-3.55 5.014,-3.55 -1.064,-2.289 -1.478,-4.582 -1.298,-6.709 0.187,-2.126 0.805,-4.291 2.128,-6.127 1.309,2.038 1.971,4.168 1.946,6.315 -0.017,1.067 -0.182,2.163 -0.555,3.196 -0.397,1.003 -0.969,1.986 -1.704,2.928 0,0 0.608,-0.469 1.522,-1.173 0.943,-0.668 2.077,-1.707 3.212,-2.743 1.141,-1.031 2.282,-2.061 3.136,-2.834 0.442,-0.372 0.739,-0.754 0.98,-0.99 C 0.831,13.015 0.963,12.875 0.963,12.875 -0.421,10.751 -1.167,8.522 -1.305,6.364 -1.372,5.284 -1.286,4.22 -1.041,3.185 -0.808,2.138 -0.51,1.03 0,0" /></g><g
           transform="translate(96.0518,380.1533)"
           id="g178"><path
             id="path180"
             style="fill:#91b31e;fill-opacity:1;fill-rule:nonzero;stroke:none"
             d="m 0,0 v 0 c -2.066,-2.029 -3.412,-4.349 -3.989,-6.854 -0.605,-2.519 -0.347,-5.162 0.714,-7.804 0,0 -0.539,0.741 -1.349,1.851 -0.828,1.098 -1.864,2.609 -2.875,4.137 -1.023,1.52 -2.046,3.04 -2.813,4.18 -0.392,0.565 -0.689,1.054 -0.896,1.397 -0.209,0.342 -0.328,0.537 -0.328,0.537 2.147,2.112 3.558,4.527 4.214,7.057 0.328,1.267 0.466,2.563 0.406,3.874 -0.016,1.327 -0.191,2.677 -0.584,4.026 -2.241,-1.84 -3.794,-4.032 -4.596,-6.487 -0.749,-2.428 -0.678,-5.073 0.155,-7.807 0,0 -1.065,1.742 -2.13,3.483 -0.526,0.875 -1.081,1.733 -1.45,2.403 -0.365,0.673 -0.608,1.121 -0.608,1.121 0.198,2.987 -0.415,5.605 -1.61,7.918 -1.129,2.343 -2.982,4.324 -5.553,5.939 -0.458,-2.906 -0.067,-5.725 1.052,-8.189 1.181,-2.428 3.219,-4.419 5.777,-5.856 0,0 0.122,-0.225 0.336,-0.617 0.209,-0.395 0.514,-0.955 0.924,-1.602 0.799,-1.307 1.865,-3.049 2.93,-4.791 1.035,-1.762 2.197,-3.441 3.051,-4.712 0.855,-1.27 1.425,-2.117 1.425,-2.117 -2.113,1.904 -4.582,3.062 -7.106,3.603 -2.528,0.536 -5.248,0.363 -8.004,-0.59 1.076,-1.178 2.232,-2.153 3.443,-2.913 1.219,-0.752 2.545,-1.245 3.871,-1.55 2.669,-0.598 5.457,-0.33 8.23,0.804 0,0 0.514,-0.76 1.285,-1.9 0.81,-1.113 1.891,-2.597 2.971,-4.08 2.122,-2.996 4.418,-5.86 4.418,-5.86 -1.129,0.873 -2.319,1.565 -3.551,2.079 -1.205,0.535 -2.459,0.89 -3.745,1.062 -2.571,0.343 -5.274,-0.041 -7.951,-1.202 h -10e-4 10e-4 c 2.317,-2.137 4.864,-3.479 7.549,-3.897 2.699,-0.407 5.471,0.041 8.176,1.344 0,0 0.564,-0.724 1.409,-1.81 0.83,-1.098 2.004,-2.509 3.173,-3.923 1.168,-1.415 2.336,-2.83 3.212,-3.891 0.901,-1.04 1.502,-1.733 1.502,-1.733 -4.671,3.253 -10.072,3.726 -15.309,1.086 2.419,-1.983 5.056,-3.137 7.734,-3.429 2.687,-0.285 5.453,0.325 8.085,1.755 0,0 0.601,-0.693 1.503,-1.732 0.894,-1.047 2.105,-2.425 3.347,-3.775 1.233,-1.359 2.466,-2.717 3.391,-3.736 0.943,-1.002 1.572,-1.67 1.572,-1.67 -4.804,3.055 -10.239,3.251 -15.322,0.381 4.978,-3.754 10.706,-4.065 15.856,-0.947 0,0 1.071,-1.132 2.677,-2.832 1.638,-1.668 3.791,-3.922 6.017,-6.105 2.203,-2.206 4.455,-4.361 6.16,-5.962 1.7,-1.605 2.864,-2.646 2.864,-2.646 l 0.255,0.286 c 0,0 -3.263,2.953 -6.408,6.035 -1.588,1.525 -3.131,3.097 -4.308,4.255 -1.156,1.179 -1.927,1.965 -1.927,1.965 1.652,2.509 2.499,5.166 2.555,7.805 0.081,2.664 -0.641,5.301 -2.142,7.811 -3.42,-4.675 -3.805,-10.112 -0.955,-15.06 0,0 -2.568,2.615 -5.065,5.3 -1.266,1.326 -2.502,2.679 -3.419,3.703 -0.923,1.018 -1.538,1.697 -1.538,1.697 3.481,4.865 3.863,10.458 1.091,15.57 -3.641,-4.525 -4.233,-9.913 -1.613,-14.994 0,0 -0.612,0.682 -1.53,1.706 -0.9,1.038 -2.101,2.423 -3.302,3.807 -1.213,1.374 -2.38,2.787 -3.25,3.851 -0.875,1.06 -1.458,1.767 -1.458,1.767 1.87,2.356 2.925,4.909 3.238,7.536 0.329,2.639 -0.116,5.325 -1.378,7.929 -1.924,-2.162 -3.108,-4.566 -3.516,-7.097 -0.399,-2.521 -0.07,-5.209 1.162,-7.768 0,0 -0.583,0.707 -1.458,1.767 -0.846,1.083 -1.973,2.528 -3.101,3.972 -2.29,2.863 -4.411,5.853 -4.411,5.853 1.992,2.248 3.216,4.752 3.662,7.333 C 1.266,-5.38 1.078,-2.648 0,0" /></g><g
           transform="translate(283.1445,415.0181)"
           id="g182"><path
             id="path184"
             style="fill:#ff9a5c;fill-opacity:1;fill-rule:nonzero;stroke:none"
             d="m 0,0 c -0.924,0.546 -1.421,1.146 -1.421,1.146 0,0 -0.32,0.687 -0.881,1.167 -0.56,0.481 -1.393,0.599 -1.393,0.599 0,0 0.536,-1.826 1.136,-2.295 0.296,-0.231 0.575,-0.106 0.783,0.079 0.411,-1.017 1.068,-1.804 1.068,-1.804 0,0 1.633,0.562 0.708,1.108" /></g><g
           transform="translate(396.3281,225.3789)"
           id="g186"><path
             id="path188"
             style="fill:#1a6652;fill-opacity:1;fill-rule:nonzero;stroke:none"
             d="m 0,0 c 0,-78.945 -63.997,-142.942 -142.942,-142.942 -78.946,0 -142.943,63.997 -142.943,142.942 0,78.945 63.997,142.943 142.943,142.943 C -63.997,142.943 0,78.945 0,0" /></g><g
           transform="translate(282.1406,125.2998)"
           id="g190"><path
             id="path192"
             style="fill:#19614f;fill-opacity:1;fill-rule:nonzero;stroke:none"
             d="m 0,0 c -70.569,0 -127.776,57.207 -127.776,127.776 0,47.559 25.984,89.046 64.529,111.046 -62.28,-15.432 -108.451,-71.691 -108.451,-138.743 0,-78.945 63.998,-142.942 142.943,-142.942 65.203,0 120.205,43.658 137.379,103.336 C 86.086,24.175 45.869,0 0,0" /></g><g
           transform="translate(301.8389,414.7261)"
           id="g194"><path
             id="path196"
             style="fill:#ff9a5c;fill-opacity:1;fill-rule:nonzero;stroke:none"
             d="m 0,0 c 0,0 -3.412,-3.072 -4.555,-3.072 -1.142,0 -12.511,3.405 -14.656,3.856 -2.144,0.452 -2.032,-0.226 -2.879,-0.79 -0.847,-0.565 1.815,-2.274 1.815,-2.274 0,0 10.152,-5.177 15.401,-6.418 5.249,-1.242 9.445,3.012 9.445,3.012 0,0 1.375,5.522 -4.571,5.686" /></g><g
           transform="translate(261.0059,411.6094)"
           id="g198"><path
             id="path200"
             style="fill:#108f6e;fill-opacity:1;fill-rule:nonzero;stroke:none"
             d="m 0,0 c 0,0 7.982,-0.873 13.494,0.529 0,0 3.416,-5.733 4.707,-7.85 l -0.561,-2.734 c 0,0 -4.675,-5.909 -12.877,-6.262 0,0 -5.998,8.291 -4.763,16.317" /></g><g
           transform="translate(273.5303,401.9292)"
           id="g202"><path
             id="path204"
             style="fill:#108f6e;fill-opacity:1;fill-rule:nonzero;stroke:none"
             d="m 0,0 c -1.636,0 -2.857,0.654 -2.931,0.693 l 0.567,1.04 C -2.344,1.722 -0.297,0.644 1.81,1.551 3.671,2.352 5.066,4.427 5.956,7.717 6.968,11.464 6.462,14.456 4.493,16.369 2.196,18.6 -1.46,18.808 -4.063,18.022 -9.396,16.414 -8.854,8.923 -8.849,8.848 l -1.178,-0.097 c -0.007,0.085 -0.63,8.519 5.622,10.404 3.53,1.063 7.434,0.286 9.721,-1.937 C 6.918,15.662 8.526,12.697 7.098,7.409 6.107,3.742 4.479,1.403 2.262,0.457 1.471,0.12 0.698,0 0,0" /></g><g
           transform="translate(279.7275,416.3984)"
           id="g206"><path
             id="path208"
             style="fill:#ff9a5c;fill-opacity:1;fill-rule:nonzero;stroke:none"
             d="M 0,0 C 0,0 -1.025,0.396 -1.435,-0.304 -1.86,-1.029 -0.147,-1.599 1.301,-1.457 2.749,-1.314 1.45,-0.257 0,0" /></g><g
           transform="translate(279.7012,415.3745)"
           id="g210"><path
             id="path212"
             style="fill:#ff9a5c;fill-opacity:1;fill-rule:nonzero;stroke:none"
             d="M 0,0 C 0,0 -1.013,0.32 -1.704,-0.274 -2.396,-0.868 -0.173,-1.707 1.523,-1.555 3.22,-1.402 1.698,-0.273 0,0" /></g><g
           transform="translate(312.0303,331.0752)"
           id="g214"><path
             id="path216"
             style="fill:#91b31e;fill-opacity:1;fill-rule:nonzero;stroke:none"
             d="m 0,0 c 0,0 -0.404,-1.582 -1.495,-3.076 -1.09,-1.494 -2.746,-3.352 -2.947,-4.159 -0.203,-0.808 0.766,-1.535 1.696,-1.212 0.929,0.323 7.633,3.352 9.207,4.564 1.575,1.211 2.019,1.655 1.979,1.938 C 8.399,-1.662 6.48,1.713 5.926,2.55 5.371,3.386 1.171,3.358 0,0" /></g><g
           transform="translate(279.5049,414.4072)"
           id="g218"><path
             id="path220"
             style="fill:#ff9a5c;fill-opacity:1;fill-rule:nonzero;stroke:none"
             d="m 0,0 c 0,0 -0.893,0.308 -1.508,-0.328 -0.616,-0.635 1.355,-1.5 2.864,-1.337 C 2.866,-1.501 2.151,-0.108 0,0" /></g><g
           transform="translate(261.8604,403.2681)"
           id="g222"><path
             id="path224"
             style="fill:#108f6e;fill-opacity:1;fill-rule:nonzero;stroke:none"
             d="m 0,0 c 0,0 -21.988,4.965 -22.8,4.97 -0.811,0.006 -3.549,0.512 -4.867,-1.313 0,0 0.202,-1.115 1.419,-1.724 1.217,-0.608 2.84,0.599 2.84,0.599 L 3.158,-6.831 c 0,0 1.691,4.696 -3.158,6.831" /></g><g
           transform="translate(234.5625,406.686)"
           id="g226"><path
             id="path228"
             style="fill:#108f6e;fill-opacity:1;fill-rule:nonzero;stroke:none"
             d="m 0,0 c 0.138,-0.333 0.461,-0.876 1.176,-1.233 0.188,-0.094 0.404,-0.142 0.641,-0.142 0.603,0 1.219,0.296 1.581,0.507 C 2.345,-0.146 1.209,0.015 0.409,0.015 0.25,0.015 0.112,0.008 0,0 m 1.817,-1.937 v 0 c -0.326,0 -0.626,0.067 -0.892,0.201 -1.328,0.664 -1.562,1.874 -1.571,1.925 l -0.05,0.275 0.274,0.051 c 0.014,0.003 0.334,0.062 0.831,0.062 0.971,0 2.394,-0.216 3.658,-1.245 L 4.347,-0.896 4.058,-1.111 C 4.012,-1.145 2.935,-1.937 1.817,-1.937" /></g><g
           transform="translate(377.291,111.6611)"
           id="g230"><path
             id="path232"
             style="fill:#ffd200;fill-opacity:1;fill-rule:nonzero;stroke:none"
             d="m 0,0 h -39.618 l 6.685,7.702 H 6.685 Z" /></g><g
           id="g234"><g
             id="g236" /><g
             id="g248"><g
               style="opacity:0.78999299"
               id="g246"
               clip-path="url(#clipPath240)"><g
                 id="g244"
                 transform="translate(234.1929,406.9253)"><path
                   id="path242"
                   style="fill:#9ae5e5;fill-opacity:1;fill-rule:nonzero;stroke:none"
                   d="M 0,0 C 0,0 -15.6,-15.583 -13.522,-34.207 H 5.359 c 0,0 -4.662,23.029 -1.1,33.082 0,0 -1.592,1.509 -4.259,1.125" /></g></g></g></g><g
           transform="translate(310.5078,394.1694)"
           id="g250"><path
             id="path252"
             style="fill:#0e1a34;fill-opacity:1;fill-rule:nonzero;stroke:none"
             d="m 0,0 c 0,0 -15.256,-12.064 -17.001,-16.235 -1.746,-4.17 6.886,-13.093 6.886,-13.093 0,0 8.146,-28.998 10.959,-33.848 0,0 4.655,1.261 6.885,2.619 0,0 -2.714,26.186 -3.975,29.678 0,0 19.789,18.508 23.182,23.996 C 30.328,-1.396 2.355,1.904 0,0" /></g><g
           transform="translate(320.6182,346.4541)"
           id="g254"><path
             id="path256"
             style="fill:#91b31e;fill-opacity:1;fill-rule:nonzero;stroke:none"
             d="m 0,0 c 0,0 0.349,-1.595 0.044,-3.419 -0.304,-1.825 -0.95,-4.228 -0.768,-5.04 0.182,-0.813 1.374,-1.028 2.06,-0.322 0.685,0.705 5.317,6.42 6.182,8.21 0.863,1.789 1.061,2.385 0.898,2.62 C 8.253,2.283 5.023,4.439 4.152,4.937 3.281,5.436 -0.46,3.527 0,0" /></g><g
           transform="translate(300.1123,364.8325)"
           id="g258"><path
             id="path260"
             style="fill:#ffffff;fill-opacity:1;fill-rule:nonzero;stroke:none"
             d="m 0,0 c -0.196,6.452 10.586,16.843 11.045,17.282 l 0.389,-0.407 C 11.323,16.77 0.373,6.22 0.562,0.018 Z" /></g><g
           transform="translate(301.5635,363.4033)"
           id="g262"><path
             id="path264"
             style="fill:#0e1a34;fill-opacity:1;fill-rule:nonzero;stroke:none"
             d="m 0,0 18.801,-17.124 c 0,0 2.693,2.834 4.11,5.079 0,0 -6.849,13.344 -9.684,16.06 C 10.393,6.731 0,0 0,0" /></g><g
           transform="translate(358.7842,121.9912)"
           id="g266"><path
             id="path268"
             style="fill:#91b31e;fill-opacity:1;fill-rule:nonzero;stroke:none"
             d="m 0,0 c 0,0 -1.036,-1.262 -2.657,-2.153 -1.62,-0.892 -3.907,-1.873 -4.433,-2.519 -0.524,-0.646 0.045,-1.716 1.024,-1.816 0.978,-0.101 8.334,-0.198 10.274,0.233 1.939,0.43 2.53,0.645 2.613,0.918 0.083,0.273 -0.224,4.144 -0.373,5.136 C 6.3,0.792 2.483,2.546 0,0" /></g><g
           transform="translate(230.3599,369.355)"
           id="g270"><path
             id="path272"
             style="fill:#108f6e;fill-opacity:1;fill-rule:nonzero;stroke:none"
             d="m 0,0 -1.14,-0.033 c 0,0 -0.011,0.445 -0.112,1.268 -0.088,0.818 -0.279,1.988 -0.568,3.38 -0.595,2.781 -1.735,6.428 -3.308,9.894 -1.576,3.461 -3.47,6.783 -5.143,9.1 -0.772,1.204 -1.542,2.117 -2.039,2.785 -0.508,0.661 -0.798,1.039 -0.798,1.039 l 0.888,0.716 c 0,0 0.296,-0.384 0.813,-1.057 0.507,-0.68 1.289,-1.61 2.076,-2.836 1.704,-2.36 3.636,-5.747 5.244,-9.28 C -2.481,11.438 -1.315,7.71 -0.704,4.854 -0.407,3.423 -0.21,2.219 -0.119,1.364 -0.014,0.518 0,0 0,0" /></g><g
           transform="translate(217.2187,403.2051)"
           id="g274"><path
             id="path276"
             style="fill:#fce300;fill-opacity:1;fill-rule:nonzero;stroke:none"
             d="M 0,0 C 1.679,-1.892 1.753,-4.458 0.2,-5.699 -1.359,-6.944 -3.802,-6.589 -5.275,-4.92 -6.85,-3.336 -7.022,-0.862 -5.668,0.599 -4.314,2.06 -1.773,1.795 0,0" /></g><g
           transform="translate(216.5317,400.8364)"
           id="g278"><path
             id="path280"
             style="fill:#108f6e;fill-opacity:1;fill-rule:nonzero;stroke:none"
             d="m 0,0 c 0,0 -0.423,0.335 -1.037,0.659 -0.636,0.3 -1.458,0.589 -2.202,0.55 -0.048,-0.742 0.21,-1.542 0.478,-2.155 0.244,-0.635 0.498,-1.088 0.498,-1.088 -2.188,-0.23 -3.581,-1.689 -3.581,-1.689 1.964,-1.386 3.895,-1.522 5.279,-1.383 1.388,0.143 2.305,0.667 2.305,0.667 0,0 0.742,0.75 1.175,2.137 C 3.351,-0.913 3.361,1.064 1.943,3.541 1.943,3.541 0.446,2.245 0,0" /></g><g
           transform="translate(380.0547,137.3086)"
           id="g282"><path
             id="path284"
             style="fill:#91b31e;fill-opacity:1;fill-rule:nonzero;stroke:none"
             d="m 0,0 c 0,0 0.105,-1.629 -0.468,-3.388 -0.573,-1.758 -1.572,-4.038 -1.513,-4.869 0.058,-0.83 1.205,-1.221 1.988,-0.626 0.783,0.596 6.218,5.553 7.34,7.194 C 8.469,-0.05 8.753,0.51 8.627,0.767 8.501,1.022 5.631,3.637 4.844,4.261 4.057,4.884 0.072,3.556 0,0" /></g><g
           transform="translate(199.2666,389.6851)"
           id="g286"><path
             id="path288"
             style="fill:#91b31e;fill-opacity:1;fill-rule:nonzero;stroke:none"
             d="m 0,0 c 0,0 0.443,-11.176 10.865,-19.207 10.422,-8.03 20.223,-4.749 20.223,-4.749 0,0 0.675,10.315 -9.746,18.345 C 10.92,2.42 0,0 0,0" /></g><g
           transform="translate(230.1831,365.5063)"
           id="g290"><path
             id="path292"
             style="fill:#ffffff;fill-opacity:1;fill-rule:nonzero;stroke:none"
             d="m 0,0 -26.723,20.591 0.344,0.446 L 0.344,0.446 Z" /></g><g
           transform="translate(206.9277,378.438)"
           id="g294"><path
             id="path296"
             style="fill:#ffffff;fill-opacity:1;fill-rule:nonzero;stroke:none"
             d="M 0,0 -0.018,0.562 6.3,0.763 6.318,0.201 Z" /></g><g
           transform="translate(211.0298,380.3467)"
           id="g298"><path
             id="path300"
             style="fill:#ffffff;fill-opacity:1;fill-rule:nonzero;stroke:none"
             d="M 0,0 -1.416,6.161 -0.868,6.287 0.548,0.126 Z" /></g><g
           transform="translate(213.8037,373.1396)"
           id="g302"><path
             id="path304"
             style="fill:#ffffff;fill-opacity:1;fill-rule:nonzero;stroke:none"
             d="M 0,0 -0.018,0.562 6.3,0.763 6.317,0.201 Z" /></g><g
           transform="translate(217.9053,375.0483)"
           id="g306"><path
             id="path308"
             style="fill:#ffffff;fill-opacity:1;fill-rule:nonzero;stroke:none"
             d="M 0,0 -1.416,6.161 -0.868,6.287 0.548,0.126 Z" /></g><g
           transform="translate(220.6792,367.8418)"
           id="g310"><path
             id="path312"
             style="fill:#ffffff;fill-opacity:1;fill-rule:nonzero;stroke:none"
             d="M 0,0 -0.018,0.562 6.3,0.763 6.318,0.201 Z" /></g><g
           transform="translate(224.7808,369.751)"
           id="g314"><path
             id="path316"
             style="fill:#ffffff;fill-opacity:1;fill-rule:nonzero;stroke:none"
             d="m 0,0 -1.416,6.16 0.548,0.126 1.415,-6.16 z" /></g><g
           transform="translate(247.4912,389.9297)"
           id="g318"><path
             id="path320"
             style="fill:#bce13e;fill-opacity:1;fill-rule:nonzero;stroke:none"
             d="m 0,0 c 0,0 -8.901,-0.353 -15.297,-8.653 -6.396,-8.3 -3.782,-16.107 -3.782,-16.107 0,0 8.215,-0.537 14.61,7.763 C 1.927,-8.697 0,0 0,0" /></g><g
           transform="translate(179.2627,370.5332)"
           id="g322"><path
             id="path324"
             style="fill:#91b31e;fill-opacity:1;fill-rule:nonzero;stroke:none"
             d="m 0,0 5.884,9.447 c -1.98,8.059 -5.177,17.182 -10.347,26.35 -4.156,7.3 -8.99,13.4 -14.204,18.514 l -7.947,-5.585 c 0,0 1.045,2.264 2.163,4.509 1.111,2.23 2.222,4.46 2.222,4.46 -6.219,5.522 -12.518,9.775 -18.141,12.96 -2.871,1.58 -5.387,2.907 -7.726,3.933 -2.32,1.026 -4.363,1.754 -5.974,2.142 -1.371,-1.877 -2.913,-4.919 -4.255,-9.001 -0.696,-2.062 -1.234,-4.301 -1.7,-6.778 -0.451,-2.462 -0.86,-5.209 -1.026,-8.039 0,0 2.485,-1.003 4.969,-2.007 2.466,-0.965 4.933,-1.929 4.933,-1.929 0,0 -2.505,-0.097 -5.011,-0.193 -2.517,-0.072 -5.034,-0.142 -5.034,-0.142 -0.106,-11.991 2.772,-26.223 10.658,-39.508 1.422,-2.428 2.932,-4.705 4.499,-6.841 1.56,-2.142 3.151,-4.17 4.797,-6.041 0,0 3.506,0.216 7.011,0.432 3.494,0.241 6.988,0.482 6.988,0.482 l -8.805,-6.426 c 7.154,-6.996 14.311,-11.704 19.653,-14.669 2.67,-1.485 4.893,-2.527 6.453,-3.212 1.549,-0.671 2.463,-1.017 2.463,-1.017 l 8.24,5.709 8.24,5.709 c 0,0 0.05,0.518 0.053,1.545 0.006,1.018 -0.013,2.503 -0.114,4.389 -0.201,3.759 -0.713,9.083 -1.95,15.301 z" /></g><g
           transform="translate(182.5806,349.8535)"
           id="g326"><path
             id="path328"
             style="fill:#ffffff;fill-opacity:1;fill-rule:nonzero;stroke:none"
             d="M 0,0 C -3.107,4.546 -10.761,15.803 -20.128,30.365 -29.52,44.926 -40.654,62.778 -50.563,80.818 -43.297,61.532 -33.392,42.675 -24.649,27.601 -15.913,12.489 -8.301,1.122 -5.11,-3.541 l 2.555,1.771 z" /></g><g
           transform="translate(190.8779,361.0068)"
           id="g330"><path
             id="path332"
             style="fill:#bce13e;fill-opacity:1;fill-rule:nonzero;stroke:none"
             d="M 0,0 6.154,3.699 C 7.379,8.917 8.219,15.113 7.921,21.923 7.667,27.354 6.634,32.311 5.122,36.789 l -6.205,-0.925 c 0,0 1.278,0.991 2.557,1.983 1.281,0.974 2.562,1.948 2.562,1.948 -1.993,5.013 -4.431,9.318 -6.794,12.777 -2.36,3.446 -4.588,6.039 -6.268,7.385 -2.633,-1.415 -7.043,-5.437 -10.743,-11.803 0,0 1.152,-1.28 2.304,-2.561 1.153,-1.257 2.305,-2.514 2.305,-2.514 0,0 -1.477,0.659 -2.954,1.317 -1.476,0.674 -2.953,1.348 -2.953,1.348 -3.489,-6.846 -5.95,-15.81 -5.291,-25.713 0.225,-3.606 0.809,-6.975 1.574,-10.09 l 8.308,-3.57 -6.942,-1.106 c 2.056,-6.102 4.779,-10.903 6.968,-14.173 1.094,-1.635 2.063,-2.888 2.755,-3.738 0.691,-0.842 1.112,-1.308 1.112,-1.308 l 6.41,0.842 6.41,0.841 c 0,0 0.719,1.197 1.714,3.427 0.993,2.219 2.265,5.427 3.383,9.367 z" /></g><g
           transform="translate(186.6924,348.1553)"
           id="g334"><path
             id="path336"
             style="fill:#ffffff;fill-opacity:1;fill-rule:nonzero;stroke:none"
             d="M 0,0 C -0.444,3.526 -1.508,12.241 -2.626,23.355 -3.757,34.476 -4.94,47.997 -5.534,61.258 -6.824,48.033 -6.641,34.313 -6.034,23.092 -5.439,11.854 -4.432,3.091 -3.975,-0.521 l 1.987,0.26 z" /></g><g
           transform="translate(365.1084,305.3643)"
           id="g338"><path
             id="path340"
             style="fill:#bce13e;fill-opacity:1;fill-rule:nonzero;stroke:none"
             d="M 0,0 C 0,0 9.467,26.306 8.283,51.808 7.1,77.31 14.594,96.458 26.821,94.97 39.049,93.482 49.699,47.333 3.155,-2.761 Z" /></g><g
           transform="translate(369.1963,306.3232)"
           id="g342"><path
             id="path344"
             style="fill:#ffffff;fill-opacity:1;fill-rule:nonzero;stroke:none"
             d="m 0,0 -0.951,0.598 c 0.172,0.274 17.184,27.689 17.843,57.932 l 1.124,-0.024 C 17.351,27.945 0.175,0.276 0,0" /></g><g
           transform="translate(367.2422,302.2349)"
           id="g346"><path
             id="path348"
             style="fill:#91b31e;fill-opacity:1;fill-rule:nonzero;stroke:none"
             d="M 0,0 C 0,0 16.972,8.848 34.381,10.396 51.79,11.945 64.09,18.795 61.952,26.953 59.814,35.111 27.526,38.08 -2.164,1.886 Z" /></g><g
           transform="translate(368.1221,304.3711)"
           id="g350"><path
             id="path352"
             style="fill:#ffffff;fill-opacity:1;fill-rule:nonzero;stroke:none"
             d="m 0,0 -0.72,0.862 c 0.171,0.143 17.396,14.378 38.114,17.655 l 0.175,-1.11 C 17.165,14.18 0.17,0.142 0,0" /></g><g
           transform="translate(444.0488,306.6221)"
           id="g354"><path
             id="path356"
             style="fill:#bce13e;fill-opacity:1;fill-rule:nonzero;stroke:none"
             d="m 0,0 c -5.021,0.516 -11.165,1.094 -18.009,0.842 -6.832,-0.284 -14.285,-1.526 -22.072,-5.018 -7.784,-3.469 -12.02,-9.703 -14.419,-15.164 -2.385,-5.449 -2.898,-10.097 -2.898,-10.097 0,0 3.59,-3.03 9.348,-4.999 5.738,-1.972 13.691,-2.872 21.926,1.361 8.215,4.246 14.17,10.144 18.316,16.147 C -3.634,-10.95 -1.35,-4.751 0,0" /></g><g
           transform="translate(386.7148,277.0229)"
           id="g358"><path
             id="path360"
             style="fill:#ffffff;fill-opacity:1;fill-rule:nonzero;stroke:none"
             d="m 0,0 -0.129,0.324 c 0,0 3.117,1.245 7.74,3.245 4.625,1.997 10.751,4.753 16.796,7.681 6.05,2.918 12.004,6.03 16.406,8.477 2.21,1.205 4.023,2.263 5.288,3.009 1.268,0.74 1.994,1.163 1.994,1.163 L 48.273,23.6 c 0,0 -0.725,-0.423 -1.996,-1.165 C 45.01,21.688 43.195,20.629 40.981,19.421 36.574,16.972 30.614,13.856 24.56,10.937 18.509,8.006 12.378,5.248 7.75,3.25 3.123,1.248 0,0 0,0" /></g><g
           transform="translate(420.0381,292.5942)"
           id="g362"><path
             id="path364"
             style="fill:#ffffff;fill-opacity:1;fill-rule:nonzero;stroke:none"
             d="m 0,0 c -0.018,0.078 -0.176,0.998 0.08,2.638 0.252,1.64 0.942,3.96 2.567,6.839 L 2.944,9.301 C 1.359,6.479 0.682,4.198 0.436,2.588 0.309,1.786 0.286,1.157 0.294,0.729 0.301,0.303 0.344,0.065 0.344,0.065 Z" /></g><g
           transform="translate(411.3408,288.1313)"
           id="g366"><path
             id="path368"
             style="fill:#ffffff;fill-opacity:1;fill-rule:nonzero;stroke:none"
             d="m 0,0 0.258,0.236 c 0,0 0.196,-0.211 0.6,-0.521 0.404,-0.311 1.021,-0.729 1.886,-1.167 1.73,-0.873 4.452,-1.843 8.434,-2.093 l -0.03,-0.35 C 7.089,-3.642 4.331,-2.662 2.576,-1.777 0.822,-0.888 0.062,-0.066 0,0" /></g><g
           transform="translate(395.1748,280.7148)"
           id="g370"><path
             id="path372"
             style="fill:#ffffff;fill-opacity:1;fill-rule:nonzero;stroke:none"
             d="m 0,0 0.269,0.223 c 0,0 0.215,-0.251 0.664,-0.626 0.447,-0.376 1.135,-0.885 2.106,-1.428 1.942,-1.088 5.011,-2.309 9.557,-2.8 l -0.044,-0.348 c -4.624,0.5 -7.723,1.723 -9.69,2.824 C 0.898,-1.056 0.067,-0.08 0,0" /></g><g
           transform="translate(402.1064,283.9072)"
           id="g374"><path
             id="path376"
             style="fill:#ffffff;fill-opacity:1;fill-rule:nonzero;stroke:none"
             d="M 0,0 C -0.018,0.112 -0.19,1.505 0.314,3.916 0.822,6.317 2.01,9.734 4.633,13.899 L 4.921,13.708 C 2.337,9.603 1.172,6.203 0.671,3.826 0.421,2.635 0.338,1.696 0.319,1.052 0.301,0.408 0.346,0.048 0.346,0.048 Z" /></g><g
           transform="translate(426.0791,295.6904)"
           id="g378"><path
             id="path380"
             style="fill:#ffffff;fill-opacity:1;fill-rule:nonzero;stroke:none"
             d="m 0,0 0.246,0.249 c 0,0 0.469,-0.455 1.509,-0.919 1.041,-0.463 2.666,-0.952 5.015,-1.015 L 6.757,-2.037 C 4.328,-1.964 2.662,-1.47 1.59,-0.989 0.518,-0.508 0.038,-0.038 0,0" /></g><g
           transform="translate(429.4355,241.8682)"
           id="g382"><path
             id="path384"
             style="fill:#91b31e;fill-opacity:1;fill-rule:nonzero;stroke:none"
             d="m 0,0 c -1.868,8.161 -5.604,20.599 -17.077,29.888 -11.468,9.283 -25.708,2.818 -25.708,2.818 0,0 -2.556,-15.399 9.515,-24.108 C -21.204,-0.106 -8.267,-0.414 0,0" /></g><g
           transform="translate(386.5615,274.4585)"
           id="g386"><path
             id="path388"
             style="fill:#ffffff;fill-opacity:1;fill-rule:nonzero;stroke:none"
             d="M 0,0 0.177,0.23 35.77,-26.976 35.595,-27.208 Z" /></g><g
           transform="translate(411.0332,255.9863)"
           id="g390"><path
             id="path392"
             style="fill:#ffffff;fill-opacity:1;fill-rule:nonzero;stroke:none"
             d="M 0,0 C 0.051,0.038 0.691,0.498 2.014,0.876 3.337,1.255 5.343,1.553 8.125,1.267 L 8.095,0.977 C 5.375,1.257 3.4,0.958 2.103,0.588 1.454,0.402 0.975,0.199 0.655,0.041 0.337,-0.117 0.173,-0.235 0.173,-0.235 Z" /></g><g
           transform="translate(404.5117,260.8691)"
           id="g394"><path
             id="path396"
             style="fill:#ffffff;fill-opacity:1;fill-rule:nonzero;stroke:none"
             d="m 0,0 0.271,-0.104 c 0,0 -0.083,-0.227 -0.164,-0.645 -0.08,-0.418 -0.161,-1.036 -0.167,-1.843 -0.012,-1.616 0.275,-3.991 1.468,-7.049 L 1.139,-9.748 c -1.217,3.117 -1.515,5.519 -1.502,7.159 C -0.351,-0.949 -0.027,-0.07 0,0" /></g><g
           transform="translate(392.7344,269.8711)"
           id="g398"><path
             id="path400"
             style="fill:#ffffff;fill-opacity:1;fill-rule:nonzero;stroke:none"
             d="m 0,0 0.271,-0.104 c 0,0 -0.095,-0.26 -0.189,-0.738 -0.093,-0.478 -0.187,-1.185 -0.197,-2.11 -0.019,-1.849 0.304,-4.569 1.668,-8.07 l -0.271,-0.106 c -1.386,3.561 -1.721,6.302 -1.703,8.174 C -0.403,-1.083 -0.031,-0.08 0,0" /></g><g
           transform="translate(397.8369,266.0737)"
           id="g402"><path
             id="path404"
             style="fill:#ffffff;fill-opacity:1;fill-rule:nonzero;stroke:none"
             d="m 0,0 c 0.076,0.056 1.031,0.737 3.007,1.296 1.974,0.559 4.97,0.997 9.123,0.568 L 12.099,1.574 C 8.009,1.998 5.035,1.553 3.08,0.998 2.104,0.721 1.381,0.416 0.9,0.179 0.42,-0.058 0.172,-0.234 0.172,-0.234 Z" /></g><g
           transform="translate(415.4785,252.4858)"
           id="g406"><path
             id="path408"
             style="fill:#ffffff;fill-opacity:1;fill-rule:nonzero;stroke:none"
             d="m 0,0 0.271,-0.104 c 0,0 -0.185,-0.515 -0.189,-1.467 C 0.078,-2.524 0.25,-3.924 0.955,-5.725 L 0.686,-5.833 c -0.728,1.861 -0.907,3.297 -0.9,4.28 C -0.208,-0.571 -0.016,-0.042 0,0" /></g><g
           transform="translate(96.5093,160.7822)"
           id="g410"><path
             id="path412"
             style="fill:#ffd200;fill-opacity:1;fill-rule:nonzero;stroke:none"
             d="m 0,0 c 0,0 -0.404,0.567 -2.709,-0.464 -2.306,-1.031 -7.645,-8.069 -9.223,-11.831 0,0 3.155,-2.851 5.34,-4.064 0,0 1.965,1.637 3.075,2.244 0,0 0.079,-6.856 -0.77,-10.92 -0.849,-4.066 -1.679,-6.553 -1.679,-6.553 0,0 7.139,-3.337 16.422,-1.516 0,0 0.122,9.767 0.425,13.529 0.303,3.762 2.063,7.948 1.092,11.467 -0.971,3.518 -5.12,4.834 -8.475,8.271 z" /></g><g
           transform="translate(103.1567,169.6787)"
           id="g414"><path
             id="path416"
             style="fill:#ff9a5c;fill-opacity:1;fill-rule:nonzero;stroke:none"
             d="m 0,0 c 0,0 -0.164,2.859 -1.797,4.901 -1.634,2.042 -5.228,1.307 -6.699,-1.797 -1.059,-2.236 -1.183,-3.865 -1.171,-4.608 -0.3,0.24 -0.768,0.398 -1.413,-0.043 -1.095,-0.746 0.564,-3.378 2.233,-2.923 0.447,-0.929 1.413,-1.699 1.413,-1.699 0,-2.124 0.434,-2.69 0.434,-2.69 1.553,-1.879 3.377,-3.735 4.602,-2.918 1.226,0.817 -0.245,1.961 -0.653,2.614 -0.409,0.653 0.11,0.994 0.11,0.994 C 0.735,-7.679 0,0 0,0" /></g><g
           transform="translate(100.5566,173.0332)"
           id="g418"><path
             id="path420"
             style="fill:#753519;fill-opacity:1;fill-rule:nonzero;stroke:none"
             d="m 0,0 c 0,0 -0.954,-3.58 -3.086,-4.368 0,0 0.659,0.667 0.781,1.031 0,0 -2.731,-2.548 -4.247,-2.306 0,0 -0.971,0.425 -1.275,3.823 -0.303,3.397 3.277,5.339 3.277,5.339 h 4.065 L 2.366,0.242 2.66,-2.063 c 0,0 -1.81,0 -2.66,2.063" /></g><g
           transform="translate(103.4976,132.4678)"
           id="g422"><path
             id="path424"
             style="fill:#ff9a5c;fill-opacity:1;fill-rule:nonzero;stroke:none"
             d="m 0,0 c 0,0 -12.597,2.176 -17.16,4.703 -4.562,2.526 -4.001,4.774 -3.369,6.388 0.632,1.614 2.597,5.054 2.597,5.054 l 4.464,-3.195 -0.113,-0.995 -0.762,-1.739 c 0,0 1.457,-0.923 3.655,-2.144 C -8.489,6.852 0.46,2.747 0.46,2.747 0.46,2.747 2.635,0.953 0,0" /></g><g
           transform="translate(125.2876,109.4434)"
           id="g426"><path
             id="path428"
             style="fill:#108f6e;fill-opacity:1;fill-rule:nonzero;stroke:none"
             d="m 0,0 -2.55,13.853 c -0.196,1.065 -0.902,1.968 -1.89,2.415 l -15.199,6.861 0.827,1.833 15.2,-6.861 c 1.589,-0.718 2.726,-2.17 3.041,-3.884 L 1.979,0.365 Z" /></g><g
           transform="translate(132.4692,117.6709)"
           id="g430"><path
             id="path432"
             style="fill:#753519;fill-opacity:1;fill-rule:nonzero;stroke:none"
             d="M 0,0 C 0,0 3.092,2.107 4.638,2.328 6.183,2.549 6.625,0.884 7.729,1.164 8.833,1.444 9.717,2.348 9.717,2.348 l 2.208,-1.174 c 0,0 0.221,0.613 1.767,0 1.546,-0.612 0.662,0.05 1.546,-0.612 C 16.121,-0.102 17.446,0 17.446,0 c 0,0 1.104,0.322 2.208,0 1.105,-0.322 2.753,0.539 5.301,0 2.546,-0.538 4.858,0.543 6.183,0 1.325,-0.543 1.987,-2.47 3.091,-1.948 C 35.334,-1.427 37.101,0 37.101,0 l 1.766,-3.092 c 0,0 0.663,1.426 1.546,0 0.883,-1.426 2.871,-2.309 2.871,-2.309 0,0 0.442,-0.278 1.104,-1.354 0.663,-1.076 1.195,-4.049 1.195,-4.049 v -1.325 l -33.216,1.325 -13.913,7.712 z" /></g><g
           transform="translate(130.0942,114.249)"
           id="g434"><path
             id="path436"
             style="fill:#108f6e;fill-opacity:1;fill-rule:nonzero;stroke:none"
             d="m 0,0 -2.55,13.854 c -0.196,1.067 -0.902,1.968 -1.889,2.415 l -15.201,6.861 0.828,1.833 15.2,-6.861 c 1.588,-0.717 2.725,-2.168 3.041,-3.882 L 1.979,0.365 Z" /></g><g
           transform="translate(127.4653,117.6709)"
           id="g438"><path
             id="path440"
             style="fill:#108f6e;fill-opacity:1;fill-rule:nonzero;stroke:none"
             d="m 0,0 c 0,0 -2.81,-8.727 -3.55,-10.206 -0.74,-1.48 1.775,-6.804 1.775,-6.804 l 26.477,-13.016 25.884,17.897 z" /></g><g
           transform="translate(122.521,75.2617)"
           id="g442"><path
             id="path444"
             style="fill:#108f6e;fill-opacity:1;fill-rule:nonzero;stroke:none"
             d="M 0,0 C -0.809,0 -1.467,0.178 -2.003,0.529 -3.34,1.403 -3.814,3.264 -3.539,6.558 -3,13.026 1.494,30.981 1.685,31.743 L 2.774,31.469 C 2.728,31.283 -1.888,12.842 -2.42,6.465 -2.652,3.67 -2.324,2.082 -1.388,1.47 0.023,0.548 3.312,1.5 8.664,4.391 18.719,9.817 26.225,14.767 26.299,14.816 l 0.62,-0.937 C 26.844,13.829 19.299,8.854 9.197,3.4 4.931,1.099 2.004,0 0,0" /></g><g
           transform="translate(178.0742,99.7402)"
           id="g446"><path
             id="path448"
             style="fill:#753519;fill-opacity:1;fill-rule:nonzero;stroke:none"
             d="m 0,0 c 0,0 -1.586,-1.767 -1.676,-2.87 -0.091,-1.105 1.676,0 1.676,0 0,0 0.883,-1.203 1.767,-0.491 0.883,0.712 0,1.568 0,1.568 L 2.159,0 Z" /></g><g
           transform="translate(254.1357,74.5693)"
           id="g450"><path
             id="path452"
             style="fill:#108f6e;fill-opacity:1;fill-rule:nonzero;stroke:none"
             d="m 0,0 -1.501,-1.162 c 0,0 -0.482,0.65 -1.327,1.787 -0.827,1.141 -2.003,2.771 -3.347,4.771 -2.711,3.986 -6.153,9.417 -9.285,15.031 -3.151,5.603 -5.953,11.4 -7.885,15.825 -0.913,2.235 -1.674,4.1 -2.206,5.403 -0.476,1.328 -0.748,2.086 -0.748,2.086 l 1.785,0.647 c 0,0 0.267,-0.746 0.736,-2.054 0.525,-1.286 1.275,-3.124 2.175,-5.33 1.909,-4.368 4.679,-10.1 7.799,-15.65 C -10.703,15.795 -7.29,10.41 -4.605,6.463 -3.273,4.481 -2.11,2.869 -1.295,1.744 -0.471,0.634 0,0 0,0" /></g><g
           transform="translate(232.0596,127.8008)"
           id="g454"><path
             id="path456"
             style="fill:#fce300;fill-opacity:1;fill-rule:nonzero;stroke:none"
             d="m 0,0 c 0.552,-1.779 0.328,-3.603 -0.263,-5.126 -0.611,-1.521 -1.76,-2.77 -3.32,-3.327 -1.562,-0.557 -3.247,-0.294 -4.726,0.628 -1.494,0.908 -2.625,2.555 -3.239,4.555 -0.149,0.502 -0.254,1.003 -0.317,1.497 -0.042,0.502 -0.035,1 0.007,1.48 0.086,0.961 0.327,1.857 0.702,2.638 0.75,1.563 2.036,2.65 3.661,2.972 C -5.87,5.64 -4.217,5.165 -2.876,4.205 -2.205,3.723 -1.611,3.116 -1.134,2.408 -0.895,2.055 -0.689,1.674 -0.508,1.271 -0.305,0.871 -0.134,0.446 0,0" /></g><g
           transform="translate(229.2944,124.9326)"
           id="g458"><path
             id="path460"
             style="fill:#108f6e;fill-opacity:1;fill-rule:nonzero;stroke:none"
             d="M 0,0 C 0,0 -0.403,0.757 -1.089,1.652 -1.43,2.101 -1.85,2.583 -2.313,3.027 -2.75,3.478 -3.247,3.887 -3.79,4.176 -4.145,3.663 -4.402,3.052 -4.586,2.421 -4.747,1.796 -4.82,1.158 -4.859,0.58 c -0.075,-1.155 0.016,-2.055 0.016,-2.055 -1.762,0.65 -3.438,0.738 -4.67,0.648 -1.233,-0.087 -2.02,-0.353 -2.02,-0.353 2.186,-4.225 5.178,-5.82 7.482,-6.412 2.308,-0.591 4.011,-0.186 4.011,-0.186 0,0 1.544,0.85 2.979,2.719 1.436,1.871 2.719,4.708 2.576,8.705 0,0 -0.81,-0.189 -1.907,-0.731 C 2.512,2.371 1.129,1.473 0,0" /></g><g
           transform="translate(182.9326,96.1533)"
           id="g462"><path
             id="path464"
             style="fill:#753519;fill-opacity:1;fill-rule:nonzero;stroke:none"
             d="m 0,0 c 0,0 -1.325,-2.596 -1.104,-3.259 0.221,-0.662 1.104,0 1.104,0 0,0 1.325,-0.589 1.987,-0.294 0.663,0.294 1.767,1.736 1.767,1.736 H 1.312 Z" /></g><g
           transform="translate(189.7749,78.667)"
           id="g466"><path
             id="path468"
             style="fill:#753519;fill-opacity:1;fill-rule:nonzero;stroke:none"
             d="m 0,0 c 0,0 -5.545,0.594 -5.533,0 0.012,-0.593 0,-2.284 0,-2.284 0,0 -1.141,1.399 -2.442,0 -1.3,-1.401 -1.57,-3.61 -1.57,-3.61 0,0 -0.354,-1.32 -1.919,-1.543 -1.565,-0.223 -1.916,-1.547 -1.916,-1.547 0,0 3.393,-1.105 5.405,-1.326 2.013,-0.22 3.779,0 3.779,0 0,0 2.209,0.246 4.196,-0.098 1.988,-0.344 4.196,-0.785 6.184,-1.006 1.987,-0.221 5.521,1.546 5.521,1.546 0,0 6.183,0.221 8.612,-0.221 2.43,-0.441 5.079,0.662 5.079,0.662 l 0.884,1.99 c 0,0 -1.767,0.394 -2.871,1.852 -1.104,1.459 -2.43,5.295 -3.313,5.585 -0.883,0.29 -3.312,2.291 -3.312,2.291 0,0 -2.209,3.409 -2.43,5.563 -0.22,2.153 -3.091,3.535 -3.091,3.535 0,0 -1.325,-0.356 -2.208,-2.194 C 8.171,7.357 6.45,7.854 6.45,7.854 6.45,7.854 5.3,7.663 4.638,5.743 3.975,3.823 3.754,2.291 3.754,2.291 c 0,0 -2.65,0.897 -3.975,0 C -1.545,1.395 0,0 0,0" /></g><g
           transform="translate(156.0215,80.1836)"
           id="g470"><path
             id="path472"
             style="fill:#108f6e;fill-opacity:1;fill-rule:nonzero;stroke:none"
             d="M 0,0 -4.961,7.774 -3.067,8.983 1.894,1.209 Z" /></g><g
           transform="translate(359.3145,72.7383)"
           id="g474"><path
             id="path476"
             style="fill:#91b31e;fill-opacity:1;fill-rule:nonzero;stroke:none"
             d="m 0,0 -2.21,0.851 14.82,38.497 2.21,-0.851 z" /></g><g
           transform="translate(386.7441,72.7383)"
           id="g478"><path
             id="path480"
             style="fill:#91b31e;fill-opacity:1;fill-rule:nonzero;stroke:none"
             d="m 0,0 -14.819,38.497 2.21,0.851 L 2.21,0.851 Z" /></g><path
           id="path482"
           style="fill:#91b31e;fill-opacity:1;fill-rule:nonzero;stroke:none"
           d="M 379.656,94.428 H 366.85 v 2.366 h 12.806 z" /><path
           id="path484"
           style="fill:#91b31e;fill-opacity:1;fill-rule:nonzero;stroke:none"
           d="m 382.465,85.965 h -18.559 v 2.367 h 18.559 z" /><g
           transform="translate(358.3047,233.5986)"
           id="g486"><path
             id="path488"
             style="fill:#ff9a5c;fill-opacity:1;fill-rule:nonzero;stroke:none"
             d="m 0,0 c 0,0 -3.103,-3.026 -4.189,-6.362 -1.086,-3.336 0.543,-6.207 3.569,-7.06 0,0 0.698,-3.491 0.62,-4.733 0,0 2.328,-0.62 3.569,-0.465 1.242,0.155 2.327,0.62 2.327,0.62 v 4.966 c 0,0 2.329,2.095 3.027,4.034 0.698,1.939 1.318,6.672 -0.932,9 C 5.741,2.327 1.239,1.372 0,0" /></g><g
           transform="translate(324.6201,248.6709)"
           id="g490"><path
             id="path492"
             style="fill:#91b31e;fill-opacity:1;fill-rule:nonzero;stroke:none"
             d="M 0,0 C 0,0 -0.083,-0.349 -1.872,-0.901 -3.66,-1.454 -4.937,-0.943 -5.449,-2.392 -5.96,-3.84 -4.937,-6.65 -6.045,-7.246 c -1.107,-0.597 -1.448,-1.023 -1.448,-1.023 0,0 2.808,-3.577 3.746,-5.11 0,0 1.279,1.022 1.705,2.811 0.426,1.789 3.335,0.929 4.003,1.533 0.669,0.603 1.377,1.533 1.377,1.533 0,0 -0.955,6.231 -3.338,7.502" /></g><g
           transform="translate(362.542,230.3916)"
           id="g494"><path
             id="path496"
             style="fill:#753519;fill-opacity:1;fill-rule:nonzero;stroke:none"
             d="m 0,0 c 0,0 -3.121,2.178 -3.847,4.21 -0.725,2.032 0.146,3.907 1.924,3.695 1.777,-0.212 2.722,-0.502 2.722,-0.502 0,0 1.656,2.105 4.529,-0.581 2.873,-2.685 2.511,-6.459 2.511,-6.459 0,0 3.629,-1.016 2.178,-4.427 -1.453,-3.412 -4.689,-4.52 -4.689,-4.52 0,0 -0.465,-2.211 -1.699,-2.329 -1.233,-0.119 -1.97,-0.411 -1.97,-0.411 l 0.228,4.138 c 0,0 1.162,0 1.814,1.379 0.653,1.379 -1.379,1.161 -1.379,1.161 0,0 -1.161,2.106 -0.653,2.904 0,0 -1.815,0.725 -1.669,1.742" /></g><g
           transform="translate(347.1807,222.3916)"
           id="g498"><path
             id="path500"
             style="fill:#ff9a5c;fill-opacity:1;fill-rule:nonzero;stroke:none"
             d="m 0,0 c 0,0 -5.577,4.384 -10.322,10.204 -4.745,5.82 -7.651,9.984 -7.651,9.984 0,0 0,2.421 -0.968,4.456 -0.968,2.033 -1.066,1.646 -1.647,2.42 -0.581,0.775 -0.577,-0.628 0.156,-1.996 l 0.734,-1.367 c 0,0 -1.901,3.034 -2.601,2.934 -0.7,-0.1 0.134,-1.1 0.5,-1.633 0.367,-0.534 0.5,-1.468 0.5,-1.468 0,0 -1.367,2.101 -1.834,1.735 -0.467,-0.368 0.501,-1.634 1.268,-2.635 0.766,-1 0.9,-2.568 1.367,-3.401 0,0 6.597,-17.124 16.003,-24.48 C 4.911,-12.604 0,0 0,0" /></g><g
           transform="translate(329.0352,242.3486)"
           id="g502"><path
             id="path504"
             style="fill:#ff9a5c;fill-opacity:1;fill-rule:nonzero;stroke:none"
             d="M 0,0 C 0,0 0.205,1.11 0.285,1.231 0.365,1.354 0.623,2.276 0.816,2.856 1.01,3.437 0.73,3.995 0.408,3.716 0.086,3.437 -0.645,2.405 -0.623,1.782 -0.602,1.16 0,0 0,0" /></g><g
           transform="translate(372.9014,205.0977)"
           id="g506"><path
             id="path508"
             style="fill:#ff9a5c;fill-opacity:1;fill-rule:nonzero;stroke:none"
             d="m 0,0 c 0,0 4.21,-5.107 5.82,-5.912 1.611,-0.806 5.859,2.732 8.052,6.799 2.192,4.065 3.325,7.15 3.325,7.15 0,0 2.847,2.064 3.653,4.031 0,0 0.292,0.88 0,1.078 -0.293,0.197 -1.131,-1.233 -1.575,-1.775 0,0 1.282,2.219 1.085,2.711 -0.197,0.493 -2.021,-2.07 -2.021,-2.07 0,0 1.43,2.613 0.936,2.662 -0.493,0.05 -1.874,-2.318 -1.874,-2.318 0,0 -0.048,1.627 -0.542,1.529 -0.493,-0.098 -0.345,-1.923 -0.345,-1.923 0,0 -0.493,-2.268 -0.788,-3.007 -0.296,-0.74 -6.509,-7.84 -7.297,-8.037 0,0 -2.515,3.55 -4.832,4.24 C 1.279,5.849 0,0 0,0" /></g><g
           transform="translate(351.3594,189.2686)"
           id="g510"><path
             id="path512"
             style="fill:#0e1a34;fill-opacity:1;fill-rule:nonzero;stroke:none"
             d="m 0,0 c 0,0 5.832,-61.806 6.851,-67.011 0,0 5.527,-0.667 7.41,0 0,0 -0.415,37.632 0,41.502 0.414,3.87 3.751,23.62 2.55,26.289 C 15.609,3.449 0,0 0,0" /></g><g
           transform="translate(369.6377,190.3154)"
           id="g514"><path
             id="path516"
             style="fill:#0e1a34;fill-opacity:1;fill-rule:nonzero;stroke:none"
             d="m 0,0 c 0,0 2.075,-24.723 3.106,-28.508 1.031,-3.786 12.206,-19.78 12.206,-19.78 l -4.903,-4.957 c 0,0 -10.142,10.275 -13.078,14.013 -2.935,3.736 -8.007,19.349 -8.007,19.349 0,0 2.936,23.753 10.676,19.883" /></g><g
           transform="translate(283.0811,329.8809)"
           id="g518"><path
             id="path520"
             style="fill:#108f6e;fill-opacity:1;fill-rule:nonzero;stroke:none"
             d="m 0,0 c -5.689,1.766 -9.81,2.32 -13.146,4.201 -3.334,1.881 -6.67,3.272 -9.22,3.165 -2.551,-0.107 -7.849,1.284 -10.988,0 -3.139,-1.284 -6.462,-7.749 -11.275,-8.931 -4.813,-1.182 -16.898,1.369 -20.273,3.527 -3.375,2.158 -4.334,6.475 -3.364,8.633 0.97,2.158 1.362,6.009 1.166,7.419 -0.196,1.41 4.905,4.177 6.671,6.03 1.765,1.853 3.435,7.892 -0.743,10.912 -20.017,-4.499 -38.447,-13.192 -54.314,-25.116 0.001,-0.013 0.127,-1.412 1.298,-3.365 1.178,-1.962 -0.709,-3.14 -0.649,-3.728 0.061,-0.589 1.111,-0.521 0.194,-1.634 -0.918,-1.113 0.016,-0.917 -0.843,-1.701 -0.86,-0.785 -1.644,-1.57 -2.233,-1.962 -0.589,-0.393 -0.392,-1.57 -1.57,-2.944 -1.177,-1.373 -3.335,-2.55 -3.335,-4.708 0,-2.158 -3.335,-5.101 -3.728,-6.278 -0.392,-1.178 -3.728,-5.69 -3.923,-8.633 -0.197,-2.943 -0.197,-6.082 0,-7.848 0.195,-1.766 0.294,-3.728 -0.148,-5.886 -0.441,-2.158 -0.834,-4.12 -1.03,-8.044 -0.196,-3.924 1.373,-5.69 5.101,-6.867 3.728,-1.178 10.781,-4.513 12.552,-7.063 1.771,-2.551 2.752,-5.69 4.125,-6.082 1.374,-0.393 2.551,-4.513 7.063,-7.652 4.513,-3.139 12.949,-3.537 16.677,-7.556 3.728,-4.02 10.595,-13.815 12.361,-19.218 1.765,-5.402 4.708,-7.393 7.847,-10.027 3.14,-2.635 7.063,-5.578 10.007,-5.774 2.943,-0.196 4.143,1.037 4.033,2.088 -0.109,1.051 -3.837,4.19 -4.426,4.975 -0.588,0.785 -1.765,6.083 -3.532,9.81 -1.765,3.728 -1.961,3.88 -1.373,5.668 0.589,1.787 1.766,5.705 3.532,6.69 1.766,0.983 3.139,0.265 4.316,1.998 1.177,1.732 1.593,2.708 1.483,3.79 -0.109,1.082 -1.875,1.752 -3.641,1.907 -1.766,0.155 -2.354,1.725 -4.709,2.118 -2.354,0.392 -5.69,1.373 -6.474,2.746 -0.785,1.373 -2.551,1.766 -3.728,1.569 -1.177,-0.196 -4.709,-0.784 -7.063,1.57 -2.355,2.355 -2.551,6.867 -2.943,9.222 -0.393,2.354 -0.785,3.139 -0.196,4.904 0.588,1.766 0.588,3.151 3.335,4.421 2.747,1.269 7.259,2.261 10.006,0 2.747,-2.263 8.241,-0.496 9.418,0.877 1.177,1.373 4.512,5.493 7.259,5.69 2.747,0.196 7.259,0 9.025,1.569 1.766,1.57 8.437,4.879 9.614,7.541 1.177,2.662 5.689,10.382 5.689,12.898 0,2.517 8.241,7.421 10.595,6.637 2.354,-0.786 5.494,2.942 6.671,2.942 1.177,0 4.709,-0.588 6.671,1.766 1.962,2.355 3.531,3.936 5.1,6.186 C 4.513,-5.297 5.689,-1.766 0,0" /></g><g
           transform="translate(270.8467,144.9277)"
           id="g522"><path
             id="path524"
             style="fill:#108f6e;fill-opacity:1;fill-rule:nonzero;stroke:none"
             d="m 0,0 c 0,0 -6.615,4.142 -12.236,6.508 -5.62,2.367 -9.763,10.742 -11.242,12.471 -1.479,1.729 -2.662,16.816 0,19.478 2.663,2.663 5.343,7.101 7.553,10.65 2.209,3.55 3.097,5.916 2.209,7.396 -0.887,1.478 -0.887,9.878 0,11.3 0.888,1.421 5.325,4.083 7.397,3.787 2.07,-0.296 8.579,1.524 11.241,0.022 2.662,-1.502 12.721,-6.819 17.158,-7.119 4.438,-0.299 8.875,-4.144 12.425,-2.074 3.55,2.071 8.76,-0.296 11.775,-4.732 3.016,-4.438 6.566,-8.953 11.595,-11.873 5.029,-2.919 4.592,-5.582 7.473,-6.173 2.881,-0.592 9.316,-2.348 12.803,-4.734 3.488,-2.386 2.343,-5.325 -0.535,-8.875 -2.879,-3.55 -6.46,-9.17 -8.811,-12.72 -2.351,-3.55 -1.494,-8.875 0,-10.354 1.495,-1.479 0.311,-7.691 -1.759,-9.467 -2.071,-1.774 -6.509,-4.733 -8.283,-7.987 -1.776,-3.254 -1.605,-5.667 -5.684,-7.123 -4.079,-1.456 -13.25,-5.598 -18.87,-6.929 -5.621,-1.331 -10.355,-1.645 -14.2,-4.89 -3.846,-3.245 -4.387,-12.056 -8.007,-13.567 -3.619,-1.512 -14.476,-8.307 -18.617,-7.867 -4.142,0.439 -4.136,1.268 -1.773,4.256 2.365,2.987 8.346,8.249 11.716,13.046 3.37,4.797 -1.068,9.429 1.89,11.371 2.958,1.941 3.475,7.71 4.4,9.411 C 10.543,-15.088 10.294,-5.64 0,0" /></g><g
           transform="translate(355.8389,277.1851)"
           id="g526"><path
             id="path528"
             style="fill:#108f6e;fill-opacity:1;fill-rule:nonzero;stroke:none"
             d="m 0,0 c 0.592,-1.206 3.747,-2.586 6.114,-3.77 2.366,-1.183 4.59,0.637 5.549,3.77 0.959,3.133 5.101,3.725 7.271,2.541 2.169,-1.183 4.535,-1.775 6.113,-1.38 1.557,0.389 4.578,1.549 4.656,1.58 -9.031,21.855 -23.317,40.986 -41.295,55.805 -0.002,-0.004 -1.624,-2.382 -4.185,-4.737 -2.564,-2.358 -3.199,-4.133 -3.868,-5.513 -0.668,-1.381 -2.64,-7.297 -1.851,-9.861 0.788,-2.564 0.46,-4.339 3.386,-6.508 2.924,-2.17 5.527,-2.906 4.225,-6.877 -1.301,-3.97 -0.314,-8.212 -1.695,-10.331 -1.381,-2.12 -1.539,-6.261 1.695,-9.022 3.236,-2.761 7.377,-2.17 8.364,-2.367 C -4.536,3.133 -0.592,1.206 0,0" /></g><g
           transform="translate(258.6104,243.9795)"
           id="g530"><path
             id="path532"
             style="fill:#108f6e;fill-opacity:1;fill-rule:nonzero;stroke:none"
             d="m 0,0 c 0,0 0,-2.711 -1.972,-4.486 -1.972,-1.775 -3.944,-4.93 -1.972,-5.325 1.972,-0.394 6.114,-0.976 7.099,-1.573 0.987,-0.596 6.115,-3.357 7.495,-2.371 1.38,0.985 2.367,3.353 3.747,3.55 1.38,0.197 1.775,3.693 2.958,4.805 1.184,1.111 5.326,5.055 5.719,8.212 0.395,3.155 0.789,7.888 0,9.071 -0.788,1.183 -6.31,1.972 -6.902,3.55 -0.592,1.578 -4.109,2.761 -6.787,1.184 C 6.705,15.039 5.522,11.489 5.128,8.925 4.733,6.361 -0.197,4.486 0,0" /></g><g
           transform="translate(343.4082,327.7056)"
           id="g534"><path
             id="path536"
             style="fill:#108f6e;fill-opacity:1;fill-rule:nonzero;stroke:none"
             d="m 0,0 -1.625,1.221 c 0,0 0.484,0.64 1.28,1.889 0.804,1.233 1.895,3.047 3.11,5.279 2.431,4.464 5.267,10.655 7.55,17.06 2.284,6.402 4.142,12.959 5.204,17.951 0.624,2.475 0.934,4.583 1.235,6.041 0.277,1.462 0.435,2.298 0.435,2.298 l 2.003,-0.343 c 0,0 -0.16,-0.846 -0.441,-2.327 C 18.447,47.593 18.132,45.46 17.501,42.953 16.425,37.898 14.543,31.254 12.228,24.76 9.911,18.263 7.031,11.973 4.549,7.418 3.31,5.139 2.193,3.283 1.361,2.006 0.548,0.728 0,0 0,0" /></g><g
           transform="translate(369.207,386.8892)"
           id="g538"><path
             id="path540"
             style="fill:#fce300;fill-opacity:1;fill-rule:nonzero;stroke:none"
             d="m 0,0 c -0.604,-4.379 -3.976,-7.429 -7.464,-6.818 -3.501,0.611 -5.849,4.353 -5.29,8.363 0.4,4.036 3.602,7.105 7.141,6.858 C -2.074,8.156 0.443,4.394 0,0" /></g><g
           transform="translate(365.2129,385.1211)"
           id="g542"><path
             id="path544"
             style="fill:#108f6e;fill-opacity:1;fill-rule:nonzero;stroke:none"
             d="M 0,0 C 0,0 -0.038,0.955 -0.313,2.156 -0.624,3.362 -1.16,4.808 -2.059,5.784 -3.132,5.008 -3.939,3.738 -4.479,2.664 -5.053,1.595 -5.371,0.72 -5.371,0.72 c -2.847,2.725 -6.426,2.961 -6.426,2.961 0.398,-4.39 2.417,-7.181 4.255,-8.885 1.832,-1.701 3.615,-2.296 3.615,-2.296 0,0 1.878,-0.095 4.23,0.949 C 2.646,-5.508 5.348,-3.262 7.031,1.4 7.031,1.4 3.544,1.966 0,0" /></g><g
           transform="translate(316.5957,427.4385)"
           id="g546"><path
             id="path548"
             style="fill:#108f6e;fill-opacity:1;fill-rule:nonzero;stroke:none"
             d="m 0,0 c 0,0 -1.704,-0.366 -5.032,-2.289 -3.328,-1.922 -10.798,-9.318 -10.798,-9.318 0,0 2.736,-4.955 6.213,-7.618 0,0 4.067,1.85 5.102,2.589 0,0 2.072,-9.985 -2.07,-16.123 0,0 2.366,-2.81 6.286,-3.402 3.92,-0.591 8.062,-0.518 11.463,-2.958 3.402,-2.441 8.949,-2.219 11.315,0 0,0 1.998,7.691 0,14.865 -1.996,7.174 -4.88,11.168 -4.88,11.168 l 1.257,-0.962 c 0,0 4.29,4.66 4.511,8.283 0,0 -4.955,5.103 -8.505,7.026 -3.549,1.923 -7.429,1.258 -10.371,0 C 1.55,0.004 0,0 0,0" /></g><g
           transform="translate(308.8848,436.5815)"
           id="g550"><path
             id="path552"
             style="fill:#ff9a5c;fill-opacity:1;fill-rule:nonzero;stroke:none"
             d="M 0,0 C 0.035,-0.328 0.879,-4.394 2.856,-6.371 4.834,-8.349 6.371,-7.14 6.921,-7.36 7.47,-7.58 7.8,-9.117 7.8,-10.216 c 0,-1.098 1.757,-2.197 3.404,-0.989 1.649,1.209 0.77,6.811 0.77,6.811 0,0 0.907,1.867 0.234,4.394 0,0 0.841,2.087 0.248,3.295 -0.593,1.208 -1.472,0.879 -1.91,0 0,0 -2.088,3.845 -5.163,3.185 C 2.307,5.822 -0.439,4.174 0,0" /></g><g
           transform="translate(323.165,438.8882)"
           id="g554"><path
             id="path556"
             style="fill:#753519;fill-opacity:1;fill-rule:nonzero;stroke:none"
             d="m 0,0 c -0.988,1.318 -0.33,4.723 -1.612,6.701 -1.284,1.977 -3.991,1.318 -3.991,1.318 0,0 -0.659,2.965 -3.185,2.526 -2.526,-0.439 -4.833,-3.844 -4.833,-3.844 0,0 -1.318,0.439 -3.734,0 -2.417,-0.44 -5.164,-2.088 -4.174,-4.504 0.988,-2.417 4.722,-2.28 4.722,-2.28 0,0 -0.988,-4.75 2.481,-3.432 0.101,0.039 0.189,0.093 0.285,0.139 -0.15,0.569 -0.23,0.975 -0.239,1.069 -0.316,3.004 1.021,4.695 2.939,5.656 0.748,0.374 1.581,0.64 2.444,0.825 3.075,0.659 5.163,-3.185 5.163,-3.185 0.439,0.878 1.317,1.208 1.91,0 0.593,-1.209 -0.248,-3.296 -0.248,-3.296 0.369,-1.384 0.26,-2.556 0.09,-3.346 0.124,-0.023 0.253,-0.059 0.37,-0.059 3.22,0 2.6,4.394 1.612,5.712" /></g><g
           transform="translate(309.124,435.5117)"
           id="g558"><path
             id="path560"
             style="fill:#753519;fill-opacity:1;fill-rule:nonzero;stroke:none"
             d="m 0,0 c 0,0 3.784,1.6 4.053,7.263 0,0 1.164,-3.531 6.254,-2.898 0,0 -0.402,4.716 -4.594,5.898 C 1.521,11.445 -1.548,4.454 -1.548,4.454 -1.548,4.454 -2.083,1.659 0,0" /></g><g
           transform="translate(316.1064,349.8701)"
           id="g562"><path
             id="path564"
             style="fill:#ffffff;fill-opacity:1;fill-rule:nonzero;stroke:none"
             d="m 0,0 c -0.793,6.656 -2.107,13.298 -2.121,13.365 l 0.551,0.11 C -1.557,13.408 -0.238,6.744 0.558,0.067 Z" /></g><g
           transform="translate(110.8687,139.3545)"
           id="g566"><path
             id="path568"
             style="fill:#ff9a5c;fill-opacity:1;fill-rule:nonzero;stroke:none"
             d="m 0,0 c 0,0 1.173,-0.022 1.825,-0.137 0.652,-0.114 1.072,-1.039 1.257,-1.408 0.185,-0.37 -0.628,-0.333 -1.035,0.185 -0.407,0.517 -0.492,0.646 -0.492,0.646 0,0 -0.618,0.13 -0.969,0 -0.351,-0.129 -0.779,0.286 -0.85,0.577 C -0.336,0.155 0,0 0,0" /></g><g
           transform="translate(103.1597,132.5752)"
           id="g570"><path
             id="path572"
             style="fill:#ff9a5c;fill-opacity:1;fill-rule:nonzero;stroke:none"
             d="m 0,0 c 1.033,-1.114 2.371,-1.702 2.371,-1.702 0.099,-0.851 0.589,-1.211 0.865,-1.179 0.276,0.032 0.281,1.311 0.281,1.311 0.245,-0.59 1.212,-1.179 1.342,-0.82 0.131,0.361 0,0.951 0,0.951 0,0 0.393,-0.525 0.688,-0.525 0.294,0 0.655,0.262 0.523,0.917 C 5.939,-0.393 5.547,0.59 5.154,1.113 4.761,1.638 4.532,2.161 3.681,2.357 2.83,2.554 2.535,2.423 1.553,2.521 c -0.982,0.098 -2.455,0 -2.455,0 z" /></g><g
           transform="translate(103.4985,134.6113)"
           id="g574"><path
             id="path576"
             style="fill:#ff9a5c;fill-opacity:1;fill-rule:nonzero;stroke:none"
             d="m 0,0 v 0.528 c 0,0 2.392,0.725 2.867,0.558 C 3.342,0.919 3.79,0.251 4.052,0 4.314,-0.251 0,0 0,0" /></g><g
           transform="translate(171.5059,72.1416)"
           id="g578"><path
             id="path580"
             style="fill:#0e1a34;fill-opacity:1;fill-rule:nonzero;stroke:none"
             d="m 0,0 c 0,-5.687 -4.609,-10.295 -10.295,-10.295 -5.686,0 -10.295,4.608 -10.295,10.295 0,5.686 4.609,10.295 10.295,10.295 C -4.609,10.295 0,5.686 0,0" /></g><g
           transform="translate(161.2104,76.1777)"
           id="g582"><path
             id="path584"
             style="fill:#ffffff;fill-opacity:1;fill-rule:nonzero;stroke:none"
             d="m 0,0 c -2.226,0 -4.037,-1.811 -4.037,-4.036 0,-2.227 1.811,-4.037 4.037,-4.037 2.226,0 4.037,1.81 4.037,4.037 C 4.037,-1.811 2.226,0 0,0 m 0,-8.636 c -2.536,0 -4.599,2.064 -4.599,4.6 0,2.535 2.063,4.598 4.599,4.598 2.536,0 4.599,-2.063 4.599,-4.598 0,-2.536 -2.063,-4.6 -4.599,-4.6" /></g><g
           transform="translate(284.7119,239.7207)"
           id="g586"><path
             id="path588"
             style="fill:#108f6e;fill-opacity:1;fill-rule:nonzero;stroke:none"
             d="m 0,0 c 0,0 -2.328,-2.107 -3.957,-4.429 -1.63,-2.321 2.793,-1.157 3.957,-1.39 1.164,-0.233 1.396,-1.913 3.725,-1.306 2.327,0.607 0.232,-0.091 2.327,0.607 2.094,0.699 2.794,0.466 4.888,0.699 2.095,0.233 1.683,1.755 2.82,3.089 1.137,1.334 1.19,2.498 0,3.662 -1.191,1.164 -1.889,-2.328 -4.216,0 C 7.216,3.259 7.294,5.259 5.16,4.259 3.025,3.259 3.58,2.907 2.604,2.035 1.629,1.164 0,0 0,0" /></g><g
           transform="translate(360.4561,217.6963)"
           id="g590"><path
             id="path592"
             style="fill:#91b31e;fill-opacity:1;fill-rule:nonzero;stroke:none"
             d="m 0,0 c 0,0 -6.786,-0.466 -12.527,5.353 0,0 -3.802,-3.103 -5.975,-7.138 0,0 4.189,-4.888 8.923,-7.137 0,0 -2.144,-18.032 -1.009,-24.285 0,0 7.525,-1.397 12.181,-1.706 4.654,-0.311 10.395,1.163 10.395,1.163 l -1.318,22.268 1.318,-1.552 c 0,0 4.811,4.422 4.888,6.827 0,0 -6.859,6.439 -9.83,7.448 C 4.075,2.25 2.891,-0.232 0,0" /></g><g
           transform="translate(365.7187,153.6475)"
           id="g594"><path
             id="path596"
             style="fill:#ffffff;fill-opacity:1;fill-rule:nonzero;stroke:none"
             d="m 0,0 -0.562,0.009 c 0.009,0.507 0.208,12.42 0.561,14.065 0.345,1.614 2.414,12.856 2.436,12.969 L 2.987,26.942 C 2.967,26.828 0.895,15.578 0.548,13.955 0.206,12.365 0.002,0.122 0,0" /></g><g
           transform="translate(276.7373,65.4033)"
           id="g598"><path
             id="path600"
             style="fill:#ffd200;fill-opacity:1;fill-rule:nonzero;stroke:none"
             d="m 0,0 h -11.482 c 0,0 -6.29,42.087 0,50.977 C -5.193,59.867 7.988,56.839 0,0" /></g><g
           transform="translate(261.5273,65.4033)"
           id="g602"><path
             id="path604"
             style="fill:#ffd200;fill-opacity:1;fill-rule:nonzero;stroke:none"
             d="m 0,0 h -10.249 c 0,0 -13.445,4.193 -19.884,14.443 -6.439,10.249 3.112,14.595 10.1,10.209 C -13.044,20.267 0,0 0,0" /></g><g
           transform="translate(265.2549,65.4033)"
           id="g606"><path
             id="path608"
             style="fill:#91b31e;fill-opacity:1;fill-rule:nonzero;stroke:none"
             d="m 0,0 h -6.29 c 0,0 -14.908,14.722 -16.772,32.52 -1.863,17.796 12.346,12.017 18.636,-3.612 C 1.863,13.278 2.563,0 2.563,0 Z" /></g><g
           transform="translate(280.4648,65.4033)"
           id="g610"><path
             id="path612"
             style="fill:#ffd200;fill-opacity:1;fill-rule:nonzero;stroke:none"
             d="m 0,0 h 10.249 c 0,0 13.445,4.193 19.884,14.443 6.439,10.249 -3.112,14.595 -10.1,10.209 C 13.045,20.267 0,0 0,0" /></g><g
           transform="translate(276.7373,65.4033)"
           id="g614"><path
             id="path616"
             style="fill:#91b31e;fill-opacity:1;fill-rule:nonzero;stroke:none"
             d="m 0,0 h 6.29 c 0,0 14.908,14.722 16.772,32.52 C 24.925,50.316 10.716,44.537 4.426,28.908 -1.863,13.278 -2.563,0 -2.563,0 Z" /></g><g
           transform="translate(312.0498,252.1616)"
           id="g618"><path
             id="path620"
             style="fill:#ffffff;fill-opacity:1;fill-rule:nonzero;stroke:none"
             d="M 0,0 0.609,1.243 1.4,0.107 2.643,-0.502 1.507,-1.293 0.898,-2.536 0.107,-1.4 -1.136,-0.791 Z" /></g><g
           transform="translate(333.8613,247.0166)"
           id="g622"><path
             id="path624"
             style="fill:#ffffff;fill-opacity:1;fill-rule:nonzero;stroke:none"
             d="M 0,0 0.371,0.756 0.852,0.064 1.608,-0.306 0.917,-0.787 0.547,-1.543 0.065,-0.853 -0.69,-0.481 Z" /></g><g
           transform="translate(337.3799,257.1948)"
           id="g626"><path
             id="path628"
             style="fill:#ffffff;fill-opacity:1;fill-rule:nonzero;stroke:none"
             d="m 0,0 0.37,0.756 0.482,-0.691 0.755,-0.37 -0.69,-0.481 -0.371,-0.756 -0.481,0.69 -0.756,0.371 z" /></g><g
           transform="translate(306.7891,260.9951)"
           id="g630"><path
             id="path632"
             style="fill:#ffffff;fill-opacity:1;fill-rule:nonzero;stroke:none"
             d="m 0,0 0.37,0.756 0.482,-0.691 0.755,-0.37 -0.69,-0.481 -0.371,-0.756 -0.482,0.69 -0.755,0.371 z" /></g><g
           transform="translate(311.3545,233.0986)"
           id="g634"><path
             id="path636"
             style="fill:#ffffff;fill-opacity:1;fill-rule:nonzero;stroke:none"
             d="m 0,0 0.37,0.756 0.482,-0.692 0.755,-0.37 -0.69,-0.481 -0.37,-0.756 -0.482,0.69 -0.756,0.372 z" /></g><g
           transform="translate(233.9604,403.8208)"
           id="g638"><path
             id="path640"
             style="fill:#ffffff;fill-opacity:1;fill-rule:nonzero;stroke:none"
             d="M 0,0 -0.228,0.164 C -0.006,0.475 0.12,0.641 0.12,0.641 L 0.344,0.471 C 0.343,0.47 0.218,0.306 0,0" /></g><g
           transform="translate(232.626,401.8296)"
           id="g642"><path
             id="path644"
             style="fill:#ffffff;fill-opacity:1;fill-rule:nonzero;stroke:none"
             d="m 0,0 -0.237,0.15 c 0.232,0.366 0.448,0.695 0.642,0.986 L 0.639,0.98 C 0.446,0.69 0.231,0.363 0,0 m -1.21,-2.002 -0.244,0.141 c 0.204,0.355 0.404,0.693 0.598,1.012 l 0.24,-0.145 C -0.808,-1.312 -1.007,-1.648 -1.21,-2.002 m -1.123,-2.052 -0.25,0.13 c 0.186,0.357 0.371,0.703 0.554,1.037 l 0.246,-0.135 c -0.182,-0.332 -0.366,-0.677 -0.55,-1.032 m -1.033,-2.098 -0.255,0.117 c 0.167,0.362 0.336,0.716 0.507,1.062 l 0.252,-0.124 C -3.031,-5.44 -3.2,-5.792 -3.366,-6.152 m -0.93,-2.147 -0.26,0.106 c 0.148,0.368 0.3,0.729 0.454,1.085 l 0.258,-0.112 c -0.153,-0.354 -0.304,-0.713 -0.452,-1.079 m -0.815,-2.189 -0.265,0.09 c 0.126,0.374 0.258,0.743 0.394,1.108 l 0.263,-0.098 c -0.135,-0.362 -0.266,-0.729 -0.392,-1.1 m -0.683,-2.234 -0.271,0.074 c 0.103,0.38 0.211,0.757 0.326,1.13 L -5.47,-11.6 c -0.113,-0.37 -0.222,-0.745 -0.324,-1.122 m -0.341,-1.376 -0.274,0.061 c 0.018,0.082 0.037,0.165 0.056,0.248 l 0.273,-0.065 c -0.019,-0.081 -0.037,-0.162 -0.055,-0.244" /></g><g
           transform="translate(226.2485,386.5464)"
           id="g646"><path
             id="path648"
             style="fill:#ffffff;fill-opacity:1;fill-rule:nonzero;stroke:none"
             d="m 0,0 -0.277,0.05 c 0.037,0.195 0.074,0.39 0.113,0.584 L 0.112,0.578 C 0.072,0.386 0.035,0.192 0,0" /></g><g
           transform="translate(236.0317,403.1133)"
           id="g650"><path
             id="path652"
             style="fill:#ffffff;fill-opacity:1;fill-rule:nonzero;stroke:none"
             d="m 0,0 -0.276,0.052 c 0.07,0.375 0.114,0.579 0.114,0.579 L 0.113,0.573 C 0.112,0.572 0.07,0.371 0,0" /></g><g
           transform="translate(235.6343,400.7476)"
           id="g654"><path
             id="path656"
             style="fill:#ffffff;fill-opacity:1;fill-rule:nonzero;stroke:none"
             d="m 0,0 -0.278,0.042 c 0.065,0.427 0.127,0.815 0.185,1.161 L 0.183,1.156 C 0.126,0.812 0.064,0.425 0,0 m -0.313,-2.319 -0.279,0.032 c 0.048,0.408 0.098,0.797 0.148,1.166 l 0.279,-0.037 c -0.05,-0.369 -0.1,-0.757 -0.148,-1.161 m -0.244,-2.328 -0.279,0.024 c 0.035,0.4 0.073,0.79 0.112,1.17 l 0.28,-0.03 C -0.483,-3.86 -0.521,-4.25 -0.557,-4.647 m -0.166,-2.336 -0.281,0.015 c 0.022,0.397 0.047,0.788 0.074,1.173 l 0.28,-0.02 c -0.027,-0.383 -0.051,-0.773 -0.073,-1.168 m -0.083,-2.337 -0.281,0.005 c 0.006,0.394 0.016,0.785 0.029,1.173 l 0.282,-0.009 C -0.79,-8.538 -0.8,-8.928 -0.806,-9.32 m -0.265,-2.347 c -0.011,0.393 -0.018,0.785 -0.021,1.175 l 0.281,0.003 c 0.002,-0.389 0.01,-0.779 0.021,-1.17 z" /></g><g
           transform="translate(234.7148,386.5586)"
           id="g658"><path
             id="path660"
             style="fill:#ffffff;fill-opacity:1;fill-rule:nonzero;stroke:none"
             d="m 0,0 c -0.018,0.197 -0.034,0.394 -0.049,0.591 l 0.28,0.021 C 0.246,0.416 0.262,0.221 0.28,0.025 Z" /></g><g
           transform="translate(234.3159,401.686)"
           id="g662"><path
             id="path664"
             style="fill:#ffffff;fill-opacity:1;fill-rule:nonzero;stroke:none"
             d="m 0,0 -0.254,0.118 c 0.3,0.652 0.488,1.006 0.496,1.021 L 0.49,1.007 C 0.488,1.003 0.297,0.644 0,0 m -0.878,-2.063 -0.262,0.104 c 0.15,0.379 0.294,0.728 0.428,1.044 l 0.259,-0.11 c -0.134,-0.314 -0.276,-0.661 -0.425,-1.038 m -0.771,-2.105 -0.267,0.089 c 0.126,0.371 0.252,0.726 0.376,1.064 l 0.263,-0.096 C -1.399,-3.447 -1.524,-3.8 -1.649,-4.168 m -0.666,-2.142 -0.27,0.078 c 0.105,0.37 0.213,0.731 0.322,1.08 l 0.268,-0.083 C -2.103,-5.583 -2.21,-5.941 -2.315,-6.31 m -0.56,-2.169 -0.274,0.062 c 0.086,0.373 0.176,0.739 0.268,1.096 l 0.272,-0.071 C -2.701,-7.747 -2.79,-8.11 -2.875,-8.479 m -0.447,-2.198 -0.277,0.05 c 0.067,0.375 0.137,0.744 0.21,1.107 l 0.276,-0.055 c -0.074,-0.362 -0.143,-0.729 -0.209,-1.102 m -0.324,-2.216 -0.279,0.033 c 0.044,0.377 0.093,0.75 0.147,1.118 l 0.278,-0.04 c -0.053,-0.366 -0.102,-0.736 -0.146,-1.111 m -0.189,-2.231 -0.281,0.014 c 0.02,0.38 0.046,0.755 0.078,1.127 l 0.28,-0.024 c -0.032,-0.369 -0.057,-0.741 -0.077,-1.117 m -0.327,-2.241 c -0.003,0.151 -0.004,0.301 -0.004,0.45 0,0.228 0.002,0.454 0.007,0.678 l 0.281,-0.005 c -0.004,-0.223 -0.007,-0.447 -0.007,-0.673 0,-0.148 10e-4,-0.297 0.004,-0.446 z m 0.07,-1.706 c -0.014,0.193 -0.025,0.385 -0.034,0.578 l 0.28,0.013 c 0.01,-0.19 0.021,-0.381 0.034,-0.572 z" /></g><g
           transform="translate(92.8359,147.5264)"
           id="g666"><path
             id="path668"
             style="fill:#ffd200;fill-opacity:1;fill-rule:nonzero;stroke:none"
             d="M 0,0 C -0.121,0.074 -0.248,0.139 -0.367,0.215 -2.358,1.49 -4.203,2.914 -6.382,3.866 -6.475,3.906 -6.545,3.958 -6.627,4.003 -7.316,2.891 -7.892,1.836 -8.258,0.961 c 0,0 3.154,-2.852 5.339,-4.065 0,0 1.344,1.118 2.438,1.848 C -0.349,-0.824 -0.186,-0.408 0,0" /></g></g></g></g></svg>