<svg width="1074" height="330" viewBox="0 0 1074 330" fill="none" xmlns="http://www.w3.org/2000/svg">
<path d="M128.243 131.66H132.243V127.66H128.243V131.66ZM88.1674 131.66H84.1674V135.66H88.1674V131.66ZM88.1674 107.236V103.236H84.1674V107.236H88.1674ZM193.259 107.236H197.259V103.236H193.259V107.236ZM193.259 131.66V135.66H197.259V131.66H193.259ZM153.183 131.66V127.66H149.183V131.66H153.183ZM153.183 234V238H157.183V234H153.183ZM128.243 234H124.243V238H128.243V234ZM128.243 127.66H88.1674V135.66H128.243V127.66ZM92.1674 131.66V107.236H84.1674V131.66H92.1674ZM88.1674 111.236H193.259V103.236H88.1674V111.236ZM189.259 107.236V131.66H197.259V107.236H189.259ZM193.259 127.66H153.183V135.66H193.259V127.66ZM149.183 131.66V234H157.183V131.66H149.183ZM153.183 230H128.243V238H153.183V230ZM132.243 234V131.66H124.243V234H132.243ZM243.624 107.236V103.236H240.977L239.943 105.672L243.624 107.236ZM267.876 107.236L271.558 105.672L270.523 103.236H267.876V107.236ZM321.712 234V238H327.757L325.394 232.436L321.712 234ZM294.192 234L290.504 235.548L291.533 238H294.192V234ZM280.26 200.804L283.949 199.256L282.92 196.804H280.26V200.804ZM231.24 200.804V196.804H228.581L227.552 199.256L231.24 200.804ZM217.308 234V238H219.968L220.997 235.548L217.308 234ZM189.788 234L186.107 232.436L183.744 238H189.788V234ZM270.112 176.724V180.724H276.131L273.8 175.175L270.112 176.724ZM255.664 142.324L259.352 140.775L255.642 131.942L251.97 140.791L255.664 142.324ZM241.388 176.724L237.694 175.191L235.398 180.724H241.388V176.724ZM243.624 111.236H267.876V103.236H243.624V111.236ZM264.195 108.8L318.031 235.564L325.394 232.436L271.558 105.672L264.195 108.8ZM321.712 230H294.192V238H321.712V230ZM297.881 232.452L283.949 199.256L276.572 202.352L290.504 235.548L297.881 232.452ZM280.26 196.804H231.24V204.804H280.26V196.804ZM227.552 199.256L213.62 232.452L220.997 235.548L234.929 202.352L227.552 199.256ZM217.308 230H189.788V238H217.308V230ZM193.47 235.564L247.306 108.8L239.943 105.672L186.107 232.436L193.47 235.564ZM273.8 175.175L259.352 140.775L251.977 143.873L266.425 178.273L273.8 175.175ZM251.97 140.791L237.694 175.191L245.083 178.257L259.359 143.857L251.97 140.791ZM241.388 180.724H270.112V172.724H241.388V180.724ZM426.348 227.464L429.176 224.636L427.075 222.534L424.456 223.939L426.348 227.464ZM348.088 216.112L350.994 213.364L350.988 213.358L350.982 213.351L348.088 216.112ZM348.26 124.436L351.128 127.224L351.141 127.211L351.153 127.198L348.26 124.436ZM441.14 124.436L438.246 127.198L438.258 127.211L438.271 127.224L441.14 124.436ZM445.44 211.124L442.298 208.649L440.098 211.44L442.611 213.952L445.44 211.124ZM456.792 222.476L459.62 225.304L462.448 222.476L459.62 219.648L456.792 222.476ZM439.076 240.192L436.247 243.02L439.076 245.849L441.904 243.02L439.076 240.192ZM407.428 208.716L408.446 212.584L415.133 210.824L410.273 205.905L407.428 208.716ZM393.496 194.612L390.667 191.784L387.856 194.595L390.65 197.423L393.496 194.612ZM411.212 176.896L414.04 174.068L411.212 171.239L408.383 174.068L411.212 176.896ZM427.724 193.408L424.895 196.236L428.405 199.746L431.088 195.571L427.724 193.408ZM423.424 141.636L426.319 138.876L426.316 138.873L423.424 141.636ZM365.976 141.636L368.871 144.396L368.88 144.386L368.89 144.376L365.976 141.636ZM365.976 198.912L368.89 196.172L368.88 196.162L368.871 196.152L365.976 198.912ZM424.456 223.939C415.69 228.643 405.8 231.032 394.7 231.032V239.032C406.991 239.032 418.2 236.375 428.239 230.989L424.456 223.939ZM394.7 231.032C376.524 231.032 362.082 225.091 350.994 213.364L345.181 218.86C357.944 232.359 374.576 239.032 394.7 239.032V231.032ZM350.982 213.351C339.926 201.758 334.372 187.516 334.372 170.36H326.372C326.372 189.439 332.628 205.698 345.193 218.873L350.982 213.351ZM334.372 170.36C334.372 152.972 339.984 138.689 351.128 127.224L345.391 121.648C332.684 134.721 326.372 151.055 326.372 170.36H334.372ZM351.153 127.198C362.37 115.447 376.769 109.516 394.7 109.516V101.516C374.79 101.516 358.229 108.198 345.366 121.674L351.153 127.198ZM394.7 109.516C412.63 109.516 427.029 115.447 438.246 127.198L444.033 121.674C431.17 108.198 414.609 101.516 394.7 101.516V109.516ZM438.271 127.224C449.288 138.562 454.856 152.838 454.856 170.36H462.856C462.856 150.96 456.613 134.62 444.008 121.648L438.271 127.224ZM454.856 170.36C454.856 185.377 450.632 198.07 442.298 208.649L448.582 213.599C458.135 201.474 462.856 186.991 462.856 170.36H454.856ZM442.611 213.952L453.963 225.304L459.62 219.648L448.268 208.296L442.611 213.952ZM453.963 219.648L436.247 237.364L441.904 243.02L459.62 225.304L453.963 219.648ZM441.904 237.364L429.176 224.636L423.519 230.292L436.247 243.02L441.904 237.364ZM394.7 214.436C399.201 214.436 403.786 213.81 408.446 212.584L406.41 204.848C402.354 205.915 398.454 206.436 394.7 206.436V214.436ZM410.273 205.905L396.341 191.801L390.65 197.423L404.582 211.527L410.273 205.905ZM396.324 197.44L414.04 179.724L408.383 174.068L390.667 191.784L396.324 197.44ZM408.383 179.724L424.895 196.236L430.552 190.58L414.04 174.068L408.383 179.724ZM431.088 195.571C435.698 188.4 437.916 179.937 437.916 170.36H429.916C429.916 178.671 428.005 185.573 424.359 191.245L431.088 195.571ZM437.916 170.36C437.916 157.703 434.139 147.081 426.319 138.876L420.528 144.396C426.698 150.869 429.916 159.395 429.916 170.36H437.916ZM426.316 138.873C418.134 130.308 407.468 126.112 394.7 126.112V134.112C405.552 134.112 414.035 137.599 420.531 144.399L426.316 138.873ZM394.7 126.112C381.83 126.112 371.144 130.3 363.062 138.896L368.89 144.376C375.255 137.606 383.719 134.112 394.7 134.112V126.112ZM363.08 138.876C355.26 147.081 351.484 157.703 351.484 170.36H359.484C359.484 159.395 362.702 150.869 368.871 144.396L363.08 138.876ZM351.484 170.36C351.484 182.914 355.267 193.475 363.08 201.672L368.871 196.152C362.694 189.672 359.484 181.198 359.484 170.36H351.484ZM363.062 201.652C371.144 210.248 381.83 214.436 394.7 214.436V206.436C383.719 206.436 375.255 202.942 368.89 196.172L363.062 201.652ZM482.061 107.236V103.236H478.061V107.236H482.061ZM506.141 107.236L509.362 104.865L508.163 103.236H506.141V107.236ZM568.061 191.344L564.84 193.715L572.061 203.524V191.344H568.061ZM568.061 107.236V103.236H564.061V107.236H568.061ZM593.173 107.236H597.173V103.236H593.173V107.236ZM593.173 234V238H597.173V234H593.173ZM568.921 234L565.692 236.361L566.89 238H568.921V234ZM507.173 149.548L510.402 147.187L503.173 137.3V149.548H507.173ZM507.173 234V238H511.173V234H507.173ZM482.061 234H478.061V238H482.061V234ZM482.061 111.236H506.141V103.236H482.061V111.236ZM502.92 109.607L564.84 193.715L571.282 188.973L509.362 104.865L502.92 109.607ZM572.061 191.344V107.236H564.061V191.344H572.061ZM568.061 111.236H593.173V103.236H568.061V111.236ZM589.173 107.236V234H597.173V107.236H589.173ZM593.173 230H568.921V238H593.173V230ZM572.15 231.639L510.402 147.187L503.944 151.909L565.692 236.361L572.15 231.639ZM503.173 149.548V234H511.173V149.548H503.173ZM507.173 230H482.061V238H507.173V230ZM486.061 234V107.236H478.061V234H486.061ZM621.495 107.236V103.236H617.495V107.236H621.495ZM717.987 107.236H721.987V103.236H717.987V107.236ZM717.987 131.66V135.66H721.987V131.66H717.987ZM646.607 131.66V127.66H642.607V131.66H646.607ZM646.607 158.148H642.607V162.148H646.607V158.148ZM698.379 158.148H702.379V154.148H698.379V158.148ZM698.379 182.916V186.916H702.379V182.916H698.379ZM646.607 182.916V178.916H642.607V182.916H646.607ZM646.607 209.404H642.607V213.404H646.607V209.404ZM717.987 209.404H721.987V205.404H717.987V209.404ZM717.987 234V238H721.987V234H717.987ZM621.495 234H617.495V238H621.495V234ZM621.495 111.236H717.987V103.236H621.495V111.236ZM713.987 107.236V131.66H721.987V107.236H713.987ZM717.987 127.66H646.607V135.66H717.987V127.66ZM642.607 131.66V158.148H650.607V131.66H642.607ZM646.607 162.148H698.379V154.148H646.607V162.148ZM694.379 158.148V182.916H702.379V158.148H694.379ZM698.379 178.916H646.607V186.916H698.379V178.916ZM642.607 182.916V209.404H650.607V182.916H642.607ZM646.607 213.404H717.987V205.404H646.607V213.404ZM713.987 209.404V234H721.987V209.404H713.987ZM717.987 230H621.495V238H717.987V230ZM625.495 234V107.236H617.495V234H625.495ZM739.429 107.236V103.236H735.429V107.236H739.429ZM835.921 107.236H839.921V103.236H835.921V107.236ZM835.921 131.66V135.66H839.921V131.66H835.921ZM764.541 131.66V127.66H760.541V131.66H764.541ZM764.541 158.148H760.541V162.148H764.541V158.148ZM816.313 158.148H820.313V154.148H816.313V158.148ZM816.313 182.916V186.916H820.313V182.916H816.313ZM764.541 182.916V178.916H760.541V182.916H764.541ZM764.541 209.404H760.541V213.404H764.541V209.404ZM835.921 209.404H839.921V205.404H835.921V209.404ZM835.921 234V238H839.921V234H835.921ZM739.429 234H735.429V238H739.429V234ZM739.429 111.236H835.921V103.236H739.429V111.236ZM831.921 107.236V131.66H839.921V107.236H831.921ZM835.921 127.66H764.541V135.66H835.921V127.66ZM760.541 131.66V158.148H768.541V131.66H760.541ZM764.541 162.148H816.313V154.148H764.541V162.148ZM812.313 158.148V182.916H820.313V158.148H812.313ZM816.313 178.916H764.541V186.916H816.313V178.916ZM760.541 182.916V209.404H768.541V182.916H760.541ZM764.541 213.404H835.921V205.404H764.541V213.404ZM831.921 209.404V234H839.921V209.404H831.921ZM835.921 230H739.429V238H835.921V230ZM743.429 234V107.236H735.429V234H743.429ZM946.459 227.464L949.288 224.636L947.187 222.534L944.568 223.939L946.459 227.464ZM868.199 216.112L871.106 213.364L871.1 213.358L871.094 213.351L868.199 216.112ZM868.371 124.436L871.24 127.224L871.252 127.211L871.265 127.198L868.371 124.436ZM961.251 124.436L958.358 127.198L958.37 127.211L958.383 127.224L961.251 124.436ZM965.551 211.124L962.409 208.649L960.21 211.44L962.723 213.952L965.551 211.124ZM976.903 222.476L979.732 225.304L982.56 222.476L979.732 219.648L976.903 222.476ZM959.187 240.192L956.359 243.02L959.187 245.849L962.016 243.02L959.187 240.192ZM927.539 208.716L928.557 212.584L935.245 210.824L930.385 205.905L927.539 208.716ZM913.607 194.612L910.779 191.784L907.968 194.595L910.762 197.423L913.607 194.612ZM931.323 176.896L934.152 174.068L931.323 171.239L928.495 174.068L931.323 176.896ZM947.835 193.408L945.007 196.236L948.516 199.746L951.2 195.571L947.835 193.408ZM943.535 141.636L946.431 138.876L946.428 138.873L943.535 141.636ZM886.087 141.636L888.983 144.396L888.992 144.386L889.001 144.376L886.087 141.636ZM886.087 198.912L889.001 196.172L888.992 196.162L888.983 196.152L886.087 198.912ZM944.568 223.939C935.802 228.643 925.912 231.032 914.811 231.032V239.032C927.103 239.032 938.312 236.375 948.351 230.989L944.568 223.939ZM914.811 231.032C896.636 231.032 882.194 225.091 871.106 213.364L865.293 218.86C878.056 232.359 894.688 239.032 914.811 239.032V231.032ZM871.094 213.351C860.038 201.758 854.483 187.516 854.483 170.36H846.483C846.483 189.439 852.74 205.698 865.305 218.873L871.094 213.351ZM854.483 170.36C854.483 152.972 860.096 138.689 871.24 127.224L865.503 121.648C852.796 134.721 846.483 151.055 846.483 170.36H854.483ZM871.265 127.198C882.482 115.447 896.881 109.516 914.811 109.516V101.516C894.902 101.516 878.341 108.198 865.478 121.674L871.265 127.198ZM914.811 109.516C932.742 109.516 947.141 115.447 958.358 127.198L964.145 121.674C951.282 108.198 934.721 101.516 914.811 101.516V109.516ZM958.383 127.224C969.4 138.562 974.967 152.838 974.967 170.36H982.967C982.967 150.96 976.724 134.62 964.12 121.648L958.383 127.224ZM974.967 170.36C974.967 185.377 970.744 198.07 962.409 208.649L968.693 213.599C978.247 201.474 982.967 186.991 982.967 170.36H974.967ZM962.723 213.952L974.075 225.304L979.732 219.648L968.38 208.296L962.723 213.952ZM974.075 219.648L956.359 237.364L962.016 243.02L979.732 225.304L974.075 219.648ZM962.016 237.364L949.288 224.636L943.631 230.292L956.359 243.02L962.016 237.364ZM914.811 214.436C919.313 214.436 923.898 213.81 928.557 212.584L926.521 204.848C922.466 205.915 918.566 206.436 914.811 206.436V214.436ZM930.385 205.905L916.453 191.801L910.762 197.423L924.694 211.527L930.385 205.905ZM916.436 197.44L934.152 179.724L928.495 174.068L910.779 191.784L916.436 197.44ZM928.495 179.724L945.007 196.236L950.664 190.58L934.152 174.068L928.495 179.724ZM951.2 195.571C955.81 188.4 958.027 179.937 958.027 170.36H950.027C950.027 178.671 948.117 185.573 944.471 191.245L951.2 195.571ZM958.027 170.36C958.027 157.703 954.251 147.081 946.431 138.876L940.64 144.396C946.809 150.869 950.027 159.395 950.027 170.36H958.027ZM946.428 138.873C938.246 130.308 927.58 126.112 914.811 126.112V134.112C925.664 134.112 934.147 137.599 940.643 144.399L946.428 138.873ZM914.811 126.112C901.941 126.112 891.256 130.3 883.173 138.896L889.001 144.376C895.367 137.606 903.831 134.112 914.811 134.112V126.112ZM883.192 138.876C875.372 147.081 871.595 157.703 871.595 170.36H879.595C879.595 159.395 882.813 150.869 888.983 144.396L883.192 138.876ZM871.595 170.36C871.595 182.914 875.379 193.475 883.192 201.672L888.983 196.152C882.806 189.672 879.595 181.198 879.595 170.36H871.595ZM883.173 201.652C891.256 210.248 901.941 214.436 914.811 214.436V206.436C903.831 206.436 895.367 202.942 889.001 196.172L883.173 201.652Z" fill="url(#paint0_linear_454_3)"/>
<path d="M128.243 131.66H132.243V127.66H128.243V131.66ZM88.1674 131.66H84.1674V135.66H88.1674V131.66ZM88.1674 107.236V103.236H84.1674V107.236H88.1674ZM193.259 107.236H197.259V103.236H193.259V107.236ZM193.259 131.66V135.66H197.259V131.66H193.259ZM153.183 131.66V127.66H149.183V131.66H153.183ZM153.183 234V238H157.183V234H153.183ZM128.243 234H124.243V238H128.243V234ZM128.243 127.66H88.1674V135.66H128.243V127.66ZM92.1674 131.66V107.236H84.1674V131.66H92.1674ZM88.1674 111.236H193.259V103.236H88.1674V111.236ZM189.259 107.236V131.66H197.259V107.236H189.259ZM193.259 127.66H153.183V135.66H193.259V127.66ZM149.183 131.66V234H157.183V131.66H149.183ZM153.183 230H128.243V238H153.183V230ZM132.243 234V131.66H124.243V234H132.243ZM243.624 107.236V103.236H240.977L239.943 105.672L243.624 107.236ZM267.876 107.236L271.558 105.672L270.523 103.236H267.876V107.236ZM321.712 234V238H327.757L325.394 232.436L321.712 234ZM294.192 234L290.504 235.548L291.533 238H294.192V234ZM280.26 200.804L283.949 199.256L282.92 196.804H280.26V200.804ZM231.24 200.804V196.804H228.581L227.552 199.256L231.24 200.804ZM217.308 234V238H219.968L220.997 235.548L217.308 234ZM189.788 234L186.107 232.436L183.744 238H189.788V234ZM270.112 176.724V180.724H276.131L273.8 175.175L270.112 176.724ZM255.664 142.324L259.352 140.775L255.642 131.942L251.97 140.791L255.664 142.324ZM241.388 176.724L237.694 175.191L235.398 180.724H241.388V176.724ZM243.624 111.236H267.876V103.236H243.624V111.236ZM264.195 108.8L318.031 235.564L325.394 232.436L271.558 105.672L264.195 108.8ZM321.712 230H294.192V238H321.712V230ZM297.881 232.452L283.949 199.256L276.572 202.352L290.504 235.548L297.881 232.452ZM280.26 196.804H231.24V204.804H280.26V196.804ZM227.552 199.256L213.62 232.452L220.997 235.548L234.929 202.352L227.552 199.256ZM217.308 230H189.788V238H217.308V230ZM193.47 235.564L247.306 108.8L239.943 105.672L186.107 232.436L193.47 235.564ZM273.8 175.175L259.352 140.775L251.977 143.873L266.425 178.273L273.8 175.175ZM251.97 140.791L237.694 175.191L245.083 178.257L259.359 143.857L251.97 140.791ZM241.388 180.724H270.112V172.724H241.388V180.724ZM426.348 227.464L429.176 224.636L427.075 222.534L424.456 223.939L426.348 227.464ZM348.088 216.112L350.994 213.364L350.988 213.358L350.982 213.351L348.088 216.112ZM348.26 124.436L351.128 127.224L351.141 127.211L351.153 127.198L348.26 124.436ZM441.14 124.436L438.246 127.198L438.258 127.211L438.271 127.224L441.14 124.436ZM445.44 211.124L442.298 208.649L440.098 211.44L442.611 213.952L445.44 211.124ZM456.792 222.476L459.62 225.304L462.448 222.476L459.62 219.648L456.792 222.476ZM439.076 240.192L436.247 243.02L439.076 245.849L441.904 243.02L439.076 240.192ZM407.428 208.716L408.446 212.584L415.133 210.824L410.273 205.905L407.428 208.716ZM393.496 194.612L390.667 191.784L387.856 194.595L390.65 197.423L393.496 194.612ZM411.212 176.896L414.04 174.068L411.212 171.239L408.383 174.068L411.212 176.896ZM427.724 193.408L424.895 196.236L428.405 199.746L431.088 195.571L427.724 193.408ZM423.424 141.636L426.319 138.876L426.316 138.873L423.424 141.636ZM365.976 141.636L368.871 144.396L368.88 144.386L368.89 144.376L365.976 141.636ZM365.976 198.912L368.89 196.172L368.88 196.162L368.871 196.152L365.976 198.912ZM424.456 223.939C415.69 228.643 405.8 231.032 394.7 231.032V239.032C406.991 239.032 418.2 236.375 428.239 230.989L424.456 223.939ZM394.7 231.032C376.524 231.032 362.082 225.091 350.994 213.364L345.181 218.86C357.944 232.359 374.576 239.032 394.7 239.032V231.032ZM350.982 213.351C339.926 201.758 334.372 187.516 334.372 170.36H326.372C326.372 189.439 332.628 205.698 345.193 218.873L350.982 213.351ZM334.372 170.36C334.372 152.972 339.984 138.689 351.128 127.224L345.391 121.648C332.684 134.721 326.372 151.055 326.372 170.36H334.372ZM351.153 127.198C362.37 115.447 376.769 109.516 394.7 109.516V101.516C374.79 101.516 358.229 108.198 345.366 121.674L351.153 127.198ZM394.7 109.516C412.63 109.516 427.029 115.447 438.246 127.198L444.033 121.674C431.17 108.198 414.609 101.516 394.7 101.516V109.516ZM438.271 127.224C449.288 138.562 454.856 152.838 454.856 170.36H462.856C462.856 150.96 456.613 134.62 444.008 121.648L438.271 127.224ZM454.856 170.36C454.856 185.377 450.632 198.07 442.298 208.649L448.582 213.599C458.135 201.474 462.856 186.991 462.856 170.36H454.856ZM442.611 213.952L453.963 225.304L459.62 219.648L448.268 208.296L442.611 213.952ZM453.963 219.648L436.247 237.364L441.904 243.02L459.62 225.304L453.963 219.648ZM441.904 237.364L429.176 224.636L423.519 230.292L436.247 243.02L441.904 237.364ZM394.7 214.436C399.201 214.436 403.786 213.81 408.446 212.584L406.41 204.848C402.354 205.915 398.454 206.436 394.7 206.436V214.436ZM410.273 205.905L396.341 191.801L390.65 197.423L404.582 211.527L410.273 205.905ZM396.324 197.44L414.04 179.724L408.383 174.068L390.667 191.784L396.324 197.44ZM408.383 179.724L424.895 196.236L430.552 190.58L414.04 174.068L408.383 179.724ZM431.088 195.571C435.698 188.4 437.916 179.937 437.916 170.36H429.916C429.916 178.671 428.005 185.573 424.359 191.245L431.088 195.571ZM437.916 170.36C437.916 157.703 434.139 147.081 426.319 138.876L420.528 144.396C426.698 150.869 429.916 159.395 429.916 170.36H437.916ZM426.316 138.873C418.134 130.308 407.468 126.112 394.7 126.112V134.112C405.552 134.112 414.035 137.599 420.531 144.399L426.316 138.873ZM394.7 126.112C381.83 126.112 371.144 130.3 363.062 138.896L368.89 144.376C375.255 137.606 383.719 134.112 394.7 134.112V126.112ZM363.08 138.876C355.26 147.081 351.484 157.703 351.484 170.36H359.484C359.484 159.395 362.702 150.869 368.871 144.396L363.08 138.876ZM351.484 170.36C351.484 182.914 355.267 193.475 363.08 201.672L368.871 196.152C362.694 189.672 359.484 181.198 359.484 170.36H351.484ZM363.062 201.652C371.144 210.248 381.83 214.436 394.7 214.436V206.436C383.719 206.436 375.255 202.942 368.89 196.172L363.062 201.652ZM482.061 107.236V103.236H478.061V107.236H482.061ZM506.141 107.236L509.362 104.865L508.163 103.236H506.141V107.236ZM568.061 191.344L564.84 193.715L572.061 203.524V191.344H568.061ZM568.061 107.236V103.236H564.061V107.236H568.061ZM593.173 107.236H597.173V103.236H593.173V107.236ZM593.173 234V238H597.173V234H593.173ZM568.921 234L565.692 236.361L566.89 238H568.921V234ZM507.173 149.548L510.402 147.187L503.173 137.3V149.548H507.173ZM507.173 234V238H511.173V234H507.173ZM482.061 234H478.061V238H482.061V234ZM482.061 111.236H506.141V103.236H482.061V111.236ZM502.92 109.607L564.84 193.715L571.282 188.973L509.362 104.865L502.92 109.607ZM572.061 191.344V107.236H564.061V191.344H572.061ZM568.061 111.236H593.173V103.236H568.061V111.236ZM589.173 107.236V234H597.173V107.236H589.173ZM593.173 230H568.921V238H593.173V230ZM572.15 231.639L510.402 147.187L503.944 151.909L565.692 236.361L572.15 231.639ZM503.173 149.548V234H511.173V149.548H503.173ZM507.173 230H482.061V238H507.173V230ZM486.061 234V107.236H478.061V234H486.061ZM621.495 107.236V103.236H617.495V107.236H621.495ZM717.987 107.236H721.987V103.236H717.987V107.236ZM717.987 131.66V135.66H721.987V131.66H717.987ZM646.607 131.66V127.66H642.607V131.66H646.607ZM646.607 158.148H642.607V162.148H646.607V158.148ZM698.379 158.148H702.379V154.148H698.379V158.148ZM698.379 182.916V186.916H702.379V182.916H698.379ZM646.607 182.916V178.916H642.607V182.916H646.607ZM646.607 209.404H642.607V213.404H646.607V209.404ZM717.987 209.404H721.987V205.404H717.987V209.404ZM717.987 234V238H721.987V234H717.987ZM621.495 234H617.495V238H621.495V234ZM621.495 111.236H717.987V103.236H621.495V111.236ZM713.987 107.236V131.66H721.987V107.236H713.987ZM717.987 127.66H646.607V135.66H717.987V127.66ZM642.607 131.66V158.148H650.607V131.66H642.607ZM646.607 162.148H698.379V154.148H646.607V162.148ZM694.379 158.148V182.916H702.379V158.148H694.379ZM698.379 178.916H646.607V186.916H698.379V178.916ZM642.607 182.916V209.404H650.607V182.916H642.607ZM646.607 213.404H717.987V205.404H646.607V213.404ZM713.987 209.404V234H721.987V209.404H713.987ZM717.987 230H621.495V238H717.987V230ZM625.495 234V107.236H617.495V234H625.495ZM739.429 107.236V103.236H735.429V107.236H739.429ZM835.921 107.236H839.921V103.236H835.921V107.236ZM835.921 131.66V135.66H839.921V131.66H835.921ZM764.541 131.66V127.66H760.541V131.66H764.541ZM764.541 158.148H760.541V162.148H764.541V158.148ZM816.313 158.148H820.313V154.148H816.313V158.148ZM816.313 182.916V186.916H820.313V182.916H816.313ZM764.541 182.916V178.916H760.541V182.916H764.541ZM764.541 209.404H760.541V213.404H764.541V209.404ZM835.921 209.404H839.921V205.404H835.921V209.404ZM835.921 234V238H839.921V234H835.921ZM739.429 234H735.429V238H739.429V234ZM739.429 111.236H835.921V103.236H739.429V111.236ZM831.921 107.236V131.66H839.921V107.236H831.921ZM835.921 127.66H764.541V135.66H835.921V127.66ZM760.541 131.66V158.148H768.541V131.66H760.541ZM764.541 162.148H816.313V154.148H764.541V162.148ZM812.313 158.148V182.916H820.313V158.148H812.313ZM816.313 178.916H764.541V186.916H816.313V178.916ZM760.541 182.916V209.404H768.541V182.916H760.541ZM764.541 213.404H835.921V205.404H764.541V213.404ZM831.921 209.404V234H839.921V209.404H831.921ZM835.921 230H739.429V238H835.921V230ZM743.429 234V107.236H735.429V234H743.429ZM946.459 227.464L949.288 224.636L947.187 222.534L944.568 223.939L946.459 227.464ZM868.199 216.112L871.106 213.364L871.1 213.358L871.094 213.351L868.199 216.112ZM868.371 124.436L871.24 127.224L871.252 127.211L871.265 127.198L868.371 124.436ZM961.251 124.436L958.358 127.198L958.37 127.211L958.383 127.224L961.251 124.436ZM965.551 211.124L962.409 208.649L960.21 211.44L962.723 213.952L965.551 211.124ZM976.903 222.476L979.732 225.304L982.56 222.476L979.732 219.648L976.903 222.476ZM959.187 240.192L956.359 243.02L959.187 245.849L962.016 243.02L959.187 240.192ZM927.539 208.716L928.557 212.584L935.245 210.824L930.385 205.905L927.539 208.716ZM913.607 194.612L910.779 191.784L907.968 194.595L910.762 197.423L913.607 194.612ZM931.323 176.896L934.152 174.068L931.323 171.239L928.495 174.068L931.323 176.896ZM947.835 193.408L945.007 196.236L948.516 199.746L951.2 195.571L947.835 193.408ZM943.535 141.636L946.431 138.876L946.428 138.873L943.535 141.636ZM886.087 141.636L888.983 144.396L888.992 144.386L889.001 144.376L886.087 141.636ZM886.087 198.912L889.001 196.172L888.992 196.162L888.983 196.152L886.087 198.912ZM944.568 223.939C935.802 228.643 925.912 231.032 914.811 231.032V239.032C927.103 239.032 938.312 236.375 948.351 230.989L944.568 223.939ZM914.811 231.032C896.636 231.032 882.194 225.091 871.106 213.364L865.293 218.86C878.056 232.359 894.688 239.032 914.811 239.032V231.032ZM871.094 213.351C860.038 201.758 854.483 187.516 854.483 170.36H846.483C846.483 189.439 852.74 205.698 865.305 218.873L871.094 213.351ZM854.483 170.36C854.483 152.972 860.096 138.689 871.24 127.224L865.503 121.648C852.796 134.721 846.483 151.055 846.483 170.36H854.483ZM871.265 127.198C882.482 115.447 896.881 109.516 914.811 109.516V101.516C894.902 101.516 878.341 108.198 865.478 121.674L871.265 127.198ZM914.811 109.516C932.742 109.516 947.141 115.447 958.358 127.198L964.145 121.674C951.282 108.198 934.721 101.516 914.811 101.516V109.516ZM958.383 127.224C969.4 138.562 974.967 152.838 974.967 170.36H982.967C982.967 150.96 976.724 134.62 964.12 121.648L958.383 127.224ZM974.967 170.36C974.967 185.377 970.744 198.07 962.409 208.649L968.693 213.599C978.247 201.474 982.967 186.991 982.967 170.36H974.967ZM962.723 213.952L974.075 225.304L979.732 219.648L968.38 208.296L962.723 213.952ZM974.075 219.648L956.359 237.364L962.016 243.02L979.732 225.304L974.075 219.648ZM962.016 237.364L949.288 224.636L943.631 230.292L956.359 243.02L962.016 237.364ZM914.811 214.436C919.313 214.436 923.898 213.81 928.557 212.584L926.521 204.848C922.466 205.915 918.566 206.436 914.811 206.436V214.436ZM930.385 205.905L916.453 191.801L910.762 197.423L924.694 211.527L930.385 205.905ZM916.436 197.44L934.152 179.724L928.495 174.068L910.779 191.784L916.436 197.44ZM928.495 179.724L945.007 196.236L950.664 190.58L934.152 174.068L928.495 179.724ZM951.2 195.571C955.81 188.4 958.027 179.937 958.027 170.36H950.027C950.027 178.671 948.117 185.573 944.471 191.245L951.2 195.571ZM958.027 170.36C958.027 157.703 954.251 147.081 946.431 138.876L940.64 144.396C946.809 150.869 950.027 159.395 950.027 170.36H958.027ZM946.428 138.873C938.246 130.308 927.58 126.112 914.811 126.112V134.112C925.664 134.112 934.147 137.599 940.643 144.399L946.428 138.873ZM914.811 126.112C901.941 126.112 891.256 130.3 883.173 138.896L889.001 144.376C895.367 137.606 903.831 134.112 914.811 134.112V126.112ZM883.192 138.876C875.372 147.081 871.595 157.703 871.595 170.36H879.595C879.595 159.395 882.813 150.869 888.983 144.396L883.192 138.876ZM871.595 170.36C871.595 182.914 875.379 193.475 883.192 201.672L888.983 196.152C882.806 189.672 879.595 181.198 879.595 170.36H871.595ZM883.173 201.652C891.256 210.248 901.941 214.436 914.811 214.436V206.436C903.831 206.436 895.367 202.942 889.001 196.172L883.173 201.652Z" fill="black" fill-opacity="0.3"/>
<defs>
<linearGradient id="paint0_linear_454_3" x1="8.41987" y1="165" x2="977.426" y2="-140.91" gradientUnits="userSpaceOnUse">
<stop stop-color="#F24D56"/>
<stop offset="0.509216" stop-color="#EE0C77"/>
<stop offset="0.964829" stop-color="#F24D56"/>
</linearGradient>
</defs>
</svg>
