<svg width="1599" height="402" viewBox="0 0 1599 402" fill="none" xmlns="http://www.w3.org/2000/svg">
<path d="M108.742 143.236V139.236H103.31L104.922 144.423L108.742 143.236ZM135.058 143.236L138.883 142.065L138.016 139.236H135.058V143.236ZM161.03 228.032L157.205 229.203L160.407 239.658L164.708 229.605L161.03 228.032ZM187.002 167.316V163.316H184.362L183.324 165.743L187.002 167.316ZM209.878 167.316L213.556 165.743L212.518 163.316H209.878V167.316ZM235.85 228.032L232.172 229.605L236.473 239.658L239.675 229.203L235.85 228.032ZM261.822 143.236V139.236H258.864L257.997 142.065L261.822 143.236ZM288.138 143.236L291.956 144.428L293.577 139.236H288.138V143.236ZM248.578 270V274H251.52L252.396 271.192L248.578 270ZM225.53 270L221.856 271.582L222.897 274H225.53V270ZM198.354 206.876L202.028 205.294L198.342 196.733L194.676 205.303L198.354 206.876ZM171.35 270V274H173.989L175.028 271.573L171.35 270ZM148.13 270L144.31 271.187L145.184 274H148.13V270ZM108.742 147.236H135.058V139.236H108.742V147.236ZM131.233 144.407L157.205 229.203L164.855 226.861L138.883 142.065L131.233 144.407ZM164.708 229.605L190.68 168.889L183.324 165.743L157.352 226.459L164.708 229.605ZM187.002 171.316H209.878V163.316H187.002V171.316ZM206.2 168.889L232.172 229.605L239.528 226.459L213.556 165.743L206.2 168.889ZM239.675 229.203L265.647 144.407L257.997 142.065L232.025 226.861L239.675 229.203ZM261.822 147.236H288.138V139.236H261.822V147.236ZM284.32 142.044L244.76 268.808L252.396 271.192L291.956 144.428L284.32 142.044ZM248.578 266H225.53V274H248.578V266ZM229.204 268.418L202.028 205.294L194.68 208.458L221.856 271.582L229.204 268.418ZM194.676 205.303L167.672 268.427L175.028 271.573L202.032 208.449L194.676 205.303ZM171.35 266H148.13V274H171.35V266ZM151.95 268.813L112.562 142.049L104.922 144.423L144.31 271.187L151.95 268.813ZM304.56 143.236V139.236H300.56V143.236H304.56ZM329.672 143.236H333.672V139.236H329.672V143.236ZM329.672 194.148H325.672V198.148H329.672V194.148ZM384.368 194.148V198.148H388.368V194.148H384.368ZM384.368 143.236V139.236H380.368V143.236H384.368ZM409.308 143.236H413.308V139.236H409.308V143.236ZM409.308 270V274H413.308V270H409.308ZM384.368 270H380.368V274H384.368V270ZM384.368 218.916H388.368V214.916H384.368V218.916ZM329.672 218.916V214.916H325.672V218.916H329.672ZM329.672 270V274H333.672V270H329.672ZM304.56 270H300.56V274H304.56V270ZM304.56 147.236H329.672V139.236H304.56V147.236ZM325.672 143.236V194.148H333.672V143.236H325.672ZM329.672 198.148H384.368V190.148H329.672V198.148ZM388.368 194.148V143.236H380.368V194.148H388.368ZM384.368 147.236H409.308V139.236H384.368V147.236ZM405.308 143.236V270H413.308V143.236H405.308ZM409.308 266H384.368V274H409.308V266ZM388.368 270V218.916H380.368V270H388.368ZM384.368 214.916H329.672V222.916H384.368V214.916ZM325.672 218.916V270H333.672V218.916H325.672ZM329.672 266H304.56V274H329.672V266ZM308.56 270V143.236H300.56V270H308.56ZM448.447 251.94L451.327 249.164L451.322 249.158L451.316 249.152L448.447 251.94ZM448.619 160.436L451.488 163.224L451.5 163.211L451.513 163.198L448.619 160.436ZM541.499 160.436L538.606 163.198L538.618 163.211L538.631 163.224L541.499 160.436ZM541.499 252.112L538.631 249.324L538.618 249.337L538.606 249.35L541.499 252.112ZM523.783 234.912L520.867 232.175L520.845 232.198L520.824 232.221L523.783 234.912ZM523.783 177.636L526.679 174.876L526.676 174.873L523.783 177.636ZM466.335 177.636L469.231 180.396L469.24 180.386L469.249 180.376L466.335 177.636ZM466.335 234.912L463.419 237.649L463.42 237.651L466.335 234.912ZM495.059 267.032C477.263 267.032 462.791 261.056 451.327 249.164L445.568 254.716C458.643 268.28 475.245 275.032 495.059 275.032V267.032ZM451.316 249.152C440.294 237.809 434.731 223.588 434.731 206.188H426.731C426.731 225.481 432.979 241.761 445.579 254.728L451.316 249.152ZM434.731 206.188C434.731 188.922 440.339 174.694 451.488 163.224L445.751 157.648C433.049 170.716 426.731 186.99 426.731 206.188H434.731ZM451.513 163.198C462.73 151.447 477.129 145.516 495.059 145.516V137.516C475.15 137.516 458.589 144.198 445.726 157.674L451.513 163.198ZM495.059 145.516C512.99 145.516 527.389 151.447 538.606 163.198L544.393 157.674C531.53 144.198 514.969 137.516 495.059 137.516V145.516ZM538.631 163.224C549.653 174.567 555.215 188.788 555.215 206.188H563.215C563.215 186.895 556.967 170.615 544.368 157.648L538.631 163.224ZM555.215 206.188C555.215 223.71 549.648 237.986 538.631 249.324L544.368 254.9C556.972 241.928 563.215 225.588 563.215 206.188H555.215ZM538.606 249.35C527.389 261.101 512.99 267.032 495.059 267.032V275.032C514.969 275.032 531.53 268.35 544.393 254.874L538.606 249.35ZM495.059 250.264C508.211 250.264 518.955 246.17 526.743 237.603L520.824 232.221C514.852 238.79 506.446 242.264 495.059 242.264V250.264ZM526.7 237.649C534.492 229.347 538.275 218.743 538.275 206.188H530.275C530.275 217.025 527.064 225.571 520.867 232.175L526.7 237.649ZM538.275 206.188C538.275 193.634 534.492 183.073 526.679 174.876L520.888 180.396C527.064 186.876 530.275 195.35 530.275 206.188H538.275ZM526.676 174.873C518.494 166.308 507.828 162.112 495.059 162.112V170.112C505.912 170.112 514.395 173.599 520.891 180.399L526.676 174.873ZM495.059 162.112C482.189 162.112 471.504 166.3 463.421 174.896L469.249 180.376C475.615 173.606 484.079 170.112 495.059 170.112V162.112ZM463.44 174.876C455.627 183.073 451.843 193.634 451.843 206.188H459.843C459.843 195.35 463.054 186.876 469.231 180.396L463.44 174.876ZM451.843 206.188C451.843 218.743 455.627 229.347 463.419 237.649L469.252 232.175C463.054 225.571 459.843 217.025 459.843 206.188H451.843ZM463.42 237.651C471.408 246.154 482.108 250.264 495.059 250.264V242.264C483.931 242.264 475.482 238.806 469.251 232.173L463.42 237.651ZM665.537 143.236V139.236H662.89L661.855 141.672L665.537 143.236ZM689.789 143.236L693.471 141.672L692.436 139.236H689.789V143.236ZM743.625 270V274H749.669L747.307 268.436L743.625 270ZM716.105 270L712.417 271.548L713.446 274H716.105V270ZM702.173 236.804L705.861 235.256L704.832 232.804H702.173V236.804ZM653.153 236.804V232.804H650.494L649.465 235.256L653.153 236.804ZM639.221 270V274H641.88L642.909 271.548L639.221 270ZM611.701 270L608.019 268.436L605.656 274H611.701V270ZM692.025 212.724V216.724H698.043L695.713 211.175L692.025 212.724ZM677.577 178.324L681.265 176.775L677.555 167.942L673.882 176.791L677.577 178.324ZM663.301 212.724L659.606 211.191L657.31 216.724H663.301V212.724ZM665.537 147.236H689.789V139.236H665.537V147.236ZM686.107 144.8L739.943 271.564L747.307 268.436L693.471 141.672L686.107 144.8ZM743.625 266H716.105V274H743.625V266ZM719.793 268.452L705.861 235.256L698.485 238.352L712.417 271.548L719.793 268.452ZM702.173 232.804H653.153V240.804H702.173V232.804ZM649.465 235.256L635.533 268.452L642.909 271.548L656.841 238.352L649.465 235.256ZM639.221 266H611.701V274H639.221V266ZM615.383 271.564L669.219 144.8L661.855 141.672L608.019 268.436L615.383 271.564ZM695.713 211.175L681.265 176.775L673.889 179.873L688.337 214.273L695.713 211.175ZM673.882 176.791L659.606 211.191L666.995 214.257L681.271 179.857L673.882 176.791ZM663.301 216.724H692.025V208.724H663.301V216.724ZM759.164 143.236V139.236H755.164V143.236H759.164ZM852.388 154.416L855.091 151.467L855.07 151.448L855.048 151.429L852.388 154.416ZM859.268 206.532L855.861 204.436L855.856 204.445L855.85 204.454L859.268 206.532ZM843.444 219.948L844.827 223.701L844.946 223.657L845.063 223.606L843.444 219.948ZM840.176 221.152L838.793 217.399L834.266 219.067L836.744 223.206L840.176 221.152ZM869.416 270V274H876.472L872.848 267.946L869.416 270ZM839.832 270L836.363 271.992L837.516 274H839.832V270ZM814.548 225.968L818.017 223.976L816.864 221.968H814.548V225.968ZM784.276 225.968V221.968H780.276V225.968H784.276ZM784.276 270V274H788.276V270H784.276ZM759.164 270H755.164V274H759.164V270ZM838.112 193.116L841.492 195.255L841.553 195.158L841.609 195.059L838.112 193.116ZM834.5 172.476L837.127 169.46L837.09 169.427L837.052 169.396L834.5 172.476ZM784.276 167.488V163.488H780.276V167.488H784.276ZM784.276 201.544H780.276V205.544H784.276V201.544ZM759.164 147.236H820.224V139.236H759.164V147.236ZM820.224 147.236C832.488 147.236 842.21 150.709 849.728 157.403L855.048 151.429C845.825 143.216 834.104 139.236 820.224 139.236V147.236ZM849.685 157.365C856.99 164.061 860.772 173.13 860.772 185.032H868.772C868.772 171.249 864.298 159.907 855.091 151.467L849.685 157.365ZM860.772 185.032C860.772 192.808 859.073 199.217 855.861 204.436L862.675 208.628C866.802 201.922 868.772 193.997 868.772 185.032H860.772ZM855.85 204.454C852.769 209.523 848.164 213.484 841.825 216.29L845.063 223.606C852.713 220.22 858.658 215.237 862.686 208.61L855.85 204.454ZM842.061 216.195L838.793 217.399L841.559 224.905L844.827 223.701L842.061 216.195ZM836.744 223.206L865.984 272.054L872.848 267.946L843.608 219.098L836.744 223.206ZM869.416 266H839.832V274H869.416V266ZM843.301 268.008L818.017 223.976L811.079 227.96L836.363 271.992L843.301 268.008ZM814.548 221.968H784.276V229.968H814.548V221.968ZM780.276 225.968V270H788.276V225.968H780.276ZM784.276 266H759.164V274H784.276V266ZM763.164 270V143.236H755.164V270H763.164ZM817.816 205.544C828.43 205.544 836.883 202.54 841.492 195.255L834.732 190.977C832.231 194.93 827.154 197.544 817.816 197.544V205.544ZM841.609 195.059C843.193 192.207 843.832 188.775 843.832 185.032H835.832C835.832 187.94 835.324 189.897 834.615 191.173L841.609 195.059ZM843.832 185.032C843.832 178.755 841.664 173.411 837.127 169.46L831.873 175.492C834.446 177.733 835.832 180.76 835.832 185.032H843.832ZM837.052 169.396C832.142 165.328 825.824 163.488 818.504 163.488V171.488C824.485 171.488 828.831 172.974 831.948 175.556L837.052 169.396ZM818.504 163.488H784.276V171.488H818.504V163.488ZM780.276 167.488V201.544H788.276V167.488H780.276ZM784.276 205.544H817.816V197.544H784.276V205.544ZM890.872 143.236V139.236H886.872V143.236H890.872ZM987.364 143.236H991.364V139.236H987.364V143.236ZM987.364 167.66V171.66H991.364V167.66H987.364ZM915.984 167.66V163.66H911.984V167.66H915.984ZM915.984 194.148H911.984V198.148H915.984V194.148ZM967.756 194.148H971.756V190.148H967.756V194.148ZM967.756 218.916V222.916H971.756V218.916H967.756ZM915.984 218.916V214.916H911.984V218.916H915.984ZM915.984 245.404H911.984V249.404H915.984V245.404ZM987.364 245.404H991.364V241.404H987.364V245.404ZM987.364 270V274H991.364V270H987.364ZM890.872 270H886.872V274H890.872V270ZM890.872 147.236H987.364V139.236H890.872V147.236ZM983.364 143.236V167.66H991.364V143.236H983.364ZM987.364 163.66H915.984V171.66H987.364V163.66ZM911.984 167.66V194.148H919.984V167.66H911.984ZM915.984 198.148H967.756V190.148H915.984V198.148ZM963.756 194.148V218.916H971.756V194.148H963.756ZM967.756 214.916H915.984V222.916H967.756V214.916ZM911.984 218.916V245.404H919.984V218.916H911.984ZM915.984 249.404H987.364V241.404H915.984V249.404ZM983.364 245.404V270H991.364V245.404H983.364ZM987.364 266H890.872V274H987.364V266ZM894.872 270V143.236H886.872V270H894.872ZM1040.63 143.236V139.236H1035.19L1036.81 144.423L1040.63 143.236ZM1066.94 143.236L1070.77 142.065L1069.9 139.236H1066.94V143.236ZM1092.91 228.032L1089.09 229.203L1092.29 239.658L1096.59 229.605L1092.91 228.032ZM1118.89 167.316V163.316H1116.25L1115.21 165.743L1118.89 167.316ZM1141.76 167.316L1145.44 165.743L1144.4 163.316H1141.76V167.316ZM1167.73 228.032L1164.06 229.605L1168.36 239.658L1171.56 229.203L1167.73 228.032ZM1193.71 143.236V139.236H1190.75L1189.88 142.065L1193.71 143.236ZM1220.02 143.236L1223.84 144.428L1225.46 139.236H1220.02V143.236ZM1180.46 270V274H1183.4L1184.28 271.192L1180.46 270ZM1157.41 270L1153.74 271.582L1154.78 274H1157.41V270ZM1130.24 206.876L1133.91 205.294L1130.23 196.733L1126.56 205.303L1130.24 206.876ZM1103.23 270V274H1105.87L1106.91 271.573L1103.23 270ZM1080.01 270L1076.19 271.187L1077.07 274H1080.01V270ZM1040.63 147.236H1066.94V139.236H1040.63V147.236ZM1063.12 144.407L1089.09 229.203L1096.74 226.861L1070.77 142.065L1063.12 144.407ZM1096.59 229.605L1122.56 168.889L1115.21 165.743L1089.24 226.459L1096.59 229.605ZM1118.89 171.316H1141.76V163.316H1118.89V171.316ZM1138.08 168.889L1164.06 229.605L1171.41 226.459L1145.44 165.743L1138.08 168.889ZM1171.56 229.203L1197.53 144.407L1189.88 142.065L1163.91 226.861L1171.56 229.203ZM1193.71 147.236H1220.02V139.236H1193.71V147.236ZM1216.2 142.044L1176.64 268.808L1184.28 271.192L1223.84 144.428L1216.2 142.044ZM1180.46 266H1157.41V274H1180.46V266ZM1161.09 268.418L1133.91 205.294L1126.56 208.458L1153.74 271.582L1161.09 268.418ZM1126.56 205.303L1099.56 268.427L1106.91 271.573L1133.92 208.449L1126.56 205.303ZM1103.23 266H1080.01V274H1103.23V266ZM1083.83 268.813L1044.45 142.049L1036.81 144.423L1076.19 271.187L1083.83 268.813ZM1236.44 143.236V139.236H1232.44V143.236H1236.44ZM1332.94 143.236H1336.94V139.236H1332.94V143.236ZM1332.94 167.66V171.66H1336.94V167.66H1332.94ZM1261.56 167.66V163.66H1257.56V167.66H1261.56ZM1261.56 194.148H1257.56V198.148H1261.56V194.148ZM1313.33 194.148H1317.33V190.148H1313.33V194.148ZM1313.33 218.916V222.916H1317.33V218.916H1313.33ZM1261.56 218.916V214.916H1257.56V218.916H1261.56ZM1261.56 245.404H1257.56V249.404H1261.56V245.404ZM1332.94 245.404H1336.94V241.404H1332.94V245.404ZM1332.94 270V274H1336.94V270H1332.94ZM1236.44 270H1232.44V274H1236.44V270ZM1236.44 147.236H1332.94V139.236H1236.44V147.236ZM1328.94 143.236V167.66H1336.94V143.236H1328.94ZM1332.94 163.66H1261.56V171.66H1332.94V163.66ZM1257.56 167.66V194.148H1265.56V167.66H1257.56ZM1261.56 198.148H1313.33V190.148H1261.56V198.148ZM1309.33 194.148V218.916H1317.33V194.148H1309.33ZM1313.33 214.916H1261.56V222.916H1313.33V214.916ZM1257.56 218.916V245.404H1265.56V218.916H1257.56ZM1261.56 249.404H1332.94V241.404H1261.56V249.404ZM1328.94 245.404V270H1336.94V245.404H1328.94ZM1332.94 266H1236.44V274H1332.94V266ZM1240.44 270V143.236H1232.44V270H1240.44ZM1423.69 199.308L1420.81 196.533L1419.5 197.898L1419.72 199.778L1423.69 199.308ZM1428.17 194.664V190.664H1426.46L1425.28 191.889L1428.17 194.664ZM1450.35 190.536L1452.03 194.168L1452.03 194.168L1450.35 190.536ZM1453.97 164.048L1451.34 167.064L1451.37 167.089L1451.4 167.113L1453.97 164.048ZM1425.93 162.844L1427.76 166.402L1427.78 166.393L1427.79 166.384L1425.93 162.844ZM1413.03 173.508L1416.01 176.172L1416.02 176.164L1416.03 176.157L1413.03 173.508ZM1408.73 178.324L1405.96 181.209L1408.95 184.082L1411.71 180.988L1408.73 178.324ZM1391.36 161.64L1388.3 159.067L1385.89 161.933L1388.59 164.525L1391.36 161.64ZM1394.97 157.34L1391.92 154.752L1391.91 154.76L1391.91 154.767L1394.97 157.34ZM1415.61 140.484L1417.4 144.062L1417.4 144.062L1415.61 140.484ZM1463.6 140.14L1465.41 136.574L1465.41 136.574L1463.6 140.14ZM1479.42 154.588L1476.01 156.674L1476.02 156.688L1476.03 156.702L1479.42 154.588ZM1475.47 201.888L1472.5 199.207L1472.5 199.209L1475.47 201.888ZM1448.81 215.992L1447.98 212.077L1445.15 212.672L1444.83 215.55L1448.81 215.992ZM1447.43 228.376V232.376H1451.01L1451.41 228.818L1447.43 228.376ZM1427.13 228.376L1423.16 228.846L1423.58 232.376H1427.13V228.376ZM1425.93 239.728V235.728H1422.42L1421.96 239.21L1425.93 239.728ZM1447.6 239.728L1451.57 239.188L1451.09 235.728H1447.6V239.728ZM1451.73 270V274H1456.31L1455.69 269.46L1451.73 270ZM1421.97 270L1418.01 269.482L1417.42 274H1421.97V270ZM1426.58 202.083L1431.05 197.439L1425.28 191.889L1420.81 196.533L1426.58 202.083ZM1428.17 198.664H1430.57V190.664H1428.17V198.664ZM1430.57 198.664C1438.32 198.664 1445.49 197.186 1452.03 194.168L1448.68 186.904C1443.29 189.39 1437.28 190.664 1430.57 190.664V198.664ZM1452.03 194.168C1455.61 192.517 1458.5 190.142 1460.46 186.965C1462.42 183.801 1463.3 180.112 1463.3 176.088H1455.3C1455.3 178.944 1454.68 181.103 1453.66 182.755C1452.65 184.394 1451.06 185.803 1448.68 186.904L1452.03 194.168ZM1463.3 176.088C1463.3 169.977 1461.08 164.797 1456.54 160.983L1451.4 167.113C1453.96 169.262 1455.3 172.108 1455.3 176.088H1463.3ZM1456.59 161.032C1452.16 157.171 1446.52 155.404 1440.03 155.404V163.404C1445.02 163.404 1448.66 164.733 1451.34 167.064L1456.59 161.032ZM1440.03 155.404C1434.36 155.404 1429.01 156.701 1424.07 159.304L1427.79 166.384C1431.56 164.4 1435.62 163.404 1440.03 163.404V155.404ZM1424.1 159.286C1419.28 161.761 1414.6 165.687 1410.03 170.859L1416.03 176.157C1420.17 171.468 1424.09 168.285 1427.76 166.402L1424.1 159.286ZM1410.05 170.844L1405.75 175.66L1411.71 180.988L1416.01 176.172L1410.05 170.844ZM1411.5 175.439L1394.13 158.755L1388.59 164.525L1405.96 181.209L1411.5 175.439ZM1394.42 164.213L1398.03 159.913L1391.91 154.767L1388.3 159.067L1394.42 164.213ZM1398.02 159.928C1404.16 152.687 1410.63 147.445 1417.4 144.062L1413.82 136.906C1405.91 140.862 1398.62 146.857 1391.92 154.752L1398.02 159.928ZM1417.4 144.062C1424.12 140.701 1431.75 138.98 1440.38 138.98V130.98C1430.66 130.98 1421.78 132.928 1413.82 136.906L1417.4 144.062ZM1440.38 138.98C1448.56 138.98 1455.66 140.591 1461.79 143.706L1465.41 136.574C1458.01 132.809 1449.63 130.98 1440.38 130.98V138.98ZM1461.79 143.706C1467.92 146.826 1472.63 151.143 1476.01 156.674L1482.84 152.502C1478.65 145.649 1472.8 140.334 1465.41 136.574L1461.79 143.706ZM1476.03 156.702C1479.37 162.08 1481.1 168.326 1481.1 175.572H1489.1C1489.1 166.994 1487.04 159.251 1482.82 152.474L1476.03 156.702ZM1481.1 175.572C1481.1 185.112 1478.19 192.901 1472.5 199.207L1478.43 204.569C1485.58 196.656 1489.1 186.901 1489.1 175.572H1481.1ZM1472.5 199.209C1466.88 205.435 1458.83 209.8 1447.98 212.077L1449.63 219.907C1461.72 217.368 1471.44 212.33 1478.44 204.567L1472.5 199.209ZM1444.83 215.55L1443.45 227.934L1451.41 228.818L1452.78 216.434L1444.83 215.55ZM1447.43 224.376H1427.13V232.376H1447.43V224.376ZM1431.11 227.906L1427.67 198.838L1419.72 199.778L1423.16 228.846L1431.11 227.906ZM1425.93 243.728H1447.6V235.728H1425.93V243.728ZM1443.64 240.268L1447.77 270.54L1455.69 269.46L1451.57 239.188L1443.64 240.268ZM1451.73 266H1421.97V274H1451.73V266ZM1425.94 270.518L1429.9 240.246L1421.96 239.21L1418.01 269.482L1425.94 270.518Z" fill="url(#paint0_linear_453_2)"/>
<path d="M108.742 143.236V139.236H103.31L104.922 144.423L108.742 143.236ZM135.058 143.236L138.883 142.065L138.016 139.236H135.058V143.236ZM161.03 228.032L157.205 229.203L160.407 239.658L164.708 229.605L161.03 228.032ZM187.002 167.316V163.316H184.362L183.324 165.743L187.002 167.316ZM209.878 167.316L213.556 165.743L212.518 163.316H209.878V167.316ZM235.85 228.032L232.172 229.605L236.473 239.658L239.675 229.203L235.85 228.032ZM261.822 143.236V139.236H258.864L257.997 142.065L261.822 143.236ZM288.138 143.236L291.956 144.428L293.577 139.236H288.138V143.236ZM248.578 270V274H251.52L252.396 271.192L248.578 270ZM225.53 270L221.856 271.582L222.897 274H225.53V270ZM198.354 206.876L202.028 205.294L198.342 196.733L194.676 205.303L198.354 206.876ZM171.35 270V274H173.989L175.028 271.573L171.35 270ZM148.13 270L144.31 271.187L145.184 274H148.13V270ZM108.742 147.236H135.058V139.236H108.742V147.236ZM131.233 144.407L157.205 229.203L164.855 226.861L138.883 142.065L131.233 144.407ZM164.708 229.605L190.68 168.889L183.324 165.743L157.352 226.459L164.708 229.605ZM187.002 171.316H209.878V163.316H187.002V171.316ZM206.2 168.889L232.172 229.605L239.528 226.459L213.556 165.743L206.2 168.889ZM239.675 229.203L265.647 144.407L257.997 142.065L232.025 226.861L239.675 229.203ZM261.822 147.236H288.138V139.236H261.822V147.236ZM284.32 142.044L244.76 268.808L252.396 271.192L291.956 144.428L284.32 142.044ZM248.578 266H225.53V274H248.578V266ZM229.204 268.418L202.028 205.294L194.68 208.458L221.856 271.582L229.204 268.418ZM194.676 205.303L167.672 268.427L175.028 271.573L202.032 208.449L194.676 205.303ZM171.35 266H148.13V274H171.35V266ZM151.95 268.813L112.562 142.049L104.922 144.423L144.31 271.187L151.95 268.813ZM304.56 143.236V139.236H300.56V143.236H304.56ZM329.672 143.236H333.672V139.236H329.672V143.236ZM329.672 194.148H325.672V198.148H329.672V194.148ZM384.368 194.148V198.148H388.368V194.148H384.368ZM384.368 143.236V139.236H380.368V143.236H384.368ZM409.308 143.236H413.308V139.236H409.308V143.236ZM409.308 270V274H413.308V270H409.308ZM384.368 270H380.368V274H384.368V270ZM384.368 218.916H388.368V214.916H384.368V218.916ZM329.672 218.916V214.916H325.672V218.916H329.672ZM329.672 270V274H333.672V270H329.672ZM304.56 270H300.56V274H304.56V270ZM304.56 147.236H329.672V139.236H304.56V147.236ZM325.672 143.236V194.148H333.672V143.236H325.672ZM329.672 198.148H384.368V190.148H329.672V198.148ZM388.368 194.148V143.236H380.368V194.148H388.368ZM384.368 147.236H409.308V139.236H384.368V147.236ZM405.308 143.236V270H413.308V143.236H405.308ZM409.308 266H384.368V274H409.308V266ZM388.368 270V218.916H380.368V270H388.368ZM384.368 214.916H329.672V222.916H384.368V214.916ZM325.672 218.916V270H333.672V218.916H325.672ZM329.672 266H304.56V274H329.672V266ZM308.56 270V143.236H300.56V270H308.56ZM448.447 251.94L451.327 249.164L451.322 249.158L451.316 249.152L448.447 251.94ZM448.619 160.436L451.488 163.224L451.5 163.211L451.513 163.198L448.619 160.436ZM541.499 160.436L538.606 163.198L538.618 163.211L538.631 163.224L541.499 160.436ZM541.499 252.112L538.631 249.324L538.618 249.337L538.606 249.35L541.499 252.112ZM523.783 234.912L520.867 232.175L520.845 232.198L520.824 232.221L523.783 234.912ZM523.783 177.636L526.679 174.876L526.676 174.873L523.783 177.636ZM466.335 177.636L469.231 180.396L469.24 180.386L469.249 180.376L466.335 177.636ZM466.335 234.912L463.419 237.649L463.42 237.651L466.335 234.912ZM495.059 267.032C477.263 267.032 462.791 261.056 451.327 249.164L445.568 254.716C458.643 268.28 475.245 275.032 495.059 275.032V267.032ZM451.316 249.152C440.294 237.809 434.731 223.588 434.731 206.188H426.731C426.731 225.481 432.979 241.761 445.579 254.728L451.316 249.152ZM434.731 206.188C434.731 188.922 440.339 174.694 451.488 163.224L445.751 157.648C433.049 170.716 426.731 186.99 426.731 206.188H434.731ZM451.513 163.198C462.73 151.447 477.129 145.516 495.059 145.516V137.516C475.15 137.516 458.589 144.198 445.726 157.674L451.513 163.198ZM495.059 145.516C512.99 145.516 527.389 151.447 538.606 163.198L544.393 157.674C531.53 144.198 514.969 137.516 495.059 137.516V145.516ZM538.631 163.224C549.653 174.567 555.215 188.788 555.215 206.188H563.215C563.215 186.895 556.967 170.615 544.368 157.648L538.631 163.224ZM555.215 206.188C555.215 223.71 549.648 237.986 538.631 249.324L544.368 254.9C556.972 241.928 563.215 225.588 563.215 206.188H555.215ZM538.606 249.35C527.389 261.101 512.99 267.032 495.059 267.032V275.032C514.969 275.032 531.53 268.35 544.393 254.874L538.606 249.35ZM495.059 250.264C508.211 250.264 518.955 246.17 526.743 237.603L520.824 232.221C514.852 238.79 506.446 242.264 495.059 242.264V250.264ZM526.7 237.649C534.492 229.347 538.275 218.743 538.275 206.188H530.275C530.275 217.025 527.064 225.571 520.867 232.175L526.7 237.649ZM538.275 206.188C538.275 193.634 534.492 183.073 526.679 174.876L520.888 180.396C527.064 186.876 530.275 195.35 530.275 206.188H538.275ZM526.676 174.873C518.494 166.308 507.828 162.112 495.059 162.112V170.112C505.912 170.112 514.395 173.599 520.891 180.399L526.676 174.873ZM495.059 162.112C482.189 162.112 471.504 166.3 463.421 174.896L469.249 180.376C475.615 173.606 484.079 170.112 495.059 170.112V162.112ZM463.44 174.876C455.627 183.073 451.843 193.634 451.843 206.188H459.843C459.843 195.35 463.054 186.876 469.231 180.396L463.44 174.876ZM451.843 206.188C451.843 218.743 455.627 229.347 463.419 237.649L469.252 232.175C463.054 225.571 459.843 217.025 459.843 206.188H451.843ZM463.42 237.651C471.408 246.154 482.108 250.264 495.059 250.264V242.264C483.931 242.264 475.482 238.806 469.251 232.173L463.42 237.651ZM665.537 143.236V139.236H662.89L661.855 141.672L665.537 143.236ZM689.789 143.236L693.471 141.672L692.436 139.236H689.789V143.236ZM743.625 270V274H749.669L747.307 268.436L743.625 270ZM716.105 270L712.417 271.548L713.446 274H716.105V270ZM702.173 236.804L705.861 235.256L704.832 232.804H702.173V236.804ZM653.153 236.804V232.804H650.494L649.465 235.256L653.153 236.804ZM639.221 270V274H641.88L642.909 271.548L639.221 270ZM611.701 270L608.019 268.436L605.656 274H611.701V270ZM692.025 212.724V216.724H698.043L695.713 211.175L692.025 212.724ZM677.577 178.324L681.265 176.775L677.555 167.942L673.882 176.791L677.577 178.324ZM663.301 212.724L659.606 211.191L657.31 216.724H663.301V212.724ZM665.537 147.236H689.789V139.236H665.537V147.236ZM686.107 144.8L739.943 271.564L747.307 268.436L693.471 141.672L686.107 144.8ZM743.625 266H716.105V274H743.625V266ZM719.793 268.452L705.861 235.256L698.485 238.352L712.417 271.548L719.793 268.452ZM702.173 232.804H653.153V240.804H702.173V232.804ZM649.465 235.256L635.533 268.452L642.909 271.548L656.841 238.352L649.465 235.256ZM639.221 266H611.701V274H639.221V266ZM615.383 271.564L669.219 144.8L661.855 141.672L608.019 268.436L615.383 271.564ZM695.713 211.175L681.265 176.775L673.889 179.873L688.337 214.273L695.713 211.175ZM673.882 176.791L659.606 211.191L666.995 214.257L681.271 179.857L673.882 176.791ZM663.301 216.724H692.025V208.724H663.301V216.724ZM759.164 143.236V139.236H755.164V143.236H759.164ZM852.388 154.416L855.091 151.467L855.07 151.448L855.048 151.429L852.388 154.416ZM859.268 206.532L855.861 204.436L855.856 204.445L855.85 204.454L859.268 206.532ZM843.444 219.948L844.827 223.701L844.946 223.657L845.063 223.606L843.444 219.948ZM840.176 221.152L838.793 217.399L834.266 219.067L836.744 223.206L840.176 221.152ZM869.416 270V274H876.472L872.848 267.946L869.416 270ZM839.832 270L836.363 271.992L837.516 274H839.832V270ZM814.548 225.968L818.017 223.976L816.864 221.968H814.548V225.968ZM784.276 225.968V221.968H780.276V225.968H784.276ZM784.276 270V274H788.276V270H784.276ZM759.164 270H755.164V274H759.164V270ZM838.112 193.116L841.492 195.255L841.553 195.158L841.609 195.059L838.112 193.116ZM834.5 172.476L837.127 169.46L837.09 169.427L837.052 169.396L834.5 172.476ZM784.276 167.488V163.488H780.276V167.488H784.276ZM784.276 201.544H780.276V205.544H784.276V201.544ZM759.164 147.236H820.224V139.236H759.164V147.236ZM820.224 147.236C832.488 147.236 842.21 150.709 849.728 157.403L855.048 151.429C845.825 143.216 834.104 139.236 820.224 139.236V147.236ZM849.685 157.365C856.99 164.061 860.772 173.13 860.772 185.032H868.772C868.772 171.249 864.298 159.907 855.091 151.467L849.685 157.365ZM860.772 185.032C860.772 192.808 859.073 199.217 855.861 204.436L862.675 208.628C866.802 201.922 868.772 193.997 868.772 185.032H860.772ZM855.85 204.454C852.769 209.523 848.164 213.484 841.825 216.29L845.063 223.606C852.713 220.22 858.658 215.237 862.686 208.61L855.85 204.454ZM842.061 216.195L838.793 217.399L841.559 224.905L844.827 223.701L842.061 216.195ZM836.744 223.206L865.984 272.054L872.848 267.946L843.608 219.098L836.744 223.206ZM869.416 266H839.832V274H869.416V266ZM843.301 268.008L818.017 223.976L811.079 227.96L836.363 271.992L843.301 268.008ZM814.548 221.968H784.276V229.968H814.548V221.968ZM780.276 225.968V270H788.276V225.968H780.276ZM784.276 266H759.164V274H784.276V266ZM763.164 270V143.236H755.164V270H763.164ZM817.816 205.544C828.43 205.544 836.883 202.54 841.492 195.255L834.732 190.977C832.231 194.93 827.154 197.544 817.816 197.544V205.544ZM841.609 195.059C843.193 192.207 843.832 188.775 843.832 185.032H835.832C835.832 187.94 835.324 189.897 834.615 191.173L841.609 195.059ZM843.832 185.032C843.832 178.755 841.664 173.411 837.127 169.46L831.873 175.492C834.446 177.733 835.832 180.76 835.832 185.032H843.832ZM837.052 169.396C832.142 165.328 825.824 163.488 818.504 163.488V171.488C824.485 171.488 828.831 172.974 831.948 175.556L837.052 169.396ZM818.504 163.488H784.276V171.488H818.504V163.488ZM780.276 167.488V201.544H788.276V167.488H780.276ZM784.276 205.544H817.816V197.544H784.276V205.544ZM890.872 143.236V139.236H886.872V143.236H890.872ZM987.364 143.236H991.364V139.236H987.364V143.236ZM987.364 167.66V171.66H991.364V167.66H987.364ZM915.984 167.66V163.66H911.984V167.66H915.984ZM915.984 194.148H911.984V198.148H915.984V194.148ZM967.756 194.148H971.756V190.148H967.756V194.148ZM967.756 218.916V222.916H971.756V218.916H967.756ZM915.984 218.916V214.916H911.984V218.916H915.984ZM915.984 245.404H911.984V249.404H915.984V245.404ZM987.364 245.404H991.364V241.404H987.364V245.404ZM987.364 270V274H991.364V270H987.364ZM890.872 270H886.872V274H890.872V270ZM890.872 147.236H987.364V139.236H890.872V147.236ZM983.364 143.236V167.66H991.364V143.236H983.364ZM987.364 163.66H915.984V171.66H987.364V163.66ZM911.984 167.66V194.148H919.984V167.66H911.984ZM915.984 198.148H967.756V190.148H915.984V198.148ZM963.756 194.148V218.916H971.756V194.148H963.756ZM967.756 214.916H915.984V222.916H967.756V214.916ZM911.984 218.916V245.404H919.984V218.916H911.984ZM915.984 249.404H987.364V241.404H915.984V249.404ZM983.364 245.404V270H991.364V245.404H983.364ZM987.364 266H890.872V274H987.364V266ZM894.872 270V143.236H886.872V270H894.872ZM1040.63 143.236V139.236H1035.19L1036.81 144.423L1040.63 143.236ZM1066.94 143.236L1070.77 142.065L1069.9 139.236H1066.94V143.236ZM1092.91 228.032L1089.09 229.203L1092.29 239.658L1096.59 229.605L1092.91 228.032ZM1118.89 167.316V163.316H1116.25L1115.21 165.743L1118.89 167.316ZM1141.76 167.316L1145.44 165.743L1144.4 163.316H1141.76V167.316ZM1167.73 228.032L1164.06 229.605L1168.36 239.658L1171.56 229.203L1167.73 228.032ZM1193.71 143.236V139.236H1190.75L1189.88 142.065L1193.71 143.236ZM1220.02 143.236L1223.84 144.428L1225.46 139.236H1220.02V143.236ZM1180.46 270V274H1183.4L1184.28 271.192L1180.46 270ZM1157.41 270L1153.74 271.582L1154.78 274H1157.41V270ZM1130.24 206.876L1133.91 205.294L1130.23 196.733L1126.56 205.303L1130.24 206.876ZM1103.23 270V274H1105.87L1106.91 271.573L1103.23 270ZM1080.01 270L1076.19 271.187L1077.07 274H1080.01V270ZM1040.63 147.236H1066.94V139.236H1040.63V147.236ZM1063.12 144.407L1089.09 229.203L1096.74 226.861L1070.77 142.065L1063.12 144.407ZM1096.59 229.605L1122.56 168.889L1115.21 165.743L1089.24 226.459L1096.59 229.605ZM1118.89 171.316H1141.76V163.316H1118.89V171.316ZM1138.08 168.889L1164.06 229.605L1171.41 226.459L1145.44 165.743L1138.08 168.889ZM1171.56 229.203L1197.53 144.407L1189.88 142.065L1163.91 226.861L1171.56 229.203ZM1193.71 147.236H1220.02V139.236H1193.71V147.236ZM1216.2 142.044L1176.64 268.808L1184.28 271.192L1223.84 144.428L1216.2 142.044ZM1180.46 266H1157.41V274H1180.46V266ZM1161.09 268.418L1133.91 205.294L1126.56 208.458L1153.74 271.582L1161.09 268.418ZM1126.56 205.303L1099.56 268.427L1106.91 271.573L1133.92 208.449L1126.56 205.303ZM1103.23 266H1080.01V274H1103.23V266ZM1083.83 268.813L1044.45 142.049L1036.81 144.423L1076.19 271.187L1083.83 268.813ZM1236.44 143.236V139.236H1232.44V143.236H1236.44ZM1332.94 143.236H1336.94V139.236H1332.94V143.236ZM1332.94 167.66V171.66H1336.94V167.66H1332.94ZM1261.56 167.66V163.66H1257.56V167.66H1261.56ZM1261.56 194.148H1257.56V198.148H1261.56V194.148ZM1313.33 194.148H1317.33V190.148H1313.33V194.148ZM1313.33 218.916V222.916H1317.33V218.916H1313.33ZM1261.56 218.916V214.916H1257.56V218.916H1261.56ZM1261.56 245.404H1257.56V249.404H1261.56V245.404ZM1332.94 245.404H1336.94V241.404H1332.94V245.404ZM1332.94 270V274H1336.94V270H1332.94ZM1236.44 270H1232.44V274H1236.44V270ZM1236.44 147.236H1332.94V139.236H1236.44V147.236ZM1328.94 143.236V167.66H1336.94V143.236H1328.94ZM1332.94 163.66H1261.56V171.66H1332.94V163.66ZM1257.56 167.66V194.148H1265.56V167.66H1257.56ZM1261.56 198.148H1313.33V190.148H1261.56V198.148ZM1309.33 194.148V218.916H1317.33V194.148H1309.33ZM1313.33 214.916H1261.56V222.916H1313.33V214.916ZM1257.56 218.916V245.404H1265.56V218.916H1257.56ZM1261.56 249.404H1332.94V241.404H1261.56V249.404ZM1328.94 245.404V270H1336.94V245.404H1328.94ZM1332.94 266H1236.44V274H1332.94V266ZM1240.44 270V143.236H1232.44V270H1240.44ZM1423.69 199.308L1420.81 196.533L1419.5 197.898L1419.72 199.778L1423.69 199.308ZM1428.17 194.664V190.664H1426.46L1425.28 191.889L1428.17 194.664ZM1450.35 190.536L1452.03 194.168L1452.03 194.168L1450.35 190.536ZM1453.97 164.048L1451.34 167.064L1451.37 167.089L1451.4 167.113L1453.97 164.048ZM1425.93 162.844L1427.76 166.402L1427.78 166.393L1427.79 166.384L1425.93 162.844ZM1413.03 173.508L1416.01 176.172L1416.02 176.164L1416.03 176.157L1413.03 173.508ZM1408.73 178.324L1405.96 181.209L1408.95 184.082L1411.71 180.988L1408.73 178.324ZM1391.36 161.64L1388.3 159.067L1385.89 161.933L1388.59 164.525L1391.36 161.64ZM1394.97 157.34L1391.92 154.752L1391.91 154.76L1391.91 154.767L1394.97 157.34ZM1415.61 140.484L1417.4 144.062L1417.4 144.062L1415.61 140.484ZM1463.6 140.14L1465.41 136.574L1465.41 136.574L1463.6 140.14ZM1479.42 154.588L1476.01 156.674L1476.02 156.688L1476.03 156.702L1479.42 154.588ZM1475.47 201.888L1472.5 199.207L1472.5 199.209L1475.47 201.888ZM1448.81 215.992L1447.98 212.077L1445.15 212.672L1444.83 215.55L1448.81 215.992ZM1447.43 228.376V232.376H1451.01L1451.41 228.818L1447.43 228.376ZM1427.13 228.376L1423.16 228.846L1423.58 232.376H1427.13V228.376ZM1425.93 239.728V235.728H1422.42L1421.96 239.21L1425.93 239.728ZM1447.6 239.728L1451.57 239.188L1451.09 235.728H1447.6V239.728ZM1451.73 270V274H1456.31L1455.69 269.46L1451.73 270ZM1421.97 270L1418.01 269.482L1417.42 274H1421.97V270ZM1426.58 202.083L1431.05 197.439L1425.28 191.889L1420.81 196.533L1426.58 202.083ZM1428.17 198.664H1430.57V190.664H1428.17V198.664ZM1430.57 198.664C1438.32 198.664 1445.49 197.186 1452.03 194.168L1448.68 186.904C1443.29 189.39 1437.28 190.664 1430.57 190.664V198.664ZM1452.03 194.168C1455.61 192.517 1458.5 190.142 1460.46 186.965C1462.42 183.801 1463.3 180.112 1463.3 176.088H1455.3C1455.3 178.944 1454.68 181.103 1453.66 182.755C1452.65 184.394 1451.06 185.803 1448.68 186.904L1452.03 194.168ZM1463.3 176.088C1463.3 169.977 1461.08 164.797 1456.54 160.983L1451.4 167.113C1453.96 169.262 1455.3 172.108 1455.3 176.088H1463.3ZM1456.59 161.032C1452.16 157.171 1446.52 155.404 1440.03 155.404V163.404C1445.02 163.404 1448.66 164.733 1451.34 167.064L1456.59 161.032ZM1440.03 155.404C1434.36 155.404 1429.01 156.701 1424.07 159.304L1427.79 166.384C1431.56 164.4 1435.62 163.404 1440.03 163.404V155.404ZM1424.1 159.286C1419.28 161.761 1414.6 165.687 1410.03 170.859L1416.03 176.157C1420.17 171.468 1424.09 168.285 1427.76 166.402L1424.1 159.286ZM1410.05 170.844L1405.75 175.66L1411.71 180.988L1416.01 176.172L1410.05 170.844ZM1411.5 175.439L1394.13 158.755L1388.59 164.525L1405.96 181.209L1411.5 175.439ZM1394.42 164.213L1398.03 159.913L1391.91 154.767L1388.3 159.067L1394.42 164.213ZM1398.02 159.928C1404.16 152.687 1410.63 147.445 1417.4 144.062L1413.82 136.906C1405.91 140.862 1398.62 146.857 1391.92 154.752L1398.02 159.928ZM1417.4 144.062C1424.12 140.701 1431.75 138.98 1440.38 138.98V130.98C1430.66 130.98 1421.78 132.928 1413.82 136.906L1417.4 144.062ZM1440.38 138.98C1448.56 138.98 1455.66 140.591 1461.79 143.706L1465.41 136.574C1458.01 132.809 1449.63 130.98 1440.38 130.98V138.98ZM1461.79 143.706C1467.92 146.826 1472.63 151.143 1476.01 156.674L1482.84 152.502C1478.65 145.649 1472.8 140.334 1465.41 136.574L1461.79 143.706ZM1476.03 156.702C1479.37 162.08 1481.1 168.326 1481.1 175.572H1489.1C1489.1 166.994 1487.04 159.251 1482.82 152.474L1476.03 156.702ZM1481.1 175.572C1481.1 185.112 1478.19 192.901 1472.5 199.207L1478.43 204.569C1485.58 196.656 1489.1 186.901 1489.1 175.572H1481.1ZM1472.5 199.209C1466.88 205.435 1458.83 209.8 1447.98 212.077L1449.63 219.907C1461.72 217.368 1471.44 212.33 1478.44 204.567L1472.5 199.209ZM1444.83 215.55L1443.45 227.934L1451.41 228.818L1452.78 216.434L1444.83 215.55ZM1447.43 224.376H1427.13V232.376H1447.43V224.376ZM1431.11 227.906L1427.67 198.838L1419.72 199.778L1423.16 228.846L1431.11 227.906ZM1425.93 243.728H1447.6V235.728H1425.93V243.728ZM1443.64 240.268L1447.77 270.54L1455.69 269.46L1451.57 239.188L1443.64 240.268ZM1451.73 266H1421.97V274H1451.73V266ZM1425.94 270.518L1429.9 240.246L1421.96 239.21L1418.01 269.482L1425.94 270.518Z" fill="black" fill-opacity="0.3"/>
<defs>
<linearGradient id="paint0_linear_453_2" x1="12.5357" y1="201" x2="1393.43" y2="-331.794" gradientUnits="userSpaceOnUse">
<stop stop-color="#F24D56"/>
<stop offset="0.509216" stop-color="#EE0C77"/>
<stop offset="0.964829" stop-color="#F24D56"/>
</linearGradient>
</defs>
</svg>
