<?xml version="1.0" encoding="UTF-8" standalone="no"?>
<svg
   xmlns:dc="http://purl.org/dc/elements/1.1/"
   xmlns:cc="http://creativecommons.org/ns#"
   xmlns:rdf="http://www.w3.org/1999/02/22-rdf-syntax-ns#"
   xmlns:svg="http://www.w3.org/2000/svg"
   xmlns="http://www.w3.org/2000/svg"
   viewBox="0 0 4000 2666.6667"
   height="2666.6667"
   width="4000"
   xml:space="preserve"
   id="svg2"
   version="1.1"><metadata
     id="metadata8"><rdf:RDF><cc:Work
         rdf:about=""><dc:format>image/svg+xml</dc:format><dc:type
           rdf:resource="http://purl.org/dc/dcmitype/StillImage" /></cc:Work></rdf:RDF></metadata><defs
     id="defs6" /><g
     transform="matrix(1.3333333,0,0,-1.3333333,0,2666.6667)"
     id="g10"><g
       transform="scale(0.1)"
       id="g12"><g
         transform="scale(1.84049)"
         id="g14"><path
           id="path16"
           style="fill:#ffffff;fill-opacity:1;fill-rule:nonzero;stroke:none"
           d="M 16300,0 H 0 V 10866.7 H 16300 V 0" /></g><g
         transform="scale(1.72807)"
         id="g18"><path
           id="path20"
           style="fill:#ebf3fa;fill-opacity:1;fill-rule:nonzero;stroke:none"
           d="m 16294.2,3018 -0.3,-4.23 c -6.3,-123.03 -22.8,-239.28 -47.1,-348.6 -128.2,-578.33 -462.5,-947.82 -545.9,-1037.34 l -0.2,-0.17 c -11.3,-12.15 -18.2,-19.1 -19.1,-20.89 -362.3,0 -2704.6,-0.41 -5373.7,0.34 -719.5,0.18 -1462.7,0.47 -2197.34,0.93 -333.61,0.17 -665.42,0.35 -992.43,0.58 -238.13,0.17 -473.71,0.4 -705.53,0.58 -880.03,0.75 -1706.51,1.73 -2415.33,3.01 -379.44,0.69 -725.15,1.44 -1027.39,2.37 -804.77,2.25 -1300.71,5.15 -1302.21,8.91 l -0.87,2.6 c 0,0 -0.75,0.76 -0.81,1.57 l -0.06,0.17 c 0,0.87 -0.93,1.79 -0.93,1.79 -2.13,4.98 -465.77,646.16 -603.61,1525.81 -31.95,203.99 -46.42,420.76 -33.51,645.41 v 3.52 c 48.26,828.5 467.81,1762.26 1749.99,2554.76 1225.18,758.3 -77.25,1258.51 896.95,2102.81 643.28,556.58 1320.47,439.52 2016.4,322.46 515.54,-86.72 1041.39,-173.43 1571.29,13.69 219.43,78.07 440.6,202.71 661.77,394.03 124.6,107.92 260.64,202.71 406.3,283.49 22.86,13.14 44.79,25.46 67.59,36.86 87.78,45.61 178.17,86.86 272.09,123.73 62.27,24.59 126.33,47.39 191.31,68.45 103.53,34.2 209.72,63.2 317.7,86.86 153.58,35.13 312.43,60.59 473.88,78.13 70.25,7.92 141.38,14.06 213.31,18.46 1317.94,83.1 2792.74,-356.07 3631.54,-1016.05 46.5,-36.57 91,-73.84 133.5,-111.75 17.6,-15.74 41.9,-38.59 70.6,-68.16 195.7,-201.73 594.4,-715.14 429.8,-1409.38 -14,-59.2 -32.2,-119.79 -54.8,-181.54 -32.6,-88.42 -74.4,-179.33 -127.1,-272.55 -81.6,-144.79 -69.3,-286.97 4.4,-430.95 l 0.8,-0.87 h 0.1 c 4,-7.75 8.3,-15.5 12.7,-23.26 15.4,-27.14 33,-54.33 52.5,-81.59 11.1,-15.63 22.9,-31.2 35.4,-46.76 3,-3.88 6.2,-7.75 9.4,-11.69 6.3,-7.82 12.8,-15.56 19.4,-23.38 v -0.06 c 5.4,-6.25 10.8,-12.44 16.3,-18.69 5.4,-6.25 10.9,-12.5 16.7,-18.8 5.6,-6.25 11.4,-12.45 17.2,-18.7 5.8,-6.24 11.7,-12.49 17.7,-18.8 6,-6.25 12.1,-12.5 18.3,-18.75 6.1,-6.25 12.3,-12.5 18.6,-18.75 h 0.1 c 105.9,-105.15 135.1,-237.72 162.6,-392.62 10.7,-60.36 21.1,-124.19 35.7,-191.03 0.7,-2.95 1.4,-5.96 2,-8.97 12.5,-56.3 28.2,-114.75 49.6,-175.16 1,-2.96 2.1,-5.96 3.2,-8.97 19,-52.49 42.4,-106.48 71.9,-161.86 2.7,-5.15 5.5,-10.3 8.4,-15.45 v -0.06 c 2.2,-4.11 4.4,-8.16 6.8,-12.27 1.7,-3.01 3.4,-5.96 5.1,-8.97 2.9,-5.09 5.9,-10.18 9,-15.27 v -0.12 c 1.2,-2.08 2.5,-4.28 3.9,-6.42 21.1,-35.13 44.9,-70.77 71.7,-106.89 11.7,-15.85 24,-31.82 37,-47.85 69.2,-85.71 156,-174.07 265.7,-264.57 144.6,-119.33 329,-242.47 565.4,-368.62 37.7,-20.08 73.9,-40.45 108.8,-61.06 328.7,-194.14 534.6,-409.88 608.3,-653.33 10.4,-34.37 28,-101.55 45,-182.28 25.9,-123.72 50.3,-279.39 44.5,-397.84" /></g><g
         transform="scale(1.72742)"
         id="g22"><path
           id="path24"
           style="fill:#a8d29f;fill-opacity:1;fill-rule:nonzero;stroke:none"
           d="m 16299.7,3019.24 c 0.1,-1.45 0.2,-2.9 0.3,-4.34 -6.3,-123.08 -22.9,-239.38 -47.1,-348.73 l -650.7,-102.06 -134.3,-21.07 -76.4,-11.99 -529.4,-83.07 -47.4,-7.41 -106.4,-16.73 -27.7,-4.34 h -0.2 c 0,0 -22.8,-2.66 -62.4,-6.43 -3.3,-0.34 -6.8,-0.63 -10.3,-0.98 -26.3,-2.43 -59,-5.27 -96.4,-8.11 -14.1,-1.09 -28.9,-2.14 -44.2,-3.18 -2.9,-0.17 -5.8,-0.4 -8.7,-0.58 -21.5,-1.45 -44,-2.78 -67.5,-4.11 -48.4,-2.6 -100.7,-4.86 -155,-6.19 -21.1,-0.52 -42.6,-0.93 -64.3,-1.22 -11.3,-0.11 -22.7,-0.17 -34.1,-0.17 -13.7,-0.06 -27.5,-0.06 -41.3,0.06 -20.4,0.11 -41,0.46 -61.5,0.98 -15,0.35 -30.1,0.81 -45.1,1.33 -21,0.81 -41.9,1.86 -62.7,3.07 -3.2,0.17 -6.3,0.41 -9.5,0.64 -9.7,0.58 -19.4,1.21 -29,1.97 -47.7,3.59 -94.2,8.51 -138.5,15.05 -7.5,1.1 -14.8,2.25 -22.1,3.47 -166.6,27.21 -296.6,79.14 -326.6,172.11 -27.2,85.15 31.6,206.32 225.7,374.83 32.3,28.02 66,54.88 100.9,80.53 225.2,165.56 502.4,282.9 792.9,365.74 12,3.48 24.1,6.83 36.2,10.13 1.8,0.53 3.7,1.05 5.5,1.57 3.3,0.87 6.6,1.79 9.9,2.66 6.6,1.79 13.1,3.53 19.6,5.21 11.5,3.07 22.9,6.08 34.5,8.97 58,14.82 116.3,28.31 174.7,40.58 14.7,3.13 29.4,6.14 44.1,9.09 6.9,1.39 13.8,2.78 20.6,4.11 4.7,0.99 9.5,1.91 14.2,2.78 7.3,1.39 14.5,2.78 21.7,4.11 243.2,45.91 483.9,72.31 700.5,86.84 243.9,16.44 457.2,17.77 608.5,15.11 17.5,-42.26 32.5,-106.7 45,-182.36 19.9,-118.84 34.1,-265.54 44,-397.87" /></g><g
         transform="scale(1.34993)"
         id="g26"><path
           id="path28"
           style="fill:#f8fcff;fill-opacity:1;fill-rule:nonzero;stroke:none"
           d="m 11508.9,10865.4 c 0,0 239.6,495.4 812.5,440.3 0,0 831.6,825.7 1718.5,110.1 0,0 942.7,177.3 1640.8,-153.5 465.5,-220.6 619.3,-452 619.3,-452 l -4791.1,55.1" /></g><g
         transform="scale(1.41939)"
         id="g30"><path
           id="path32"
           style="fill:#f8fcff;fill-opacity:1;fill-rule:nonzero;stroke:none"
           d="m 10148.1,6141.57 c 0,0 307.6,533.26 1043.1,474.01 0,0 1067.9,888.78 2206.7,118.5 0,0 1210.5,190.85 2107,-165.29 597.7,-237.42 795.1,-486.47 795.1,-486.47 l -6151.9,59.25" /></g><g
         transform="scale(1.42197)"
         id="g34"><path
           id="path36"
           style="fill:#79b27f;fill-opacity:1;fill-rule:nonzero;stroke:none"
           d="m 15188.9,8479.13 c 0,0 -232.2,397.93 -786.6,299.4 -554.5,-98.53 -407,-739.2 -713.8,-1040.35 -306.9,-301.16 -574.5,-569.51 -442.7,-994.93 131.7,-425.46 -568,-516.39 -565.9,-1158.88 2,-642.42 151.5,-1021.12 1011.6,-1071.12 860.1,-50 2235.9,177.29 2422.2,436.44 186.3,259.14 155,828.07 -312.8,1554.04 -467.7,725.93 -40.4,791.07 -353,1211.46 -312.6,420.39 -92.5,590.81 -259,763.94" /></g><path
         id="path38"
         style="fill:#f8fcff;fill-opacity:1;fill-rule:nonzero;stroke:none"
         d="m 6731.48,13001.9 c 0,0 287.09,497.7 973.59,442.4 0,0 996.67,829.5 2059.5,110.6 0,0 1129.73,178.1 1966.43,-154.3 557.9,-221.6 742.1,-454 742.1,-454 l -5741.62,55.3" /><path
         id="path40"
         style="fill:#739af0;fill-opacity:1;fill-rule:nonzero;stroke:none"
         d="m 15912.4,4439.6 h -232.1 l 50,6580.8 h 117.6 l 64.5,-6580.8" /><path
         id="path42"
         style="fill:#7faaf7;fill-opacity:1;fill-rule:nonzero;stroke:none"
         d="M 15774.6,10985.3 14087,9540.2 l -655.9,-561.7 -49.7,50.2 580.8,644 951.3,1055 751.9,393.9 109.2,-136.3" /><path
         id="path44"
         style="fill:#f99746;fill-opacity:1;fill-rule:nonzero;stroke:none"
         d="m 14087,9540.2 -655.9,-561.7 -49.7,50.2 580.8,644 124.8,-132.5" /><path
         id="path46"
         style="fill:#7faaf7;fill-opacity:1;fill-rule:nonzero;stroke:none"
         d="m 15889.2,11082.7 -164.7,-58.5 -827.4,2109.6 -299.2,762.8 63.8,30.4 401.4,-730.2 700.7,-1274.6 125.4,-839.5" /><path
         id="path48"
         style="fill:#f99746;fill-opacity:1;fill-rule:nonzero;stroke:none"
         d="m 15063.1,13196.8 -166,-63 -299.2,762.8 63.8,30.4 401.4,-730.2" /><g
         transform="scale(1.15786)"
         id="g50"><path
           id="path52"
           style="fill:#7faaf7;fill-opacity:1;fill-rule:nonzero;stroke:none"
           d="m 16300,9473.07 -951.1,-65.76 -1020.1,-70.53 -703.5,206.39 14,150.27 1666,-99.83 993.9,-59.53 0.8,-61.01" /></g><g
         transform="scale(1.15786)"
         id="g54"><path
           id="path56"
           style="fill:#f99746;fill-opacity:1;fill-rule:nonzero;stroke:none"
           d="m 16300,9473.07 -985.2,-68.11 -9.5,188.65 993.9,-59.53 0.8,-61.01" /></g><path
         id="path58"
         style="fill:#2b478b;fill-opacity:1;fill-rule:nonzero;stroke:none"
         d="m 15785.2,11245.9 c -83.5,5 -155.3,-58.7 -160.3,-142.2 -5,-83.5 58.7,-155.3 142.2,-160.3 83.5,-5 155.3,58.7 160.3,142.2 5,83.5 -58.6,155.3 -142.2,160.3" /><g
         transform="scale(1.30702)"
         id="g60"><path
           id="path62"
           style="fill:#d4dfff;fill-opacity:1;fill-rule:nonzero;stroke:none"
           d="m 6135.36,2155.81 h 4392.84 l 1831.3,1.15 h 3311.7 c 0,0 2,3.37 5.7,10.02 2.6,4.75 6.2,11.1 10.9,19.21 l 1.8,2.37 c 0,0 0,0 0,1.22 0,0 1.8,1.3 1.8,2.45 7.3,9.72 12.7,20.74 20.1,33.97 3.7,6.12 7.3,13.47 12.8,20.74 0,1.14 0,1.14 0,2.44 1.8,1.23 1.8,1.23 1.8,1.23 25.1,43.38 56.2,99.84 92.1,168.09 3.3,6.2 6.5,12.39 9.9,18.75 17.9,51.56 37.6,109.25 58.5,172.83 49.8,154.4 107,342.76 162.8,555.38 21.9,83.94 43.8,171.39 64.5,262.59 12.2,52.63 24.4,107.41 36.1,162.73 3.4,16.3 6.8,32.52 10.1,48.74 21.5,103.59 41.7,210.4 59.9,319.5 35.8,213.54 64.1,436.11 80,661.73 -1422.5,-73.29 -4164.5,-266.33 -6227,-726.91 -2910.25,-650.03 -3629.45,-754.92 -4862.32,-871.6 -689.94,-65.19 97.32,-498.08 924.68,-866.63" /></g><g
         transform="scale(1.20859)"
         id="g64"><path
           id="path66"
           style="fill:#d4dfff;fill-opacity:1;fill-rule:nonzero;stroke:none"
           d="m 8635.61,3092.61 c 0,0 5097.39,1552.56 6380.79,1665 1283.6,112.45 54,-150.34 54,-150.34 0,0 -3488.5,-907.5 -4299.3,-1294.56 -1714.75,-818.48 -2135.49,-220.1 -2135.49,-220.1" /></g><g
         transform="scale(1.23993)"
         id="g68"><path
           id="path70"
           style="fill:#d4dfff;fill-opacity:1;fill-rule:nonzero;stroke:none"
           d="m 9918.09,2315.78 c 0,0 4140.91,1901.89 5261.41,2210.94 1120.5,309.05 72.2,-122.91 72.2,-122.91 0,0 -3269.5,-1704.94 -3954.4,-2135.37 -99.1,-62.34 -1379.21,47.34 -1379.21,47.34" /></g><path
         id="path72"
         style="fill:#ccdbfd;fill-opacity:1;fill-rule:nonzero;stroke:none"
         d="m 11311,5427.6 28.8,4775.8 -1110.2,-1072.2 -451.92,-435.3 -37.91,33.4 394.33,492.9 644.6,806.8 500.4,301.8 c -1.5,1.5 -1.5,1.5 -1.5,3 0,24.3 9.1,45.5 21.2,63.7 l -636.9,1378.6 -250.3,539.9 44,25.8 323.1,-512.6 564.1,-894.8 107.7,-506.5 h 2188.4 l 3.1,-51.6 -825,-106.2 -825.1,-107.6 -508,116.7 c -12.2,-22.7 -33.4,-39.4 -57.6,-48.5 l 36.3,-4696.9 c -53,-25.8 -104.6,-60.7 -151.6,-106.2" /><g
         transform="scale(1.40961)"
         id="g74"><path
           id="path76"
           style="fill:#739af0;fill-opacity:1;fill-rule:nonzero;stroke:none"
           d="m 16300,3341.77 h -209.7 l 45.1,6540.27 h 106.4 l 58.2,-6540.27" /></g><g
         transform="scale(1.51009)"
         id="g78"><path
           id="path80"
           style="fill:#83affc;fill-opacity:1;fill-rule:nonzero;stroke:none"
           d="m 15078.4,9419.04 840.1,1674.76 326.5,650.9 55,-22.8 -241.2,-690.4 -395.1,-1130.93 -455.8,-551.81 -129.5,70.28" /></g><g
         transform="scale(1.51009)"
         id="g82"><path
           id="path84"
           style="fill:#f99746;fill-opacity:1;fill-rule:nonzero;stroke:none"
           d="m 15918.5,11093.8 326.5,650.9 55,-22.8 -241.2,-690.4 -140.3,62.3" /></g><g
         transform="scale(1.56976)"
         id="g86"><path
           id="path88"
           style="fill:#83affc;fill-opacity:1;fill-rule:nonzero;stroke:none"
           d="m 14450.2,8952.17 104.8,95.51 1281.6,-1317.86 463.4,-476.5 -38.1,-42.73 -529.6,419.98 -924.6,733.1 -357.5,588.5" /></g><g
         transform="scale(1.56976)"
         id="g90"><path
           id="path92"
           style="fill:#f99746;fill-opacity:1;fill-rule:nonzero;stroke:none"
           d="m 15732.3,7630.57 104.3,99.25 463.4,-476.5 -38.1,-42.73 -529.6,419.98" /></g><g
         transform="scale(1.40285)"
         id="g94"><path
           id="path96"
           style="fill:#83affc;fill-opacity:1;fill-rule:nonzero;stroke:none"
           d="m 13632,9063.79 894.9,450.91 959.8,483.58 765.6,86.32 47.7,-151.25 -1655.1,-581.47 -987.3,-346.9 -25.6,58.81" /></g><g
         transform="scale(1.2604)"
         id="g98"><path
           id="path100"
           style="fill:#f99746;fill-opacity:1;fill-rule:nonzero;stroke:none"
           d="m 15172.7,10088.2 1031.6,519.8 95.7,-199.2 -1098.9,-386.1 -28.4,65.5" /></g><g
         transform="scale(1.41345)"
         id="g102"><path
           id="path104"
           style="fill:#2b478b;fill-opacity:1;fill-rule:nonzero;stroke:none"
           d="m 16191.5,9842.96 c 71.1,24.99 108.5,102.9 83.5,174.04 -24.9,71.1 -102.8,108.5 -174,83.5 -71.1,-25 -108.5,-102.88 -83.5,-174.01 25,-71.12 102.9,-108.52 174,-83.53" /></g><g
         transform="scale(1.13313)"
         id="g106"><path
           id="path108"
           style="fill:#a8d29f;fill-opacity:1;fill-rule:nonzero;stroke:none"
           d="m 16300,3710.7 c 0,0 -1094.2,325.2 -1734.8,-73.34 -640.7,-398.63 -261.7,-857.36 -1019.7,-817.47 -757.9,39.89 -1136.8,78.19 -1176.7,-369.77 h 3350.8 L 16300,3710.7" /></g><g
         transform="scale(1.45483)"
         id="g110"><path
           id="path112"
           style="fill:#f9ddbf;fill-opacity:1;fill-rule:nonzero;stroke:none"
           d="M 16300,5930.85 V 1914.44 H 13435.5 V 5930.85 H 16300" /></g><g
         transform="scale(1.65348)"
         id="g114"><path
           id="path116"
           style="fill:#fff3e9;fill-opacity:1;fill-rule:nonzero;stroke:none"
           d="M 16300,5124.29 V 1684.75 h -1958.3 v 3534.07 h 1873 c 29.4,-31.21 57.8,-62.42 85.3,-94.53" /></g><g
         transform="scale(1.50433)"
         id="g118"><path
           id="path120"
           style="fill:#ed9f4a;fill-opacity:1;fill-rule:nonzero;stroke:none"
           d="m 16300,7004.51 -218.7,-450.67 -96.8,-198.56 -3,-8.12 -4.1,-7.04 -3,-6.05 -5,-10.1 -2,-4.99 -95.8,-196.63 -5.1,-10.11 -12.1,-26.19 -170.4,-349.79 -39.2,-81.7 -55.5,-112.87 -29.2,-60.49 h -2757.3 l 190.5,246.95 6,8.11 1240,1604.97 1,1.01 h 109 l 1681.5,6.04 c 59.5,-113.91 153.3,-228.86 269.2,-343.77" /></g><g
         transform="scale(1.45483)"
         id="g122"><path
           id="path124"
           style="fill:#f9ddbf;fill-opacity:1;fill-rule:nonzero;stroke:none"
           d="m 16300,5686.56 v -333.99 l -2864.5,-121.05 v 435.65 h -84.8 L 14837.3,7592.43 16300,5686.56" /></g><g
         transform="scale(1.35837)"
         id="g126"><path
           id="path128"
           style="fill:#efcdaf;fill-opacity:1;fill-rule:nonzero;stroke:none"
           d="m 15918.3,7104.38 h -64.1 c -217.9,0 -394.5,-176.69 -394.5,-394.52 V 5707.34 h 840.3 v 1015.33 c 0,210.76 -170.9,381.71 -381.7,381.71" /></g><g
         transform="scale(1.67679)"
         id="g130"><path
           id="path132"
           style="fill:#f99746;fill-opacity:1;fill-rule:nonzero;stroke:none"
           d="m 16300,4824.29 h -2203.3 l -111.2,147.43 -131.2,174.56 -1032,1375.68 -47.9,64.21 -5.4,7.23 h 2203.2 l 5.4,-7.23 48,-64.21 1032,-1375.68 131.1,-174.56 111.3,-147.43" /></g><g
         transform="scale(1.29654)"
         id="g134"><path
           id="path136"
           style="fill:#ed9f4a;fill-opacity:1;fill-rule:nonzero;stroke:none"
           d="m 16300,5753.47 -749.8,-1543.65 h -2277.9 l 1187.6,1538.02 1840.1,5.63" /></g><g
         transform="scale(1.30197)"
         id="g138"><path
           id="path140"
           style="fill:#f9ddbf;fill-opacity:1;fill-rule:nonzero;stroke:none"
           d="M 16300,5729.48 15553.4,4192.26 H 13285 l 1182.5,1531.61 1832.5,5.61" /></g><g
         transform="scale(1.24193)"
         id="g142"><path
           id="path144"
           style="fill:#f9ddbf;fill-opacity:1;fill-rule:nonzero;stroke:none"
           d="M 16300,4394.92 V 2247.06 l -2372.8,-4.59 V 4394.92 H 16300" /></g><g
         transform="scale(1.39502)"
         id="g146"><path
           id="path148"
           style="fill:#fff3e9;fill-opacity:1;fill-rule:nonzero;stroke:none"
           d="M 16300,3912.62 V 2000.47 H 14511.2 V 3912.62 H 16300" /></g><g
         transform="scale(1.41185)"
         id="g150"><path
           id="path152"
           style="fill:#f99746;fill-opacity:1;fill-rule:nonzero;stroke:none"
           d="m 16300,3782.19 h -1898.8 l -1122.3,1496.27 565.6,-0.15 1300.5,-0.28 1155,-1495.84" /></g><g
         transform="scale(1.15872)"
         id="g154"><path
           id="path156"
           style="fill:#efcdaf;fill-opacity:1;fill-rule:nonzero;stroke:none"
           d="m 16059.5,5472.57 c 0,66.45 53.8,120.22 120.3,120.22 66.3,0 120.2,-53.77 120.2,-120.22 0,-66.36 -53.9,-120.22 -120.2,-120.22 -66.5,0 -120.3,53.86 -120.3,120.22" /></g><g
         transform="scale(1.41185)"
         id="g158"><path
           id="path160"
           style="fill:#e88338;fill-opacity:1;fill-rule:nonzero;stroke:none"
           d="m 16300,3782.19 h -360.4 l -2095.1,1496.12 1300.5,-0.28 1155,-1495.84" /></g><g
         transform="scale(1.61805)"
         id="g162"><path
           id="path164"
           style="fill:#2b478b;fill-opacity:1;fill-rule:nonzero;stroke:none"
           d="M 15046.5,5281.98 H 16300 l -661.3,810.91 h -1253.5 l 661.3,-810.91" /></g><g
         transform="scale(1.56936)"
         id="g166"><path
           id="path168"
           style="fill:#aec3ff;fill-opacity:1;fill-rule:nonzero;stroke:none"
           d="M 15007.6,6061.72 H 16300 l -8,9.81 h -1292.4 l 8,-9.81" /></g><g
         transform="scale(1.58975)"
         id="g170"><path
           id="path172"
           style="fill:#aec3ff;fill-opacity:1;fill-rule:nonzero;stroke:none"
           d="m 15617.2,6201.42 673,-825.41 h 9.8 l -673.1,825.41 h -9.7" /></g><g
         transform="scale(1.55678)"
         id="g174"><path
           id="path176"
           style="fill:#aec3ff;fill-opacity:1;fill-rule:nonzero;stroke:none"
           d="m 15602.8,6332.75 687.3,-842.89 h 9.9 l -687.3,842.89 h -9.9" /></g><g
         transform="scale(1.52506)"
         id="g178"><path
           id="path180"
           style="fill:#aec3ff;fill-opacity:1;fill-rule:nonzero;stroke:none"
           d="m 15588.3,6464.49 701.6,-860.43 h 10.1 l -701.6,860.43 h -10.1" /></g><g
         transform="scale(1.58561)"
         id="g182"><path
           id="path184"
           style="fill:#aec3ff;fill-opacity:1;fill-rule:nonzero;stroke:none"
           d="M 15020.9,5798.89 H 16300 l -7.9,9.78 h -1279.2 l 8,-9.78" /></g><g
         transform="scale(1.60279)"
         id="g186"><path
           id="path188"
           style="fill:#aec3ff;fill-opacity:1;fill-rule:nonzero;stroke:none"
           d="M 15034.5,5522.64 H 16300 l -7.9,9.6 h -1265.4 l 7.8,-9.6" /></g><g
         transform="scale(1.54459)"
         id="g190"><path
           id="path192"
           style="fill:#aec3ff;fill-opacity:1;fill-rule:nonzero;stroke:none"
           d="m 16292.4,6122.34 7.6,40.85 -74.3,40.99 -7.5,-40.99 74.2,-40.85" /></g><g
         transform="scale(1.51198)"
         id="g194"><path
           id="path196"
           style="fill:#aec3ff;fill-opacity:1;fill-rule:nonzero;stroke:none"
           d="m 16292.3,6254.4 7.7,41.74 -75.9,41.86 -7.7,-41.86 75.9,-41.74" /></g><g
         transform="scale(1.47978)"
         id="g198"><path
           id="path200"
           style="fill:#aec3ff;fill-opacity:1;fill-rule:nonzero;stroke:none"
           d="m 16292.1,6390.48 7.9,42.64 -77.6,42.78 -7.8,-42.78 77.5,-42.64" /></g><g
         transform="scale(1.56045)"
         id="g202"><path
           id="path204"
           style="fill:#aec3ff;fill-opacity:1;fill-rule:nonzero;stroke:none"
           d="m 16292.6,5856.84 7.4,40.51 -73.5,40.5 -7.5,-40.5 73.6,-40.51" /></g><g
         transform="scale(1.52783)"
         id="g206"><path
           id="path208"
           style="fill:#aec3ff;fill-opacity:1;fill-rule:nonzero;stroke:none"
           d="m 16292.4,5981.87 7.6,41.36 -75.1,41.37 -7.6,-41.37 75.1,-41.36" /></g><g
         transform="scale(1.49564)"
         id="g210"><path
           id="path212"
           style="fill:#aec3ff;fill-opacity:1;fill-rule:nonzero;stroke:none"
           d="m 16292.2,6110.64 7.8,42.25 -76.7,42.26 -7.8,-42.26 76.7,-42.25" /></g><g
         transform="scale(1.57762)"
         id="g214"><path
           id="path216"
           style="fill:#aec3ff;fill-opacity:1;fill-rule:nonzero;stroke:none"
           d="m 16292.6,5575.55 7.4,40.06 -72.7,40.06 -7.4,-40.06 72.7,-40.06" /></g><g
         transform="scale(1.54501)"
         id="g218"><path
           id="path220"
           style="fill:#aec3ff;fill-opacity:1;fill-rule:nonzero;stroke:none"
           d="m 16292.4,5693.25 7.6,40.9 -74.2,40.91 -7.6,-40.91 74.2,-40.9" /></g><g
         transform="scale(1.51281)"
         id="g222"><path
           id="path224"
           style="fill:#aec3ff;fill-opacity:1;fill-rule:nonzero;stroke:none"
           d="m 16292.3,5814.41 7.7,41.78 -75.8,41.78 -7.8,-41.78 75.9,-41.78" /></g><g
         transform="scale(1.3715)"
         id="g226"><path
           id="path228"
           style="fill:#2b478b;fill-opacity:1;fill-rule:nonzero;stroke:none"
           d="m 14960,4190.09 h 1340 l -706.9,866.94 h -1340 l 706.9,-866.94" /></g><g
         transform="scale(1.32737)"
         id="g230"><path
           id="path232"
           style="fill:#aec3ff;fill-opacity:1;fill-rule:nonzero;stroke:none"
           d="M 14915.5,4989.17 H 16300 l -8.6,10.55 h -1384.5 l 8.6,-10.55" /></g><g
         transform="scale(1.34585)"
         id="g234"><path
           id="path236"
           style="fill:#aec3ff;fill-opacity:1;fill-rule:nonzero;stroke:none"
           d="m 15569.2,5153.39 720.4,-883.46 h 10.4 l -720.4,883.46 h -10.4" /></g><g
         transform="scale(1.31598)"
         id="g238"><path
           id="path240"
           style="fill:#aec3ff;fill-opacity:1;fill-rule:nonzero;stroke:none"
           d="m 15552.7,5270.39 736.7,-903.52 h 10.6 l -736.6,903.52 h -10.7" /></g><g
         transform="scale(1.28723)"
         id="g242"><path
           id="path244"
           style="fill:#aec3ff;fill-opacity:1;fill-rule:nonzero;stroke:none"
           d="m 15536,5388.07 753.1,-923.69 h 10.9 l -753.2,923.69 h -10.8" /></g><g
         transform="scale(1.3421)"
         id="g246"><path
           id="path248"
           style="fill:#aec3ff;fill-opacity:1;fill-rule:nonzero;stroke:none"
           d="M 14930.7,4719.6 H 16300 l -8.5,10.43 h -1369.3 l 8.5,-10.43" /></g><g
         transform="scale(1.35766)"
         id="g250"><path
           id="path252"
           style="fill:#aec3ff;fill-opacity:1;fill-rule:nonzero;stroke:none"
           d="M 14946.3,4436.45 H 16300 l -8.4,10.31 H 14938 l 8.3,-10.31" /></g><g
         transform="scale(1.30493)"
         id="g254"><path
           id="path256"
           style="fill:#aec3ff;fill-opacity:1;fill-rule:nonzero;stroke:none"
           d="m 16291.9,5035.74 8.1,43.83 -79.7,43.91 -8.1,-43.91 79.7,-43.83" /></g><g
         transform="scale(1.27538)"
         id="g258"><path
           id="path260"
           style="fill:#aec3ff;fill-opacity:1;fill-rule:nonzero;stroke:none"
           d="m 16291.7,5152.42 8.3,44.85 -81.5,44.93 -8.3,-44.93 81.5,-44.85" /></g><g
         transform="scale(1.24621)"
         id="g262"><path
           id="path264"
           style="fill:#aec3ff;fill-opacity:1;fill-rule:nonzero;stroke:none"
           d="m 16291.5,5273.03 8.5,45.9 -83.5,45.98 -8.5,-45.98 83.5,-45.9" /></g><g
         transform="scale(1.31931)"
         id="g266"><path
           id="path268"
           style="fill:#aec3ff;fill-opacity:1;fill-rule:nonzero;stroke:none"
           d="m 16292,4763.03 8,43.43 -78.8,43.44 -8.1,-43.44 78.9,-43.43" /></g><g
         transform="scale(1.28975)"
         id="g270"><path
           id="path272"
           style="fill:#aec3ff;fill-opacity:1;fill-rule:nonzero;stroke:none"
           d="m 16291.8,4872.17 8.2,44.42 -80.6,44.43 -8.2,-44.43 80.6,-44.42" /></g><g
         transform="scale(1.26058)"
         id="g274"><path
           id="path276"
           style="fill:#aec3ff;fill-opacity:1;fill-rule:nonzero;stroke:none"
           d="m 16291.6,4984.92 8.4,45.45 -82.5,45.46 -8.4,-45.46 82.5,-45.45" /></g><g
         transform="scale(1.33487)"
         id="g278"><path
           id="path280"
           style="fill:#aec3ff;fill-opacity:1;fill-rule:nonzero;stroke:none"
           d="m 16292.1,4474.54 7.9,42.92 -77.9,42.93 -7.9,-42.93 77.9,-42.92" /></g><g
         transform="scale(1.30531)"
         id="g282"><path
           id="path284"
           style="fill:#aec3ff;fill-opacity:1;fill-rule:nonzero;stroke:none"
           d="m 16291.9,4575.84 8.1,43.89 -79.7,43.9 -8.1,-43.9 79.7,-43.89" /></g><g
         transform="scale(1.27613)"
         id="g286"><path
           id="path288"
           style="fill:#aec3ff;fill-opacity:1;fill-rule:nonzero;stroke:none"
           d="m 16291.8,4680.46 8.2,44.9 -81.4,44.9 -8.3,-44.9 81.5,-44.9" /></g><path
         id="path290"
         style="fill:#a8d29f;fill-opacity:1;fill-rule:nonzero;stroke:none"
         d="m 9836.25,2817.7 c -0.61,-1.7 -1.21,-3.3 -1.81,-5 H 2878.95 l -0.11,0.3 c 0,1.5 -1.59,3.1 -1.59,3.1 -3.71,8.6 -804.91,1116.6 -1043.1,2636.7 174.09,66.9 788.79,274.7 1653.59,252.2 34.8,-0.9 70,-2.2 105.6,-3.9 319.1,-14.9 669.8,-61.8 1043.11,-158.1 13.1,-3.4 26.29,-6.8 39.5,-10.3 3.69,-1 7.39,-2 11.1,-3 26.4,-7.1 52.79,-14.4 79.4,-22 29.8,-8.5 59.59,-17.3 89.69,-26.4 10.71,-3.3 21.5,-6.6 32.31,-9.9 39.79,-12.4 79.79,-25.4 120.09,-38.9 469.8,-158.1 761.3,-328.5 964.2,-493.2 4.2,-3.4 8.4,-6.8 12.61,-10.2 97.39,-80.5 174.09,-159.6 240.39,-235.1 18.1,-20.6 35.51,-40.9 52.3,-60.9 20.8,-24.9 40.8,-49.3 60.41,-73.2 65.7,-80.2 126.39,-154.2 197.59,-218.8 196.4,-178.7 472.5,-286.7 1153.31,-259.6 122.1,4.9 238.79,6 350.29,3.6 1463.9,-30.5 2020.56,-657.9 1796.61,-1267.4" /><g
         transform="scale(1.72745)"
         id="g292"><path
           id="path294"
           style="fill:#a8d29f;fill-opacity:1;fill-rule:nonzero;stroke:none"
           d="m 16300,3019.08 -0.6,0.11 c -154.5,30.86 -397.1,68.02 -697.4,76.94 -186.1,5.56 -394.4,0.29 -617.5,-24.03 -7.9,-0.86 -15.8,-1.73 -23.8,-2.6 -23.2,-2.72 -46.7,-5.56 -70.3,-8.68 -51.5,-6.72 -103.8,-14.53 -156.6,-23.45 h -0.2 c -15.8,-2.66 -31.4,-5.38 -47.3,-8.28 -16.9,-3.01 -33.9,-6.19 -51,-9.49 -36.6,-7.06 -73.5,-14.7 -110.7,-22.92 -16.3,-3.59 -32.7,-7.36 -49.1,-11.24 -16.5,-3.76 -32.9,-7.75 -49.5,-11.8 -20,-4.98 -40.1,-10.08 -60.2,-15.34 h -0.1 c -6.3,-1.68 -12.6,-3.36 -18.8,-5.04 h -0.1 c -18.4,-4.98 -37,-10.07 -55.5,-15.34 -75.1,-21.25 -151,-45.04 -227.4,-71.61 -125.4,-43.3 -236.7,-85.96 -336.3,-127.53 -126.4,-52.62 -233.8,-103.5 -326.6,-151.61 -91.6,-47.35 -169.4,-92.33 -237.7,-134.3 -370,-227.39 -461.2,-367.71 -965.9,-328.41 -45,3.42 -88,4.81 -129.3,4.23 -135.2,-1.74 -250.9,-23.56 -349.4,-57.19 -197.4,-67.39 -325.6,-182.41 -403.6,-278.39 -64.2,-79.08 -94.4,-145.19 -101.2,-161.05 -1.1,-2.37 -1.5,-3.65 -1.5,-3.65 h 102.7 403.6 1444.6 564.3 144.1 101.1 1242.6 101.1 285.5 104.5 c 83.4,89.56 417.9,459.18 546.1,1037.72 24.3,109.35 40.9,225.65 47.2,348.72 l 0.2,4.23" /></g><path
         id="path296"
         style="fill:#f8fcff;fill-opacity:1;fill-rule:nonzero;stroke:none"
         d="m 5373.92,9362.4 c 0,0 167.6,313.5 568.39,278.7 0,0 581.87,522.5 1202.37,69.7 0,0 659.58,112.1 1148.05,-97.2 325.68,-139.6 433.25,-286 433.25,-286 l -3352.06,34.8" /><path
         id="path298"
         style="fill:#f8fcff;fill-opacity:1;fill-rule:nonzero;stroke:none"
         d="m 11628.2,12064.2 c 0,0 138.8,298.1 470.7,265 0,0 481.9,496.9 995.7,66.3 0,0 546.2,106.7 950.7,-92.4 269.7,-132.8 358.8,-272 358.8,-272 l -2775.9,33.1" /><path
         id="path300"
         style="fill:#1d3f77;fill-opacity:1;fill-rule:nonzero;stroke:none"
         d="m 5785.94,2861.3 396.11,4.9 925.09,3854.8 -396.11,-5 -925.09,-3854.7" /><path
         id="path302"
         style="fill:#1d3f77;fill-opacity:1;fill-rule:nonzero;stroke:none"
         d="m 5131.56,2775.5 h 1776.3 c 0,103.9 -84.25,188.2 -188.17,188.2 H 5319.74 c -103.93,0 -188.18,-84.3 -188.18,-188.2" /><path
         id="path304"
         style="fill:#1d3f77;fill-opacity:1;fill-rule:nonzero;stroke:none"
         d="m 9234.87,4560.3 -170.61,855.3 -0.36,1.8 -567.77,2846.6 -5518.63,-0.8 738.75,-3703.7 1048.24,0.1 h 9.86 l 1173.12,0.2 h 3.58 l 1167.99,0.1 8.01,0.1 1165.44,0.1 h 10.56 l 931.82,0.2" /><path
         id="path306"
         style="fill:#2a4e96;fill-opacity:1;fill-rule:nonzero;stroke:none"
         d="m 9329.39,4633.5 -5518.62,-0.8 -738.74,3630.5 5518.62,0.8 738.74,-3630.5" /><path
         id="path308"
         style="fill:#c0d8fb;fill-opacity:1;fill-rule:nonzero;stroke:none"
         d="m 4869.57,4632.8 h -10.56 l -736.76,3620.8 h 10.56 l 736.76,-3620.8" /><path
         id="path310"
         style="fill:#c0d8fb;fill-opacity:1;fill-rule:nonzero;stroke:none"
         d="m 6045.57,4633 h -10.56 l -736.76,3620.7 h 10.56 L 6045.57,4633" /><path
         id="path312"
         style="fill:#c0d8fb;fill-opacity:1;fill-rule:nonzero;stroke:none"
         d="m 7221.57,4633.2 h -10.56 l -736.76,3620.7 h 10.56 l 736.76,-3620.7" /><path
         id="path314"
         style="fill:#c0d8fb;fill-opacity:1;fill-rule:nonzero;stroke:none"
         d="m 8397.57,4633.3 h -10.56 l -736.76,3620.8 h 10.56 l 736.76,-3620.8" /><path
         id="path316"
         style="fill:#c0d8fb;fill-opacity:1;fill-rule:nonzero;stroke:none"
         d="m 8765.97,7402.4 -5518.62,-0.8 -2.02,9.9 5518.62,0.8 2.02,-9.9" /><path
         id="path318"
         style="fill:#c0d8fb;fill-opacity:1;fill-rule:nonzero;stroke:none"
         d="m 8962.38,6437.1 -5518.63,-0.7 -2.01,9.9 5518.62,0.8 2.02,-10" /><path
         id="path320"
         style="fill:#c0d8fb;fill-opacity:1;fill-rule:nonzero;stroke:none"
         d="m 9158.78,5471.9 -5518.62,-0.7 -2.02,9.9 5518.62,0.8 2.02,-10" /><path
         id="path322"
         style="fill:#c0d8fb;fill-opacity:1;fill-rule:nonzero;stroke:none"
         d="m 4321.57,7300 -135.32,106.7 91.89,106.7 135.32,-106.7 -91.89,-106.7" /><path
         id="path324"
         style="fill:#c0d8fb;fill-opacity:1;fill-rule:nonzero;stroke:none"
         d="m 4518.99,6329.8 -135.32,106.7 91.89,106.7 135.32,-106.7 -91.89,-106.7" /><path
         id="path326"
         style="fill:#c0d8fb;fill-opacity:1;fill-rule:nonzero;stroke:none"
         d="m 5502.85,7300.1 -135.32,106.7 91.89,106.8 135.32,-106.7 -91.89,-106.8" /><path
         id="path328"
         style="fill:#c0d8fb;fill-opacity:1;fill-rule:nonzero;stroke:none"
         d="m 5700.27,6330 -135.32,106.7 91.89,106.7 135.32,-106.7 -91.89,-106.7" /><path
         id="path330"
         style="fill:#c0d8fb;fill-opacity:1;fill-rule:nonzero;stroke:none"
         d="m 6678.85,7300.3 -135.31,106.7 91.88,106.7 135.32,-106.7 -91.89,-106.7" /><path
         id="path332"
         style="fill:#c0d8fb;fill-opacity:1;fill-rule:nonzero;stroke:none"
         d="m 7844.3,7300.5 -135.33,106.7 91.89,106.7 135.33,-106.7 -91.89,-106.7" /><path
         id="path334"
         style="fill:#c0d8fb;fill-opacity:1;fill-rule:nonzero;stroke:none"
         d="m 4714.38,5369.5 -135.32,106.7 91.89,106.8 135.32,-106.7 -91.89,-106.8" /><path
         id="path336"
         style="fill:#c0d8fb;fill-opacity:1;fill-rule:nonzero;stroke:none"
         d="m 5895.66,5369.7 -135.32,106.7 91.89,106.7 135.32,-106.7 -91.89,-106.7" /><path
         id="path338"
         style="fill:#c0d8fb;fill-opacity:1;fill-rule:nonzero;stroke:none"
         d="m 7071.67,5369.9 -135.33,106.7 91.89,106.7 135.32,-106.7 -91.88,-106.7" /><path
         id="path340"
         style="fill:#c0d8fb;fill-opacity:1;fill-rule:nonzero;stroke:none"
         d="m 8237.11,5370 -135.32,106.7 91.89,106.8 135.31,-106.7 -91.88,-106.8" /><path
         id="path342"
         style="fill:#c0d8fb;fill-opacity:1;fill-rule:nonzero;stroke:none"
         d="m 8041.71,6330.3 -135.32,106.7 91.89,106.7 135.32,-106.7 -91.89,-106.7" /><path
         id="path344"
         style="fill:#c0d8fb;fill-opacity:1;fill-rule:nonzero;stroke:none"
         d="m 6876.27,6330.1 -135.32,106.7 91.89,106.8 135.32,-106.7 -91.89,-106.8" /><path
         id="path346"
         style="fill:#1d3f77;fill-opacity:1;fill-rule:nonzero;stroke:none"
         d="m 11530.5,2834.4 272,3.4 635.1,2646.6 -272,-3.4 -635.1,-2646.6" /><path
         id="path348"
         style="fill:#1d3f77;fill-opacity:1;fill-rule:nonzero;stroke:none"
         d="m 11081.2,2775.5 h 1219.6 c 0,71.3 -57.9,129.2 -129.2,129.2 h -961.2 c -71.3,0 -129.2,-57.9 -129.2,-129.2" /><path
         id="path350"
         style="fill:#1d3f77;fill-opacity:1;fill-rule:nonzero;stroke:none"
         d="m 13898.5,4000.9 -117.2,587.2 -0.2,1.3 -389.8,1954.3 -3789,-0.5 507.2,-2542.9 719.7,0.1 h 6.8 l 805.4,0.1 h 2.5 l 801.9,0.1 5.5,0.1 800.1,0.1 h 7.3 v 0 l 639.8,0.1" /><path
         id="path352"
         style="fill:#2a4e96;fill-opacity:1;fill-rule:nonzero;stroke:none"
         d="m 13963.3,4051.1 -3788.9,-0.5 -507.2,2492.6 3788.9,0.5 507.2,-2492.6" /><path
         id="path354"
         style="fill:#c0d8fb;fill-opacity:1;fill-rule:nonzero;stroke:none"
         d="m 10901.3,4050.7 h -7.2 l -505.8,2485.9 h 7.2 l 505.8,-2485.9" /><path
         id="path356"
         style="fill:#c0d8fb;fill-opacity:1;fill-rule:nonzero;stroke:none"
         d="m 11708.8,4050.8 h -7.3 l -505.8,2485.9 h 7.2 l 505.9,-2485.9" /><path
         id="path358"
         style="fill:#c0d8fb;fill-opacity:1;fill-rule:nonzero;stroke:none"
         d="m 12516.2,4050.9 h -7.3 l -505.8,2485.9 h 7.2 l 505.9,-2485.9" /><path
         id="path360"
         style="fill:#c0d8fb;fill-opacity:1;fill-rule:nonzero;stroke:none"
         d="m 13323.6,4051 h -7.3 l -505.8,2485.9 h 7.2 L 13323.6,4051" /><path
         id="path362"
         style="fill:#c0d8fb;fill-opacity:1;fill-rule:nonzero;stroke:none"
         d="m 13576.5,5952.2 -3788.93,-0.6 -1.38,6.9 3788.91,0.5 1.4,-6.8" /><path
         id="path364"
         style="fill:#c0d8fb;fill-opacity:1;fill-rule:nonzero;stroke:none"
         d="m 13711.4,5289.5 -3788.98,-0.6 -1.38,6.9 3788.96,0.5 1.4,-6.8" /><path
         id="path366"
         style="fill:#c0d8fb;fill-opacity:1;fill-rule:nonzero;stroke:none"
         d="m 13846.2,4626.8 -3788.9,-0.5 -1.4,6.8 3788.9,0.5 1.4,-6.8" /><path
         id="path368"
         style="fill:#c0d8fb;fill-opacity:1;fill-rule:nonzero;stroke:none"
         d="m 10525.1,5881.9 -92.9,73.2 63.1,73.3 92.9,-73.2 -63.1,-73.3" /><path
         id="path370"
         style="fill:#c0d8fb;fill-opacity:1;fill-rule:nonzero;stroke:none"
         d="m 10660.6,5215.8 -92.9,73.2 63.1,73.3 92.9,-73.2 -63.1,-73.3" /><path
         id="path372"
         style="fill:#c0d8fb;fill-opacity:1;fill-rule:nonzero;stroke:none"
         d="m 11336.1,5882 -92.9,73.3 63.1,73.2 92.9,-73.2 -63.1,-73.3" /><path
         id="path374"
         style="fill:#c0d8fb;fill-opacity:1;fill-rule:nonzero;stroke:none"
         d="m 11471.7,5215.9 -92.9,73.3 63.1,73.2 92.9,-73.2 -63.1,-73.3" /><path
         id="path376"
         style="fill:#c0d8fb;fill-opacity:1;fill-rule:nonzero;stroke:none"
         d="m 12143.6,5882.1 -93,73.3 63.1,73.3 92.9,-73.3 -63,-73.3" /><path
         id="path378"
         style="fill:#c0d8fb;fill-opacity:1;fill-rule:nonzero;stroke:none"
         d="m 12943.7,5882.2 -92.9,73.3 63.1,73.3 92.9,-73.3 -63.1,-73.3" /><path
         id="path380"
         style="fill:#c0d8fb;fill-opacity:1;fill-rule:nonzero;stroke:none"
         d="m 10794.8,4556.5 -92.9,73.3 63.1,73.2 92.9,-73.2 -63.1,-73.3" /><path
         id="path382"
         style="fill:#c0d8fb;fill-opacity:1;fill-rule:nonzero;stroke:none"
         d="m 11605.8,4556.6 -92.9,73.3 63.1,73.3 92.9,-73.3 -63.1,-73.3" /><path
         id="path384"
         style="fill:#c0d8fb;fill-opacity:1;fill-rule:nonzero;stroke:none"
         d="m 12413.3,4556.7 -93,73.3 63.1,73.3 92.9,-73.3 -63,-73.3" /><path
         id="path386"
         style="fill:#c0d8fb;fill-opacity:1;fill-rule:nonzero;stroke:none"
         d="m 13213.4,4556.8 -92.9,73.3 63.1,73.3 92.9,-73.3 -63.1,-73.3" /><path
         id="path388"
         style="fill:#c0d8fb;fill-opacity:1;fill-rule:nonzero;stroke:none"
         d="m 13079.3,5216.1 -92.9,73.3 63,73.3 92.9,-73.3 -63,-73.3" /><path
         id="path390"
         style="fill:#c0d8fb;fill-opacity:1;fill-rule:nonzero;stroke:none"
         d="m 12279.1,5216 -92.9,73.3 63.1,73.2 92.9,-73.2 -63.1,-73.3" /><g
         transform="scale(1.08728)"
         id="g392"><path
           id="path394"
           style="fill:#e8945b;fill-opacity:1;fill-rule:nonzero;stroke:none"
           d="m 15913.7,3424.87 82.9,16.19 c 0,0 -198.1,783.79 -171,848.44 22,53.72 250.5,92.53 362.4,186.43 24,20.05 42.1,42.03 52.4,67.23 59.6,145.69 -37.5,253.76 -37.5,253.76 0,0 -203.2,-46.63 -387.7,-125.55 -131.3,-56.28 -253,-129.49 -286.7,-214.2 -80.8,-205.19 385.2,-1032.3 385.2,-1032.3" /></g><g
         transform="scale(1.07118)"
         id="g396"><path
           id="path398"
           style="fill:#415da5;fill-opacity:1;fill-rule:nonzero;stroke:none"
           d="m 15924,3353.69 c 1.3,8.31 6.8,15.69 14.9,20.17 20.1,11.01 61.1,26.88 91.7,67.86 17.3,22.97 88.6,91.12 88.6,91.12 l 0.4,0.19 c 1.8,0.46 11.2,0.28 56.4,-18.21 23.4,-9.52 47.6,34.36 47.6,34.36 0,0 7.5,-2.99 14.4,-10.37 5.5,-5.69 10.7,-14.28 11.4,-26.32 1.2,-16.81 18.7,-44.25 31.7,-62.45 7.8,-11.12 14,-18.77 14,-18.77 0,0 4.9,-9.52 -34.9,-24.55 l -47.5,-12.33 c -16.5,-1.86 -29.3,-0.83 -46.2,-3.17 -25.5,-3.55 -34.6,-15.5 -36.4,-18.2 l -0.3,-0.47 -202.1,-52.28 c -6.7,5.14 -5.7,21.28 -3.7,33.42" /></g><g
         transform="scale(1.0229)"
         id="g400"><path
           id="path402"
           style="fill:#2c3a64;fill-opacity:1;fill-rule:nonzero;stroke:none"
           d="m 16260.6,3478.73 c 21.7,0 39.4,17.6 39.4,39.3 0,487.93 -397,884.93 -884.9,884.93 -112.7,0 -222.4,-20.91 -326.1,-62.07 -20.2,-7.92 -30,-30.9 -22,-51.03 8.1,-20.14 30.7,-30.02 51.1,-22.1 94.3,37.54 194.3,56.6 297,56.6 444.6,0 806.2,-361.71 806.2,-806.33 0,-21.7 17.6,-39.3 39.3,-39.3" /></g><path
         id="path404"
         style="fill:#415da5;fill-opacity:1;fill-rule:nonzero;stroke:none"
         d="m 15904.7,3598.7 c 0,74 -60,134 -134.1,134 -74,0 -134,-60 -134,-134 0,-74.1 60,-134.1 134,-134.1 74.1,0 134.1,60 134.1,134.1" /><path
         id="path406"
         style="fill:#415da5;fill-opacity:1;fill-rule:nonzero;stroke:none"
         d="m 15785.3,3604.7 227.1,633 -17.1,6.2 -227.2,-633.1 17.2,-6.1" /><g
         transform="scale(1.00733)"
         id="g408"><path
           id="path410"
           style="fill:#415da5;fill-opacity:1;fill-rule:nonzero;stroke:none"
           d="m 16292.9,3289.11 7.1,16.58 -638.1,274.09 -419.6,599.31 -14.7,-10.43 422.5,-603.47 2.3,-1 640.5,-275.08" /></g><path
         id="path412"
         style="fill:#415da5;fill-opacity:1;fill-rule:nonzero;stroke:none"
         d="m 16025.5,2900.6 17.3,5.8 c -4.6,13.6 -253.1,667.7 -263.7,695.5 l -6.4,17 -400.5,-633.3 15.4,-9.7 381,602.5 c 91,-239.5 253.5,-667.4 256.9,-677.8" /><g
         transform="scale(1.01138)"
         id="g414"><path
           id="path416"
           style="fill:#415da5;fill-opacity:1;fill-rule:nonzero;stroke:none"
           d="m 15594.7,3594.2 705.3,121.32 -3.1,17.69 -705.2,-121.21 3,-17.8" /></g><path
         id="path418"
         style="fill:#415da5;fill-opacity:1;fill-rule:nonzero;stroke:none"
         d="m 15716.6,3645.8 17.2,5.7 -209,627 -17.2,-5.7 209,-627" /><g
         transform="scale(1.00791)"
         id="g420"><path
           id="path422"
           style="fill:#415da5;fill-opacity:1;fill-rule:nonzero;stroke:none"
           d="m 15648.3,3561.02 2.5,1.39 649.2,328.99 -8.1,16.07 -646.5,-327.7 -695.8,116.78 -3,-17.86 701.7,-117.67" /></g><path
         id="path424"
         style="fill:#415da5;fill-opacity:1;fill-rule:nonzero;stroke:none"
         d="m 15506.7,2923.4 c 3.8,11.4 171.7,424.5 265.7,655.5 l 363.1,-571.2 15.4,9.7 -382,601 -6.7,-16.3 c -10.9,-26.9 -268.2,-659.2 -272.8,-673 l 17.3,-5.7" /><g
         transform="scale(1.01081)"
         id="g426"><path
           id="path428"
           style="fill:#415da5;fill-opacity:1;fill-rule:nonzero;stroke:none"
           d="m 16297.3,3447.93 2.7,17.81 -696.7,103.38 -2.6,-17.81 696.6,-103.38" /></g><path
         id="path430"
         style="fill:#415da5;fill-opacity:1;fill-rule:nonzero;stroke:none"
         d="m 15813.8,3692.7 390.8,449.8 -13.7,11.9 -390.8,-449.8 13.7,-11.9" /><path
         id="path432"
         style="fill:#415da5;fill-opacity:1;fill-rule:nonzero;stroke:none"
         d="m 15793.4,2889.1 18.1,1.5 -54.5,658.8 -18.1,-1.5 54.5,-658.8" /><path
         id="path434"
         style="fill:#415da5;fill-opacity:1;fill-rule:nonzero;stroke:none"
         d="m 15185.2,3195.9 622.4,431.6 -10.3,15 -622.5,-431.6 10.4,-15" /><path
         id="path436"
         style="fill:#415da5;fill-opacity:1;fill-rule:nonzero;stroke:none"
         d="m 16286.7,3110.7 12.9,12.8 -519.9,524.3 v 682.4 h -18.1 v -689.8 l 525.1,-529.7" /><g
         transform="scale(1.01574)"
         id="g438"><path
           id="path440"
           style="fill:#202e51;fill-opacity:1;fill-rule:nonzero;stroke:none"
           d="m 16142,3288.14 c -2.2,-5.52 -4.5,-11.03 -7.1,-16.45 -28.3,-63.3 -66.2,-121.38 -111.8,-172.48 -4,-4.53 -8,-8.96 -12.2,-13.29 -35.8,-37.9 -76,-71.67 -119.8,-100.42 -4.9,-3.34 -9.9,-6.49 -15,-9.65 -33.2,-20.57 -68.4,-38.29 -105.1,-52.86 -5.5,-2.17 -11.1,-4.34 -16.7,-6.4 -60,-21.86 -124,-35.45 -190.5,-39.09 -6,-0.39 -11.9,-0.59 -17.9,-0.79 -6.6,-0.19 -13.1,-0.29 -19.7,-0.29 -83.3,0 -165.6,15.55 -242.4,45.58 -5.6,2.07 -11.1,4.33 -16.6,6.6 -26.8,11.42 -52.9,24.41 -78.1,39.28 -3.9,2.26 -7.7,4.63 -11.5,6.99 -5.2,3.05 -10.2,6.2 -15.1,9.55 -68.6,44.7 -128.5,101.8 -176.4,167.95 -3.1,4.24 -6.1,8.57 -9.1,12.9 -3.4,4.93 -6.8,9.94 -9.9,14.97 -6.1,9.15 -11.8,18.41 -17.3,27.86 -32.6,56.01 -56.8,116.46 -71.7,179.27 -12.2,50.71 -18.4,102.98 -18.4,155.56 0,34.55 2.6,68.42 7.7,101.5 0.9,5.91 1.9,11.81 2.9,17.62 31.3,172.78 129.5,322.52 266.5,421.47 4.8,3.54 9.8,6.99 14.7,10.33 40.4,27.67 84.1,50.9 130.1,69.21 5.6,2.17 11.3,4.24 16.9,6.3 68.4,25.01 142,38.99 218.7,39.98 3,0.09 6,0.09 9,0.09 2.9,0 6,0 8.9,-0.09 71.7,-0.89 140.7,-13.2 205.2,-35.15 h 0.1 c 1.7,-0.59 3.3,-1.18 4.9,-1.77 5.7,-1.97 11.3,-4.04 16.9,-6.11 29.2,-11.12 57.5,-24.22 84.5,-39.08 28.1,-15.46 54.9,-32.88 80.3,-52.08 4.8,-3.55 9.4,-7.19 14,-11.03 25,-19.79 48.5,-41.45 70.3,-64.58 21.4,-22.65 41.1,-46.86 59.1,-72.36 16.9,-23.83 32.4,-48.84 46,-74.92 2.8,-5.32 5.6,-10.63 8.2,-15.95 20,-40.66 36,-83.69 47.5,-128.48 1.4,-5.81 2.9,-11.62 4.1,-17.53 10.8,-47.45 16.5,-96.77 16.5,-147.37 0,-30.13 -2,-59.86 -5.9,-89 -0.8,-5.91 -1.7,-11.92 -2.7,-17.72 -8.2,-51.59 -22.5,-101.21 -42.1,-148.07 z m 12.4,706.18 c -14.3,19.79 -29.5,38.99 -45.6,57.3 -61,69.8 -134.4,128.57 -216.6,172.88 -35.8,19.39 -73.3,35.93 -112.2,49.42 -79.6,27.76 -164.9,42.82 -253.8,42.82 -27.6,0 -54.9,-1.47 -81.6,-4.33 h -0.1 c -160.6,-16.93 -306.7,-83.19 -422.8,-183.11 l -0.1,-0.1 c -164.7,-142.06 -269.2,-352.16 -269.2,-586.27 0,-70.89 9.7,-141.18 28.6,-208.82 16.9,-60.84 41.5,-119.61 73.1,-174.74 0.8,-1.78 1.9,-3.45 2.9,-5.22 67,-114.99 163,-211.47 277.6,-278.81 90.1,-52.97 190.3,-86.94 293.8,-100.03 h 0.2 0.2 c 32.1,-4.13 64.8,-6.2 97.4,-6.2 33.6,0 66.7,2.17 99.2,6.3 h 0.2 c 380,49.03 674.4,374.4 674.4,767.52 0,168.34 -54,324.29 -145.6,451.39" /></g><g
         transform="scale(1.08903)"
         id="g442"><path
           id="path444"
           style="fill:#739cf3;fill-opacity:1;fill-rule:nonzero;stroke:none"
           d="m 15875.8,3192.93 424.2,1326.69 -71.5,22.86 -424.3,-1326.68 71.6,-22.87" /></g><g
         transform="scale(1.12996)"
         id="g446"><path
           id="path448"
           style="fill:#739cf3;fill-opacity:1;fill-rule:nonzero;stroke:none"
           d="m 15335.1,3073.66 964.9,83.9 -1789.4,1209.86 102.3,-209.56 1477.4,-945.88 -761.4,-66.2 6.2,-72.12" /></g><g
         transform="scale(1.05827)"
         id="g450"><path
           id="path452"
           style="fill:#739cf3;fill-opacity:1;fill-rule:nonzero;stroke:none"
           d="m 16235.1,3342.34 64.9,41.96 -792.7,1269.9 -92.3,-95.53 820.1,-1216.33" /></g><g
         transform="scale(1.00018)"
         id="g454"><path
           id="path456"
           style="fill:#415da5;fill-opacity:1;fill-rule:nonzero;stroke:none"
           d="m 15832.9,3634.03 467.1,999.72 -62.6,24.99 c -40.7,16.3 -86.9,-3.6 -103,-44.29 l -377.3,-949.52 75.8,-30.9" /></g><g
         transform="scale(1.01125)"
         id="g458"><path
           id="path460"
           style="fill:#415da5;fill-opacity:1;fill-rule:nonzero;stroke:none"
           d="m 16121.6,4583.03 c 66.9,173.45 178.4,445.99 176.6,443.32 l -67.2,44.89 c -3.3,-4.94 -5.5,-8.21 -180.8,-463.19 l 71.4,-25.02" /></g><g
         transform="scale(1.02588)"
         id="g462"><path
           id="path464"
           style="fill:#415da5;fill-opacity:1;fill-rule:nonzero;stroke:none"
           d="m 16274,4861.28 c 26,36.26 17.8,86.85 -18.4,112.87 -36.3,26.13 -86.8,17.84 -112.9,-18.42 -26.1,-36.26 -17.9,-86.76 18.4,-112.78 36.3,-26.13 86.8,-17.94 112.9,18.33" /></g><g
         transform="scale(1.00662)"
         id="g466"><path
           id="path468"
           style="fill:#415da5;fill-opacity:1;fill-rule:nonzero;stroke:none"
           d="m 16273.4,5170.08 c 26.6,36.95 18.3,88.41 -18.7,115.04 -37,26.52 -88.5,18.17 -115,-18.78 -26.7,-36.96 -18.2,-88.42 18.7,-115.04 36.9,-26.53 88.4,-18.18 115,18.78" /></g><g
         transform="scale(1.02215)"
         id="g470"><path
           id="path472"
           style="fill:#415da5;fill-opacity:1;fill-rule:nonzero;stroke:none"
           d="m 15947,5062.78 310.1,-197.24 42.9,84.63 -309.9,197.23 -43.1,-84.62" /></g><g
         transform="scale(1.0452)"
         id="g474"><path
           id="path476"
           style="fill:#415da5;fill-opacity:1;fill-rule:nonzero;stroke:none"
           d="m 16094.3,3138.74 h 169.5 c 19.9,0 36.2,16.36 36.2,36.26 0,19.9 -16.3,36.17 -36.2,36.17 h -169.5 c -19.9,0 -36.3,-16.27 -36.3,-36.17 0,-19.9 16.4,-36.26 36.3,-36.26" /></g><g
         transform="scale(1.05936)"
         id="g478"><path
           id="path480"
           style="fill:#415da5;fill-opacity:1;fill-rule:nonzero;stroke:none"
           d="m 15961.2,3140.31 338.8,154.43 -12.5,27.28 -338.7,-154.34 12.4,-27.37" /></g><g
         transform="scale(1.13091)"
         id="g482"><path
           id="path484"
           style="fill:#415da5;fill-opacity:1;fill-rule:nonzero;stroke:none"
           d="m 16300,3182.12 c 0,65.43 -53.1,118.48 -118.6,118.48 -65.4,0 -118.5,-53.05 -118.5,-118.48 0,-65.53 53.1,-118.58 118.5,-118.58 65.5,0 118.6,53.05 118.6,118.58" /></g><g
         transform="scale(1.13752)"
         id="g486"><path
           id="path488"
           style="fill:#415da5;fill-opacity:1;fill-rule:nonzero;stroke:none"
           d="m 16100.3,3168.91 199.7,556.47 -15,5.45 -199.8,-556.56 15.1,-5.36" /></g><g
         transform="scale(1.16249)"
         id="g490"><path
           id="path492"
           style="fill:#415da5;fill-opacity:1;fill-rule:nonzero;stroke:none"
           d="m 16293.8,2850.09 6.2,14.36 -553,237.51 -363.5,519.32 -12.8,-9.04 366.1,-522.92 2,-0.86 555,-238.37" /></g><g
         transform="scale(1.13939)"
         id="g494"><path
           id="path496"
           style="fill:#415da5;fill-opacity:1;fill-rule:nonzero;stroke:none"
           d="m 16284.8,2545.76 15.2,5.09 c -4,11.93 -222.1,586.01 -231.4,610.41 l -5.7,14.92 -351.5,-555.82 13.6,-8.51 334.3,528.79 c 79.9,-210.2 222.5,-585.76 225.5,-594.88" /></g><g
         transform="scale(1.16655)"
         id="g498"><path
           id="path500"
           style="fill:#415da5;fill-opacity:1;fill-rule:nonzero;stroke:none"
           d="m 15688.5,3116.12 611.5,105.19 -2.7,15.34 -611.4,-105.1 2.6,-15.43" /></g><g
         transform="scale(1.12043)"
         id="g502"><path
           id="path504"
           style="fill:#415da5;fill-opacity:1;fill-rule:nonzero;stroke:none"
           d="m 16284.7,3253.93 15.3,5.09 -186.5,559.61 -15.4,-5.09 186.6,-559.61" /></g><g
         transform="scale(1.16308)"
         id="g506"><path
           id="path508"
           style="fill:#415da5;fill-opacity:1;fill-rule:nonzero;stroke:none"
           d="m 15735.2,3085.95 2.2,1.2 562.6,285.1 -7.1,13.93 -560.2,-283.98 -603,101.19 -2.5,-15.47 608,-101.97" /></g><g
         transform="scale(1.14602)"
         id="g510"><path
           id="path512"
           style="fill:#415da5;fill-opacity:1;fill-rule:nonzero;stroke:none"
           d="m 15737.8,2550.92 c 3.4,9.95 149.9,370.41 231.9,571.98 l 316.9,-498.42 13.4,8.46 -333.4,524.42 -5.8,-14.22 c -9.5,-23.47 -234,-575.2 -238,-587.25 l 15,-4.97" /></g><g
         transform="scale(1.16598)"
         id="g514"><path
           id="path516"
           style="fill:#415da5;fill-opacity:1;fill-rule:nonzero;stroke:none"
           d="m 16297.7,2989.08 2.3,15.44 -604,89.63 -2.3,-15.44 604,-89.63" /></g><g
         transform="scale(1.14931)"
         id="g518"><path
           id="path520"
           style="fill:#415da5;fill-opacity:1;fill-rule:nonzero;stroke:none"
           d="m 15960,3212.96 340,391.37 -12,10.35 -339.9,-391.36 11.9,-10.36" /></g><g
         transform="scale(1.1252)"
         id="g522"><path
           id="path524"
           style="fill:#415da5;fill-opacity:1;fill-rule:nonzero;stroke:none"
           d="m 16283.9,2567.64 16.1,1.34 -48.4,585.49 -16.1,-1.33 48.4,-585.5" /></g><g
         transform="scale(1.12496)"
         id="g526"><path
           id="path528"
           style="fill:#415da5;fill-opacity:1;fill-rule:nonzero;stroke:none"
           d="m 15746.7,2840.91 553.3,383.66 -9.2,13.33 -553.3,-383.66 9.2,-13.33" /></g><g
         transform="scale(1.15514)"
         id="g530"><path
           id="path532"
           style="fill:#415da5;fill-opacity:1;fill-rule:nonzero;stroke:none"
           d="m 16288.8,2692.92 11.2,11.08 -450.1,453.88 v 590.75 h -15.7 v -597.15 l 454.6,-458.56" /></g><g
         transform="scale(1.17091)"
         id="g534"><path
           id="path536"
           style="fill:#202e51;fill-opacity:1;fill-rule:nonzero;stroke:none"
           d="m 16162.9,2852.4 c -1.9,-4.78 -3.9,-9.56 -6.1,-14.26 -24.5,-54.91 -57.4,-105.3 -97,-149.63 -3.5,-3.92 -7,-7.77 -10.5,-11.53 -31.1,-32.88 -66,-62.17 -104,-87.11 -4.3,-2.9 -8.6,-5.63 -13,-8.37 -28.8,-17.85 -59.3,-33.22 -91.2,-45.86 -4.8,-1.88 -9.6,-3.76 -14.5,-5.55 -52.1,-18.96 -107.6,-30.75 -165.3,-33.91 -5.2,-0.34 -10.4,-0.51 -15.5,-0.68 -5.7,-0.17 -11.4,-0.25 -17.1,-0.25 -72.3,0 -143.6,13.49 -210.2,39.54 -4.9,1.79 -9.7,3.75 -14.5,5.72 -23.2,9.9 -45.8,21.18 -67.7,34.07 -3.3,1.97 -6.7,4.02 -10,6.07 -4.4,2.65 -8.8,5.38 -13.1,8.28 l -0.4,0.26 c -63.2,41.25 -117.8,94.62 -160.5,156.63 -2.9,4.27 -5.8,8.62 -8.6,12.98 -5.3,7.94 -10.2,15.97 -15,24.17 -36.9,63.37 -61.2,133.23 -71.8,205.65 -3.5,22.98 -5.5,46.2 -6.1,69.61 -0.2,5.03 -0.3,10.16 -0.3,15.2 0,29.97 2.3,59.35 6.7,88.05 0.9,5.12 1.7,10.25 2.6,15.28 11.7,64.48 34,125.29 65.4,180.46 13.4,23.92 28.5,46.72 45.2,68.24 34.3,44.58 75,84.04 120.6,116.92 4.1,3.08 8.4,6.06 12.7,8.97 35.1,24 72.9,44.15 112.9,60.04 4.9,1.87 9.7,3.67 14.6,5.46 36.2,13.24 73.9,22.89 113,28.61 h 0.1 c 25.1,3.67 50.6,5.72 76.7,6.07 2.5,0.08 5.2,0.08 7.7,0.08 2.6,0 5.2,0 7.8,-0.08 63.8,-0.77 125.1,-12.05 182.3,-32.03 5,-1.71 9.8,-3.5 14.6,-5.3 51.6,-19.55 99.7,-46.37 143,-79.08 4.2,-3.08 8.2,-6.23 12.2,-9.56 62.6,-49.88 114.6,-112.4 152.1,-183.79 2.5,-4.62 4.9,-9.23 7.1,-13.84 17.4,-35.27 31.3,-72.59 41.3,-111.45 1.2,-5.04 2.4,-10.08 3.5,-15.2 9.4,-41.17 14.3,-83.95 14.3,-127.85 0,-26.14 -1.7,-51.93 -5.1,-77.21 -0.7,-5.12 -1.5,-10.33 -2.3,-15.37 -7.2,-44.75 -19.6,-87.8 -36.6,-128.45 z m -534.2,892.3 c -102.7,0 -200.2,-23.23 -287.3,-64.73 -98.2,-46.55 -183.3,-116.41 -248.2,-202.33 -16.9,-22.29 -32.5,-45.77 -46.5,-70.11 -56.8,-98.39 -89.2,-212.57 -89.2,-334.1 0,-7.77 0.1,-15.55 0.4,-23.32 0.7,-23.31 2.8,-46.54 6,-69.6 12,-86 40.5,-169.19 84.3,-244.34 54.9,-94.46 132.7,-174.57 225.3,-232.38 5.2,-3.25 10.4,-6.41 15.6,-9.49 77.5,-45.6 163.5,-74.89 252.5,-86.51 28.8,-3.76 57.9,-5.64 87.1,-5.64 29.6,0 58.7,1.88 87.2,5.64 329.1,42.87 584.1,325.05 584.1,665.64 0,370.14 -301.1,671.27 -671.3,671.27" /></g><g
         transform="scale(1.14931)"
         id="g538"><path
           id="path540"
           style="fill:#f99746;fill-opacity:1;fill-rule:nonzero;stroke:none"
           d="m 15365.2,3832.92 c 10,-3.57 21,-2.43 30.2,3.04 319.9,193.34 762.7,120.77 890.8,93.89 l 0.1,-0.09 c 7.1,-1.48 13.7,3.92 13.7,11.14 v 24.97 c 0,19.14 -13.9,35.41 -32.9,38.19 -69.2,10.36 -231.1,32.46 -321.6,32.89 -2.4,0 -4.8,0 -7.3,0 -202.5,0 -377.4,-36.28 -521.2,-107.89 -29.3,-14.61 -63.3,-16.7 -94.3,-5.83 l -39.4,13.84 c -22.5,7.92 -47.2,-3.91 -55.2,-26.45 -5.1,-14.53 2.6,-30.45 17.1,-35.59 l 120,-42.11" /></g><g
         transform="scale(1.10527)"
         id="g542"><path
           id="path544"
           style="fill:#f99746;fill-opacity:1;fill-rule:nonzero;stroke:none"
           d="m 16286.6,4492.21 c 0,0 13.4,60.62 -24.7,64.78 -38,4.07 -176.7,-25.7 -213.7,-21.63 -37,4.17 -230.3,36.01 -264.1,3.08 -33.9,-32.84 -19.5,-61.61 48.2,-67.77 67.9,-6.24 158.4,-17.46 184.1,-39.08 25.7,-21.63 211.6,-85.32 270.2,60.62" /></g><g
         transform="scale(1.07084)"
         id="g546"><path
           id="path548"
           style="fill:#2c3a64;fill-opacity:1;fill-rule:nonzero;stroke:none"
           d="m 16300,3258.75 c 0,105.43 -85.4,190.97 -190.9,190.97 -105.4,0 -190.9,-85.54 -190.9,-190.97 0,-105.43 85.5,-190.88 190.9,-190.88 105.5,0 190.9,85.45 190.9,190.88" /></g><g
         transform="scale(1.01459)"
         id="g550"><path
           id="path552"
           style="fill:#e8945b;fill-opacity:1;fill-rule:nonzero;stroke:none"
           d="m 16300,5147.5 c 0,0 -65.9,83.68 -102,73.33 -62.3,-18.03 -67.4,-74.9 -65.9,-86.53 1.5,-11.63 0.7,-57.37 28.4,-67.12 27.6,-9.76 56.4,2.26 69.1,12.91 12.8,10.74 70.4,67.41 70.4,67.41" /></g><g
         transform="scale(1.06231)"
         id="g554"><path
           id="path556"
           style="fill:#e8945b;fill-opacity:1;fill-rule:nonzero;stroke:none"
           d="m 15460.8,4980.83 c 0,0 8.7,-49.7 69,-66.27 60.3,-15.91 433.1,141.01 521.9,184.69 47.6,23.91 116.5,156.36 169.5,272.24 12.6,28.52 24.5,55.63 35.1,80.2 26.6,61.56 43.7,105.9 43.7,105.9 0,61 -67.2,37.18 -128.1,9.32 -18.7,-8.57 -115.7,32.48 -141.5,-17.23 -12,-23.16 -27.8,-20.52 -39.7,-46.41 -47,-103.92 -90,-221.21 -99.3,-248.98 -16.6,-49.7 -430.6,-273.46 -430.6,-273.46" /></g><g
         transform="scale(1.01763)"
         id="g558"><path
           id="path560"
           style="fill:#ffb27d;fill-opacity:1;fill-rule:nonzero;stroke:none"
           d="m 16300,5083.6 c 0,0 -65.4,82.05 -101.8,73.01 -85.5,-21.32 -74,-83.04 -72.4,-94.63 1.4,-11.5 7.5,-48.84 35.2,-58.57 27.5,-9.73 56.2,2.26 68.8,12.97 12.8,10.62 70.2,67.22 70.2,67.22" /></g><g
         transform="scale(1.0646)"
         id="g562"><path
           id="path564"
           style="fill:#ffb27d;fill-opacity:1;fill-rule:nonzero;stroke:none"
           d="m 16300,5645.81 -212.3,-78.34 c -27,26.3 -54.3,68.19 -76.1,106.52 -27,47.53 -45.8,89.52 -45.8,89.52 l 148.2,103.89 46.6,32.59 c 3,-94.59 139.4,-254.18 139.4,-254.18" /></g><g
         transform="scale(1.05623)"
         id="g566"><path
           id="path568"
           style="fill:#e8945b;fill-opacity:1;fill-rule:nonzero;stroke:none"
           d="m 16300,5895.04 c 0,0 -42.4,-131.98 -161.5,-176.1 -27.3,47.91 -46.2,90.23 -46.2,90.23 l 149.4,104.71 58.3,-18.84" /></g><g
         transform="scale(1.06177)"
         id="g570"><path
           id="path572"
           style="fill:#ffb27d;fill-opacity:1;fill-rule:nonzero;stroke:none"
           d="m 15941,5782.06 c 0,0 263.1,-41.25 286.3,123.1 23.2,164.25 72.7,269.55 -94.3,302.8 -167.1,33.34 -208.6,-24.77 -229.7,-77.7 -21.1,-52.94 -30.2,-333.22 37.7,-348.2" /></g><g
         transform="scale(1.06256)"
         id="g574"><path
           id="path576"
           style="fill:#2c3a64;fill-opacity:1;fill-rule:nonzero;stroke:none"
           d="m 16274.2,6233.26 c 0,0 -11.9,-2.45 -21.5,-12.42 l -0.2,0.18 c -0.7,35.39 -35.4,71.15 -35.4,71.15 16.6,-20.98 11.3,-59.76 11.3,-59.76 -49.5,84.61 -290.6,18.07 -313.2,12.42 -22.6,-5.64 -38.6,28.24 -38.6,28.24 -35.7,-30.87 -49.2,-106.54 -19.7,-156.04 29.6,-49.41 125.6,-122.16 153.1,-108.32 27.7,13.83 27.7,-14.78 26.3,-54.97 -1.4,-40.09 68.1,-107.66 117.2,-117.45 39.5,-7.9 42.6,19.11 53.4,36.42 2.7,4.24 5.9,8.19 9.6,11.58 53.9,48.56 83.5,145.68 71.5,241.4 -4.8,37.92 -20.6,69.92 -29.4,85.36 3.6,6.02 10.5,17.41 15.6,22.21" /></g><g
         transform="scale(1.08728)"
         id="g578"><path
           id="path580"
           style="fill:#2c3a64;fill-opacity:1;fill-rule:nonzero;stroke:none"
           d="m 15815.2,4671.37 c 2.7,-11.68 31.1,-107.42 104.9,-132.07 47.9,-16.18 164.4,-55.64 267.9,-63.37 24,20.05 42.1,42.03 52.4,67.23 59.6,145.69 -37.5,253.76 -37.5,253.76 0,0 -203.2,-46.63 -387.7,-125.55" /></g><g
         transform="scale(1.10777)"
         id="g582"><path
           id="path584"
           style="fill:#ffb27d;fill-opacity:1;fill-rule:nonzero;stroke:none"
           d="m 16095.6,4916.47 c 0,0 204.4,-235.43 16.7,-500.02 -187.6,-264.68 -493.1,-478.17 -509.9,-572.59 -32.6,-182.62 -227.1,-559.78 -319.8,-746.37 l -79.3,30.42 c 0,0 148.8,884.4 201.8,990.19 52.9,105.89 327.2,601.48 327.2,601.48 l 363.3,196.89" /></g><g
         transform="scale(1.05896)"
         id="g586"><path
           id="path588"
           style="fill:#5885d6;fill-opacity:1;fill-rule:nonzero;stroke:none"
           d="m 16038.9,5533.15 c 20.6,-6.61 70.3,-25.22 83.7,-47.88 13.9,-22.57 160.1,40.61 177.4,99.72 -41.8,45.8 -113.6,84.99 -155.5,71.77 -24.6,-7.37 -64.4,-59.78 -105.6,-123.61" /></g><g
         transform="scale(1.10198)"
         id="g590"><path
           id="path592"
           style="fill:#35488b;fill-opacity:1;fill-rule:nonzero;stroke:none"
           d="m 16221.5,4869.5 c 0,0 -266.7,-190.02 -444.9,-179.41 0,0 -117.1,-199.54 -143,-265.33 0,0 303.2,-151.64 461,-123.78 0,0 205.4,199.55 193.5,339.3 -12,139.66 -66.6,229.22 -66.6,229.22" /></g><g
         transform="scale(1.09669)"
         id="g594"><path
           id="path596"
           style="fill:#739af0;fill-opacity:1;fill-rule:nonzero;stroke:none"
           d="m 15564.6,5252.06 64.3,-91.45 5.1,-11.59 133.5,-304.73 67.9,-155.28 c 45.6,-10.95 130.3,-3.2 168.2,10.3 206.6,70.58 296.4,193.76 296.4,193.76 -120,313.67 -286.2,527.95 -320.1,565.89 -59.1,64.1 -213.8,116.71 -213.8,116.71 -42.3,-43.59 -193.7,-120 -193.7,-120 -33.3,-26.26 -7.8,-203.61 -7.8,-203.61" /></g><g
         transform="scale(1.06768)"
         id="g598"><path
           id="path600"
           style="fill:#5885d6;fill-opacity:1;fill-rule:nonzero;stroke:none"
           d="m 16058.8,5288.94 137.1,-313.02 c 104.1,210.18 38.3,515.33 38.3,515.33 0,0 -167.5,-144.99 -173.4,-156.14 -0.7,-2.06 -2,-19.1 -2,-46.17" /></g><g
         transform="scale(1.06535)"
         id="g602"><path
           id="path604"
           style="fill:#ffb27d;fill-opacity:1;fill-rule:nonzero;stroke:none"
           d="m 15463.2,4920.17 c 0,0 8.7,-49.47 68.8,-65.99 60.1,-15.86 431.9,140.52 520.4,184.17 47.5,23.75 116.2,155.81 169,271.36 12.6,28.44 24.4,55.57 35,79.97 26.4,61.39 43.6,105.7 43.6,105.7 0,60.73 -143.3,143.33 -204.1,115.55 -18.5,-8.54 -42.9,-46.19 -68.7,-95.74 -11.8,-23.1 -23.7,-48.25 -35.6,-73.97 -46.9,-103.72 -89.9,-220.59 -99.1,-248.37 -16.5,-49.56 -429.3,-272.68 -429.3,-272.68" /></g><g
         transform="scale(1.06535)"
         id="g606"><path
           id="path608"
           style="fill:#739af0;fill-opacity:1;fill-rule:nonzero;stroke:none"
           d="m 15991.6,5441.22 c 55.4,-25.16 155.2,-73.97 229.8,-131.51 12.6,28.44 24.4,55.57 35,79.97 26.4,61.39 43.6,105.7 43.6,105.7 0,60.73 -143.3,143.33 -204.1,115.55 -18.5,-8.54 -42.9,-46.19 -68.7,-95.74 -11.8,-23.1 -23.7,-48.25 -35.6,-73.97" /></g><g
         transform="scale(1.04353)"
         id="g610"><path
           id="path612"
           style="fill:#739cf3;fill-opacity:1;fill-rule:nonzero;stroke:none"
           d="m 16256.6,3211.41 h -50.4 c -16.9,2.31 -29.4,6.62 -46.7,8.63 -26.3,3.07 -38.4,-6.51 -40.9,-8.63 l -0.4,-0.48 h -214.3 c -5.3,6.81 -0.2,22.53 4.9,34.12 3.4,7.96 10.9,13.9 20.1,16.29 22.7,5.75 67.4,10.93 108.4,43.8 23.1,18.49 111.5,67.84 111.5,67.84 l 0.5,0.1 c 1.9,-0.1 11.2,-2.59 51.3,-32.58 20.8,-15.53 56.2,21.84 56.2,21.84 0,0 6.7,-4.88 11.7,-13.89 3.9,-7.18 6.9,-16.96 4.6,-29.13 -3.3,-17.06 7.1,-48.78 15.3,-70.24 5,-12.94 9.2,-22.24 9.2,-22.24 0,0 2.4,-10.63 -41,-15.43" /></g><g
         transform="scale(1.04151)"
         id="g614"><path
           id="path616"
           style="fill:#415da5;fill-opacity:1;fill-rule:nonzero;stroke:none"
           d="m 16300,3354.94 c -12.1,-7.49 -37.5,-22.37 -54.4,-24.29 -22.9,-2.6 -65.5,48.87 -65.5,48.87 l 0.5,0.1 c 1.9,-0.1 11.2,-2.6 51.4,-32.65 20.9,-15.56 56.3,21.89 56.3,21.89 0,0 6.7,-4.89 11.7,-13.92" /></g><g
         transform="scale(1.04353)"
         id="g618"><path
           id="path620"
           style="fill:#415da5;fill-opacity:1;fill-rule:nonzero;stroke:none"
           d="m 16256.6,3211.41 h -50.4 c -16.9,2.31 -29.4,6.62 -46.7,8.63 -26.3,3.07 -38.4,-6.51 -40.9,-8.63 l -0.4,-0.48 h -214.3 c -5.3,6.81 -0.2,22.53 4.9,34.12 6.4,5.18 8.4,-22.14 11.9,-26.54 3.7,-4.31 174.8,-1.54 184.7,4.79 9.8,6.32 39.5,17.44 80.9,8.72 36,-7.57 89,11.88 102.1,17.06 5,-12.94 9.2,-22.24 9.2,-22.24 0,0 2.4,-10.63 -41,-15.43" /></g><g
         transform="scale(1.52528)"
         id="g622"><path
           id="path624"
           style="fill:#2c3a64;fill-opacity:1;fill-rule:nonzero;stroke:none"
           d="m 16277.1,2295.31 c 12.6,0 22.9,10.23 22.9,22.89 0,283.81 -231,514.78 -514.8,514.78 -65.6,0 -129.3,-12.19 -189.7,-36.12 -11.7,-4.65 -17.4,-17.96 -12.8,-29.7 4.7,-11.67 18,-17.51 29.8,-12.85 54.8,21.83 113,32.91 172.7,32.91 258.6,0 469,-210.38 469,-469.02 0,-12.66 10.3,-22.89 22.9,-22.89" /></g><g
         transform="scale(1.5835)"
         id="g626"><path
           id="path628"
           style="fill:#e8945b;fill-opacity:1;fill-rule:nonzero;stroke:none"
           d="m 16076.1,3280.02 c 0,0 -33.6,-69.91 -76,-166.78 -47.6,-108.56 -106.4,-251.09 -141.4,-366.98 -18.5,-61.32 -30.4,-115.12 -30.4,-152.57 0,-12.82 49.5,-64.98 63.8,-84.88 90.2,-125.6 213.5,-293.33 213.5,-293.33 l 33.6,8.46 c 0,0 -47.1,209.72 -115.7,314.49 -13.6,20.59 -51.6,45.66 -49.7,47.93 v 0.07 c 5.9,7.39 20.7,26.02 40.9,52.6 55.6,73.2 152.2,206.7 217,330.85 4,7.71 7.9,15.41 11.7,23.12 34.1,69.27 56.6,134.19 54.4,182.32 l -221.7,104.7" /></g><g
         transform="scale(1.57256)"
         id="g630"><path
           id="path632"
           style="fill:#b84c42;fill-opacity:1;fill-rule:nonzero;stroke:none"
           d="m 16281.6,2231.2 -23.4,-14.75 c -8.6,-3.69 -15.8,-5.09 -24.4,-9.09 -13.2,-6.11 -15.6,-14.63 -16,-16.47 l -0.1,-0.38 -99.1,-62.64 c -4.7,1.97 -7.5,11.7 -9,19.27 -1,5.09 0.5,10.43 3.9,14.31 8.6,9.73 27.6,25.5 35.7,54.68 4.5,16.41 29.1,68.05 29.1,68.05 l 0.2,0.19 c 0.9,0.51 6,1.91 34.4,-2.04 14.8,-1.97 18.8,27.92 18.8,27.92 0,0 4.7,-0.64 10,-3.88 4.2,-2.61 8.8,-6.87 11.8,-13.86 4.1,-9.86 19.3,-23.47 30.2,-32.25 6.6,-5.34 11.7,-8.96 11.7,-8.96 0,0 4.6,-4.9 -13.8,-20.1" /></g><g
         transform="scale(1.56693)"
         id="g634"><path
           id="path636"
           style="fill:#aa3e39;fill-opacity:1;fill-rule:nonzero;stroke:none"
           d="m 16300,2314.65 c -3.1,-7.53 -10,-22.72 -17.2,-28.65 -9.7,-8.11 -46.4,6.38 -46.4,6.38 l 0.2,0.19 c 0.9,0.51 6,1.91 34.6,-2.04 14.8,-1.98 18.8,28.01 18.8,28.01 0,0 4.7,-0.64 10,-3.89" /></g><g
         transform="scale(1.57256)"
         id="g638"><path
           id="path640"
           style="fill:#aa3e39;fill-opacity:1;fill-rule:nonzero;stroke:none"
           d="m 16281.6,2231.2 -23.4,-14.75 c -8.6,-3.69 -15.8,-5.09 -24.4,-9.09 -13.2,-6.11 -15.6,-14.63 -16,-16.47 l -0.1,-0.38 -99.1,-62.64 c -4.7,1.97 -7.5,11.7 -9,19.27 1.3,4.58 11.2,-9.22 14.3,-10.43 3.1,-1.21 81.4,50.3 83.8,56.53 2.4,6.17 12.5,20.67 34.5,28.24 19.1,6.55 37.2,32.24 41.5,38.78 6.6,-5.34 11.7,-8.96 11.7,-8.96 0,0 4.6,-4.9 -13.8,-20.1" /></g><g
         transform="scale(1.58466)"
         id="g642"><path
           id="path644"
           style="fill:#f99746;fill-opacity:1;fill-rule:nonzero;stroke:none"
           d="m 16036,2152.32 264,825.67 -44.6,14.26 -263.9,-825.73 44.5,-14.2" /></g><g
         transform="scale(1.62173)"
         id="g646"><path
           id="path648"
           style="fill:#f99746;fill-opacity:1;fill-rule:nonzero;stroke:none"
           d="m 15691.1,2100.84 608.9,52.97 -1129.2,763.38 64.7,-132.26 932.2,-596.77 -480.5,-41.81 3.9,-45.51" /></g><g
         transform="scale(1.55681)"
         id="g650"><path
           id="path652"
           style="fill:#f99746;fill-opacity:1;fill-rule:nonzero;stroke:none"
           d="m 16260,2225.71 40,25.75 -488,781.79 -56.8,-58.83 504.8,-748.71" /></g><g
         transform="scale(1.55008)"
         id="g654"><path
           id="path656"
           style="fill:#415da5;fill-opacity:1;fill-rule:nonzero;stroke:none"
           d="m 16263.7,2347.3 -89.7,-51.74 c -10.5,-6.06 -14.1,-19.68 -8.1,-30.19 6.1,-10.58 19.7,-14.2 30.2,-8.13 l 89.7,51.8 c 10.5,6.07 14.2,19.68 8.1,30.19 -6.1,10.52 -19.7,14.2 -30.2,8.07" /></g><g
         transform="scale(1.55668)"
         id="g658"><path
           id="path660"
           style="fill:#415da5;fill-opacity:1;fill-rule:nonzero;stroke:none"
           d="m 16177,2304.13 112.6,-124.56 10.4,9 -112.6,124.56 -10.4,-9" /></g><g
         transform="scale(1.63925)"
         id="g662"><path
           id="path664"
           style="fill:#35488b;fill-opacity:1;fill-rule:nonzero;stroke:none"
           d="m 15706.4,2593.32 c 6.4,-2.26 13.4,-1.53 19.2,1.95 203.2,122.74 484.2,76.62 565.6,59.6 l 0.1,-0.06 c 4.5,-0.91 8.7,2.5 8.7,7.08 v 15.86 c 0,12.14 -8.9,22.45 -20.9,24.28 -44,6.52 -146.7,20.55 -204.1,20.8 -1.6,0.06 -3.2,0.06 -4.7,0.06 -128.6,0 -239.7,-23.06 -330.9,-68.51 -18.7,-9.33 -40.3,-10.61 -59.9,-3.72 l -25,8.79 c -14.4,5.06 -30.1,-2.5 -35.1,-16.78 -3.2,-9.21 1.6,-19.34 10.9,-22.63 l 76.1,-26.72" /></g><g
         transform="scale(1.59937)"
         id="g666"><path
           id="path668"
           style="fill:#415da5;fill-opacity:1;fill-rule:nonzero;stroke:none"
           d="m 16291.6,2975.05 c 0,0 8.4,37.95 -15.4,40.52 -23.8,2.56 -110.6,-16.07 -133.8,-13.51 -23.1,2.56 -144,22.51 -165.3,1.94 -21.2,-20.63 -12.2,-38.64 30.3,-42.45 42.4,-3.88 99,-10.95 115.1,-24.45 16.1,-13.51 132.5,-53.4 169.1,37.95" /></g><g
         transform="scale(1.5682)"
         id="g670"><path
           id="path672"
           style="fill:#415da5;fill-opacity:1;fill-rule:nonzero;stroke:none"
           d="m 16300,2182.12 c 0,65.18 -52.9,118.04 -118.1,118.04 -65.2,0 -118,-52.86 -118,-118.04 0,-65.23 52.8,-118.09 118,-118.09 65.2,0 118.1,52.86 118.1,118.09" /></g><g
         transform="scale(1.63127)"
         id="g674"><path
           id="path676"
           style="fill:#415da5;fill-opacity:1;fill-rule:nonzero;stroke:none"
           d="m 16173.9,2160.77 126.1,351.45 -9.4,3.43 -126.2,-351.45 9.5,-3.43" /></g><g
         transform="scale(1.65388)"
         id="g678"><path
           id="path680"
           style="fill:#415da5;fill-opacity:1;fill-rule:nonzero;stroke:none"
           d="m 16296.1,1971.6 3.9,9.13 -352,151.22 -231.4,330.56 -8.1,-5.75 233,-332.85 1.3,-0.54 353.3,-151.77" /></g><g
         transform="scale(1.63296)"
         id="g682"><path
           id="path684"
           style="fill:#415da5;fill-opacity:1;fill-rule:nonzero;stroke:none"
           d="m 16290.4,1768.08 9.6,3.19 c -2.5,7.59 -140.3,370.31 -146.2,385.74 l -3.6,9.43 -222,-351.2 8.5,-5.39 211.2,334.11 c 50.6,-132.82 140.6,-370.12 142.5,-375.88" /></g><g
         transform="scale(1.65756)"
         id="g686"><path
           id="path688"
           style="fill:#415da5;fill-opacity:1;fill-rule:nonzero;stroke:none"
           d="m 15910.3,2143.15 389.7,67.03 -1.7,9.77 -389.7,-67.02 1.7,-9.78" /></g><g
         transform="scale(1.6158)"
         id="g690"><path
           id="path692"
           style="fill:#415da5;fill-opacity:1;fill-rule:nonzero;stroke:none"
           d="m 16290.3,2204.48 9.7,3.22 -117.2,351.41 -9.6,-3.22 117.1,-351.41" /></g><g
         transform="scale(1.65442)"
         id="g694"><path
           id="path696"
           style="fill:#415da5;fill-opacity:1;fill-rule:nonzero;stroke:none"
           d="m 15940.4,2122.08 1.5,0.72 358.1,181.58 -4.5,8.88 -356.7,-180.85 -383.8,64.37 -1.7,-9.79 387.1,-64.91" /></g><g
         transform="scale(1.63896)"
         id="g698"><path
           id="path700"
           style="fill:#415da5;fill-opacity:1;fill-rule:nonzero;stroke:none"
           d="m 15944,1774.17 c 2.2,6.29 95,234.54 146.9,362.24 l 200.6,-315.62 8.5,5.36 -211.1,332.04 -3.6,-8.97 c -6.1,-14.88 -148.2,-364.31 -150.8,-371.88 l 9.5,-3.17" /></g><g
         transform="scale(1.65704)"
         id="g702"><path
           id="path704"
           style="fill:#415da5;fill-opacity:1;fill-rule:nonzero;stroke:none"
           d="m 16298.5,2061.87 1.5,9.83 -384.9,57.09 -1.5,-9.84 384.9,-57.08" /></g><g
         transform="scale(1.64195)"
         id="g706"><path
           id="path708"
           style="fill:#415da5;fill-opacity:1;fill-rule:nonzero;stroke:none"
           d="m 16084.5,2195.25 215.5,248.06 -7.6,6.58 -215.5,-248.06 7.6,-6.58" /></g><g
         transform="scale(1.62011)"
         id="g710"><path
           id="path712"
           style="fill:#415da5;fill-opacity:1;fill-rule:nonzero;stroke:none"
           d="m 16289.9,1775.68 10.1,0.86 -30.5,368.25 -10.1,-0.86 30.5,-368.25" /></g><g
         transform="scale(1.6199)"
         id="g714"><path
           id="path716"
           style="fill:#415da5;fill-opacity:1;fill-rule:nonzero;stroke:none"
           d="m 15952,1947.41 348,241.31 -5.8,8.34 -348,-241.32 5.8,-8.33" /></g><g
         transform="scale(1.64723)"
         id="g718"><path
           id="path720"
           style="fill:#415da5;fill-opacity:1;fill-rule:nonzero;stroke:none"
           d="m 16292.9,1868.23 7.1,7.04 -285.8,288.31 v 375.11 h -10 v -379.24 l 288.7,-291.22" /></g><g
         transform="scale(1.62529)"
         id="g722"><path
           id="path724"
           style="fill:#2c3a64;fill-opacity:1;fill-rule:nonzero;stroke:none"
           d="m 16300,2165.34 c 0,41.29 -33.5,74.69 -74.7,74.69 -41.2,0 -74.7,-33.4 -74.7,-74.69 0,-41.22 33.5,-74.63 74.7,-74.63 41.2,0 74.7,33.41 74.7,74.63" /></g><g
         transform="scale(1.66151)"
         id="g726"><path
           id="path728"
           style="fill:#202e51;fill-opacity:1;fill-rule:nonzero;stroke:none"
           d="m 16235.8,2059.15 c -3.3,-20.28 -8.2,-39.96 -14.6,-59.04 -2.6,-7.76 -5.5,-15.47 -8.7,-22.99 -1.3,-3.07 -2.5,-6.08 -3.9,-9.09 -15.7,-35.03 -36.7,-67.23 -62,-95.45 -2.2,-2.47 -4.4,-4.94 -6.7,-7.35 -19.8,-21.06 -42.1,-39.72 -66.3,-55.61 -2.7,-1.87 -5.5,-3.61 -8.3,-5.36 -18.4,-11.37 -37.9,-21.18 -58.2,-29.31 -3.1,-1.2 -6.2,-2.35 -9.3,-3.49 -33.2,-12.16 -68.6,-19.62 -105.4,-21.66 -3.4,-0.19 -6.7,-0.36 -10,-0.43 -3.6,-0.12 -7.2,-0.18 -10.9,-0.18 -46.1,0 -91.6,8.61 -134.1,25.22 -3.1,1.2 -6.2,2.41 -9.2,3.73 -14.9,6.26 -29.3,13.48 -43.3,21.67 -2.2,1.26 -4.3,2.53 -6.4,3.91 -2.8,1.69 -5.6,3.43 -8.3,5.3 -40.4,26.3 -75.3,60.43 -102.6,100.09 v 0.06 c -2,2.71 -3.8,5.42 -5.5,8.18 -3.4,5.06 -6.6,10.23 -9.7,15.47 -24,41.29 -39.7,86.97 -46.3,134.34 -2,14.68 -3.2,29.49 -3.4,44.42 -0.1,2.22 -0.1,4.39 -0.1,6.61 0,19.08 1.4,37.8 4.3,56.1 0.4,3.31 1,6.56 1.6,9.81 6.6,36.53 18.6,71.26 35.3,103.28 7.9,15.35 16.9,30.09 26.9,44.12 23.5,33.1 52.3,62.17 85.3,86 2.7,1.93 5.4,3.79 8.1,5.66 22.4,15.29 46.6,28.17 72.1,38.28 3,1.2 6.1,2.4 9.2,3.55 37.9,13.78 78.7,21.55 121.2,22.09 1.6,0.06 3.3,0.06 4.9,0.06 1.7,0 3.3,0 5,-0.06 40.7,-0.54 79.8,-7.71 116.4,-20.41 3.1,-1.08 6.2,-2.22 9.3,-3.43 32.9,-12.46 63.6,-29.55 91.2,-50.43 2.7,-1.99 5.3,-4.04 7.9,-6.08 39.9,-31.9 73.1,-71.8 97,-117.3 1.6,-2.95 3.1,-5.9 4.6,-8.85 7,-14.33 13.1,-29.13 18.3,-44.36 3,-8.79 5.6,-17.69 7.9,-26.78 0.8,-3.19 1.6,-6.38 2.3,-9.63 6,-26.24 9.1,-53.57 9.1,-81.62 0,-16.67 -1,-33.1 -3.3,-49.23 -0.4,-3.31 -0.9,-6.56 -1.4,-9.81 z m -14.6,306.35 c -77.7,109.48 -205.5,181.1 -349.7,181.1 -144.5,0 -272.5,-71.92 -350.1,-181.82 -10.2,-14.45 -19.5,-29.49 -27.9,-45.2 v -0.06 c -32.1,-60.07 -50.4,-128.56 -50.4,-201.33 0,-3.91 0.1,-7.88 0.2,-11.79 0.4,-14.87 1.6,-29.67 3.6,-44.42 7.3,-56.03 25.7,-110.14 54.2,-159.07 37.1,-63.68 90.2,-117 153.7,-154.32 50.4,-29.67 106.5,-48.51 164.4,-55.55 l 1.5,-0.18 c 16.8,-2.05 33.8,-3.07 50.8,-3.07 17.4,0 34.5,1.02 51.3,3.07 0.6,0.06 1.1,0.12 1.6,0.18 122.3,15.11 228.7,81.91 296.8,177.85 49.6,69.88 78.8,155.22 78.8,247.3 0,92.09 -29.2,177.43 -78.8,247.31" /></g><g
         transform="scale(1.65597)"
         id="g730"><path
           id="path732"
           style="fill:#b84c42;fill-opacity:1;fill-rule:nonzero;stroke:none"
           d="m 16280.6,2067.43 c -1.4,-9 -3.2,-17.88 -5.2,-26.63 -4.3,-18.42 -9.9,-36.35 -16.9,-53.56 -1.3,-3.09 -2.5,-6.1 -3.9,-9.12 -14.9,-34.36 -35,-66.01 -59.3,-93.91 -2.2,-2.47 -4.4,-4.95 -6.7,-7.42 -19.3,-20.96 -41,-39.68 -64.8,-55.62 -2.7,-1.87 -5.5,-3.69 -8.3,-5.44 -17.9,-11.41 -36.9,-21.25 -56.9,-29.4 -3,-1.27 -6.1,-2.48 -9.3,-3.63 -32.7,-12.38 -67.7,-20.17 -104.1,-22.46 -3.3,-0.31 -6.7,-0.48 -10,-0.55 -4.6,-0.24 -9.2,-0.3 -13.8,-0.3 -45.9,0 -89.7,8.52 -130.1,24.1 -3.1,1.14 -6.2,2.41 -9.2,3.68 -17.3,7.13 -33.7,15.58 -49.5,25.18 -2.8,1.75 -5.6,3.5 -8.4,5.32 -40.3,26.08 -75.1,59.96 -102.2,99.45 -2,2.72 -3.8,5.5 -5.6,8.28 -28.6,44.02 -47.9,94.56 -55.2,148.91 -1.9,14.62 -3,29.53 -3.1,44.63 -0.1,1.27 -0.1,2.54 -0.1,3.8 0,19.81 1.6,39.2 4.7,58.16 0.5,3.32 1.1,6.58 1.7,9.84 6.8,35.99 19,70.11 35.6,101.51 8.1,15.28 17.3,29.95 27.5,43.84 23.5,32.31 52.2,60.63 84.9,83.7 2.7,1.93 5.5,3.8 8.2,5.62 22.1,14.67 45.8,26.99 70.8,36.59 3.1,1.21 6.2,2.36 9.3,3.44 h 0.1 c 37.2,13.17 77.2,20.42 118.9,20.6 h 1.7 c 2.7,0 5.5,-0.06 8.2,-0.12 39.7,-0.85 77.7,-8.16 113.3,-20.78 3.1,-1.08 6.2,-2.23 9.3,-3.5 31.7,-12.2 61.2,-28.81 87.9,-49.04 2.6,-1.93 5.2,-3.98 7.8,-6.09 39,-31.1 71.4,-70.05 94.9,-114.38 1.5,-2.96 3,-5.92 4.5,-8.88 10.7,-21.61 19.3,-44.44 25.5,-68.23 0.9,-3.2 1.7,-6.4 2.4,-9.67 l 0.2,-0.66 c 6.1,-26.33 9.3,-53.75 9.3,-81.95 0,-15.39 -0.9,-30.61 -2.8,-45.47 -0.4,-3.32 -0.9,-6.58 -1.3,-9.84 z m 9.7,140.52 c -0.7,3.26 -1.5,6.46 -2.4,9.66 -3.4,13.41 -7.6,26.51 -12.5,39.32 -4.3,11.35 -9.1,22.4 -14.5,33.21 -1.4,3.02 -2.9,5.98 -4.5,8.88 -24.4,46.13 -58,86.65 -98.4,119.02 -2.6,2.11 -5.2,4.17 -7.9,6.16 -61.5,46.8 -137.8,75.24 -220.5,76.99 -2.7,0.13 -5.5,0.13 -8.2,0.13 h -1.7 c -43.4,-0.19 -85,-7.73 -123.8,-21.38 -3.2,-1.09 -6.2,-2.24 -9.3,-3.44 -26.5,-10.09 -51.5,-23.07 -74.7,-38.59 -2.8,-1.81 -5.5,-3.69 -8.2,-5.62 -34.3,-24.09 -64.3,-53.74 -88.9,-87.62 -10.2,-14.01 -19.5,-28.74 -27.6,-44.14 -17.8,-33.1 -30.7,-69.21 -37.8,-107.25 -0.7,-3.26 -1.3,-6.58 -1.8,-9.85 -3.2,-19.74 -4.9,-40.03 -4.9,-60.69 0,-1.68 0,-3.44 0.1,-5.13 0.2,-15.09 1.3,-30.01 3.2,-44.62 7.5,-57.07 27.8,-110.15 57.9,-156.35 1.8,-2.78 3.6,-5.49 5.5,-8.21 28.3,-41.18 64.6,-76.45 106.7,-103.69 2.7,-1.81 5.6,-3.56 8.4,-5.25 16.5,-10.14 33.8,-18.96 51.8,-26.51 3.1,-1.27 6.2,-2.48 9.3,-3.68 42.2,-16.25 87.9,-25.19 135.8,-25.19 5,0 10.1,0.13 15.1,0.31 3.3,0.12 6.6,0.3 9.9,0.54 37.9,2.48 74.2,10.57 108.3,23.43 3.1,1.15 6.2,2.36 9.3,3.62 20.9,8.52 40.9,18.85 59.7,30.86 2.8,1.75 5.6,3.57 8.4,5.44 24.6,16.54 47.2,35.93 67.2,57.67 2.3,2.41 4.6,4.89 6.7,7.36 25.8,29.29 47,62.57 62.7,98.74 1.3,3.02 2.6,6.04 3.8,9.12 1,2.41 2,4.89 2.9,7.36 9.3,24.46 16.1,50.07 20.3,76.64 0.4,3.26 0.9,6.58 1.3,9.84 2,15.64 3,31.58 3,47.7 0,29.29 -3.3,57.86 -9.7,85.21" /></g><g
         transform="scale(1.48887)"
         id="g734"><path
           id="path736"
           style="fill:#415da5;fill-opacity:1;fill-rule:nonzero;stroke:none"
           d="m 16161.8,2367.44 138.2,385.06 -10.4,3.76 -138.2,-385.06 10.4,-3.76" /></g><g
         transform="scale(1.51147)"
         id="g738"><path
           id="path740"
           style="fill:#415da5;fill-opacity:1;fill-rule:nonzero;stroke:none"
           d="m 16295.7,2157.37 4.3,9.99 -385.1,165.46 -253.2,361.7 -8.9,-6.28 254.9,-364.22 1.5,-0.59 386.5,-166.06" /></g><g
         transform="scale(1.49055)"
         id="g742"><path
           id="path744"
           style="fill:#415da5;fill-opacity:1;fill-rule:nonzero;stroke:none"
           d="m 16289.5,1937 10.5,3.49 c -2.8,8.32 -153.8,405.69 -160.2,422.59 l -3.9,10.34 -243.3,-384.76 9.3,-5.9 231.5,366.03 c 55.3,-145.51 154,-405.48 156.1,-411.79" /></g><g
         transform="scale(1.51515)"
         id="g746"><path
           id="path748"
           style="fill:#415da5;fill-opacity:1;fill-rule:nonzero;stroke:none"
           d="m 15873.6,2344.59 426.4,73.33 -1.8,10.69 -426.4,-73.33 1.8,-10.69" /></g><g
         transform="scale(1.47339)"
         id="g750"><path
           id="path752"
           style="fill:#415da5;fill-opacity:1;fill-rule:nonzero;stroke:none"
           d="m 16289.4,2417.56 10.6,3.53 -128.5,385.37 -10.6,-3.53 128.5,-385.37" /></g><g
         transform="scale(1.51201)"
         id="g754"><path
           id="path756"
           style="fill:#415da5;fill-opacity:1;fill-rule:nonzero;stroke:none"
           d="m 15906.5,2321.95 1.6,0.79 391.9,198.68 -4.9,9.72 -390.3,-197.88 -420,70.43 -1.8,-10.71 423.5,-71.03" /></g><g
         transform="scale(1.49655)"
         id="g758"><path
           id="path760"
           style="fill:#415da5;fill-opacity:1;fill-rule:nonzero;stroke:none"
           d="m 15910.2,1943 c 2.4,6.88 103.9,256.86 160.8,396.71 l 219.8,-345.66 9.2,5.88 -231.1,363.64 -4,-9.83 c -6.7,-16.3 -162.3,-398.98 -165.2,-407.27 l 10.5,-3.47" /></g><g
         transform="scale(1.51463)"
         id="g762"><path
           id="path764"
           style="fill:#415da5;fill-opacity:1;fill-rule:nonzero;stroke:none"
           d="m 16298.4,2255.73 1.6,10.76 -421.1,62.46 -1.6,-10.76 421.1,-62.46" /></g><g
         transform="scale(1.49954)"
         id="g766"><path
           id="path768"
           style="fill:#415da5;fill-opacity:1;fill-rule:nonzero;stroke:none"
           d="m 16064,2403.74 236,271.61 -8.3,7.21 -236,-271.62 8.3,-7.2" /></g><g
         transform="scale(1.4777)"
         id="g770"><path
           id="path772"
           style="fill:#415da5;fill-opacity:1;fill-rule:nonzero;stroke:none"
           d="m 16288.9,1946.81 11.1,0.95 -33.4,403.73 -11.1,-0.94 33.4,-403.74" /></g><g
         transform="scale(1.47748)"
         id="g774"><path
           id="path776"
           style="fill:#415da5;fill-opacity:1;fill-rule:nonzero;stroke:none"
           d="m 15918.5,2135.12 381.5,264.57 -6.4,9.13 -381.5,-264.57 6.4,-9.13" /></g><g
         transform="scale(1.50482)"
         id="g778"><path
           id="path780"
           style="fill:#415da5;fill-opacity:1;fill-rule:nonzero;stroke:none"
           d="m 16292.2,2045.04 7.8,7.7 -312.9,315.59 v 410.62 h -10.9 v -415.14 l 316,-318.77" /></g><g
         transform="scale(1.48288)"
         id="g782"><path
           id="path784"
           style="fill:#2c3a64;fill-opacity:1;fill-rule:nonzero;stroke:none"
           d="m 16300,2373.29 c 0,45.25 -36.7,81.87 -81.9,81.87 -45.2,0 -81.8,-36.62 -81.8,-81.87 0,-45.18 36.6,-81.8 81.8,-81.8 45.2,0 81.9,36.62 81.9,81.8" /></g><g
         transform="scale(1.5191)"
         id="g786"><path
           id="path788"
           style="fill:#1d2a4c;fill-opacity:1;fill-rule:nonzero;stroke:none"
           d="m 16229.8,2252.19 c -5,-31.27 -13.7,-61.35 -25.6,-89.72 -1.3,-3.36 -2.7,-6.65 -4.3,-9.94 -17.1,-38.31 -40,-73.53 -67.7,-104.41 -2.4,-2.7 -4.8,-5.39 -7.3,-8.03 -21.7,-23.04 -46,-43.51 -72.5,-60.82 -3.1,-2.04 -6,-3.95 -9.1,-5.86 -20.1,-12.44 -41.4,-23.17 -63.7,-32.06 -3.3,-1.32 -6.6,-2.57 -10.1,-3.82 -36.2,-13.3 -75,-21.46 -115.3,-23.7 -3.6,-0.19 -7.2,-0.39 -10.9,-0.46 -3.9,-0.13 -7.9,-0.19 -11.9,-0.19 -50.5,0 -100.3,9.41 -146.8,27.58 -3.3,1.31 -6.7,2.63 -10,4.08 -16.2,6.84 -32,14.74 -47.3,23.7 -2.4,1.38 -4.7,2.76 -7,4.27 -3.1,1.85 -6.1,3.76 -9.1,5.8 l -0.8,0.52 c -43.9,28.71 -81.8,65.83 -111.5,108.95 -2.1,2.96 -4.2,5.99 -6,9.02 -3.8,5.53 -7.2,11.19 -10.6,16.92 -35.6,61.28 -54.5,131.39 -54.5,202.75 0,20.87 1.6,41.34 4.7,61.35 0.5,3.62 1.1,7.18 1.8,10.73 18.9,104.6 78.3,195.32 161.3,255.28 3,2.11 5.9,4.15 8.9,6.19 1.9,1.32 3.9,2.64 5.9,3.89 22.8,15.07 47.2,27.78 73,37.98 3.3,1.32 6.8,2.63 10.1,3.88 41.4,15.08 86.1,23.57 132.5,24.16 1.8,0.07 3.6,0.07 5.4,0.07 1.8,0 3.7,0 5.4,-0.07 40.5,-0.52 79.6,-7.04 116.3,-18.69 3.7,-1.12 7.4,-2.37 11,-3.62 3.4,-1.19 6.8,-2.44 10.2,-3.76 13,-4.87 25.6,-10.46 37.8,-16.58 21.9,-11.06 42.6,-23.97 62,-38.58 2.9,-2.17 5.7,-4.41 8.5,-6.65 43.7,-34.89 80,-78.53 106.2,-128.3 1.7,-3.22 3.4,-6.45 4.9,-9.74 12.2,-24.62 21.8,-50.62 28.8,-77.74 0.9,-3.49 1.7,-6.98 2.5,-10.54 6.5,-28.7 10,-58.58 10,-89.26 0,-18.23 -1.3,-36.21 -3.7,-53.85 -0.4,-3.62 -0.9,-7.17 -1.5,-10.73 z m -153.5,463.9 c -12.2,7.57 -24.8,14.54 -37.7,20.86 -19.7,9.81 -40.2,18.24 -61.4,25.15 -45.9,15.07 -94.9,23.24 -145.8,23.24 -69.9,0 -136.2,-15.41 -195.9,-42.99 -8.5,-3.88 -16.9,-8.1 -25.1,-12.51 -147.2,-79.12 -247.5,-234.61 -247.5,-413.07 0,-82.88 21.8,-164.24 63.3,-235.47 40.5,-69.64 98.7,-127.97 168.1,-168.78 5.3,-3.1 10.7,-6.13 16.1,-8.95 50.9,-27.33 106.5,-44.83 163.8,-51.81 0.6,-0.13 1.1,-0.2 1.7,-0.2 18.3,-2.24 36.9,-3.36 55.5,-3.36 19,0 37.8,1.12 56.1,3.36 l 1.7,0.2 c 231.2,28.57 410.8,226.18 410.8,465.01 0,168.65 -89.6,316.83 -223.7,399.32" /></g><g
         transform="scale(1.51356)"
         id="g790"><path
           id="path792"
           style="fill:#b84c42;fill-opacity:1;fill-rule:nonzero;stroke:none"
           d="m 16278.7,2261.96 c -4.7,-30.53 -12.9,-59.93 -24.1,-87.75 -1.4,-3.37 -2.8,-6.67 -4.2,-9.97 -16.3,-37.6 -38.4,-72.21 -65,-102.74 -2.3,-2.71 -4.8,-5.42 -7.3,-8.13 -21.1,-22.92 -44.9,-43.4 -70.8,-60.85 -3.1,-2.05 -6.1,-4.03 -9.1,-5.94 -19.7,-12.49 -40.5,-23.26 -62.3,-32.18 -3.3,-1.39 -6.7,-2.71 -10.2,-3.96 -35.8,-13.55 -74,-22.07 -113.9,-24.58 -3.5,-0.33 -7.2,-0.53 -10.9,-0.6 -5,-0.26 -10.1,-0.33 -15.2,-0.33 -50.1,0 -98.1,9.32 -142.3,26.37 -3.3,1.25 -6.7,2.64 -10.1,4.03 -18.7,7.79 -36.8,17.04 -54,27.55 -3.1,1.91 -6.2,3.83 -9.2,5.81 -0.9,0.53 -1.7,1.06 -2.6,1.72 -43,28.28 -80.1,64.75 -109.3,107.1 -2.1,2.97 -4.1,6.01 -6,9.05 -40.5,62.24 -64,136.37 -64,215.91 0,21.67 1.7,42.88 5.1,63.63 0.6,3.63 1.2,7.2 1.9,10.77 19.6,103.13 79.2,192.26 162,250.53 3,2.18 6,4.23 8.9,6.22 l 1.4,0.85 c 23.7,15.73 49.2,28.88 76.1,39.18 3.3,1.32 6.8,2.58 10.2,3.77 40.8,14.4 84.5,22.33 130.1,22.53 h 1.8 c 3.1,0 6.1,-0.07 9.1,-0.13 39.2,-0.86 77,-7.4 112.6,-18.96 3.8,-1.19 7.5,-2.45 11.3,-3.77 3.4,-1.19 6.8,-2.45 10.2,-3.83 12.6,-4.89 25.1,-10.44 37.1,-16.59 20.8,-10.64 40.6,-22.99 59.1,-37.06 2.9,-2.12 5.7,-4.36 8.5,-6.67 42.7,-34.03 78.1,-76.64 103.8,-125.14 1.7,-3.24 3.3,-6.48 4.9,-9.71 11.7,-23.66 21.2,-48.63 28,-74.66 0.9,-3.5 1.8,-7 2.6,-10.57 6.8,-29.01 10.4,-59.27 10.4,-90.39 0,-16.84 -1.1,-33.49 -3.1,-49.74 -0.5,-3.64 -0.9,-7.21 -1.5,-10.77 z m 10.7,153.74 c -0.8,3.57 -1.7,7.07 -2.6,10.57 -7.1,27.68 -17.1,54.24 -29.5,79.35 -1.6,3.3 -3.3,6.54 -5,9.71 -26.7,50.48 -63.5,94.81 -107.7,130.22 -2.8,2.32 -5.7,4.56 -8.6,6.74 -19.7,15.07 -40.9,28.35 -63.2,39.71 -19,9.65 -38.7,17.84 -59.2,24.51 h -0.1 c -15.4,5.02 -31.1,9.12 -47.2,12.23 -23.2,4.69 -47.1,7.33 -71.5,7.79 -3,0.13 -6,0.13 -9.1,0.13 h -1.8 c -11.1,-0.06 -22.1,-0.52 -33,-1.45 -35.6,-2.97 -69.9,-10.44 -102.4,-21.94 -3.4,-1.18 -6.9,-2.44 -10.2,-3.76 -24.9,-9.45 -48.5,-21.21 -70.8,-35.15 -3.7,-2.25 -7.3,-4.62 -10.9,-7.07 -3.1,-1.98 -6.1,-4.03 -9,-6.14 -86.4,-60.85 -148.6,-153.88 -168.8,-261.51 -0.8,-3.56 -1.4,-7.2 -2,-10.77 -3.5,-21.6 -5.3,-43.8 -5.3,-66.4 0,-83.11 24.6,-160.55 66.9,-225.49 1.9,-3.04 4,-6.08 6,-9.05 31.1,-45.06 70.8,-83.65 116.8,-113.38 2.1,-1.39 4.2,-2.77 6.3,-4.03 0.9,-0.66 1.9,-1.25 2.9,-1.78 18,-11.03 37,-20.75 56.7,-28.94 3.3,-1.39 6.7,-2.71 10.1,-4.03 46.1,-17.77 96.2,-27.55 148.5,-27.55 5.6,0 11.1,0.13 16.6,0.33 3.7,0.13 7.3,0.33 10.9,0.59 41.5,2.71 81.2,11.57 118.4,25.64 3.5,1.25 6.8,2.58 10.2,3.96 22.9,9.32 44.7,20.62 65.3,33.76 3.1,1.92 6.1,3.9 9.2,5.95 26.9,18.1 51.7,39.31 73.6,63.1 2.5,2.64 4.9,5.35 7.3,8.06 28.1,32.04 51.3,68.45 68.6,108.02 1.4,3.3 2.8,6.61 4.1,9.98 11.9,29.14 20.5,59.92 25.3,91.9 0.6,3.57 1.1,7.2 1.6,10.77 2.1,17.11 3.2,34.55 3.2,52.19 0,32.05 -3.6,63.3 -10.6,93.23" /></g><g
         transform="scale(1.59771)"
         id="g794"><path
           id="path796"
           style="fill:#ffb27d;fill-opacity:1;fill-rule:nonzero;stroke:none"
           d="m 16205.8,3249.46 c 0,0 94.2,-149.4 -22.2,-231.52 -116.4,-82.18 -508.5,-121.49 -489.3,-137.38 58.8,-48.76 112.2,-123.74 109.4,-572.63 l -29,-14.96 c 0,0 -279.6,608.18 -260.9,680.66 12.5,47.94 420.2,307.63 692,275.83" /></g><g
         transform="scale(1.59433)"
         id="g798"><path
           id="path800"
           style="fill:#35488b;fill-opacity:1;fill-rule:nonzero;stroke:none"
           d="m 16013.6,2944.87 c 0,0 238.1,39.39 262.6,123.44 18.4,62.78 23.8,88.37 -84.1,291.22 0,0 -45,-85.62 -280.4,-65.8 0,0 1.2,-11.1 1.2,-26.15 -0.3,-24.9 -4.2,-60.4 -23.7,-70.63 l -1.2,-0.56 c -30.9,-14.11 -78.9,-42.65 -86.1,-45.35 -0.3,0 144.4,-27.72 211.7,-206.17" /></g><g
         transform="scale(1.58034)"
         id="g802"><path
           id="path804"
           style="fill:#2c3a64;fill-opacity:1;fill-rule:nonzero;stroke:none"
           d="m 16029.9,3225.26 c 105.8,31.26 209.2,27.97 270.1,84.86 -89.7,23.03 -197.6,-13.61 -246.1,-13.61 -0.4,-25.12 -4.3,-60.93 -24,-71.25" /></g><g
         transform="scale(1.55487)"
         id="g806"><path
           id="path808"
           style="fill:#b84c42;fill-opacity:1;fill-rule:nonzero;stroke:none"
           d="m 16279.7,2349.14 -25.2,-12.09 c -9,-2.7 -16.4,-3.28 -25.6,-6.3 -14,-4.57 -17.4,-12.86 -18,-14.67 l -0.2,-0.32 -106.8,-51.32 c -4.5,2.51 -6.2,12.67 -6.8,20.39 -0.5,5.27 1.6,10.42 5.6,13.96 9.8,8.74 30.7,22.38 42.2,50.74 6.5,15.89 37.2,64.89 37.2,64.89 l 0.2,0.19 c 1,0.46 6.3,1.23 34.5,-6.04 14.5,-3.73 22,25.79 22,25.79 0,0 4.7,-1.16 9.6,-5.08 3.9,-3.09 8.1,-7.91 10.2,-15.31 3,-10.35 16.8,-25.79 26.7,-35.95 6,-6.11 10.6,-10.29 10.6,-10.29 0,0 4.1,-5.47 -16.2,-18.59" /></g><g
         transform="scale(1.54994)"
         id="g810"><path
           id="path812"
           style="fill:#aa3e39;fill-opacity:1;fill-rule:nonzero;stroke:none"
           d="m 16300,2436.99 c -4,-7.1 -12.6,-21.61 -20.6,-26.78 -10.6,-6.9 -45.9,11.88 -45.9,11.88 l 0.2,0.19 c 1,0.45 6.3,1.23 34.6,-6.07 14.5,-3.74 22.1,25.88 22.1,25.88 0,0 4.7,-1.16 9.6,-5.1" /></g><g
         transform="scale(1.55487)"
         id="g814"><path
           id="path816"
           style="fill:#aa3e39;fill-opacity:1;fill-rule:nonzero;stroke:none"
           d="m 16279.7,2349.14 -25.2,-12.09 c -9,-2.7 -16.4,-3.28 -25.6,-6.3 -14,-4.57 -17.4,-12.86 -18,-14.67 l -0.2,-0.32 -106.8,-51.32 c -4.5,2.51 -6.2,12.67 -6.8,20.39 1.9,4.44 10.2,-10.55 13.1,-12.09 3,-1.61 87.6,40.97 90.8,46.88 3.2,5.98 15,19.36 38,24.31 20,4.38 41.1,28.05 46.3,34.09 6,-6.11 10.6,-10.29 10.6,-10.29 0,0 4.1,-5.47 -16.2,-18.59" /></g><g
         transform="scale(1.52102)"
         id="g818"><path
           id="path820"
           style="fill:#35488b;fill-opacity:1;fill-rule:nonzero;stroke:none"
           d="m 16021.1,2920.01 c 7,17.48 23.3,28.4 40.9,29.52 202,464.09 204.2,467.77 207.2,472.77 l 29.3,-57.92 c 1.5,2.56 -456.9,-1028.19 -456.9,-1028.19 l -45.1,18.34 224.6,565.48" /></g><g
         transform="scale(1.54085)"
         id="g822"><path
           id="path824"
           style="fill:#415da5;fill-opacity:1;fill-rule:nonzero;stroke:none"
           d="m 16290.5,3309.98 c 9.5,31.87 -8.7,65.36 -40.5,74.83 -31.9,9.48 -65.4,-8.69 -74.9,-40.56 -9.4,-31.8 8.7,-65.35 40.6,-74.83 31.9,-9.41 65.3,8.7 74.8,40.56" /></g><g
         transform="scale(1.50563)"
         id="g826"><path
           id="path828"
           style="fill:#415da5;fill-opacity:1;fill-rule:nonzero;stroke:none"
           d="m 16290.3,3495.21 c 9.7,32.61 -8.9,66.88 -41.5,76.58 -32.6,9.7 -66.9,-8.9 -76.6,-41.44 -9.7,-32.62 8.9,-66.95 41.5,-76.65 32.6,-9.63 66.9,8.9 76.6,41.51" /></g><g
         transform="scale(1.53418)"
         id="g830"><path
           id="path832"
           style="fill:#415da5;fill-opacity:1;fill-rule:nonzero;stroke:none"
           d="m 15942,3389.57 351.9,-88.32 6.1,71.04 -352,88.32 -6,-71.04" /></g><g
         transform="scale(1.53374)"
         id="g834"><path
           id="path836"
           style="fill:#ffb27d;fill-opacity:1;fill-rule:nonzero;stroke:none"
           d="m 16290.5,3460.69 c 0,0 -33.1,-21.72 -56.5,-20.74 -23.5,0.98 -53.2,-8.8 -53.2,-8.8 0,0 -31.3,-9.26 -34.2,-46.36 0,0 0.1,-10.75 49.3,4.37 10.7,3.33 36.6,-2.93 45.4,0 8.8,2.94 35.4,31.82 58.7,31.04 l -9.5,40.49" /></g><g
         transform="scale(1.51748)"
         id="g838"><path
           id="path840"
           style="fill:#e8945b;fill-opacity:1;fill-rule:nonzero;stroke:none"
           d="m 16285.8,3540.2 c 0,0 -33.4,-21.94 -57.2,-20.95 -23.6,0.98 -53.7,-8.9 -53.7,-8.9 0,0 -31.6,-9.36 -34.6,-46.85 0,0 0.8,-15.42 49.8,4.41 13.6,5.47 37.1,-2.97 46,0 8.8,2.97 41.4,27.94 63.9,34.14 l -14.2,38.15" /></g><g
         transform="scale(1.56802)"
         id="g842"><path
           id="path844"
           style="fill:#2c3a64;fill-opacity:1;fill-rule:nonzero;stroke:none"
           d="m 16169.4,4296.62 c 47.3,-8.55 69.2,-34.12 99.3,-107.02 31.3,-76.08 -6.6,-146.1 -36.8,-136.98 -19.3,5.86 -26.2,-27.3 -26.2,-27.3 l -184.1,160.9 c 0,0 26.8,118.18 147.8,110.4" /></g><g
         transform="scale(1.55126)"
         id="g846"><path
           id="path848"
           style="fill:#e8945b;fill-opacity:1;fill-rule:nonzero;stroke:none"
           d="m 16235.2,3899.55 c 0,0 64.8,-36.49 57.2,-128.93 -7.7,-92.44 -92.5,-238.13 -157,-274.3 -51,-28.62 -198.8,-73.35 -198.8,-73.35 l -5.3,40.16 c 0,0 120.2,78.45 146.2,105.27 55.8,57.5 108.9,353.52 157.7,331.15" /></g><g
         transform="scale(1.57853)"
         id="g850"><path
           id="path852"
           style="fill:#ffb27d;fill-opacity:1;fill-rule:nonzero;stroke:none"
           d="m 15961,3627.94 c 2.9,-20.46 8.3,-38.08 15,-54.86 5.5,-14.07 11.9,-27.43 18.5,-41.37 19.4,-40.92 65,-61.13 66.5,-139.88 0.6,-27.11 229.8,87.49 231.1,182.32 v 0.76 c 0.5,4.57 1.1,16.85 1.8,33.14 1.7,39.84 3.9,103.32 4.8,135.5 0,0.76 0,1.46 0,2.16 0.4,13.81 0.8,23.75 1.3,26.35 -30.7,130.57 -101.2,131.07 -125.3,130.69 -3.2,-0.06 -6.5,-0.12 -9.6,-0.31 -13.3,-0.58 -25.8,5.7 -33.5,16.53 -13.5,19.19 -28.6,52.14 -37.9,97.18 l -5.4,-2.35 -92.6,-39.34 c 0,0 8.6,-29.9 14.7,-58.47 2.6,-12.23 4.7,-24.2 5.5,-33.51 0.7,-9 -4.5,-17.36 -12.8,-20.59 v -0.06 c -1.7,-3.68 -56.8,-130.06 -42.1,-233.89" /></g><g
         transform="scale(1.57794)"
         id="g854"><path
           id="path856"
           style="fill:#e8945b;fill-opacity:1;fill-rule:nonzero;stroke:none"
           d="m 15981.9,3574.41 c 5.6,-14.07 12,-27.44 18.6,-41.38 19.4,-40.94 65,-61.16 66.5,-139.93 1.4,-0.13 2.9,-0.26 4.3,-0.38 169.3,-13.25 226.9,183.53 226.9,183.53 0.5,4.56 1,16.85 1.8,33.14 l -305.5,-0.44 c 0,0 -6.2,-13.88 -12.6,-34.54" /></g><g
         transform="scale(1.58865)"
         id="g858"><path
           id="path860"
           style="fill:#739af0;fill-opacity:1;fill-rule:nonzero;stroke:none"
           d="m 15831.5,3642.9 c 0.9,-2.51 1.8,-5.03 2.8,-7.55 29.2,-69.43 93.6,-426.97 93.6,-426.97 0.8,0.51 263.1,-17.18 367.1,126.28 5,-15.18 -19.6,72.26 -57.9,189.72 -28.8,88.12 -43.4,150.31 -42.3,195.32 0,0.75 0,1.45 0.1,2.14 -6.8,5.35 -13.2,10.32 -19.3,15.11 -19.2,15.17 -33.7,28.07 -34,44 -0.1,6.23 0.3,12.65 1.2,19.01 0.5,3.02 0.9,6.04 1.5,9.06 6.1,31.6 20.4,59.86 20.4,59.86 -33,14.86 -93.1,9 -93.1,9 0,0 -22.5,-50.35 -70.5,-80.38 -13.4,-8.43 -61.3,-29.46 -84.9,-7.55 -15.7,14.48 -16.1,44.12 -15.1,47.27 v 0.06 c -54.4,-19.01 -74.2,-35.94 -74.2,-35.94 31.5,-22.16 -17.9,-91.27 4.6,-158.44" /></g><g
         transform="scale(1.55802)"
         id="g862"><path
           id="path864"
           style="fill:#e8945b;fill-opacity:1;fill-rule:nonzero;stroke:none"
           d="m 16206.3,4026.78 c 0,0 8.7,-30.29 14.8,-59.24 54.4,12.96 72.9,68.93 78.9,99.1 l -93.7,-39.86" /></g><g
         transform="scale(1.56028)"
         id="g866"><path
           id="path868"
           style="fill:#ffb27d;fill-opacity:1;fill-rule:nonzero;stroke:none"
           d="m 16170.3,3989.73 c 0,0 129.7,24.93 112.9,105.49 -16.8,80.56 -11.3,137.99 -94.8,125.49 -83.6,-12.5 -93.2,-46.59 -94.1,-74.86 -1,-28.26 41.8,-160.55 76,-156.12" /></g><g
         transform="scale(1.56212)"
         id="g870"><path
           id="path872"
           style="fill:#2c3a64;fill-opacity:1;fill-rule:nonzero;stroke:none"
           d="m 16069.7,4186.48 c 15,28.42 31.1,26.25 41.1,20.74 62.4,53.58 119.9,5.76 119.9,5.76 20.8,-55.94 69.3,-80.27 69.3,-80.27 0,0 -20.5,-19.46 -77.7,-16.84 -17.4,0.77 -34.6,9.41 -50.3,21.13 29.7,-32.26 65.1,-52.49 65.1,-52.49 -71,16.38 -115.9,101.08 -120.5,110.04 -6.4,-8.71 -18.7,-27.34 -20.3,-43.4 -2.2,-21.83 3.8,-64.6 -8.8,-65.75 0,0 -40.1,58.58 -17.8,101.08" /></g><g
         transform="scale(1.57966)"
         id="g874"><path
           id="path876"
           style="fill:#ffb27d;fill-opacity:1;fill-rule:nonzero;stroke:none"
           d="m 15817,3360.1 9.2,-39.32 c 0,0 215,29.38 285.3,70.27 70.2,40.9 176.7,281.33 185.1,383 0.4,5.38 0.7,10.51 0.8,15.45 2.6,87.73 -40.6,101.41 -40.6,101.41 -17.4,7.91 -38.8,-21.71 -61.6,-68.12 -47.8,-97.17 -101.2,-267.84 -132.9,-318.36 -24.4,-38.8 -245.3,-144.33 -245.3,-144.33" /></g><g
         transform="scale(1.57966)"
         id="g878"><path
           id="path880"
           style="fill:#739af0;fill-opacity:1;fill-rule:nonzero;stroke:none"
           d="m 16195.2,3822.79 c 58.9,13.93 102.2,-33.29 102.2,-33.29 2.6,87.73 -40.6,101.41 -40.6,101.41 -17.4,7.91 -38.8,-21.71 -61.6,-68.12" /></g><g
         transform="scale(1.54532)"
         id="g882"><path
           id="path884"
           style="fill:#739af0;fill-opacity:1;fill-rule:nonzero;stroke:none"
           d="m 16270.7,3907.93 c 0,0 -22,-20.45 -30.5,-66.98 0,0 32.6,-0.19 47.8,-32.03 0,0 12,93.96 -17.3,99.01" /></g><g
         transform="scale(1.59636)"
         id="g886"><path
           id="path888"
           style="fill:#2c3a64;fill-opacity:1;fill-rule:nonzero;stroke:none"
           d="m 15873.7,4192.17 c 0,0 70,86.83 158.4,62.46 88.4,-24.37 138.8,-126.48 179.8,-109.69 69,28.19 88.1,-64.33 60.6,-131.67 -24.1,-58.83 -128,-81.25 -190.9,-16.86 -45.9,46.99 -108.9,247.57 -186.6,180.54 -77.7,-67.09 -21.3,15.22 -21.3,15.22" /></g><g
         transform="scale(1.75958)"
         id="g890"><path
           id="path892"
           style="fill:#233862;fill-opacity:1;fill-rule:nonzero;stroke:none"
           d="m 16300,1581 v -6.02 c 0,-9.61 -7.8,-17.51 -17.5,-17.51 H 857.903 c -9.668,0 -17.567,7.9 -17.567,17.51 v 6.02 c 0,9.6 7.899,17.5 17.567,17.5 H 16282.5 c 9.7,0 17.5,-7.9 17.5,-17.5" /></g><path
         id="path894"
         style="fill:#1d3f77;fill-opacity:1;fill-rule:nonzero;stroke:none"
         d="m 9834.06,4560.3 94.52,73.2 -170.61,0.1 z" /><path
         id="path896"
         style="fill:#1d3f77;fill-opacity:1;fill-rule:nonzero;stroke:none"
         d="m 14497.6,4000.9 64.9,50.2 h -215.2 z" /></g></g></svg>