<svg width="1620" height="330" viewBox="0 0 1620 330" fill="none" xmlns="http://www.w3.org/2000/svg">
<path d="M234.237 215.94L237.235 213.293L237.228 213.284L234.237 215.94ZM234.237 124.608L231.265 121.931L231.258 121.938L234.237 124.608ZM315.937 116.696L313.662 119.986L313.68 119.999L313.699 120.011L315.937 116.696ZM336.233 143.012L337.886 146.654L341.318 145.097L339.967 141.579L336.233 143.012ZM313.873 153.16V157.16H314.738L315.526 156.802L313.873 153.16ZM313.701 153.16L310.024 154.736L311.063 157.16H313.701V153.16ZM312.153 149.548L308.469 151.107L308.472 151.115L308.476 151.124L312.153 149.548ZM300.629 135.444L298.393 138.761L298.402 138.767L298.41 138.772L300.629 135.444ZM264.337 133.208L262.729 129.545L262.729 129.545L264.337 133.208ZM252.641 141.464L249.668 138.788L249.659 138.797L249.651 138.807L252.641 141.464ZM252.641 198.912L249.61 201.523L249.613 201.526L252.641 198.912ZM300.629 205.104L298.426 201.765L298.401 201.782L298.375 201.799L300.629 205.104ZM312.153 191L308.451 189.485L308.439 189.512L308.429 189.54L312.153 191ZM313.701 187.216V183.216H311.015L309.999 185.701L313.701 187.216ZM313.873 187.216L315.549 183.584L314.751 183.216H313.873V187.216ZM336.233 197.536L339.944 199.028L341.363 195.498L337.909 193.904L336.233 197.536ZM315.937 223.852L318.228 227.131L318.239 227.123L318.25 227.115L315.937 223.852ZM279.473 231.032C261.553 231.032 247.621 225.057 237.235 213.293L231.238 218.587C243.327 232.279 259.552 239.032 279.473 239.032V231.032ZM237.228 213.284C227.058 201.83 221.897 187.558 221.897 170.188H213.897C213.897 189.282 219.629 205.511 231.246 218.596L237.228 213.284ZM221.897 170.188C221.897 152.817 227.058 138.611 237.215 127.278L231.258 121.938C219.629 134.914 213.897 151.095 213.897 170.188H221.897ZM237.209 127.285C247.843 115.481 261.8 109.516 279.473 109.516V101.516C259.764 101.516 243.564 108.279 231.265 121.931L237.209 127.285ZM279.473 109.516C292.219 109.516 303.574 113.011 313.662 119.986L318.212 113.406C306.742 105.475 293.788 101.516 279.473 101.516V109.516ZM313.699 120.011C322.125 125.699 328.405 133.78 332.498 144.445L339.967 141.579C335.346 129.54 328.095 120.077 318.175 113.381L313.699 120.011ZM334.58 139.37L312.22 149.518L315.526 156.802L337.886 146.654L334.58 139.37ZM313.873 149.16H313.701V157.16H313.873V149.16ZM317.377 151.584L315.829 147.972L308.476 151.124L310.024 154.736L317.377 151.584ZM315.837 147.989C313.023 141.34 308.688 136.009 302.848 132.116L298.41 138.772C302.889 141.759 306.237 145.831 308.469 151.107L315.837 147.989ZM302.864 132.127C296.875 128.091 290.005 126.112 282.397 126.112V134.112C288.548 134.112 293.833 135.688 298.393 138.761L302.864 132.127ZM282.397 126.112C274.724 126.112 268.106 127.185 262.729 129.545L265.945 136.871C269.971 135.103 275.392 134.112 282.397 134.112V126.112ZM262.729 129.545C257.565 131.813 253.183 134.882 249.668 138.788L255.614 144.14C258.29 141.166 261.706 138.731 265.945 136.871L262.729 129.545ZM249.651 138.807C242.436 146.923 239.009 157.522 239.009 170.188H247.009C247.009 159.004 250.003 150.453 255.63 144.121L249.651 138.807ZM239.009 170.188C239.009 182.652 242.45 193.211 249.61 201.523L255.671 196.301C249.989 189.706 247.009 181.116 247.009 170.188H239.009ZM249.613 201.526C257.14 210.241 268.339 214.264 282.397 214.264V206.264C269.851 206.264 261.214 202.719 255.668 196.298L249.613 201.526ZM282.397 214.264C290.174 214.264 297.069 212.373 302.882 208.409L298.375 201.799C294.098 204.715 288.838 206.264 282.397 206.264V214.264ZM302.831 208.443C308.889 204.448 313.273 199.099 315.877 192.46L308.429 189.54C306.446 194.597 303.147 198.651 298.426 201.765L302.831 208.443ZM315.855 192.515L317.403 188.731L309.999 185.701L308.451 189.485L315.855 192.515ZM313.701 191.216H313.873V183.216H313.701V191.216ZM312.196 190.848L334.556 201.168L337.909 193.904L315.549 183.584L312.196 190.848ZM332.521 196.044C328.312 206.513 322.006 214.647 313.624 220.589L318.25 227.115C327.985 220.214 335.209 210.804 339.944 199.028L332.521 196.044ZM313.645 220.573C303.687 227.533 292.341 231.032 279.473 231.032V239.032C293.895 239.032 306.858 235.077 318.228 227.131L313.645 220.573ZM368.496 215.94L371.376 213.164L371.37 213.158L371.365 213.152L368.496 215.94ZM368.668 124.436L371.536 127.224L371.549 127.211L371.562 127.198L368.668 124.436ZM461.548 124.436L458.655 127.198L458.667 127.211L458.679 127.224L461.548 124.436ZM461.548 216.112L458.679 213.324L458.667 213.337L458.655 213.35L461.548 216.112ZM443.832 198.912L440.915 196.175L440.894 196.198L440.872 196.221L443.832 198.912ZM443.832 141.636L446.728 138.876L446.725 138.873L443.832 141.636ZM386.384 141.636L389.28 144.396L389.289 144.386L389.298 144.376L386.384 141.636ZM386.384 198.912L383.467 201.649L383.469 201.651L386.384 198.912ZM415.108 231.032C397.312 231.032 382.839 225.056 371.376 213.164L365.616 218.716C378.692 232.28 395.294 239.032 415.108 239.032V231.032ZM371.365 213.152C360.343 201.809 354.78 187.588 354.78 170.188H346.78C346.78 189.481 353.028 205.761 365.627 218.728L371.365 213.152ZM354.78 170.188C354.78 152.922 360.388 138.694 371.536 127.224L365.8 121.648C353.098 134.716 346.78 150.99 346.78 170.188H354.78ZM371.562 127.198C382.778 115.447 397.178 109.516 415.108 109.516V101.516C395.198 101.516 378.638 108.198 365.775 121.674L371.562 127.198ZM415.108 109.516C433.038 109.516 447.438 115.447 458.655 127.198L464.442 121.674C451.578 108.198 435.018 101.516 415.108 101.516V109.516ZM458.679 127.224C469.701 138.567 475.264 152.788 475.264 170.188H483.264C483.264 150.895 477.016 134.615 464.417 121.648L458.679 127.224ZM475.264 170.188C475.264 187.71 469.697 201.986 458.679 213.324L464.417 218.9C477.021 205.928 483.264 189.588 483.264 170.188H475.264ZM458.655 213.35C447.438 225.101 433.038 231.032 415.108 231.032V239.032C435.018 239.032 451.578 232.35 464.442 218.874L458.655 213.35ZM415.108 214.264C428.26 214.264 439.004 210.17 446.792 201.603L440.872 196.221C434.901 202.79 426.495 206.264 415.108 206.264V214.264ZM446.749 201.649C454.54 193.347 458.324 182.743 458.324 170.188H450.324C450.324 181.025 447.113 189.571 440.915 196.175L446.749 201.649ZM458.324 170.188C458.324 157.634 454.54 147.073 446.728 138.876L440.937 144.396C447.113 150.876 450.324 159.35 450.324 170.188H458.324ZM446.725 138.873C438.543 130.308 427.877 126.112 415.108 126.112V134.112C425.961 134.112 434.444 137.599 440.94 144.399L446.725 138.873ZM415.108 126.112C402.238 126.112 391.552 130.3 383.47 138.896L389.298 144.376C395.664 137.606 404.127 134.112 415.108 134.112V126.112ZM383.489 138.876C375.676 147.073 371.892 157.634 371.892 170.188H379.892C379.892 159.35 383.103 150.876 389.28 144.396L383.489 138.876ZM371.892 170.188C371.892 182.743 375.676 193.347 383.467 201.649L389.301 196.175C383.103 189.571 379.892 181.025 379.892 170.188H371.892ZM383.469 201.651C391.457 210.154 402.156 214.264 415.108 214.264V206.264C403.98 206.264 395.53 202.806 389.3 196.173L383.469 201.651ZM500.79 107.236V103.236H496.79V107.236H500.79ZM524.87 107.236L528.091 104.865L526.892 103.236H524.87V107.236ZM586.79 191.344L583.568 193.715L590.79 203.524V191.344H586.79ZM586.79 107.236V103.236H582.79V107.236H586.79ZM611.902 107.236H615.902V103.236H611.902V107.236ZM611.902 234V238H615.902V234H611.902ZM587.65 234L584.421 236.361L585.619 238H587.65V234ZM525.902 149.548L529.131 147.187L521.902 137.3V149.548H525.902ZM525.902 234V238H529.902V234H525.902ZM500.79 234H496.79V238H500.79V234ZM500.79 111.236H524.87V103.236H500.79V111.236ZM521.648 109.607L583.568 193.715L590.011 188.973L528.091 104.865L521.648 109.607ZM590.79 191.344V107.236H582.79V191.344H590.79ZM586.79 111.236H611.902V103.236H586.79V111.236ZM607.902 107.236V234H615.902V107.236H607.902ZM611.902 230H587.65V238H611.902V230ZM590.879 231.639L529.131 147.187L522.673 151.909L584.421 236.361L590.879 231.639ZM521.902 149.548V234H529.902V149.548H521.902ZM525.902 230H500.79V238H525.902V230ZM504.79 234V107.236H496.79V234H504.79ZM668.26 131.66H672.26V127.66H668.26V131.66ZM628.184 131.66H624.184V135.66H628.184V131.66ZM628.184 107.236V103.236H624.184V107.236H628.184ZM733.276 107.236H737.276V103.236H733.276V107.236ZM733.276 131.66V135.66H737.276V131.66H733.276ZM693.2 131.66V127.66H689.2V131.66H693.2ZM693.2 234V238H697.2V234H693.2ZM668.26 234H664.26V238H668.26V234ZM668.26 127.66H628.184V135.66H668.26V127.66ZM632.184 131.66V107.236H624.184V131.66H632.184ZM628.184 111.236H733.276V103.236H628.184V111.236ZM729.276 107.236V131.66H737.276V107.236H729.276ZM733.276 127.66H693.2V135.66H733.276V127.66ZM689.2 131.66V234H697.2V131.66H689.2ZM693.2 230H668.26V238H693.2V230ZM672.26 234V131.66H664.26V234H672.26ZM783.641 107.236V103.236H780.994L779.959 105.672L783.641 107.236ZM807.893 107.236L811.575 105.672L810.54 103.236H807.893V107.236ZM861.729 234V238H867.774L865.411 232.436L861.729 234ZM834.209 234L830.521 235.548L831.55 238H834.209V234ZM820.277 200.804L823.965 199.256L822.936 196.804H820.277V200.804ZM771.257 200.804V196.804H768.598L767.569 199.256L771.257 200.804ZM757.325 234V238H759.984L761.013 235.548L757.325 234ZM729.805 234L726.123 232.436L723.76 238H729.805V234ZM810.129 176.724V180.724H816.147L813.817 175.175L810.129 176.724ZM795.681 142.324L799.369 140.775L795.659 131.942L791.987 140.791L795.681 142.324ZM781.405 176.724L777.711 175.191L775.414 180.724H781.405V176.724ZM783.641 111.236H807.893V103.236H783.641V111.236ZM804.211 108.8L858.047 235.564L865.411 232.436L811.575 105.672L804.211 108.8ZM861.729 230H834.209V238H861.729V230ZM837.897 232.452L823.965 199.256L816.589 202.352L830.521 235.548L837.897 232.452ZM820.277 196.804H771.257V204.804H820.277V196.804ZM767.569 199.256L753.637 232.452L761.013 235.548L774.945 202.352L767.569 199.256ZM757.325 230H729.805V238H757.325V230ZM733.487 235.564L787.323 108.8L779.959 105.672L726.123 232.436L733.487 235.564ZM813.817 175.175L799.369 140.775L791.993 143.873L806.441 178.273L813.817 175.175ZM791.987 140.791L777.711 175.191L785.099 178.257L799.375 143.857L791.987 140.791ZM781.405 180.724H810.129V172.724H781.405V180.724ZM886.728 215.94L889.727 213.293L889.719 213.284L886.728 215.94ZM886.728 124.608L883.756 121.931L883.749 121.938L886.728 124.608ZM968.428 116.696L966.153 119.986L966.172 119.999L966.19 120.011L968.428 116.696ZM988.724 143.012L990.377 146.654L993.809 145.097L992.458 141.579L988.724 143.012ZM966.364 153.16V157.16H967.229L968.017 156.802L966.364 153.16ZM966.192 153.16L962.516 154.736L963.555 157.16H966.192V153.16ZM964.644 149.548L960.96 151.107L960.964 151.115L960.968 151.124L964.644 149.548ZM953.12 135.444L950.885 138.761L950.893 138.767L950.901 138.772L953.12 135.444ZM916.828 133.208L915.22 129.545L915.22 129.545L916.828 133.208ZM905.132 141.464L902.159 138.788L902.151 138.797L902.142 138.807L905.132 141.464ZM905.132 198.912L902.102 201.523L902.105 201.526L905.132 198.912ZM953.12 205.104L950.918 201.765L950.892 201.782L950.867 201.799L953.12 205.104ZM964.644 191L960.942 189.485L960.931 189.512L960.92 189.54L964.644 191ZM966.192 187.216V183.216H963.507L962.49 185.701L966.192 187.216ZM966.364 187.216L968.04 183.584L967.243 183.216H966.364V187.216ZM988.724 197.536L992.435 199.028L993.855 195.498L990.4 193.904L988.724 197.536ZM968.428 223.852L970.72 227.131L970.73 227.123L970.741 227.115L968.428 223.852ZM931.964 231.032C914.045 231.032 900.113 225.057 889.727 213.293L883.73 218.587C895.818 232.279 912.043 239.032 931.964 239.032V231.032ZM889.719 213.284C879.55 201.83 874.388 187.558 874.388 170.188H866.388C866.388 189.282 872.12 205.511 883.737 218.596L889.719 213.284ZM874.388 170.188C874.388 152.817 879.549 138.611 889.707 127.278L883.749 121.938C872.12 134.914 866.388 151.095 866.388 170.188H874.388ZM889.7 127.285C900.334 115.481 914.291 109.516 931.964 109.516V101.516C912.256 101.516 896.055 108.279 883.756 121.931L889.7 127.285ZM931.964 109.516C944.71 109.516 956.066 113.011 966.153 119.986L970.703 113.406C959.233 105.475 946.28 101.516 931.964 101.516V109.516ZM966.19 120.011C974.616 125.699 980.896 133.78 984.99 144.445L992.458 141.579C987.838 129.54 980.586 120.077 970.666 113.381L966.19 120.011ZM987.071 139.37L964.711 149.518L968.017 156.802L990.377 146.654L987.071 139.37ZM966.364 149.16H966.192V157.16H966.364V149.16ZM969.869 151.584L968.321 147.972L960.968 151.124L962.516 154.736L969.869 151.584ZM968.328 147.989C965.515 141.34 961.179 136.009 955.339 132.116L950.901 138.772C955.381 141.759 958.728 145.831 960.96 151.107L968.328 147.989ZM955.356 132.127C949.366 128.091 942.497 126.112 934.888 126.112V134.112C941.04 134.112 946.325 135.688 950.885 138.761L955.356 132.127ZM934.888 126.112C927.216 126.112 920.597 127.185 915.22 129.545L918.436 136.871C922.462 135.103 927.883 134.112 934.888 134.112V126.112ZM915.22 129.545C910.056 131.813 905.675 134.882 902.159 138.788L908.105 144.14C910.782 141.166 914.197 138.731 918.436 136.871L915.22 129.545ZM902.142 138.807C894.927 146.923 891.5 157.522 891.5 170.188H899.5C899.5 159.004 902.494 150.453 908.122 144.121L902.142 138.807ZM891.5 170.188C891.5 182.652 894.941 193.211 902.102 201.523L908.163 196.301C902.481 189.706 899.5 181.116 899.5 170.188H891.5ZM902.105 201.526C909.631 210.241 920.831 214.264 934.888 214.264V206.264C922.343 206.264 913.705 202.719 908.159 196.298L902.105 201.526ZM934.888 214.264C942.666 214.264 949.56 212.373 955.373 208.409L950.867 201.799C946.589 204.715 941.329 206.264 934.888 206.264V214.264ZM955.323 208.443C961.38 204.448 965.765 199.099 968.368 192.46L960.92 189.54C958.937 194.597 955.639 198.651 950.918 201.765L955.323 208.443ZM968.346 192.515L969.894 188.731L962.49 185.701L960.942 189.485L968.346 192.515ZM966.192 191.216H966.364V183.216H966.192V191.216ZM964.688 190.848L987.048 201.168L990.4 193.904L968.04 183.584L964.688 190.848ZM985.013 196.044C980.803 206.513 974.497 214.647 966.115 220.589L970.741 227.115C980.476 220.214 987.701 210.804 992.435 199.028L985.013 196.044ZM966.137 220.573C956.178 227.533 944.832 231.032 931.964 231.032V239.032C946.387 239.032 959.35 235.077 970.72 227.131L966.137 220.573ZM1038.19 131.66H1042.19V127.66H1038.19V131.66ZM998.112 131.66H994.112V135.66H998.112V131.66ZM998.112 107.236V103.236H994.112V107.236H998.112ZM1103.2 107.236H1107.2V103.236H1103.2V107.236ZM1103.2 131.66V135.66H1107.2V131.66H1103.2ZM1063.13 131.66V127.66H1059.13V131.66H1063.13ZM1063.13 234V238H1067.13V234H1063.13ZM1038.19 234H1034.19V238H1038.19V234ZM1038.19 127.66H998.112V135.66H1038.19V127.66ZM1002.11 131.66V107.236H994.112V131.66H1002.11ZM998.112 111.236H1103.2V103.236H998.112V111.236ZM1099.2 107.236V131.66H1107.2V107.236H1099.2ZM1103.2 127.66H1063.13V135.66H1103.2V127.66ZM1059.13 131.66V234H1067.13V131.66H1059.13ZM1063.13 230H1038.19V238H1063.13V230ZM1042.19 234V131.66H1034.19V234H1042.19ZM1176.97 219.552L1174.11 222.349L1174.11 222.349L1176.97 219.552ZM1161.66 107.236V103.236H1157.66V107.236H1161.66ZM1186.77 107.236H1190.77V103.236H1186.77V107.236ZM1195.89 203.384L1198.68 200.522L1198.67 200.512L1198.66 200.502L1195.89 203.384ZM1237.17 203.384L1239.9 206.308L1239.9 206.301L1239.91 206.294L1237.17 203.384ZM1246.28 107.236V103.236H1242.28V107.236H1246.28ZM1271.22 107.236H1275.22V103.236H1271.22V107.236ZM1255.92 219.552L1258.79 222.333L1255.92 219.552ZM1216.36 231.376C1201.4 231.376 1189.33 226.469 1179.83 216.755L1174.11 222.349C1185.24 233.733 1199.44 239.376 1216.36 239.376V231.376ZM1179.83 216.755C1170.47 207.184 1165.66 194.601 1165.66 178.616H1157.66C1157.66 196.343 1163.06 211.05 1174.11 222.349L1179.83 216.755ZM1165.66 178.616V107.236H1157.66V178.616H1165.66ZM1161.66 111.236H1186.77V103.236H1161.66V111.236ZM1182.77 107.236V178.96H1190.77V107.236H1182.77ZM1182.77 178.96C1182.77 190.207 1186.07 199.493 1193.11 206.266L1198.66 200.502C1193.55 195.579 1190.77 188.582 1190.77 178.96H1182.77ZM1193.09 206.246C1198.95 211.971 1206.89 214.608 1216.36 214.608V206.608C1208.4 206.608 1202.68 204.429 1198.68 200.522L1193.09 206.246ZM1216.36 214.608C1225.83 214.608 1233.83 211.969 1239.9 206.308L1234.44 200.46C1230.18 204.431 1224.31 206.608 1216.36 206.608V214.608ZM1239.91 206.294C1246.99 199.617 1250.28 190.303 1250.28 178.96H1242.28C1242.28 188.715 1239.5 195.685 1234.42 200.474L1239.91 206.294ZM1250.28 178.96V107.236H1242.28V178.96H1250.28ZM1246.28 111.236H1271.22V103.236H1246.28V111.236ZM1267.22 107.236V178.616H1275.22V107.236H1267.22ZM1267.22 178.616C1267.22 194.477 1262.42 207.074 1253.04 216.771L1258.79 222.333C1269.82 210.932 1275.22 196.237 1275.22 178.616H1267.22ZM1253.04 216.771C1243.67 226.458 1231.56 231.376 1216.36 231.376V239.376C1233.49 239.376 1247.75 233.745 1258.79 222.333L1253.04 216.771ZM1308.43 223.164L1305.94 226.287L1305.94 226.295L1308.43 223.164ZM1293.47 193.408L1289.49 193.816L1289.49 193.823L1289.49 193.83L1293.47 193.408ZM1292.78 186.7V182.7H1288.35L1288.8 187.108L1292.78 186.7ZM1318.58 186.7L1322.58 186.458L1322.35 182.7H1318.58V186.7ZM1318.93 192.376L1322.92 192.136L1322.92 192.134L1318.93 192.376ZM1327.35 205.62L1325.33 209.07L1325.34 209.077L1325.35 209.083L1327.35 205.62ZM1366.74 207.684L1368.3 211.366L1368.33 211.355L1368.36 211.344L1366.74 207.684ZM1373.97 202.18L1377.59 203.883L1377.59 203.883L1373.97 202.18ZM1372.25 189.968L1374.54 186.691L1374.53 186.683L1374.52 186.675L1372.25 189.968ZM1359.35 184.12L1358.16 187.94L1358.17 187.944L1358.18 187.947L1359.35 184.12ZM1340.77 179.476L1341.66 175.576L1341.64 175.571L1341.61 175.566L1340.77 179.476ZM1320.99 173.284L1322.45 169.558L1322.44 169.557L1320.99 173.284ZM1304.48 162.62L1307.38 159.867L1307.33 159.812L1307.27 159.759L1304.48 162.62ZM1309.81 115.148L1307.3 112.037L1307.29 112.045L1309.81 115.148ZM1383.77 116.352L1381.21 119.422L1381.22 119.437L1381.24 119.451L1383.77 116.352ZM1397.53 143.356L1393.53 143.524L1393.54 143.548L1393.54 143.572L1397.53 143.356ZM1397.87 149.72V153.72H1402.1L1401.87 149.504L1397.87 149.72ZM1372.76 149.72L1368.8 150.232L1369.25 153.72H1372.76V149.72ZM1372.07 144.388L1368.1 144.865L1368.11 144.882L1368.11 144.9L1372.07 144.388ZM1368.63 136.476L1371.74 133.959L1371.74 133.959L1368.63 136.476ZM1358.14 130.628L1356.99 134.459L1357 134.462L1357.01 134.464L1358.14 130.628ZM1332.17 130.8L1333.44 134.595L1333.45 134.588L1333.47 134.581L1332.17 130.8ZM1324.95 134.412L1322.45 131.289L1322.34 131.373L1322.24 131.463L1324.95 134.412ZM1322.37 138.196L1326.16 139.461L1326.2 139.356L1326.23 139.248L1322.37 138.196ZM1323.05 146.452L1320.23 149.28L1320.23 149.28L1323.05 146.452ZM1330.11 150.752L1328.6 154.456L1328.63 154.471L1328.67 154.485L1330.11 150.752ZM1341.97 154.536L1340.9 158.389L1340.96 158.407L1341.03 158.423L1341.97 154.536ZM1348.34 156.084L1347.39 159.971L1347.41 159.975L1347.43 159.979L1348.34 156.084ZM1356.42 157.976L1357.47 154.117L1357.4 154.098L1357.33 154.081L1356.42 157.976ZM1360.21 159.008L1361.27 155.151L1361.26 155.149L1360.21 159.008ZM1371.39 162.276L1370.04 166.043L1370.1 166.062L1370.15 166.08L1371.39 162.276ZM1385.32 168.984L1383.18 172.362L1383.18 172.367L1383.19 172.372L1385.32 168.984ZM1396.5 180.336L1393.01 182.301L1393.03 182.335L1393.05 182.368L1396.5 180.336ZM1385.83 224.884L1383.55 221.598L1383.55 221.603L1383.54 221.607L1385.83 224.884ZM1349.03 230.516C1332 230.516 1319.48 226.836 1310.92 220.033L1305.94 226.295C1316.42 234.628 1330.97 238.516 1349.03 238.516V230.516ZM1310.93 220.041C1303.32 213.948 1298.73 205.091 1297.45 192.986L1289.49 193.83C1290.96 207.64 1296.35 218.62 1305.94 226.287L1310.93 220.041ZM1297.45 193L1296.76 186.292L1288.8 187.108L1289.49 193.816L1297.45 193ZM1292.78 190.7H1318.58V182.7H1292.78V190.7ZM1314.59 186.942L1314.93 192.618L1322.92 192.134L1322.58 186.458L1314.59 186.942ZM1314.93 192.616C1315.36 199.78 1318.99 205.351 1325.33 209.07L1329.38 202.17C1325.17 199.697 1323.18 196.439 1322.92 192.136L1314.93 192.616ZM1325.35 209.083C1331.38 212.563 1339.46 214.092 1349.2 214.092V206.092C1340.13 206.092 1333.65 204.639 1329.36 202.157L1325.35 209.083ZM1349.2 214.092C1357.24 214.092 1363.76 213.296 1368.3 211.366L1365.18 204.002C1362.16 205.283 1356.98 206.092 1349.2 206.092V214.092ZM1368.36 211.344C1372.4 209.56 1376.01 207.23 1377.59 203.883L1370.35 200.477C1370.09 201.029 1368.88 202.368 1365.13 204.024L1368.36 211.344ZM1377.59 203.883C1378.76 201.395 1379.34 198.749 1379.34 195.988H1371.34C1371.34 197.585 1371.01 199.066 1370.35 200.477L1377.59 203.883ZM1379.34 195.988C1379.34 194.193 1379.05 192.388 1378.23 190.759L1371.08 194.337C1371.18 194.542 1371.34 195.031 1371.34 195.988H1379.34ZM1378.23 190.759C1377.39 189.069 1376.04 187.743 1374.54 186.691L1369.95 193.245C1370.74 193.799 1371 194.192 1371.08 194.337L1378.23 190.759ZM1374.52 186.675C1370.75 184.08 1366.05 181.978 1360.51 180.293L1358.18 187.947C1363.2 189.473 1367.09 191.269 1369.98 193.261L1374.52 186.675ZM1360.53 180.3C1357.04 179.216 1350.71 177.637 1341.66 175.576L1339.88 183.376C1348.95 185.443 1355 186.96 1358.16 187.94L1360.53 180.3ZM1341.61 175.566C1336.03 174.361 1329.64 172.37 1322.45 169.558L1319.54 177.01C1327.01 179.931 1333.82 182.068 1339.93 183.386L1341.61 175.566ZM1322.44 169.557C1316.13 167.096 1311.15 163.842 1307.38 159.867L1301.58 165.373C1306.29 170.342 1312.32 174.197 1319.54 177.011L1322.44 169.557ZM1307.27 159.759C1303.14 155.72 1300.91 150.178 1300.91 142.668H1292.91C1292.91 151.899 1295.73 159.658 1301.68 165.481L1307.27 159.759ZM1300.91 142.668C1300.91 132.486 1304.69 124.465 1312.33 118.251L1307.29 112.045C1297.73 119.82 1292.91 130.146 1292.91 142.668H1300.91ZM1312.32 118.259C1319.72 112.285 1330.78 109 1346.1 109V101C1329.78 101 1316.65 104.48 1307.3 112.037L1312.32 118.259ZM1346.1 109C1361.56 109 1373.09 112.64 1381.21 119.422L1386.34 113.282C1376.33 104.928 1362.76 101 1346.1 101V109ZM1381.24 119.451C1389.1 125.864 1393.13 133.813 1393.53 143.524L1401.53 143.188C1401.02 131.112 1395.87 121.058 1386.3 113.253L1381.24 119.451ZM1393.54 143.572L1393.88 149.936L1401.87 149.504L1401.52 143.14L1393.54 143.572ZM1397.87 145.72H1372.76V153.72H1397.87V145.72ZM1376.73 149.208L1376.04 143.876L1368.11 144.9L1368.8 150.232L1376.73 149.208ZM1376.05 143.911C1375.61 140.242 1374.13 136.908 1371.74 133.959L1365.53 138.993C1367.04 140.86 1367.86 142.801 1368.1 144.865L1376.05 143.911ZM1371.74 133.959C1369.04 130.618 1364.61 128.369 1359.28 126.792L1357.01 134.464C1361.76 135.869 1364.33 137.518 1365.53 138.993L1371.74 133.959ZM1359.29 126.797C1355.35 125.614 1350.57 125.08 1345.07 125.08V133.08C1350.12 133.08 1354.06 133.578 1356.99 134.459L1359.29 126.797ZM1345.07 125.08C1339.55 125.08 1334.77 125.674 1330.87 127.019L1333.47 134.581C1336.23 133.633 1340.04 133.08 1345.07 133.08V125.08ZM1330.91 127.005C1327.56 128.121 1324.67 129.512 1322.45 131.289L1327.45 137.535C1328.66 136.56 1330.59 135.543 1333.44 134.595L1330.91 127.005ZM1322.24 131.463C1320.54 133.027 1319.12 134.905 1318.51 137.144L1326.23 139.248C1326.3 138.964 1326.6 138.319 1327.65 137.361L1322.24 131.463ZM1318.57 136.931C1317.85 139.089 1317.51 141.353 1317.51 143.7H1325.51C1325.51 142.148 1325.73 140.743 1326.16 139.461L1318.57 136.931ZM1317.51 143.7C1317.51 146.153 1319 148.056 1320.23 149.28L1325.88 143.624C1325.71 143.455 1325.59 143.318 1325.51 143.212C1325.42 143.105 1325.39 143.044 1325.38 143.029C1325.36 142.988 1325.51 143.233 1325.51 143.7H1317.51ZM1320.23 149.28C1322.34 151.397 1325.22 153.081 1328.6 154.456L1331.62 147.048C1328.8 145.901 1326.98 144.718 1325.88 143.624L1320.23 149.28ZM1328.67 154.485C1331.82 155.696 1335.91 156.996 1340.9 158.389L1343.05 150.683C1338.18 149.324 1334.36 148.101 1331.54 147.019L1328.67 154.485ZM1341.03 158.423L1347.39 159.971L1349.28 152.197L1342.92 150.649L1341.03 158.423ZM1347.43 159.979L1355.51 161.871L1357.33 154.081L1349.25 152.189L1347.43 159.979ZM1355.37 161.835L1359.15 162.867L1361.26 155.149L1357.47 154.117L1355.37 161.835ZM1359.15 162.865C1365.04 164.482 1368.61 165.531 1370.04 166.043L1372.73 158.509C1370.96 157.875 1367.07 156.744 1361.27 155.151L1359.15 162.865ZM1370.15 166.08C1374.37 167.453 1378.72 169.533 1383.18 172.362L1387.46 165.606C1382.52 162.472 1377.57 160.081 1372.62 158.472L1370.15 166.08ZM1383.19 172.372C1387.63 175.162 1390.86 178.483 1393.01 182.301L1399.98 178.371C1397.09 173.245 1392.86 168.998 1387.45 165.596L1383.19 172.372ZM1393.05 182.368C1395.31 186.187 1396.45 190.466 1396.45 195.3H1404.45C1404.45 189.126 1402.97 183.429 1399.94 178.304L1393.05 182.368ZM1396.45 195.3C1396.45 207.088 1392.11 215.657 1383.55 221.598L1388.12 228.17C1399.05 220.58 1404.45 209.427 1404.45 195.3H1396.45ZM1383.54 221.607C1375.25 227.412 1363.87 230.516 1349.03 230.516V238.516C1364.91 238.516 1378.07 235.199 1388.13 228.161L1383.54 221.607Z" fill="url(#paint0_linear_454_3)"/>
<path d="M234.237 215.94L237.235 213.293L237.228 213.284L234.237 215.94ZM234.237 124.608L231.265 121.931L231.258 121.938L234.237 124.608ZM315.937 116.696L313.662 119.986L313.68 119.999L313.699 120.011L315.937 116.696ZM336.233 143.012L337.886 146.654L341.318 145.097L339.967 141.579L336.233 143.012ZM313.873 153.16V157.16H314.738L315.526 156.802L313.873 153.16ZM313.701 153.16L310.024 154.736L311.063 157.16H313.701V153.16ZM312.153 149.548L308.469 151.107L308.472 151.115L308.476 151.124L312.153 149.548ZM300.629 135.444L298.393 138.761L298.402 138.767L298.41 138.772L300.629 135.444ZM264.337 133.208L262.729 129.545L262.729 129.545L264.337 133.208ZM252.641 141.464L249.668 138.788L249.659 138.797L249.651 138.807L252.641 141.464ZM252.641 198.912L249.61 201.523L249.613 201.526L252.641 198.912ZM300.629 205.104L298.426 201.765L298.401 201.782L298.375 201.799L300.629 205.104ZM312.153 191L308.451 189.485L308.439 189.512L308.429 189.54L312.153 191ZM313.701 187.216V183.216H311.015L309.999 185.701L313.701 187.216ZM313.873 187.216L315.549 183.584L314.751 183.216H313.873V187.216ZM336.233 197.536L339.944 199.028L341.363 195.498L337.909 193.904L336.233 197.536ZM315.937 223.852L318.228 227.131L318.239 227.123L318.25 227.115L315.937 223.852ZM279.473 231.032C261.553 231.032 247.621 225.057 237.235 213.293L231.238 218.587C243.327 232.279 259.552 239.032 279.473 239.032V231.032ZM237.228 213.284C227.058 201.83 221.897 187.558 221.897 170.188H213.897C213.897 189.282 219.629 205.511 231.246 218.596L237.228 213.284ZM221.897 170.188C221.897 152.817 227.058 138.611 237.215 127.278L231.258 121.938C219.629 134.914 213.897 151.095 213.897 170.188H221.897ZM237.209 127.285C247.843 115.481 261.8 109.516 279.473 109.516V101.516C259.764 101.516 243.564 108.279 231.265 121.931L237.209 127.285ZM279.473 109.516C292.219 109.516 303.574 113.011 313.662 119.986L318.212 113.406C306.742 105.475 293.788 101.516 279.473 101.516V109.516ZM313.699 120.011C322.125 125.699 328.405 133.78 332.498 144.445L339.967 141.579C335.346 129.54 328.095 120.077 318.175 113.381L313.699 120.011ZM334.58 139.37L312.22 149.518L315.526 156.802L337.886 146.654L334.58 139.37ZM313.873 149.16H313.701V157.16H313.873V149.16ZM317.377 151.584L315.829 147.972L308.476 151.124L310.024 154.736L317.377 151.584ZM315.837 147.989C313.023 141.34 308.688 136.009 302.848 132.116L298.41 138.772C302.889 141.759 306.237 145.831 308.469 151.107L315.837 147.989ZM302.864 132.127C296.875 128.091 290.005 126.112 282.397 126.112V134.112C288.548 134.112 293.833 135.688 298.393 138.761L302.864 132.127ZM282.397 126.112C274.724 126.112 268.106 127.185 262.729 129.545L265.945 136.871C269.971 135.103 275.392 134.112 282.397 134.112V126.112ZM262.729 129.545C257.565 131.813 253.183 134.882 249.668 138.788L255.614 144.14C258.29 141.166 261.706 138.731 265.945 136.871L262.729 129.545ZM249.651 138.807C242.436 146.923 239.009 157.522 239.009 170.188H247.009C247.009 159.004 250.003 150.453 255.63 144.121L249.651 138.807ZM239.009 170.188C239.009 182.652 242.45 193.211 249.61 201.523L255.671 196.301C249.989 189.706 247.009 181.116 247.009 170.188H239.009ZM249.613 201.526C257.14 210.241 268.339 214.264 282.397 214.264V206.264C269.851 206.264 261.214 202.719 255.668 196.298L249.613 201.526ZM282.397 214.264C290.174 214.264 297.069 212.373 302.882 208.409L298.375 201.799C294.098 204.715 288.838 206.264 282.397 206.264V214.264ZM302.831 208.443C308.889 204.448 313.273 199.099 315.877 192.46L308.429 189.54C306.446 194.597 303.147 198.651 298.426 201.765L302.831 208.443ZM315.855 192.515L317.403 188.731L309.999 185.701L308.451 189.485L315.855 192.515ZM313.701 191.216H313.873V183.216H313.701V191.216ZM312.196 190.848L334.556 201.168L337.909 193.904L315.549 183.584L312.196 190.848ZM332.521 196.044C328.312 206.513 322.006 214.647 313.624 220.589L318.25 227.115C327.985 220.214 335.209 210.804 339.944 199.028L332.521 196.044ZM313.645 220.573C303.687 227.533 292.341 231.032 279.473 231.032V239.032C293.895 239.032 306.858 235.077 318.228 227.131L313.645 220.573ZM368.496 215.94L371.376 213.164L371.37 213.158L371.365 213.152L368.496 215.94ZM368.668 124.436L371.536 127.224L371.549 127.211L371.562 127.198L368.668 124.436ZM461.548 124.436L458.655 127.198L458.667 127.211L458.679 127.224L461.548 124.436ZM461.548 216.112L458.679 213.324L458.667 213.337L458.655 213.35L461.548 216.112ZM443.832 198.912L440.915 196.175L440.894 196.198L440.872 196.221L443.832 198.912ZM443.832 141.636L446.728 138.876L446.725 138.873L443.832 141.636ZM386.384 141.636L389.28 144.396L389.289 144.386L389.298 144.376L386.384 141.636ZM386.384 198.912L383.467 201.649L383.469 201.651L386.384 198.912ZM415.108 231.032C397.312 231.032 382.839 225.056 371.376 213.164L365.616 218.716C378.692 232.28 395.294 239.032 415.108 239.032V231.032ZM371.365 213.152C360.343 201.809 354.78 187.588 354.78 170.188H346.78C346.78 189.481 353.028 205.761 365.627 218.728L371.365 213.152ZM354.78 170.188C354.78 152.922 360.388 138.694 371.536 127.224L365.8 121.648C353.098 134.716 346.78 150.99 346.78 170.188H354.78ZM371.562 127.198C382.778 115.447 397.178 109.516 415.108 109.516V101.516C395.198 101.516 378.638 108.198 365.775 121.674L371.562 127.198ZM415.108 109.516C433.038 109.516 447.438 115.447 458.655 127.198L464.442 121.674C451.578 108.198 435.018 101.516 415.108 101.516V109.516ZM458.679 127.224C469.701 138.567 475.264 152.788 475.264 170.188H483.264C483.264 150.895 477.016 134.615 464.417 121.648L458.679 127.224ZM475.264 170.188C475.264 187.71 469.697 201.986 458.679 213.324L464.417 218.9C477.021 205.928 483.264 189.588 483.264 170.188H475.264ZM458.655 213.35C447.438 225.101 433.038 231.032 415.108 231.032V239.032C435.018 239.032 451.578 232.35 464.442 218.874L458.655 213.35ZM415.108 214.264C428.26 214.264 439.004 210.17 446.792 201.603L440.872 196.221C434.901 202.79 426.495 206.264 415.108 206.264V214.264ZM446.749 201.649C454.54 193.347 458.324 182.743 458.324 170.188H450.324C450.324 181.025 447.113 189.571 440.915 196.175L446.749 201.649ZM458.324 170.188C458.324 157.634 454.54 147.073 446.728 138.876L440.937 144.396C447.113 150.876 450.324 159.35 450.324 170.188H458.324ZM446.725 138.873C438.543 130.308 427.877 126.112 415.108 126.112V134.112C425.961 134.112 434.444 137.599 440.94 144.399L446.725 138.873ZM415.108 126.112C402.238 126.112 391.552 130.3 383.47 138.896L389.298 144.376C395.664 137.606 404.127 134.112 415.108 134.112V126.112ZM383.489 138.876C375.676 147.073 371.892 157.634 371.892 170.188H379.892C379.892 159.35 383.103 150.876 389.28 144.396L383.489 138.876ZM371.892 170.188C371.892 182.743 375.676 193.347 383.467 201.649L389.301 196.175C383.103 189.571 379.892 181.025 379.892 170.188H371.892ZM383.469 201.651C391.457 210.154 402.156 214.264 415.108 214.264V206.264C403.98 206.264 395.53 202.806 389.3 196.173L383.469 201.651ZM500.79 107.236V103.236H496.79V107.236H500.79ZM524.87 107.236L528.091 104.865L526.892 103.236H524.87V107.236ZM586.79 191.344L583.568 193.715L590.79 203.524V191.344H586.79ZM586.79 107.236V103.236H582.79V107.236H586.79ZM611.902 107.236H615.902V103.236H611.902V107.236ZM611.902 234V238H615.902V234H611.902ZM587.65 234L584.421 236.361L585.619 238H587.65V234ZM525.902 149.548L529.131 147.187L521.902 137.3V149.548H525.902ZM525.902 234V238H529.902V234H525.902ZM500.79 234H496.79V238H500.79V234ZM500.79 111.236H524.87V103.236H500.79V111.236ZM521.648 109.607L583.568 193.715L590.011 188.973L528.091 104.865L521.648 109.607ZM590.79 191.344V107.236H582.79V191.344H590.79ZM586.79 111.236H611.902V103.236H586.79V111.236ZM607.902 107.236V234H615.902V107.236H607.902ZM611.902 230H587.65V238H611.902V230ZM590.879 231.639L529.131 147.187L522.673 151.909L584.421 236.361L590.879 231.639ZM521.902 149.548V234H529.902V149.548H521.902ZM525.902 230H500.79V238H525.902V230ZM504.79 234V107.236H496.79V234H504.79ZM668.26 131.66H672.26V127.66H668.26V131.66ZM628.184 131.66H624.184V135.66H628.184V131.66ZM628.184 107.236V103.236H624.184V107.236H628.184ZM733.276 107.236H737.276V103.236H733.276V107.236ZM733.276 131.66V135.66H737.276V131.66H733.276ZM693.2 131.66V127.66H689.2V131.66H693.2ZM693.2 234V238H697.2V234H693.2ZM668.26 234H664.26V238H668.26V234ZM668.26 127.66H628.184V135.66H668.26V127.66ZM632.184 131.66V107.236H624.184V131.66H632.184ZM628.184 111.236H733.276V103.236H628.184V111.236ZM729.276 107.236V131.66H737.276V107.236H729.276ZM733.276 127.66H693.2V135.66H733.276V127.66ZM689.2 131.66V234H697.2V131.66H689.2ZM693.2 230H668.26V238H693.2V230ZM672.26 234V131.66H664.26V234H672.26ZM783.641 107.236V103.236H780.994L779.959 105.672L783.641 107.236ZM807.893 107.236L811.575 105.672L810.54 103.236H807.893V107.236ZM861.729 234V238H867.774L865.411 232.436L861.729 234ZM834.209 234L830.521 235.548L831.55 238H834.209V234ZM820.277 200.804L823.965 199.256L822.936 196.804H820.277V200.804ZM771.257 200.804V196.804H768.598L767.569 199.256L771.257 200.804ZM757.325 234V238H759.984L761.013 235.548L757.325 234ZM729.805 234L726.123 232.436L723.76 238H729.805V234ZM810.129 176.724V180.724H816.147L813.817 175.175L810.129 176.724ZM795.681 142.324L799.369 140.775L795.659 131.942L791.987 140.791L795.681 142.324ZM781.405 176.724L777.711 175.191L775.414 180.724H781.405V176.724ZM783.641 111.236H807.893V103.236H783.641V111.236ZM804.211 108.8L858.047 235.564L865.411 232.436L811.575 105.672L804.211 108.8ZM861.729 230H834.209V238H861.729V230ZM837.897 232.452L823.965 199.256L816.589 202.352L830.521 235.548L837.897 232.452ZM820.277 196.804H771.257V204.804H820.277V196.804ZM767.569 199.256L753.637 232.452L761.013 235.548L774.945 202.352L767.569 199.256ZM757.325 230H729.805V238H757.325V230ZM733.487 235.564L787.323 108.8L779.959 105.672L726.123 232.436L733.487 235.564ZM813.817 175.175L799.369 140.775L791.993 143.873L806.441 178.273L813.817 175.175ZM791.987 140.791L777.711 175.191L785.099 178.257L799.375 143.857L791.987 140.791ZM781.405 180.724H810.129V172.724H781.405V180.724ZM886.728 215.94L889.727 213.293L889.719 213.284L886.728 215.94ZM886.728 124.608L883.756 121.931L883.749 121.938L886.728 124.608ZM968.428 116.696L966.153 119.986L966.172 119.999L966.19 120.011L968.428 116.696ZM988.724 143.012L990.377 146.654L993.809 145.097L992.458 141.579L988.724 143.012ZM966.364 153.16V157.16H967.229L968.017 156.802L966.364 153.16ZM966.192 153.16L962.516 154.736L963.555 157.16H966.192V153.16ZM964.644 149.548L960.96 151.107L960.964 151.115L960.968 151.124L964.644 149.548ZM953.12 135.444L950.885 138.761L950.893 138.767L950.901 138.772L953.12 135.444ZM916.828 133.208L915.22 129.545L915.22 129.545L916.828 133.208ZM905.132 141.464L902.159 138.788L902.151 138.797L902.142 138.807L905.132 141.464ZM905.132 198.912L902.102 201.523L902.105 201.526L905.132 198.912ZM953.12 205.104L950.918 201.765L950.892 201.782L950.867 201.799L953.12 205.104ZM964.644 191L960.942 189.485L960.931 189.512L960.92 189.54L964.644 191ZM966.192 187.216V183.216H963.507L962.49 185.701L966.192 187.216ZM966.364 187.216L968.04 183.584L967.243 183.216H966.364V187.216ZM988.724 197.536L992.435 199.028L993.855 195.498L990.4 193.904L988.724 197.536ZM968.428 223.852L970.72 227.131L970.73 227.123L970.741 227.115L968.428 223.852ZM931.964 231.032C914.045 231.032 900.113 225.057 889.727 213.293L883.73 218.587C895.818 232.279 912.043 239.032 931.964 239.032V231.032ZM889.719 213.284C879.55 201.83 874.388 187.558 874.388 170.188H866.388C866.388 189.282 872.12 205.511 883.737 218.596L889.719 213.284ZM874.388 170.188C874.388 152.817 879.549 138.611 889.707 127.278L883.749 121.938C872.12 134.914 866.388 151.095 866.388 170.188H874.388ZM889.7 127.285C900.334 115.481 914.291 109.516 931.964 109.516V101.516C912.256 101.516 896.055 108.279 883.756 121.931L889.7 127.285ZM931.964 109.516C944.71 109.516 956.066 113.011 966.153 119.986L970.703 113.406C959.233 105.475 946.28 101.516 931.964 101.516V109.516ZM966.19 120.011C974.616 125.699 980.896 133.78 984.99 144.445L992.458 141.579C987.838 129.54 980.586 120.077 970.666 113.381L966.19 120.011ZM987.071 139.37L964.711 149.518L968.017 156.802L990.377 146.654L987.071 139.37ZM966.364 149.16H966.192V157.16H966.364V149.16ZM969.869 151.584L968.321 147.972L960.968 151.124L962.516 154.736L969.869 151.584ZM968.328 147.989C965.515 141.34 961.179 136.009 955.339 132.116L950.901 138.772C955.381 141.759 958.728 145.831 960.96 151.107L968.328 147.989ZM955.356 132.127C949.366 128.091 942.497 126.112 934.888 126.112V134.112C941.04 134.112 946.325 135.688 950.885 138.761L955.356 132.127ZM934.888 126.112C927.216 126.112 920.597 127.185 915.22 129.545L918.436 136.871C922.462 135.103 927.883 134.112 934.888 134.112V126.112ZM915.22 129.545C910.056 131.813 905.675 134.882 902.159 138.788L908.105 144.14C910.782 141.166 914.197 138.731 918.436 136.871L915.22 129.545ZM902.142 138.807C894.927 146.923 891.5 157.522 891.5 170.188H899.5C899.5 159.004 902.494 150.453 908.122 144.121L902.142 138.807ZM891.5 170.188C891.5 182.652 894.941 193.211 902.102 201.523L908.163 196.301C902.481 189.706 899.5 181.116 899.5 170.188H891.5ZM902.105 201.526C909.631 210.241 920.831 214.264 934.888 214.264V206.264C922.343 206.264 913.705 202.719 908.159 196.298L902.105 201.526ZM934.888 214.264C942.666 214.264 949.56 212.373 955.373 208.409L950.867 201.799C946.589 204.715 941.329 206.264 934.888 206.264V214.264ZM955.323 208.443C961.38 204.448 965.765 199.099 968.368 192.46L960.92 189.54C958.937 194.597 955.639 198.651 950.918 201.765L955.323 208.443ZM968.346 192.515L969.894 188.731L962.49 185.701L960.942 189.485L968.346 192.515ZM966.192 191.216H966.364V183.216H966.192V191.216ZM964.688 190.848L987.048 201.168L990.4 193.904L968.04 183.584L964.688 190.848ZM985.013 196.044C980.803 206.513 974.497 214.647 966.115 220.589L970.741 227.115C980.476 220.214 987.701 210.804 992.435 199.028L985.013 196.044ZM966.137 220.573C956.178 227.533 944.832 231.032 931.964 231.032V239.032C946.387 239.032 959.35 235.077 970.72 227.131L966.137 220.573ZM1038.19 131.66H1042.19V127.66H1038.19V131.66ZM998.112 131.66H994.112V135.66H998.112V131.66ZM998.112 107.236V103.236H994.112V107.236H998.112ZM1103.2 107.236H1107.2V103.236H1103.2V107.236ZM1103.2 131.66V135.66H1107.2V131.66H1103.2ZM1063.13 131.66V127.66H1059.13V131.66H1063.13ZM1063.13 234V238H1067.13V234H1063.13ZM1038.19 234H1034.19V238H1038.19V234ZM1038.19 127.66H998.112V135.66H1038.19V127.66ZM1002.11 131.66V107.236H994.112V131.66H1002.11ZM998.112 111.236H1103.2V103.236H998.112V111.236ZM1099.2 107.236V131.66H1107.2V107.236H1099.2ZM1103.2 127.66H1063.13V135.66H1103.2V127.66ZM1059.13 131.66V234H1067.13V131.66H1059.13ZM1063.13 230H1038.19V238H1063.13V230ZM1042.19 234V131.66H1034.19V234H1042.19ZM1176.97 219.552L1174.11 222.349L1174.11 222.349L1176.97 219.552ZM1161.66 107.236V103.236H1157.66V107.236H1161.66ZM1186.77 107.236H1190.77V103.236H1186.77V107.236ZM1195.89 203.384L1198.68 200.522L1198.67 200.512L1198.66 200.502L1195.89 203.384ZM1237.17 203.384L1239.9 206.308L1239.9 206.301L1239.91 206.294L1237.17 203.384ZM1246.28 107.236V103.236H1242.28V107.236H1246.28ZM1271.22 107.236H1275.22V103.236H1271.22V107.236ZM1255.92 219.552L1258.79 222.333L1255.92 219.552ZM1216.36 231.376C1201.4 231.376 1189.33 226.469 1179.83 216.755L1174.11 222.349C1185.24 233.733 1199.44 239.376 1216.36 239.376V231.376ZM1179.83 216.755C1170.47 207.184 1165.66 194.601 1165.66 178.616H1157.66C1157.66 196.343 1163.06 211.05 1174.11 222.349L1179.83 216.755ZM1165.66 178.616V107.236H1157.66V178.616H1165.66ZM1161.66 111.236H1186.77V103.236H1161.66V111.236ZM1182.77 107.236V178.96H1190.77V107.236H1182.77ZM1182.77 178.96C1182.77 190.207 1186.07 199.493 1193.11 206.266L1198.66 200.502C1193.55 195.579 1190.77 188.582 1190.77 178.96H1182.77ZM1193.09 206.246C1198.95 211.971 1206.89 214.608 1216.36 214.608V206.608C1208.4 206.608 1202.68 204.429 1198.68 200.522L1193.09 206.246ZM1216.36 214.608C1225.83 214.608 1233.83 211.969 1239.9 206.308L1234.44 200.46C1230.18 204.431 1224.31 206.608 1216.36 206.608V214.608ZM1239.91 206.294C1246.99 199.617 1250.28 190.303 1250.28 178.96H1242.28C1242.28 188.715 1239.5 195.685 1234.42 200.474L1239.91 206.294ZM1250.28 178.96V107.236H1242.28V178.96H1250.28ZM1246.28 111.236H1271.22V103.236H1246.28V111.236ZM1267.22 107.236V178.616H1275.22V107.236H1267.22ZM1267.22 178.616C1267.22 194.477 1262.42 207.074 1253.04 216.771L1258.79 222.333C1269.82 210.932 1275.22 196.237 1275.22 178.616H1267.22ZM1253.04 216.771C1243.67 226.458 1231.56 231.376 1216.36 231.376V239.376C1233.49 239.376 1247.75 233.745 1258.79 222.333L1253.04 216.771ZM1308.43 223.164L1305.94 226.287L1305.94 226.295L1308.43 223.164ZM1293.47 193.408L1289.49 193.816L1289.49 193.823L1289.49 193.83L1293.47 193.408ZM1292.78 186.7V182.7H1288.35L1288.8 187.108L1292.78 186.7ZM1318.58 186.7L1322.58 186.458L1322.35 182.7H1318.58V186.7ZM1318.93 192.376L1322.92 192.136L1322.92 192.134L1318.93 192.376ZM1327.35 205.62L1325.33 209.07L1325.34 209.077L1325.35 209.083L1327.35 205.62ZM1366.74 207.684L1368.3 211.366L1368.33 211.355L1368.36 211.344L1366.74 207.684ZM1373.97 202.18L1377.59 203.883L1377.59 203.883L1373.97 202.18ZM1372.25 189.968L1374.54 186.691L1374.53 186.683L1374.52 186.675L1372.25 189.968ZM1359.35 184.12L1358.16 187.94L1358.17 187.944L1358.18 187.947L1359.35 184.12ZM1340.77 179.476L1341.66 175.576L1341.64 175.571L1341.61 175.566L1340.77 179.476ZM1320.99 173.284L1322.45 169.558L1322.44 169.557L1320.99 173.284ZM1304.48 162.62L1307.38 159.867L1307.33 159.812L1307.27 159.759L1304.48 162.62ZM1309.81 115.148L1307.3 112.037L1307.29 112.045L1309.81 115.148ZM1383.77 116.352L1381.21 119.422L1381.22 119.437L1381.24 119.451L1383.77 116.352ZM1397.53 143.356L1393.53 143.524L1393.54 143.548L1393.54 143.572L1397.53 143.356ZM1397.87 149.72V153.72H1402.1L1401.87 149.504L1397.87 149.72ZM1372.76 149.72L1368.8 150.232L1369.25 153.72H1372.76V149.72ZM1372.07 144.388L1368.1 144.865L1368.11 144.882L1368.11 144.9L1372.07 144.388ZM1368.63 136.476L1371.74 133.959L1371.74 133.959L1368.63 136.476ZM1358.14 130.628L1356.99 134.459L1357 134.462L1357.01 134.464L1358.14 130.628ZM1332.17 130.8L1333.44 134.595L1333.45 134.588L1333.47 134.581L1332.17 130.8ZM1324.95 134.412L1322.45 131.289L1322.34 131.373L1322.24 131.463L1324.95 134.412ZM1322.37 138.196L1326.16 139.461L1326.2 139.356L1326.23 139.248L1322.37 138.196ZM1323.05 146.452L1320.23 149.28L1320.23 149.28L1323.05 146.452ZM1330.11 150.752L1328.6 154.456L1328.63 154.471L1328.67 154.485L1330.11 150.752ZM1341.97 154.536L1340.9 158.389L1340.96 158.407L1341.03 158.423L1341.97 154.536ZM1348.34 156.084L1347.39 159.971L1347.41 159.975L1347.43 159.979L1348.34 156.084ZM1356.42 157.976L1357.47 154.117L1357.4 154.098L1357.33 154.081L1356.42 157.976ZM1360.21 159.008L1361.27 155.151L1361.26 155.149L1360.21 159.008ZM1371.39 162.276L1370.04 166.043L1370.1 166.062L1370.15 166.08L1371.39 162.276ZM1385.32 168.984L1383.18 172.362L1383.18 172.367L1383.19 172.372L1385.32 168.984ZM1396.5 180.336L1393.01 182.301L1393.03 182.335L1393.05 182.368L1396.5 180.336ZM1385.83 224.884L1383.55 221.598L1383.55 221.603L1383.54 221.607L1385.83 224.884ZM1349.03 230.516C1332 230.516 1319.48 226.836 1310.92 220.033L1305.94 226.295C1316.42 234.628 1330.97 238.516 1349.03 238.516V230.516ZM1310.93 220.041C1303.32 213.948 1298.73 205.091 1297.45 192.986L1289.49 193.83C1290.96 207.64 1296.35 218.62 1305.94 226.287L1310.93 220.041ZM1297.45 193L1296.76 186.292L1288.8 187.108L1289.49 193.816L1297.45 193ZM1292.78 190.7H1318.58V182.7H1292.78V190.7ZM1314.59 186.942L1314.93 192.618L1322.92 192.134L1322.58 186.458L1314.59 186.942ZM1314.93 192.616C1315.36 199.78 1318.99 205.351 1325.33 209.07L1329.38 202.17C1325.17 199.697 1323.18 196.439 1322.92 192.136L1314.93 192.616ZM1325.35 209.083C1331.38 212.563 1339.46 214.092 1349.2 214.092V206.092C1340.13 206.092 1333.65 204.639 1329.36 202.157L1325.35 209.083ZM1349.2 214.092C1357.24 214.092 1363.76 213.296 1368.3 211.366L1365.18 204.002C1362.16 205.283 1356.98 206.092 1349.2 206.092V214.092ZM1368.36 211.344C1372.4 209.56 1376.01 207.23 1377.59 203.883L1370.35 200.477C1370.09 201.029 1368.88 202.368 1365.13 204.024L1368.36 211.344ZM1377.59 203.883C1378.76 201.395 1379.34 198.749 1379.34 195.988H1371.34C1371.34 197.585 1371.01 199.066 1370.35 200.477L1377.59 203.883ZM1379.34 195.988C1379.34 194.193 1379.05 192.388 1378.23 190.759L1371.08 194.337C1371.18 194.542 1371.34 195.031 1371.34 195.988H1379.34ZM1378.23 190.759C1377.39 189.069 1376.04 187.743 1374.54 186.691L1369.95 193.245C1370.74 193.799 1371 194.192 1371.08 194.337L1378.23 190.759ZM1374.52 186.675C1370.75 184.08 1366.05 181.978 1360.51 180.293L1358.18 187.947C1363.2 189.473 1367.09 191.269 1369.98 193.261L1374.52 186.675ZM1360.53 180.3C1357.04 179.216 1350.71 177.637 1341.66 175.576L1339.88 183.376C1348.95 185.443 1355 186.96 1358.16 187.94L1360.53 180.3ZM1341.61 175.566C1336.03 174.361 1329.64 172.37 1322.45 169.558L1319.54 177.01C1327.01 179.931 1333.82 182.068 1339.93 183.386L1341.61 175.566ZM1322.44 169.557C1316.13 167.096 1311.15 163.842 1307.38 159.867L1301.58 165.373C1306.29 170.342 1312.32 174.197 1319.54 177.011L1322.44 169.557ZM1307.27 159.759C1303.14 155.72 1300.91 150.178 1300.91 142.668H1292.91C1292.91 151.899 1295.73 159.658 1301.68 165.481L1307.27 159.759ZM1300.91 142.668C1300.91 132.486 1304.69 124.465 1312.33 118.251L1307.29 112.045C1297.73 119.82 1292.91 130.146 1292.91 142.668H1300.91ZM1312.32 118.259C1319.72 112.285 1330.78 109 1346.1 109V101C1329.78 101 1316.65 104.48 1307.3 112.037L1312.32 118.259ZM1346.1 109C1361.56 109 1373.09 112.64 1381.21 119.422L1386.34 113.282C1376.33 104.928 1362.76 101 1346.1 101V109ZM1381.24 119.451C1389.1 125.864 1393.13 133.813 1393.53 143.524L1401.53 143.188C1401.02 131.112 1395.87 121.058 1386.3 113.253L1381.24 119.451ZM1393.54 143.572L1393.88 149.936L1401.87 149.504L1401.52 143.14L1393.54 143.572ZM1397.87 145.72H1372.76V153.72H1397.87V145.72ZM1376.73 149.208L1376.04 143.876L1368.11 144.9L1368.8 150.232L1376.73 149.208ZM1376.05 143.911C1375.61 140.242 1374.13 136.908 1371.74 133.959L1365.53 138.993C1367.04 140.86 1367.86 142.801 1368.1 144.865L1376.05 143.911ZM1371.74 133.959C1369.04 130.618 1364.61 128.369 1359.28 126.792L1357.01 134.464C1361.76 135.869 1364.33 137.518 1365.53 138.993L1371.74 133.959ZM1359.29 126.797C1355.35 125.614 1350.57 125.08 1345.07 125.08V133.08C1350.12 133.08 1354.06 133.578 1356.99 134.459L1359.29 126.797ZM1345.07 125.08C1339.55 125.08 1334.77 125.674 1330.87 127.019L1333.47 134.581C1336.23 133.633 1340.04 133.08 1345.07 133.08V125.08ZM1330.91 127.005C1327.56 128.121 1324.67 129.512 1322.45 131.289L1327.45 137.535C1328.66 136.56 1330.59 135.543 1333.44 134.595L1330.91 127.005ZM1322.24 131.463C1320.54 133.027 1319.12 134.905 1318.51 137.144L1326.23 139.248C1326.3 138.964 1326.6 138.319 1327.65 137.361L1322.24 131.463ZM1318.57 136.931C1317.85 139.089 1317.51 141.353 1317.51 143.7H1325.51C1325.51 142.148 1325.73 140.743 1326.16 139.461L1318.57 136.931ZM1317.51 143.7C1317.51 146.153 1319 148.056 1320.23 149.28L1325.88 143.624C1325.71 143.455 1325.59 143.318 1325.51 143.212C1325.42 143.105 1325.39 143.044 1325.38 143.029C1325.36 142.988 1325.51 143.233 1325.51 143.7H1317.51ZM1320.23 149.28C1322.34 151.397 1325.22 153.081 1328.6 154.456L1331.62 147.048C1328.8 145.901 1326.98 144.718 1325.88 143.624L1320.23 149.28ZM1328.67 154.485C1331.82 155.696 1335.91 156.996 1340.9 158.389L1343.05 150.683C1338.18 149.324 1334.36 148.101 1331.54 147.019L1328.67 154.485ZM1341.03 158.423L1347.39 159.971L1349.28 152.197L1342.92 150.649L1341.03 158.423ZM1347.43 159.979L1355.51 161.871L1357.33 154.081L1349.25 152.189L1347.43 159.979ZM1355.37 161.835L1359.15 162.867L1361.26 155.149L1357.47 154.117L1355.37 161.835ZM1359.15 162.865C1365.04 164.482 1368.61 165.531 1370.04 166.043L1372.73 158.509C1370.96 157.875 1367.07 156.744 1361.27 155.151L1359.15 162.865ZM1370.15 166.08C1374.37 167.453 1378.72 169.533 1383.18 172.362L1387.46 165.606C1382.52 162.472 1377.57 160.081 1372.62 158.472L1370.15 166.08ZM1383.19 172.372C1387.63 175.162 1390.86 178.483 1393.01 182.301L1399.98 178.371C1397.09 173.245 1392.86 168.998 1387.45 165.596L1383.19 172.372ZM1393.05 182.368C1395.31 186.187 1396.45 190.466 1396.45 195.3H1404.45C1404.45 189.126 1402.97 183.429 1399.94 178.304L1393.05 182.368ZM1396.45 195.3C1396.45 207.088 1392.11 215.657 1383.55 221.598L1388.12 228.17C1399.05 220.58 1404.45 209.427 1404.45 195.3H1396.45ZM1383.54 221.607C1375.25 227.412 1363.87 230.516 1349.03 230.516V238.516C1364.91 238.516 1378.07 235.199 1388.13 228.161L1383.54 221.607Z" fill="black" fill-opacity="0.3"/>
<defs>
<linearGradient id="paint0_linear_454_3" x1="12.7004" y1="165" x2="1322.91" y2="-458.903" gradientUnits="userSpaceOnUse">
<stop stop-color="#F24D56"/>
<stop offset="0.509216" stop-color="#EE0C77"/>
<stop offset="0.964829" stop-color="#F24D56"/>
</linearGradient>
</defs>
</svg>
