<svg width="1032" height="115" viewBox="0 0 1032 115" fill="none" xmlns="http://www.w3.org/2000/svg">
<path d="M14.3809 97.25L17.3794 94.6026L17.372 94.5943L14.3809 97.25ZM14.3809 17.6L11.409 14.9226L11.4021 14.9304L14.3809 17.6ZM85.6309 10.7L83.3558 13.99L83.3743 14.0028L83.393 14.0154L85.6309 10.7ZM103.331 33.65L104.984 37.2924L108.416 35.7349L107.065 32.2166L103.331 33.65ZM83.8309 42.5V46.5H84.6961L85.484 46.1424L83.8309 42.5ZM83.6809 42.5L80.0043 44.0757L81.0433 46.5H83.6809V42.5ZM82.3309 39.35L78.647 40.9086L78.6506 40.9171L78.6543 40.9257L82.3309 39.35ZM72.2809 27.05L70.0454 30.3671L70.0537 30.3727L70.0621 30.3782L72.2809 27.05ZM40.6309 25.1L39.0229 21.4374L40.6309 25.1ZM30.4309 32.3L27.4577 29.6241L27.4494 29.6333L27.4412 29.6425L30.4309 32.3ZM30.4309 82.4L27.4004 85.0108L27.4036 85.0145L30.4309 82.4ZM72.2809 87.8L70.0785 84.4609L70.0529 84.4778L70.0275 84.4951L72.2809 87.8ZM82.3309 75.5L78.6287 73.9855L78.6176 74.0125L78.607 74.0396L82.3309 75.5ZM83.6809 72.2V68.2H80.9955L79.9787 70.6855L83.6809 72.2ZM83.8309 72.2L85.5071 68.5682L84.7094 68.2H83.8309V72.2ZM103.331 81.2L107.042 82.6922L108.461 79.1624L105.007 77.5682L103.331 81.2ZM85.6309 104.15L87.9223 107.429L87.9332 107.421L87.9441 107.413L85.6309 104.15ZM53.8309 109.9C38.3316 109.9 26.3283 104.739 17.3794 94.6026L11.3823 99.8974C22.0335 111.961 36.3301 117.9 53.8309 117.9V109.9ZM17.372 94.5943C8.59571 84.7094 4.13086 72.3883 4.13086 57.35H-3.86914C-3.86914 74.1117 1.16601 88.3906 11.3897 99.9057L17.372 94.5943ZM4.13086 57.35C4.13086 42.3112 8.59556 30.0485 17.3596 20.2696L11.4021 14.9304C1.16616 26.3515 -3.86914 40.5888 -3.86914 57.35H4.13086ZM17.3527 20.2773C26.5201 10.1015 38.5486 4.95 53.8309 4.95V-3.05C36.5131 -3.05 22.2416 2.89852 11.409 14.9227L17.3527 20.2773ZM53.8309 4.95C64.8461 4.95 74.6472 7.96808 83.3558 13.99L87.9059 7.40997C77.8145 0.431911 66.4156 -3.05 53.8309 -3.05V4.95ZM83.393 14.0154C90.6459 18.9111 96.0601 25.8702 99.5965 35.0834L107.065 32.2166C103.002 21.6298 96.6158 13.2889 87.8688 7.3846L83.393 14.0154ZM101.678 30.0076L82.1778 38.8576L85.484 46.1424L104.984 37.2924L101.678 30.0076ZM83.8309 38.5H83.6809V46.5H83.8309V38.5ZM87.3574 40.9243L86.0074 37.7743L78.6543 40.9257L80.0043 44.0757L87.3574 40.9243ZM86.0147 37.7914C83.5241 31.9044 79.6801 27.1754 74.4997 23.7218L70.0621 30.3782C73.8816 32.9246 76.7376 36.3956 78.647 40.9086L86.0147 37.7914ZM74.5163 23.7329C69.2014 20.1512 63.1092 18.4 56.3809 18.4V26.4C61.6525 26.4 66.1603 27.7488 70.0454 30.3671L74.5163 23.7329ZM56.3809 18.4C49.6471 18.4 43.7983 19.3409 39.0229 21.4374L42.2388 28.7626C45.6634 27.2591 50.3146 26.4 56.3809 26.4V18.4ZM39.0229 21.4374C34.4602 23.4406 30.5773 26.1579 27.4577 29.6241L33.404 34.9759C35.6844 32.4421 38.6015 30.3594 42.2388 28.7626L39.0229 21.4374ZM27.4412 29.6425C21.0475 36.8355 18.0309 46.2091 18.0309 57.35H26.0309C26.0309 47.6909 28.6142 40.3645 33.4205 34.9574L27.4412 29.6425ZM18.0309 57.35C18.0309 68.3183 21.0611 77.6527 27.4004 85.0108L33.4613 79.7892C28.6006 74.1473 26.0309 66.7817 26.0309 57.35H18.0309ZM27.4036 85.0145C34.0939 92.7612 44.0248 96.3 56.3809 96.3V88.3C45.5369 88.3 38.1678 85.2388 33.4582 79.7855L27.4036 85.0145ZM56.3809 96.3C63.2492 96.3 69.3662 94.6286 74.5342 91.1049L70.0275 84.4951C66.3955 86.9714 61.9125 88.3 56.3809 88.3V96.3ZM74.4832 91.1391C79.8516 87.5982 83.7447 82.851 86.0548 76.9604L78.607 74.0396C76.917 78.349 74.1101 81.8018 70.0785 84.4609L74.4832 91.1391ZM86.0331 77.0145L87.383 73.7145L79.9787 70.6855L78.6287 73.9855L86.0331 77.0145ZM83.6809 76.2H83.8309V68.2H83.6809V76.2ZM82.1546 75.8318L101.655 84.8318L105.007 77.5682L85.5071 68.5682L82.1546 75.8318ZM99.6196 79.7078C95.9822 88.7547 90.5412 95.7662 83.3176 100.887L87.9441 107.413C96.5205 101.334 102.88 93.0453 107.042 82.6922L99.6196 79.7078ZM83.3394 100.871C74.7452 106.878 64.9536 109.9 53.8309 109.9V117.9C66.5081 117.9 77.9165 114.422 87.9223 107.429L83.3394 100.871ZM131.468 97.25L134.347 94.4739L134.342 94.4682L134.336 94.4625L131.468 97.25ZM131.618 17.45L134.486 20.2379L134.499 20.225L134.511 20.2119L131.618 17.45ZM212.618 17.45L209.724 20.2119L209.736 20.2248L209.749 20.2375L212.618 17.45ZM212.618 97.4L209.749 94.6125L209.736 94.6252L209.724 94.6381L212.618 97.4ZM197.168 82.4L194.251 79.6627L194.229 79.6859L194.208 79.7093L197.168 82.4ZM197.168 32.45L200.063 29.6902L200.06 29.6871L197.168 32.45ZM147.068 32.45L149.963 35.2098L149.972 35.2L149.982 35.1901L147.068 32.45ZM147.068 82.4L144.151 85.1373L144.152 85.1387L147.068 82.4ZM172.118 109.9C156.727 109.9 144.242 104.738 134.347 94.4739L128.588 100.026C140.094 111.962 154.708 117.9 172.118 117.9V109.9ZM134.336 94.4625C124.825 84.6741 120.018 72.4034 120.018 57.35H112.018C112.018 74.2966 117.51 88.6259 128.599 100.038L134.336 94.4625ZM120.018 57.35C120.018 42.4158 124.862 30.139 134.486 20.2379L128.749 14.6621C117.573 26.161 112.018 40.4842 112.018 57.35H120.018ZM134.511 20.2119C144.188 10.0743 156.607 4.95 172.118 4.95V-3.05C154.628 -3.05 140.047 2.82564 128.724 14.6881L134.511 20.2119ZM172.118 4.95C187.628 4.95 200.047 10.0743 209.724 20.2119L215.511 14.6881C204.188 2.82564 189.607 -3.05 172.118 -3.05V4.95ZM209.749 20.2375C219.26 30.0259 224.068 42.2966 224.068 57.35H232.068C232.068 40.4034 226.575 26.0741 215.486 14.6625L209.749 20.2375ZM224.068 57.35C224.068 72.511 219.255 84.8291 209.749 94.6125L215.486 100.188C226.58 88.7709 232.068 74.389 232.068 57.35H224.068ZM209.724 94.6381C200.047 104.776 187.628 109.9 172.118 109.9V117.9C189.607 117.9 204.188 112.024 215.511 100.162L209.724 94.6381ZM172.118 96.3C183.7 96.3 193.219 92.6898 200.127 85.0907L194.208 79.7093C189.116 85.3102 181.935 88.3 172.118 88.3V96.3ZM200.084 85.1373C206.981 77.7881 210.318 68.4091 210.318 57.35H202.318C202.318 66.6908 199.554 74.0119 194.251 79.6627L200.084 85.1373ZM210.318 57.35C210.318 46.2922 206.981 36.9486 200.063 29.6903L194.272 35.2098C199.554 40.7514 202.318 48.0078 202.318 57.35H210.318ZM200.06 29.6871C192.817 22.1046 183.376 18.4 172.118 18.4V26.4C181.46 26.4 188.718 29.3953 194.275 35.2129L200.06 29.6871ZM172.118 18.4C160.773 18.4 151.312 22.097 144.154 29.7099L149.982 35.1901C155.423 29.403 162.662 26.4 172.118 26.4V18.4ZM144.172 29.6903C137.254 36.9486 133.918 46.2922 133.918 57.35H141.918C141.918 48.0078 144.681 40.7514 149.963 35.2098L144.172 29.6903ZM133.918 57.35C133.918 68.4091 137.254 77.7881 144.151 85.1373L149.984 79.6627C144.681 74.0119 141.918 66.6908 141.918 57.35H133.918ZM144.152 85.1387C151.231 92.6738 160.706 96.3 172.118 96.3V88.3C162.529 88.3 155.305 85.3262 149.983 79.6613L144.152 85.1387ZM246.84 2.44999V-1.55001H242.84V2.44999H246.84ZM267.84 2.44999L271.061 0.0785446L269.862 -1.55001H267.84V2.44999ZM321.84 75.8L318.619 78.1714L325.84 87.9803V75.8H321.84ZM321.84 2.44999V-1.55001H317.84V2.44999H321.84ZM343.74 2.44999H347.74V-1.55001H343.74V2.44999ZM343.74 113V117H347.74V113H343.74ZM322.59 113L319.361 115.361L320.559 117H322.59V113ZM268.74 39.35L271.969 36.9891L264.74 27.1021V39.35H268.74ZM268.74 113V117H272.74V113H268.74ZM246.84 113H242.84V117H246.84V113ZM246.84 6.44999H267.84V-1.55001H246.84V6.44999ZM264.619 4.82144L318.619 78.1714L325.061 73.4286L271.061 0.0785446L264.619 4.82144ZM325.84 75.8V2.44999H317.84V75.8H325.84ZM321.84 6.44999H343.74V-1.55001H321.84V6.44999ZM339.74 2.44999V113H347.74V2.44999H339.74ZM343.74 109H322.59V117H343.74V109ZM325.819 110.639L271.969 36.9891L265.511 41.7109L319.361 115.361L325.819 110.639ZM264.74 39.35V113H272.74V39.35H264.74ZM268.74 109H246.84V117H268.74V109ZM250.84 113V2.44999H242.84V113H250.84ZM392.889 23.75H396.889V19.75H392.889V23.75ZM357.939 23.75H353.939V27.75H357.939V23.75ZM357.939 2.44999V-1.55001H353.939V2.44999H357.939ZM449.589 2.44999H453.589V-1.55001H449.589V2.44999ZM449.589 23.75V27.75H453.589V23.75H449.589ZM414.639 23.75V19.75H410.639V23.75H414.639ZM414.639 113V117H418.639V113H414.639ZM392.889 113H388.889V117H392.889V113ZM392.889 19.75H357.939V27.75H392.889V19.75ZM361.939 23.75V2.44999H353.939V23.75H361.939ZM357.939 6.44999H449.589V-1.55001H357.939V6.44999ZM445.589 2.44999V23.75H453.589V2.44999H445.589ZM449.589 19.75H414.639V27.75H449.589V19.75ZM410.639 23.75V113H418.639V23.75H410.639ZM414.639 109H392.889V117H414.639V109ZM396.889 113V23.75H388.889V113H396.889ZM493.513 2.44999V-1.55001H490.866L489.831 0.886383L493.513 2.44999ZM514.662 2.44999L518.344 0.886383L517.31 -1.55001H514.662V2.44999ZM561.612 113V117H567.657L565.294 111.436L561.612 113ZM537.612 113L533.924 114.548L534.953 117H537.612V113ZM525.463 84.05L529.151 82.502L528.122 80.05H525.463V84.05ZM482.712 84.05V80.05H480.053L479.024 82.502L482.712 84.05ZM470.562 113V117H473.222L474.251 114.548L470.562 113ZM446.562 113L442.881 111.436L440.518 117H446.562V113ZM516.612 63.05V67.05H522.631L520.3 61.5011L516.612 63.05ZM504.013 33.05L507.7 31.5011L503.99 22.6677L500.318 31.5168L504.013 33.05ZM491.562 63.05L487.868 61.5168L485.572 67.05H491.562V63.05ZM493.513 6.44999H514.662V-1.55001H493.513V6.44999ZM510.981 4.0136L557.931 114.564L565.294 111.436L518.344 0.886383L510.981 4.0136ZM561.612 109H537.612V117H561.612V109ZM541.301 111.452L529.151 82.502L521.774 85.598L533.924 114.548L541.301 111.452ZM525.463 80.05H482.712V88.05H525.463V80.05ZM479.024 82.502L466.874 111.452L474.251 114.548L486.401 85.598L479.024 82.502ZM470.562 109H446.562V117H470.562V109ZM450.244 114.564L497.194 4.0136L489.831 0.886383L442.881 111.436L450.244 114.564ZM520.3 61.5011L507.7 31.5011L500.325 34.5989L512.925 64.5989L520.3 61.5011ZM500.318 31.5168L487.868 61.5168L495.257 64.5832L507.707 34.5832L500.318 31.5168ZM491.562 67.05H516.612V59.05H491.562V67.05ZM583.414 97.25L586.413 94.6026L586.405 94.5943L583.414 97.25ZM583.414 17.6L580.442 14.9226L580.435 14.9304L583.414 17.6ZM654.664 10.7L652.389 13.99L652.408 14.0028L652.426 14.0154L654.664 10.7ZM672.364 33.65L674.017 37.2924L677.449 35.7349L676.098 32.2166L672.364 33.65ZM652.864 42.5V46.5H653.729L654.517 46.1424L652.864 42.5ZM652.714 42.5L649.037 44.0757L650.076 46.5H652.714V42.5ZM651.364 39.35L647.68 40.9086L647.684 40.9171L647.688 40.9257L651.364 39.35ZM641.314 27.05L639.079 30.3671L639.087 30.3727L639.095 30.3782L641.314 27.05ZM609.664 25.1L608.056 21.4374L609.664 25.1ZM599.464 32.3L596.491 29.6241L596.483 29.6333L596.474 29.6425L599.464 32.3ZM599.464 82.4L596.434 85.0108L596.437 85.0145L599.464 82.4ZM641.314 87.8L639.112 84.4609L639.086 84.4778L639.061 84.4951L641.314 87.8ZM651.364 75.5L647.662 73.9855L647.651 74.0125L647.64 74.0396L651.364 75.5ZM652.714 72.2V68.2H650.029L649.012 70.6855L652.714 72.2ZM652.864 72.2L654.54 68.5682L653.743 68.2H652.864V72.2ZM672.364 81.2L676.075 82.6922L677.495 79.1624L674.04 77.5682L672.364 81.2ZM654.664 104.15L656.956 107.429L656.966 107.421L656.977 107.413L654.664 104.15ZM622.864 109.9C607.365 109.9 595.361 104.739 586.413 94.6026L580.416 99.8974C591.067 111.961 605.363 117.9 622.864 117.9V109.9ZM586.405 94.5943C577.629 84.7094 573.164 72.3883 573.164 57.35H565.164C565.164 74.1117 570.199 88.3906 580.423 99.9057L586.405 94.5943ZM573.164 57.35C573.164 42.3112 577.629 30.0485 586.393 20.2696L580.435 14.9304C570.199 26.3515 565.164 40.5888 565.164 57.35H573.164ZM586.386 20.2773C595.553 10.1015 607.582 4.95 622.864 4.95V-3.05C605.546 -3.05 591.275 2.89852 580.442 14.9227L586.386 20.2773ZM622.864 4.95C633.879 4.95 643.68 7.96808 652.389 13.99L656.939 7.40997C646.848 0.431911 635.449 -3.05 622.864 -3.05V4.95ZM652.426 14.0154C659.679 18.9111 665.093 25.8702 668.63 35.0834L676.098 32.2166C672.035 21.6298 665.649 13.2889 656.902 7.3846L652.426 14.0154ZM670.711 30.0076L651.211 38.8576L654.517 46.1424L674.017 37.2924L670.711 30.0076ZM652.864 38.5H652.714V46.5H652.864V38.5ZM656.391 40.9243L655.041 37.7743L647.688 40.9257L649.037 44.0757L656.391 40.9243ZM655.048 37.7914C652.557 31.9044 648.713 27.1754 643.533 23.7218L639.095 30.3782C642.915 32.9246 645.771 36.3956 647.68 40.9086L655.048 37.7914ZM643.549 23.7329C638.235 20.1512 632.142 18.4 625.414 18.4V26.4C630.686 26.4 635.193 27.7488 639.079 30.3671L643.549 23.7329ZM625.414 18.4C618.68 18.4 612.832 19.3409 608.056 21.4374L611.272 28.7626C614.697 27.2591 619.348 26.4 625.414 26.4V18.4ZM608.056 21.4374C603.493 23.4406 599.61 26.1579 596.491 29.6241L602.437 34.9759C604.718 32.4421 607.635 30.3594 611.272 28.7626L608.056 21.4374ZM596.474 29.6425C590.081 36.8355 587.064 46.2091 587.064 57.35H595.064C595.064 47.6909 597.647 40.3645 602.454 34.9574L596.474 29.6425ZM587.064 57.35C587.064 68.3183 590.094 77.6527 596.434 85.0108L602.495 79.7892C597.634 74.1473 595.064 66.7817 595.064 57.35H587.064ZM596.437 85.0145C603.127 92.7612 613.058 96.3 625.414 96.3V88.3C614.57 88.3 607.201 85.2388 602.491 79.7855L596.437 85.0145ZM625.414 96.3C632.282 96.3 638.399 94.6286 643.567 91.1049L639.061 84.4951C635.429 86.9714 630.946 88.3 625.414 88.3V96.3ZM643.516 91.1391C648.885 87.5982 652.778 82.851 655.088 76.9604L647.64 74.0396C645.95 78.349 643.143 81.8018 639.112 84.4609L643.516 91.1391ZM655.066 77.0145L656.416 73.7145L649.012 70.6855L647.662 73.9855L655.066 77.0145ZM652.714 76.2H652.864V68.2H652.714V76.2ZM651.188 75.8318L670.688 84.8318L674.04 77.5682L654.54 68.5682L651.188 75.8318ZM668.653 79.7078C665.015 88.7547 659.574 95.7662 652.351 100.887L656.977 107.413C665.554 101.334 671.913 93.0453 676.075 82.6922L668.653 79.7078ZM652.373 100.871C643.778 106.878 633.987 109.9 622.864 109.9V117.9C635.541 117.9 646.95 114.422 656.956 107.429L652.373 100.871ZM715.501 23.75H719.501V19.75H715.501V23.75ZM680.551 23.75H676.551V27.75H680.551V23.75ZM680.551 2.44999V-1.55001H676.551V2.44999H680.551ZM772.201 2.44999H776.201V-1.55001H772.201V2.44999ZM772.201 23.75V27.75H776.201V23.75H772.201ZM737.251 23.75V19.75H733.251V23.75H737.251ZM737.251 113V117H741.251V113H737.251ZM715.501 113H711.501V117H715.501V113ZM715.501 19.75H680.551V27.75H715.501V19.75ZM684.551 23.75V2.44999H676.551V23.75H684.551ZM680.551 6.44999H772.201V-1.55001H680.551V6.44999ZM768.201 2.44999V23.75H776.201V2.44999H768.201ZM772.201 19.75H737.251V27.75H772.201V19.75ZM733.251 23.75V113H741.251V23.75H733.251ZM737.251 109H715.501V117H737.251V109ZM719.501 113V23.75H711.501V113H719.501ZM836.53 100.4L833.67 103.197L833.67 103.197L836.53 100.4ZM823.18 2.44999V-1.55001H819.18V2.44999H823.18ZM845.08 2.44999H849.08V-1.55001H845.08V2.44999ZM853.03 86.3L855.825 83.4385L855.814 83.4281L855.803 83.4177L853.03 86.3ZM889.03 86.3L891.759 89.2242L891.767 89.2169L891.775 89.2096L889.03 86.3ZM896.98 2.44999V-1.55001H892.98V2.44999H896.98ZM918.73 2.44999H922.73V-1.55001H918.73V2.44999ZM905.38 100.4L908.255 103.181L905.38 100.4ZM870.88 110.2C857.96 110.2 847.572 105.968 839.389 97.6028L833.67 103.197C843.487 113.232 855.999 118.2 870.88 118.2V110.2ZM839.389 97.6032C831.334 89.3669 827.18 78.5293 827.18 64.7H819.18C819.18 80.2707 823.925 93.2331 833.67 103.197L839.389 97.6032ZM827.18 64.7V2.44999H819.18V64.7H827.18ZM823.18 6.44999H845.08V-1.55001H823.18V6.44999ZM841.08 2.44999V65H849.08V2.44999H841.08ZM841.08 65C841.08 74.9125 843.994 83.1567 850.256 89.1823L855.803 83.4177C851.465 79.2433 849.08 73.2875 849.08 65H841.08ZM850.235 89.1615C855.466 94.2714 862.525 96.6 870.88 96.6V88.6C864.035 88.6 859.193 86.7286 855.825 83.4385L850.235 89.1615ZM870.88 96.6C879.243 96.6 886.354 94.2688 891.759 89.2242L886.3 83.3758C882.705 86.7312 877.716 88.6 870.88 88.6V96.6ZM891.775 89.2096C898.075 83.2661 900.98 74.9939 900.98 65H892.98C892.98 73.406 890.585 79.3339 886.285 83.3904L891.775 89.2096ZM900.98 65V2.44999H892.98V65H900.98ZM896.98 6.44999H918.73V-1.55001H896.98V6.44999ZM914.73 2.44999V64.7H922.73V2.44999H914.73ZM914.73 64.7C914.73 78.4199 910.58 89.271 902.505 97.6188L908.255 103.181C917.979 93.129 922.73 80.1801 922.73 64.7H914.73ZM902.505 97.6188C894.439 105.957 884.017 110.2 870.88 110.2V118.2C885.942 118.2 898.521 113.243 908.255 103.181L902.505 97.6188ZM951.181 103.55L948.682 106.673L948.692 106.681L951.181 103.55ZM938.131 77.6L934.152 78.0081L934.153 78.0153L934.154 78.0224L938.131 77.6ZM937.531 71.75V67.75H933.1L933.552 72.1581L937.531 71.75ZM960.031 71.75L964.024 71.508L963.796 67.75H960.031V71.75ZM960.331 76.7L964.324 76.4604L964.324 76.458L960.331 76.7ZM967.681 88.25L965.656 91.6997L965.668 91.7066L965.68 91.7135L967.681 88.25ZM1002.03 90.05L1003.59 93.7323L1003.62 93.7212L1003.65 93.7097L1002.03 90.05ZM1008.33 85.25L1011.95 86.9532L1008.33 85.25ZM1006.83 74.6L1009.13 71.3231L1009.11 71.3151L1009.1 71.3071L1006.83 74.6ZM995.581 69.5L994.396 73.3203L994.406 73.3235L994.417 73.3267L995.581 69.5ZM979.381 65.45L980.27 61.55L980.247 61.5448L980.225 61.5399L979.381 65.45ZM962.131 60.05L963.587 56.3242L963.584 56.3232L962.131 60.05ZM947.731 50.75L950.633 47.997L950.581 47.9421L950.527 47.8893L947.731 50.75ZM952.381 9.34999L949.867 6.23902L949.857 6.2468L952.381 9.34999ZM1016.88 10.4L1014.32 13.4697L1014.33 13.4847L1014.35 13.4995L1016.88 10.4ZM1028.88 33.95L1024.88 34.1183L1024.89 34.1421L1024.89 34.1659L1028.88 33.95ZM1029.18 39.5V43.5H1033.4L1033.18 39.2841L1029.18 39.5ZM1007.28 39.5L1003.31 40.0119L1003.76 43.5H1007.28V39.5ZM1006.68 34.85L1002.71 35.3266L1002.71 35.3442L1002.71 35.3619L1006.68 34.85ZM1003.68 27.95L1006.79 25.4332V25.4332L1003.68 27.95ZM994.531 22.85L993.382 26.6813L993.39 26.6837L993.398 26.6861L994.531 22.85ZM971.881 23L973.146 26.7947L973.166 26.7882L973.185 26.7815L971.881 23ZM965.581 26.15L963.082 23.0265L962.977 23.1105L962.878 23.2014L965.581 26.15ZM963.331 29.45L967.126 30.7149L967.161 30.6096L967.19 30.5025L963.331 29.45ZM963.931 36.65L961.103 39.4784L963.931 36.65ZM970.081 40.4L968.572 44.1044L968.609 44.1192L968.645 44.1334L970.081 40.4ZM980.431 43.7L979.356 47.5528L979.421 47.5708L979.486 47.5867L980.431 43.7ZM985.981 45.05L985.036 48.9367L985.053 48.9408L985.07 48.9447L985.981 45.05ZM993.031 46.7L994.084 42.8409L994.014 42.8218L993.943 42.8052L993.031 46.7ZM996.331 47.6L997.39 43.7427L997.384 43.7409L996.331 47.6ZM1006.08 50.45L1004.74 54.217L1004.79 54.2363L1004.84 54.2541L1006.08 50.45ZM1018.23 56.3L1016.09 59.678L1016.1 59.6828L1016.1 59.6876L1018.23 56.3ZM1027.98 66.2L1024.5 68.1653L1024.52 68.1988L1024.54 68.2319L1027.98 66.2ZM1018.68 105.05L1016.4 101.764L1016.39 101.769L1016.39 101.773L1018.68 105.05ZM986.581 109.45C971.796 109.45 961.009 106.254 953.671 100.419L948.692 106.681C957.953 114.046 970.766 117.45 986.581 117.45V109.45ZM953.68 100.427C947.165 95.2144 943.218 87.6253 942.109 77.1776L934.154 78.0224C935.444 90.1747 940.198 99.8856 948.682 106.673L953.68 100.427ZM942.11 77.1919L941.51 71.3419L933.552 72.1581L934.152 78.0081L942.11 77.1919ZM937.531 75.75H960.031V67.75H937.531V75.75ZM956.039 71.992L956.339 76.942L964.324 76.458L964.024 71.508L956.039 71.992ZM956.338 76.9396C956.724 83.3703 959.995 88.3767 965.656 91.6997L969.706 84.8003C966.167 82.7233 964.538 80.0297 964.324 76.4604L956.338 76.9396ZM965.68 91.7135C971.043 94.8121 978.197 96.15 986.731 96.15V88.15C978.865 88.15 973.319 86.8879 969.682 84.7865L965.68 91.7135ZM986.731 96.15C993.764 96.15 999.529 95.4568 1003.59 93.7323L1000.47 86.3677C997.934 87.4432 993.499 88.15 986.731 88.15V96.15ZM1003.65 93.7097C1007.19 92.1463 1010.49 90.0507 1011.95 86.9532L1004.71 83.5468C1004.57 83.8493 1003.67 84.9537 1000.42 86.3903L1003.65 93.7097ZM1011.95 86.9532C1013 84.7142 1013.53 82.332 1013.53 79.85H1005.53C1005.53 81.168 1005.26 82.3858 1004.71 83.5468L1011.95 86.9532ZM1013.53 79.85C1013.53 78.2314 1013.26 76.573 1012.51 75.0611L1005.35 78.6389C1005.4 78.727 1005.53 79.0686 1005.53 79.85H1013.53ZM1012.51 75.0611C1011.72 73.4887 1010.48 72.2719 1009.13 71.3231L1004.54 77.8769C1005.18 78.3281 1005.34 78.6113 1005.35 78.6389L1012.51 75.0611ZM1009.1 71.3071C1005.76 69.0055 1001.61 67.1527 996.746 65.6733L994.417 73.3267C998.756 74.6473 1002.1 76.1945 1004.56 77.8929L1009.1 71.3071ZM996.767 65.6797C993.7 64.728 988.158 63.3473 980.27 61.55L978.493 69.35C986.404 71.1527 991.662 72.472 994.396 73.3203L996.767 65.6797ZM980.225 61.5399C975.387 60.4964 969.846 58.7693 963.587 56.3242L960.676 63.7758C967.216 66.3307 973.176 68.2036 978.538 69.3601L980.225 61.5399ZM963.584 56.3232C958.136 54.1994 953.862 51.4002 950.633 47.997L944.829 53.503C949.001 57.8998 954.326 61.3006 960.678 63.7768L963.584 56.3232ZM950.527 47.8893C947.039 44.4808 945.131 39.7898 945.131 33.35H937.131C937.131 41.5102 939.623 48.4192 944.936 53.6107L950.527 47.8893ZM945.131 33.35C945.131 24.6202 948.365 17.7727 954.905 12.4532L949.857 6.2468C941.398 13.1273 937.131 22.2798 937.131 33.35H945.131ZM954.896 12.461C961.216 7.3523 970.73 4.49999 984.031 4.49999V-3.50001C969.732 -3.50001 958.146 -0.452314 949.867 6.23903L954.896 12.461ZM984.031 4.49999C997.431 4.49999 1007.36 7.65638 1014.32 13.4697L1019.45 7.3303C1010.6 -0.0563946 998.631 -3.50001 984.031 -3.50001V4.49999ZM1014.35 13.4995C1021.1 19.0029 1024.53 25.8006 1024.88 34.1183L1032.88 33.7817C1032.43 23.0994 1027.86 14.197 1019.41 7.30054L1014.35 13.4995ZM1024.89 34.1659L1025.19 39.7159L1033.18 39.2841L1032.88 33.7341L1024.89 34.1659ZM1029.18 35.5H1007.28V43.5H1029.18V35.5ZM1011.25 38.9881L1010.65 34.3381L1002.71 35.3619L1003.31 40.0119L1011.25 38.9881ZM1010.65 34.3734C1010.26 31.0708 1008.93 28.074 1006.79 25.4332L1000.57 30.4668C1001.83 32.026 1002.51 33.6292 1002.71 35.3266L1010.65 34.3734ZM1006.79 25.4332C1004.34 22.4003 1000.36 20.4002 995.665 19.0139L993.398 26.6861C997.506 27.8998 999.627 29.2997 1000.57 30.4668L1006.79 25.4332ZM995.681 19.0187C992.178 17.9678 987.956 17.5 983.131 17.5V25.5C987.506 25.5 990.885 25.9322 993.382 26.6813L995.681 19.0187ZM983.131 17.5C978.287 17.5 974.051 18.0207 970.577 19.2185L973.185 26.7815C975.512 25.9793 978.776 25.5 983.131 25.5V17.5ZM970.616 19.2053C967.664 20.1895 965.083 21.426 963.082 23.0265L968.08 29.2735C969.079 28.474 970.699 27.6105 973.146 26.7947L970.616 19.2053ZM962.878 23.2014C961.348 24.6041 960.039 26.3207 959.472 28.3975L967.19 30.5025C967.224 30.3793 967.414 29.8959 968.284 29.0986L962.878 23.2014ZM959.536 28.1851C958.891 30.1225 958.581 32.1524 958.581 34.25H966.581C966.581 32.9476 966.772 31.7775 967.126 30.7149L959.536 28.1851ZM958.581 34.25C958.581 36.6004 960.011 38.3862 961.103 39.4784L966.76 33.8216C966.625 33.6865 966.533 33.5811 966.473 33.5062C966.413 33.4305 966.397 33.3996 966.405 33.414C966.415 33.4319 966.581 33.7318 966.581 34.25H958.581ZM961.103 39.4784C963.014 41.3896 965.591 42.8899 968.572 44.1044L971.59 36.6956C969.171 35.71 967.648 34.7104 966.76 33.8216L961.103 39.4784ZM968.645 44.1334C971.412 45.1975 974.997 46.3363 979.356 47.5528L981.506 39.8472C977.265 38.6636 973.95 37.6025 971.517 36.6666L968.645 44.1334ZM979.486 47.5867L985.036 48.9367L986.927 41.1633L981.377 39.8133L979.486 47.5867ZM985.07 48.9447L992.12 50.5947L993.943 42.8052L986.893 41.1552L985.07 48.9447ZM991.979 50.5591L995.279 51.4591L997.384 43.7409L994.084 42.8409L991.979 50.5591ZM995.272 51.4573C1000.41 52.8689 1003.51 53.7779 1004.74 54.217L1007.43 46.683C1005.86 46.1221 1002.45 45.1311 997.39 43.7427L995.272 51.4573ZM1004.84 54.2541C1008.48 55.4361 1012.23 57.2305 1016.09 59.678L1020.37 52.922C1016.03 50.1695 1011.68 48.0639 1007.32 46.6459L1004.84 54.2541ZM1016.1 59.6876C1019.92 62.0817 1022.67 64.9187 1024.5 68.1653L1031.47 64.2347C1028.9 59.6813 1025.15 55.9183 1020.36 52.9124L1016.1 59.6876ZM1024.54 68.2319C1026.45 71.4789 1027.43 75.12 1027.43 79.25H1035.43C1035.43 73.78 1034.11 68.7211 1031.43 64.1681L1024.54 68.2319ZM1027.43 79.25C1027.43 89.3808 1023.71 96.6888 1016.4 101.764L1020.96 108.336C1030.65 101.611 1035.43 91.7192 1035.43 79.25H1027.43ZM1016.39 101.773C1009.27 106.756 999.458 109.45 986.581 109.45V117.45C1000.5 117.45 1012.09 114.544 1020.98 108.327L1016.39 101.773Z" fill="url(#paint0_linear_272_1893)"/>
<path d="M14.3809 97.25L17.3794 94.6026L17.372 94.5943L14.3809 97.25ZM14.3809 17.6L11.409 14.9226L11.4021 14.9304L14.3809 17.6ZM85.6309 10.7L83.3558 13.99L83.3743 14.0028L83.393 14.0154L85.6309 10.7ZM103.331 33.65L104.984 37.2924L108.416 35.7349L107.065 32.2166L103.331 33.65ZM83.8309 42.5V46.5H84.6961L85.484 46.1424L83.8309 42.5ZM83.6809 42.5L80.0043 44.0757L81.0433 46.5H83.6809V42.5ZM82.3309 39.35L78.647 40.9086L78.6506 40.9171L78.6543 40.9257L82.3309 39.35ZM72.2809 27.05L70.0454 30.3671L70.0537 30.3727L70.0621 30.3782L72.2809 27.05ZM40.6309 25.1L39.0229 21.4374L40.6309 25.1ZM30.4309 32.3L27.4577 29.6241L27.4494 29.6333L27.4412 29.6425L30.4309 32.3ZM30.4309 82.4L27.4004 85.0108L27.4036 85.0145L30.4309 82.4ZM72.2809 87.8L70.0785 84.4609L70.0529 84.4778L70.0275 84.4951L72.2809 87.8ZM82.3309 75.5L78.6287 73.9855L78.6176 74.0125L78.607 74.0396L82.3309 75.5ZM83.6809 72.2V68.2H80.9955L79.9787 70.6855L83.6809 72.2ZM83.8309 72.2L85.5071 68.5682L84.7094 68.2H83.8309V72.2ZM103.331 81.2L107.042 82.6922L108.461 79.1624L105.007 77.5682L103.331 81.2ZM85.6309 104.15L87.9223 107.429L87.9332 107.421L87.9441 107.413L85.6309 104.15ZM53.8309 109.9C38.3316 109.9 26.3283 104.739 17.3794 94.6026L11.3823 99.8974C22.0335 111.961 36.3301 117.9 53.8309 117.9V109.9ZM17.372 94.5943C8.59571 84.7094 4.13086 72.3883 4.13086 57.35H-3.86914C-3.86914 74.1117 1.16601 88.3906 11.3897 99.9057L17.372 94.5943ZM4.13086 57.35C4.13086 42.3112 8.59556 30.0485 17.3596 20.2696L11.4021 14.9304C1.16616 26.3515 -3.86914 40.5888 -3.86914 57.35H4.13086ZM17.3527 20.2773C26.5201 10.1015 38.5486 4.95 53.8309 4.95V-3.05C36.5131 -3.05 22.2416 2.89852 11.409 14.9227L17.3527 20.2773ZM53.8309 4.95C64.8461 4.95 74.6472 7.96808 83.3558 13.99L87.9059 7.40997C77.8145 0.431911 66.4156 -3.05 53.8309 -3.05V4.95ZM83.393 14.0154C90.6459 18.9111 96.0601 25.8702 99.5965 35.0834L107.065 32.2166C103.002 21.6298 96.6158 13.2889 87.8688 7.3846L83.393 14.0154ZM101.678 30.0076L82.1778 38.8576L85.484 46.1424L104.984 37.2924L101.678 30.0076ZM83.8309 38.5H83.6809V46.5H83.8309V38.5ZM87.3574 40.9243L86.0074 37.7743L78.6543 40.9257L80.0043 44.0757L87.3574 40.9243ZM86.0147 37.7914C83.5241 31.9044 79.6801 27.1754 74.4997 23.7218L70.0621 30.3782C73.8816 32.9246 76.7376 36.3956 78.647 40.9086L86.0147 37.7914ZM74.5163 23.7329C69.2014 20.1512 63.1092 18.4 56.3809 18.4V26.4C61.6525 26.4 66.1603 27.7488 70.0454 30.3671L74.5163 23.7329ZM56.3809 18.4C49.6471 18.4 43.7983 19.3409 39.0229 21.4374L42.2388 28.7626C45.6634 27.2591 50.3146 26.4 56.3809 26.4V18.4ZM39.0229 21.4374C34.4602 23.4406 30.5773 26.1579 27.4577 29.6241L33.404 34.9759C35.6844 32.4421 38.6015 30.3594 42.2388 28.7626L39.0229 21.4374ZM27.4412 29.6425C21.0475 36.8355 18.0309 46.2091 18.0309 57.35H26.0309C26.0309 47.6909 28.6142 40.3645 33.4205 34.9574L27.4412 29.6425ZM18.0309 57.35C18.0309 68.3183 21.0611 77.6527 27.4004 85.0108L33.4613 79.7892C28.6006 74.1473 26.0309 66.7817 26.0309 57.35H18.0309ZM27.4036 85.0145C34.0939 92.7612 44.0248 96.3 56.3809 96.3V88.3C45.5369 88.3 38.1678 85.2388 33.4582 79.7855L27.4036 85.0145ZM56.3809 96.3C63.2492 96.3 69.3662 94.6286 74.5342 91.1049L70.0275 84.4951C66.3955 86.9714 61.9125 88.3 56.3809 88.3V96.3ZM74.4832 91.1391C79.8516 87.5982 83.7447 82.851 86.0548 76.9604L78.607 74.0396C76.917 78.349 74.1101 81.8018 70.0785 84.4609L74.4832 91.1391ZM86.0331 77.0145L87.383 73.7145L79.9787 70.6855L78.6287 73.9855L86.0331 77.0145ZM83.6809 76.2H83.8309V68.2H83.6809V76.2ZM82.1546 75.8318L101.655 84.8318L105.007 77.5682L85.5071 68.5682L82.1546 75.8318ZM99.6196 79.7078C95.9822 88.7547 90.5412 95.7662 83.3176 100.887L87.9441 107.413C96.5205 101.334 102.88 93.0453 107.042 82.6922L99.6196 79.7078ZM83.3394 100.871C74.7452 106.878 64.9536 109.9 53.8309 109.9V117.9C66.5081 117.9 77.9165 114.422 87.9223 107.429L83.3394 100.871ZM131.468 97.25L134.347 94.4739L134.342 94.4682L134.336 94.4625L131.468 97.25ZM131.618 17.45L134.486 20.2379L134.499 20.225L134.511 20.2119L131.618 17.45ZM212.618 17.45L209.724 20.2119L209.736 20.2248L209.749 20.2375L212.618 17.45ZM212.618 97.4L209.749 94.6125L209.736 94.6252L209.724 94.6381L212.618 97.4ZM197.168 82.4L194.251 79.6627L194.229 79.6859L194.208 79.7093L197.168 82.4ZM197.168 32.45L200.063 29.6902L200.06 29.6871L197.168 32.45ZM147.068 32.45L149.963 35.2098L149.972 35.2L149.982 35.1901L147.068 32.45ZM147.068 82.4L144.151 85.1373L144.152 85.1387L147.068 82.4ZM172.118 109.9C156.727 109.9 144.242 104.738 134.347 94.4739L128.588 100.026C140.094 111.962 154.708 117.9 172.118 117.9V109.9ZM134.336 94.4625C124.825 84.6741 120.018 72.4034 120.018 57.35H112.018C112.018 74.2966 117.51 88.6259 128.599 100.038L134.336 94.4625ZM120.018 57.35C120.018 42.4158 124.862 30.139 134.486 20.2379L128.749 14.6621C117.573 26.161 112.018 40.4842 112.018 57.35H120.018ZM134.511 20.2119C144.188 10.0743 156.607 4.95 172.118 4.95V-3.05C154.628 -3.05 140.047 2.82564 128.724 14.6881L134.511 20.2119ZM172.118 4.95C187.628 4.95 200.047 10.0743 209.724 20.2119L215.511 14.6881C204.188 2.82564 189.607 -3.05 172.118 -3.05V4.95ZM209.749 20.2375C219.26 30.0259 224.068 42.2966 224.068 57.35H232.068C232.068 40.4034 226.575 26.0741 215.486 14.6625L209.749 20.2375ZM224.068 57.35C224.068 72.511 219.255 84.8291 209.749 94.6125L215.486 100.188C226.58 88.7709 232.068 74.389 232.068 57.35H224.068ZM209.724 94.6381C200.047 104.776 187.628 109.9 172.118 109.9V117.9C189.607 117.9 204.188 112.024 215.511 100.162L209.724 94.6381ZM172.118 96.3C183.7 96.3 193.219 92.6898 200.127 85.0907L194.208 79.7093C189.116 85.3102 181.935 88.3 172.118 88.3V96.3ZM200.084 85.1373C206.981 77.7881 210.318 68.4091 210.318 57.35H202.318C202.318 66.6908 199.554 74.0119 194.251 79.6627L200.084 85.1373ZM210.318 57.35C210.318 46.2922 206.981 36.9486 200.063 29.6903L194.272 35.2098C199.554 40.7514 202.318 48.0078 202.318 57.35H210.318ZM200.06 29.6871C192.817 22.1046 183.376 18.4 172.118 18.4V26.4C181.46 26.4 188.718 29.3953 194.275 35.2129L200.06 29.6871ZM172.118 18.4C160.773 18.4 151.312 22.097 144.154 29.7099L149.982 35.1901C155.423 29.403 162.662 26.4 172.118 26.4V18.4ZM144.172 29.6903C137.254 36.9486 133.918 46.2922 133.918 57.35H141.918C141.918 48.0078 144.681 40.7514 149.963 35.2098L144.172 29.6903ZM133.918 57.35C133.918 68.4091 137.254 77.7881 144.151 85.1373L149.984 79.6627C144.681 74.0119 141.918 66.6908 141.918 57.35H133.918ZM144.152 85.1387C151.231 92.6738 160.706 96.3 172.118 96.3V88.3C162.529 88.3 155.305 85.3262 149.983 79.6613L144.152 85.1387ZM246.84 2.44999V-1.55001H242.84V2.44999H246.84ZM267.84 2.44999L271.061 0.0785446L269.862 -1.55001H267.84V2.44999ZM321.84 75.8L318.619 78.1714L325.84 87.9803V75.8H321.84ZM321.84 2.44999V-1.55001H317.84V2.44999H321.84ZM343.74 2.44999H347.74V-1.55001H343.74V2.44999ZM343.74 113V117H347.74V113H343.74ZM322.59 113L319.361 115.361L320.559 117H322.59V113ZM268.74 39.35L271.969 36.9891L264.74 27.1021V39.35H268.74ZM268.74 113V117H272.74V113H268.74ZM246.84 113H242.84V117H246.84V113ZM246.84 6.44999H267.84V-1.55001H246.84V6.44999ZM264.619 4.82144L318.619 78.1714L325.061 73.4286L271.061 0.0785446L264.619 4.82144ZM325.84 75.8V2.44999H317.84V75.8H325.84ZM321.84 6.44999H343.74V-1.55001H321.84V6.44999ZM339.74 2.44999V113H347.74V2.44999H339.74ZM343.74 109H322.59V117H343.74V109ZM325.819 110.639L271.969 36.9891L265.511 41.7109L319.361 115.361L325.819 110.639ZM264.74 39.35V113H272.74V39.35H264.74ZM268.74 109H246.84V117H268.74V109ZM250.84 113V2.44999H242.84V113H250.84ZM392.889 23.75H396.889V19.75H392.889V23.75ZM357.939 23.75H353.939V27.75H357.939V23.75ZM357.939 2.44999V-1.55001H353.939V2.44999H357.939ZM449.589 2.44999H453.589V-1.55001H449.589V2.44999ZM449.589 23.75V27.75H453.589V23.75H449.589ZM414.639 23.75V19.75H410.639V23.75H414.639ZM414.639 113V117H418.639V113H414.639ZM392.889 113H388.889V117H392.889V113ZM392.889 19.75H357.939V27.75H392.889V19.75ZM361.939 23.75V2.44999H353.939V23.75H361.939ZM357.939 6.44999H449.589V-1.55001H357.939V6.44999ZM445.589 2.44999V23.75H453.589V2.44999H445.589ZM449.589 19.75H414.639V27.75H449.589V19.75ZM410.639 23.75V113H418.639V23.75H410.639ZM414.639 109H392.889V117H414.639V109ZM396.889 113V23.75H388.889V113H396.889ZM493.513 2.44999V-1.55001H490.866L489.831 0.886383L493.513 2.44999ZM514.662 2.44999L518.344 0.886383L517.31 -1.55001H514.662V2.44999ZM561.612 113V117H567.657L565.294 111.436L561.612 113ZM537.612 113L533.924 114.548L534.953 117H537.612V113ZM525.463 84.05L529.151 82.502L528.122 80.05H525.463V84.05ZM482.712 84.05V80.05H480.053L479.024 82.502L482.712 84.05ZM470.562 113V117H473.222L474.251 114.548L470.562 113ZM446.562 113L442.881 111.436L440.518 117H446.562V113ZM516.612 63.05V67.05H522.631L520.3 61.5011L516.612 63.05ZM504.013 33.05L507.7 31.5011L503.99 22.6677L500.318 31.5168L504.013 33.05ZM491.562 63.05L487.868 61.5168L485.572 67.05H491.562V63.05ZM493.513 6.44999H514.662V-1.55001H493.513V6.44999ZM510.981 4.0136L557.931 114.564L565.294 111.436L518.344 0.886383L510.981 4.0136ZM561.612 109H537.612V117H561.612V109ZM541.301 111.452L529.151 82.502L521.774 85.598L533.924 114.548L541.301 111.452ZM525.463 80.05H482.712V88.05H525.463V80.05ZM479.024 82.502L466.874 111.452L474.251 114.548L486.401 85.598L479.024 82.502ZM470.562 109H446.562V117H470.562V109ZM450.244 114.564L497.194 4.0136L489.831 0.886383L442.881 111.436L450.244 114.564ZM520.3 61.5011L507.7 31.5011L500.325 34.5989L512.925 64.5989L520.3 61.5011ZM500.318 31.5168L487.868 61.5168L495.257 64.5832L507.707 34.5832L500.318 31.5168ZM491.562 67.05H516.612V59.05H491.562V67.05ZM583.414 97.25L586.413 94.6026L586.405 94.5943L583.414 97.25ZM583.414 17.6L580.442 14.9226L580.435 14.9304L583.414 17.6ZM654.664 10.7L652.389 13.99L652.408 14.0028L652.426 14.0154L654.664 10.7ZM672.364 33.65L674.017 37.2924L677.449 35.7349L676.098 32.2166L672.364 33.65ZM652.864 42.5V46.5H653.729L654.517 46.1424L652.864 42.5ZM652.714 42.5L649.037 44.0757L650.076 46.5H652.714V42.5ZM651.364 39.35L647.68 40.9086L647.684 40.9171L647.688 40.9257L651.364 39.35ZM641.314 27.05L639.079 30.3671L639.087 30.3727L639.095 30.3782L641.314 27.05ZM609.664 25.1L608.056 21.4374L609.664 25.1ZM599.464 32.3L596.491 29.6241L596.483 29.6333L596.474 29.6425L599.464 32.3ZM599.464 82.4L596.434 85.0108L596.437 85.0145L599.464 82.4ZM641.314 87.8L639.112 84.4609L639.086 84.4778L639.061 84.4951L641.314 87.8ZM651.364 75.5L647.662 73.9855L647.651 74.0125L647.64 74.0396L651.364 75.5ZM652.714 72.2V68.2H650.029L649.012 70.6855L652.714 72.2ZM652.864 72.2L654.54 68.5682L653.743 68.2H652.864V72.2ZM672.364 81.2L676.075 82.6922L677.495 79.1624L674.04 77.5682L672.364 81.2ZM654.664 104.15L656.956 107.429L656.966 107.421L656.977 107.413L654.664 104.15ZM622.864 109.9C607.365 109.9 595.361 104.739 586.413 94.6026L580.416 99.8974C591.067 111.961 605.363 117.9 622.864 117.9V109.9ZM586.405 94.5943C577.629 84.7094 573.164 72.3883 573.164 57.35H565.164C565.164 74.1117 570.199 88.3906 580.423 99.9057L586.405 94.5943ZM573.164 57.35C573.164 42.3112 577.629 30.0485 586.393 20.2696L580.435 14.9304C570.199 26.3515 565.164 40.5888 565.164 57.35H573.164ZM586.386 20.2773C595.553 10.1015 607.582 4.95 622.864 4.95V-3.05C605.546 -3.05 591.275 2.89852 580.442 14.9227L586.386 20.2773ZM622.864 4.95C633.879 4.95 643.68 7.96808 652.389 13.99L656.939 7.40997C646.848 0.431911 635.449 -3.05 622.864 -3.05V4.95ZM652.426 14.0154C659.679 18.9111 665.093 25.8702 668.63 35.0834L676.098 32.2166C672.035 21.6298 665.649 13.2889 656.902 7.3846L652.426 14.0154ZM670.711 30.0076L651.211 38.8576L654.517 46.1424L674.017 37.2924L670.711 30.0076ZM652.864 38.5H652.714V46.5H652.864V38.5ZM656.391 40.9243L655.041 37.7743L647.688 40.9257L649.037 44.0757L656.391 40.9243ZM655.048 37.7914C652.557 31.9044 648.713 27.1754 643.533 23.7218L639.095 30.3782C642.915 32.9246 645.771 36.3956 647.68 40.9086L655.048 37.7914ZM643.549 23.7329C638.235 20.1512 632.142 18.4 625.414 18.4V26.4C630.686 26.4 635.193 27.7488 639.079 30.3671L643.549 23.7329ZM625.414 18.4C618.68 18.4 612.832 19.3409 608.056 21.4374L611.272 28.7626C614.697 27.2591 619.348 26.4 625.414 26.4V18.4ZM608.056 21.4374C603.493 23.4406 599.61 26.1579 596.491 29.6241L602.437 34.9759C604.718 32.4421 607.635 30.3594 611.272 28.7626L608.056 21.4374ZM596.474 29.6425C590.081 36.8355 587.064 46.2091 587.064 57.35H595.064C595.064 47.6909 597.647 40.3645 602.454 34.9574L596.474 29.6425ZM587.064 57.35C587.064 68.3183 590.094 77.6527 596.434 85.0108L602.495 79.7892C597.634 74.1473 595.064 66.7817 595.064 57.35H587.064ZM596.437 85.0145C603.127 92.7612 613.058 96.3 625.414 96.3V88.3C614.57 88.3 607.201 85.2388 602.491 79.7855L596.437 85.0145ZM625.414 96.3C632.282 96.3 638.399 94.6286 643.567 91.1049L639.061 84.4951C635.429 86.9714 630.946 88.3 625.414 88.3V96.3ZM643.516 91.1391C648.885 87.5982 652.778 82.851 655.088 76.9604L647.64 74.0396C645.95 78.349 643.143 81.8018 639.112 84.4609L643.516 91.1391ZM655.066 77.0145L656.416 73.7145L649.012 70.6855L647.662 73.9855L655.066 77.0145ZM652.714 76.2H652.864V68.2H652.714V76.2ZM651.188 75.8318L670.688 84.8318L674.04 77.5682L654.54 68.5682L651.188 75.8318ZM668.653 79.7078C665.015 88.7547 659.574 95.7662 652.351 100.887L656.977 107.413C665.554 101.334 671.913 93.0453 676.075 82.6922L668.653 79.7078ZM652.373 100.871C643.778 106.878 633.987 109.9 622.864 109.9V117.9C635.541 117.9 646.95 114.422 656.956 107.429L652.373 100.871ZM715.501 23.75H719.501V19.75H715.501V23.75ZM680.551 23.75H676.551V27.75H680.551V23.75ZM680.551 2.44999V-1.55001H676.551V2.44999H680.551ZM772.201 2.44999H776.201V-1.55001H772.201V2.44999ZM772.201 23.75V27.75H776.201V23.75H772.201ZM737.251 23.75V19.75H733.251V23.75H737.251ZM737.251 113V117H741.251V113H737.251ZM715.501 113H711.501V117H715.501V113ZM715.501 19.75H680.551V27.75H715.501V19.75ZM684.551 23.75V2.44999H676.551V23.75H684.551ZM680.551 6.44999H772.201V-1.55001H680.551V6.44999ZM768.201 2.44999V23.75H776.201V2.44999H768.201ZM772.201 19.75H737.251V27.75H772.201V19.75ZM733.251 23.75V113H741.251V23.75H733.251ZM737.251 109H715.501V117H737.251V109ZM719.501 113V23.75H711.501V113H719.501ZM836.53 100.4L833.67 103.197L833.67 103.197L836.53 100.4ZM823.18 2.44999V-1.55001H819.18V2.44999H823.18ZM845.08 2.44999H849.08V-1.55001H845.08V2.44999ZM853.03 86.3L855.825 83.4385L855.814 83.4281L855.803 83.4177L853.03 86.3ZM889.03 86.3L891.759 89.2242L891.767 89.2169L891.775 89.2096L889.03 86.3ZM896.98 2.44999V-1.55001H892.98V2.44999H896.98ZM918.73 2.44999H922.73V-1.55001H918.73V2.44999ZM905.38 100.4L908.255 103.181L905.38 100.4ZM870.88 110.2C857.96 110.2 847.572 105.968 839.389 97.6028L833.67 103.197C843.487 113.232 855.999 118.2 870.88 118.2V110.2ZM839.389 97.6032C831.334 89.3669 827.18 78.5293 827.18 64.7H819.18C819.18 80.2707 823.925 93.2331 833.67 103.197L839.389 97.6032ZM827.18 64.7V2.44999H819.18V64.7H827.18ZM823.18 6.44999H845.08V-1.55001H823.18V6.44999ZM841.08 2.44999V65H849.08V2.44999H841.08ZM841.08 65C841.08 74.9125 843.994 83.1567 850.256 89.1823L855.803 83.4177C851.465 79.2433 849.08 73.2875 849.08 65H841.08ZM850.235 89.1615C855.466 94.2714 862.525 96.6 870.88 96.6V88.6C864.035 88.6 859.193 86.7286 855.825 83.4385L850.235 89.1615ZM870.88 96.6C879.243 96.6 886.354 94.2688 891.759 89.2242L886.3 83.3758C882.705 86.7312 877.716 88.6 870.88 88.6V96.6ZM891.775 89.2096C898.075 83.2661 900.98 74.9939 900.98 65H892.98C892.98 73.406 890.585 79.3339 886.285 83.3904L891.775 89.2096ZM900.98 65V2.44999H892.98V65H900.98ZM896.98 6.44999H918.73V-1.55001H896.98V6.44999ZM914.73 2.44999V64.7H922.73V2.44999H914.73ZM914.73 64.7C914.73 78.4199 910.58 89.271 902.505 97.6188L908.255 103.181C917.979 93.129 922.73 80.1801 922.73 64.7H914.73ZM902.505 97.6188C894.439 105.957 884.017 110.2 870.88 110.2V118.2C885.942 118.2 898.521 113.243 908.255 103.181L902.505 97.6188ZM951.181 103.55L948.682 106.673L948.692 106.681L951.181 103.55ZM938.131 77.6L934.152 78.0081L934.153 78.0153L934.154 78.0224L938.131 77.6ZM937.531 71.75V67.75H933.1L933.552 72.1581L937.531 71.75ZM960.031 71.75L964.024 71.508L963.796 67.75H960.031V71.75ZM960.331 76.7L964.324 76.4604L964.324 76.458L960.331 76.7ZM967.681 88.25L965.656 91.6997L965.668 91.7066L965.68 91.7135L967.681 88.25ZM1002.03 90.05L1003.59 93.7323L1003.62 93.7212L1003.65 93.7097L1002.03 90.05ZM1008.33 85.25L1011.95 86.9532L1008.33 85.25ZM1006.83 74.6L1009.13 71.3231L1009.11 71.3151L1009.1 71.3071L1006.83 74.6ZM995.581 69.5L994.396 73.3203L994.406 73.3235L994.417 73.3267L995.581 69.5ZM979.381 65.45L980.27 61.55L980.247 61.5448L980.225 61.5399L979.381 65.45ZM962.131 60.05L963.587 56.3242L963.584 56.3232L962.131 60.05ZM947.731 50.75L950.633 47.997L950.581 47.9421L950.527 47.8893L947.731 50.75ZM952.381 9.34999L949.867 6.23902L949.857 6.2468L952.381 9.34999ZM1016.88 10.4L1014.32 13.4697L1014.33 13.4847L1014.35 13.4995L1016.88 10.4ZM1028.88 33.95L1024.88 34.1183L1024.89 34.1421L1024.89 34.1659L1028.88 33.95ZM1029.18 39.5V43.5H1033.4L1033.18 39.2841L1029.18 39.5ZM1007.28 39.5L1003.31 40.0119L1003.76 43.5H1007.28V39.5ZM1006.68 34.85L1002.71 35.3266L1002.71 35.3442L1002.71 35.3619L1006.68 34.85ZM1003.68 27.95L1006.79 25.4332V25.4332L1003.68 27.95ZM994.531 22.85L993.382 26.6813L993.39 26.6837L993.398 26.6861L994.531 22.85ZM971.881 23L973.146 26.7947L973.166 26.7882L973.185 26.7815L971.881 23ZM965.581 26.15L963.082 23.0265L962.977 23.1105L962.878 23.2014L965.581 26.15ZM963.331 29.45L967.126 30.7149L967.161 30.6096L967.19 30.5025L963.331 29.45ZM963.931 36.65L961.103 39.4784L963.931 36.65ZM970.081 40.4L968.572 44.1044L968.609 44.1192L968.645 44.1334L970.081 40.4ZM980.431 43.7L979.356 47.5528L979.421 47.5708L979.486 47.5867L980.431 43.7ZM985.981 45.05L985.036 48.9367L985.053 48.9408L985.07 48.9447L985.981 45.05ZM993.031 46.7L994.084 42.8409L994.014 42.8218L993.943 42.8052L993.031 46.7ZM996.331 47.6L997.39 43.7427L997.384 43.7409L996.331 47.6ZM1006.08 50.45L1004.74 54.217L1004.79 54.2363L1004.84 54.2541L1006.08 50.45ZM1018.23 56.3L1016.09 59.678L1016.1 59.6828L1016.1 59.6876L1018.23 56.3ZM1027.98 66.2L1024.5 68.1653L1024.52 68.1988L1024.54 68.2319L1027.98 66.2ZM1018.68 105.05L1016.4 101.764L1016.39 101.769L1016.39 101.773L1018.68 105.05ZM986.581 109.45C971.796 109.45 961.009 106.254 953.671 100.419L948.692 106.681C957.953 114.046 970.766 117.45 986.581 117.45V109.45ZM953.68 100.427C947.165 95.2144 943.218 87.6253 942.109 77.1776L934.154 78.0224C935.444 90.1747 940.198 99.8856 948.682 106.673L953.68 100.427ZM942.11 77.1919L941.51 71.3419L933.552 72.1581L934.152 78.0081L942.11 77.1919ZM937.531 75.75H960.031V67.75H937.531V75.75ZM956.039 71.992L956.339 76.942L964.324 76.458L964.024 71.508L956.039 71.992ZM956.338 76.9396C956.724 83.3703 959.995 88.3767 965.656 91.6997L969.706 84.8003C966.167 82.7233 964.538 80.0297 964.324 76.4604L956.338 76.9396ZM965.68 91.7135C971.043 94.8121 978.197 96.15 986.731 96.15V88.15C978.865 88.15 973.319 86.8879 969.682 84.7865L965.68 91.7135ZM986.731 96.15C993.764 96.15 999.529 95.4568 1003.59 93.7323L1000.47 86.3677C997.934 87.4432 993.499 88.15 986.731 88.15V96.15ZM1003.65 93.7097C1007.19 92.1463 1010.49 90.0507 1011.95 86.9532L1004.71 83.5468C1004.57 83.8493 1003.67 84.9537 1000.42 86.3903L1003.65 93.7097ZM1011.95 86.9532C1013 84.7142 1013.53 82.332 1013.53 79.85H1005.53C1005.53 81.168 1005.26 82.3858 1004.71 83.5468L1011.95 86.9532ZM1013.53 79.85C1013.53 78.2314 1013.26 76.573 1012.51 75.0611L1005.35 78.6389C1005.4 78.727 1005.53 79.0686 1005.53 79.85H1013.53ZM1012.51 75.0611C1011.72 73.4887 1010.48 72.2719 1009.13 71.3231L1004.54 77.8769C1005.18 78.3281 1005.34 78.6113 1005.35 78.6389L1012.51 75.0611ZM1009.1 71.3071C1005.76 69.0055 1001.61 67.1527 996.746 65.6733L994.417 73.3267C998.756 74.6473 1002.1 76.1945 1004.56 77.8929L1009.1 71.3071ZM996.767 65.6797C993.7 64.728 988.158 63.3473 980.27 61.55L978.493 69.35C986.404 71.1527 991.662 72.472 994.396 73.3203L996.767 65.6797ZM980.225 61.5399C975.387 60.4964 969.846 58.7693 963.587 56.3242L960.676 63.7758C967.216 66.3307 973.176 68.2036 978.538 69.3601L980.225 61.5399ZM963.584 56.3232C958.136 54.1994 953.862 51.4002 950.633 47.997L944.829 53.503C949.001 57.8998 954.326 61.3006 960.678 63.7768L963.584 56.3232ZM950.527 47.8893C947.039 44.4808 945.131 39.7898 945.131 33.35H937.131C937.131 41.5102 939.623 48.4192 944.936 53.6107L950.527 47.8893ZM945.131 33.35C945.131 24.6202 948.365 17.7727 954.905 12.4532L949.857 6.2468C941.398 13.1273 937.131 22.2798 937.131 33.35H945.131ZM954.896 12.461C961.216 7.3523 970.73 4.49999 984.031 4.49999V-3.50001C969.732 -3.50001 958.146 -0.452314 949.867 6.23903L954.896 12.461ZM984.031 4.49999C997.431 4.49999 1007.36 7.65638 1014.32 13.4697L1019.45 7.3303C1010.6 -0.0563946 998.631 -3.50001 984.031 -3.50001V4.49999ZM1014.35 13.4995C1021.1 19.0029 1024.53 25.8006 1024.88 34.1183L1032.88 33.7817C1032.43 23.0994 1027.86 14.197 1019.41 7.30054L1014.35 13.4995ZM1024.89 34.1659L1025.19 39.7159L1033.18 39.2841L1032.88 33.7341L1024.89 34.1659ZM1029.18 35.5H1007.28V43.5H1029.18V35.5ZM1011.25 38.9881L1010.65 34.3381L1002.71 35.3619L1003.31 40.0119L1011.25 38.9881ZM1010.65 34.3734C1010.26 31.0708 1008.93 28.074 1006.79 25.4332L1000.57 30.4668C1001.83 32.026 1002.51 33.6292 1002.71 35.3266L1010.65 34.3734ZM1006.79 25.4332C1004.34 22.4003 1000.36 20.4002 995.665 19.0139L993.398 26.6861C997.506 27.8998 999.627 29.2997 1000.57 30.4668L1006.79 25.4332ZM995.681 19.0187C992.178 17.9678 987.956 17.5 983.131 17.5V25.5C987.506 25.5 990.885 25.9322 993.382 26.6813L995.681 19.0187ZM983.131 17.5C978.287 17.5 974.051 18.0207 970.577 19.2185L973.185 26.7815C975.512 25.9793 978.776 25.5 983.131 25.5V17.5ZM970.616 19.2053C967.664 20.1895 965.083 21.426 963.082 23.0265L968.08 29.2735C969.079 28.474 970.699 27.6105 973.146 26.7947L970.616 19.2053ZM962.878 23.2014C961.348 24.6041 960.039 26.3207 959.472 28.3975L967.19 30.5025C967.224 30.3793 967.414 29.8959 968.284 29.0986L962.878 23.2014ZM959.536 28.1851C958.891 30.1225 958.581 32.1524 958.581 34.25H966.581C966.581 32.9476 966.772 31.7775 967.126 30.7149L959.536 28.1851ZM958.581 34.25C958.581 36.6004 960.011 38.3862 961.103 39.4784L966.76 33.8216C966.625 33.6865 966.533 33.5811 966.473 33.5062C966.413 33.4305 966.397 33.3996 966.405 33.414C966.415 33.4319 966.581 33.7318 966.581 34.25H958.581ZM961.103 39.4784C963.014 41.3896 965.591 42.8899 968.572 44.1044L971.59 36.6956C969.171 35.71 967.648 34.7104 966.76 33.8216L961.103 39.4784ZM968.645 44.1334C971.412 45.1975 974.997 46.3363 979.356 47.5528L981.506 39.8472C977.265 38.6636 973.95 37.6025 971.517 36.6666L968.645 44.1334ZM979.486 47.5867L985.036 48.9367L986.927 41.1633L981.377 39.8133L979.486 47.5867ZM985.07 48.9447L992.12 50.5947L993.943 42.8052L986.893 41.1552L985.07 48.9447ZM991.979 50.5591L995.279 51.4591L997.384 43.7409L994.084 42.8409L991.979 50.5591ZM995.272 51.4573C1000.41 52.8689 1003.51 53.7779 1004.74 54.217L1007.43 46.683C1005.86 46.1221 1002.45 45.1311 997.39 43.7427L995.272 51.4573ZM1004.84 54.2541C1008.48 55.4361 1012.23 57.2305 1016.09 59.678L1020.37 52.922C1016.03 50.1695 1011.68 48.0639 1007.32 46.6459L1004.84 54.2541ZM1016.1 59.6876C1019.92 62.0817 1022.67 64.9187 1024.5 68.1653L1031.47 64.2347C1028.9 59.6813 1025.15 55.9183 1020.36 52.9124L1016.1 59.6876ZM1024.54 68.2319C1026.45 71.4789 1027.43 75.12 1027.43 79.25H1035.43C1035.43 73.78 1034.11 68.7211 1031.43 64.1681L1024.54 68.2319ZM1027.43 79.25C1027.43 89.3808 1023.71 96.6888 1016.4 101.764L1020.96 108.336C1030.65 101.611 1035.43 91.7192 1035.43 79.25H1027.43ZM1016.39 101.773C1009.27 106.756 999.458 109.45 986.581 109.45V117.45C1000.5 117.45 1012.09 114.544 1020.98 108.327L1016.39 101.773Z" fill="black" fill-opacity="0.3"/>
<defs>
<linearGradient id="paint0_linear_272_1893" x1="2.19252" y1="52.5" x2="722.729" y2="-424.873" gradientUnits="userSpaceOnUse">
<stop stop-color="#F24D56"/>
<stop offset="0.509216" stop-color="#EE0C77"/>
<stop offset="0.964829" stop-color="#F24D56"/>
</linearGradient>
</defs>
</svg>
