<svg width="1043" height="94" viewBox="0 0 1043 94" fill="none" xmlns="http://www.w3.org/2000/svg">
<path d="M12.1894 79.98L15.188 77.3326L15.1806 77.3243L12.1894 79.98ZM12.1894 14.136L9.21755 11.4586L9.21064 11.4664L12.1894 14.136ZM71.0894 8.432L68.8144 11.722L68.8329 11.7348L68.8515 11.7474L71.0894 8.432ZM85.7214 27.404L87.3745 31.0464L90.8062 29.4889L89.4558 25.9706L85.7214 27.404ZM69.6014 34.72V38.72H70.4666L71.2545 38.3624L69.6014 34.72ZM69.4774 34.72L65.8008 36.2957L66.8398 38.72H69.4774V34.72ZM68.3614 32.116L64.6775 33.6746L64.6812 33.6831L64.6848 33.6917L68.3614 32.116ZM60.0534 21.948L57.818 25.2651L57.8263 25.2707L57.8346 25.2762L60.0534 21.948ZM33.8894 20.336L32.2814 16.6734L33.8894 20.336ZM25.4574 26.288L22.4842 23.6121L22.476 23.6213L22.4678 23.6305L25.4574 26.288ZM25.4574 67.704L22.427 70.3148L22.4301 70.3185L25.4574 67.704ZM60.0534 72.168L57.851 68.8289L57.8254 68.8458L57.8001 68.8631L60.0534 72.168ZM68.3614 62L64.6592 60.4855L64.6482 60.5125L64.6375 60.5396L68.3614 62ZM69.4774 59.272V55.272H66.792L65.7752 57.7575L69.4774 59.272ZM69.6014 59.272L71.2776 55.6402L70.48 55.272H69.6014V59.272ZM85.7214 66.712L89.4327 68.2042L90.8518 64.6744L87.3976 63.0802L85.7214 66.712ZM71.0894 85.684L73.3809 88.9626L73.3918 88.955L73.4026 88.9473L71.0894 85.684ZM44.8014 89.744C32.1621 89.744 22.4381 85.5445 15.188 77.3326L9.19084 82.6274C18.1433 92.7675 30.1607 97.744 44.8014 97.744V89.744ZM15.1806 77.3243C8.05092 69.294 4.4094 59.2783 4.4094 46.996H-3.5906C-3.5906 61.0017 0.621215 72.9753 9.19822 82.6357L15.1806 77.3243ZM4.4094 46.996C4.4094 34.7132 8.05077 24.7472 15.1682 16.8056L9.21064 11.4664C0.621368 21.0502 -3.5906 32.9908 -3.5906 46.996H4.4094ZM15.1612 16.8133C22.5954 8.56147 32.3445 4.372 44.8014 4.372V-3.628C30.309 -3.628 18.3168 1.35852 9.21756 11.4587L15.1612 16.8133ZM44.8014 4.372C53.7713 4.372 61.7351 6.82674 68.8144 11.722L73.3644 5.14197C64.9024 -0.709419 55.3408 -3.628 44.8014 -3.628V4.372ZM68.8515 11.7474C74.7178 15.7071 79.1093 21.3402 81.9871 28.8374L89.4558 25.9706C86.0508 17.0998 80.6877 10.0849 73.3273 5.1166L68.8515 11.7474ZM84.0683 23.7616L67.9483 31.0776L71.2545 38.3624L87.3745 31.0464L84.0683 23.7616ZM69.6014 30.72H69.4774V38.72H69.6014V30.72ZM73.154 33.1443L72.038 30.5403L64.6848 33.6917L65.8008 36.2957L73.154 33.1443ZM72.0453 30.5574C69.936 25.5718 66.6727 21.5534 62.2722 18.6198L57.8346 25.2762C60.8741 27.3026 63.1495 30.0629 64.6775 33.6746L72.0453 30.5574ZM62.2888 18.6309C57.7713 15.5865 52.5978 14.104 46.9094 14.104V22.104C51.141 22.104 54.7302 23.1841 57.818 25.2651L62.2888 18.6309ZM46.9094 14.104C41.285 14.104 36.3462 14.8889 32.2814 16.6734L35.4974 23.9986C38.2113 22.8071 41.9525 22.104 46.9094 22.104V14.104ZM32.2814 16.6734C28.4294 18.3646 25.1358 20.6659 22.4842 23.6121L28.4306 28.9639C30.243 26.9501 32.5707 25.2834 35.4974 23.9986L32.2814 16.6734ZM22.4678 23.6305C17.0447 29.7315 14.5134 37.6578 14.5134 46.996H22.5134C22.5134 39.1396 24.6114 33.2605 28.447 28.9454L22.4678 23.6305ZM14.5134 46.996C14.5134 56.1963 17.0583 64.0834 22.427 70.3148L28.4878 65.0932C24.5978 60.5779 22.5134 54.6597 22.5134 46.996H14.5134ZM22.4301 70.3185C28.1325 76.9212 36.564 79.888 46.9094 79.888V71.888C38.0761 71.888 32.2063 69.3988 28.4847 65.0895L22.4301 70.3185ZM46.9094 79.888C52.7031 79.888 57.9014 78.4766 62.3068 75.4729L57.8001 68.8631C54.9307 70.8194 51.3664 71.888 46.9094 71.888V79.888ZM62.2558 75.5071C66.8095 72.5036 70.1219 68.467 72.0853 63.4604L64.6375 60.5396C63.2942 63.965 61.068 66.7071 57.851 68.8289L62.2558 75.5071ZM72.0636 63.5145L73.1796 60.7865L65.7752 57.7575L64.6592 60.4855L72.0636 63.5145ZM69.4774 63.272H69.6014V55.272H69.4774V63.272ZM67.9252 62.9038L84.0452 70.3438L87.3976 63.0802L71.2776 55.6402L67.9252 62.9038ZM82.0101 65.2198C79.0487 72.5854 74.6305 78.2709 68.7762 82.4207L73.4026 88.9473C80.6097 83.8385 85.9461 76.876 89.4327 68.2042L82.0101 65.2198ZM68.7979 82.4054C61.8157 87.2854 53.8615 89.744 44.8014 89.744V97.744C55.416 97.744 64.9871 94.8292 73.3809 88.9626L68.7979 82.4054ZM130.557 57.288H134.557V56.0347L133.842 55.0055L130.557 57.288ZM91.8691 1.61199V-2.38801H84.2187L88.5843 3.89454L91.8691 1.61199ZM113.817 1.61199L117.102 -0.670002L115.909 -2.38801H113.817V1.61199ZM139.485 38.564L136.2 40.846L139.477 45.564L142.765 40.8534L139.485 38.564ZM165.277 1.61199V-2.38801H163.191L161.997 -0.67742L165.277 1.61199ZM187.225 1.61199L190.513 3.8896L194.862 -2.38801H187.225V1.61199ZM148.661 57.288L145.373 55.0104L144.661 56.038V57.288H148.661ZM148.661 93V97H152.661V93H148.661ZM130.557 93H126.557V97H130.557V93ZM133.842 55.0055L95.1539 -0.670549L88.5843 3.89454L127.272 59.5705L133.842 55.0055ZM91.8691 5.61199H113.817V-2.38801H91.8691V5.61199ZM110.532 3.89399L136.2 40.846L142.77 36.282L117.102 -0.670002L110.532 3.89399ZM142.765 40.8534L168.557 3.90141L161.997 -0.67742L136.205 36.2746L142.765 40.8534ZM165.277 5.61199H187.225V-2.38801H165.277V5.61199ZM183.937 -0.665607L145.373 55.0104L151.949 59.5656L190.513 3.8896L183.937 -0.665607ZM144.661 57.288V93H152.661V57.288H144.661ZM148.661 89H130.557V97H148.661V89ZM134.557 93V57.288H126.557V93H134.557ZM198.422 1.61199V-2.38801H194.422V1.61199H198.422ZM263.398 10.168L260.528 12.9545L260.549 12.9756L260.569 12.9964L263.398 10.168ZM263.522 45.756L260.746 42.8757L257.182 46.3104L261.288 49.0743L263.522 45.756ZM272.822 57.164L269.113 58.6608L269.134 58.7143L269.157 58.7673L272.822 57.164ZM269.722 82.088L266.568 79.6279L266.561 79.6367L269.722 82.088ZM255.71 91.016L254.537 87.1918L254.453 87.2176L254.37 87.2471L255.71 91.016ZM198.422 93H194.422V97H198.422V93ZM251.37 33.108L247.792 31.3191L247.776 31.352L247.76 31.3851L251.37 33.108ZM251.618 24.924L247.885 26.3599L247.927 26.4709L247.976 26.5792L251.618 24.924ZM249.882 22.196L246.996 24.9661L247.025 24.9956L247.053 25.0244L249.882 22.196ZM216.526 19.096V15.096H212.526V19.096H216.526ZM216.526 38.564H212.526V42.564H216.526V38.564ZM253.602 72.788L251.202 69.588L251.174 69.6091L251.146 69.6306L253.602 72.788ZM253.478 59.148L250.802 62.1212L250.819 62.1361L250.835 62.1509L253.478 59.148ZM216.526 55.8V51.8H212.526V55.8H216.526ZM216.526 75.392H212.526V79.392H216.526V75.392ZM198.422 5.61199H239.838V-2.38801H198.422V5.61199ZM239.838 5.61199C249.242 5.61199 255.939 8.22782 260.528 12.9545L266.268 7.38146C259.78 0.700169 250.77 -2.38801 239.838 -2.38801V5.61199ZM260.569 12.9964C264.38 16.8074 266.342 21.627 266.342 27.776H274.342C274.342 19.7063 271.674 12.7872 266.226 7.33957L260.569 12.9964ZM266.342 27.776C266.342 34.5337 264.354 39.3994 260.746 42.8757L266.297 48.6363C271.783 43.3499 274.342 36.229 274.342 27.776H266.342ZM261.288 49.0743C264.938 51.5309 267.516 54.7052 269.113 58.6608L276.531 55.6672C274.325 50.1988 270.703 45.7677 265.755 42.4376L261.288 49.0743ZM269.157 58.7673C270.031 60.7646 270.558 63.4463 270.558 66.96H278.558C278.558 62.703 277.927 58.8541 276.487 55.5607L269.157 58.7673ZM270.558 66.96C270.558 72.1475 269.17 76.2913 266.568 79.6279L272.876 84.5481C276.721 79.618 278.558 73.6765 278.558 66.96H270.558ZM266.561 79.6367C264.045 82.8815 260.159 85.4679 254.537 87.1918L256.883 94.8402C263.661 92.7615 269.117 89.3958 272.883 84.5393L266.561 79.6367ZM254.37 87.2471C251.21 88.3707 247.107 89 241.946 89V97C247.697 97 252.77 96.3066 257.05 94.7849L254.37 87.2471ZM241.946 89H198.422V97H241.946V89ZM202.422 93V1.61199H194.422V93H202.422ZM239.838 42.564C246.498 42.564 252.284 40.4797 254.98 34.8309L247.76 31.3851C246.984 33.011 245.081 34.564 239.838 34.564V42.564ZM254.948 34.8968C255.843 33.1062 256.238 31.1556 256.238 29.14H248.238C248.238 30.1004 248.054 30.7951 247.792 31.3191L254.948 34.8968ZM256.238 29.14C256.238 27.0917 256.037 24.9801 255.259 23.2688L247.976 26.5792C247.973 26.5714 247.994 26.6166 248.025 26.7339C248.056 26.8499 248.092 27.0162 248.125 27.242C248.193 27.7 248.238 28.3234 248.238 29.14H256.238ZM255.351 23.4881C254.756 21.9408 253.886 20.5433 252.71 19.3676L247.053 25.0244C247.366 25.3367 247.653 25.7579 247.885 26.3599L255.351 23.4881ZM252.767 19.4259C249.762 16.2947 245.511 15.096 240.83 15.096V23.096C244.25 23.096 246.034 23.9639 246.996 24.9661L252.767 19.4259ZM240.83 15.096H216.526V23.096H240.83V15.096ZM212.526 19.096V38.564H220.526V19.096H212.526ZM216.526 42.564H239.838V34.564H216.526V42.564ZM243.062 79.392C248.185 79.392 252.782 78.4935 256.058 75.9454L251.146 69.6306C249.958 70.5545 247.528 71.392 243.062 71.392V79.392ZM256.002 75.988C259.169 73.6124 260.578 70.1304 260.578 66.216H252.578C252.578 68.0883 252.002 68.9876 251.202 69.588L256.002 75.988ZM260.578 66.216C260.578 62.2398 259.099 58.7661 256.12 56.1451L250.835 62.1509C251.99 63.1672 252.578 64.4056 252.578 66.216H260.578ZM256.154 56.1748C252.623 52.9967 247.611 51.8 241.946 51.8V59.8C246.697 59.8 249.373 60.8353 250.802 62.1212L256.154 56.1748ZM241.946 51.8H216.526V59.8H241.946V51.8ZM212.526 55.8V75.392H220.526V55.8H212.526ZM216.526 79.392H243.062V71.392H216.526V79.392ZM290.104 1.61199V-2.38801H286.104V1.61199H290.104ZM359.668 1.61199H363.668V-2.38801H359.668V1.61199ZM359.668 19.22V23.22H363.668V19.22H359.668ZM308.208 19.22V15.22H304.208V19.22H308.208ZM308.208 38.316H304.208V42.316H308.208V38.316ZM345.532 38.316H349.532V34.316H345.532V38.316ZM345.532 56.172V60.172H349.532V56.172H345.532ZM308.208 56.172V52.172H304.208V56.172H308.208ZM308.208 75.268H304.208V79.268H308.208V75.268ZM359.668 75.268H363.668V71.268H359.668V75.268ZM359.668 93V97H363.668V93H359.668ZM290.104 93H286.104V97H290.104V93ZM290.104 5.61199H359.668V-2.38801H290.104V5.61199ZM355.668 1.61199V19.22H363.668V1.61199H355.668ZM359.668 15.22H308.208V23.22H359.668V15.22ZM304.208 19.22V38.316H312.208V19.22H304.208ZM308.208 42.316H345.532V34.316H308.208V42.316ZM341.532 38.316V56.172H349.532V38.316H341.532ZM345.532 52.172H308.208V60.172H345.532V52.172ZM304.208 56.172V75.268H312.208V56.172H304.208ZM308.208 79.268H359.668V71.268H308.208V79.268ZM355.668 75.268V93H363.668V75.268H355.668ZM359.668 89H290.104V97H359.668V89ZM294.104 93V1.61199H286.104V93H294.104ZM375.127 1.61199V-2.38801H371.127V1.61199H375.127ZM442.335 9.67199L445.038 6.72338L445.016 6.70384L444.995 6.68461L442.335 9.67199ZM447.295 47.244L443.888 45.1476L443.882 45.157L443.877 45.1663L447.295 47.244ZM435.887 56.916L437.27 60.6694L437.389 60.6253L437.506 60.5737L435.887 56.916ZM433.531 57.784L432.148 54.0306L427.621 55.6986L430.099 59.8384L433.531 57.784ZM454.611 93V97H461.667L458.043 90.9456L454.611 93ZM433.283 93L429.814 94.9918L430.967 97H433.283V93ZM415.055 61.256L418.524 59.2642L417.37 57.256H415.055V61.256ZM393.231 61.256V57.256H389.231V61.256H393.231ZM393.231 93V97H397.231V93H393.231ZM375.127 93H371.127V97H375.127V93ZM432.043 37.572L435.423 39.7106L435.484 39.6142L435.539 39.5146L432.043 37.572ZM429.439 22.692L432.066 19.6757L432.029 19.6433L431.991 19.6119L429.439 22.692ZM393.231 19.096V15.096H389.231V19.096H393.231ZM393.231 43.648H389.231V47.648H393.231V43.648ZM375.127 5.61199H419.147V-2.38801H375.127V5.61199ZM419.147 5.61199C427.763 5.61199 434.492 8.04489 439.675 12.6594L444.995 6.68461C438.108 0.552427 429.378 -2.38801 419.147 -2.38801V5.61199ZM439.632 12.6206C444.633 17.2047 447.263 23.4255 447.263 31.744H455.263C455.263 21.5451 451.941 13.0513 445.038 6.72338L439.632 12.6206ZM447.263 31.744C447.263 37.1844 446.076 41.5931 443.888 45.1476L450.701 49.3404C453.805 44.2976 455.263 38.373 455.263 31.744H447.263ZM443.877 45.1663C441.788 48.6033 438.655 51.3164 434.268 53.2583L437.506 60.5737C443.204 58.0516 447.677 54.3167 450.713 49.3217L443.877 45.1663ZM434.504 53.1626L432.148 54.0306L434.914 61.5374L437.27 60.6694L434.504 53.1626ZM430.099 59.8384L451.179 95.0544L458.043 90.9456L436.963 55.7296L430.099 59.8384ZM454.611 89H433.283V97H454.611V89ZM436.752 91.0082L418.524 59.2642L411.586 63.2478L429.814 94.9918L436.752 91.0082ZM415.055 57.256H393.231V65.256H415.055V57.256ZM389.231 61.256V93H397.231V61.256H389.231ZM393.231 89H375.127V97H393.231V89ZM379.127 93V1.61199H371.127V93H379.127ZM417.411 47.648C425.241 47.648 431.806 45.4276 435.423 39.7106L428.662 35.4334C427.154 37.8178 423.965 39.648 417.411 39.648V47.648ZM435.539 39.5146C436.804 37.2388 437.283 34.5588 437.283 31.744H429.283C429.283 33.7239 428.935 34.9291 428.546 35.6294L435.539 39.5146ZM437.283 31.744C437.283 26.9386 435.61 22.7629 432.066 19.6757L426.812 25.7083C428.392 27.0851 429.283 28.9441 429.283 31.744H437.283ZM431.991 19.6119C428.201 16.4716 423.371 15.096 417.907 15.096V23.096C422.032 23.096 424.89 24.1177 426.887 25.7721L431.991 19.6119ZM417.907 15.096H393.231V23.096H417.907V15.096ZM389.231 19.096V43.648H397.231V19.096H389.231ZM393.231 47.648H417.411V39.648H393.231V47.648ZM508.519 79.98L511.517 77.3326L511.51 77.3243L508.519 79.98ZM508.519 14.136L505.547 11.4586L505.54 11.4664L508.519 14.136ZM567.419 8.432L565.144 11.722L565.162 11.7348L565.181 11.7474L567.419 8.432ZM582.051 27.404L583.704 31.0464L587.136 29.4889L585.785 25.9706L582.051 27.404ZM565.931 34.72V38.72H566.796L567.584 38.3624L565.931 34.72ZM565.807 34.72L562.13 36.2957L563.169 38.72H565.807V34.72ZM564.691 32.116L561.007 33.6746L561.011 33.6831L561.014 33.6917L564.691 32.116ZM556.383 21.948L554.147 25.2651L554.156 25.2707L554.164 25.2762L556.383 21.948ZM530.219 20.336L528.611 16.6734L530.219 20.336ZM521.787 26.288L518.814 23.6121L518.805 23.6213L518.797 23.6305L521.787 26.288ZM521.787 67.704L518.756 70.3148L518.759 70.3185L521.787 67.704ZM556.383 72.168L554.18 68.8289L554.155 68.8458L554.129 68.8631L556.383 72.168ZM564.691 62L560.989 60.4855L560.978 60.5125L560.967 60.5396L564.691 62ZM565.807 59.272V55.272H563.121L562.105 57.7575L565.807 59.272ZM565.931 59.272L567.607 55.6402L566.809 55.272H565.931V59.272ZM582.051 66.712L585.762 68.2042L587.181 64.6744L583.727 63.0802L582.051 66.712ZM567.419 85.684L569.71 88.9626L569.721 88.955L569.732 88.9473L567.419 85.684ZM541.131 89.744C528.492 89.744 518.768 85.5445 511.517 77.3326L505.52 82.6274C514.473 92.7675 526.49 97.744 541.131 97.744V89.744ZM511.51 77.3243C504.38 69.294 500.739 59.2783 500.739 46.996H492.739C492.739 61.0017 496.951 72.9753 505.528 82.6357L511.51 77.3243ZM500.739 46.996C500.739 34.7132 504.38 24.7472 511.498 16.8056L505.54 11.4664C496.951 21.0502 492.739 32.9908 492.739 46.996H500.739ZM511.491 16.8133C518.925 8.56147 528.674 4.372 541.131 4.372V-3.628C526.638 -3.628 514.646 1.35852 505.547 11.4587L511.491 16.8133ZM541.131 4.372C550.101 4.372 558.064 6.82674 565.144 11.722L569.694 5.14197C561.232 -0.709419 551.67 -3.628 541.131 -3.628V4.372ZM565.181 11.7474C571.047 15.7071 575.439 21.3402 578.316 28.8374L585.785 25.9706C582.38 17.0998 577.017 10.0849 569.657 5.1166L565.181 11.7474ZM580.398 23.7616L564.278 31.0776L567.584 38.3624L583.704 31.0464L580.398 23.7616ZM565.931 30.72H565.807V38.72H565.931V30.72ZM569.483 33.1443L568.367 30.5403L561.014 33.6917L562.13 36.2957L569.483 33.1443ZM568.375 30.5574C566.265 25.5718 563.002 21.5534 558.602 18.6198L554.164 25.2762C557.203 27.3026 559.479 30.0629 561.007 33.6746L568.375 30.5574ZM558.618 18.6309C554.101 15.5865 548.927 14.104 543.239 14.104V22.104C547.47 22.104 551.06 23.1841 554.147 25.2651L558.618 18.6309ZM543.239 14.104C537.614 14.104 532.676 14.8889 528.611 16.6734L531.827 23.9986C534.541 22.8071 538.282 22.104 543.239 22.104V14.104ZM528.611 16.6734C524.759 18.3646 521.465 20.6659 518.814 23.6121L524.76 28.9639C526.572 26.9501 528.9 25.2834 531.827 23.9986L528.611 16.6734ZM518.797 23.6305C513.374 29.7315 510.843 37.6578 510.843 46.996H518.843C518.843 39.1396 520.941 33.2605 524.776 28.9454L518.797 23.6305ZM510.843 46.996C510.843 56.1963 513.388 64.0834 518.756 70.3148L524.817 65.0932C520.927 60.5779 518.843 54.6597 518.843 46.996H510.843ZM518.759 70.3185C524.462 76.9212 532.893 79.888 543.239 79.888V71.888C534.406 71.888 528.536 69.3988 524.814 65.0895L518.759 70.3185ZM543.239 79.888C549.032 79.888 554.231 78.4766 558.636 75.4729L554.129 68.8631C551.26 70.8194 547.696 71.888 543.239 71.888V79.888ZM558.585 75.5071C563.139 72.5036 566.451 68.467 568.415 63.4604L560.967 60.5396C559.624 63.965 557.397 66.7071 554.18 68.8289L558.585 75.5071ZM568.393 63.5145L569.509 60.7865L562.105 57.7575L560.989 60.4855L568.393 63.5145ZM565.807 63.272H565.931V55.272H565.807V63.272ZM564.255 62.9038L580.375 70.3438L583.727 63.0802L567.607 55.6402L564.255 62.9038ZM578.34 65.2198C575.378 72.5854 570.96 78.2709 565.106 82.4207L569.732 88.9473C576.939 83.8385 582.275 76.876 585.762 68.2042L578.34 65.2198ZM565.127 82.4054C558.145 87.2854 550.191 89.744 541.131 89.744V97.744C551.745 97.744 561.316 94.8292 569.71 88.9626L565.127 82.4054ZM626.886 57.288H630.886V56.0347L630.171 55.0055L626.886 57.288ZM588.198 1.61199V-2.38801H580.548L584.914 3.89454L588.198 1.61199ZM610.146 1.61199L613.432 -0.670002L612.238 -2.38801H610.146V1.61199ZM635.815 38.564L632.529 40.846L635.807 45.564L639.095 40.8534L635.815 38.564ZM661.607 1.61199V-2.38801H659.52L658.326 -0.67742L661.607 1.61199ZM683.555 1.61199L686.843 3.8896L691.191 -2.38801H683.555V1.61199ZM644.99 57.288L641.702 55.0104L640.99 56.038V57.288H644.99ZM644.99 93V97H648.99V93H644.99ZM626.886 93H622.886V97H626.886V93ZM630.171 55.0055L591.483 -0.670549L584.914 3.89454L623.602 59.5705L630.171 55.0055ZM588.198 5.61199H610.146V-2.38801H588.198V5.61199ZM606.861 3.89399L632.529 40.846L639.1 36.282L613.432 -0.670002L606.861 3.89399ZM639.095 40.8534L664.887 3.90141L658.326 -0.67742L632.534 36.2746L639.095 40.8534ZM661.607 5.61199H683.555V-2.38801H661.607V5.61199ZM680.266 -0.665607L641.702 55.0104L648.279 59.5656L686.843 3.8896L680.266 -0.665607ZM640.99 57.288V93H648.99V57.288H640.99ZM644.99 89H626.886V97H644.99V89ZM630.886 93V57.288H622.886V93H630.886ZM694.751 1.61199V-2.38801H690.751V1.61199H694.751ZM760.223 10.044L762.948 7.11572L762.939 7.10718L762.93 7.09869L760.223 10.044ZM760.099 55.18L762.804 58.1269L762.826 58.1071L762.847 58.0869L760.099 55.18ZM712.855 63.488V59.488H708.855V63.488H712.855ZM712.855 93V97H716.855V93H712.855ZM694.751 93H690.751V97H694.751V93ZM747.451 42.532L750.184 45.4531L750.208 45.4307L750.231 45.408L747.451 42.532ZM747.451 22.692L744.719 25.6131L744.722 25.6162L747.451 22.692ZM712.855 19.096V15.096H708.855V19.096H712.855ZM712.855 46.128H708.855V50.128H712.855V46.128ZM694.751 5.61199H736.291V-2.38801H694.751V5.61199ZM736.291 5.61199C745.322 5.61199 752.27 8.16805 757.517 12.9893L762.93 7.09869C755.942 0.677279 746.935 -2.38801 736.291 -2.38801V5.61199ZM757.498 12.9723C762.506 17.6318 765.151 23.9814 765.151 32.488H773.151C773.151 22.1466 769.845 13.5335 762.948 7.11572L757.498 12.9723ZM765.151 32.488C765.151 40.9751 762.476 47.4298 757.352 52.273L762.847 58.0869C769.792 51.5222 773.151 42.8489 773.151 32.488H765.151ZM757.395 52.2331C752.241 56.9632 745.34 59.488 736.291 59.488V67.488C746.918 67.488 755.888 64.4741 762.804 58.1269L757.395 52.2331ZM736.291 59.488H712.855V67.488H736.291V59.488ZM708.855 63.488V93H716.855V63.488H708.855ZM712.855 89H694.751V97H712.855V89ZM698.751 93V1.61199H690.751V93H698.751ZM735.671 50.128C741.474 50.128 746.58 48.8242 750.184 45.4531L744.719 39.6109C743.197 41.0344 740.45 42.128 735.671 42.128V50.128ZM750.231 45.408C753.659 42.0948 755.171 37.6545 755.171 32.612H747.171C747.171 36.0015 746.204 38.1745 744.671 39.656L750.231 45.408ZM755.171 32.612C755.171 27.5195 753.676 23.0299 750.181 19.7678L744.722 25.6162C746.187 26.9834 747.171 29.1072 747.171 32.612H755.171ZM750.184 19.7709C746.58 16.3998 741.474 15.096 735.671 15.096V23.096C740.45 23.096 743.197 24.1896 744.719 25.6131L750.184 19.7709ZM735.671 15.096H712.855V23.096H735.671V15.096ZM708.855 19.096V46.128H716.855V19.096H708.855ZM712.855 50.128H735.671V42.128H712.855V50.128ZM782.195 1.61199V-2.38801H778.195V1.61199H782.195ZM800.299 1.61199H804.299V-2.38801H800.299V1.61199ZM800.299 38.316H796.299V42.316H800.299V38.316ZM839.732 38.316V42.316H843.732V38.316H839.732ZM839.732 1.61199V-2.38801H835.732V1.61199H839.732ZM857.711 1.61199H861.711V-2.38801H857.711V1.61199ZM857.711 93V97H861.711V93H857.711ZM839.732 93H835.732V97H839.732V93ZM839.732 56.172H843.732V52.172H839.732V56.172ZM800.299 56.172V52.172H796.299V56.172H800.299ZM800.299 93V97H804.299V93H800.299ZM782.195 93H778.195V97H782.195V93ZM782.195 5.61199H800.299V-2.38801H782.195V5.61199ZM796.299 1.61199V38.316H804.299V1.61199H796.299ZM800.299 42.316H839.732V34.316H800.299V42.316ZM843.732 38.316V1.61199H835.732V38.316H843.732ZM839.732 5.61199H857.711V-2.38801H839.732V5.61199ZM853.711 1.61199V93H861.711V1.61199H853.711ZM857.711 89H839.732V97H857.711V89ZM843.732 93V56.172H835.732V93H843.732ZM839.732 52.172H800.299V60.172H839.732V52.172ZM796.299 56.172V93H804.299V56.172H796.299ZM800.299 89H782.195V97H800.299V89ZM786.195 93V1.61199H778.195V93H786.195ZM878.116 1.61199V-2.38801H874.116V1.61199H878.116ZM947.68 1.61199H951.68V-2.38801H947.68V1.61199ZM947.68 19.22V23.22H951.68V19.22H947.68ZM896.22 19.22V15.22H892.22V19.22H896.22ZM896.22 38.316H892.22V42.316H896.22V38.316ZM933.544 38.316H937.544V34.316H933.544V38.316ZM933.544 56.172V60.172H937.544V56.172H933.544ZM896.22 56.172V52.172H892.22V56.172H896.22ZM896.22 75.268H892.22V79.268H896.22V75.268ZM947.68 75.268H951.68V71.268H947.68V75.268ZM947.68 93V97H951.68V93H947.68ZM878.116 93H874.116V97H878.116V93ZM878.116 5.61199H947.68V-2.38801H878.116V5.61199ZM943.68 1.61199V19.22H951.68V1.61199H943.68ZM947.68 15.22H896.22V23.22H947.68V15.22ZM892.22 19.22V38.316H900.22V19.22H892.22ZM896.22 42.316H933.544V34.316H896.22V42.316ZM929.544 38.316V56.172H937.544V38.316H929.544ZM933.544 52.172H896.22V60.172H933.544V52.172ZM892.22 56.172V75.268H900.22V56.172H892.22ZM896.22 79.268H947.68V71.268H896.22V79.268ZM943.68 75.268V93H951.68V75.268H943.68ZM947.68 89H878.116V97H947.68V89ZM882.116 93V1.61199H874.116V93H882.116ZM963.139 1.61199V-2.38801H959.139V1.61199H963.139ZM1030.35 9.67199L1033.05 6.72338L1033.03 6.70384L1033.01 6.68461L1030.35 9.67199ZM1035.31 47.244L1031.9 45.1476L1031.89 45.157L1031.89 45.1663L1035.31 47.244ZM1023.9 56.916L1025.28 60.6694L1025.4 60.6253L1025.52 60.5737L1023.9 56.916ZM1021.54 57.784L1020.16 54.0306L1015.63 55.6986L1018.11 59.8384L1021.54 57.784ZM1042.62 93V97H1049.68L1046.05 90.9456L1042.62 93ZM1021.29 93L1017.83 94.9918L1018.98 97H1021.29V93ZM1003.07 61.256L1006.54 59.2642L1005.38 57.256H1003.07V61.256ZM981.243 61.256V57.256H977.243V61.256H981.243ZM981.243 93V97H985.243V93H981.243ZM963.139 93H959.139V97H963.139V93ZM1020.05 37.572L1023.43 39.7106L1023.5 39.6142L1023.55 39.5146L1020.05 37.572ZM1017.45 22.692L1020.08 19.6757L1020.04 19.6433L1020 19.6119L1017.45 22.692ZM981.243 19.096V15.096H977.243V19.096H981.243ZM981.243 43.648H977.243V47.648H981.243V43.648ZM963.139 5.61199H1007.16V-2.38801H963.139V5.61199ZM1007.16 5.61199C1015.77 5.61199 1022.5 8.04489 1027.69 12.6594L1033.01 6.68461C1026.12 0.552427 1017.39 -2.38801 1007.16 -2.38801V5.61199ZM1027.64 12.6206C1032.64 17.2047 1035.27 23.4255 1035.27 31.744H1043.27C1043.27 21.5451 1039.95 13.0513 1033.05 6.72338L1027.64 12.6206ZM1035.27 31.744C1035.27 37.1844 1034.09 41.5931 1031.9 45.1476L1038.71 49.3404C1041.82 44.2976 1043.27 38.373 1043.27 31.744H1035.27ZM1031.89 45.1663C1029.8 48.6033 1026.67 51.3164 1022.28 53.2583L1025.52 60.5737C1031.22 58.0516 1035.69 54.3167 1038.72 49.3217L1031.89 45.1663ZM1022.52 53.1626L1020.16 54.0306L1022.93 61.5374L1025.28 60.6694L1022.52 53.1626ZM1018.11 59.8384L1039.19 95.0544L1046.05 90.9456L1024.97 55.7296L1018.11 59.8384ZM1042.62 89H1021.29V97H1042.62V89ZM1024.76 91.0082L1006.54 59.2642L999.598 63.2478L1017.83 94.9918L1024.76 91.0082ZM1003.07 57.256H981.243V65.256H1003.07V57.256ZM977.243 61.256V93H985.243V61.256H977.243ZM981.243 89H963.139V97H981.243V89ZM967.139 93V1.61199H959.139V93H967.139ZM1005.42 47.648C1013.25 47.648 1019.82 45.4276 1023.43 39.7106L1016.67 35.4334C1015.17 37.8178 1011.98 39.648 1005.42 39.648V47.648ZM1023.55 39.5146C1024.82 37.2388 1025.29 34.5588 1025.29 31.744H1017.29C1017.29 33.7239 1016.95 34.9291 1016.56 35.6294L1023.55 39.5146ZM1025.29 31.744C1025.29 26.9386 1023.62 22.7629 1020.08 19.6757L1014.82 25.7083C1016.4 27.0851 1017.29 28.9441 1017.29 31.744H1025.29ZM1020 19.6119C1016.21 16.4716 1011.38 15.096 1005.92 15.096V23.096C1010.04 23.096 1012.9 24.1177 1014.9 25.7721L1020 19.6119ZM1005.92 15.096H981.243V23.096H1005.92V15.096ZM977.243 19.096V43.648H985.243V19.096H977.243ZM981.243 47.648H1005.42V39.648H981.243V47.648Z" fill="url(#paint0_linear_269_1796)"/>
<path d="M12.1894 79.98L15.188 77.3326L15.1806 77.3243L12.1894 79.98ZM12.1894 14.136L9.21755 11.4586L9.21064 11.4664L12.1894 14.136ZM71.0894 8.432L68.8144 11.722L68.8329 11.7348L68.8515 11.7474L71.0894 8.432ZM85.7214 27.404L87.3745 31.0464L90.8062 29.4889L89.4558 25.9706L85.7214 27.404ZM69.6014 34.72V38.72H70.4666L71.2545 38.3624L69.6014 34.72ZM69.4774 34.72L65.8008 36.2957L66.8398 38.72H69.4774V34.72ZM68.3614 32.116L64.6775 33.6746L64.6812 33.6831L64.6848 33.6917L68.3614 32.116ZM60.0534 21.948L57.818 25.2651L57.8263 25.2707L57.8346 25.2762L60.0534 21.948ZM33.8894 20.336L32.2814 16.6734L33.8894 20.336ZM25.4574 26.288L22.4842 23.6121L22.476 23.6213L22.4678 23.6305L25.4574 26.288ZM25.4574 67.704L22.427 70.3148L22.4301 70.3185L25.4574 67.704ZM60.0534 72.168L57.851 68.8289L57.8254 68.8458L57.8001 68.8631L60.0534 72.168ZM68.3614 62L64.6592 60.4855L64.6482 60.5125L64.6375 60.5396L68.3614 62ZM69.4774 59.272V55.272H66.792L65.7752 57.7575L69.4774 59.272ZM69.6014 59.272L71.2776 55.6402L70.48 55.272H69.6014V59.272ZM85.7214 66.712L89.4327 68.2042L90.8518 64.6744L87.3976 63.0802L85.7214 66.712ZM71.0894 85.684L73.3809 88.9626L73.3918 88.955L73.4026 88.9473L71.0894 85.684ZM44.8014 89.744C32.1621 89.744 22.4381 85.5445 15.188 77.3326L9.19084 82.6274C18.1433 92.7675 30.1607 97.744 44.8014 97.744V89.744ZM15.1806 77.3243C8.05092 69.294 4.4094 59.2783 4.4094 46.996H-3.5906C-3.5906 61.0017 0.621215 72.9753 9.19822 82.6357L15.1806 77.3243ZM4.4094 46.996C4.4094 34.7132 8.05077 24.7472 15.1682 16.8056L9.21064 11.4664C0.621368 21.0502 -3.5906 32.9908 -3.5906 46.996H4.4094ZM15.1612 16.8133C22.5954 8.56147 32.3445 4.372 44.8014 4.372V-3.628C30.309 -3.628 18.3168 1.35852 9.21756 11.4587L15.1612 16.8133ZM44.8014 4.372C53.7713 4.372 61.7351 6.82674 68.8144 11.722L73.3644 5.14197C64.9024 -0.709419 55.3408 -3.628 44.8014 -3.628V4.372ZM68.8515 11.7474C74.7178 15.7071 79.1093 21.3402 81.9871 28.8374L89.4558 25.9706C86.0508 17.0998 80.6877 10.0849 73.3273 5.1166L68.8515 11.7474ZM84.0683 23.7616L67.9483 31.0776L71.2545 38.3624L87.3745 31.0464L84.0683 23.7616ZM69.6014 30.72H69.4774V38.72H69.6014V30.72ZM73.154 33.1443L72.038 30.5403L64.6848 33.6917L65.8008 36.2957L73.154 33.1443ZM72.0453 30.5574C69.936 25.5718 66.6727 21.5534 62.2722 18.6198L57.8346 25.2762C60.8741 27.3026 63.1495 30.0629 64.6775 33.6746L72.0453 30.5574ZM62.2888 18.6309C57.7713 15.5865 52.5978 14.104 46.9094 14.104V22.104C51.141 22.104 54.7302 23.1841 57.818 25.2651L62.2888 18.6309ZM46.9094 14.104C41.285 14.104 36.3462 14.8889 32.2814 16.6734L35.4974 23.9986C38.2113 22.8071 41.9525 22.104 46.9094 22.104V14.104ZM32.2814 16.6734C28.4294 18.3646 25.1358 20.6659 22.4842 23.6121L28.4306 28.9639C30.243 26.9501 32.5707 25.2834 35.4974 23.9986L32.2814 16.6734ZM22.4678 23.6305C17.0447 29.7315 14.5134 37.6578 14.5134 46.996H22.5134C22.5134 39.1396 24.6114 33.2605 28.447 28.9454L22.4678 23.6305ZM14.5134 46.996C14.5134 56.1963 17.0583 64.0834 22.427 70.3148L28.4878 65.0932C24.5978 60.5779 22.5134 54.6597 22.5134 46.996H14.5134ZM22.4301 70.3185C28.1325 76.9212 36.564 79.888 46.9094 79.888V71.888C38.0761 71.888 32.2063 69.3988 28.4847 65.0895L22.4301 70.3185ZM46.9094 79.888C52.7031 79.888 57.9014 78.4766 62.3068 75.4729L57.8001 68.8631C54.9307 70.8194 51.3664 71.888 46.9094 71.888V79.888ZM62.2558 75.5071C66.8095 72.5036 70.1219 68.467 72.0853 63.4604L64.6375 60.5396C63.2942 63.965 61.068 66.7071 57.851 68.8289L62.2558 75.5071ZM72.0636 63.5145L73.1796 60.7865L65.7752 57.7575L64.6592 60.4855L72.0636 63.5145ZM69.4774 63.272H69.6014V55.272H69.4774V63.272ZM67.9252 62.9038L84.0452 70.3438L87.3976 63.0802L71.2776 55.6402L67.9252 62.9038ZM82.0101 65.2198C79.0487 72.5854 74.6305 78.2709 68.7762 82.4207L73.4026 88.9473C80.6097 83.8385 85.9461 76.876 89.4327 68.2042L82.0101 65.2198ZM68.7979 82.4054C61.8157 87.2854 53.8615 89.744 44.8014 89.744V97.744C55.416 97.744 64.9871 94.8292 73.3809 88.9626L68.7979 82.4054ZM130.557 57.288H134.557V56.0347L133.842 55.0055L130.557 57.288ZM91.8691 1.61199V-2.38801H84.2187L88.5843 3.89454L91.8691 1.61199ZM113.817 1.61199L117.102 -0.670002L115.909 -2.38801H113.817V1.61199ZM139.485 38.564L136.2 40.846L139.477 45.564L142.765 40.8534L139.485 38.564ZM165.277 1.61199V-2.38801H163.191L161.997 -0.67742L165.277 1.61199ZM187.225 1.61199L190.513 3.8896L194.862 -2.38801H187.225V1.61199ZM148.661 57.288L145.373 55.0104L144.661 56.038V57.288H148.661ZM148.661 93V97H152.661V93H148.661ZM130.557 93H126.557V97H130.557V93ZM133.842 55.0055L95.1539 -0.670549L88.5843 3.89454L127.272 59.5705L133.842 55.0055ZM91.8691 5.61199H113.817V-2.38801H91.8691V5.61199ZM110.532 3.89399L136.2 40.846L142.77 36.282L117.102 -0.670002L110.532 3.89399ZM142.765 40.8534L168.557 3.90141L161.997 -0.67742L136.205 36.2746L142.765 40.8534ZM165.277 5.61199H187.225V-2.38801H165.277V5.61199ZM183.937 -0.665607L145.373 55.0104L151.949 59.5656L190.513 3.8896L183.937 -0.665607ZM144.661 57.288V93H152.661V57.288H144.661ZM148.661 89H130.557V97H148.661V89ZM134.557 93V57.288H126.557V93H134.557ZM198.422 1.61199V-2.38801H194.422V1.61199H198.422ZM263.398 10.168L260.528 12.9545L260.549 12.9756L260.569 12.9964L263.398 10.168ZM263.522 45.756L260.746 42.8757L257.182 46.3104L261.288 49.0743L263.522 45.756ZM272.822 57.164L269.113 58.6608L269.134 58.7143L269.157 58.7673L272.822 57.164ZM269.722 82.088L266.568 79.6279L266.561 79.6367L269.722 82.088ZM255.71 91.016L254.537 87.1918L254.453 87.2176L254.37 87.2471L255.71 91.016ZM198.422 93H194.422V97H198.422V93ZM251.37 33.108L247.792 31.3191L247.776 31.352L247.76 31.3851L251.37 33.108ZM251.618 24.924L247.885 26.3599L247.927 26.4709L247.976 26.5792L251.618 24.924ZM249.882 22.196L246.996 24.9661L247.025 24.9956L247.053 25.0244L249.882 22.196ZM216.526 19.096V15.096H212.526V19.096H216.526ZM216.526 38.564H212.526V42.564H216.526V38.564ZM253.602 72.788L251.202 69.588L251.174 69.6091L251.146 69.6306L253.602 72.788ZM253.478 59.148L250.802 62.1212L250.819 62.1361L250.835 62.1509L253.478 59.148ZM216.526 55.8V51.8H212.526V55.8H216.526ZM216.526 75.392H212.526V79.392H216.526V75.392ZM198.422 5.61199H239.838V-2.38801H198.422V5.61199ZM239.838 5.61199C249.242 5.61199 255.939 8.22782 260.528 12.9545L266.268 7.38146C259.78 0.700169 250.77 -2.38801 239.838 -2.38801V5.61199ZM260.569 12.9964C264.38 16.8074 266.342 21.627 266.342 27.776H274.342C274.342 19.7063 271.674 12.7872 266.226 7.33957L260.569 12.9964ZM266.342 27.776C266.342 34.5337 264.354 39.3994 260.746 42.8757L266.297 48.6363C271.783 43.3499 274.342 36.229 274.342 27.776H266.342ZM261.288 49.0743C264.938 51.5309 267.516 54.7052 269.113 58.6608L276.531 55.6672C274.325 50.1988 270.703 45.7677 265.755 42.4376L261.288 49.0743ZM269.157 58.7673C270.031 60.7646 270.558 63.4463 270.558 66.96H278.558C278.558 62.703 277.927 58.8541 276.487 55.5607L269.157 58.7673ZM270.558 66.96C270.558 72.1475 269.17 76.2913 266.568 79.6279L272.876 84.5481C276.721 79.618 278.558 73.6765 278.558 66.96H270.558ZM266.561 79.6367C264.045 82.8815 260.159 85.4679 254.537 87.1918L256.883 94.8402C263.661 92.7615 269.117 89.3958 272.883 84.5393L266.561 79.6367ZM254.37 87.2471C251.21 88.3707 247.107 89 241.946 89V97C247.697 97 252.77 96.3066 257.05 94.7849L254.37 87.2471ZM241.946 89H198.422V97H241.946V89ZM202.422 93V1.61199H194.422V93H202.422ZM239.838 42.564C246.498 42.564 252.284 40.4797 254.98 34.8309L247.76 31.3851C246.984 33.011 245.081 34.564 239.838 34.564V42.564ZM254.948 34.8968C255.843 33.1062 256.238 31.1556 256.238 29.14H248.238C248.238 30.1004 248.054 30.7951 247.792 31.3191L254.948 34.8968ZM256.238 29.14C256.238 27.0917 256.037 24.9801 255.259 23.2688L247.976 26.5792C247.973 26.5714 247.994 26.6166 248.025 26.7339C248.056 26.8499 248.092 27.0162 248.125 27.242C248.193 27.7 248.238 28.3234 248.238 29.14H256.238ZM255.351 23.4881C254.756 21.9408 253.886 20.5433 252.71 19.3676L247.053 25.0244C247.366 25.3367 247.653 25.7579 247.885 26.3599L255.351 23.4881ZM252.767 19.4259C249.762 16.2947 245.511 15.096 240.83 15.096V23.096C244.25 23.096 246.034 23.9639 246.996 24.9661L252.767 19.4259ZM240.83 15.096H216.526V23.096H240.83V15.096ZM212.526 19.096V38.564H220.526V19.096H212.526ZM216.526 42.564H239.838V34.564H216.526V42.564ZM243.062 79.392C248.185 79.392 252.782 78.4935 256.058 75.9454L251.146 69.6306C249.958 70.5545 247.528 71.392 243.062 71.392V79.392ZM256.002 75.988C259.169 73.6124 260.578 70.1304 260.578 66.216H252.578C252.578 68.0883 252.002 68.9876 251.202 69.588L256.002 75.988ZM260.578 66.216C260.578 62.2398 259.099 58.7661 256.12 56.1451L250.835 62.1509C251.99 63.1672 252.578 64.4056 252.578 66.216H260.578ZM256.154 56.1748C252.623 52.9967 247.611 51.8 241.946 51.8V59.8C246.697 59.8 249.373 60.8353 250.802 62.1212L256.154 56.1748ZM241.946 51.8H216.526V59.8H241.946V51.8ZM212.526 55.8V75.392H220.526V55.8H212.526ZM216.526 79.392H243.062V71.392H216.526V79.392ZM290.104 1.61199V-2.38801H286.104V1.61199H290.104ZM359.668 1.61199H363.668V-2.38801H359.668V1.61199ZM359.668 19.22V23.22H363.668V19.22H359.668ZM308.208 19.22V15.22H304.208V19.22H308.208ZM308.208 38.316H304.208V42.316H308.208V38.316ZM345.532 38.316H349.532V34.316H345.532V38.316ZM345.532 56.172V60.172H349.532V56.172H345.532ZM308.208 56.172V52.172H304.208V56.172H308.208ZM308.208 75.268H304.208V79.268H308.208V75.268ZM359.668 75.268H363.668V71.268H359.668V75.268ZM359.668 93V97H363.668V93H359.668ZM290.104 93H286.104V97H290.104V93ZM290.104 5.61199H359.668V-2.38801H290.104V5.61199ZM355.668 1.61199V19.22H363.668V1.61199H355.668ZM359.668 15.22H308.208V23.22H359.668V15.22ZM304.208 19.22V38.316H312.208V19.22H304.208ZM308.208 42.316H345.532V34.316H308.208V42.316ZM341.532 38.316V56.172H349.532V38.316H341.532ZM345.532 52.172H308.208V60.172H345.532V52.172ZM304.208 56.172V75.268H312.208V56.172H304.208ZM308.208 79.268H359.668V71.268H308.208V79.268ZM355.668 75.268V93H363.668V75.268H355.668ZM359.668 89H290.104V97H359.668V89ZM294.104 93V1.61199H286.104V93H294.104ZM375.127 1.61199V-2.38801H371.127V1.61199H375.127ZM442.335 9.67199L445.038 6.72338L445.016 6.70384L444.995 6.68461L442.335 9.67199ZM447.295 47.244L443.888 45.1476L443.882 45.157L443.877 45.1663L447.295 47.244ZM435.887 56.916L437.27 60.6694L437.389 60.6253L437.506 60.5737L435.887 56.916ZM433.531 57.784L432.148 54.0306L427.621 55.6986L430.099 59.8384L433.531 57.784ZM454.611 93V97H461.667L458.043 90.9456L454.611 93ZM433.283 93L429.814 94.9918L430.967 97H433.283V93ZM415.055 61.256L418.524 59.2642L417.37 57.256H415.055V61.256ZM393.231 61.256V57.256H389.231V61.256H393.231ZM393.231 93V97H397.231V93H393.231ZM375.127 93H371.127V97H375.127V93ZM432.043 37.572L435.423 39.7106L435.484 39.6142L435.539 39.5146L432.043 37.572ZM429.439 22.692L432.066 19.6757L432.029 19.6433L431.991 19.6119L429.439 22.692ZM393.231 19.096V15.096H389.231V19.096H393.231ZM393.231 43.648H389.231V47.648H393.231V43.648ZM375.127 5.61199H419.147V-2.38801H375.127V5.61199ZM419.147 5.61199C427.763 5.61199 434.492 8.04489 439.675 12.6594L444.995 6.68461C438.108 0.552427 429.378 -2.38801 419.147 -2.38801V5.61199ZM439.632 12.6206C444.633 17.2047 447.263 23.4255 447.263 31.744H455.263C455.263 21.5451 451.941 13.0513 445.038 6.72338L439.632 12.6206ZM447.263 31.744C447.263 37.1844 446.076 41.5931 443.888 45.1476L450.701 49.3404C453.805 44.2976 455.263 38.373 455.263 31.744H447.263ZM443.877 45.1663C441.788 48.6033 438.655 51.3164 434.268 53.2583L437.506 60.5737C443.204 58.0516 447.677 54.3167 450.713 49.3217L443.877 45.1663ZM434.504 53.1626L432.148 54.0306L434.914 61.5374L437.27 60.6694L434.504 53.1626ZM430.099 59.8384L451.179 95.0544L458.043 90.9456L436.963 55.7296L430.099 59.8384ZM454.611 89H433.283V97H454.611V89ZM436.752 91.0082L418.524 59.2642L411.586 63.2478L429.814 94.9918L436.752 91.0082ZM415.055 57.256H393.231V65.256H415.055V57.256ZM389.231 61.256V93H397.231V61.256H389.231ZM393.231 89H375.127V97H393.231V89ZM379.127 93V1.61199H371.127V93H379.127ZM417.411 47.648C425.241 47.648 431.806 45.4276 435.423 39.7106L428.662 35.4334C427.154 37.8178 423.965 39.648 417.411 39.648V47.648ZM435.539 39.5146C436.804 37.2388 437.283 34.5588 437.283 31.744H429.283C429.283 33.7239 428.935 34.9291 428.546 35.6294L435.539 39.5146ZM437.283 31.744C437.283 26.9386 435.61 22.7629 432.066 19.6757L426.812 25.7083C428.392 27.0851 429.283 28.9441 429.283 31.744H437.283ZM431.991 19.6119C428.201 16.4716 423.371 15.096 417.907 15.096V23.096C422.032 23.096 424.89 24.1177 426.887 25.7721L431.991 19.6119ZM417.907 15.096H393.231V23.096H417.907V15.096ZM389.231 19.096V43.648H397.231V19.096H389.231ZM393.231 47.648H417.411V39.648H393.231V47.648ZM508.519 79.98L511.517 77.3326L511.51 77.3243L508.519 79.98ZM508.519 14.136L505.547 11.4586L505.54 11.4664L508.519 14.136ZM567.419 8.432L565.144 11.722L565.162 11.7348L565.181 11.7474L567.419 8.432ZM582.051 27.404L583.704 31.0464L587.136 29.4889L585.785 25.9706L582.051 27.404ZM565.931 34.72V38.72H566.796L567.584 38.3624L565.931 34.72ZM565.807 34.72L562.13 36.2957L563.169 38.72H565.807V34.72ZM564.691 32.116L561.007 33.6746L561.011 33.6831L561.014 33.6917L564.691 32.116ZM556.383 21.948L554.147 25.2651L554.156 25.2707L554.164 25.2762L556.383 21.948ZM530.219 20.336L528.611 16.6734L530.219 20.336ZM521.787 26.288L518.814 23.6121L518.805 23.6213L518.797 23.6305L521.787 26.288ZM521.787 67.704L518.756 70.3148L518.759 70.3185L521.787 67.704ZM556.383 72.168L554.18 68.8289L554.155 68.8458L554.129 68.8631L556.383 72.168ZM564.691 62L560.989 60.4855L560.978 60.5125L560.967 60.5396L564.691 62ZM565.807 59.272V55.272H563.121L562.105 57.7575L565.807 59.272ZM565.931 59.272L567.607 55.6402L566.809 55.272H565.931V59.272ZM582.051 66.712L585.762 68.2042L587.181 64.6744L583.727 63.0802L582.051 66.712ZM567.419 85.684L569.71 88.9626L569.721 88.955L569.732 88.9473L567.419 85.684ZM541.131 89.744C528.492 89.744 518.768 85.5445 511.517 77.3326L505.52 82.6274C514.473 92.7675 526.49 97.744 541.131 97.744V89.744ZM511.51 77.3243C504.38 69.294 500.739 59.2783 500.739 46.996H492.739C492.739 61.0017 496.951 72.9753 505.528 82.6357L511.51 77.3243ZM500.739 46.996C500.739 34.7132 504.38 24.7472 511.498 16.8056L505.54 11.4664C496.951 21.0502 492.739 32.9908 492.739 46.996H500.739ZM511.491 16.8133C518.925 8.56147 528.674 4.372 541.131 4.372V-3.628C526.638 -3.628 514.646 1.35852 505.547 11.4587L511.491 16.8133ZM541.131 4.372C550.101 4.372 558.064 6.82674 565.144 11.722L569.694 5.14197C561.232 -0.709419 551.67 -3.628 541.131 -3.628V4.372ZM565.181 11.7474C571.047 15.7071 575.439 21.3402 578.316 28.8374L585.785 25.9706C582.38 17.0998 577.017 10.0849 569.657 5.1166L565.181 11.7474ZM580.398 23.7616L564.278 31.0776L567.584 38.3624L583.704 31.0464L580.398 23.7616ZM565.931 30.72H565.807V38.72H565.931V30.72ZM569.483 33.1443L568.367 30.5403L561.014 33.6917L562.13 36.2957L569.483 33.1443ZM568.375 30.5574C566.265 25.5718 563.002 21.5534 558.602 18.6198L554.164 25.2762C557.203 27.3026 559.479 30.0629 561.007 33.6746L568.375 30.5574ZM558.618 18.6309C554.101 15.5865 548.927 14.104 543.239 14.104V22.104C547.47 22.104 551.06 23.1841 554.147 25.2651L558.618 18.6309ZM543.239 14.104C537.614 14.104 532.676 14.8889 528.611 16.6734L531.827 23.9986C534.541 22.8071 538.282 22.104 543.239 22.104V14.104ZM528.611 16.6734C524.759 18.3646 521.465 20.6659 518.814 23.6121L524.76 28.9639C526.572 26.9501 528.9 25.2834 531.827 23.9986L528.611 16.6734ZM518.797 23.6305C513.374 29.7315 510.843 37.6578 510.843 46.996H518.843C518.843 39.1396 520.941 33.2605 524.776 28.9454L518.797 23.6305ZM510.843 46.996C510.843 56.1963 513.388 64.0834 518.756 70.3148L524.817 65.0932C520.927 60.5779 518.843 54.6597 518.843 46.996H510.843ZM518.759 70.3185C524.462 76.9212 532.893 79.888 543.239 79.888V71.888C534.406 71.888 528.536 69.3988 524.814 65.0895L518.759 70.3185ZM543.239 79.888C549.032 79.888 554.231 78.4766 558.636 75.4729L554.129 68.8631C551.26 70.8194 547.696 71.888 543.239 71.888V79.888ZM558.585 75.5071C563.139 72.5036 566.451 68.467 568.415 63.4604L560.967 60.5396C559.624 63.965 557.397 66.7071 554.18 68.8289L558.585 75.5071ZM568.393 63.5145L569.509 60.7865L562.105 57.7575L560.989 60.4855L568.393 63.5145ZM565.807 63.272H565.931V55.272H565.807V63.272ZM564.255 62.9038L580.375 70.3438L583.727 63.0802L567.607 55.6402L564.255 62.9038ZM578.34 65.2198C575.378 72.5854 570.96 78.2709 565.106 82.4207L569.732 88.9473C576.939 83.8385 582.275 76.876 585.762 68.2042L578.34 65.2198ZM565.127 82.4054C558.145 87.2854 550.191 89.744 541.131 89.744V97.744C551.745 97.744 561.316 94.8292 569.71 88.9626L565.127 82.4054ZM626.886 57.288H630.886V56.0347L630.171 55.0055L626.886 57.288ZM588.198 1.61199V-2.38801H580.548L584.914 3.89454L588.198 1.61199ZM610.146 1.61199L613.432 -0.670002L612.238 -2.38801H610.146V1.61199ZM635.815 38.564L632.529 40.846L635.807 45.564L639.095 40.8534L635.815 38.564ZM661.607 1.61199V-2.38801H659.52L658.326 -0.67742L661.607 1.61199ZM683.555 1.61199L686.843 3.8896L691.191 -2.38801H683.555V1.61199ZM644.99 57.288L641.702 55.0104L640.99 56.038V57.288H644.99ZM644.99 93V97H648.99V93H644.99ZM626.886 93H622.886V97H626.886V93ZM630.171 55.0055L591.483 -0.670549L584.914 3.89454L623.602 59.5705L630.171 55.0055ZM588.198 5.61199H610.146V-2.38801H588.198V5.61199ZM606.861 3.89399L632.529 40.846L639.1 36.282L613.432 -0.670002L606.861 3.89399ZM639.095 40.8534L664.887 3.90141L658.326 -0.67742L632.534 36.2746L639.095 40.8534ZM661.607 5.61199H683.555V-2.38801H661.607V5.61199ZM680.266 -0.665607L641.702 55.0104L648.279 59.5656L686.843 3.8896L680.266 -0.665607ZM640.99 57.288V93H648.99V57.288H640.99ZM644.99 89H626.886V97H644.99V89ZM630.886 93V57.288H622.886V93H630.886ZM694.751 1.61199V-2.38801H690.751V1.61199H694.751ZM760.223 10.044L762.948 7.11572L762.939 7.10718L762.93 7.09869L760.223 10.044ZM760.099 55.18L762.804 58.1269L762.826 58.1071L762.847 58.0869L760.099 55.18ZM712.855 63.488V59.488H708.855V63.488H712.855ZM712.855 93V97H716.855V93H712.855ZM694.751 93H690.751V97H694.751V93ZM747.451 42.532L750.184 45.4531L750.208 45.4307L750.231 45.408L747.451 42.532ZM747.451 22.692L744.719 25.6131L744.722 25.6162L747.451 22.692ZM712.855 19.096V15.096H708.855V19.096H712.855ZM712.855 46.128H708.855V50.128H712.855V46.128ZM694.751 5.61199H736.291V-2.38801H694.751V5.61199ZM736.291 5.61199C745.322 5.61199 752.27 8.16805 757.517 12.9893L762.93 7.09869C755.942 0.677279 746.935 -2.38801 736.291 -2.38801V5.61199ZM757.498 12.9723C762.506 17.6318 765.151 23.9814 765.151 32.488H773.151C773.151 22.1466 769.845 13.5335 762.948 7.11572L757.498 12.9723ZM765.151 32.488C765.151 40.9751 762.476 47.4298 757.352 52.273L762.847 58.0869C769.792 51.5222 773.151 42.8489 773.151 32.488H765.151ZM757.395 52.2331C752.241 56.9632 745.34 59.488 736.291 59.488V67.488C746.918 67.488 755.888 64.4741 762.804 58.1269L757.395 52.2331ZM736.291 59.488H712.855V67.488H736.291V59.488ZM708.855 63.488V93H716.855V63.488H708.855ZM712.855 89H694.751V97H712.855V89ZM698.751 93V1.61199H690.751V93H698.751ZM735.671 50.128C741.474 50.128 746.58 48.8242 750.184 45.4531L744.719 39.6109C743.197 41.0344 740.45 42.128 735.671 42.128V50.128ZM750.231 45.408C753.659 42.0948 755.171 37.6545 755.171 32.612H747.171C747.171 36.0015 746.204 38.1745 744.671 39.656L750.231 45.408ZM755.171 32.612C755.171 27.5195 753.676 23.0299 750.181 19.7678L744.722 25.6162C746.187 26.9834 747.171 29.1072 747.171 32.612H755.171ZM750.184 19.7709C746.58 16.3998 741.474 15.096 735.671 15.096V23.096C740.45 23.096 743.197 24.1896 744.719 25.6131L750.184 19.7709ZM735.671 15.096H712.855V23.096H735.671V15.096ZM708.855 19.096V46.128H716.855V19.096H708.855ZM712.855 50.128H735.671V42.128H712.855V50.128ZM782.195 1.61199V-2.38801H778.195V1.61199H782.195ZM800.299 1.61199H804.299V-2.38801H800.299V1.61199ZM800.299 38.316H796.299V42.316H800.299V38.316ZM839.732 38.316V42.316H843.732V38.316H839.732ZM839.732 1.61199V-2.38801H835.732V1.61199H839.732ZM857.711 1.61199H861.711V-2.38801H857.711V1.61199ZM857.711 93V97H861.711V93H857.711ZM839.732 93H835.732V97H839.732V93ZM839.732 56.172H843.732V52.172H839.732V56.172ZM800.299 56.172V52.172H796.299V56.172H800.299ZM800.299 93V97H804.299V93H800.299ZM782.195 93H778.195V97H782.195V93ZM782.195 5.61199H800.299V-2.38801H782.195V5.61199ZM796.299 1.61199V38.316H804.299V1.61199H796.299ZM800.299 42.316H839.732V34.316H800.299V42.316ZM843.732 38.316V1.61199H835.732V38.316H843.732ZM839.732 5.61199H857.711V-2.38801H839.732V5.61199ZM853.711 1.61199V93H861.711V1.61199H853.711ZM857.711 89H839.732V97H857.711V89ZM843.732 93V56.172H835.732V93H843.732ZM839.732 52.172H800.299V60.172H839.732V52.172ZM796.299 56.172V93H804.299V56.172H796.299ZM800.299 89H782.195V97H800.299V89ZM786.195 93V1.61199H778.195V93H786.195ZM878.116 1.61199V-2.38801H874.116V1.61199H878.116ZM947.68 1.61199H951.68V-2.38801H947.68V1.61199ZM947.68 19.22V23.22H951.68V19.22H947.68ZM896.22 19.22V15.22H892.22V19.22H896.22ZM896.22 38.316H892.22V42.316H896.22V38.316ZM933.544 38.316H937.544V34.316H933.544V38.316ZM933.544 56.172V60.172H937.544V56.172H933.544ZM896.22 56.172V52.172H892.22V56.172H896.22ZM896.22 75.268H892.22V79.268H896.22V75.268ZM947.68 75.268H951.68V71.268H947.68V75.268ZM947.68 93V97H951.68V93H947.68ZM878.116 93H874.116V97H878.116V93ZM878.116 5.61199H947.68V-2.38801H878.116V5.61199ZM943.68 1.61199V19.22H951.68V1.61199H943.68ZM947.68 15.22H896.22V23.22H947.68V15.22ZM892.22 19.22V38.316H900.22V19.22H892.22ZM896.22 42.316H933.544V34.316H896.22V42.316ZM929.544 38.316V56.172H937.544V38.316H929.544ZM933.544 52.172H896.22V60.172H933.544V52.172ZM892.22 56.172V75.268H900.22V56.172H892.22ZM896.22 79.268H947.68V71.268H896.22V79.268ZM943.68 75.268V93H951.68V75.268H943.68ZM947.68 89H878.116V97H947.68V89ZM882.116 93V1.61199H874.116V93H882.116ZM963.139 1.61199V-2.38801H959.139V1.61199H963.139ZM1030.35 9.67199L1033.05 6.72338L1033.03 6.70384L1033.01 6.68461L1030.35 9.67199ZM1035.31 47.244L1031.9 45.1476L1031.89 45.157L1031.89 45.1663L1035.31 47.244ZM1023.9 56.916L1025.28 60.6694L1025.4 60.6253L1025.52 60.5737L1023.9 56.916ZM1021.54 57.784L1020.16 54.0306L1015.63 55.6986L1018.11 59.8384L1021.54 57.784ZM1042.62 93V97H1049.68L1046.05 90.9456L1042.62 93ZM1021.29 93L1017.83 94.9918L1018.98 97H1021.29V93ZM1003.07 61.256L1006.54 59.2642L1005.38 57.256H1003.07V61.256ZM981.243 61.256V57.256H977.243V61.256H981.243ZM981.243 93V97H985.243V93H981.243ZM963.139 93H959.139V97H963.139V93ZM1020.05 37.572L1023.43 39.7106L1023.5 39.6142L1023.55 39.5146L1020.05 37.572ZM1017.45 22.692L1020.08 19.6757L1020.04 19.6433L1020 19.6119L1017.45 22.692ZM981.243 19.096V15.096H977.243V19.096H981.243ZM981.243 43.648H977.243V47.648H981.243V43.648ZM963.139 5.61199H1007.16V-2.38801H963.139V5.61199ZM1007.16 5.61199C1015.77 5.61199 1022.5 8.04489 1027.69 12.6594L1033.01 6.68461C1026.12 0.552427 1017.39 -2.38801 1007.16 -2.38801V5.61199ZM1027.64 12.6206C1032.64 17.2047 1035.27 23.4255 1035.27 31.744H1043.27C1043.27 21.5451 1039.95 13.0513 1033.05 6.72338L1027.64 12.6206ZM1035.27 31.744C1035.27 37.1844 1034.09 41.5931 1031.9 45.1476L1038.71 49.3404C1041.82 44.2976 1043.27 38.373 1043.27 31.744H1035.27ZM1031.89 45.1663C1029.8 48.6033 1026.67 51.3164 1022.28 53.2583L1025.52 60.5737C1031.22 58.0516 1035.69 54.3167 1038.72 49.3217L1031.89 45.1663ZM1022.52 53.1626L1020.16 54.0306L1022.93 61.5374L1025.28 60.6694L1022.52 53.1626ZM1018.11 59.8384L1039.19 95.0544L1046.05 90.9456L1024.97 55.7296L1018.11 59.8384ZM1042.62 89H1021.29V97H1042.62V89ZM1024.76 91.0082L1006.54 59.2642L999.598 63.2478L1017.83 94.9918L1024.76 91.0082ZM1003.07 57.256H981.243V65.256H1003.07V57.256ZM977.243 61.256V93H985.243V61.256H977.243ZM981.243 89H963.139V97H981.243V89ZM967.139 93V1.61199H959.139V93H967.139ZM1005.42 47.648C1013.25 47.648 1019.82 45.4276 1023.43 39.7106L1016.67 35.4334C1015.17 37.8178 1011.98 39.648 1005.42 39.648V47.648ZM1023.55 39.5146C1024.82 37.2388 1025.29 34.5588 1025.29 31.744H1017.29C1017.29 33.7239 1016.95 34.9291 1016.56 35.6294L1023.55 39.5146ZM1025.29 31.744C1025.29 26.9386 1023.62 22.7629 1020.08 19.6757L1014.82 25.7083C1016.4 27.0851 1017.29 28.9441 1017.29 31.744H1025.29ZM1020 19.6119C1016.21 16.4716 1011.38 15.096 1005.92 15.096V23.096C1010.04 23.096 1012.9 24.1177 1014.9 25.7721L1020 19.6119ZM1005.92 15.096H981.243V23.096H1005.92V15.096ZM977.243 19.096V43.648H985.243V19.096H977.243ZM981.243 47.648H1005.42V39.648H981.243V47.648Z" fill="black" fill-opacity="0.3"/>
<defs>
<linearGradient id="paint0_linear_269_1796" x1="3.25523" y1="43" x2="633.7" y2="-468.071" gradientUnits="userSpaceOnUse">
<stop stop-color="#F24D56"/>
<stop offset="0.509216" stop-color="#EE0C77"/>
<stop offset="0.964829" stop-color="#F24D56"/>
</linearGradient>
</defs>
</svg>
