<svg width="860" height="115" viewBox="0 0 860 115" fill="none" xmlns="http://www.w3.org/2000/svg">
<path d="M81.651 105.05L79.365 101.768L79.3613 101.77L81.651 105.05ZM81.201 56.3L83.3369 52.918L83.329 52.913L83.321 52.908L81.201 56.3ZM69.051 50.45L67.747 54.2315L67.7665 54.2382L67.7861 54.2447L69.051 50.45ZM56.001 46.7L57.0647 42.844L56.001 46.7ZM43.401 43.7L42.3611 47.5625L42.3791 47.5673L42.3971 47.572L43.401 43.7ZM33.051 40.4L31.528 44.0987L31.5467 44.1064L31.5654 44.1139L33.051 40.4ZM26.901 36.65L24.0726 39.4784H24.0726L26.901 36.65ZM26.301 29.45L30.0957 30.7149L30.1443 30.5692L30.1815 30.4201L26.301 29.45ZM28.551 26.15L26.0522 23.0265L25.9833 23.0816L25.917 23.1397L28.551 26.15ZM34.851 23L36.1159 26.7947L36.1442 26.7853L36.1724 26.7754L34.851 23ZM57.501 22.85L58.661 19.0219L58.6504 19.0187L57.501 22.85ZM69.651 34.85L65.6795 35.3266L65.6816 35.3442L65.6839 35.3619L69.651 34.85ZM70.251 39.5L66.2839 40.0119L66.734 43.5H70.251V39.5ZM92.151 39.5V43.5H96.373L96.1451 39.2841L92.151 39.5ZM91.851 33.95L87.8554 34.1373L87.856 34.1516L87.8568 34.1659L91.851 33.95ZM79.851 10.4L77.296 13.4776L77.3087 13.4882L77.3215 13.4986L79.851 10.4ZM15.351 9.34999L12.8286 6.24554L12.8216 6.25121L12.8147 6.25692L15.351 9.34999ZM10.701 50.75L13.5843 47.9776L13.5336 47.9249L13.4811 47.874L10.701 50.75ZM25.101 60.05L23.6323 63.7706L23.6417 63.7743L23.6512 63.778L25.101 60.05ZM42.351 65.45L43.2504 61.5524L43.2295 61.5476L43.2086 61.543L42.351 65.45ZM58.551 69.5L57.3909 73.3281L57.4016 73.3313L58.551 69.5ZM69.801 74.6L67.5071 77.8769L67.5156 77.8829L67.5241 77.8888L69.801 74.6ZM30.651 88.25L32.6595 84.7908L30.651 88.25ZM23.301 76.7L27.2941 76.4651L27.2937 76.458L23.301 76.7ZM23.001 71.75L26.9937 71.508L26.7659 67.75H23.001V71.75ZM0.500977 71.75V67.75H-3.93026L-3.47815 72.1581L0.500977 71.75ZM1.10098 77.6L-2.87815 78.0081L-2.87703 78.019L-2.87585 78.0299L1.10098 77.6ZM14.151 103.55L11.6447 106.668L11.6522 106.673L14.151 103.55ZM49.551 117.45C63.4295 117.45 75.115 114.491 83.9407 108.33L79.3613 101.77C72.287 106.709 62.3725 109.45 49.551 109.45V117.45ZM83.937 108.332C93.5128 101.664 98.401 91.6793 98.401 79.25H90.401C90.401 89.3207 86.5892 96.7365 79.365 101.768L83.937 108.332ZM98.401 79.25C98.401 68.1574 92.942 58.9844 83.3369 52.918L79.065 59.682C86.56 64.4156 90.401 71.1426 90.401 79.25H98.401ZM83.321 52.908C79.5308 50.5392 75.192 48.2806 70.3159 46.6553L67.7861 54.2447C71.9099 55.6193 75.6711 57.5608 79.081 59.692L83.321 52.908ZM70.3549 46.6685C65.8463 45.1138 61.253 43.9994 57.0647 42.844L54.9373 50.556C59.449 51.8006 63.5556 52.7862 67.747 54.2315L70.3549 46.6685ZM57.0647 42.844C54.7857 42.2153 52.5636 41.7094 50.4599 41.2398C48.3284 40.764 46.3474 40.3316 44.4048 39.828L42.3971 47.572C44.5046 48.1184 46.6486 48.586 48.7171 49.0477C50.8134 49.5156 52.8663 49.9847 54.9373 50.556L57.0647 42.844ZM44.4409 39.8375C40.5959 38.8023 37.321 37.7999 34.5365 36.6861L31.5654 44.1139C34.7809 45.4001 38.4061 46.4977 42.3611 47.5625L44.4409 39.8375ZM34.574 36.7013C32.2446 35.7421 30.6948 34.787 29.7294 33.8216L24.0726 39.4784C26.1071 41.513 28.7573 42.9579 31.528 44.0987L34.574 36.7013ZM29.7294 33.8216C29.3043 33.3964 29.3113 33.2822 29.3963 33.4806C29.4427 33.5889 29.4926 33.7446 29.5231 33.9379C29.5377 34.0303 29.545 34.1133 29.5485 34.1808C29.5515 34.2413 29.551 34.2883 29.551 34.25H21.551C21.551 34.6643 21.5737 35.5365 22.0431 36.6319C22.4657 37.6178 23.1477 38.5536 24.0726 39.4784L29.7294 33.8216ZM29.551 34.25C29.551 32.8826 29.7808 31.6596 30.0957 30.7149L22.5062 28.1851C21.9211 29.9404 21.551 32.0174 21.551 34.25H29.551ZM30.1815 30.4201C30.2155 30.2845 30.3459 29.8945 31.185 29.1603L25.917 23.1397C24.3561 24.5055 22.9865 26.2155 22.4204 28.4799L30.1815 30.4201ZM31.0498 29.2735C32.0491 28.474 33.6685 27.6105 36.1159 26.7947L33.5861 19.2053C30.6334 20.1895 28.0528 21.426 26.0522 23.0265L31.0498 29.2735ZM36.1724 26.7754C38.5712 25.9358 41.8154 25.5 46.101 25.5V17.5C41.3866 17.5 37.1308 17.9641 33.5296 19.2246L36.1724 26.7754ZM46.101 25.5C50.381 25.5 53.8578 25.9332 56.3516 26.6813L58.6504 19.0187C55.1441 17.9668 50.821 17.5 46.101 17.5V25.5ZM56.341 26.6781C60.7351 28.0097 62.8924 29.7027 64.0095 31.084C65.1156 32.4517 65.5068 33.8874 65.6795 35.3266L73.6225 34.3734C73.3452 32.0626 72.6114 28.9982 70.23 26.0535C67.8595 23.1223 64.1669 20.6903 58.661 19.0219L56.341 26.6781ZM65.6839 35.3619L66.2839 40.0119L74.2181 38.9881L73.6181 34.3381L65.6839 35.3619ZM70.251 43.5H92.151V35.5H70.251V43.5ZM96.1451 39.2841L95.8452 33.7341L87.8568 34.1659L88.1568 39.7159L96.1451 39.2841ZM95.8466 33.7627C95.3411 22.979 90.5715 13.9879 82.3805 7.30135L77.3215 13.4986C83.8304 18.8121 87.4609 25.721 87.8554 34.1373L95.8466 33.7627ZM82.406 7.32236C73.5177 -0.0566463 61.4009 -3.50001 47.001 -3.50001V4.49999C60.2011 4.49999 70.2843 7.65663 77.296 13.4776L82.406 7.32236ZM47.001 -3.50001C32.7038 -3.50001 21.0115 -0.403088 12.8286 6.24554L17.8733 12.4544C24.0904 7.40308 33.6982 4.49999 47.001 4.49999V-3.50001ZM12.8147 6.25692C4.36611 13.1847 0.100977 22.4306 0.100977 33.35H8.10098C8.10098 24.7694 11.3358 17.8153 17.8873 12.4431L12.8147 6.25692ZM0.100977 33.35C0.100977 41.372 2.47085 48.3576 7.92089 53.6259L13.4811 47.874C9.9311 44.4424 8.10098 39.728 8.10098 33.35H0.100977ZM7.81765 53.5224C12.0336 57.907 17.4975 61.349 23.6323 63.7706L26.5696 56.3294C21.3045 54.251 16.8684 51.393 13.5843 47.9776L7.81765 53.5224ZM23.6512 63.778C29.1529 65.9176 35.0648 67.9458 41.4934 69.357L43.2086 61.543C37.3372 60.2542 31.849 58.3824 26.5508 56.322L23.6512 63.778ZM41.4515 69.3476C47.3663 70.7125 52.6029 71.8772 57.3909 73.3281L59.711 65.6719C54.5991 64.1228 49.0356 62.8875 43.2504 61.5524L41.4515 69.3476ZM57.4016 73.3313C61.6519 74.6064 64.9706 76.1014 67.5071 77.8769L72.0948 71.3231C68.6314 68.8986 64.4501 67.0936 59.7004 65.6687L57.4016 73.3313ZM67.5241 77.8888C68.1185 78.3002 68.2683 78.5496 68.3205 78.6517C68.3783 78.7648 68.501 79.0641 68.501 79.85H76.501C76.501 78.2359 76.2486 76.5852 75.444 75.0108C74.6336 73.4254 73.4335 72.2498 72.0778 71.3112L67.5241 77.8888ZM68.501 79.85C68.501 81.363 68.4529 82.8829 66.9203 84.3146C65.1868 85.934 60.7565 88.15 49.701 88.15V96.15C61.4454 96.15 68.4151 93.866 72.3816 90.1604C76.5491 86.2671 76.501 81.637 76.501 79.85H68.501ZM49.701 88.15C41.9078 88.15 36.4284 86.9792 32.6595 84.7908L28.6424 91.7092C34.1735 94.9208 41.2941 96.15 49.701 96.15V88.15ZM32.6595 84.7908C29.087 82.7165 27.5098 80.1325 27.2941 76.4651L19.3079 76.9349C19.6922 83.4675 22.9149 88.3835 28.6424 91.7092L32.6595 84.7908ZM27.2937 76.458L26.9937 71.508L19.0083 71.992L19.3083 76.942L27.2937 76.458ZM23.001 67.75H0.500977V75.75H23.001V67.75ZM-3.47815 72.1581L-2.87815 78.0081L5.0801 77.1919L4.4801 71.3419L-3.47815 72.1581ZM-2.87585 78.0299C-1.58691 89.9526 3.00108 99.7187 11.6447 106.667L16.6572 100.432C10.0009 95.0813 6.18887 87.4474 5.0778 77.1701L-2.87585 78.0299ZM11.6522 106.673C20.8743 114.051 33.899 117.45 49.551 117.45V109.45C34.903 109.45 23.9276 106.249 16.6498 100.427L11.6522 106.673ZM194.089 104.15L196.383 107.427L196.391 107.421L194.089 104.15ZM211.789 81.2L215.507 82.6754L216.904 79.1552L213.465 77.5682L211.789 81.2ZM192.289 72.2L193.965 68.5682L193.167 68.2H192.289V72.2ZM192.139 72.2V68.2H189.453L188.437 70.6855L192.139 72.2ZM190.789 75.5L187.087 73.9855L187.081 73.9999L187.075 74.0144L190.789 75.5ZM180.739 87.8L178.52 84.4718L178.508 84.48L178.495 84.4883L180.739 87.8ZM138.889 82.4L135.857 85.009L135.861 85.0144L135.866 85.0197L138.889 82.4ZM138.889 32.3L135.916 29.6241L135.904 29.6376L135.892 29.6512L138.889 32.3ZM149.089 25.1L147.464 21.4448L149.089 25.1ZM180.739 27.05L178.495 30.3617L178.508 30.37L178.52 30.3782L180.739 27.05ZM190.789 39.35L187.112 40.9257L190.789 39.35ZM192.139 42.5L188.462 44.0757L189.501 46.5H192.139V42.5ZM192.289 42.5V46.5H193.154L193.942 46.1424L192.289 42.5ZM211.789 33.65L213.442 37.2924L216.894 35.7257L215.515 32.1946L211.789 33.65ZM194.089 10.7L191.82 13.9946L191.828 13.9997L194.089 10.7ZM122.839 17.6L119.874 14.9153L119.866 14.9241L122.839 17.6ZM122.839 97.25L125.842 94.6075L125.836 94.6013L125.831 94.5952L122.839 97.25ZM162.289 117.9C175.238 117.9 186.693 114.21 196.383 107.427L191.795 100.873C183.485 106.69 173.64 109.9 162.289 109.9V117.9ZM196.391 107.421C205.19 101.229 211.499 92.7743 215.507 82.6754L208.071 79.7246C204.578 88.5257 199.188 95.6709 191.787 100.879L196.391 107.421ZM213.465 77.5682L193.965 68.5682L190.613 75.8318L210.113 84.8318L213.465 77.5682ZM192.289 68.2H192.139V76.2H192.289V68.2ZM188.437 70.6855L187.087 73.9855L194.491 77.0145L195.841 73.7145L188.437 70.6855ZM187.075 74.0144C185.293 78.4694 182.387 81.8938 178.52 84.4718L182.958 91.1282C188.091 87.7062 192.085 83.0306 194.503 76.9856L187.075 74.0144ZM178.495 84.4883C174.623 87.1118 170.34 88.3 164.839 88.3V96.3C171.637 96.3 177.555 94.7882 182.982 91.1117L178.495 84.4883ZM164.839 88.3C154.029 88.3 146.765 85.3798 141.912 79.7803L135.866 85.0197C142.713 92.9202 152.548 96.3 164.839 96.3V88.3ZM141.921 79.791C137.096 74.1834 134.489 67.0584 134.489 57.35H126.489C126.489 68.6416 129.582 77.7166 135.857 85.009L141.921 79.791ZM134.489 57.35C134.489 47.7348 136.976 40.5054 141.886 34.9488L135.892 29.6512C129.402 36.9946 126.489 46.2652 126.489 57.35H134.489ZM141.862 34.9759C144.133 32.4527 147.098 30.3619 150.713 28.7552L147.464 21.4448C142.979 23.4381 139.045 26.1473 135.916 29.6241L141.862 34.9759ZM150.713 28.7552C154.074 27.2615 158.714 26.4 164.839 26.4V18.4C158.063 18.4 152.204 19.3384 147.464 21.4448L150.713 28.7552ZM164.839 26.4C170.262 26.4 174.566 27.6995 178.495 30.3617L182.982 23.7383C177.612 20.1005 171.716 18.4 164.839 18.4V26.4ZM178.52 30.3782C182.333 32.9201 185.148 36.3416 187.112 40.9257L194.465 37.7743C191.93 31.8584 188.145 27.1799 182.958 23.7218L178.52 30.3782ZM187.112 40.9257L188.462 44.0757L195.815 40.9243L194.465 37.7743L187.112 40.9257ZM192.139 46.5H192.289V38.5H192.139V46.5ZM193.942 46.1424L213.442 37.2924L210.136 30.0076L190.636 38.8576L193.942 46.1424ZM215.515 32.1946C211.509 21.9412 205.191 13.4582 196.35 7.40026L191.828 13.9997C199.187 19.0418 204.568 26.1588 208.063 35.1054L215.515 32.1946ZM196.357 7.4054C186.545 0.64912 175.255 -3.05 162.289 -3.05V4.95C173.623 4.95 183.333 8.15087 191.82 13.9946L196.357 7.4054ZM162.289 -3.05C145.069 -3.05 130.753 2.89956 119.874 14.9153L125.804 20.2847C135.025 10.1004 147.109 4.95 162.289 4.95V-3.05ZM119.866 14.9241C109.673 26.2492 104.589 40.5908 104.589 57.35H112.589C112.589 42.3092 117.105 29.9508 125.812 20.2759L119.866 14.9241ZM104.589 57.35C104.589 74.1154 109.676 88.4426 119.847 99.9048L125.831 94.5952C117.102 84.7574 112.589 72.3846 112.589 57.35H104.589ZM119.836 99.8925C130.604 112.129 145.114 117.9 162.289 117.9V109.9C147.063 109.9 134.874 104.871 125.842 94.6075L119.836 99.8925ZM230.476 113H226.476V117H230.476V113ZM252.376 113V117H256.376V113H252.376ZM252.376 68.45V64.45H248.376V68.45H252.376ZM300.076 68.45H304.076V64.45H300.076V68.45ZM300.076 113H296.076V117H300.076V113ZM321.826 113V117H325.826V113H321.826ZM321.826 2.44999H325.826V-1.55001H321.826V2.44999ZM300.076 2.44999V-1.55001H296.076V2.44999H300.076ZM300.076 46.85V50.85H304.076V46.85H300.076ZM252.376 46.85H248.376V50.85H252.376V46.85ZM252.376 2.44999H256.376V-1.55001H252.376V2.44999ZM230.476 2.44999V-1.55001H226.476V2.44999H230.476ZM230.476 117H252.376V109H230.476V117ZM256.376 113V68.45H248.376V113H256.376ZM252.376 72.45H300.076V64.45H252.376V72.45ZM296.076 68.45V113H304.076V68.45H296.076ZM300.076 117H321.826V109H300.076V117ZM325.826 113V2.44999H317.826V113H325.826ZM321.826 -1.55001H300.076V6.44999H321.826V-1.55001ZM296.076 2.44999V46.85H304.076V2.44999H296.076ZM300.076 42.85H252.376V50.85H300.076V42.85ZM256.376 46.85V2.44999H248.376V46.85H256.376ZM252.376 -1.55001H230.476V6.44999H252.376V-1.55001ZM226.476 2.44999V113H234.476V2.44999H226.476ZM346.509 113H342.509V117H346.509V113ZM430.659 113V117H434.659V113H430.659ZM430.659 91.55H434.659V87.55H430.659V91.55ZM368.409 91.55H364.409V95.55H368.409V91.55ZM368.409 68.45V64.45H364.409V68.45H368.409ZM413.559 68.45V72.45H417.559V68.45H413.559ZM413.559 46.85H417.559V42.85H413.559V46.85ZM368.409 46.85H364.409V50.85H368.409V46.85ZM368.409 23.75V19.75H364.409V23.75H368.409ZM430.659 23.75V27.75H434.659V23.75H430.659ZM430.659 2.44999H434.659V-1.55001H430.659V2.44999ZM346.509 2.44999V-1.55001H342.509V2.44999H346.509ZM346.509 117H430.659V109H346.509V117ZM434.659 113V91.55H426.659V113H434.659ZM430.659 87.55H368.409V95.55H430.659V87.55ZM372.409 91.55V68.45H364.409V91.55H372.409ZM368.409 72.45H413.559V64.45H368.409V72.45ZM417.559 68.45V46.85H409.559V68.45H417.559ZM413.559 42.85H368.409V50.85H413.559V42.85ZM372.409 46.85V23.75H364.409V46.85H372.409ZM368.409 27.75H430.659V19.75H368.409V27.75ZM434.659 23.75V2.44999H426.659V23.75H434.659ZM430.659 -1.55001H346.509V6.44999H430.659V-1.55001ZM342.509 2.44999V113H350.509V2.44999H342.509ZM449.358 113H445.358V117H449.358V113ZM515.958 109.25L514.458 105.542L514.442 105.549L514.426 105.555L515.958 109.25ZM532.458 98.15L529.59 95.3623L529.585 95.3668L532.458 98.15ZM532.458 17.3L535.307 14.492L535.297 14.4817L535.287 14.4716L532.458 17.3ZM515.958 6.2L514.426 9.89497L514.442 9.90144L514.458 9.90779L515.958 6.2ZM449.358 2.44999V-1.55001H445.358V2.44999H449.358ZM471.258 91.7H467.258V95.7H471.258V91.7ZM471.258 23.6V19.6H467.258V23.6H471.258ZM517.908 33.5L514.847 36.0744L514.862 36.0918L514.876 36.109L517.908 33.5ZM517.908 81.95L514.876 79.341L514.862 79.3582L514.847 79.3756L517.908 81.95ZM449.358 117H496.758V109H449.358V117ZM496.758 117C503.852 117 510.826 115.708 517.49 112.945L514.426 105.555C508.791 107.892 502.865 109 496.758 109V117ZM517.459 112.958C524.275 110.199 530.292 106.135 535.331 100.933L529.585 95.3668C525.324 99.7654 520.242 103.201 514.458 105.542L517.459 112.958ZM535.327 100.938C546.47 89.4721 552.058 74.9407 552.058 57.65H544.058C544.058 73.0593 539.147 85.5279 529.59 95.3623L535.327 100.938ZM552.058 57.65C552.058 40.521 546.476 25.8229 535.307 14.492L529.61 20.108C539.141 29.777 544.058 42.379 544.058 57.65H552.058ZM535.287 14.4716C530.151 9.33535 524.31 5.26497 517.459 2.49221L514.458 9.90779C520.207 12.235 525.166 15.6646 529.63 20.1284L535.287 14.4716ZM517.49 2.50503C510.826 -0.258438 503.852 -1.55001 496.758 -1.55001V6.44999C502.865 6.44999 508.791 7.55843 514.426 9.89497L517.49 2.50503ZM496.758 -1.55001H449.358V6.44999H496.758V-1.55001ZM445.358 2.44999V113H453.358V2.44999H445.358ZM475.258 91.7V23.6H467.258V91.7H475.258ZM471.258 27.6H496.308V19.6H471.258V27.6ZM496.308 27.6C504.151 27.6 510.072 30.3964 514.847 36.0744L520.97 30.9256C514.645 23.4036 506.465 19.6 496.308 19.6V27.6ZM514.876 36.109C519.707 41.7229 522.158 48.7012 522.158 57.65H530.158C530.158 47.0988 527.21 38.1771 520.94 30.891L514.876 36.109ZM522.158 57.65C522.158 66.7575 519.702 73.7328 514.876 79.341L520.94 84.559C527.215 77.2672 530.158 68.3425 530.158 57.65H522.158ZM514.847 79.3756C510.104 85.0153 504.203 87.7 496.308 87.7V95.7C506.413 95.7 514.612 92.0847 520.97 84.5244L514.847 79.3756ZM496.308 87.7H471.258V95.7H496.308V87.7ZM660.906 2.44999H664.906V-1.55001H660.906V2.44999ZM639.156 2.44999V-1.55001H635.156V2.44999H639.156ZM631.206 86.3L633.939 89.2211L633.945 89.2157L633.951 89.2104L631.206 86.3ZM595.206 86.3L592.419 89.1691L592.426 89.176L595.206 86.3ZM587.256 2.44999H591.256V-1.55001H587.256V2.44999ZM565.356 2.44999V-1.55001H561.356V2.44999H565.356ZM578.706 100.4L575.854 103.205L575.855 103.205L578.706 100.4ZM613.056 118.2C628.122 118.2 640.75 113.191 650.432 103.181L644.681 97.6191C636.663 105.909 626.191 110.2 613.056 110.2V118.2ZM650.432 103.181C660.105 93.1798 664.906 80.1317 664.906 64.7H656.906C656.906 78.3683 652.708 89.3202 644.681 97.6191L650.432 103.181ZM664.906 64.7V2.44999H656.906V64.7H664.906ZM660.906 -1.55001H639.156V6.44999H660.906V-1.55001ZM635.156 2.44999V65H643.156V2.44999H635.156ZM635.156 65C635.156 73.6316 632.726 79.3699 628.462 83.3896L633.951 89.2104C640.187 83.33 643.156 75.2684 643.156 65H635.156ZM628.474 83.3789C624.749 86.8631 619.826 88.6 613.056 88.6V96.6C621.287 96.6 628.364 94.4369 633.939 89.2211L628.474 83.3789ZM613.056 88.6C606.293 88.6 601.549 86.8682 597.987 83.424L592.426 89.176C597.863 94.4318 604.819 96.6 613.056 96.6V88.6ZM597.994 83.4309C593.673 79.2336 591.256 73.4542 591.256 65H583.256C583.256 75.1458 586.24 83.1664 592.419 89.1691L597.994 83.4309ZM591.256 65V2.44999H583.256V65H591.256ZM587.256 -1.55001H565.356V6.44999H587.256V-1.55001ZM561.356 2.44999V64.7H569.356V2.44999H561.356ZM561.356 64.7C561.356 80.1111 566.147 93.3322 575.854 103.205L581.559 97.5954C573.566 89.4678 569.356 78.3889 569.356 64.7H561.356ZM575.855 103.205C585.665 113.179 598.27 118.2 613.056 118.2V110.2C600.243 110.2 589.748 105.921 581.558 97.595L575.855 103.205ZM684.208 113H680.208V117H684.208V113ZM760.708 113V117H764.708V113H760.708ZM760.708 91.55H764.708V87.55H760.708V91.55ZM706.108 91.55H702.108V95.55H706.108V91.55ZM706.108 2.44999H710.108V-1.55001H706.108V2.44999ZM684.208 2.44999V-1.55001H680.208V2.44999H684.208ZM684.208 117H760.708V109H684.208V117ZM764.708 113V91.55H756.708V113H764.708ZM760.708 87.55H706.108V95.55H760.708V87.55ZM710.108 91.55V2.44999H702.108V91.55H710.108ZM706.108 -1.55001H684.208V6.44999H706.108V-1.55001ZM680.208 2.44999V113H688.208V2.44999H680.208ZM774.899 113H770.899V117H774.899V113ZM859.049 113V117H863.049V113H859.049ZM859.049 91.55H863.049V87.55H859.049V91.55ZM796.799 91.55H792.799V95.55H796.799V91.55ZM796.799 68.45V64.45H792.799V68.45H796.799ZM841.949 68.45V72.45H845.949V68.45H841.949ZM841.949 46.85H845.949V42.85H841.949V46.85ZM796.799 46.85H792.799V50.85H796.799V46.85ZM796.799 23.75V19.75H792.799V23.75H796.799ZM859.049 23.75V27.75H863.049V23.75H859.049ZM859.049 2.44999H863.049V-1.55001H859.049V2.44999ZM774.899 2.44999V-1.55001H770.899V2.44999H774.899ZM774.899 117H859.049V109H774.899V117ZM863.049 113V91.55H855.049V113H863.049ZM859.049 87.55H796.799V95.55H859.049V87.55ZM800.799 91.55V68.45H792.799V91.55H800.799ZM796.799 72.45H841.949V64.45H796.799V72.45ZM845.949 68.45V46.85H837.949V68.45H845.949ZM841.949 42.85H796.799V50.85H841.949V42.85ZM800.799 46.85V23.75H792.799V46.85H800.799ZM796.799 27.75H859.049V19.75H796.799V27.75ZM863.049 23.75V2.44999H855.049V23.75H863.049ZM859.049 -1.55001H774.899V6.44999H859.049V-1.55001ZM770.899 2.44999V113H778.899V2.44999H770.899Z" fill="url(#paint0_linear_272_1865)"/>
<path d="M81.651 105.05L79.365 101.768L79.3613 101.77L81.651 105.05ZM81.201 56.3L83.3369 52.918L83.329 52.913L83.321 52.908L81.201 56.3ZM69.051 50.45L67.747 54.2315L67.7665 54.2382L67.7861 54.2447L69.051 50.45ZM56.001 46.7L57.0647 42.844L56.001 46.7ZM43.401 43.7L42.3611 47.5625L42.3791 47.5673L42.3971 47.572L43.401 43.7ZM33.051 40.4L31.528 44.0987L31.5467 44.1064L31.5654 44.1139L33.051 40.4ZM26.901 36.65L24.0726 39.4784H24.0726L26.901 36.65ZM26.301 29.45L30.0957 30.7149L30.1443 30.5692L30.1815 30.4201L26.301 29.45ZM28.551 26.15L26.0522 23.0265L25.9833 23.0816L25.917 23.1397L28.551 26.15ZM34.851 23L36.1159 26.7947L36.1442 26.7853L36.1724 26.7754L34.851 23ZM57.501 22.85L58.661 19.0219L58.6504 19.0187L57.501 22.85ZM69.651 34.85L65.6795 35.3266L65.6816 35.3442L65.6839 35.3619L69.651 34.85ZM70.251 39.5L66.2839 40.0119L66.734 43.5H70.251V39.5ZM92.151 39.5V43.5H96.373L96.1451 39.2841L92.151 39.5ZM91.851 33.95L87.8554 34.1373L87.856 34.1516L87.8568 34.1659L91.851 33.95ZM79.851 10.4L77.296 13.4776L77.3087 13.4882L77.3215 13.4986L79.851 10.4ZM15.351 9.34999L12.8286 6.24554L12.8216 6.25121L12.8147 6.25692L15.351 9.34999ZM10.701 50.75L13.5843 47.9776L13.5336 47.9249L13.4811 47.874L10.701 50.75ZM25.101 60.05L23.6323 63.7706L23.6417 63.7743L23.6512 63.778L25.101 60.05ZM42.351 65.45L43.2504 61.5524L43.2295 61.5476L43.2086 61.543L42.351 65.45ZM58.551 69.5L57.3909 73.3281L57.4016 73.3313L58.551 69.5ZM69.801 74.6L67.5071 77.8769L67.5156 77.8829L67.5241 77.8888L69.801 74.6ZM30.651 88.25L32.6595 84.7908L30.651 88.25ZM23.301 76.7L27.2941 76.4651L27.2937 76.458L23.301 76.7ZM23.001 71.75L26.9937 71.508L26.7659 67.75H23.001V71.75ZM0.500977 71.75V67.75H-3.93026L-3.47815 72.1581L0.500977 71.75ZM1.10098 77.6L-2.87815 78.0081L-2.87703 78.019L-2.87585 78.0299L1.10098 77.6ZM14.151 103.55L11.6447 106.668L11.6522 106.673L14.151 103.55ZM49.551 117.45C63.4295 117.45 75.115 114.491 83.9407 108.33L79.3613 101.77C72.287 106.709 62.3725 109.45 49.551 109.45V117.45ZM83.937 108.332C93.5128 101.664 98.401 91.6793 98.401 79.25H90.401C90.401 89.3207 86.5892 96.7365 79.365 101.768L83.937 108.332ZM98.401 79.25C98.401 68.1574 92.942 58.9844 83.3369 52.918L79.065 59.682C86.56 64.4156 90.401 71.1426 90.401 79.25H98.401ZM83.321 52.908C79.5308 50.5392 75.192 48.2806 70.3159 46.6553L67.7861 54.2447C71.9099 55.6193 75.6711 57.5608 79.081 59.692L83.321 52.908ZM70.3549 46.6685C65.8463 45.1138 61.253 43.9994 57.0647 42.844L54.9373 50.556C59.449 51.8006 63.5556 52.7862 67.747 54.2315L70.3549 46.6685ZM57.0647 42.844C54.7857 42.2153 52.5636 41.7094 50.4599 41.2398C48.3284 40.764 46.3474 40.3316 44.4048 39.828L42.3971 47.572C44.5046 48.1184 46.6486 48.586 48.7171 49.0477C50.8134 49.5156 52.8663 49.9847 54.9373 50.556L57.0647 42.844ZM44.4409 39.8375C40.5959 38.8023 37.321 37.7999 34.5365 36.6861L31.5654 44.1139C34.7809 45.4001 38.4061 46.4977 42.3611 47.5625L44.4409 39.8375ZM34.574 36.7013C32.2446 35.7421 30.6948 34.787 29.7294 33.8216L24.0726 39.4784C26.1071 41.513 28.7573 42.9579 31.528 44.0987L34.574 36.7013ZM29.7294 33.8216C29.3043 33.3964 29.3113 33.2822 29.3963 33.4806C29.4427 33.5889 29.4926 33.7446 29.5231 33.9379C29.5377 34.0303 29.545 34.1133 29.5485 34.1808C29.5515 34.2413 29.551 34.2883 29.551 34.25H21.551C21.551 34.6643 21.5737 35.5365 22.0431 36.6319C22.4657 37.6178 23.1477 38.5536 24.0726 39.4784L29.7294 33.8216ZM29.551 34.25C29.551 32.8826 29.7808 31.6596 30.0957 30.7149L22.5062 28.1851C21.9211 29.9404 21.551 32.0174 21.551 34.25H29.551ZM30.1815 30.4201C30.2155 30.2845 30.3459 29.8945 31.185 29.1603L25.917 23.1397C24.3561 24.5055 22.9865 26.2155 22.4204 28.4799L30.1815 30.4201ZM31.0498 29.2735C32.0491 28.474 33.6685 27.6105 36.1159 26.7947L33.5861 19.2053C30.6334 20.1895 28.0528 21.426 26.0522 23.0265L31.0498 29.2735ZM36.1724 26.7754C38.5712 25.9358 41.8154 25.5 46.101 25.5V17.5C41.3866 17.5 37.1308 17.9641 33.5296 19.2246L36.1724 26.7754ZM46.101 25.5C50.381 25.5 53.8578 25.9332 56.3516 26.6813L58.6504 19.0187C55.1441 17.9668 50.821 17.5 46.101 17.5V25.5ZM56.341 26.6781C60.7351 28.0097 62.8924 29.7027 64.0095 31.084C65.1156 32.4517 65.5068 33.8874 65.6795 35.3266L73.6225 34.3734C73.3452 32.0626 72.6114 28.9982 70.23 26.0535C67.8595 23.1223 64.1669 20.6903 58.661 19.0219L56.341 26.6781ZM65.6839 35.3619L66.2839 40.0119L74.2181 38.9881L73.6181 34.3381L65.6839 35.3619ZM70.251 43.5H92.151V35.5H70.251V43.5ZM96.1451 39.2841L95.8452 33.7341L87.8568 34.1659L88.1568 39.7159L96.1451 39.2841ZM95.8466 33.7627C95.3411 22.979 90.5715 13.9879 82.3805 7.30135L77.3215 13.4986C83.8304 18.8121 87.4609 25.721 87.8554 34.1373L95.8466 33.7627ZM82.406 7.32236C73.5177 -0.0566463 61.4009 -3.50001 47.001 -3.50001V4.49999C60.2011 4.49999 70.2843 7.65663 77.296 13.4776L82.406 7.32236ZM47.001 -3.50001C32.7038 -3.50001 21.0115 -0.403088 12.8286 6.24554L17.8733 12.4544C24.0904 7.40308 33.6982 4.49999 47.001 4.49999V-3.50001ZM12.8147 6.25692C4.36611 13.1847 0.100977 22.4306 0.100977 33.35H8.10098C8.10098 24.7694 11.3358 17.8153 17.8873 12.4431L12.8147 6.25692ZM0.100977 33.35C0.100977 41.372 2.47085 48.3576 7.92089 53.6259L13.4811 47.874C9.9311 44.4424 8.10098 39.728 8.10098 33.35H0.100977ZM7.81765 53.5224C12.0336 57.907 17.4975 61.349 23.6323 63.7706L26.5696 56.3294C21.3045 54.251 16.8684 51.393 13.5843 47.9776L7.81765 53.5224ZM23.6512 63.778C29.1529 65.9176 35.0648 67.9458 41.4934 69.357L43.2086 61.543C37.3372 60.2542 31.849 58.3824 26.5508 56.322L23.6512 63.778ZM41.4515 69.3476C47.3663 70.7125 52.6029 71.8772 57.3909 73.3281L59.711 65.6719C54.5991 64.1228 49.0356 62.8875 43.2504 61.5524L41.4515 69.3476ZM57.4016 73.3313C61.6519 74.6064 64.9706 76.1014 67.5071 77.8769L72.0948 71.3231C68.6314 68.8986 64.4501 67.0936 59.7004 65.6687L57.4016 73.3313ZM67.5241 77.8888C68.1185 78.3002 68.2683 78.5496 68.3205 78.6517C68.3783 78.7648 68.501 79.0641 68.501 79.85H76.501C76.501 78.2359 76.2486 76.5852 75.444 75.0108C74.6336 73.4254 73.4335 72.2498 72.0778 71.3112L67.5241 77.8888ZM68.501 79.85C68.501 81.363 68.4529 82.8829 66.9203 84.3146C65.1868 85.934 60.7565 88.15 49.701 88.15V96.15C61.4454 96.15 68.4151 93.866 72.3816 90.1604C76.5491 86.2671 76.501 81.637 76.501 79.85H68.501ZM49.701 88.15C41.9078 88.15 36.4284 86.9792 32.6595 84.7908L28.6424 91.7092C34.1735 94.9208 41.2941 96.15 49.701 96.15V88.15ZM32.6595 84.7908C29.087 82.7165 27.5098 80.1325 27.2941 76.4651L19.3079 76.9349C19.6922 83.4675 22.9149 88.3835 28.6424 91.7092L32.6595 84.7908ZM27.2937 76.458L26.9937 71.508L19.0083 71.992L19.3083 76.942L27.2937 76.458ZM23.001 67.75H0.500977V75.75H23.001V67.75ZM-3.47815 72.1581L-2.87815 78.0081L5.0801 77.1919L4.4801 71.3419L-3.47815 72.1581ZM-2.87585 78.0299C-1.58691 89.9526 3.00108 99.7187 11.6447 106.667L16.6572 100.432C10.0009 95.0813 6.18887 87.4474 5.0778 77.1701L-2.87585 78.0299ZM11.6522 106.673C20.8743 114.051 33.899 117.45 49.551 117.45V109.45C34.903 109.45 23.9276 106.249 16.6498 100.427L11.6522 106.673ZM194.089 104.15L196.383 107.427L196.391 107.421L194.089 104.15ZM211.789 81.2L215.507 82.6754L216.904 79.1552L213.465 77.5682L211.789 81.2ZM192.289 72.2L193.965 68.5682L193.167 68.2H192.289V72.2ZM192.139 72.2V68.2H189.453L188.437 70.6855L192.139 72.2ZM190.789 75.5L187.087 73.9855L187.081 73.9999L187.075 74.0144L190.789 75.5ZM180.739 87.8L178.52 84.4718L178.508 84.48L178.495 84.4883L180.739 87.8ZM138.889 82.4L135.857 85.009L135.861 85.0144L135.866 85.0197L138.889 82.4ZM138.889 32.3L135.916 29.6241L135.904 29.6376L135.892 29.6512L138.889 32.3ZM149.089 25.1L147.464 21.4448L149.089 25.1ZM180.739 27.05L178.495 30.3617L178.508 30.37L178.52 30.3782L180.739 27.05ZM190.789 39.35L187.112 40.9257L190.789 39.35ZM192.139 42.5L188.462 44.0757L189.501 46.5H192.139V42.5ZM192.289 42.5V46.5H193.154L193.942 46.1424L192.289 42.5ZM211.789 33.65L213.442 37.2924L216.894 35.7257L215.515 32.1946L211.789 33.65ZM194.089 10.7L191.82 13.9946L191.828 13.9997L194.089 10.7ZM122.839 17.6L119.874 14.9153L119.866 14.9241L122.839 17.6ZM122.839 97.25L125.842 94.6075L125.836 94.6013L125.831 94.5952L122.839 97.25ZM162.289 117.9C175.238 117.9 186.693 114.21 196.383 107.427L191.795 100.873C183.485 106.69 173.64 109.9 162.289 109.9V117.9ZM196.391 107.421C205.19 101.229 211.499 92.7743 215.507 82.6754L208.071 79.7246C204.578 88.5257 199.188 95.6709 191.787 100.879L196.391 107.421ZM213.465 77.5682L193.965 68.5682L190.613 75.8318L210.113 84.8318L213.465 77.5682ZM192.289 68.2H192.139V76.2H192.289V68.2ZM188.437 70.6855L187.087 73.9855L194.491 77.0145L195.841 73.7145L188.437 70.6855ZM187.075 74.0144C185.293 78.4694 182.387 81.8938 178.52 84.4718L182.958 91.1282C188.091 87.7062 192.085 83.0306 194.503 76.9856L187.075 74.0144ZM178.495 84.4883C174.623 87.1118 170.34 88.3 164.839 88.3V96.3C171.637 96.3 177.555 94.7882 182.982 91.1117L178.495 84.4883ZM164.839 88.3C154.029 88.3 146.765 85.3798 141.912 79.7803L135.866 85.0197C142.713 92.9202 152.548 96.3 164.839 96.3V88.3ZM141.921 79.791C137.096 74.1834 134.489 67.0584 134.489 57.35H126.489C126.489 68.6416 129.582 77.7166 135.857 85.009L141.921 79.791ZM134.489 57.35C134.489 47.7348 136.976 40.5054 141.886 34.9488L135.892 29.6512C129.402 36.9946 126.489 46.2652 126.489 57.35H134.489ZM141.862 34.9759C144.133 32.4527 147.098 30.3619 150.713 28.7552L147.464 21.4448C142.979 23.4381 139.045 26.1473 135.916 29.6241L141.862 34.9759ZM150.713 28.7552C154.074 27.2615 158.714 26.4 164.839 26.4V18.4C158.063 18.4 152.204 19.3384 147.464 21.4448L150.713 28.7552ZM164.839 26.4C170.262 26.4 174.566 27.6995 178.495 30.3617L182.982 23.7383C177.612 20.1005 171.716 18.4 164.839 18.4V26.4ZM178.52 30.3782C182.333 32.9201 185.148 36.3416 187.112 40.9257L194.465 37.7743C191.93 31.8584 188.145 27.1799 182.958 23.7218L178.52 30.3782ZM187.112 40.9257L188.462 44.0757L195.815 40.9243L194.465 37.7743L187.112 40.9257ZM192.139 46.5H192.289V38.5H192.139V46.5ZM193.942 46.1424L213.442 37.2924L210.136 30.0076L190.636 38.8576L193.942 46.1424ZM215.515 32.1946C211.509 21.9412 205.191 13.4582 196.35 7.40026L191.828 13.9997C199.187 19.0418 204.568 26.1588 208.063 35.1054L215.515 32.1946ZM196.357 7.4054C186.545 0.64912 175.255 -3.05 162.289 -3.05V4.95C173.623 4.95 183.333 8.15087 191.82 13.9946L196.357 7.4054ZM162.289 -3.05C145.069 -3.05 130.753 2.89956 119.874 14.9153L125.804 20.2847C135.025 10.1004 147.109 4.95 162.289 4.95V-3.05ZM119.866 14.9241C109.673 26.2492 104.589 40.5908 104.589 57.35H112.589C112.589 42.3092 117.105 29.9508 125.812 20.2759L119.866 14.9241ZM104.589 57.35C104.589 74.1154 109.676 88.4426 119.847 99.9048L125.831 94.5952C117.102 84.7574 112.589 72.3846 112.589 57.35H104.589ZM119.836 99.8925C130.604 112.129 145.114 117.9 162.289 117.9V109.9C147.063 109.9 134.874 104.871 125.842 94.6075L119.836 99.8925ZM230.476 113H226.476V117H230.476V113ZM252.376 113V117H256.376V113H252.376ZM252.376 68.45V64.45H248.376V68.45H252.376ZM300.076 68.45H304.076V64.45H300.076V68.45ZM300.076 113H296.076V117H300.076V113ZM321.826 113V117H325.826V113H321.826ZM321.826 2.44999H325.826V-1.55001H321.826V2.44999ZM300.076 2.44999V-1.55001H296.076V2.44999H300.076ZM300.076 46.85V50.85H304.076V46.85H300.076ZM252.376 46.85H248.376V50.85H252.376V46.85ZM252.376 2.44999H256.376V-1.55001H252.376V2.44999ZM230.476 2.44999V-1.55001H226.476V2.44999H230.476ZM230.476 117H252.376V109H230.476V117ZM256.376 113V68.45H248.376V113H256.376ZM252.376 72.45H300.076V64.45H252.376V72.45ZM296.076 68.45V113H304.076V68.45H296.076ZM300.076 117H321.826V109H300.076V117ZM325.826 113V2.44999H317.826V113H325.826ZM321.826 -1.55001H300.076V6.44999H321.826V-1.55001ZM296.076 2.44999V46.85H304.076V2.44999H296.076ZM300.076 42.85H252.376V50.85H300.076V42.85ZM256.376 46.85V2.44999H248.376V46.85H256.376ZM252.376 -1.55001H230.476V6.44999H252.376V-1.55001ZM226.476 2.44999V113H234.476V2.44999H226.476ZM346.509 113H342.509V117H346.509V113ZM430.659 113V117H434.659V113H430.659ZM430.659 91.55H434.659V87.55H430.659V91.55ZM368.409 91.55H364.409V95.55H368.409V91.55ZM368.409 68.45V64.45H364.409V68.45H368.409ZM413.559 68.45V72.45H417.559V68.45H413.559ZM413.559 46.85H417.559V42.85H413.559V46.85ZM368.409 46.85H364.409V50.85H368.409V46.85ZM368.409 23.75V19.75H364.409V23.75H368.409ZM430.659 23.75V27.75H434.659V23.75H430.659ZM430.659 2.44999H434.659V-1.55001H430.659V2.44999ZM346.509 2.44999V-1.55001H342.509V2.44999H346.509ZM346.509 117H430.659V109H346.509V117ZM434.659 113V91.55H426.659V113H434.659ZM430.659 87.55H368.409V95.55H430.659V87.55ZM372.409 91.55V68.45H364.409V91.55H372.409ZM368.409 72.45H413.559V64.45H368.409V72.45ZM417.559 68.45V46.85H409.559V68.45H417.559ZM413.559 42.85H368.409V50.85H413.559V42.85ZM372.409 46.85V23.75H364.409V46.85H372.409ZM368.409 27.75H430.659V19.75H368.409V27.75ZM434.659 23.75V2.44999H426.659V23.75H434.659ZM430.659 -1.55001H346.509V6.44999H430.659V-1.55001ZM342.509 2.44999V113H350.509V2.44999H342.509ZM449.358 113H445.358V117H449.358V113ZM515.958 109.25L514.458 105.542L514.442 105.549L514.426 105.555L515.958 109.25ZM532.458 98.15L529.59 95.3623L529.585 95.3668L532.458 98.15ZM532.458 17.3L535.307 14.492L535.297 14.4817L535.287 14.4716L532.458 17.3ZM515.958 6.2L514.426 9.89497L514.442 9.90144L514.458 9.90779L515.958 6.2ZM449.358 2.44999V-1.55001H445.358V2.44999H449.358ZM471.258 91.7H467.258V95.7H471.258V91.7ZM471.258 23.6V19.6H467.258V23.6H471.258ZM517.908 33.5L514.847 36.0744L514.862 36.0918L514.876 36.109L517.908 33.5ZM517.908 81.95L514.876 79.341L514.862 79.3582L514.847 79.3756L517.908 81.95ZM449.358 117H496.758V109H449.358V117ZM496.758 117C503.852 117 510.826 115.708 517.49 112.945L514.426 105.555C508.791 107.892 502.865 109 496.758 109V117ZM517.459 112.958C524.275 110.199 530.292 106.135 535.331 100.933L529.585 95.3668C525.324 99.7654 520.242 103.201 514.458 105.542L517.459 112.958ZM535.327 100.938C546.47 89.4721 552.058 74.9407 552.058 57.65H544.058C544.058 73.0593 539.147 85.5279 529.59 95.3623L535.327 100.938ZM552.058 57.65C552.058 40.521 546.476 25.8229 535.307 14.492L529.61 20.108C539.141 29.777 544.058 42.379 544.058 57.65H552.058ZM535.287 14.4716C530.151 9.33535 524.31 5.26497 517.459 2.49221L514.458 9.90779C520.207 12.235 525.166 15.6646 529.63 20.1284L535.287 14.4716ZM517.49 2.50503C510.826 -0.258438 503.852 -1.55001 496.758 -1.55001V6.44999C502.865 6.44999 508.791 7.55843 514.426 9.89497L517.49 2.50503ZM496.758 -1.55001H449.358V6.44999H496.758V-1.55001ZM445.358 2.44999V113H453.358V2.44999H445.358ZM475.258 91.7V23.6H467.258V91.7H475.258ZM471.258 27.6H496.308V19.6H471.258V27.6ZM496.308 27.6C504.151 27.6 510.072 30.3964 514.847 36.0744L520.97 30.9256C514.645 23.4036 506.465 19.6 496.308 19.6V27.6ZM514.876 36.109C519.707 41.7229 522.158 48.7012 522.158 57.65H530.158C530.158 47.0988 527.21 38.1771 520.94 30.891L514.876 36.109ZM522.158 57.65C522.158 66.7575 519.702 73.7328 514.876 79.341L520.94 84.559C527.215 77.2672 530.158 68.3425 530.158 57.65H522.158ZM514.847 79.3756C510.104 85.0153 504.203 87.7 496.308 87.7V95.7C506.413 95.7 514.612 92.0847 520.97 84.5244L514.847 79.3756ZM496.308 87.7H471.258V95.7H496.308V87.7ZM660.906 2.44999H664.906V-1.55001H660.906V2.44999ZM639.156 2.44999V-1.55001H635.156V2.44999H639.156ZM631.206 86.3L633.939 89.2211L633.945 89.2157L633.951 89.2104L631.206 86.3ZM595.206 86.3L592.419 89.1691L592.426 89.176L595.206 86.3ZM587.256 2.44999H591.256V-1.55001H587.256V2.44999ZM565.356 2.44999V-1.55001H561.356V2.44999H565.356ZM578.706 100.4L575.854 103.205L575.855 103.205L578.706 100.4ZM613.056 118.2C628.122 118.2 640.75 113.191 650.432 103.181L644.681 97.6191C636.663 105.909 626.191 110.2 613.056 110.2V118.2ZM650.432 103.181C660.105 93.1798 664.906 80.1317 664.906 64.7H656.906C656.906 78.3683 652.708 89.3202 644.681 97.6191L650.432 103.181ZM664.906 64.7V2.44999H656.906V64.7H664.906ZM660.906 -1.55001H639.156V6.44999H660.906V-1.55001ZM635.156 2.44999V65H643.156V2.44999H635.156ZM635.156 65C635.156 73.6316 632.726 79.3699 628.462 83.3896L633.951 89.2104C640.187 83.33 643.156 75.2684 643.156 65H635.156ZM628.474 83.3789C624.749 86.8631 619.826 88.6 613.056 88.6V96.6C621.287 96.6 628.364 94.4369 633.939 89.2211L628.474 83.3789ZM613.056 88.6C606.293 88.6 601.549 86.8682 597.987 83.424L592.426 89.176C597.863 94.4318 604.819 96.6 613.056 96.6V88.6ZM597.994 83.4309C593.673 79.2336 591.256 73.4542 591.256 65H583.256C583.256 75.1458 586.24 83.1664 592.419 89.1691L597.994 83.4309ZM591.256 65V2.44999H583.256V65H591.256ZM587.256 -1.55001H565.356V6.44999H587.256V-1.55001ZM561.356 2.44999V64.7H569.356V2.44999H561.356ZM561.356 64.7C561.356 80.1111 566.147 93.3322 575.854 103.205L581.559 97.5954C573.566 89.4678 569.356 78.3889 569.356 64.7H561.356ZM575.855 103.205C585.665 113.179 598.27 118.2 613.056 118.2V110.2C600.243 110.2 589.748 105.921 581.558 97.595L575.855 103.205ZM684.208 113H680.208V117H684.208V113ZM760.708 113V117H764.708V113H760.708ZM760.708 91.55H764.708V87.55H760.708V91.55ZM706.108 91.55H702.108V95.55H706.108V91.55ZM706.108 2.44999H710.108V-1.55001H706.108V2.44999ZM684.208 2.44999V-1.55001H680.208V2.44999H684.208ZM684.208 117H760.708V109H684.208V117ZM764.708 113V91.55H756.708V113H764.708ZM760.708 87.55H706.108V95.55H760.708V87.55ZM710.108 91.55V2.44999H702.108V91.55H710.108ZM706.108 -1.55001H684.208V6.44999H706.108V-1.55001ZM680.208 2.44999V113H688.208V2.44999H680.208ZM774.899 113H770.899V117H774.899V113ZM859.049 113V117H863.049V113H859.049ZM859.049 91.55H863.049V87.55H859.049V91.55ZM796.799 91.55H792.799V95.55H796.799V91.55ZM796.799 68.45V64.45H792.799V68.45H796.799ZM841.949 68.45V72.45H845.949V68.45H841.949ZM841.949 46.85H845.949V42.85H841.949V46.85ZM796.799 46.85H792.799V50.85H796.799V46.85ZM796.799 23.75V19.75H792.799V23.75H796.799ZM859.049 23.75V27.75H863.049V23.75H859.049ZM859.049 2.44999H863.049V-1.55001H859.049V2.44999ZM774.899 2.44999V-1.55001H770.899V2.44999H774.899ZM774.899 117H859.049V109H774.899V117ZM863.049 113V91.55H855.049V113H863.049ZM859.049 87.55H796.799V95.55H859.049V87.55ZM800.799 91.55V68.45H792.799V91.55H800.799ZM796.799 72.45H841.949V64.45H796.799V72.45ZM845.949 68.45V46.85H837.949V68.45H845.949ZM841.949 42.85H796.799V50.85H841.949V42.85ZM800.799 46.85V23.75H792.799V46.85H800.799ZM796.799 27.75H859.049V19.75H796.799V27.75ZM863.049 23.75V2.44999H855.049V23.75H863.049ZM859.049 -1.55001H774.899V6.44999H859.049V-1.55001ZM770.899 2.44999V113H778.899V2.44999H770.899Z" fill="black" fill-opacity="0.3"/>
<defs>
<linearGradient id="paint0_linear_272_1865" x1="-0.163757" y1="52.5" x2="662.475" y2="-313.835" gradientUnits="userSpaceOnUse">
<stop stop-color="#F24D56"/>
<stop offset="0.509216" stop-color="#EE0C77"/>
<stop offset="0.964829" stop-color="#F24D56"/>
</linearGradient>
</defs>
</svg>
