<svg width="891" height="136" viewBox="0 0 891 136" fill="none" xmlns="http://www.w3.org/2000/svg">
<path d="M40.2434 26.66H44.2434V22.66H40.2434V26.66ZM0.167357 26.66H-3.83264V30.66H0.167357V26.66ZM0.167357 2.23599V-1.76401H-3.83264V2.23599H0.167357ZM105.259 2.23599H109.259V-1.76401H105.259V2.23599ZM105.259 26.66V30.66H109.259V26.66H105.259ZM65.1834 26.66V22.66H61.1834V26.66H65.1834ZM65.1834 129V133H69.1834V129H65.1834ZM40.2434 129H36.2434V133H40.2434V129ZM40.2434 22.66H0.167357V30.66H40.2434V22.66ZM4.16736 26.66V2.23599H-3.83264V26.66H4.16736ZM0.167357 6.23599H105.259V-1.76401H0.167357V6.23599ZM101.259 2.23599V26.66H109.259V2.23599H101.259ZM105.259 22.66H65.1834V30.66H105.259V22.66ZM61.1834 26.66V129H69.1834V26.66H61.1834ZM65.1834 125H40.2434V133H65.1834V125ZM44.2434 129V26.66H36.2434V129H44.2434ZM155.624 2.23599V-1.76401H152.977L151.943 0.67238L155.624 2.23599ZM179.876 2.23599L183.558 0.67238L182.523 -1.76401H179.876V2.23599ZM233.712 129V133H239.757L237.394 127.436L233.712 129ZM206.192 129L202.504 130.548L203.533 133H206.192V129ZM192.26 95.804L195.949 94.256L194.92 91.804H192.26V95.804ZM143.24 95.804V91.804H140.581L139.552 94.256L143.24 95.804ZM129.308 129V133H131.968L132.997 130.548L129.308 129ZM101.788 129L98.1067 127.436L95.7439 133H101.788V129ZM182.112 71.724V75.724H188.131L185.8 70.1751L182.112 71.724ZM167.664 37.324L171.352 35.7751L167.642 26.9417L163.97 35.7908L167.664 37.324ZM153.388 71.724L149.694 70.1908L147.398 75.724H153.388V71.724ZM155.624 6.23599H179.876V-1.76401H155.624V6.23599ZM176.195 3.7996L230.031 130.564L237.394 127.436L183.558 0.67238L176.195 3.7996ZM233.712 125H206.192V133H233.712V125ZM209.881 127.452L195.949 94.256L188.572 97.352L202.504 130.548L209.881 127.452ZM192.26 91.804H143.24V99.804H192.26V91.804ZM139.552 94.256L125.62 127.452L132.997 130.548L146.929 97.352L139.552 94.256ZM129.308 125H101.788V133H129.308V125ZM105.47 130.564L159.306 3.7996L151.943 0.67238L98.1067 127.436L105.47 130.564ZM185.8 70.1751L171.352 35.7751L163.977 38.8729L178.425 73.2729L185.8 70.1751ZM163.97 35.7908L149.694 70.1908L157.083 73.2572L171.359 38.8572L163.97 35.7908ZM153.388 75.724H182.112V67.724H153.388V75.724ZM338.348 122.464L341.176 119.636L339.075 117.534L336.456 118.939L338.348 122.464ZM260.088 111.112L262.994 108.364L262.988 108.358L262.982 108.351L260.088 111.112ZM260.26 19.436L263.128 22.2239L263.141 22.211L263.153 22.1979L260.26 19.436ZM353.14 19.436L350.246 22.1979L350.258 22.2108L350.271 22.2235L353.14 19.436ZM357.44 106.124L354.298 103.649L352.098 106.44L354.611 108.952L357.44 106.124ZM368.792 117.476L371.62 120.304L374.448 117.476L371.62 114.648L368.792 117.476ZM351.076 135.192L348.247 138.02L351.076 140.849L353.904 138.02L351.076 135.192ZM319.428 103.716L320.446 107.584L327.133 105.824L322.273 100.905L319.428 103.716ZM305.496 89.612L302.667 86.7836L299.856 89.5947L302.65 92.423L305.496 89.612ZM323.212 71.896L326.04 69.0676L323.212 66.2391L320.383 69.0676L323.212 71.896ZM339.724 88.408L336.895 91.2364L340.405 94.7458L343.088 90.571L339.724 88.408ZM335.424 36.636L338.319 33.8762L338.316 33.8731L335.424 36.636ZM277.976 36.636L280.871 39.3958L280.88 39.386L280.89 39.3761L277.976 36.636ZM277.976 93.912L280.89 91.1719L280.88 91.162L280.871 91.1522L277.976 93.912ZM336.456 118.939C327.69 123.643 317.8 126.032 306.7 126.032V134.032C318.991 134.032 330.2 131.375 340.239 125.989L336.456 118.939ZM306.7 126.032C288.524 126.032 274.082 120.091 262.994 108.364L257.181 113.86C269.944 127.359 286.576 134.032 306.7 134.032V126.032ZM262.982 108.351C251.926 96.7581 246.372 82.5158 246.372 65.36H238.372C238.372 84.4389 244.628 100.698 257.193 113.873L262.982 108.351ZM246.372 65.36C246.372 47.9716 251.984 33.6892 263.128 22.2239L257.391 16.6481C244.684 29.7214 238.372 46.0551 238.372 65.36H246.372ZM263.153 22.1979C274.37 10.447 288.769 4.51599 306.7 4.51599V-3.48401C286.79 -3.48401 270.229 3.19831 257.366 16.6741L263.153 22.1979ZM306.7 4.51599C324.63 4.51599 339.029 10.447 350.246 22.1979L356.033 16.6741C343.17 3.19831 326.609 -3.48401 306.7 -3.48401V4.51599ZM350.271 22.2235C361.288 33.5616 366.856 47.8377 366.856 65.36H374.856C374.856 45.9596 368.613 29.6198 356.008 16.6485L350.271 22.2235ZM366.856 65.36C366.856 80.3766 362.632 93.07 354.298 103.649L360.582 108.599C370.135 96.474 374.856 81.9914 374.856 65.36H366.856ZM354.611 108.952L365.963 120.304L371.62 114.648L360.268 103.296L354.611 108.952ZM365.963 114.648L348.247 132.364L353.904 138.02L371.62 120.304L365.963 114.648ZM353.904 132.364L341.176 119.636L335.519 125.292L348.247 138.02L353.904 132.364ZM306.7 109.436C311.201 109.436 315.786 108.81 320.446 107.584L318.41 99.8477C314.354 100.915 310.454 101.436 306.7 101.436V109.436ZM322.273 100.905L308.341 86.801L302.65 92.423L316.582 106.527L322.273 100.905ZM308.324 92.4404L326.04 74.7244L320.383 69.0676L302.667 86.7836L308.324 92.4404ZM320.383 74.7244L336.895 91.2364L342.552 85.5796L326.04 69.0676L320.383 74.7244ZM343.088 90.571C347.698 83.4003 349.916 74.9369 349.916 65.36H341.916C341.916 73.6711 340.005 80.573 336.359 86.245L343.088 90.571ZM349.916 65.36C349.916 52.7035 346.139 42.0807 338.319 33.8763L332.528 39.3958C338.698 45.8686 341.916 54.3952 341.916 65.36H349.916ZM338.316 33.8731C330.134 25.308 319.468 21.112 306.7 21.112V29.112C317.552 29.112 326.035 32.5987 332.531 39.3989L338.316 33.8731ZM306.7 21.112C293.83 21.112 283.144 25.3004 275.061 33.8959L280.89 39.3761C287.255 32.6063 295.719 29.112 306.7 29.112V21.112ZM275.08 33.8762C267.26 42.0807 263.484 52.7035 263.484 65.36H271.484C271.484 54.3952 274.702 45.8686 280.871 39.3958L275.08 33.8762ZM263.484 65.36C263.484 77.9138 267.267 88.4747 275.08 96.6717L280.871 91.1522C274.694 84.6719 271.484 76.1982 271.484 65.36H263.484ZM275.061 96.6521C283.144 105.248 293.83 109.436 306.7 109.436V101.436C295.719 101.436 287.255 97.9417 280.89 91.1719L275.061 96.6521ZM394.061 2.23599V-1.76401H390.061V2.23599H394.061ZM418.141 2.23599L421.362 -0.135456L420.163 -1.76401H418.141V2.23599ZM480.061 86.344L476.84 88.7154L484.061 98.5243V86.344H480.061ZM480.061 2.23599V-1.76401H476.061V2.23599H480.061ZM505.173 2.23599H509.173V-1.76401H505.173V2.23599ZM505.173 129V133H509.173V129H505.173ZM480.921 129L477.692 131.361L478.89 133H480.921V129ZM419.173 44.548L422.402 42.1871L415.173 32.3001V44.548H419.173ZM419.173 129V133H423.173V129H419.173ZM394.061 129H390.061V133H394.061V129ZM394.061 6.23599H418.141V-1.76401H394.061V6.23599ZM414.92 4.60744L476.84 88.7154L483.282 83.9725L421.362 -0.135456L414.92 4.60744ZM484.061 86.344V2.23599H476.061V86.344H484.061ZM480.061 6.23599H505.173V-1.76401H480.061V6.23599ZM501.173 2.23599V129H509.173V2.23599H501.173ZM505.173 125H480.921V133H505.173V125ZM484.15 126.639L422.402 42.1871L415.944 46.9089L477.692 131.361L484.15 126.639ZM415.173 44.548V129H423.173V44.548H415.173ZM419.173 125H394.061V133H419.173V125ZM398.061 129V2.23599H390.061V129H398.061ZM533.495 2.23599V-1.76401H529.495V2.23599H533.495ZM629.987 2.23599H633.987V-1.76401H629.987V2.23599ZM629.987 26.66V30.66H633.987V26.66H629.987ZM558.607 26.66V22.66H554.607V26.66H558.607ZM558.607 53.148H554.607V57.148H558.607V53.148ZM610.379 53.148H614.379V49.148H610.379V53.148ZM610.379 77.916V81.916H614.379V77.916H610.379ZM558.607 77.916V73.916H554.607V77.916H558.607ZM558.607 104.404H554.607V108.404H558.607V104.404ZM629.987 104.404H633.987V100.404H629.987V104.404ZM629.987 129V133H633.987V129H629.987ZM533.495 129H529.495V133H533.495V129ZM533.495 6.23599H629.987V-1.76401H533.495V6.23599ZM625.987 2.23599V26.66H633.987V2.23599H625.987ZM629.987 22.66H558.607V30.66H629.987V22.66ZM554.607 26.66V53.148H562.607V26.66H554.607ZM558.607 57.148H610.379V49.148H558.607V57.148ZM606.379 53.148V77.916H614.379V53.148H606.379ZM610.379 73.916H558.607V81.916H610.379V73.916ZM554.607 77.916V104.404H562.607V77.916H554.607ZM558.607 108.404H629.987V100.404H558.607V108.404ZM625.987 104.404V129H633.987V104.404H625.987ZM629.987 125H533.495V133H629.987V125ZM537.495 129V2.23599H529.495V129H537.495ZM651.429 2.23599V-1.76401H647.429V2.23599H651.429ZM747.921 2.23599H751.921V-1.76401H747.921V2.23599ZM747.921 26.66V30.66H751.921V26.66H747.921ZM676.541 26.66V22.66H672.541V26.66H676.541ZM676.541 53.148H672.541V57.148H676.541V53.148ZM728.313 53.148H732.313V49.148H728.313V53.148ZM728.313 77.916V81.916H732.313V77.916H728.313ZM676.541 77.916V73.916H672.541V77.916H676.541ZM676.541 104.404H672.541V108.404H676.541V104.404ZM747.921 104.404H751.921V100.404H747.921V104.404ZM747.921 129V133H751.921V129H747.921ZM651.429 129H647.429V133H651.429V129ZM651.429 6.23599H747.921V-1.76401H651.429V6.23599ZM743.921 2.23599V26.66H751.921V2.23599H743.921ZM747.921 22.66H676.541V30.66H747.921V22.66ZM672.541 26.66V53.148H680.541V26.66H672.541ZM676.541 57.148H728.313V49.148H676.541V57.148ZM724.313 53.148V77.916H732.313V53.148H724.313ZM728.313 73.916H676.541V81.916H728.313V73.916ZM672.541 77.916V104.404H680.541V77.916H672.541ZM676.541 108.404H747.921V100.404H676.541V108.404ZM743.921 104.404V129H751.921V104.404H743.921ZM747.921 125H651.429V133H747.921V125ZM655.429 129V2.23599H647.429V129H655.429ZM858.459 122.464L861.288 119.636L859.187 117.534L856.568 118.939L858.459 122.464ZM780.199 111.112L783.106 108.364L783.1 108.358L783.094 108.351L780.199 111.112ZM780.371 19.436L783.24 22.2239L783.252 22.211L783.265 22.1979L780.371 19.436ZM873.251 19.436L870.358 22.1979L870.37 22.2108L870.383 22.2235L873.251 19.436ZM877.551 106.124L874.409 103.649L872.21 106.44L874.723 108.952L877.551 106.124ZM888.903 117.476L891.732 120.304L894.56 117.476L891.732 114.648L888.903 117.476ZM871.187 135.192L868.359 138.02L871.187 140.849L874.016 138.02L871.187 135.192ZM839.539 103.716L840.557 107.584L847.245 105.824L842.385 100.905L839.539 103.716ZM825.607 89.612L822.779 86.7836L819.968 89.5947L822.762 92.423L825.607 89.612ZM843.323 71.896L846.152 69.0676L843.323 66.2391L840.495 69.0676L843.323 71.896ZM859.835 88.408L857.007 91.2364L860.516 94.7458L863.2 90.571L859.835 88.408ZM855.535 36.636L858.431 33.8762L858.428 33.8731L855.535 36.636ZM798.087 36.636L800.983 39.3958L800.992 39.386L801.001 39.3761L798.087 36.636ZM798.087 93.912L801.001 91.1719L800.992 91.162L800.983 91.1522L798.087 93.912ZM856.568 118.939C847.802 123.643 837.912 126.032 826.811 126.032V134.032C839.103 134.032 850.312 131.375 860.351 125.989L856.568 118.939ZM826.811 126.032C808.636 126.032 794.194 120.091 783.106 108.364L777.293 113.86C790.056 127.359 806.688 134.032 826.811 134.032V126.032ZM783.094 108.351C772.037 96.7581 766.483 82.5158 766.483 65.36H758.483C758.483 84.4389 764.74 100.698 777.305 113.873L783.094 108.351ZM766.483 65.36C766.483 47.9716 772.096 33.6892 783.24 22.2239L777.503 16.6481C764.796 29.7214 758.483 46.0551 758.483 65.36H766.483ZM783.265 22.1979C794.482 10.447 808.881 4.51599 826.811 4.51599V-3.48401C806.902 -3.48401 790.341 3.19831 777.478 16.6741L783.265 22.1979ZM826.811 4.51599C844.742 4.51599 859.141 10.447 870.358 22.1979L876.145 16.6741C863.282 3.19831 846.721 -3.48401 826.811 -3.48401V4.51599ZM870.383 22.2235C881.4 33.5616 886.967 47.8377 886.967 65.36H894.967C894.967 45.9596 888.724 29.6198 876.12 16.6485L870.383 22.2235ZM886.967 65.36C886.967 80.3766 882.744 93.07 874.409 103.649L880.693 108.599C890.247 96.474 894.967 81.9914 894.967 65.36H886.967ZM874.723 108.952L886.075 120.304L891.732 114.648L880.38 103.296L874.723 108.952ZM886.075 114.648L868.359 132.364L874.016 138.02L891.732 120.304L886.075 114.648ZM874.016 132.364L861.288 119.636L855.631 125.292L868.359 138.02L874.016 132.364ZM826.811 109.436C831.313 109.436 835.898 108.81 840.557 107.584L838.521 99.8477C834.466 100.915 830.566 101.436 826.811 101.436V109.436ZM842.385 100.905L828.453 86.801L822.762 92.423L836.694 106.527L842.385 100.905ZM828.436 92.4404L846.152 74.7244L840.495 69.0676L822.779 86.7836L828.436 92.4404ZM840.495 74.7244L857.007 91.2364L862.664 85.5796L846.152 69.0676L840.495 74.7244ZM863.2 90.571C867.81 83.4003 870.027 74.9369 870.027 65.36H862.027C862.027 73.6711 860.117 80.573 856.471 86.245L863.2 90.571ZM870.027 65.36C870.027 52.7035 866.251 42.0807 858.431 33.8763L852.64 39.3958C858.809 45.8686 862.027 54.3952 862.027 65.36H870.027ZM858.428 33.8731C850.246 25.308 839.58 21.112 826.811 21.112V29.112C837.664 29.112 846.147 32.5987 852.643 39.3989L858.428 33.8731ZM826.811 21.112C813.941 21.112 803.256 25.3004 795.173 33.8959L801.001 39.3761C807.367 32.6063 815.831 29.112 826.811 29.112V21.112ZM795.192 33.8762C787.372 42.0807 783.595 52.7035 783.595 65.36H791.595C791.595 54.3952 794.813 45.8686 800.983 39.3958L795.192 33.8762ZM783.595 65.36C783.595 77.9138 787.379 88.4747 795.192 96.6717L800.983 91.1522C794.806 84.6719 791.595 76.1982 791.595 65.36H783.595ZM795.173 96.6521C803.256 105.248 813.941 109.436 826.811 109.436V101.436C815.831 101.436 807.367 97.9417 801.001 91.1719L795.173 96.6521Z" fill="url(#paint0_linear_269_1797)"/>
<path d="M40.2434 26.66H44.2434V22.66H40.2434V26.66ZM0.167357 26.66H-3.83264V30.66H0.167357V26.66ZM0.167357 2.23599V-1.76401H-3.83264V2.23599H0.167357ZM105.259 2.23599H109.259V-1.76401H105.259V2.23599ZM105.259 26.66V30.66H109.259V26.66H105.259ZM65.1834 26.66V22.66H61.1834V26.66H65.1834ZM65.1834 129V133H69.1834V129H65.1834ZM40.2434 129H36.2434V133H40.2434V129ZM40.2434 22.66H0.167357V30.66H40.2434V22.66ZM4.16736 26.66V2.23599H-3.83264V26.66H4.16736ZM0.167357 6.23599H105.259V-1.76401H0.167357V6.23599ZM101.259 2.23599V26.66H109.259V2.23599H101.259ZM105.259 22.66H65.1834V30.66H105.259V22.66ZM61.1834 26.66V129H69.1834V26.66H61.1834ZM65.1834 125H40.2434V133H65.1834V125ZM44.2434 129V26.66H36.2434V129H44.2434ZM155.624 2.23599V-1.76401H152.977L151.943 0.67238L155.624 2.23599ZM179.876 2.23599L183.558 0.67238L182.523 -1.76401H179.876V2.23599ZM233.712 129V133H239.757L237.394 127.436L233.712 129ZM206.192 129L202.504 130.548L203.533 133H206.192V129ZM192.26 95.804L195.949 94.256L194.92 91.804H192.26V95.804ZM143.24 95.804V91.804H140.581L139.552 94.256L143.24 95.804ZM129.308 129V133H131.968L132.997 130.548L129.308 129ZM101.788 129L98.1067 127.436L95.7439 133H101.788V129ZM182.112 71.724V75.724H188.131L185.8 70.1751L182.112 71.724ZM167.664 37.324L171.352 35.7751L167.642 26.9417L163.97 35.7908L167.664 37.324ZM153.388 71.724L149.694 70.1908L147.398 75.724H153.388V71.724ZM155.624 6.23599H179.876V-1.76401H155.624V6.23599ZM176.195 3.7996L230.031 130.564L237.394 127.436L183.558 0.67238L176.195 3.7996ZM233.712 125H206.192V133H233.712V125ZM209.881 127.452L195.949 94.256L188.572 97.352L202.504 130.548L209.881 127.452ZM192.26 91.804H143.24V99.804H192.26V91.804ZM139.552 94.256L125.62 127.452L132.997 130.548L146.929 97.352L139.552 94.256ZM129.308 125H101.788V133H129.308V125ZM105.47 130.564L159.306 3.7996L151.943 0.67238L98.1067 127.436L105.47 130.564ZM185.8 70.1751L171.352 35.7751L163.977 38.8729L178.425 73.2729L185.8 70.1751ZM163.97 35.7908L149.694 70.1908L157.083 73.2572L171.359 38.8572L163.97 35.7908ZM153.388 75.724H182.112V67.724H153.388V75.724ZM338.348 122.464L341.176 119.636L339.075 117.534L336.456 118.939L338.348 122.464ZM260.088 111.112L262.994 108.364L262.988 108.358L262.982 108.351L260.088 111.112ZM260.26 19.436L263.128 22.2239L263.141 22.211L263.153 22.1979L260.26 19.436ZM353.14 19.436L350.246 22.1979L350.258 22.2108L350.271 22.2235L353.14 19.436ZM357.44 106.124L354.298 103.649L352.098 106.44L354.611 108.952L357.44 106.124ZM368.792 117.476L371.62 120.304L374.448 117.476L371.62 114.648L368.792 117.476ZM351.076 135.192L348.247 138.02L351.076 140.849L353.904 138.02L351.076 135.192ZM319.428 103.716L320.446 107.584L327.133 105.824L322.273 100.905L319.428 103.716ZM305.496 89.612L302.667 86.7836L299.856 89.5947L302.65 92.423L305.496 89.612ZM323.212 71.896L326.04 69.0676L323.212 66.2391L320.383 69.0676L323.212 71.896ZM339.724 88.408L336.895 91.2364L340.405 94.7458L343.088 90.571L339.724 88.408ZM335.424 36.636L338.319 33.8762L338.316 33.8731L335.424 36.636ZM277.976 36.636L280.871 39.3958L280.88 39.386L280.89 39.3761L277.976 36.636ZM277.976 93.912L280.89 91.1719L280.88 91.162L280.871 91.1522L277.976 93.912ZM336.456 118.939C327.69 123.643 317.8 126.032 306.7 126.032V134.032C318.991 134.032 330.2 131.375 340.239 125.989L336.456 118.939ZM306.7 126.032C288.524 126.032 274.082 120.091 262.994 108.364L257.181 113.86C269.944 127.359 286.576 134.032 306.7 134.032V126.032ZM262.982 108.351C251.926 96.7581 246.372 82.5158 246.372 65.36H238.372C238.372 84.4389 244.628 100.698 257.193 113.873L262.982 108.351ZM246.372 65.36C246.372 47.9716 251.984 33.6892 263.128 22.2239L257.391 16.6481C244.684 29.7214 238.372 46.0551 238.372 65.36H246.372ZM263.153 22.1979C274.37 10.447 288.769 4.51599 306.7 4.51599V-3.48401C286.79 -3.48401 270.229 3.19831 257.366 16.6741L263.153 22.1979ZM306.7 4.51599C324.63 4.51599 339.029 10.447 350.246 22.1979L356.033 16.6741C343.17 3.19831 326.609 -3.48401 306.7 -3.48401V4.51599ZM350.271 22.2235C361.288 33.5616 366.856 47.8377 366.856 65.36H374.856C374.856 45.9596 368.613 29.6198 356.008 16.6485L350.271 22.2235ZM366.856 65.36C366.856 80.3766 362.632 93.07 354.298 103.649L360.582 108.599C370.135 96.474 374.856 81.9914 374.856 65.36H366.856ZM354.611 108.952L365.963 120.304L371.62 114.648L360.268 103.296L354.611 108.952ZM365.963 114.648L348.247 132.364L353.904 138.02L371.62 120.304L365.963 114.648ZM353.904 132.364L341.176 119.636L335.519 125.292L348.247 138.02L353.904 132.364ZM306.7 109.436C311.201 109.436 315.786 108.81 320.446 107.584L318.41 99.8477C314.354 100.915 310.454 101.436 306.7 101.436V109.436ZM322.273 100.905L308.341 86.801L302.65 92.423L316.582 106.527L322.273 100.905ZM308.324 92.4404L326.04 74.7244L320.383 69.0676L302.667 86.7836L308.324 92.4404ZM320.383 74.7244L336.895 91.2364L342.552 85.5796L326.04 69.0676L320.383 74.7244ZM343.088 90.571C347.698 83.4003 349.916 74.9369 349.916 65.36H341.916C341.916 73.6711 340.005 80.573 336.359 86.245L343.088 90.571ZM349.916 65.36C349.916 52.7035 346.139 42.0807 338.319 33.8763L332.528 39.3958C338.698 45.8686 341.916 54.3952 341.916 65.36H349.916ZM338.316 33.8731C330.134 25.308 319.468 21.112 306.7 21.112V29.112C317.552 29.112 326.035 32.5987 332.531 39.3989L338.316 33.8731ZM306.7 21.112C293.83 21.112 283.144 25.3004 275.061 33.8959L280.89 39.3761C287.255 32.6063 295.719 29.112 306.7 29.112V21.112ZM275.08 33.8762C267.26 42.0807 263.484 52.7035 263.484 65.36H271.484C271.484 54.3952 274.702 45.8686 280.871 39.3958L275.08 33.8762ZM263.484 65.36C263.484 77.9138 267.267 88.4747 275.08 96.6717L280.871 91.1522C274.694 84.6719 271.484 76.1982 271.484 65.36H263.484ZM275.061 96.6521C283.144 105.248 293.83 109.436 306.7 109.436V101.436C295.719 101.436 287.255 97.9417 280.89 91.1719L275.061 96.6521ZM394.061 2.23599V-1.76401H390.061V2.23599H394.061ZM418.141 2.23599L421.362 -0.135456L420.163 -1.76401H418.141V2.23599ZM480.061 86.344L476.84 88.7154L484.061 98.5243V86.344H480.061ZM480.061 2.23599V-1.76401H476.061V2.23599H480.061ZM505.173 2.23599H509.173V-1.76401H505.173V2.23599ZM505.173 129V133H509.173V129H505.173ZM480.921 129L477.692 131.361L478.89 133H480.921V129ZM419.173 44.548L422.402 42.1871L415.173 32.3001V44.548H419.173ZM419.173 129V133H423.173V129H419.173ZM394.061 129H390.061V133H394.061V129ZM394.061 6.23599H418.141V-1.76401H394.061V6.23599ZM414.92 4.60744L476.84 88.7154L483.282 83.9725L421.362 -0.135456L414.92 4.60744ZM484.061 86.344V2.23599H476.061V86.344H484.061ZM480.061 6.23599H505.173V-1.76401H480.061V6.23599ZM501.173 2.23599V129H509.173V2.23599H501.173ZM505.173 125H480.921V133H505.173V125ZM484.15 126.639L422.402 42.1871L415.944 46.9089L477.692 131.361L484.15 126.639ZM415.173 44.548V129H423.173V44.548H415.173ZM419.173 125H394.061V133H419.173V125ZM398.061 129V2.23599H390.061V129H398.061ZM533.495 2.23599V-1.76401H529.495V2.23599H533.495ZM629.987 2.23599H633.987V-1.76401H629.987V2.23599ZM629.987 26.66V30.66H633.987V26.66H629.987ZM558.607 26.66V22.66H554.607V26.66H558.607ZM558.607 53.148H554.607V57.148H558.607V53.148ZM610.379 53.148H614.379V49.148H610.379V53.148ZM610.379 77.916V81.916H614.379V77.916H610.379ZM558.607 77.916V73.916H554.607V77.916H558.607ZM558.607 104.404H554.607V108.404H558.607V104.404ZM629.987 104.404H633.987V100.404H629.987V104.404ZM629.987 129V133H633.987V129H629.987ZM533.495 129H529.495V133H533.495V129ZM533.495 6.23599H629.987V-1.76401H533.495V6.23599ZM625.987 2.23599V26.66H633.987V2.23599H625.987ZM629.987 22.66H558.607V30.66H629.987V22.66ZM554.607 26.66V53.148H562.607V26.66H554.607ZM558.607 57.148H610.379V49.148H558.607V57.148ZM606.379 53.148V77.916H614.379V53.148H606.379ZM610.379 73.916H558.607V81.916H610.379V73.916ZM554.607 77.916V104.404H562.607V77.916H554.607ZM558.607 108.404H629.987V100.404H558.607V108.404ZM625.987 104.404V129H633.987V104.404H625.987ZM629.987 125H533.495V133H629.987V125ZM537.495 129V2.23599H529.495V129H537.495ZM651.429 2.23599V-1.76401H647.429V2.23599H651.429ZM747.921 2.23599H751.921V-1.76401H747.921V2.23599ZM747.921 26.66V30.66H751.921V26.66H747.921ZM676.541 26.66V22.66H672.541V26.66H676.541ZM676.541 53.148H672.541V57.148H676.541V53.148ZM728.313 53.148H732.313V49.148H728.313V53.148ZM728.313 77.916V81.916H732.313V77.916H728.313ZM676.541 77.916V73.916H672.541V77.916H676.541ZM676.541 104.404H672.541V108.404H676.541V104.404ZM747.921 104.404H751.921V100.404H747.921V104.404ZM747.921 129V133H751.921V129H747.921ZM651.429 129H647.429V133H651.429V129ZM651.429 6.23599H747.921V-1.76401H651.429V6.23599ZM743.921 2.23599V26.66H751.921V2.23599H743.921ZM747.921 22.66H676.541V30.66H747.921V22.66ZM672.541 26.66V53.148H680.541V26.66H672.541ZM676.541 57.148H728.313V49.148H676.541V57.148ZM724.313 53.148V77.916H732.313V53.148H724.313ZM728.313 73.916H676.541V81.916H728.313V73.916ZM672.541 77.916V104.404H680.541V77.916H672.541ZM676.541 108.404H747.921V100.404H676.541V108.404ZM743.921 104.404V129H751.921V104.404H743.921ZM747.921 125H651.429V133H747.921V125ZM655.429 129V2.23599H647.429V129H655.429ZM858.459 122.464L861.288 119.636L859.187 117.534L856.568 118.939L858.459 122.464ZM780.199 111.112L783.106 108.364L783.1 108.358L783.094 108.351L780.199 111.112ZM780.371 19.436L783.24 22.2239L783.252 22.211L783.265 22.1979L780.371 19.436ZM873.251 19.436L870.358 22.1979L870.37 22.2108L870.383 22.2235L873.251 19.436ZM877.551 106.124L874.409 103.649L872.21 106.44L874.723 108.952L877.551 106.124ZM888.903 117.476L891.732 120.304L894.56 117.476L891.732 114.648L888.903 117.476ZM871.187 135.192L868.359 138.02L871.187 140.849L874.016 138.02L871.187 135.192ZM839.539 103.716L840.557 107.584L847.245 105.824L842.385 100.905L839.539 103.716ZM825.607 89.612L822.779 86.7836L819.968 89.5947L822.762 92.423L825.607 89.612ZM843.323 71.896L846.152 69.0676L843.323 66.2391L840.495 69.0676L843.323 71.896ZM859.835 88.408L857.007 91.2364L860.516 94.7458L863.2 90.571L859.835 88.408ZM855.535 36.636L858.431 33.8762L858.428 33.8731L855.535 36.636ZM798.087 36.636L800.983 39.3958L800.992 39.386L801.001 39.3761L798.087 36.636ZM798.087 93.912L801.001 91.1719L800.992 91.162L800.983 91.1522L798.087 93.912ZM856.568 118.939C847.802 123.643 837.912 126.032 826.811 126.032V134.032C839.103 134.032 850.312 131.375 860.351 125.989L856.568 118.939ZM826.811 126.032C808.636 126.032 794.194 120.091 783.106 108.364L777.293 113.86C790.056 127.359 806.688 134.032 826.811 134.032V126.032ZM783.094 108.351C772.037 96.7581 766.483 82.5158 766.483 65.36H758.483C758.483 84.4389 764.74 100.698 777.305 113.873L783.094 108.351ZM766.483 65.36C766.483 47.9716 772.096 33.6892 783.24 22.2239L777.503 16.6481C764.796 29.7214 758.483 46.0551 758.483 65.36H766.483ZM783.265 22.1979C794.482 10.447 808.881 4.51599 826.811 4.51599V-3.48401C806.902 -3.48401 790.341 3.19831 777.478 16.6741L783.265 22.1979ZM826.811 4.51599C844.742 4.51599 859.141 10.447 870.358 22.1979L876.145 16.6741C863.282 3.19831 846.721 -3.48401 826.811 -3.48401V4.51599ZM870.383 22.2235C881.4 33.5616 886.967 47.8377 886.967 65.36H894.967C894.967 45.9596 888.724 29.6198 876.12 16.6485L870.383 22.2235ZM886.967 65.36C886.967 80.3766 882.744 93.07 874.409 103.649L880.693 108.599C890.247 96.474 894.967 81.9914 894.967 65.36H886.967ZM874.723 108.952L886.075 120.304L891.732 114.648L880.38 103.296L874.723 108.952ZM886.075 114.648L868.359 132.364L874.016 138.02L891.732 120.304L886.075 114.648ZM874.016 132.364L861.288 119.636L855.631 125.292L868.359 138.02L874.016 132.364ZM826.811 109.436C831.313 109.436 835.898 108.81 840.557 107.584L838.521 99.8477C834.466 100.915 830.566 101.436 826.811 101.436V109.436ZM842.385 100.905L828.453 86.801L822.762 92.423L836.694 106.527L842.385 100.905ZM828.436 92.4404L846.152 74.7244L840.495 69.0676L822.779 86.7836L828.436 92.4404ZM840.495 74.7244L857.007 91.2364L862.664 85.5796L846.152 69.0676L840.495 74.7244ZM863.2 90.571C867.81 83.4003 870.027 74.9369 870.027 65.36H862.027C862.027 73.6711 860.117 80.573 856.471 86.245L863.2 90.571ZM870.027 65.36C870.027 52.7035 866.251 42.0807 858.431 33.8763L852.64 39.3958C858.809 45.8686 862.027 54.3952 862.027 65.36H870.027ZM858.428 33.8731C850.246 25.308 839.58 21.112 826.811 21.112V29.112C837.664 29.112 846.147 32.5987 852.643 39.3989L858.428 33.8731ZM826.811 21.112C813.941 21.112 803.256 25.3004 795.173 33.8959L801.001 39.3761C807.367 32.6063 815.831 29.112 826.811 29.112V21.112ZM795.192 33.8762C787.372 42.0807 783.595 52.7035 783.595 65.36H791.595C791.595 54.3952 794.813 45.8686 800.983 39.3958L795.192 33.8762ZM783.595 65.36C783.595 77.9138 787.379 88.4747 795.192 96.6717L800.983 91.1522C794.806 84.6719 791.595 76.1982 791.595 65.36H783.595ZM795.173 96.6521C803.256 105.248 813.941 109.436 826.811 109.436V101.436C815.831 101.436 807.367 97.9417 801.001 91.1719L795.173 96.6521Z" fill="black" fill-opacity="0.3"/>
<defs>
<linearGradient id="paint0_linear_269_1797" x1="5.07144" y1="60.5" x2="721.031" y2="-297.459" gradientUnits="userSpaceOnUse">
<stop stop-color="#F24D56"/>
<stop offset="0.509216" stop-color="#EE0C77"/>
<stop offset="0.964829" stop-color="#F24D56"/>
</linearGradient>
</defs>
</svg>
