<svg width="30" height="30" viewBox="0 0 30 30" fill="none" xmlns="http://www.w3.org/2000/svg">
<path d="M15 26.25C21.2132 26.25 26.25 21.2132 26.25 15C26.25 8.7868 21.2132 3.75 15 3.75C8.7868 3.75 3.75 8.7868 3.75 15C3.75 21.2132 8.7868 26.25 15 26.25Z" stroke="#F7F7F7" stroke-width="2" stroke-miterlimit="10"/>
<path d="M4.39453 11.25H25.6055" stroke="#F7F7F7" stroke-width="2" stroke-linecap="round" stroke-linejoin="round"/>
<path d="M4.39453 18.75H25.6055" stroke="#F7F7F7" stroke-width="2" stroke-linecap="round" stroke-linejoin="round"/>
<path d="M15 25.9453C17.5888 25.9453 19.6875 21.0449 19.6875 15C19.6875 8.95509 17.5888 4.0547 15 4.0547C12.4112 4.0547 10.3125 8.95509 10.3125 15C10.3125 21.0449 12.4112 25.9453 15 25.9453Z" stroke="#F7F7F7" stroke-width="2" stroke-miterlimit="10"/>
</svg>
