<svg width="798" height="262" viewBox="0 0 798 262" fill="none" xmlns="http://www.w3.org/2000/svg">
<mask id="path-1-outside-1_18_61" maskUnits="userSpaceOnUse" x="1" y="17" width="796" height="236" fill="black">
<rect fill="white" x="1" y="17" width="796" height="236"/>
<path d="M210.414 117.768C196.334 117.768 185.113 113.032 176.75 103.56C168.643 94.4293 164.59 83.08 164.59 69.512C164.59 55.944 168.643 44.6373 176.75 35.592C185.283 26.12 196.505 21.384 210.414 21.384C220.483 21.384 229.529 24.1573 237.55 29.704C244.377 34.312 249.411 40.84 252.654 49.288L236.014 56.84H235.886L234.734 54.152C232.857 49.7147 229.998 46.216 226.158 43.656C222.233 41.0107 217.71 39.688 212.59 39.688C207.129 39.688 202.649 40.456 199.15 41.992C195.651 43.528 192.75 45.576 190.446 48.136C185.667 53.512 183.278 60.6373 183.278 69.512C183.278 78.216 185.667 85.3413 190.446 90.888C195.31 96.52 202.691 99.336 212.59 99.336C217.881 99.336 222.403 98.056 226.158 95.496C230.169 92.8507 233.027 89.352 234.734 85L235.886 82.184H236.014L252.654 89.864C249.326 98.1413 244.291 104.669 237.55 109.448C229.614 114.995 220.569 117.768 210.414 117.768ZM298.936 80.136L259 22.664H281.656L308.152 60.808L334.776 22.664H357.432L317.624 80.136V117H298.936V80.136ZM368.99 22.664H411.742C422.238 22.664 430.345 25.608 436.062 31.496C440.841 36.2747 443.23 42.3333 443.23 49.672C443.23 57.5227 440.883 63.7093 436.19 68.232C440.627 71.2187 443.827 75.144 445.79 80.008C446.985 82.7387 447.582 86.1093 447.582 90.12C447.582 96.264 445.918 101.469 442.59 105.736C439.347 109.917 434.526 112.989 428.126 114.952C424.286 116.317 419.55 117 413.918 117H368.99V22.664ZM411.742 60.808C417.886 60.808 421.854 58.9307 423.646 55.176C424.243 53.9813 424.542 52.616 424.542 51.08C424.542 49.1173 424.329 47.6667 423.902 46.728C423.475 45.6187 422.878 44.68 422.11 43.912C420.062 41.7787 416.947 40.712 412.766 40.712H387.678V60.808H411.742ZM415.07 98.824C420.019 98.824 423.646 97.928 425.95 96.136C427.998 94.6 429.022 92.3387 429.022 89.352C429.022 86.3653 427.955 83.9333 425.822 82.056C423.262 79.752 419.294 78.6 413.918 78.6H387.678V98.824H415.07ZM463.63 22.664H535.438V40.84H482.318V60.552H520.846V78.984H482.318V98.696H535.438V117H463.63V22.664ZM551.395 22.664H596.835C606.563 22.664 614.542 25.4373 620.771 30.984C626.915 36.616 629.987 44.2107 629.987 53.768C629.987 59.9973 628.622 65.3307 625.891 69.768C623.246 74.12 619.32 77.448 614.115 79.752L611.683 80.648L633.443 117H611.427L592.611 84.232H570.083V117H551.395V22.664ZM595.043 66.056C602.467 66.056 607.502 63.9653 610.147 59.784C611 58.248 611.427 56.2427 611.427 53.768C611.427 49.8427 610.104 46.728 607.459 44.424C604.472 41.9493 600.504 40.712 595.555 40.712H570.083V66.056H595.043ZM51.064 248.768C36.984 248.768 25.7627 244.032 17.4 234.56C9.29333 225.429 5.24 214.08 5.24 200.512C5.24 186.944 9.29333 175.637 17.4 166.592C25.9333 157.12 37.1547 152.384 51.064 152.384C61.1333 152.384 70.1787 155.157 78.2 160.704C85.0267 165.312 90.0613 171.84 93.304 180.288L76.664 187.84H76.536L75.384 185.152C73.5067 180.715 70.648 177.216 66.808 174.656C62.8827 172.011 58.36 170.688 53.24 170.688C47.7787 170.688 43.2987 171.456 39.8 172.992C36.3013 174.528 33.4 176.576 31.096 179.136C26.3173 184.512 23.928 191.637 23.928 200.512C23.928 209.216 26.3173 216.341 31.096 221.888C35.96 227.52 43.3413 230.336 53.24 230.336C58.5307 230.336 63.0533 229.056 66.808 226.496C70.8187 223.851 73.6773 220.352 75.384 216L76.536 213.184H76.664L93.304 220.864C89.976 229.141 84.9413 235.669 78.2 240.448C70.264 245.995 61.2187 248.768 51.064 248.768ZM139.586 211.136L99.65 153.664H122.306L148.802 191.808L175.426 153.664H198.082L158.274 211.136V248H139.586V211.136ZM209.64 153.664H252.52C262.675 153.664 270.909 156.565 277.224 162.368C283.368 168.085 286.44 175.808 286.44 185.536C286.44 195.264 283.325 203.072 277.096 208.96C270.867 214.677 262.675 217.536 252.52 217.536H228.328V248H209.64V153.664ZM251.88 199.616C257.341 199.616 261.395 198.379 264.04 195.904C266.6 193.429 267.88 190.016 267.88 185.664C267.88 181.227 266.6 177.813 264.04 175.424C261.395 172.949 257.341 171.712 251.88 171.712H228.328V199.616H251.88ZM299.905 153.664H318.593V191.552H359.297V153.664H377.857V248H359.297V209.984H318.593V248H299.905V153.664ZM398.92 153.664H470.728V171.84H417.608V191.552H456.136V209.984H417.608V229.696H470.728V248H398.92V153.664ZM486.685 153.664H532.125C541.853 153.664 549.832 156.437 556.061 161.984C562.205 167.616 565.277 175.211 565.277 184.768C565.277 190.997 563.912 196.331 561.181 200.768C558.536 205.12 554.61 208.448 549.405 210.752L546.973 211.648L568.733 248H546.717L527.901 215.232H505.373V248H486.685V153.664ZM530.333 197.056C537.757 197.056 542.792 194.965 545.437 190.784C546.29 189.248 546.717 187.243 546.717 184.768C546.717 180.843 545.394 177.728 542.749 175.424C539.762 172.949 535.794 171.712 530.845 171.712H505.373V197.056H530.333ZM647.676 248.768C638.631 248.768 630.78 246.165 624.124 240.96C617.297 235.584 613.5 228.971 612.732 221.12L612.22 216.256H630.78L631.42 219.968C631.932 222.869 633.596 225.259 636.412 227.136C639.569 229.269 643.324 230.336 647.676 230.336C652.455 230.336 656.252 229.184 659.068 226.88C661.372 224.832 662.524 222.187 662.524 218.944C662.524 215.957 661.287 213.312 658.812 211.008C655.996 208.448 652.583 207.168 648.572 207.168H634.236V189.376H647.42C650.748 189.376 653.735 188.395 656.38 186.432C658.599 184.725 659.708 182.549 659.708 179.904C659.708 177.173 658.769 174.997 656.892 173.376C654.929 171.584 651.772 170.688 647.42 170.688C642.983 170.688 639.612 171.584 637.308 173.376C635.004 175.168 633.681 177.088 633.34 179.136L632.7 182.848H614.524L615.036 177.856C615.633 171.115 618.748 165.269 624.38 160.32C630.439 155.029 637.948 152.384 646.908 152.384C656.209 152.384 663.761 154.901 669.564 159.936C675.367 164.971 678.268 171.499 678.268 179.52C678.268 184.725 676.519 189.504 673.02 193.856C671.655 195.563 670.631 196.757 669.948 197.44C672.252 198.976 674.343 200.981 676.22 203.456C679.548 208.235 681.212 213.099 681.212 218.048C681.212 222.997 680.273 227.349 678.396 231.104C676.945 234.261 674.513 237.419 671.1 240.576C665.127 246.037 657.319 248.768 647.676 248.768ZM692.11 225.472H712.974V248H692.11V225.472ZM758.307 248.768C745.507 248.768 736.547 244.117 731.427 234.816C726.392 225.515 723.875 214.08 723.875 200.512C723.875 187.029 726.392 175.637 731.427 166.336C736.462 157.035 745.294 152.384 757.923 152.384C770.808 152.384 780.195 157.675 786.083 168.256C790.52 176.363 792.739 187.115 792.739 200.512C792.739 214.08 790.179 225.515 785.059 234.816C780.024 244.117 771.107 248.768 758.307 248.768ZM757.795 230.336C761.55 230.336 764.835 229.141 767.651 226.752C770.467 224.277 772.344 219.371 773.283 212.032C773.795 208.192 774.051 204.352 774.051 200.512C774.051 190.016 772.643 182.165 769.827 176.96C767.523 172.779 763.683 170.688 758.307 170.688C752.76 170.688 748.878 172.779 746.659 176.96C743.928 181.995 742.563 189.845 742.563 200.512C742.563 211.605 743.928 219.499 746.659 224.192C748.963 228.288 752.675 230.336 757.795 230.336Z"/>
</mask>
<path d="M176.75 103.56L179.749 100.913L179.741 100.904L176.75 103.56ZM176.75 35.592L173.778 32.9146L173.771 32.9224L176.75 35.592ZM237.55 29.704L235.275 32.994L235.293 33.0068L235.312 33.0194L237.55 29.704ZM252.654 49.288L254.307 52.9304L257.739 51.3729L256.388 47.8546L252.654 49.288ZM236.014 56.84V60.84H236.879L237.667 60.4824L236.014 56.84ZM235.886 56.84L232.209 58.4157L233.248 60.84H235.886V56.84ZM234.734 54.152L231.05 55.7106L231.054 55.7191L231.057 55.7277L234.734 54.152ZM226.158 43.656L223.923 46.9731L223.931 46.9787L223.939 46.9842L226.158 43.656ZM199.15 41.992L197.542 38.3294L197.542 38.3294L199.15 41.992ZM190.446 48.136L187.473 45.4601L187.465 45.4693L187.456 45.4785L190.446 48.136ZM190.446 90.888L187.416 93.4988L187.419 93.5025L190.446 90.888ZM226.158 95.496L223.956 92.1569L223.93 92.1738L223.905 92.1911L226.158 95.496ZM234.734 85L231.032 83.4855L231.021 83.5125L231.01 83.5397L234.734 85ZM235.886 82.184V78.184H233.201L232.184 80.6695L235.886 82.184ZM236.014 82.184L237.69 78.5522L236.893 78.184H236.014V82.184ZM252.654 89.864L256.365 91.3562L257.784 87.8264L254.33 86.2322L252.654 89.864ZM237.55 109.448L239.841 112.727L239.852 112.719L239.863 112.711L237.55 109.448ZM210.414 113.768C197.335 113.768 187.26 109.421 179.749 100.913L173.751 106.207C182.965 116.643 195.333 121.768 210.414 121.768V113.768ZM179.741 100.904C172.358 92.5887 168.59 82.2183 168.59 69.512H160.59C160.59 83.9417 164.928 96.27 173.759 106.216L179.741 100.904ZM168.59 69.512C168.59 56.8052 172.358 46.4858 179.729 38.2616L173.771 32.9224C164.929 42.7888 160.59 55.0828 160.59 69.512H168.59ZM179.722 38.2693C187.423 29.7215 197.522 25.384 210.414 25.384V17.384C195.487 17.384 183.144 22.5185 173.778 32.9147L179.722 38.2693ZM210.414 25.384C219.699 25.384 227.945 27.9254 235.275 32.994L239.825 26.414C231.112 20.3892 221.268 17.384 210.414 17.384V25.384ZM235.312 33.0194C241.392 37.1231 245.941 42.9602 248.92 50.7214L256.388 47.8546C252.882 38.7198 247.362 31.5009 239.788 26.3886L235.312 33.0194ZM251.001 45.6456L234.361 53.1976L237.667 60.4824L254.307 52.9304L251.001 45.6456ZM236.014 52.84H235.886V60.84H236.014V52.84ZM239.563 55.2643L238.411 52.5763L231.057 55.7277L232.209 58.4157L239.563 55.2643ZM238.418 52.5934C236.25 47.4691 232.897 43.3414 228.377 40.3278L223.939 46.9842C227.099 49.0906 229.463 51.9602 231.05 55.7106L238.418 52.5934ZM228.393 40.3389C223.753 37.2119 218.438 35.688 212.59 35.688V43.688C216.982 43.688 220.712 44.8095 223.923 46.9731L228.393 40.3389ZM212.59 35.688C206.795 35.688 201.716 36.4969 197.542 38.3294L200.758 45.6546C203.581 44.4151 207.462 43.688 212.59 43.688V35.688ZM197.542 38.3294C193.581 40.0686 190.196 42.4339 187.473 45.4601L193.419 50.8119C195.304 48.7181 197.722 46.9874 200.758 45.6546L197.542 38.3294ZM187.456 45.4785C181.884 51.7475 179.278 59.8964 179.278 69.512H187.278C187.278 61.3782 189.451 55.2765 193.436 50.7934L187.456 45.4785ZM179.278 69.512C179.278 78.9843 181.898 87.094 187.416 93.4988L193.476 88.2772C189.437 83.5886 187.278 77.4477 187.278 69.512H179.278ZM187.419 93.5025C193.273 100.281 201.935 103.336 212.59 103.336V95.336C203.447 95.336 197.347 92.7588 193.473 88.2735L187.419 93.5025ZM212.59 103.336C218.549 103.336 223.889 101.885 228.411 98.8009L223.905 92.1911C220.918 94.2274 217.212 95.336 212.59 95.336V103.336ZM228.36 98.8351C233.039 95.7489 236.441 91.603 238.458 86.4603L231.01 83.5397C229.614 87.101 227.298 89.9524 223.956 92.1569L228.36 98.8351ZM238.436 86.5145L239.588 83.6985L232.184 80.6695L231.032 83.4855L238.436 86.5145ZM235.886 86.184H236.014V78.184H235.886V86.184ZM234.338 85.8158L250.978 93.4958L254.33 86.2322L237.69 78.5522L234.338 85.8158ZM248.943 88.3718C245.877 95.996 241.302 101.886 235.237 106.185L239.863 112.711C247.281 107.453 252.775 100.287 256.365 91.3562L248.943 88.3718ZM235.259 106.169C228.028 111.223 219.791 113.768 210.414 113.768V121.768C221.346 121.768 231.2 118.767 239.841 112.727L235.259 106.169ZM298.936 80.136H302.936V78.8827L302.221 77.8535L298.936 80.136ZM259 22.664V18.664H251.35L255.715 24.9465L259 22.664ZM281.656 22.664L284.941 20.382L283.748 18.664H281.656V22.664ZM308.152 60.808L304.867 63.09L308.144 67.808L311.432 63.0974L308.152 60.808ZM334.776 22.664V18.664H332.69L331.496 20.3746L334.776 22.664ZM357.432 22.664L360.72 24.9416L365.068 18.664H357.432V22.664ZM317.624 80.136L314.336 77.8584L313.624 78.886V80.136H317.624ZM317.624 117V121H321.624V117H317.624ZM298.936 117H294.936V121H298.936V117ZM302.221 77.8535L262.285 20.3815L255.715 24.9465L295.651 82.4185L302.221 77.8535ZM259 26.664H281.656V18.664H259V26.664ZM278.371 24.946L304.867 63.09L311.437 58.526L284.941 20.382L278.371 24.946ZM311.432 63.0974L338.056 24.9534L331.496 20.3746L304.872 58.5186L311.432 63.0974ZM334.776 26.664H357.432V18.664H334.776V26.664ZM354.144 20.3864L314.336 77.8584L320.912 82.4136L360.72 24.9416L354.144 20.3864ZM313.624 80.136V117H321.624V80.136H313.624ZM317.624 113H298.936V121H317.624V113ZM302.936 117V80.136H294.936V117H302.936ZM368.99 22.664V18.664H364.99V22.664H368.99ZM436.062 31.496L433.192 34.2825L433.213 34.3036L433.234 34.3244L436.062 31.496ZM436.19 68.232L433.414 65.3517L429.85 68.7864L433.956 71.5503L436.19 68.232ZM445.79 80.008L442.081 81.5048L442.102 81.5583L442.125 81.6113L445.79 80.008ZM442.59 105.736L439.436 103.276L439.429 103.285L442.59 105.736ZM428.126 114.952L426.953 111.128L426.869 111.154L426.786 111.183L428.126 114.952ZM368.99 117H364.99V121H368.99V117ZM423.646 55.176L420.068 53.3872L420.052 53.42L420.036 53.4531L423.646 55.176ZM423.902 46.728L420.169 48.1639L420.211 48.2749L420.261 48.3832L423.902 46.728ZM422.11 43.912L419.224 46.6821L419.253 46.7116L419.282 46.7404L422.11 43.912ZM387.678 40.712V36.712H383.678V40.712H387.678ZM387.678 60.808H383.678V64.808H387.678V60.808ZM425.95 96.136L423.55 92.936L423.522 92.9571L423.494 92.9786L425.95 96.136ZM425.822 82.056L423.146 85.0292L423.163 85.0441L423.179 85.0589L425.822 82.056ZM387.678 78.6V74.6H383.678V78.6H387.678ZM387.678 98.824H383.678V102.824H387.678V98.824ZM368.99 26.664H411.742V18.664H368.99V26.664ZM411.742 26.664C421.474 26.664 428.424 29.3718 433.192 34.2825L438.932 28.7095C432.265 21.8442 423.002 18.664 411.742 18.664V26.664ZM433.234 34.3244C437.194 38.2847 439.23 43.2937 439.23 49.672H447.23C447.23 41.373 444.487 34.2646 438.89 28.6676L433.234 34.3244ZM439.23 49.672C439.23 56.675 437.169 61.7341 433.414 65.3517L438.966 71.1123C444.598 65.6846 447.23 58.3703 447.23 49.672H439.23ZM433.956 71.5503C437.745 74.1003 440.423 77.3972 442.081 81.5048L449.499 78.5112C447.232 72.8908 443.51 68.3371 438.424 64.9136L433.956 71.5503ZM442.125 81.6113C443.037 83.6939 443.582 86.481 443.582 90.12H451.582C451.582 85.7377 450.933 81.7834 449.455 78.4047L442.125 81.6113ZM443.582 90.12C443.582 95.4995 442.143 99.806 439.436 103.276L445.744 108.196C449.693 103.133 451.582 97.0285 451.582 90.12H443.582ZM439.429 103.285C436.811 106.66 432.775 109.343 426.953 111.128L429.299 118.776C436.277 116.636 441.883 113.174 445.751 108.187L439.429 103.285ZM426.786 111.183C423.506 112.349 419.255 113 413.918 113V121C419.845 121 425.066 120.285 429.466 118.721L426.786 111.183ZM413.918 113H368.99V121H413.918V113ZM372.99 117V22.664H364.99V117H372.99ZM411.742 64.808C418.595 64.808 424.504 62.665 427.256 56.8989L420.036 53.4531C419.204 55.1963 417.177 56.808 411.742 56.808V64.808ZM427.224 56.9648C428.138 55.1369 428.542 53.1436 428.542 51.08H420.542C420.542 52.0884 420.349 52.8258 420.068 53.3872L427.224 56.9648ZM428.542 51.08C428.542 48.9703 428.335 46.8134 427.543 45.0728L420.261 48.3832C420.26 48.3827 420.284 48.4363 420.318 48.5629C420.352 48.6883 420.39 48.8649 420.425 49.102C420.495 49.5826 420.542 50.2327 420.542 51.08H428.542ZM427.635 45.2921C427.027 43.7101 426.138 42.2833 424.938 41.0836L419.282 46.7404C419.618 47.0767 419.924 47.5272 420.169 48.1639L427.635 45.2921ZM424.996 41.1419C421.926 37.9441 417.578 36.712 412.766 36.712V44.712C416.317 44.712 418.198 45.6133 419.224 46.6821L424.996 41.1419ZM412.766 36.712H387.678V44.712H412.766V36.712ZM383.678 40.712V60.808H391.678V40.712H383.678ZM387.678 64.808H411.742V56.808H387.678V64.808ZM415.07 102.824C420.347 102.824 425.058 101.898 428.406 99.2934L423.494 92.9786C422.234 93.9585 419.691 94.824 415.07 94.824V102.824ZM428.35 99.336C431.582 96.9124 433.022 93.3597 433.022 89.352H425.022C425.022 91.3176 424.414 92.2876 423.55 92.936L428.35 99.336ZM433.022 89.352C433.022 85.2824 431.51 81.7328 428.465 79.0531L423.179 85.0589C424.401 86.1339 425.022 87.4482 425.022 89.352H433.022ZM428.498 79.0828C424.887 75.8327 419.751 74.6 413.918 74.6V82.6C418.837 82.6 421.637 83.6713 423.146 85.0292L428.498 79.0828ZM413.918 74.6H387.678V82.6H413.918V74.6ZM383.678 78.6V98.824H391.678V78.6H383.678ZM387.678 102.824H415.07V94.824H387.678V102.824ZM463.63 22.664V18.664H459.63V22.664H463.63ZM535.438 22.664H539.438V18.664H535.438V22.664ZM535.438 40.84V44.84H539.438V40.84H535.438ZM482.318 40.84V36.84H478.318V40.84H482.318ZM482.318 60.552H478.318V64.552H482.318V60.552ZM520.846 60.552H524.846V56.552H520.846V60.552ZM520.846 78.984V82.984H524.846V78.984H520.846ZM482.318 78.984V74.984H478.318V78.984H482.318ZM482.318 98.696H478.318V102.696H482.318V98.696ZM535.438 98.696H539.438V94.696H535.438V98.696ZM535.438 117V121H539.438V117H535.438ZM463.63 117H459.63V121H463.63V117ZM463.63 26.664H535.438V18.664H463.63V26.664ZM531.438 22.664V40.84H539.438V22.664H531.438ZM535.438 36.84H482.318V44.84H535.438V36.84ZM478.318 40.84V60.552H486.318V40.84H478.318ZM482.318 64.552H520.846V56.552H482.318V64.552ZM516.846 60.552V78.984H524.846V60.552H516.846ZM520.846 74.984H482.318V82.984H520.846V74.984ZM478.318 78.984V98.696H486.318V78.984H478.318ZM482.318 102.696H535.438V94.696H482.318V102.696ZM531.438 98.696V117H539.438V98.696H531.438ZM535.438 113H463.63V121H535.438V113ZM467.63 117V22.664H459.63V117H467.63ZM551.395 22.664V18.664H547.395V22.664H551.395ZM620.771 30.984L623.474 28.0354L623.453 28.0158L623.431 27.9966L620.771 30.984ZM625.891 69.768L622.484 67.6716L622.479 67.681L622.473 67.6903L625.891 69.768ZM614.115 79.752L615.498 83.5054L615.617 83.4613L615.734 83.4097L614.115 79.752ZM611.683 80.648L610.3 76.8946L605.773 78.5626L608.251 82.7024L611.683 80.648ZM633.443 117V121H640.499L636.875 114.946L633.443 117ZM611.427 117L607.958 118.992L609.111 121H611.427V117ZM592.611 84.232L596.08 82.2402L594.927 80.232H592.611V84.232ZM570.083 84.232V80.232H566.083V84.232H570.083ZM570.083 117V121H574.083V117H570.083ZM551.395 117H547.395V121H551.395V117ZM610.147 59.784L613.527 61.9226L613.588 61.8262L613.644 61.7266L610.147 59.784ZM607.459 44.424L610.086 41.4077L610.049 41.3753L610.011 41.3439L607.459 44.424ZM570.083 40.712V36.712H566.083V40.712H570.083ZM570.083 66.056H566.083V70.056H570.083V66.056ZM551.395 26.664H596.835V18.664H551.395V26.664ZM596.835 26.664C605.755 26.664 612.734 29.1836 618.111 33.9714L623.431 27.9966C616.349 21.6911 607.371 18.664 596.835 18.664V26.664ZM618.068 33.9326C623.261 38.6927 625.987 45.1509 625.987 53.768H633.987C633.987 43.2705 630.569 34.5393 623.474 28.0354L618.068 33.9326ZM625.987 53.768C625.987 59.403 624.757 63.9784 622.484 67.6716L629.298 71.8644C632.486 66.6829 633.987 60.5916 633.987 53.768H625.987ZM622.473 67.6903C620.301 71.2633 617.046 74.0804 612.496 76.0943L615.734 83.4097C621.595 80.8156 626.19 76.9767 629.309 71.8457L622.473 67.6903ZM612.732 75.9986L610.3 76.8946L613.066 84.4014L615.498 83.5054L612.732 75.9986ZM608.251 82.7024L630.011 119.054L636.875 114.946L615.115 78.5936L608.251 82.7024ZM633.443 113H611.427V121H633.443V113ZM614.896 115.008L596.08 82.2402L589.142 86.2238L607.958 118.992L614.896 115.008ZM592.611 80.232H570.083V88.232H592.611V80.232ZM566.083 84.232V117H574.083V84.232H566.083ZM570.083 113H551.395V121H570.083V113ZM555.395 117V22.664H547.395V117H555.395ZM595.043 70.056C603.105 70.056 609.828 67.7702 613.527 61.9226L606.767 57.6454C605.176 60.1604 601.829 62.056 595.043 62.056V70.056ZM613.644 61.7266C614.935 59.4028 615.427 56.6601 615.427 53.768H607.427C607.427 55.8252 607.066 57.0931 606.65 57.8414L613.644 61.7266ZM615.427 53.768C615.427 48.8399 613.713 44.5669 610.086 41.4077L604.832 47.4403C606.495 48.8891 607.427 50.8454 607.427 53.768H615.427ZM610.011 41.3439C606.128 38.1263 601.174 36.712 595.555 36.712V44.712C599.835 44.712 602.817 45.7724 604.907 47.5041L610.011 41.3439ZM595.555 36.712H570.083V44.712H595.555V36.712ZM566.083 40.712V66.056H574.083V40.712H566.083ZM570.083 70.056H595.043V62.056H570.083V70.056ZM17.4 234.56L20.3986 231.913L20.3912 231.904L17.4 234.56ZM17.4 166.592L14.4281 163.915L14.4212 163.922L17.4 166.592ZM78.2 160.704L75.925 163.994L75.9435 164.007L75.9621 164.019L78.2 160.704ZM93.304 180.288L94.9571 183.93L98.3888 182.373L97.0384 178.855L93.304 180.288ZM76.664 187.84V191.84H77.5292L78.3171 191.482L76.664 187.84ZM76.536 187.84L72.8594 189.416L73.8984 191.84H76.536V187.84ZM75.384 185.152L71.7001 186.711L71.7038 186.719L71.7074 186.728L75.384 185.152ZM66.808 174.656L64.5726 177.973L64.5809 177.979L64.5892 177.984L66.808 174.656ZM39.8 172.992L38.192 169.329L38.192 169.329L39.8 172.992ZM31.096 179.136L28.1228 176.46L28.1146 176.469L28.1064 176.479L31.096 179.136ZM31.096 221.888L28.0656 224.499L28.0687 224.502L31.096 221.888ZM66.808 226.496L64.6056 223.157L64.58 223.174L64.5547 223.191L66.808 226.496ZM75.384 216L71.6818 214.485L71.6708 214.512L71.6601 214.54L75.384 216ZM76.536 213.184V209.184H73.8506L72.8338 211.669L76.536 213.184ZM76.664 213.184L78.3402 209.552L77.5425 209.184H76.664V213.184ZM93.304 220.864L97.0153 222.356L98.4344 218.826L94.9802 217.232L93.304 220.864ZM78.2 240.448L80.4915 243.727L80.5024 243.719L80.5132 243.711L78.2 240.448ZM51.064 244.768C37.9847 244.768 27.9101 240.421 20.3986 231.913L14.4014 237.207C23.6153 247.643 35.9833 252.768 51.064 252.768V244.768ZM20.3912 231.904C13.0082 223.589 9.24 213.218 9.24 200.512H1.24C1.24 214.942 5.57847 227.27 14.4088 237.216L20.3912 231.904ZM9.24 200.512C9.24 187.805 13.008 177.486 20.3788 169.262L14.4212 163.922C5.57863 173.789 1.24 186.083 1.24 200.512H9.24ZM20.3718 169.269C28.0726 160.721 38.1724 156.384 51.064 156.384V148.384C36.1369 148.384 23.794 153.519 14.4282 163.915L20.3718 169.269ZM51.064 156.384C60.3486 156.384 68.595 158.925 75.925 163.994L80.475 157.414C71.7623 151.389 61.9181 148.384 51.064 148.384V156.384ZM75.9621 164.019C82.0417 168.123 86.5906 173.96 89.5696 181.721L97.0384 178.855C93.5321 169.72 88.0116 162.501 80.4379 157.389L75.9621 164.019ZM91.6509 176.646L75.0109 184.198L78.3171 191.482L94.9571 183.93L91.6509 176.646ZM76.664 183.84H76.536V191.84H76.664V183.84ZM80.2126 186.264L79.0606 183.576L71.7074 186.728L72.8594 189.416L80.2126 186.264ZM79.0679 183.593C76.8999 178.469 73.5473 174.341 69.0268 171.328L64.5892 177.984C67.7487 180.091 70.1135 182.96 71.7001 186.711L79.0679 183.593ZM69.0434 171.339C64.4032 168.212 59.0884 166.688 53.24 166.688V174.688C57.6316 174.688 61.3621 175.809 64.5726 177.973L69.0434 171.339ZM53.24 166.688C47.4449 166.688 42.3661 167.497 38.192 169.329L41.408 176.655C44.2312 175.415 48.1124 174.688 53.24 174.688V166.688ZM38.192 169.329C34.2307 171.069 30.8464 173.434 28.1228 176.46L34.0692 181.812C35.9536 179.718 38.372 177.987 41.408 176.655L38.192 169.329ZM28.1064 176.479C22.534 182.747 19.928 190.896 19.928 200.512H27.928C27.928 192.378 30.1007 186.277 34.0856 181.793L28.1064 176.479ZM19.928 200.512C19.928 209.984 22.5476 218.094 28.0656 224.499L34.1264 219.277C30.0871 214.589 27.928 208.448 27.928 200.512H19.928ZM28.0687 224.502C33.9231 231.281 42.5853 234.336 53.24 234.336V226.336C44.0974 226.336 37.9969 223.759 34.1233 219.274L28.0687 224.502ZM53.24 234.336C59.199 234.336 64.5387 232.885 69.0613 229.801L64.5547 223.191C61.568 225.227 57.8623 226.336 53.24 226.336V234.336ZM69.0104 229.835C73.6894 226.749 77.0912 222.603 79.1079 217.46L71.6601 214.54C70.2635 218.101 67.9479 220.952 64.6056 223.157L69.0104 229.835ZM79.0862 217.515L80.2382 214.699L72.8338 211.669L71.6818 214.485L79.0862 217.515ZM76.536 217.184H76.664V209.184H76.536V217.184ZM74.9878 216.816L91.6278 224.496L94.9802 217.232L78.3402 209.552L74.9878 216.816ZM89.5927 219.372C86.5273 226.996 81.9517 232.886 75.8868 237.185L80.5132 243.711C87.9309 238.453 93.4247 231.287 97.0153 222.356L89.5927 219.372ZM75.9085 237.169C68.6783 242.223 60.4414 244.768 51.064 244.768V252.768C61.9959 252.768 71.8497 249.767 80.4915 243.727L75.9085 237.169ZM139.586 211.136H143.586V209.883L142.871 208.853L139.586 211.136ZM99.65 153.664V149.664H91.9996L96.3652 155.947L99.65 153.664ZM122.306 153.664L125.591 151.382L124.398 149.664H122.306V153.664ZM148.802 191.808L145.517 194.09L148.794 198.808L152.082 194.097L148.802 191.808ZM175.426 153.664V149.664H173.34L172.146 151.375L175.426 153.664ZM198.082 153.664L201.37 155.942L205.718 149.664H198.082V153.664ZM158.274 211.136L154.986 208.858L154.274 209.886V211.136H158.274ZM158.274 248V252H162.274V248H158.274ZM139.586 248H135.586V252H139.586V248ZM142.871 208.853L102.935 151.381L96.3652 155.947L136.301 213.419L142.871 208.853ZM99.65 157.664H122.306V149.664H99.65V157.664ZM119.021 155.946L145.517 194.09L152.087 189.526L125.591 151.382L119.021 155.946ZM152.082 194.097L178.706 155.953L172.146 151.375L145.522 189.519L152.082 194.097ZM175.426 157.664H198.082V149.664H175.426V157.664ZM194.794 151.386L154.986 208.858L161.562 213.414L201.37 155.942L194.794 151.386ZM154.274 211.136V248H162.274V211.136H154.274ZM158.274 244H139.586V252H158.274V244ZM143.586 248V211.136H135.586V248H143.586ZM209.64 153.664V149.664H205.64V153.664H209.64ZM277.224 162.368L279.949 159.44L279.94 159.431L279.931 159.423L277.224 162.368ZM277.096 208.96L279.801 211.907L279.822 211.887L279.844 211.867L277.096 208.96ZM228.328 217.536V213.536H224.328V217.536H228.328ZM228.328 248V252H232.328V248H228.328ZM209.64 248H205.64V252H209.64V248ZM264.04 195.904L266.773 198.825L266.797 198.803L266.82 198.78L264.04 195.904ZM264.04 175.424L261.307 178.345L261.311 178.348L264.04 175.424ZM228.328 171.712V167.712H224.328V171.712H228.328ZM228.328 199.616H224.328V203.616H228.328V199.616ZM209.64 157.664H252.52V149.664H209.64V157.664ZM252.52 157.664C261.868 157.664 269.073 160.311 274.517 165.313L279.931 159.423C272.745 152.82 263.481 149.664 252.52 149.664V157.664ZM274.499 165.296C279.698 170.134 282.44 176.725 282.44 185.536H290.44C290.44 174.891 287.038 166.036 279.949 159.44L274.499 165.296ZM282.44 185.536C282.44 194.327 279.667 201.026 274.348 206.053L279.844 211.867C286.984 205.118 290.44 196.201 290.44 185.536H282.44ZM274.391 206.013C269.043 210.922 261.886 213.536 252.52 213.536V221.536C263.464 221.536 272.69 218.433 279.801 211.907L274.391 206.013ZM252.52 213.536H228.328V221.536H252.52V213.536ZM224.328 217.536V248H232.328V217.536H224.328ZM228.328 244H209.64V252H228.328V244ZM213.64 248V153.664H205.64V248H213.64ZM251.88 203.616C257.853 203.616 263.086 202.274 266.773 198.825L261.307 192.983C259.703 194.484 256.83 195.616 251.88 195.616V203.616ZM266.82 198.78C270.327 195.389 271.88 190.843 271.88 185.664H263.88C263.88 189.189 262.873 191.469 261.26 193.028L266.82 198.78ZM271.88 185.664C271.88 180.433 270.344 175.837 266.769 172.5L261.311 178.348C262.856 179.79 263.88 182.02 263.88 185.664H271.88ZM266.773 172.503C263.086 169.054 257.853 167.712 251.88 167.712V175.712C256.83 175.712 259.703 176.844 261.307 178.345L266.773 172.503ZM251.88 167.712H228.328V175.712H251.88V167.712ZM224.328 171.712V199.616H232.328V171.712H224.328ZM228.328 203.616H251.88V195.616H228.328V203.616ZM299.905 153.664V149.664H295.905V153.664H299.905ZM318.593 153.664H322.593V149.664H318.593V153.664ZM318.593 191.552H314.593V195.552H318.593V191.552ZM359.297 191.552V195.552H363.297V191.552H359.297ZM359.297 153.664V149.664H355.297V153.664H359.297ZM377.857 153.664H381.857V149.664H377.857V153.664ZM377.857 248V252H381.857V248H377.857ZM359.297 248H355.297V252H359.297V248ZM359.297 209.984H363.297V205.984H359.297V209.984ZM318.593 209.984V205.984H314.593V209.984H318.593ZM318.593 248V252H322.593V248H318.593ZM299.905 248H295.905V252H299.905V248ZM299.905 157.664H318.593V149.664H299.905V157.664ZM314.593 153.664V191.552H322.593V153.664H314.593ZM318.593 195.552H359.297V187.552H318.593V195.552ZM363.297 191.552V153.664H355.297V191.552H363.297ZM359.297 157.664H377.857V149.664H359.297V157.664ZM373.857 153.664V248H381.857V153.664H373.857ZM377.857 244H359.297V252H377.857V244ZM363.297 248V209.984H355.297V248H363.297ZM359.297 205.984H318.593V213.984H359.297V205.984ZM314.593 209.984V248H322.593V209.984H314.593ZM318.593 244H299.905V252H318.593V244ZM303.905 248V153.664H295.905V248H303.905ZM398.92 153.664V149.664H394.92V153.664H398.92ZM470.728 153.664H474.728V149.664H470.728V153.664ZM470.728 171.84V175.84H474.728V171.84H470.728ZM417.608 171.84V167.84H413.608V171.84H417.608ZM417.608 191.552H413.608V195.552H417.608V191.552ZM456.136 191.552H460.136V187.552H456.136V191.552ZM456.136 209.984V213.984H460.136V209.984H456.136ZM417.608 209.984V205.984H413.608V209.984H417.608ZM417.608 229.696H413.608V233.696H417.608V229.696ZM470.728 229.696H474.728V225.696H470.728V229.696ZM470.728 248V252H474.728V248H470.728ZM398.92 248H394.92V252H398.92V248ZM398.92 157.664H470.728V149.664H398.92V157.664ZM466.728 153.664V171.84H474.728V153.664H466.728ZM470.728 167.84H417.608V175.84H470.728V167.84ZM413.608 171.84V191.552H421.608V171.84H413.608ZM417.608 195.552H456.136V187.552H417.608V195.552ZM452.136 191.552V209.984H460.136V191.552H452.136ZM456.136 205.984H417.608V213.984H456.136V205.984ZM413.608 209.984V229.696H421.608V209.984H413.608ZM417.608 233.696H470.728V225.696H417.608V233.696ZM466.728 229.696V248H474.728V229.696H466.728ZM470.728 244H398.92V252H470.728V244ZM402.92 248V153.664H394.92V248H402.92ZM486.685 153.664V149.664H482.685V153.664H486.685ZM556.061 161.984L558.764 159.035L558.743 159.016L558.721 158.997L556.061 161.984ZM561.181 200.768L557.774 198.672L557.769 198.681L557.763 198.69L561.181 200.768ZM549.405 210.752L550.788 214.505L550.907 214.461L551.024 214.41L549.405 210.752ZM546.973 211.648L545.59 207.895L541.063 209.563L543.541 213.702L546.973 211.648ZM568.733 248V252H575.789L572.165 245.946L568.733 248ZM546.717 248L543.248 249.992L544.401 252H546.717V248ZM527.901 215.232L531.37 213.24L530.217 211.232H527.901V215.232ZM505.373 215.232V211.232H501.373V215.232H505.373ZM505.373 248V252H509.373V248H505.373ZM486.685 248H482.685V252H486.685V248ZM545.437 190.784L548.817 192.923L548.878 192.826L548.934 192.727L545.437 190.784ZM542.749 175.424L545.376 172.408L545.339 172.375L545.301 172.344L542.749 175.424ZM505.373 171.712V167.712H501.373V171.712H505.373ZM505.373 197.056H501.373V201.056H505.373V197.056ZM486.685 157.664H532.125V149.664H486.685V157.664ZM532.125 157.664C541.045 157.664 548.024 160.184 553.401 164.971L558.721 158.997C551.639 152.691 542.661 149.664 532.125 149.664V157.664ZM553.358 164.933C558.551 169.693 561.277 176.151 561.277 184.768H569.277C569.277 174.27 565.859 165.539 558.764 159.035L553.358 164.933ZM561.277 184.768C561.277 190.403 560.047 194.978 557.774 198.672L564.588 202.864C567.776 197.683 569.277 191.592 569.277 184.768H561.277ZM557.763 198.69C555.591 202.263 552.336 205.08 547.786 207.094L551.024 214.41C556.885 211.816 561.48 207.977 564.599 202.846L557.763 198.69ZM548.022 206.999L545.59 207.895L548.356 215.401L550.788 214.505L548.022 206.999ZM543.541 213.702L565.301 250.054L572.165 245.946L550.405 209.594L543.541 213.702ZM568.733 244H546.717V252H568.733V244ZM550.186 246.008L531.37 213.24L524.432 217.224L543.248 249.992L550.186 246.008ZM527.901 211.232H505.373V219.232H527.901V211.232ZM501.373 215.232V248H509.373V215.232H501.373ZM505.373 244H486.685V252H505.373V244ZM490.685 248V153.664H482.685V248H490.685ZM530.333 201.056C538.395 201.056 545.118 198.77 548.817 192.923L542.057 188.645C540.466 191.16 537.119 193.056 530.333 193.056V201.056ZM548.934 192.727C550.225 190.403 550.717 187.66 550.717 184.768H542.717C542.717 186.825 542.356 188.093 541.94 188.841L548.934 192.727ZM550.717 184.768C550.717 179.84 549.003 175.567 545.376 172.408L540.122 178.44C541.785 179.889 542.717 181.845 542.717 184.768H550.717ZM545.301 172.344C541.418 169.126 536.464 167.712 530.845 167.712V175.712C535.125 175.712 538.107 176.772 540.197 178.504L545.301 172.344ZM530.845 167.712H505.373V175.712H530.845V167.712ZM501.373 171.712V197.056H509.373V171.712H501.373ZM505.373 201.056H530.333V193.056H505.373V201.056ZM624.124 240.96L621.649 244.103L621.66 244.111L624.124 240.96ZM612.732 221.12L616.713 220.731L616.712 220.716L616.71 220.701L612.732 221.12ZM612.22 216.256V212.256H607.777L608.242 216.675L612.22 216.256ZM630.78 216.256L634.722 215.576L634.149 212.256H630.78V216.256ZM631.42 219.968L627.478 220.648L627.479 220.655L627.481 220.663L631.42 219.968ZM636.412 227.136L638.651 223.822L638.641 223.815L638.631 223.808L636.412 227.136ZM659.068 226.88L661.601 229.976L661.664 229.924L661.725 229.87L659.068 226.88ZM658.812 211.008L661.538 208.08L661.52 208.064L661.503 208.048L658.812 211.008ZM634.236 207.168H630.236V211.168H634.236V207.168ZM634.236 189.376V185.376H630.236V189.376H634.236ZM656.38 186.432L658.763 189.644L658.791 189.624L658.819 189.602L656.38 186.432ZM656.892 173.376L654.195 176.33L654.236 176.367L654.277 176.403L656.892 173.376ZM637.308 173.376L639.764 176.533L639.764 176.533L637.308 173.376ZM633.34 179.136L637.282 179.816L637.284 179.805L637.286 179.794L633.34 179.136ZM632.7 182.848V186.848H636.069L636.642 183.528L632.7 182.848ZM614.524 182.848L610.545 182.44L610.093 186.848H614.524V182.848ZM615.036 177.856L619.015 178.264L619.018 178.237L619.02 178.209L615.036 177.856ZM624.38 160.32L621.749 157.307L621.74 157.315L624.38 160.32ZM669.564 159.936L666.943 162.957L669.564 159.936ZM673.02 193.856L669.902 191.35L669.897 191.357L673.02 193.856ZM669.948 197.44L667.12 194.612L663.669 198.062L667.729 200.768L669.948 197.44ZM676.22 203.456L679.502 201.17L679.456 201.103L679.407 201.038L676.22 203.456ZM678.396 231.104L674.818 229.315L674.789 229.374L674.761 229.434L678.396 231.104ZM671.1 240.576L673.799 243.528L673.808 243.52L673.816 243.512L671.1 240.576ZM647.676 244.768C639.456 244.768 632.489 242.424 626.588 237.809L621.66 244.111C629.071 249.906 637.805 252.768 647.676 252.768V244.768ZM626.599 237.817C620.532 233.04 617.364 227.381 616.713 220.731L608.751 221.509C609.636 230.561 614.063 238.128 621.649 244.103L626.599 237.817ZM616.71 220.701L616.198 215.837L608.242 216.675L608.754 221.539L616.71 220.701ZM612.22 220.256H630.78V212.256H612.22V220.256ZM626.838 216.936L627.478 220.648L635.362 219.288L634.722 215.576L626.838 216.936ZM627.481 220.663C628.211 224.803 630.616 228.079 634.193 230.464L638.631 223.808C636.576 222.438 635.652 220.935 635.359 219.273L627.481 220.663ZM634.173 230.45C638.082 233.092 642.643 234.336 647.676 234.336V226.336C644.005 226.336 641.057 225.447 638.651 223.822L634.173 230.45ZM647.676 234.336C653.086 234.336 657.873 233.026 661.601 229.976L656.535 223.784C654.631 225.342 651.823 226.336 647.676 226.336V234.336ZM661.725 229.87C664.932 227.019 666.524 223.262 666.524 218.944H658.524C658.524 221.111 657.812 222.645 656.411 223.89L661.725 229.87ZM666.524 218.944C666.524 214.695 664.707 211.031 661.538 208.08L656.086 213.936C657.867 215.593 658.524 217.22 658.524 218.944H666.524ZM661.503 208.048C657.908 204.78 653.519 203.168 648.572 203.168V211.168C651.646 211.168 654.084 212.116 656.121 213.968L661.503 208.048ZM648.572 203.168H634.236V211.168H648.572V203.168ZM638.236 207.168V189.376H630.236V207.168H638.236ZM634.236 193.376H647.42V185.376H634.236V193.376ZM647.42 193.376C651.597 193.376 655.421 192.124 658.763 189.644L653.997 183.22C652.048 184.665 649.899 185.376 647.42 185.376V193.376ZM658.819 189.602C661.955 187.19 663.708 183.873 663.708 179.904H655.708C655.708 181.226 655.242 182.261 653.941 183.262L658.819 189.602ZM663.708 179.904C663.708 176.143 662.359 172.812 659.506 170.349L654.277 176.403C655.18 177.183 655.708 178.204 655.708 179.904H663.708ZM659.589 170.422C656.543 167.641 652.172 166.688 647.42 166.688V174.688C651.372 174.688 653.316 175.527 654.195 176.33L659.589 170.422ZM647.42 166.688C642.533 166.688 638.14 167.661 634.852 170.219L639.764 176.533C641.084 175.507 643.433 174.688 647.42 174.688V166.688ZM634.852 170.219C632.077 172.377 629.958 175.1 629.394 178.478L637.286 179.794C637.405 179.076 637.93 177.959 639.764 176.533L634.852 170.219ZM629.398 178.456L628.758 182.168L636.642 183.528L637.282 179.816L629.398 178.456ZM632.7 178.848H614.524V186.848H632.7V178.848ZM618.503 183.256L619.015 178.264L611.057 177.448L610.545 182.44L618.503 183.256ZM619.02 178.209C619.517 172.606 622.07 167.675 627.02 163.325L621.74 157.315C615.426 162.863 611.75 169.624 611.052 177.503L619.02 178.209ZM627.011 163.333C632.256 158.752 638.797 156.384 646.908 156.384V148.384C637.099 148.384 628.621 151.306 621.749 157.307L627.011 163.333ZM646.908 156.384C655.458 156.384 662.013 158.68 666.943 162.957L672.185 156.915C665.51 151.122 656.96 148.384 646.908 148.384V156.384ZM666.943 162.957C671.826 167.195 674.268 172.6 674.268 179.52H682.268C682.268 170.398 678.907 162.747 672.185 156.915L666.943 162.957ZM674.268 179.52C674.268 183.745 672.875 187.653 669.902 191.35L676.137 196.362C680.163 191.355 682.268 185.706 682.268 179.52H674.268ZM669.897 191.357C668.538 193.055 667.633 194.099 667.12 194.612L672.776 200.268C673.629 199.416 674.771 198.07 676.143 196.355L669.897 191.357ZM667.729 200.768C669.62 202.029 671.393 203.711 673.033 205.874L679.407 201.038C677.292 198.251 674.884 195.923 672.167 194.112L667.729 200.768ZM672.938 205.742C675.883 209.971 677.212 214.053 677.212 218.048H685.212C685.212 212.145 683.213 206.498 679.502 201.17L672.938 205.742ZM677.212 218.048C677.212 222.487 676.372 226.207 674.818 229.315L681.974 232.893C684.174 228.492 685.212 223.508 685.212 218.048H677.212ZM674.761 229.434C673.591 231.981 671.534 234.726 668.384 237.64L673.816 243.512C677.493 240.112 680.299 236.542 682.031 232.774L674.761 229.434ZM668.401 237.624C663.302 242.286 656.522 244.768 647.676 244.768V252.768C658.115 252.768 666.952 249.789 673.799 243.528L668.401 237.624ZM692.11 225.472V221.472H688.11V225.472H692.11ZM712.974 225.472H716.974V221.472H712.974V225.472ZM712.974 248V252H716.974V248H712.974ZM692.11 248H688.11V252H692.11V248ZM692.11 229.472H712.974V221.472H692.11V229.472ZM708.974 225.472V248H716.974V225.472H708.974ZM712.974 244H692.11V252H712.974V244ZM696.11 248V225.472H688.11V248H696.11ZM731.427 234.816L727.909 236.72L727.916 236.733L727.923 236.745L731.427 234.816ZM731.427 166.336L734.945 168.24L734.945 168.24L731.427 166.336ZM786.083 168.256L789.592 166.335L789.585 166.323L789.578 166.311L786.083 168.256ZM785.059 234.816L781.555 232.887L781.548 232.899L781.541 232.912L785.059 234.816ZM767.651 226.752L770.239 229.802L770.265 229.78L770.291 229.757L767.651 226.752ZM773.283 212.032L769.318 211.503L769.317 211.514L769.315 211.525L773.283 212.032ZM769.827 176.96L773.345 175.057L773.338 175.043L773.33 175.03L769.827 176.96ZM746.659 176.96L750.175 178.867L750.184 178.851L750.192 178.835L746.659 176.96ZM746.659 224.192L750.145 222.231L750.131 222.206L750.116 222.18L746.659 224.192ZM758.307 244.768C746.609 244.768 739.191 240.626 734.931 232.887L727.923 236.745C733.903 247.608 744.405 252.768 758.307 252.768V244.768ZM734.945 232.912C730.304 224.338 727.875 213.598 727.875 200.512H719.875C719.875 214.562 722.481 226.692 727.909 236.72L734.945 232.912ZM727.875 200.512C727.875 187.516 730.302 176.818 734.945 168.24L727.909 164.432C722.483 174.457 719.875 186.543 719.875 200.512H727.875ZM734.945 168.24C739.132 160.505 746.421 156.384 757.923 156.384V148.384C744.166 148.384 733.792 153.565 727.909 164.432L734.945 168.24ZM757.923 156.384C763.812 156.384 768.676 157.59 772.663 159.837C776.637 162.076 779.957 165.473 782.588 170.201L789.578 166.311C786.321 160.458 782.004 155.918 776.591 152.867C771.191 149.824 764.919 148.384 757.923 148.384V156.384ZM782.574 170.177C786.577 177.489 788.739 187.504 788.739 200.512H796.739C796.739 186.725 794.464 175.237 789.592 166.335L782.574 170.177ZM788.739 200.512C788.739 213.589 786.271 224.319 781.555 232.887L788.563 236.745C794.087 226.711 796.739 214.571 796.739 200.512H788.739ZM781.541 232.912C777.365 240.628 770.007 244.768 758.307 244.768V252.768C772.207 252.768 782.684 247.607 788.577 236.72L781.541 232.912ZM757.795 234.336C762.48 234.336 766.687 232.816 770.239 229.802L765.063 223.702C762.983 225.467 760.619 226.336 757.795 226.336V234.336ZM770.291 229.757C774.279 226.252 776.292 220.037 777.251 212.539L769.315 211.525C768.397 218.705 766.655 222.302 765.011 223.747L770.291 229.757ZM777.248 212.561C777.783 208.547 778.051 204.53 778.051 200.512H770.051C770.051 204.174 769.807 207.837 769.318 211.503L777.248 212.561ZM778.051 200.512C778.051 189.793 776.636 181.14 773.345 175.057L766.309 178.863C768.65 183.191 770.051 190.239 770.051 200.512H778.051ZM773.33 175.03C770.221 169.387 764.917 166.688 758.307 166.688V174.688C762.449 174.688 764.825 176.17 766.324 178.89L773.33 175.03ZM758.307 166.688C751.587 166.688 746.171 169.345 743.126 175.085L750.192 178.835C751.584 176.212 753.933 174.688 758.307 174.688V166.688ZM743.143 175.053C739.925 180.986 738.563 189.662 738.563 200.512H746.563C746.563 190.029 747.932 183.003 750.175 178.867L743.143 175.053ZM738.563 200.512C738.563 211.716 739.904 220.535 743.202 226.204L750.116 222.18C747.953 218.462 746.563 211.494 746.563 200.512H738.563ZM743.173 226.153C746.259 231.64 751.388 234.336 757.795 234.336V226.336C753.962 226.336 751.667 224.936 750.145 222.231L743.173 226.153Z" fill="url(#paint0_linear_18_61)" mask="url(#path-1-outside-1_18_61)"/>
<path d="M176.75 103.56L179.749 100.913L179.741 100.904L176.75 103.56ZM176.75 35.592L173.778 32.9146L173.771 32.9224L176.75 35.592ZM237.55 29.704L235.275 32.994L235.293 33.0068L235.312 33.0194L237.55 29.704ZM252.654 49.288L254.307 52.9304L257.739 51.3729L256.388 47.8546L252.654 49.288ZM236.014 56.84V60.84H236.879L237.667 60.4824L236.014 56.84ZM235.886 56.84L232.209 58.4157L233.248 60.84H235.886V56.84ZM234.734 54.152L231.05 55.7106L231.054 55.7191L231.057 55.7277L234.734 54.152ZM226.158 43.656L223.923 46.9731L223.931 46.9787L223.939 46.9842L226.158 43.656ZM199.15 41.992L197.542 38.3294L197.542 38.3294L199.15 41.992ZM190.446 48.136L187.473 45.4601L187.465 45.4693L187.456 45.4785L190.446 48.136ZM190.446 90.888L187.416 93.4988L187.419 93.5025L190.446 90.888ZM226.158 95.496L223.956 92.1569L223.93 92.1738L223.905 92.1911L226.158 95.496ZM234.734 85L231.032 83.4855L231.021 83.5125L231.01 83.5397L234.734 85ZM235.886 82.184V78.184H233.201L232.184 80.6695L235.886 82.184ZM236.014 82.184L237.69 78.5522L236.893 78.184H236.014V82.184ZM252.654 89.864L256.365 91.3562L257.784 87.8264L254.33 86.2322L252.654 89.864ZM237.55 109.448L239.841 112.727L239.852 112.719L239.863 112.711L237.55 109.448ZM210.414 113.768C197.335 113.768 187.26 109.421 179.749 100.913L173.751 106.207C182.965 116.643 195.333 121.768 210.414 121.768V113.768ZM179.741 100.904C172.358 92.5887 168.59 82.2183 168.59 69.512H160.59C160.59 83.9417 164.928 96.27 173.759 106.216L179.741 100.904ZM168.59 69.512C168.59 56.8052 172.358 46.4858 179.729 38.2616L173.771 32.9224C164.929 42.7888 160.59 55.0828 160.59 69.512H168.59ZM179.722 38.2693C187.423 29.7215 197.522 25.384 210.414 25.384V17.384C195.487 17.384 183.144 22.5185 173.778 32.9147L179.722 38.2693ZM210.414 25.384C219.699 25.384 227.945 27.9254 235.275 32.994L239.825 26.414C231.112 20.3892 221.268 17.384 210.414 17.384V25.384ZM235.312 33.0194C241.392 37.1231 245.941 42.9602 248.92 50.7214L256.388 47.8546C252.882 38.7198 247.362 31.5009 239.788 26.3886L235.312 33.0194ZM251.001 45.6456L234.361 53.1976L237.667 60.4824L254.307 52.9304L251.001 45.6456ZM236.014 52.84H235.886V60.84H236.014V52.84ZM239.563 55.2643L238.411 52.5763L231.057 55.7277L232.209 58.4157L239.563 55.2643ZM238.418 52.5934C236.25 47.4691 232.897 43.3414 228.377 40.3278L223.939 46.9842C227.099 49.0906 229.463 51.9602 231.05 55.7106L238.418 52.5934ZM228.393 40.3389C223.753 37.2119 218.438 35.688 212.59 35.688V43.688C216.982 43.688 220.712 44.8095 223.923 46.9731L228.393 40.3389ZM212.59 35.688C206.795 35.688 201.716 36.4969 197.542 38.3294L200.758 45.6546C203.581 44.4151 207.462 43.688 212.59 43.688V35.688ZM197.542 38.3294C193.581 40.0686 190.196 42.4339 187.473 45.4601L193.419 50.8119C195.304 48.7181 197.722 46.9874 200.758 45.6546L197.542 38.3294ZM187.456 45.4785C181.884 51.7475 179.278 59.8964 179.278 69.512H187.278C187.278 61.3782 189.451 55.2765 193.436 50.7934L187.456 45.4785ZM179.278 69.512C179.278 78.9843 181.898 87.094 187.416 93.4988L193.476 88.2772C189.437 83.5886 187.278 77.4477 187.278 69.512H179.278ZM187.419 93.5025C193.273 100.281 201.935 103.336 212.59 103.336V95.336C203.447 95.336 197.347 92.7588 193.473 88.2735L187.419 93.5025ZM212.59 103.336C218.549 103.336 223.889 101.885 228.411 98.8009L223.905 92.1911C220.918 94.2274 217.212 95.336 212.59 95.336V103.336ZM228.36 98.8351C233.039 95.7489 236.441 91.603 238.458 86.4603L231.01 83.5397C229.614 87.101 227.298 89.9524 223.956 92.1569L228.36 98.8351ZM238.436 86.5145L239.588 83.6985L232.184 80.6695L231.032 83.4855L238.436 86.5145ZM235.886 86.184H236.014V78.184H235.886V86.184ZM234.338 85.8158L250.978 93.4958L254.33 86.2322L237.69 78.5522L234.338 85.8158ZM248.943 88.3718C245.877 95.996 241.302 101.886 235.237 106.185L239.863 112.711C247.281 107.453 252.775 100.287 256.365 91.3562L248.943 88.3718ZM235.259 106.169C228.028 111.223 219.791 113.768 210.414 113.768V121.768C221.346 121.768 231.2 118.767 239.841 112.727L235.259 106.169ZM298.936 80.136H302.936V78.8827L302.221 77.8535L298.936 80.136ZM259 22.664V18.664H251.35L255.715 24.9465L259 22.664ZM281.656 22.664L284.941 20.382L283.748 18.664H281.656V22.664ZM308.152 60.808L304.867 63.09L308.144 67.808L311.432 63.0974L308.152 60.808ZM334.776 22.664V18.664H332.69L331.496 20.3746L334.776 22.664ZM357.432 22.664L360.72 24.9416L365.068 18.664H357.432V22.664ZM317.624 80.136L314.336 77.8584L313.624 78.886V80.136H317.624ZM317.624 117V121H321.624V117H317.624ZM298.936 117H294.936V121H298.936V117ZM302.221 77.8535L262.285 20.3815L255.715 24.9465L295.651 82.4185L302.221 77.8535ZM259 26.664H281.656V18.664H259V26.664ZM278.371 24.946L304.867 63.09L311.437 58.526L284.941 20.382L278.371 24.946ZM311.432 63.0974L338.056 24.9534L331.496 20.3746L304.872 58.5186L311.432 63.0974ZM334.776 26.664H357.432V18.664H334.776V26.664ZM354.144 20.3864L314.336 77.8584L320.912 82.4136L360.72 24.9416L354.144 20.3864ZM313.624 80.136V117H321.624V80.136H313.624ZM317.624 113H298.936V121H317.624V113ZM302.936 117V80.136H294.936V117H302.936ZM368.99 22.664V18.664H364.99V22.664H368.99ZM436.062 31.496L433.192 34.2825L433.213 34.3036L433.234 34.3244L436.062 31.496ZM436.19 68.232L433.414 65.3517L429.85 68.7864L433.956 71.5503L436.19 68.232ZM445.79 80.008L442.081 81.5048L442.102 81.5583L442.125 81.6113L445.79 80.008ZM442.59 105.736L439.436 103.276L439.429 103.285L442.59 105.736ZM428.126 114.952L426.953 111.128L426.869 111.154L426.786 111.183L428.126 114.952ZM368.99 117H364.99V121H368.99V117ZM423.646 55.176L420.068 53.3872L420.052 53.42L420.036 53.4531L423.646 55.176ZM423.902 46.728L420.169 48.1639L420.211 48.2749L420.261 48.3832L423.902 46.728ZM422.11 43.912L419.224 46.6821L419.253 46.7116L419.282 46.7404L422.11 43.912ZM387.678 40.712V36.712H383.678V40.712H387.678ZM387.678 60.808H383.678V64.808H387.678V60.808ZM425.95 96.136L423.55 92.936L423.522 92.9571L423.494 92.9786L425.95 96.136ZM425.822 82.056L423.146 85.0292L423.163 85.0441L423.179 85.0589L425.822 82.056ZM387.678 78.6V74.6H383.678V78.6H387.678ZM387.678 98.824H383.678V102.824H387.678V98.824ZM368.99 26.664H411.742V18.664H368.99V26.664ZM411.742 26.664C421.474 26.664 428.424 29.3718 433.192 34.2825L438.932 28.7095C432.265 21.8442 423.002 18.664 411.742 18.664V26.664ZM433.234 34.3244C437.194 38.2847 439.23 43.2937 439.23 49.672H447.23C447.23 41.373 444.487 34.2646 438.89 28.6676L433.234 34.3244ZM439.23 49.672C439.23 56.675 437.169 61.7341 433.414 65.3517L438.966 71.1123C444.598 65.6846 447.23 58.3703 447.23 49.672H439.23ZM433.956 71.5503C437.745 74.1003 440.423 77.3972 442.081 81.5048L449.499 78.5112C447.232 72.8908 443.51 68.3371 438.424 64.9136L433.956 71.5503ZM442.125 81.6113C443.037 83.6939 443.582 86.481 443.582 90.12H451.582C451.582 85.7377 450.933 81.7834 449.455 78.4047L442.125 81.6113ZM443.582 90.12C443.582 95.4995 442.143 99.806 439.436 103.276L445.744 108.196C449.693 103.133 451.582 97.0285 451.582 90.12H443.582ZM439.429 103.285C436.811 106.66 432.775 109.343 426.953 111.128L429.299 118.776C436.277 116.636 441.883 113.174 445.751 108.187L439.429 103.285ZM426.786 111.183C423.506 112.349 419.255 113 413.918 113V121C419.845 121 425.066 120.285 429.466 118.721L426.786 111.183ZM413.918 113H368.99V121H413.918V113ZM372.99 117V22.664H364.99V117H372.99ZM411.742 64.808C418.595 64.808 424.504 62.665 427.256 56.8989L420.036 53.4531C419.204 55.1963 417.177 56.808 411.742 56.808V64.808ZM427.224 56.9648C428.138 55.1369 428.542 53.1436 428.542 51.08H420.542C420.542 52.0884 420.349 52.8258 420.068 53.3872L427.224 56.9648ZM428.542 51.08C428.542 48.9703 428.335 46.8134 427.543 45.0728L420.261 48.3832C420.26 48.3827 420.284 48.4363 420.318 48.5629C420.352 48.6883 420.39 48.8649 420.425 49.102C420.495 49.5826 420.542 50.2327 420.542 51.08H428.542ZM427.635 45.2921C427.027 43.7101 426.138 42.2833 424.938 41.0836L419.282 46.7404C419.618 47.0767 419.924 47.5272 420.169 48.1639L427.635 45.2921ZM424.996 41.1419C421.926 37.9441 417.578 36.712 412.766 36.712V44.712C416.317 44.712 418.198 45.6133 419.224 46.6821L424.996 41.1419ZM412.766 36.712H387.678V44.712H412.766V36.712ZM383.678 40.712V60.808H391.678V40.712H383.678ZM387.678 64.808H411.742V56.808H387.678V64.808ZM415.07 102.824C420.347 102.824 425.058 101.898 428.406 99.2934L423.494 92.9786C422.234 93.9585 419.691 94.824 415.07 94.824V102.824ZM428.35 99.336C431.582 96.9124 433.022 93.3597 433.022 89.352H425.022C425.022 91.3176 424.414 92.2876 423.55 92.936L428.35 99.336ZM433.022 89.352C433.022 85.2824 431.51 81.7328 428.465 79.0531L423.179 85.0589C424.401 86.1339 425.022 87.4482 425.022 89.352H433.022ZM428.498 79.0828C424.887 75.8327 419.751 74.6 413.918 74.6V82.6C418.837 82.6 421.637 83.6713 423.146 85.0292L428.498 79.0828ZM413.918 74.6H387.678V82.6H413.918V74.6ZM383.678 78.6V98.824H391.678V78.6H383.678ZM387.678 102.824H415.07V94.824H387.678V102.824ZM463.63 22.664V18.664H459.63V22.664H463.63ZM535.438 22.664H539.438V18.664H535.438V22.664ZM535.438 40.84V44.84H539.438V40.84H535.438ZM482.318 40.84V36.84H478.318V40.84H482.318ZM482.318 60.552H478.318V64.552H482.318V60.552ZM520.846 60.552H524.846V56.552H520.846V60.552ZM520.846 78.984V82.984H524.846V78.984H520.846ZM482.318 78.984V74.984H478.318V78.984H482.318ZM482.318 98.696H478.318V102.696H482.318V98.696ZM535.438 98.696H539.438V94.696H535.438V98.696ZM535.438 117V121H539.438V117H535.438ZM463.63 117H459.63V121H463.63V117ZM463.63 26.664H535.438V18.664H463.63V26.664ZM531.438 22.664V40.84H539.438V22.664H531.438ZM535.438 36.84H482.318V44.84H535.438V36.84ZM478.318 40.84V60.552H486.318V40.84H478.318ZM482.318 64.552H520.846V56.552H482.318V64.552ZM516.846 60.552V78.984H524.846V60.552H516.846ZM520.846 74.984H482.318V82.984H520.846V74.984ZM478.318 78.984V98.696H486.318V78.984H478.318ZM482.318 102.696H535.438V94.696H482.318V102.696ZM531.438 98.696V117H539.438V98.696H531.438ZM535.438 113H463.63V121H535.438V113ZM467.63 117V22.664H459.63V117H467.63ZM551.395 22.664V18.664H547.395V22.664H551.395ZM620.771 30.984L623.474 28.0354L623.453 28.0158L623.431 27.9966L620.771 30.984ZM625.891 69.768L622.484 67.6716L622.479 67.681L622.473 67.6903L625.891 69.768ZM614.115 79.752L615.498 83.5054L615.617 83.4613L615.734 83.4097L614.115 79.752ZM611.683 80.648L610.3 76.8946L605.773 78.5626L608.251 82.7024L611.683 80.648ZM633.443 117V121H640.499L636.875 114.946L633.443 117ZM611.427 117L607.958 118.992L609.111 121H611.427V117ZM592.611 84.232L596.08 82.2402L594.927 80.232H592.611V84.232ZM570.083 84.232V80.232H566.083V84.232H570.083ZM570.083 117V121H574.083V117H570.083ZM551.395 117H547.395V121H551.395V117ZM610.147 59.784L613.527 61.9226L613.588 61.8262L613.644 61.7266L610.147 59.784ZM607.459 44.424L610.086 41.4077L610.049 41.3753L610.011 41.3439L607.459 44.424ZM570.083 40.712V36.712H566.083V40.712H570.083ZM570.083 66.056H566.083V70.056H570.083V66.056ZM551.395 26.664H596.835V18.664H551.395V26.664ZM596.835 26.664C605.755 26.664 612.734 29.1836 618.111 33.9714L623.431 27.9966C616.349 21.6911 607.371 18.664 596.835 18.664V26.664ZM618.068 33.9326C623.261 38.6927 625.987 45.1509 625.987 53.768H633.987C633.987 43.2705 630.569 34.5393 623.474 28.0354L618.068 33.9326ZM625.987 53.768C625.987 59.403 624.757 63.9784 622.484 67.6716L629.298 71.8644C632.486 66.6829 633.987 60.5916 633.987 53.768H625.987ZM622.473 67.6903C620.301 71.2633 617.046 74.0804 612.496 76.0943L615.734 83.4097C621.595 80.8156 626.19 76.9767 629.309 71.8457L622.473 67.6903ZM612.732 75.9986L610.3 76.8946L613.066 84.4014L615.498 83.5054L612.732 75.9986ZM608.251 82.7024L630.011 119.054L636.875 114.946L615.115 78.5936L608.251 82.7024ZM633.443 113H611.427V121H633.443V113ZM614.896 115.008L596.08 82.2402L589.142 86.2238L607.958 118.992L614.896 115.008ZM592.611 80.232H570.083V88.232H592.611V80.232ZM566.083 84.232V117H574.083V84.232H566.083ZM570.083 113H551.395V121H570.083V113ZM555.395 117V22.664H547.395V117H555.395ZM595.043 70.056C603.105 70.056 609.828 67.7702 613.527 61.9226L606.767 57.6454C605.176 60.1604 601.829 62.056 595.043 62.056V70.056ZM613.644 61.7266C614.935 59.4028 615.427 56.6601 615.427 53.768H607.427C607.427 55.8252 607.066 57.0931 606.65 57.8414L613.644 61.7266ZM615.427 53.768C615.427 48.8399 613.713 44.5669 610.086 41.4077L604.832 47.4403C606.495 48.8891 607.427 50.8454 607.427 53.768H615.427ZM610.011 41.3439C606.128 38.1263 601.174 36.712 595.555 36.712V44.712C599.835 44.712 602.817 45.7724 604.907 47.5041L610.011 41.3439ZM595.555 36.712H570.083V44.712H595.555V36.712ZM566.083 40.712V66.056H574.083V40.712H566.083ZM570.083 70.056H595.043V62.056H570.083V70.056ZM17.4 234.56L20.3986 231.913L20.3912 231.904L17.4 234.56ZM17.4 166.592L14.4281 163.915L14.4212 163.922L17.4 166.592ZM78.2 160.704L75.925 163.994L75.9435 164.007L75.9621 164.019L78.2 160.704ZM93.304 180.288L94.9571 183.93L98.3888 182.373L97.0384 178.855L93.304 180.288ZM76.664 187.84V191.84H77.5292L78.3171 191.482L76.664 187.84ZM76.536 187.84L72.8594 189.416L73.8984 191.84H76.536V187.84ZM75.384 185.152L71.7001 186.711L71.7038 186.719L71.7074 186.728L75.384 185.152ZM66.808 174.656L64.5726 177.973L64.5809 177.979L64.5892 177.984L66.808 174.656ZM39.8 172.992L38.192 169.329L38.192 169.329L39.8 172.992ZM31.096 179.136L28.1228 176.46L28.1146 176.469L28.1064 176.479L31.096 179.136ZM31.096 221.888L28.0656 224.499L28.0687 224.502L31.096 221.888ZM66.808 226.496L64.6056 223.157L64.58 223.174L64.5547 223.191L66.808 226.496ZM75.384 216L71.6818 214.485L71.6708 214.512L71.6601 214.54L75.384 216ZM76.536 213.184V209.184H73.8506L72.8338 211.669L76.536 213.184ZM76.664 213.184L78.3402 209.552L77.5425 209.184H76.664V213.184ZM93.304 220.864L97.0153 222.356L98.4344 218.826L94.9802 217.232L93.304 220.864ZM78.2 240.448L80.4915 243.727L80.5024 243.719L80.5132 243.711L78.2 240.448ZM51.064 244.768C37.9847 244.768 27.9101 240.421 20.3986 231.913L14.4014 237.207C23.6153 247.643 35.9833 252.768 51.064 252.768V244.768ZM20.3912 231.904C13.0082 223.589 9.24 213.218 9.24 200.512H1.24C1.24 214.942 5.57847 227.27 14.4088 237.216L20.3912 231.904ZM9.24 200.512C9.24 187.805 13.008 177.486 20.3788 169.262L14.4212 163.922C5.57863 173.789 1.24 186.083 1.24 200.512H9.24ZM20.3718 169.269C28.0726 160.721 38.1724 156.384 51.064 156.384V148.384C36.1369 148.384 23.794 153.519 14.4282 163.915L20.3718 169.269ZM51.064 156.384C60.3486 156.384 68.595 158.925 75.925 163.994L80.475 157.414C71.7623 151.389 61.9181 148.384 51.064 148.384V156.384ZM75.9621 164.019C82.0417 168.123 86.5906 173.96 89.5696 181.721L97.0384 178.855C93.5321 169.72 88.0116 162.501 80.4379 157.389L75.9621 164.019ZM91.6509 176.646L75.0109 184.198L78.3171 191.482L94.9571 183.93L91.6509 176.646ZM76.664 183.84H76.536V191.84H76.664V183.84ZM80.2126 186.264L79.0606 183.576L71.7074 186.728L72.8594 189.416L80.2126 186.264ZM79.0679 183.593C76.8999 178.469 73.5473 174.341 69.0268 171.328L64.5892 177.984C67.7487 180.091 70.1135 182.96 71.7001 186.711L79.0679 183.593ZM69.0434 171.339C64.4032 168.212 59.0884 166.688 53.24 166.688V174.688C57.6316 174.688 61.3621 175.809 64.5726 177.973L69.0434 171.339ZM53.24 166.688C47.4449 166.688 42.3661 167.497 38.192 169.329L41.408 176.655C44.2312 175.415 48.1124 174.688 53.24 174.688V166.688ZM38.192 169.329C34.2307 171.069 30.8464 173.434 28.1228 176.46L34.0692 181.812C35.9536 179.718 38.372 177.987 41.408 176.655L38.192 169.329ZM28.1064 176.479C22.534 182.747 19.928 190.896 19.928 200.512H27.928C27.928 192.378 30.1007 186.277 34.0856 181.793L28.1064 176.479ZM19.928 200.512C19.928 209.984 22.5476 218.094 28.0656 224.499L34.1264 219.277C30.0871 214.589 27.928 208.448 27.928 200.512H19.928ZM28.0687 224.502C33.9231 231.281 42.5853 234.336 53.24 234.336V226.336C44.0974 226.336 37.9969 223.759 34.1233 219.274L28.0687 224.502ZM53.24 234.336C59.199 234.336 64.5387 232.885 69.0613 229.801L64.5547 223.191C61.568 225.227 57.8623 226.336 53.24 226.336V234.336ZM69.0104 229.835C73.6894 226.749 77.0912 222.603 79.1079 217.46L71.6601 214.54C70.2635 218.101 67.9479 220.952 64.6056 223.157L69.0104 229.835ZM79.0862 217.515L80.2382 214.699L72.8338 211.669L71.6818 214.485L79.0862 217.515ZM76.536 217.184H76.664V209.184H76.536V217.184ZM74.9878 216.816L91.6278 224.496L94.9802 217.232L78.3402 209.552L74.9878 216.816ZM89.5927 219.372C86.5273 226.996 81.9517 232.886 75.8868 237.185L80.5132 243.711C87.9309 238.453 93.4247 231.287 97.0153 222.356L89.5927 219.372ZM75.9085 237.169C68.6783 242.223 60.4414 244.768 51.064 244.768V252.768C61.9959 252.768 71.8497 249.767 80.4915 243.727L75.9085 237.169ZM139.586 211.136H143.586V209.883L142.871 208.853L139.586 211.136ZM99.65 153.664V149.664H91.9996L96.3652 155.947L99.65 153.664ZM122.306 153.664L125.591 151.382L124.398 149.664H122.306V153.664ZM148.802 191.808L145.517 194.09L148.794 198.808L152.082 194.097L148.802 191.808ZM175.426 153.664V149.664H173.34L172.146 151.375L175.426 153.664ZM198.082 153.664L201.37 155.942L205.718 149.664H198.082V153.664ZM158.274 211.136L154.986 208.858L154.274 209.886V211.136H158.274ZM158.274 248V252H162.274V248H158.274ZM139.586 248H135.586V252H139.586V248ZM142.871 208.853L102.935 151.381L96.3652 155.947L136.301 213.419L142.871 208.853ZM99.65 157.664H122.306V149.664H99.65V157.664ZM119.021 155.946L145.517 194.09L152.087 189.526L125.591 151.382L119.021 155.946ZM152.082 194.097L178.706 155.953L172.146 151.375L145.522 189.519L152.082 194.097ZM175.426 157.664H198.082V149.664H175.426V157.664ZM194.794 151.386L154.986 208.858L161.562 213.414L201.37 155.942L194.794 151.386ZM154.274 211.136V248H162.274V211.136H154.274ZM158.274 244H139.586V252H158.274V244ZM143.586 248V211.136H135.586V248H143.586ZM209.64 153.664V149.664H205.64V153.664H209.64ZM277.224 162.368L279.949 159.44L279.94 159.431L279.931 159.423L277.224 162.368ZM277.096 208.96L279.801 211.907L279.822 211.887L279.844 211.867L277.096 208.96ZM228.328 217.536V213.536H224.328V217.536H228.328ZM228.328 248V252H232.328V248H228.328ZM209.64 248H205.64V252H209.64V248ZM264.04 195.904L266.773 198.825L266.797 198.803L266.82 198.78L264.04 195.904ZM264.04 175.424L261.307 178.345L261.311 178.348L264.04 175.424ZM228.328 171.712V167.712H224.328V171.712H228.328ZM228.328 199.616H224.328V203.616H228.328V199.616ZM209.64 157.664H252.52V149.664H209.64V157.664ZM252.52 157.664C261.868 157.664 269.073 160.311 274.517 165.313L279.931 159.423C272.745 152.82 263.481 149.664 252.52 149.664V157.664ZM274.499 165.296C279.698 170.134 282.44 176.725 282.44 185.536H290.44C290.44 174.891 287.038 166.036 279.949 159.44L274.499 165.296ZM282.44 185.536C282.44 194.327 279.667 201.026 274.348 206.053L279.844 211.867C286.984 205.118 290.44 196.201 290.44 185.536H282.44ZM274.391 206.013C269.043 210.922 261.886 213.536 252.52 213.536V221.536C263.464 221.536 272.69 218.433 279.801 211.907L274.391 206.013ZM252.52 213.536H228.328V221.536H252.52V213.536ZM224.328 217.536V248H232.328V217.536H224.328ZM228.328 244H209.64V252H228.328V244ZM213.64 248V153.664H205.64V248H213.64ZM251.88 203.616C257.853 203.616 263.086 202.274 266.773 198.825L261.307 192.983C259.703 194.484 256.83 195.616 251.88 195.616V203.616ZM266.82 198.78C270.327 195.389 271.88 190.843 271.88 185.664H263.88C263.88 189.189 262.873 191.469 261.26 193.028L266.82 198.78ZM271.88 185.664C271.88 180.433 270.344 175.837 266.769 172.5L261.311 178.348C262.856 179.79 263.88 182.02 263.88 185.664H271.88ZM266.773 172.503C263.086 169.054 257.853 167.712 251.88 167.712V175.712C256.83 175.712 259.703 176.844 261.307 178.345L266.773 172.503ZM251.88 167.712H228.328V175.712H251.88V167.712ZM224.328 171.712V199.616H232.328V171.712H224.328ZM228.328 203.616H251.88V195.616H228.328V203.616ZM299.905 153.664V149.664H295.905V153.664H299.905ZM318.593 153.664H322.593V149.664H318.593V153.664ZM318.593 191.552H314.593V195.552H318.593V191.552ZM359.297 191.552V195.552H363.297V191.552H359.297ZM359.297 153.664V149.664H355.297V153.664H359.297ZM377.857 153.664H381.857V149.664H377.857V153.664ZM377.857 248V252H381.857V248H377.857ZM359.297 248H355.297V252H359.297V248ZM359.297 209.984H363.297V205.984H359.297V209.984ZM318.593 209.984V205.984H314.593V209.984H318.593ZM318.593 248V252H322.593V248H318.593ZM299.905 248H295.905V252H299.905V248ZM299.905 157.664H318.593V149.664H299.905V157.664ZM314.593 153.664V191.552H322.593V153.664H314.593ZM318.593 195.552H359.297V187.552H318.593V195.552ZM363.297 191.552V153.664H355.297V191.552H363.297ZM359.297 157.664H377.857V149.664H359.297V157.664ZM373.857 153.664V248H381.857V153.664H373.857ZM377.857 244H359.297V252H377.857V244ZM363.297 248V209.984H355.297V248H363.297ZM359.297 205.984H318.593V213.984H359.297V205.984ZM314.593 209.984V248H322.593V209.984H314.593ZM318.593 244H299.905V252H318.593V244ZM303.905 248V153.664H295.905V248H303.905ZM398.92 153.664V149.664H394.92V153.664H398.92ZM470.728 153.664H474.728V149.664H470.728V153.664ZM470.728 171.84V175.84H474.728V171.84H470.728ZM417.608 171.84V167.84H413.608V171.84H417.608ZM417.608 191.552H413.608V195.552H417.608V191.552ZM456.136 191.552H460.136V187.552H456.136V191.552ZM456.136 209.984V213.984H460.136V209.984H456.136ZM417.608 209.984V205.984H413.608V209.984H417.608ZM417.608 229.696H413.608V233.696H417.608V229.696ZM470.728 229.696H474.728V225.696H470.728V229.696ZM470.728 248V252H474.728V248H470.728ZM398.92 248H394.92V252H398.92V248ZM398.92 157.664H470.728V149.664H398.92V157.664ZM466.728 153.664V171.84H474.728V153.664H466.728ZM470.728 167.84H417.608V175.84H470.728V167.84ZM413.608 171.84V191.552H421.608V171.84H413.608ZM417.608 195.552H456.136V187.552H417.608V195.552ZM452.136 191.552V209.984H460.136V191.552H452.136ZM456.136 205.984H417.608V213.984H456.136V205.984ZM413.608 209.984V229.696H421.608V209.984H413.608ZM417.608 233.696H470.728V225.696H417.608V233.696ZM466.728 229.696V248H474.728V229.696H466.728ZM470.728 244H398.92V252H470.728V244ZM402.92 248V153.664H394.92V248H402.92ZM486.685 153.664V149.664H482.685V153.664H486.685ZM556.061 161.984L558.764 159.035L558.743 159.016L558.721 158.997L556.061 161.984ZM561.181 200.768L557.774 198.672L557.769 198.681L557.763 198.69L561.181 200.768ZM549.405 210.752L550.788 214.505L550.907 214.461L551.024 214.41L549.405 210.752ZM546.973 211.648L545.59 207.895L541.063 209.563L543.541 213.702L546.973 211.648ZM568.733 248V252H575.789L572.165 245.946L568.733 248ZM546.717 248L543.248 249.992L544.401 252H546.717V248ZM527.901 215.232L531.37 213.24L530.217 211.232H527.901V215.232ZM505.373 215.232V211.232H501.373V215.232H505.373ZM505.373 248V252H509.373V248H505.373ZM486.685 248H482.685V252H486.685V248ZM545.437 190.784L548.817 192.923L548.878 192.826L548.934 192.727L545.437 190.784ZM542.749 175.424L545.376 172.408L545.339 172.375L545.301 172.344L542.749 175.424ZM505.373 171.712V167.712H501.373V171.712H505.373ZM505.373 197.056H501.373V201.056H505.373V197.056ZM486.685 157.664H532.125V149.664H486.685V157.664ZM532.125 157.664C541.045 157.664 548.024 160.184 553.401 164.971L558.721 158.997C551.639 152.691 542.661 149.664 532.125 149.664V157.664ZM553.358 164.933C558.551 169.693 561.277 176.151 561.277 184.768H569.277C569.277 174.27 565.859 165.539 558.764 159.035L553.358 164.933ZM561.277 184.768C561.277 190.403 560.047 194.978 557.774 198.672L564.588 202.864C567.776 197.683 569.277 191.592 569.277 184.768H561.277ZM557.763 198.69C555.591 202.263 552.336 205.08 547.786 207.094L551.024 214.41C556.885 211.816 561.48 207.977 564.599 202.846L557.763 198.69ZM548.022 206.999L545.59 207.895L548.356 215.401L550.788 214.505L548.022 206.999ZM543.541 213.702L565.301 250.054L572.165 245.946L550.405 209.594L543.541 213.702ZM568.733 244H546.717V252H568.733V244ZM550.186 246.008L531.37 213.24L524.432 217.224L543.248 249.992L550.186 246.008ZM527.901 211.232H505.373V219.232H527.901V211.232ZM501.373 215.232V248H509.373V215.232H501.373ZM505.373 244H486.685V252H505.373V244ZM490.685 248V153.664H482.685V248H490.685ZM530.333 201.056C538.395 201.056 545.118 198.77 548.817 192.923L542.057 188.645C540.466 191.16 537.119 193.056 530.333 193.056V201.056ZM548.934 192.727C550.225 190.403 550.717 187.66 550.717 184.768H542.717C542.717 186.825 542.356 188.093 541.94 188.841L548.934 192.727ZM550.717 184.768C550.717 179.84 549.003 175.567 545.376 172.408L540.122 178.44C541.785 179.889 542.717 181.845 542.717 184.768H550.717ZM545.301 172.344C541.418 169.126 536.464 167.712 530.845 167.712V175.712C535.125 175.712 538.107 176.772 540.197 178.504L545.301 172.344ZM530.845 167.712H505.373V175.712H530.845V167.712ZM501.373 171.712V197.056H509.373V171.712H501.373ZM505.373 201.056H530.333V193.056H505.373V201.056ZM624.124 240.96L621.649 244.103L621.66 244.111L624.124 240.96ZM612.732 221.12L616.713 220.731L616.712 220.716L616.71 220.701L612.732 221.12ZM612.22 216.256V212.256H607.777L608.242 216.675L612.22 216.256ZM630.78 216.256L634.722 215.576L634.149 212.256H630.78V216.256ZM631.42 219.968L627.478 220.648L627.479 220.655L627.481 220.663L631.42 219.968ZM636.412 227.136L638.651 223.822L638.641 223.815L638.631 223.808L636.412 227.136ZM659.068 226.88L661.601 229.976L661.664 229.924L661.725 229.87L659.068 226.88ZM658.812 211.008L661.538 208.08L661.52 208.064L661.503 208.048L658.812 211.008ZM634.236 207.168H630.236V211.168H634.236V207.168ZM634.236 189.376V185.376H630.236V189.376H634.236ZM656.38 186.432L658.763 189.644L658.791 189.624L658.819 189.602L656.38 186.432ZM656.892 173.376L654.195 176.33L654.236 176.367L654.277 176.403L656.892 173.376ZM637.308 173.376L639.764 176.533L639.764 176.533L637.308 173.376ZM633.34 179.136L637.282 179.816L637.284 179.805L637.286 179.794L633.34 179.136ZM632.7 182.848V186.848H636.069L636.642 183.528L632.7 182.848ZM614.524 182.848L610.545 182.44L610.093 186.848H614.524V182.848ZM615.036 177.856L619.015 178.264L619.018 178.237L619.02 178.209L615.036 177.856ZM624.38 160.32L621.749 157.307L621.74 157.315L624.38 160.32ZM669.564 159.936L666.943 162.957L669.564 159.936ZM673.02 193.856L669.902 191.35L669.897 191.357L673.02 193.856ZM669.948 197.44L667.12 194.612L663.669 198.062L667.729 200.768L669.948 197.44ZM676.22 203.456L679.502 201.17L679.456 201.103L679.407 201.038L676.22 203.456ZM678.396 231.104L674.818 229.315L674.789 229.374L674.761 229.434L678.396 231.104ZM671.1 240.576L673.799 243.528L673.808 243.52L673.816 243.512L671.1 240.576ZM647.676 244.768C639.456 244.768 632.489 242.424 626.588 237.809L621.66 244.111C629.071 249.906 637.805 252.768 647.676 252.768V244.768ZM626.599 237.817C620.532 233.04 617.364 227.381 616.713 220.731L608.751 221.509C609.636 230.561 614.063 238.128 621.649 244.103L626.599 237.817ZM616.71 220.701L616.198 215.837L608.242 216.675L608.754 221.539L616.71 220.701ZM612.22 220.256H630.78V212.256H612.22V220.256ZM626.838 216.936L627.478 220.648L635.362 219.288L634.722 215.576L626.838 216.936ZM627.481 220.663C628.211 224.803 630.616 228.079 634.193 230.464L638.631 223.808C636.576 222.438 635.652 220.935 635.359 219.273L627.481 220.663ZM634.173 230.45C638.082 233.092 642.643 234.336 647.676 234.336V226.336C644.005 226.336 641.057 225.447 638.651 223.822L634.173 230.45ZM647.676 234.336C653.086 234.336 657.873 233.026 661.601 229.976L656.535 223.784C654.631 225.342 651.823 226.336 647.676 226.336V234.336ZM661.725 229.87C664.932 227.019 666.524 223.262 666.524 218.944H658.524C658.524 221.111 657.812 222.645 656.411 223.89L661.725 229.87ZM666.524 218.944C666.524 214.695 664.707 211.031 661.538 208.08L656.086 213.936C657.867 215.593 658.524 217.22 658.524 218.944H666.524ZM661.503 208.048C657.908 204.78 653.519 203.168 648.572 203.168V211.168C651.646 211.168 654.084 212.116 656.121 213.968L661.503 208.048ZM648.572 203.168H634.236V211.168H648.572V203.168ZM638.236 207.168V189.376H630.236V207.168H638.236ZM634.236 193.376H647.42V185.376H634.236V193.376ZM647.42 193.376C651.597 193.376 655.421 192.124 658.763 189.644L653.997 183.22C652.048 184.665 649.899 185.376 647.42 185.376V193.376ZM658.819 189.602C661.955 187.19 663.708 183.873 663.708 179.904H655.708C655.708 181.226 655.242 182.261 653.941 183.262L658.819 189.602ZM663.708 179.904C663.708 176.143 662.359 172.812 659.506 170.349L654.277 176.403C655.18 177.183 655.708 178.204 655.708 179.904H663.708ZM659.589 170.422C656.543 167.641 652.172 166.688 647.42 166.688V174.688C651.372 174.688 653.316 175.527 654.195 176.33L659.589 170.422ZM647.42 166.688C642.533 166.688 638.14 167.661 634.852 170.219L639.764 176.533C641.084 175.507 643.433 174.688 647.42 174.688V166.688ZM634.852 170.219C632.077 172.377 629.958 175.1 629.394 178.478L637.286 179.794C637.405 179.076 637.93 177.959 639.764 176.533L634.852 170.219ZM629.398 178.456L628.758 182.168L636.642 183.528L637.282 179.816L629.398 178.456ZM632.7 178.848H614.524V186.848H632.7V178.848ZM618.503 183.256L619.015 178.264L611.057 177.448L610.545 182.44L618.503 183.256ZM619.02 178.209C619.517 172.606 622.07 167.675 627.02 163.325L621.74 157.315C615.426 162.863 611.75 169.624 611.052 177.503L619.02 178.209ZM627.011 163.333C632.256 158.752 638.797 156.384 646.908 156.384V148.384C637.099 148.384 628.621 151.306 621.749 157.307L627.011 163.333ZM646.908 156.384C655.458 156.384 662.013 158.68 666.943 162.957L672.185 156.915C665.51 151.122 656.96 148.384 646.908 148.384V156.384ZM666.943 162.957C671.826 167.195 674.268 172.6 674.268 179.52H682.268C682.268 170.398 678.907 162.747 672.185 156.915L666.943 162.957ZM674.268 179.52C674.268 183.745 672.875 187.653 669.902 191.35L676.137 196.362C680.163 191.355 682.268 185.706 682.268 179.52H674.268ZM669.897 191.357C668.538 193.055 667.633 194.099 667.12 194.612L672.776 200.268C673.629 199.416 674.771 198.07 676.143 196.355L669.897 191.357ZM667.729 200.768C669.62 202.029 671.393 203.711 673.033 205.874L679.407 201.038C677.292 198.251 674.884 195.923 672.167 194.112L667.729 200.768ZM672.938 205.742C675.883 209.971 677.212 214.053 677.212 218.048H685.212C685.212 212.145 683.213 206.498 679.502 201.17L672.938 205.742ZM677.212 218.048C677.212 222.487 676.372 226.207 674.818 229.315L681.974 232.893C684.174 228.492 685.212 223.508 685.212 218.048H677.212ZM674.761 229.434C673.591 231.981 671.534 234.726 668.384 237.64L673.816 243.512C677.493 240.112 680.299 236.542 682.031 232.774L674.761 229.434ZM668.401 237.624C663.302 242.286 656.522 244.768 647.676 244.768V252.768C658.115 252.768 666.952 249.789 673.799 243.528L668.401 237.624ZM692.11 225.472V221.472H688.11V225.472H692.11ZM712.974 225.472H716.974V221.472H712.974V225.472ZM712.974 248V252H716.974V248H712.974ZM692.11 248H688.11V252H692.11V248ZM692.11 229.472H712.974V221.472H692.11V229.472ZM708.974 225.472V248H716.974V225.472H708.974ZM712.974 244H692.11V252H712.974V244ZM696.11 248V225.472H688.11V248H696.11ZM731.427 234.816L727.909 236.72L727.916 236.733L727.923 236.745L731.427 234.816ZM731.427 166.336L734.945 168.24L734.945 168.24L731.427 166.336ZM786.083 168.256L789.592 166.335L789.585 166.323L789.578 166.311L786.083 168.256ZM785.059 234.816L781.555 232.887L781.548 232.899L781.541 232.912L785.059 234.816ZM767.651 226.752L770.239 229.802L770.265 229.78L770.291 229.757L767.651 226.752ZM773.283 212.032L769.318 211.503L769.317 211.514L769.315 211.525L773.283 212.032ZM769.827 176.96L773.345 175.057L773.338 175.043L773.33 175.03L769.827 176.96ZM746.659 176.96L750.175 178.867L750.184 178.851L750.192 178.835L746.659 176.96ZM746.659 224.192L750.145 222.231L750.131 222.206L750.116 222.18L746.659 224.192ZM758.307 244.768C746.609 244.768 739.191 240.626 734.931 232.887L727.923 236.745C733.903 247.608 744.405 252.768 758.307 252.768V244.768ZM734.945 232.912C730.304 224.338 727.875 213.598 727.875 200.512H719.875C719.875 214.562 722.481 226.692 727.909 236.72L734.945 232.912ZM727.875 200.512C727.875 187.516 730.302 176.818 734.945 168.24L727.909 164.432C722.483 174.457 719.875 186.543 719.875 200.512H727.875ZM734.945 168.24C739.132 160.505 746.421 156.384 757.923 156.384V148.384C744.166 148.384 733.792 153.565 727.909 164.432L734.945 168.24ZM757.923 156.384C763.812 156.384 768.676 157.59 772.663 159.837C776.637 162.076 779.957 165.473 782.588 170.201L789.578 166.311C786.321 160.458 782.004 155.918 776.591 152.867C771.191 149.824 764.919 148.384 757.923 148.384V156.384ZM782.574 170.177C786.577 177.489 788.739 187.504 788.739 200.512H796.739C796.739 186.725 794.464 175.237 789.592 166.335L782.574 170.177ZM788.739 200.512C788.739 213.589 786.271 224.319 781.555 232.887L788.563 236.745C794.087 226.711 796.739 214.571 796.739 200.512H788.739ZM781.541 232.912C777.365 240.628 770.007 244.768 758.307 244.768V252.768C772.207 252.768 782.684 247.607 788.577 236.72L781.541 232.912ZM757.795 234.336C762.48 234.336 766.687 232.816 770.239 229.802L765.063 223.702C762.983 225.467 760.619 226.336 757.795 226.336V234.336ZM770.291 229.757C774.279 226.252 776.292 220.037 777.251 212.539L769.315 211.525C768.397 218.705 766.655 222.302 765.011 223.747L770.291 229.757ZM777.248 212.561C777.783 208.547 778.051 204.53 778.051 200.512H770.051C770.051 204.174 769.807 207.837 769.318 211.503L777.248 212.561ZM778.051 200.512C778.051 189.793 776.636 181.14 773.345 175.057L766.309 178.863C768.65 183.191 770.051 190.239 770.051 200.512H778.051ZM773.33 175.03C770.221 169.387 764.917 166.688 758.307 166.688V174.688C762.449 174.688 764.825 176.17 766.324 178.89L773.33 175.03ZM758.307 166.688C751.587 166.688 746.171 169.345 743.126 175.085L750.192 178.835C751.584 176.212 753.933 174.688 758.307 174.688V166.688ZM743.143 175.053C739.925 180.986 738.563 189.662 738.563 200.512H746.563C746.563 190.029 747.932 183.003 750.175 178.867L743.143 175.053ZM738.563 200.512C738.563 211.716 739.904 220.535 743.202 226.204L750.116 222.18C747.953 218.462 746.563 211.494 746.563 200.512H738.563ZM743.173 226.153C746.259 231.64 751.388 234.336 757.795 234.336V226.336C753.962 226.336 751.667 224.936 750.145 222.231L743.173 226.153Z" fill="black" fill-opacity="0.3" mask="url(#path-1-outside-1_18_61)"/>
<defs>
<linearGradient id="paint0_linear_18_61" x1="6.2561" y1="131" x2="734.438" y2="-84.1384" gradientUnits="userSpaceOnUse">
<stop stop-color="#F24D56"/>
<stop offset="0.509216" stop-color="#EE0C77"/>
<stop offset="0.964829" stop-color="#F24D56"/>
</linearGradient>
</defs>
</svg>
