<svg width="1620" height="330" viewBox="0 0 1620 330" fill="none" xmlns="http://www.w3.org/2000/svg">
<path d="M103.537 215.94L106.535 213.293L106.528 213.284L103.537 215.94ZM103.537 124.608L100.565 121.931L100.558 121.938L103.537 124.608ZM185.237 116.696L182.962 119.986L182.98 119.999L182.999 120.011L185.237 116.696ZM205.533 143.012L207.186 146.654L210.618 145.097L209.267 141.579L205.533 143.012ZM183.173 153.16V157.16H184.038L184.826 156.802L183.173 153.16ZM183.001 153.16L179.324 154.736L180.363 157.16H183.001V153.16ZM181.453 149.548L177.769 151.107L177.773 151.115L177.776 151.124L181.453 149.548ZM169.929 135.444L167.693 138.761L167.702 138.767L167.71 138.772L169.929 135.444ZM133.637 133.208L132.029 129.545L132.029 129.545L133.637 133.208ZM121.941 141.464L118.968 138.788L118.959 138.797L118.951 138.807L121.941 141.464ZM121.941 198.912L118.91 201.523L118.914 201.526L121.941 198.912ZM169.929 205.104L167.727 201.765L167.701 201.782L167.676 201.799L169.929 205.104ZM181.453 191L177.751 189.485L177.74 189.512L177.729 189.54L181.453 191ZM183.001 187.216V183.216H180.315L179.299 185.701L183.001 187.216ZM183.173 187.216L184.849 183.584L184.051 183.216H183.173V187.216ZM205.533 197.536L209.244 199.028L210.663 195.498L207.209 193.904L205.533 197.536ZM185.237 223.852L187.528 227.131L187.539 227.123L187.55 227.115L185.237 223.852ZM148.773 231.032C130.854 231.032 116.922 225.057 106.535 213.293L100.538 218.587C112.627 232.279 128.852 239.032 148.773 239.032V231.032ZM106.528 213.284C96.3584 201.83 91.1969 187.558 91.1969 170.188H83.1969C83.1969 189.282 88.9287 205.511 100.546 218.596L106.528 213.284ZM91.1969 170.188C91.1969 152.817 96.3583 138.611 106.516 127.278L100.558 121.938C88.9289 134.914 83.1969 151.095 83.1969 170.188H91.1969ZM106.509 127.285C117.143 115.481 131.1 109.516 148.773 109.516V101.516C129.065 101.516 112.864 108.279 100.565 121.931L106.509 127.285ZM148.773 109.516C161.519 109.516 172.875 113.011 182.962 119.986L187.512 113.406C176.042 105.475 163.088 101.516 148.773 101.516V109.516ZM182.999 120.011C191.425 125.699 197.705 133.78 201.799 144.445L209.267 141.579C204.646 129.54 197.395 120.077 187.475 113.381L182.999 120.011ZM203.88 139.37L181.52 149.518L184.826 156.802L207.186 146.654L203.88 139.37ZM183.173 149.16H183.001V157.16H183.173V149.16ZM186.677 151.584L185.129 147.972L177.776 151.124L179.324 154.736L186.677 151.584ZM185.137 147.989C182.323 141.34 177.988 136.009 172.148 132.116L167.71 138.772C172.19 141.759 175.537 145.831 177.769 151.107L185.137 147.989ZM172.164 132.127C166.175 128.091 159.305 126.112 151.697 126.112V134.112C157.849 134.112 163.134 135.688 167.693 138.761L172.164 132.127ZM151.697 126.112C144.024 126.112 137.406 127.185 132.029 129.545L135.245 136.871C139.271 135.103 144.692 134.112 151.697 134.112V126.112ZM132.029 129.545C126.865 131.813 122.483 134.882 118.968 138.788L124.914 144.14C127.59 141.166 131.006 138.731 135.245 136.871L132.029 129.545ZM118.951 138.807C111.736 146.923 108.309 157.522 108.309 170.188H116.309C116.309 159.004 119.303 150.453 124.931 144.121L118.951 138.807ZM108.309 170.188C108.309 182.652 111.75 193.211 118.91 201.523L124.971 196.301C119.289 189.706 116.309 181.116 116.309 170.188H108.309ZM118.914 201.526C126.44 210.241 137.64 214.264 151.697 214.264V206.264C139.152 206.264 130.514 202.719 124.968 196.298L118.914 201.526ZM151.697 214.264C159.475 214.264 166.369 212.373 172.182 208.409L167.676 201.799C163.398 204.715 158.138 206.264 151.697 206.264V214.264ZM172.131 208.443C178.189 204.448 182.573 199.099 185.177 192.46L177.729 189.54C175.746 194.597 172.447 198.651 167.727 201.765L172.131 208.443ZM185.155 192.515L186.703 188.731L179.299 185.701L177.751 189.485L185.155 192.515ZM183.001 191.216H183.173V183.216H183.001V191.216ZM181.497 190.848L203.857 201.168L207.209 193.904L184.849 183.584L181.497 190.848ZM201.822 196.044C197.612 206.513 191.306 214.647 182.924 220.589L187.55 227.115C197.285 220.214 204.51 210.804 209.244 199.028L201.822 196.044ZM182.945 220.573C172.987 227.533 161.641 231.032 148.773 231.032V239.032C163.196 239.032 176.159 235.077 187.528 227.131L182.945 220.573ZM267.724 184.464H271.724V183.211L271.009 182.181L267.724 184.464ZM214.06 107.236V103.236H206.41L210.776 109.519L214.06 107.236ZM244.504 107.236L247.79 104.954L246.596 103.236H244.504V107.236ZM280.108 158.492L276.823 160.774L280.1 165.492L283.388 160.781L280.108 158.492ZM315.884 107.236V103.236H313.798L312.604 104.947L315.884 107.236ZM346.328 107.236L349.617 109.514L353.965 103.236H346.328V107.236ZM292.836 184.464L289.548 182.186L288.836 183.214V184.464H292.836ZM292.836 234V238H296.836V234H292.836ZM267.724 234H263.724V238H267.724V234ZM271.009 182.181L217.345 104.953L210.776 109.519L264.44 186.747L271.009 182.181ZM214.06 111.236H244.504V103.236H214.06V111.236ZM241.219 109.518L276.823 160.774L283.394 156.21L247.79 104.954L241.219 109.518ZM283.388 160.781L319.164 109.525L312.604 104.947L276.828 156.203L283.388 160.781ZM315.884 111.236H346.328V103.236H315.884V111.236ZM343.04 104.958L289.548 182.186L296.125 186.742L349.617 109.514L343.04 104.958ZM288.836 184.464V234H296.836V184.464H288.836ZM292.836 230H267.724V238H292.836V230ZM271.724 234V184.464H263.724V234H271.724ZM361.859 107.236V103.236H357.859V107.236H361.859ZM451.987 119.104L449.118 121.891L449.138 121.912L449.159 121.932L451.987 119.104ZM452.159 168.468L449.384 165.588L445.819 169.022L449.926 171.786L452.159 168.468ZM465.059 184.292L461.35 185.789L461.372 185.842L461.395 185.895L465.059 184.292ZM460.759 218.864L457.605 216.404L457.599 216.413L460.759 218.864ZM441.323 231.248L440.151 227.424L440.066 227.45L439.983 227.479L441.323 231.248ZM361.859 234H357.859V238H361.859V234ZM435.303 150.924L431.726 149.135L431.709 149.168L431.693 149.201L435.303 150.924ZM435.647 139.572L431.914 141.008L431.957 141.119L432.006 141.227L435.647 139.572ZM433.239 135.788L430.354 138.558L430.382 138.588L430.411 138.616L433.239 135.788ZM386.971 131.488V127.488H382.971V131.488H386.971ZM386.971 158.492H382.971V162.492H386.971V158.492ZM438.399 205.964L435.999 202.764L435.971 202.785L435.944 202.807L438.399 205.964ZM438.227 187.044L435.552 190.017L435.568 190.032L435.585 190.047L438.227 187.044ZM386.971 182.4V178.4H382.971V182.4H386.971ZM386.971 209.576H382.971V213.576H386.971V209.576ZM361.859 111.236H419.307V103.236H361.859V111.236ZM419.307 111.236C432.648 111.236 442.384 114.956 449.118 121.891L454.857 116.317C446.225 107.428 434.175 103.236 419.307 103.236V111.236ZM449.159 121.932C454.762 127.535 457.619 134.627 457.619 143.528H465.619C465.619 132.706 462.056 123.515 454.816 116.276L449.159 121.932ZM457.619 143.528C457.619 153.23 454.751 160.415 449.384 165.588L454.935 171.348C462.181 164.366 465.619 154.925 465.619 143.528H457.619ZM449.926 171.786C455.24 175.363 459.018 180.009 461.35 185.789L468.769 182.795C465.826 175.503 461.004 169.6 454.393 165.15L449.926 171.786ZM461.395 185.895C462.717 188.917 463.467 192.862 463.467 197.88H471.467C471.467 192.119 470.613 187.006 468.724 182.689L461.395 185.895ZM463.467 197.88C463.467 205.371 461.456 211.467 457.605 216.404L463.913 221.324C469.007 214.794 471.467 206.901 471.467 197.88H463.467ZM457.599 216.413C453.866 221.226 448.172 224.964 440.151 227.424L442.496 235.072C451.675 232.257 458.938 227.74 463.92 221.315L457.599 216.413ZM439.983 227.479C435.383 229.115 429.504 230 422.231 230V238C430.094 238 436.944 237.051 442.663 235.017L439.983 227.479ZM422.231 230H361.859V238H422.231V230ZM365.859 234V107.236H357.859V234H365.859ZM419.307 162.492C428.272 162.492 435.545 159.704 438.913 152.647L431.693 149.201C430.245 152.235 426.855 154.492 419.307 154.492V162.492ZM438.881 152.713C440 150.474 440.507 148.012 440.507 145.42H432.507C432.507 146.956 432.212 148.163 431.726 149.135L438.881 152.713ZM440.507 145.42C440.507 142.636 440.227 139.98 439.289 137.917L432.006 141.227C432.215 141.687 432.507 142.93 432.507 145.42H440.507ZM439.381 138.136C438.626 136.173 437.532 134.423 436.068 132.96L430.411 138.616C431.011 139.217 431.522 139.99 431.914 141.008L439.381 138.136ZM436.125 133.018C432.351 129.087 426.932 127.488 420.683 127.488V135.488C425.672 135.488 428.624 136.756 430.354 138.558L436.125 133.018ZM420.683 127.488H386.971V135.488H420.683V127.488ZM382.971 131.488V158.492H390.971V131.488H382.971ZM386.971 162.492H419.307V154.492H386.971V162.492ZM423.779 213.576C430.758 213.576 436.715 212.342 440.855 209.121L435.944 202.807C433.892 204.402 430.102 205.576 423.779 205.576V213.576ZM440.799 209.164C444.735 206.212 446.527 201.882 446.527 196.848H438.527C438.527 199.84 437.568 201.588 435.999 202.764L440.799 209.164ZM446.527 196.848C446.527 191.752 444.648 187.366 440.87 184.041L435.585 190.047C437.54 191.767 438.527 193.918 438.527 196.848H446.527ZM440.903 184.071C436.412 180.029 429.913 178.4 422.231 178.4V186.4C428.998 186.4 433.163 187.867 435.552 190.017L440.903 184.071ZM422.231 178.4H386.971V186.4H422.231V178.4ZM382.971 182.4V209.576H390.971V182.4H382.971ZM386.971 213.576H423.779V205.576H386.971V213.576ZM489.032 107.236V103.236H485.032V107.236H489.032ZM585.524 107.236H589.524V103.236H585.524V107.236ZM585.524 131.66V135.66H589.524V131.66H585.524ZM514.144 131.66V127.66H510.144V131.66H514.144ZM514.144 158.148H510.144V162.148H514.144V158.148ZM565.916 158.148H569.916V154.148H565.916V158.148ZM565.916 182.916V186.916H569.916V182.916H565.916ZM514.144 182.916V178.916H510.144V182.916H514.144ZM514.144 209.404H510.144V213.404H514.144V209.404ZM585.524 209.404H589.524V205.404H585.524V209.404ZM585.524 234V238H589.524V234H585.524ZM489.032 234H485.032V238H489.032V234ZM489.032 111.236H585.524V103.236H489.032V111.236ZM581.524 107.236V131.66H589.524V107.236H581.524ZM585.524 127.66H514.144V135.66H585.524V127.66ZM510.144 131.66V158.148H518.144V131.66H510.144ZM514.144 162.148H565.916V154.148H514.144V162.148ZM561.916 158.148V182.916H569.916V158.148H561.916ZM565.916 178.916H514.144V186.916H565.916V178.916ZM510.144 182.916V209.404H518.144V182.916H510.144ZM514.144 213.404H585.524V205.404H514.144V213.404ZM581.524 209.404V234H589.524V209.404H581.524ZM585.524 230H489.032V238H585.524V230ZM493.032 234V107.236H485.032V234H493.032ZM606.966 107.236V103.236H602.966V107.236H606.966ZM700.19 118.416L702.893 115.467L702.872 115.448L702.85 115.429L700.19 118.416ZM707.07 170.532L703.663 168.436L703.658 168.445L703.652 168.454L707.07 170.532ZM691.246 183.948L692.629 187.701L692.749 187.657L692.865 187.606L691.246 183.948ZM687.978 185.152L686.595 181.399L682.068 183.067L684.546 187.206L687.978 185.152ZM717.218 234V238H724.274L720.65 231.946L717.218 234ZM687.634 234L684.165 235.992L685.318 238H687.634V234ZM662.35 189.968L665.819 187.976L664.666 185.968H662.35V189.968ZM632.078 189.968V185.968H628.078V189.968H632.078ZM632.078 234V238H636.078V234H632.078ZM606.966 234H602.966V238H606.966V234ZM685.914 157.116L689.294 159.255L689.355 159.158L689.411 159.059L685.914 157.116ZM682.302 136.476L684.929 133.46L684.892 133.427L684.854 133.396L682.302 136.476ZM632.078 131.488V127.488H628.078V131.488H632.078ZM632.078 165.544H628.078V169.544H632.078V165.544ZM606.966 111.236H668.026V103.236H606.966V111.236ZM668.026 111.236C680.29 111.236 690.012 114.709 697.53 121.403L702.85 115.429C693.627 107.216 681.906 103.236 668.026 103.236V111.236ZM697.487 121.365C704.792 128.061 708.574 137.13 708.574 149.032H716.574C716.574 135.249 712.1 123.907 702.893 115.467L697.487 121.365ZM708.574 149.032C708.574 156.808 706.875 163.217 703.663 168.436L710.477 172.628C714.604 165.922 716.574 157.997 716.574 149.032H708.574ZM703.652 168.454C700.571 173.523 695.966 177.484 689.627 180.29L692.865 187.606C700.515 184.22 706.46 179.237 710.488 172.61L703.652 168.454ZM689.863 180.195L686.595 181.399L689.361 188.905L692.629 187.701L689.863 180.195ZM684.546 187.206L713.786 236.054L720.65 231.946L691.41 183.098L684.546 187.206ZM717.218 230H687.634V238H717.218V230ZM691.103 232.008L665.819 187.976L658.881 191.96L684.165 235.992L691.103 232.008ZM662.35 185.968H632.078V193.968H662.35V185.968ZM628.078 189.968V234H636.078V189.968H628.078ZM632.078 230H606.966V238H632.078V230ZM610.966 234V107.236H602.966V234H610.966ZM665.618 169.544C676.232 169.544 684.686 166.54 689.294 159.255L682.534 154.977C680.033 158.93 674.956 161.544 665.618 161.544V169.544ZM689.411 159.059C690.995 156.207 691.634 152.775 691.634 149.032H683.634C683.634 151.94 683.127 153.897 682.417 155.173L689.411 159.059ZM691.634 149.032C691.634 142.755 689.466 137.411 684.929 133.46L679.675 139.492C682.248 141.733 683.634 144.76 683.634 149.032H691.634ZM684.854 133.396C679.944 129.328 673.626 127.488 666.306 127.488V135.488C672.288 135.488 676.633 136.974 679.75 139.556L684.854 133.396ZM666.306 127.488H632.078V135.488H666.306V127.488ZM628.078 131.488V165.544H636.078V131.488H628.078ZM632.078 169.544H665.618V161.544H632.078V169.544ZM791.994 215.94L794.992 213.293L794.985 213.284L791.994 215.94ZM791.994 124.608L789.022 121.931L789.015 121.938L791.994 124.608ZM873.694 116.696L871.419 119.986L871.437 119.999L871.456 120.011L873.694 116.696ZM893.99 143.012L895.643 146.654L899.075 145.097L897.724 141.579L893.99 143.012ZM871.63 153.16V157.16H872.495L873.283 156.802L871.63 153.16ZM871.458 153.16L867.781 154.736L868.82 157.16H871.458V153.16ZM869.91 149.548L866.226 151.107L866.229 151.115L866.233 151.124L869.91 149.548ZM858.386 135.444L856.15 138.761L856.159 138.767L856.167 138.772L858.386 135.444ZM822.094 133.208L820.486 129.545L820.486 129.545L822.094 133.208ZM810.398 141.464L807.425 138.788L807.416 138.797L807.408 138.807L810.398 141.464ZM810.398 198.912L807.367 201.523L807.37 201.526L810.398 198.912ZM858.386 205.104L856.183 201.765L856.158 201.782L856.132 201.799L858.386 205.104ZM869.91 191L866.208 189.485L866.197 189.512L866.186 189.54L869.91 191ZM871.458 187.216V183.216H868.772L867.756 185.701L871.458 187.216ZM871.63 187.216L873.306 183.584L872.508 183.216H871.63V187.216ZM893.99 197.536L897.701 199.028L899.12 195.498L895.666 193.904L893.99 197.536ZM873.694 223.852L875.985 227.131L875.996 227.123L876.007 227.115L873.694 223.852ZM837.23 231.032C819.31 231.032 805.378 225.057 794.992 213.293L788.995 218.587C801.084 232.279 817.309 239.032 837.23 239.032V231.032ZM794.985 213.284C784.815 201.83 779.654 187.558 779.654 170.188H771.654C771.654 189.282 777.386 205.511 789.003 218.596L794.985 213.284ZM779.654 170.188C779.654 152.817 784.815 138.611 794.973 127.278L789.015 121.938C777.386 134.914 771.654 151.095 771.654 170.188H779.654ZM794.966 127.285C805.6 115.481 819.557 109.516 837.23 109.516V101.516C817.521 101.516 801.321 108.279 789.022 121.931L794.966 127.285ZM837.23 109.516C849.976 109.516 861.331 113.011 871.419 119.986L875.969 113.406C864.499 105.475 851.545 101.516 837.23 101.516V109.516ZM871.456 120.011C879.882 125.699 886.162 133.78 890.255 144.445L897.724 141.579C893.103 129.54 885.852 120.077 875.932 113.381L871.456 120.011ZM892.337 139.37L869.977 149.518L873.283 156.802L895.643 146.654L892.337 139.37ZM871.63 149.16H871.458V157.16H871.63V149.16ZM875.134 151.584L873.586 147.972L866.233 151.124L867.781 154.736L875.134 151.584ZM873.594 147.989C870.78 141.34 866.445 136.009 860.605 132.116L856.167 138.772C860.646 141.759 863.994 145.831 866.226 151.107L873.594 147.989ZM860.621 132.127C854.632 128.091 847.762 126.112 840.154 126.112V134.112C846.305 134.112 851.591 135.688 856.15 138.761L860.621 132.127ZM840.154 126.112C832.481 126.112 825.863 127.185 820.486 129.545L823.702 136.871C827.728 135.103 833.149 134.112 840.154 134.112V126.112ZM820.486 129.545C815.322 131.813 810.94 134.882 807.425 138.788L813.371 144.14C816.047 141.166 819.463 138.731 823.702 136.871L820.486 129.545ZM807.408 138.807C800.193 146.923 796.766 157.522 796.766 170.188H804.766C804.766 159.004 807.76 150.453 813.387 144.121L807.408 138.807ZM796.766 170.188C796.766 182.652 800.207 193.211 807.367 201.523L813.428 196.301C807.746 189.706 804.766 181.116 804.766 170.188H796.766ZM807.37 201.526C814.897 210.241 826.096 214.264 840.154 214.264V206.264C827.608 206.264 818.971 202.719 813.425 196.298L807.37 201.526ZM840.154 214.264C847.931 214.264 854.826 212.373 860.639 208.409L856.132 201.799C851.855 204.715 846.595 206.264 840.154 206.264V214.264ZM860.588 208.443C866.646 204.448 871.03 199.099 873.634 192.46L866.186 189.54C864.203 194.597 860.904 198.651 856.183 201.765L860.588 208.443ZM873.612 192.515L875.16 188.731L867.756 185.701L866.208 189.485L873.612 192.515ZM871.458 191.216H871.63V183.216H871.458V191.216ZM869.954 190.848L892.314 201.168L895.666 193.904L873.306 183.584L869.954 190.848ZM890.278 196.044C886.069 206.513 879.763 214.647 871.381 220.589L876.007 227.115C885.742 220.214 892.966 210.804 897.701 199.028L890.278 196.044ZM871.402 220.573C861.444 227.533 850.098 231.032 837.23 231.032V239.032C851.652 239.032 864.615 235.077 875.985 227.131L871.402 220.573ZM956.181 184.464H960.181V183.211L959.466 182.181L956.181 184.464ZM902.517 107.236V103.236H894.867L899.232 109.519L902.517 107.236ZM932.961 107.236L936.246 104.954L935.053 103.236H932.961V107.236ZM968.565 158.492L965.28 160.774L968.557 165.492L971.845 160.781L968.565 158.492ZM1004.34 107.236V103.236H1002.26L1001.06 104.947L1004.34 107.236ZM1034.79 107.236L1038.07 109.514L1042.42 103.236H1034.79V107.236ZM981.293 184.464L978.005 182.186L977.293 183.214V184.464H981.293ZM981.293 234V238H985.293V234H981.293ZM956.181 234H952.181V238H956.181V234ZM959.466 182.181L905.802 104.953L899.232 109.519L952.896 186.747L959.466 182.181ZM902.517 111.236H932.961V103.236H902.517V111.236ZM929.676 109.518L965.28 160.774L971.85 156.21L936.246 104.954L929.676 109.518ZM971.845 160.781L1007.62 109.525L1001.06 104.947L965.285 156.203L971.845 160.781ZM1004.34 111.236H1034.79V103.236H1004.34V111.236ZM1031.5 104.958L978.005 182.186L984.581 186.742L1038.07 109.514L1031.5 104.958ZM977.293 184.464V234H985.293V184.464H977.293ZM981.293 230H956.181V238H981.293V230ZM960.181 234V184.464H952.181V234H960.181ZM1050.32 107.236V103.236H1046.32V107.236H1050.32ZM1141.13 118.932L1143.86 116.004L1143.85 115.995L1143.84 115.987L1141.13 118.932ZM1140.96 181.54L1143.67 184.487L1143.69 184.467L1143.71 184.447L1140.96 181.54ZM1075.43 193.064V189.064H1071.43V193.064H1075.43ZM1075.43 234V238H1079.43V234H1075.43ZM1050.32 234H1046.32V238H1050.32V234ZM1123.42 163.996L1126.15 166.917L1126.17 166.895L1126.2 166.872L1123.42 163.996ZM1123.42 136.476L1120.68 139.397L1120.69 139.4L1123.42 136.476ZM1075.43 131.488V127.488H1071.43V131.488H1075.43ZM1075.43 168.984H1071.43V172.984H1075.43V168.984ZM1050.32 111.236H1107.94V103.236H1050.32V111.236ZM1107.94 111.236C1120.77 111.236 1130.81 114.88 1138.43 121.877L1143.84 115.987C1134.48 107.389 1122.39 103.236 1107.94 103.236V111.236ZM1138.41 121.86C1145.72 128.664 1149.52 137.909 1149.52 150.064H1157.52C1157.52 136.075 1153.06 124.566 1143.86 116.004L1138.41 121.86ZM1149.52 150.064C1149.52 162.199 1145.67 171.582 1138.21 178.633L1143.71 184.447C1152.99 175.674 1157.52 164.073 1157.52 150.064H1149.52ZM1138.26 178.593C1130.77 185.467 1120.79 189.064 1107.94 189.064V197.064C1122.37 197.064 1134.41 192.978 1143.67 184.487L1138.26 178.593ZM1107.94 189.064H1075.43V197.064H1107.94V189.064ZM1071.43 193.064V234H1079.43V193.064H1071.43ZM1075.43 230H1050.32V238H1075.43V230ZM1054.32 234V107.236H1046.32V234H1054.32ZM1107.08 172.984C1114.93 172.984 1121.55 171.216 1126.15 166.917L1120.68 161.075C1118.17 163.426 1113.9 164.984 1107.08 164.984V172.984ZM1126.2 166.872C1130.58 162.631 1132.58 156.911 1132.58 150.236H1124.58C1124.58 155.257 1123.13 158.711 1120.64 161.12L1126.2 166.872ZM1132.58 150.236C1132.58 143.48 1130.6 137.71 1126.15 133.552L1120.69 139.4C1123.11 141.663 1124.58 145.067 1124.58 150.236H1132.58ZM1126.15 133.555C1121.55 129.256 1114.93 127.488 1107.08 127.488V135.488C1113.9 135.488 1118.17 137.046 1120.68 139.397L1126.15 133.555ZM1107.08 127.488H1075.43V135.488H1107.08V127.488ZM1071.43 131.488V168.984H1079.43V131.488H1071.43ZM1075.43 172.984H1107.08V164.984H1075.43V172.984ZM1171.61 107.236V103.236H1167.61V107.236H1171.61ZM1196.72 107.236H1200.72V103.236H1196.72V107.236ZM1196.72 158.148H1192.72V162.148H1196.72V158.148ZM1251.42 158.148V162.148H1255.42V158.148H1251.42ZM1251.42 107.236V103.236H1247.42V107.236H1251.42ZM1276.36 107.236H1280.36V103.236H1276.36V107.236ZM1276.36 234V238H1280.36V234H1276.36ZM1251.42 234H1247.42V238H1251.42V234ZM1251.42 182.916H1255.42V178.916H1251.42V182.916ZM1196.72 182.916V178.916H1192.72V182.916H1196.72ZM1196.72 234V238H1200.72V234H1196.72ZM1171.61 234H1167.61V238H1171.61V234ZM1171.61 111.236H1196.72V103.236H1171.61V111.236ZM1192.72 107.236V158.148H1200.72V107.236H1192.72ZM1196.72 162.148H1251.42V154.148H1196.72V162.148ZM1255.42 158.148V107.236H1247.42V158.148H1255.42ZM1251.42 111.236H1276.36V103.236H1251.42V111.236ZM1272.36 107.236V234H1280.36V107.236H1272.36ZM1276.36 230H1251.42V238H1276.36V230ZM1255.42 234V182.916H1247.42V234H1255.42ZM1251.42 178.916H1196.72V186.916H1251.42V178.916ZM1192.72 182.916V234H1200.72V182.916H1192.72ZM1196.72 230H1171.61V238H1196.72V230ZM1175.61 234V107.236H1167.61V234H1175.61ZM1304.66 107.236V103.236H1300.66V107.236H1304.66ZM1401.15 107.236H1405.15V103.236H1401.15V107.236ZM1401.15 131.66V135.66H1405.15V131.66H1401.15ZM1329.77 131.66V127.66H1325.77V131.66H1329.77ZM1329.77 158.148H1325.77V162.148H1329.77V158.148ZM1381.55 158.148H1385.55V154.148H1381.55V158.148ZM1381.55 182.916V186.916H1385.55V182.916H1381.55ZM1329.77 182.916V178.916H1325.77V182.916H1329.77ZM1329.77 209.404H1325.77V213.404H1329.77V209.404ZM1401.15 209.404H1405.15V205.404H1401.15V209.404ZM1401.15 234V238H1405.15V234H1401.15ZM1304.66 234H1300.66V238H1304.66V234ZM1304.66 111.236H1401.15V103.236H1304.66V111.236ZM1397.15 107.236V131.66H1405.15V107.236H1397.15ZM1401.15 127.66H1329.77V135.66H1401.15V127.66ZM1325.77 131.66V158.148H1333.77V131.66H1325.77ZM1329.77 162.148H1381.55V154.148H1329.77V162.148ZM1377.55 158.148V182.916H1385.55V158.148H1377.55ZM1381.55 178.916H1329.77V186.916H1381.55V178.916ZM1325.77 182.916V209.404H1333.77V182.916H1325.77ZM1329.77 213.404H1401.15V205.404H1329.77V213.404ZM1397.15 209.404V234H1405.15V209.404H1397.15ZM1401.15 230H1304.66V238H1401.15V230ZM1308.66 234V107.236H1300.66V234H1308.66ZM1422.6 107.236V103.236H1418.6V107.236H1422.6ZM1515.82 118.416L1518.52 115.467L1518.5 115.448L1518.48 115.429L1515.82 118.416ZM1522.7 170.532L1519.29 168.436L1519.29 168.445L1519.28 168.454L1522.7 170.532ZM1506.88 183.948L1508.26 187.701L1508.38 187.657L1508.49 187.606L1506.88 183.948ZM1503.61 185.152L1502.22 181.399L1497.7 183.067L1500.18 187.206L1503.61 185.152ZM1532.85 234V238H1539.9L1536.28 231.946L1532.85 234ZM1503.26 234L1499.79 235.992L1500.95 238H1503.26V234ZM1477.98 189.968L1481.45 187.976L1480.3 185.968H1477.98V189.968ZM1447.71 189.968V185.968H1443.71V189.968H1447.71ZM1447.71 234V238H1451.71V234H1447.71ZM1422.6 234H1418.6V238H1422.6V234ZM1501.54 157.116L1504.92 159.255L1504.98 159.158L1505.04 159.059L1501.54 157.116ZM1497.93 136.476L1500.56 133.46L1500.52 133.427L1500.48 133.396L1497.93 136.476ZM1447.71 131.488V127.488H1443.71V131.488H1447.71ZM1447.71 165.544H1443.71V169.544H1447.71V165.544ZM1422.6 111.236H1483.66V103.236H1422.6V111.236ZM1483.66 111.236C1495.92 111.236 1505.64 114.709 1513.16 121.403L1518.48 115.429C1509.26 107.216 1497.54 103.236 1483.66 103.236V111.236ZM1513.12 121.365C1520.42 128.061 1524.2 137.13 1524.2 149.032H1532.2C1532.2 135.249 1527.73 123.907 1518.52 115.467L1513.12 121.365ZM1524.2 149.032C1524.2 156.808 1522.5 163.217 1519.29 168.436L1526.11 172.628C1530.23 165.922 1532.2 157.997 1532.2 149.032H1524.2ZM1519.28 168.454C1516.2 173.523 1511.6 177.484 1505.26 180.29L1508.49 187.606C1516.14 184.22 1522.09 179.237 1526.12 172.61L1519.28 168.454ZM1505.49 180.195L1502.22 181.399L1504.99 188.905L1508.26 187.701L1505.49 180.195ZM1500.18 187.206L1529.42 236.054L1536.28 231.946L1507.04 183.098L1500.18 187.206ZM1532.85 230H1503.26V238H1532.85V230ZM1506.73 232.008L1481.45 187.976L1474.51 191.96L1499.79 235.992L1506.73 232.008ZM1477.98 185.968H1447.71V193.968H1477.98V185.968ZM1443.71 189.968V234H1451.71V189.968H1443.71ZM1447.71 230H1422.6V238H1447.71V230ZM1426.6 234V107.236H1418.6V234H1426.6ZM1481.25 169.544C1491.86 169.544 1500.31 166.54 1504.92 159.255L1498.16 154.977C1495.66 158.93 1490.59 161.544 1481.25 161.544V169.544ZM1505.04 159.059C1506.62 156.207 1507.26 152.775 1507.26 149.032H1499.26C1499.26 151.94 1498.76 153.897 1498.05 155.173L1505.04 159.059ZM1507.26 149.032C1507.26 142.755 1505.1 137.411 1500.56 133.46L1495.3 139.492C1497.88 141.733 1499.26 144.76 1499.26 149.032H1507.26ZM1500.48 133.396C1495.57 129.328 1489.26 127.488 1481.94 127.488V135.488C1487.92 135.488 1492.26 136.974 1495.38 139.556L1500.48 133.396ZM1481.94 127.488H1447.71V135.488H1481.94V127.488ZM1443.71 131.488V165.544H1451.71V131.488H1443.71ZM1447.71 169.544H1481.25V161.544H1447.71V169.544Z" fill="url(#paint0_linear_454_3)"/>
<path d="M103.537 215.94L106.535 213.293L106.528 213.284L103.537 215.94ZM103.537 124.608L100.565 121.931L100.558 121.938L103.537 124.608ZM185.237 116.696L182.962 119.986L182.98 119.999L182.999 120.011L185.237 116.696ZM205.533 143.012L207.186 146.654L210.618 145.097L209.267 141.579L205.533 143.012ZM183.173 153.16V157.16H184.038L184.826 156.802L183.173 153.16ZM183.001 153.16L179.324 154.736L180.363 157.16H183.001V153.16ZM181.453 149.548L177.769 151.107L177.773 151.115L177.776 151.124L181.453 149.548ZM169.929 135.444L167.693 138.761L167.702 138.767L167.71 138.772L169.929 135.444ZM133.637 133.208L132.029 129.545L132.029 129.545L133.637 133.208ZM121.941 141.464L118.968 138.788L118.959 138.797L118.951 138.807L121.941 141.464ZM121.941 198.912L118.91 201.523L118.914 201.526L121.941 198.912ZM169.929 205.104L167.727 201.765L167.701 201.782L167.676 201.799L169.929 205.104ZM181.453 191L177.751 189.485L177.74 189.512L177.729 189.54L181.453 191ZM183.001 187.216V183.216H180.315L179.299 185.701L183.001 187.216ZM183.173 187.216L184.849 183.584L184.051 183.216H183.173V187.216ZM205.533 197.536L209.244 199.028L210.663 195.498L207.209 193.904L205.533 197.536ZM185.237 223.852L187.528 227.131L187.539 227.123L187.55 227.115L185.237 223.852ZM148.773 231.032C130.854 231.032 116.922 225.057 106.535 213.293L100.538 218.587C112.627 232.279 128.852 239.032 148.773 239.032V231.032ZM106.528 213.284C96.3584 201.83 91.1969 187.558 91.1969 170.188H83.1969C83.1969 189.282 88.9287 205.511 100.546 218.596L106.528 213.284ZM91.1969 170.188C91.1969 152.817 96.3583 138.611 106.516 127.278L100.558 121.938C88.9289 134.914 83.1969 151.095 83.1969 170.188H91.1969ZM106.509 127.285C117.143 115.481 131.1 109.516 148.773 109.516V101.516C129.065 101.516 112.864 108.279 100.565 121.931L106.509 127.285ZM148.773 109.516C161.519 109.516 172.875 113.011 182.962 119.986L187.512 113.406C176.042 105.475 163.088 101.516 148.773 101.516V109.516ZM182.999 120.011C191.425 125.699 197.705 133.78 201.799 144.445L209.267 141.579C204.646 129.54 197.395 120.077 187.475 113.381L182.999 120.011ZM203.88 139.37L181.52 149.518L184.826 156.802L207.186 146.654L203.88 139.37ZM183.173 149.16H183.001V157.16H183.173V149.16ZM186.677 151.584L185.129 147.972L177.776 151.124L179.324 154.736L186.677 151.584ZM185.137 147.989C182.323 141.34 177.988 136.009 172.148 132.116L167.71 138.772C172.19 141.759 175.537 145.831 177.769 151.107L185.137 147.989ZM172.164 132.127C166.175 128.091 159.305 126.112 151.697 126.112V134.112C157.849 134.112 163.134 135.688 167.693 138.761L172.164 132.127ZM151.697 126.112C144.024 126.112 137.406 127.185 132.029 129.545L135.245 136.871C139.271 135.103 144.692 134.112 151.697 134.112V126.112ZM132.029 129.545C126.865 131.813 122.483 134.882 118.968 138.788L124.914 144.14C127.59 141.166 131.006 138.731 135.245 136.871L132.029 129.545ZM118.951 138.807C111.736 146.923 108.309 157.522 108.309 170.188H116.309C116.309 159.004 119.303 150.453 124.931 144.121L118.951 138.807ZM108.309 170.188C108.309 182.652 111.75 193.211 118.91 201.523L124.971 196.301C119.289 189.706 116.309 181.116 116.309 170.188H108.309ZM118.914 201.526C126.44 210.241 137.64 214.264 151.697 214.264V206.264C139.152 206.264 130.514 202.719 124.968 196.298L118.914 201.526ZM151.697 214.264C159.475 214.264 166.369 212.373 172.182 208.409L167.676 201.799C163.398 204.715 158.138 206.264 151.697 206.264V214.264ZM172.131 208.443C178.189 204.448 182.573 199.099 185.177 192.46L177.729 189.54C175.746 194.597 172.447 198.651 167.727 201.765L172.131 208.443ZM185.155 192.515L186.703 188.731L179.299 185.701L177.751 189.485L185.155 192.515ZM183.001 191.216H183.173V183.216H183.001V191.216ZM181.497 190.848L203.857 201.168L207.209 193.904L184.849 183.584L181.497 190.848ZM201.822 196.044C197.612 206.513 191.306 214.647 182.924 220.589L187.55 227.115C197.285 220.214 204.51 210.804 209.244 199.028L201.822 196.044ZM182.945 220.573C172.987 227.533 161.641 231.032 148.773 231.032V239.032C163.196 239.032 176.159 235.077 187.528 227.131L182.945 220.573ZM267.724 184.464H271.724V183.211L271.009 182.181L267.724 184.464ZM214.06 107.236V103.236H206.41L210.776 109.519L214.06 107.236ZM244.504 107.236L247.79 104.954L246.596 103.236H244.504V107.236ZM280.108 158.492L276.823 160.774L280.1 165.492L283.388 160.781L280.108 158.492ZM315.884 107.236V103.236H313.798L312.604 104.947L315.884 107.236ZM346.328 107.236L349.617 109.514L353.965 103.236H346.328V107.236ZM292.836 184.464L289.548 182.186L288.836 183.214V184.464H292.836ZM292.836 234V238H296.836V234H292.836ZM267.724 234H263.724V238H267.724V234ZM271.009 182.181L217.345 104.953L210.776 109.519L264.44 186.747L271.009 182.181ZM214.06 111.236H244.504V103.236H214.06V111.236ZM241.219 109.518L276.823 160.774L283.394 156.21L247.79 104.954L241.219 109.518ZM283.388 160.781L319.164 109.525L312.604 104.947L276.828 156.203L283.388 160.781ZM315.884 111.236H346.328V103.236H315.884V111.236ZM343.04 104.958L289.548 182.186L296.125 186.742L349.617 109.514L343.04 104.958ZM288.836 184.464V234H296.836V184.464H288.836ZM292.836 230H267.724V238H292.836V230ZM271.724 234V184.464H263.724V234H271.724ZM361.859 107.236V103.236H357.859V107.236H361.859ZM451.987 119.104L449.118 121.891L449.138 121.912L449.159 121.932L451.987 119.104ZM452.159 168.468L449.384 165.588L445.819 169.022L449.926 171.786L452.159 168.468ZM465.059 184.292L461.35 185.789L461.372 185.842L461.395 185.895L465.059 184.292ZM460.759 218.864L457.605 216.404L457.599 216.413L460.759 218.864ZM441.323 231.248L440.151 227.424L440.066 227.45L439.983 227.479L441.323 231.248ZM361.859 234H357.859V238H361.859V234ZM435.303 150.924L431.726 149.135L431.709 149.168L431.693 149.201L435.303 150.924ZM435.647 139.572L431.914 141.008L431.957 141.119L432.006 141.227L435.647 139.572ZM433.239 135.788L430.354 138.558L430.382 138.588L430.411 138.616L433.239 135.788ZM386.971 131.488V127.488H382.971V131.488H386.971ZM386.971 158.492H382.971V162.492H386.971V158.492ZM438.399 205.964L435.999 202.764L435.971 202.785L435.944 202.807L438.399 205.964ZM438.227 187.044L435.552 190.017L435.568 190.032L435.585 190.047L438.227 187.044ZM386.971 182.4V178.4H382.971V182.4H386.971ZM386.971 209.576H382.971V213.576H386.971V209.576ZM361.859 111.236H419.307V103.236H361.859V111.236ZM419.307 111.236C432.648 111.236 442.384 114.956 449.118 121.891L454.857 116.317C446.225 107.428 434.175 103.236 419.307 103.236V111.236ZM449.159 121.932C454.762 127.535 457.619 134.627 457.619 143.528H465.619C465.619 132.706 462.056 123.515 454.816 116.276L449.159 121.932ZM457.619 143.528C457.619 153.23 454.751 160.415 449.384 165.588L454.935 171.348C462.181 164.366 465.619 154.925 465.619 143.528H457.619ZM449.926 171.786C455.24 175.363 459.018 180.009 461.35 185.789L468.769 182.795C465.826 175.503 461.004 169.6 454.393 165.15L449.926 171.786ZM461.395 185.895C462.717 188.917 463.467 192.862 463.467 197.88H471.467C471.467 192.119 470.613 187.006 468.724 182.689L461.395 185.895ZM463.467 197.88C463.467 205.371 461.456 211.467 457.605 216.404L463.913 221.324C469.007 214.794 471.467 206.901 471.467 197.88H463.467ZM457.599 216.413C453.866 221.226 448.172 224.964 440.151 227.424L442.496 235.072C451.675 232.257 458.938 227.74 463.92 221.315L457.599 216.413ZM439.983 227.479C435.383 229.115 429.504 230 422.231 230V238C430.094 238 436.944 237.051 442.663 235.017L439.983 227.479ZM422.231 230H361.859V238H422.231V230ZM365.859 234V107.236H357.859V234H365.859ZM419.307 162.492C428.272 162.492 435.545 159.704 438.913 152.647L431.693 149.201C430.245 152.235 426.855 154.492 419.307 154.492V162.492ZM438.881 152.713C440 150.474 440.507 148.012 440.507 145.42H432.507C432.507 146.956 432.212 148.163 431.726 149.135L438.881 152.713ZM440.507 145.42C440.507 142.636 440.227 139.98 439.289 137.917L432.006 141.227C432.215 141.687 432.507 142.93 432.507 145.42H440.507ZM439.381 138.136C438.626 136.173 437.532 134.423 436.068 132.96L430.411 138.616C431.011 139.217 431.522 139.99 431.914 141.008L439.381 138.136ZM436.125 133.018C432.351 129.087 426.932 127.488 420.683 127.488V135.488C425.672 135.488 428.624 136.756 430.354 138.558L436.125 133.018ZM420.683 127.488H386.971V135.488H420.683V127.488ZM382.971 131.488V158.492H390.971V131.488H382.971ZM386.971 162.492H419.307V154.492H386.971V162.492ZM423.779 213.576C430.758 213.576 436.715 212.342 440.855 209.121L435.944 202.807C433.892 204.402 430.102 205.576 423.779 205.576V213.576ZM440.799 209.164C444.735 206.212 446.527 201.882 446.527 196.848H438.527C438.527 199.84 437.568 201.588 435.999 202.764L440.799 209.164ZM446.527 196.848C446.527 191.752 444.648 187.366 440.87 184.041L435.585 190.047C437.54 191.767 438.527 193.918 438.527 196.848H446.527ZM440.903 184.071C436.412 180.029 429.913 178.4 422.231 178.4V186.4C428.998 186.4 433.163 187.867 435.552 190.017L440.903 184.071ZM422.231 178.4H386.971V186.4H422.231V178.4ZM382.971 182.4V209.576H390.971V182.4H382.971ZM386.971 213.576H423.779V205.576H386.971V213.576ZM489.032 107.236V103.236H485.032V107.236H489.032ZM585.524 107.236H589.524V103.236H585.524V107.236ZM585.524 131.66V135.66H589.524V131.66H585.524ZM514.144 131.66V127.66H510.144V131.66H514.144ZM514.144 158.148H510.144V162.148H514.144V158.148ZM565.916 158.148H569.916V154.148H565.916V158.148ZM565.916 182.916V186.916H569.916V182.916H565.916ZM514.144 182.916V178.916H510.144V182.916H514.144ZM514.144 209.404H510.144V213.404H514.144V209.404ZM585.524 209.404H589.524V205.404H585.524V209.404ZM585.524 234V238H589.524V234H585.524ZM489.032 234H485.032V238H489.032V234ZM489.032 111.236H585.524V103.236H489.032V111.236ZM581.524 107.236V131.66H589.524V107.236H581.524ZM585.524 127.66H514.144V135.66H585.524V127.66ZM510.144 131.66V158.148H518.144V131.66H510.144ZM514.144 162.148H565.916V154.148H514.144V162.148ZM561.916 158.148V182.916H569.916V158.148H561.916ZM565.916 178.916H514.144V186.916H565.916V178.916ZM510.144 182.916V209.404H518.144V182.916H510.144ZM514.144 213.404H585.524V205.404H514.144V213.404ZM581.524 209.404V234H589.524V209.404H581.524ZM585.524 230H489.032V238H585.524V230ZM493.032 234V107.236H485.032V234H493.032ZM606.966 107.236V103.236H602.966V107.236H606.966ZM700.19 118.416L702.893 115.467L702.872 115.448L702.85 115.429L700.19 118.416ZM707.07 170.532L703.663 168.436L703.658 168.445L703.652 168.454L707.07 170.532ZM691.246 183.948L692.629 187.701L692.749 187.657L692.865 187.606L691.246 183.948ZM687.978 185.152L686.595 181.399L682.068 183.067L684.546 187.206L687.978 185.152ZM717.218 234V238H724.274L720.65 231.946L717.218 234ZM687.634 234L684.165 235.992L685.318 238H687.634V234ZM662.35 189.968L665.819 187.976L664.666 185.968H662.35V189.968ZM632.078 189.968V185.968H628.078V189.968H632.078ZM632.078 234V238H636.078V234H632.078ZM606.966 234H602.966V238H606.966V234ZM685.914 157.116L689.294 159.255L689.355 159.158L689.411 159.059L685.914 157.116ZM682.302 136.476L684.929 133.46L684.892 133.427L684.854 133.396L682.302 136.476ZM632.078 131.488V127.488H628.078V131.488H632.078ZM632.078 165.544H628.078V169.544H632.078V165.544ZM606.966 111.236H668.026V103.236H606.966V111.236ZM668.026 111.236C680.29 111.236 690.012 114.709 697.53 121.403L702.85 115.429C693.627 107.216 681.906 103.236 668.026 103.236V111.236ZM697.487 121.365C704.792 128.061 708.574 137.13 708.574 149.032H716.574C716.574 135.249 712.1 123.907 702.893 115.467L697.487 121.365ZM708.574 149.032C708.574 156.808 706.875 163.217 703.663 168.436L710.477 172.628C714.604 165.922 716.574 157.997 716.574 149.032H708.574ZM703.652 168.454C700.571 173.523 695.966 177.484 689.627 180.29L692.865 187.606C700.515 184.22 706.46 179.237 710.488 172.61L703.652 168.454ZM689.863 180.195L686.595 181.399L689.361 188.905L692.629 187.701L689.863 180.195ZM684.546 187.206L713.786 236.054L720.65 231.946L691.41 183.098L684.546 187.206ZM717.218 230H687.634V238H717.218V230ZM691.103 232.008L665.819 187.976L658.881 191.96L684.165 235.992L691.103 232.008ZM662.35 185.968H632.078V193.968H662.35V185.968ZM628.078 189.968V234H636.078V189.968H628.078ZM632.078 230H606.966V238H632.078V230ZM610.966 234V107.236H602.966V234H610.966ZM665.618 169.544C676.232 169.544 684.686 166.54 689.294 159.255L682.534 154.977C680.033 158.93 674.956 161.544 665.618 161.544V169.544ZM689.411 159.059C690.995 156.207 691.634 152.775 691.634 149.032H683.634C683.634 151.94 683.127 153.897 682.417 155.173L689.411 159.059ZM691.634 149.032C691.634 142.755 689.466 137.411 684.929 133.46L679.675 139.492C682.248 141.733 683.634 144.76 683.634 149.032H691.634ZM684.854 133.396C679.944 129.328 673.626 127.488 666.306 127.488V135.488C672.288 135.488 676.633 136.974 679.75 139.556L684.854 133.396ZM666.306 127.488H632.078V135.488H666.306V127.488ZM628.078 131.488V165.544H636.078V131.488H628.078ZM632.078 169.544H665.618V161.544H632.078V169.544ZM791.994 215.94L794.992 213.293L794.985 213.284L791.994 215.94ZM791.994 124.608L789.022 121.931L789.015 121.938L791.994 124.608ZM873.694 116.696L871.419 119.986L871.437 119.999L871.456 120.011L873.694 116.696ZM893.99 143.012L895.643 146.654L899.075 145.097L897.724 141.579L893.99 143.012ZM871.63 153.16V157.16H872.495L873.283 156.802L871.63 153.16ZM871.458 153.16L867.781 154.736L868.82 157.16H871.458V153.16ZM869.91 149.548L866.226 151.107L866.229 151.115L866.233 151.124L869.91 149.548ZM858.386 135.444L856.15 138.761L856.159 138.767L856.167 138.772L858.386 135.444ZM822.094 133.208L820.486 129.545L820.486 129.545L822.094 133.208ZM810.398 141.464L807.425 138.788L807.416 138.797L807.408 138.807L810.398 141.464ZM810.398 198.912L807.367 201.523L807.37 201.526L810.398 198.912ZM858.386 205.104L856.183 201.765L856.158 201.782L856.132 201.799L858.386 205.104ZM869.91 191L866.208 189.485L866.197 189.512L866.186 189.54L869.91 191ZM871.458 187.216V183.216H868.772L867.756 185.701L871.458 187.216ZM871.63 187.216L873.306 183.584L872.508 183.216H871.63V187.216ZM893.99 197.536L897.701 199.028L899.12 195.498L895.666 193.904L893.99 197.536ZM873.694 223.852L875.985 227.131L875.996 227.123L876.007 227.115L873.694 223.852ZM837.23 231.032C819.31 231.032 805.378 225.057 794.992 213.293L788.995 218.587C801.084 232.279 817.309 239.032 837.23 239.032V231.032ZM794.985 213.284C784.815 201.83 779.654 187.558 779.654 170.188H771.654C771.654 189.282 777.386 205.511 789.003 218.596L794.985 213.284ZM779.654 170.188C779.654 152.817 784.815 138.611 794.973 127.278L789.015 121.938C777.386 134.914 771.654 151.095 771.654 170.188H779.654ZM794.966 127.285C805.6 115.481 819.557 109.516 837.23 109.516V101.516C817.521 101.516 801.321 108.279 789.022 121.931L794.966 127.285ZM837.23 109.516C849.976 109.516 861.331 113.011 871.419 119.986L875.969 113.406C864.499 105.475 851.545 101.516 837.23 101.516V109.516ZM871.456 120.011C879.882 125.699 886.162 133.78 890.255 144.445L897.724 141.579C893.103 129.54 885.852 120.077 875.932 113.381L871.456 120.011ZM892.337 139.37L869.977 149.518L873.283 156.802L895.643 146.654L892.337 139.37ZM871.63 149.16H871.458V157.16H871.63V149.16ZM875.134 151.584L873.586 147.972L866.233 151.124L867.781 154.736L875.134 151.584ZM873.594 147.989C870.78 141.34 866.445 136.009 860.605 132.116L856.167 138.772C860.646 141.759 863.994 145.831 866.226 151.107L873.594 147.989ZM860.621 132.127C854.632 128.091 847.762 126.112 840.154 126.112V134.112C846.305 134.112 851.591 135.688 856.15 138.761L860.621 132.127ZM840.154 126.112C832.481 126.112 825.863 127.185 820.486 129.545L823.702 136.871C827.728 135.103 833.149 134.112 840.154 134.112V126.112ZM820.486 129.545C815.322 131.813 810.94 134.882 807.425 138.788L813.371 144.14C816.047 141.166 819.463 138.731 823.702 136.871L820.486 129.545ZM807.408 138.807C800.193 146.923 796.766 157.522 796.766 170.188H804.766C804.766 159.004 807.76 150.453 813.387 144.121L807.408 138.807ZM796.766 170.188C796.766 182.652 800.207 193.211 807.367 201.523L813.428 196.301C807.746 189.706 804.766 181.116 804.766 170.188H796.766ZM807.37 201.526C814.897 210.241 826.096 214.264 840.154 214.264V206.264C827.608 206.264 818.971 202.719 813.425 196.298L807.37 201.526ZM840.154 214.264C847.931 214.264 854.826 212.373 860.639 208.409L856.132 201.799C851.855 204.715 846.595 206.264 840.154 206.264V214.264ZM860.588 208.443C866.646 204.448 871.03 199.099 873.634 192.46L866.186 189.54C864.203 194.597 860.904 198.651 856.183 201.765L860.588 208.443ZM873.612 192.515L875.16 188.731L867.756 185.701L866.208 189.485L873.612 192.515ZM871.458 191.216H871.63V183.216H871.458V191.216ZM869.954 190.848L892.314 201.168L895.666 193.904L873.306 183.584L869.954 190.848ZM890.278 196.044C886.069 206.513 879.763 214.647 871.381 220.589L876.007 227.115C885.742 220.214 892.966 210.804 897.701 199.028L890.278 196.044ZM871.402 220.573C861.444 227.533 850.098 231.032 837.23 231.032V239.032C851.652 239.032 864.615 235.077 875.985 227.131L871.402 220.573ZM956.181 184.464H960.181V183.211L959.466 182.181L956.181 184.464ZM902.517 107.236V103.236H894.867L899.232 109.519L902.517 107.236ZM932.961 107.236L936.246 104.954L935.053 103.236H932.961V107.236ZM968.565 158.492L965.28 160.774L968.557 165.492L971.845 160.781L968.565 158.492ZM1004.34 107.236V103.236H1002.26L1001.06 104.947L1004.34 107.236ZM1034.79 107.236L1038.07 109.514L1042.42 103.236H1034.79V107.236ZM981.293 184.464L978.005 182.186L977.293 183.214V184.464H981.293ZM981.293 234V238H985.293V234H981.293ZM956.181 234H952.181V238H956.181V234ZM959.466 182.181L905.802 104.953L899.232 109.519L952.896 186.747L959.466 182.181ZM902.517 111.236H932.961V103.236H902.517V111.236ZM929.676 109.518L965.28 160.774L971.85 156.21L936.246 104.954L929.676 109.518ZM971.845 160.781L1007.62 109.525L1001.06 104.947L965.285 156.203L971.845 160.781ZM1004.34 111.236H1034.79V103.236H1004.34V111.236ZM1031.5 104.958L978.005 182.186L984.581 186.742L1038.07 109.514L1031.5 104.958ZM977.293 184.464V234H985.293V184.464H977.293ZM981.293 230H956.181V238H981.293V230ZM960.181 234V184.464H952.181V234H960.181ZM1050.32 107.236V103.236H1046.32V107.236H1050.32ZM1141.13 118.932L1143.86 116.004L1143.85 115.995L1143.84 115.987L1141.13 118.932ZM1140.96 181.54L1143.67 184.487L1143.69 184.467L1143.71 184.447L1140.96 181.54ZM1075.43 193.064V189.064H1071.43V193.064H1075.43ZM1075.43 234V238H1079.43V234H1075.43ZM1050.32 234H1046.32V238H1050.32V234ZM1123.42 163.996L1126.15 166.917L1126.17 166.895L1126.2 166.872L1123.42 163.996ZM1123.42 136.476L1120.68 139.397L1120.69 139.4L1123.42 136.476ZM1075.43 131.488V127.488H1071.43V131.488H1075.43ZM1075.43 168.984H1071.43V172.984H1075.43V168.984ZM1050.32 111.236H1107.94V103.236H1050.32V111.236ZM1107.94 111.236C1120.77 111.236 1130.81 114.88 1138.43 121.877L1143.84 115.987C1134.48 107.389 1122.39 103.236 1107.94 103.236V111.236ZM1138.41 121.86C1145.72 128.664 1149.52 137.909 1149.52 150.064H1157.52C1157.52 136.075 1153.06 124.566 1143.86 116.004L1138.41 121.86ZM1149.52 150.064C1149.52 162.199 1145.67 171.582 1138.21 178.633L1143.71 184.447C1152.99 175.674 1157.52 164.073 1157.52 150.064H1149.52ZM1138.26 178.593C1130.77 185.467 1120.79 189.064 1107.94 189.064V197.064C1122.37 197.064 1134.41 192.978 1143.67 184.487L1138.26 178.593ZM1107.94 189.064H1075.43V197.064H1107.94V189.064ZM1071.43 193.064V234H1079.43V193.064H1071.43ZM1075.43 230H1050.32V238H1075.43V230ZM1054.32 234V107.236H1046.32V234H1054.32ZM1107.08 172.984C1114.93 172.984 1121.55 171.216 1126.15 166.917L1120.68 161.075C1118.17 163.426 1113.9 164.984 1107.08 164.984V172.984ZM1126.2 166.872C1130.58 162.631 1132.58 156.911 1132.58 150.236H1124.58C1124.58 155.257 1123.13 158.711 1120.64 161.12L1126.2 166.872ZM1132.58 150.236C1132.58 143.48 1130.6 137.71 1126.15 133.552L1120.69 139.4C1123.11 141.663 1124.58 145.067 1124.58 150.236H1132.58ZM1126.15 133.555C1121.55 129.256 1114.93 127.488 1107.08 127.488V135.488C1113.9 135.488 1118.17 137.046 1120.68 139.397L1126.15 133.555ZM1107.08 127.488H1075.43V135.488H1107.08V127.488ZM1071.43 131.488V168.984H1079.43V131.488H1071.43ZM1075.43 172.984H1107.08V164.984H1075.43V172.984ZM1171.61 107.236V103.236H1167.61V107.236H1171.61ZM1196.72 107.236H1200.72V103.236H1196.72V107.236ZM1196.72 158.148H1192.72V162.148H1196.72V158.148ZM1251.42 158.148V162.148H1255.42V158.148H1251.42ZM1251.42 107.236V103.236H1247.42V107.236H1251.42ZM1276.36 107.236H1280.36V103.236H1276.36V107.236ZM1276.36 234V238H1280.36V234H1276.36ZM1251.42 234H1247.42V238H1251.42V234ZM1251.42 182.916H1255.42V178.916H1251.42V182.916ZM1196.72 182.916V178.916H1192.72V182.916H1196.72ZM1196.72 234V238H1200.72V234H1196.72ZM1171.61 234H1167.61V238H1171.61V234ZM1171.61 111.236H1196.72V103.236H1171.61V111.236ZM1192.72 107.236V158.148H1200.72V107.236H1192.72ZM1196.72 162.148H1251.42V154.148H1196.72V162.148ZM1255.42 158.148V107.236H1247.42V158.148H1255.42ZM1251.42 111.236H1276.36V103.236H1251.42V111.236ZM1272.36 107.236V234H1280.36V107.236H1272.36ZM1276.36 230H1251.42V238H1276.36V230ZM1255.42 234V182.916H1247.42V234H1255.42ZM1251.42 178.916H1196.72V186.916H1251.42V178.916ZM1192.72 182.916V234H1200.72V182.916H1192.72ZM1196.72 230H1171.61V238H1196.72V230ZM1175.61 234V107.236H1167.61V234H1175.61ZM1304.66 107.236V103.236H1300.66V107.236H1304.66ZM1401.15 107.236H1405.15V103.236H1401.15V107.236ZM1401.15 131.66V135.66H1405.15V131.66H1401.15ZM1329.77 131.66V127.66H1325.77V131.66H1329.77ZM1329.77 158.148H1325.77V162.148H1329.77V158.148ZM1381.55 158.148H1385.55V154.148H1381.55V158.148ZM1381.55 182.916V186.916H1385.55V182.916H1381.55ZM1329.77 182.916V178.916H1325.77V182.916H1329.77ZM1329.77 209.404H1325.77V213.404H1329.77V209.404ZM1401.15 209.404H1405.15V205.404H1401.15V209.404ZM1401.15 234V238H1405.15V234H1401.15ZM1304.66 234H1300.66V238H1304.66V234ZM1304.66 111.236H1401.15V103.236H1304.66V111.236ZM1397.15 107.236V131.66H1405.15V107.236H1397.15ZM1401.15 127.66H1329.77V135.66H1401.15V127.66ZM1325.77 131.66V158.148H1333.77V131.66H1325.77ZM1329.77 162.148H1381.55V154.148H1329.77V162.148ZM1377.55 158.148V182.916H1385.55V158.148H1377.55ZM1381.55 178.916H1329.77V186.916H1381.55V178.916ZM1325.77 182.916V209.404H1333.77V182.916H1325.77ZM1329.77 213.404H1401.15V205.404H1329.77V213.404ZM1397.15 209.404V234H1405.15V209.404H1397.15ZM1401.15 230H1304.66V238H1401.15V230ZM1308.66 234V107.236H1300.66V234H1308.66ZM1422.6 107.236V103.236H1418.6V107.236H1422.6ZM1515.82 118.416L1518.52 115.467L1518.5 115.448L1518.48 115.429L1515.82 118.416ZM1522.7 170.532L1519.29 168.436L1519.29 168.445L1519.28 168.454L1522.7 170.532ZM1506.88 183.948L1508.26 187.701L1508.38 187.657L1508.49 187.606L1506.88 183.948ZM1503.61 185.152L1502.22 181.399L1497.7 183.067L1500.18 187.206L1503.61 185.152ZM1532.85 234V238H1539.9L1536.28 231.946L1532.85 234ZM1503.26 234L1499.79 235.992L1500.95 238H1503.26V234ZM1477.98 189.968L1481.45 187.976L1480.3 185.968H1477.98V189.968ZM1447.71 189.968V185.968H1443.71V189.968H1447.71ZM1447.71 234V238H1451.71V234H1447.71ZM1422.6 234H1418.6V238H1422.6V234ZM1501.54 157.116L1504.92 159.255L1504.98 159.158L1505.04 159.059L1501.54 157.116ZM1497.93 136.476L1500.56 133.46L1500.52 133.427L1500.48 133.396L1497.93 136.476ZM1447.71 131.488V127.488H1443.71V131.488H1447.71ZM1447.71 165.544H1443.71V169.544H1447.71V165.544ZM1422.6 111.236H1483.66V103.236H1422.6V111.236ZM1483.66 111.236C1495.92 111.236 1505.64 114.709 1513.16 121.403L1518.48 115.429C1509.26 107.216 1497.54 103.236 1483.66 103.236V111.236ZM1513.12 121.365C1520.42 128.061 1524.2 137.13 1524.2 149.032H1532.2C1532.2 135.249 1527.73 123.907 1518.52 115.467L1513.12 121.365ZM1524.2 149.032C1524.2 156.808 1522.5 163.217 1519.29 168.436L1526.11 172.628C1530.23 165.922 1532.2 157.997 1532.2 149.032H1524.2ZM1519.28 168.454C1516.2 173.523 1511.6 177.484 1505.26 180.29L1508.49 187.606C1516.14 184.22 1522.09 179.237 1526.12 172.61L1519.28 168.454ZM1505.49 180.195L1502.22 181.399L1504.99 188.905L1508.26 187.701L1505.49 180.195ZM1500.18 187.206L1529.42 236.054L1536.28 231.946L1507.04 183.098L1500.18 187.206ZM1532.85 230H1503.26V238H1532.85V230ZM1506.73 232.008L1481.45 187.976L1474.51 191.96L1499.79 235.992L1506.73 232.008ZM1477.98 185.968H1447.71V193.968H1477.98V185.968ZM1443.71 189.968V234H1451.71V189.968H1443.71ZM1447.71 230H1422.6V238H1447.71V230ZM1426.6 234V107.236H1418.6V234H1426.6ZM1481.25 169.544C1491.86 169.544 1500.31 166.54 1504.92 159.255L1498.16 154.977C1495.66 158.93 1490.59 161.544 1481.25 161.544V169.544ZM1505.04 159.059C1506.62 156.207 1507.26 152.775 1507.26 149.032H1499.26C1499.26 151.94 1498.76 153.897 1498.05 155.173L1505.04 159.059ZM1507.26 149.032C1507.26 142.755 1505.1 137.411 1500.56 133.46L1495.3 139.492C1497.88 141.733 1499.26 144.76 1499.26 149.032H1507.26ZM1500.48 133.396C1495.57 129.328 1489.26 127.488 1481.94 127.488V135.488C1487.92 135.488 1492.26 136.974 1495.38 139.556L1500.48 133.396ZM1481.94 127.488H1447.71V135.488H1481.94V127.488ZM1443.71 131.488V165.544H1451.71V131.488H1443.71ZM1447.71 169.544H1481.25V161.544H1447.71V169.544Z" fill="black" fill-opacity="0.3"/>
<defs>
<linearGradient id="paint0_linear_454_3" x1="12.7004" y1="165" x2="1322.91" y2="-458.903" gradientUnits="userSpaceOnUse">
<stop stop-color="#F24D56"/>
<stop offset="0.509216" stop-color="#EE0C77"/>
<stop offset="0.964829" stop-color="#F24D56"/>
</linearGradient>
</defs>
</svg>
