<svg width="1210" height="360" viewBox="0 0 1210 360" fill="none" xmlns="http://www.w3.org/2000/svg">
<path d="M284.422 142.94L287.42 140.293L287.413 140.284L284.422 142.94ZM284.422 51.608L281.45 48.9306L281.443 48.9384L284.422 51.608ZM366.122 43.696L363.847 46.986L363.865 46.9988L363.884 47.0114L366.122 43.696ZM386.418 70.012L388.071 73.6544L391.502 72.0969L390.152 68.5786L386.418 70.012ZM364.058 80.16V84.16H364.923L365.711 83.8024L364.058 80.16ZM363.886 80.16L360.209 81.7357L361.248 84.16H363.886V80.16ZM362.338 76.548L358.654 78.1066L358.657 78.1151L358.661 78.1237L362.338 76.548ZM350.814 62.444L348.578 65.7611L348.586 65.7667L348.595 65.7722L350.814 62.444ZM314.522 60.208L312.914 56.5454V56.5454L314.522 60.208ZM302.826 68.464L299.852 65.7881L299.844 65.7973L299.836 65.8065L302.826 68.464ZM302.826 125.912L299.795 128.523L299.798 128.526L302.826 125.912ZM350.814 132.104L348.611 128.765L348.586 128.782L348.56 128.799L350.814 132.104ZM362.338 118L358.635 116.485L358.624 116.512L358.614 116.54L362.338 118ZM363.886 114.216V110.216H361.2L360.183 112.701L363.886 114.216ZM364.058 114.216L365.734 110.584L364.936 110.216H364.058V114.216ZM386.418 124.536L390.129 126.028L391.548 122.498L388.094 120.904L386.418 124.536ZM366.122 150.852L368.413 154.131L368.424 154.123L368.435 154.115L366.122 150.852ZM329.658 158.032C311.738 158.032 297.806 152.057 287.42 140.293L281.423 145.587C293.512 159.279 309.737 166.032 329.658 166.032V158.032ZM287.413 140.284C277.243 128.83 272.082 114.558 272.082 97.188H264.082C264.082 116.282 269.813 132.511 281.43 145.596L287.413 140.284ZM272.082 97.188C272.082 79.8172 277.243 65.6111 287.4 54.2776L281.443 48.9384C269.814 61.9142 264.082 78.0948 264.082 97.188H272.082ZM287.393 54.2853C298.028 42.4815 311.985 36.516 329.658 36.516V28.516C309.949 28.516 293.749 35.2785 281.45 48.9307L287.393 54.2853ZM329.658 36.516C342.403 36.516 353.759 40.0107 363.847 46.986L368.397 40.406C356.927 32.4746 343.973 28.516 329.658 28.516V36.516ZM363.884 47.0114C372.31 52.6991 378.59 60.7802 382.683 71.4454L390.152 68.5786C385.531 56.5398 378.28 47.0769 368.359 40.3806L363.884 47.0114ZM384.764 66.3696L362.404 76.5176L365.711 83.8024L388.071 73.6544L384.764 66.3696ZM364.058 76.16H363.886V84.16H364.058V76.16ZM367.562 78.5843L366.014 74.9723L358.661 78.1237L360.209 81.7357L367.562 78.5843ZM366.021 74.9894C363.208 68.3398 358.873 63.0094 353.032 59.1158L348.595 65.7722C353.074 68.7586 356.422 72.8309 358.654 78.1066L366.021 74.9894ZM353.049 59.1269C347.059 55.0905 340.19 53.112 332.582 53.112V61.112C338.733 61.112 344.018 62.6881 348.578 65.7611L353.049 59.1269ZM332.582 53.112C324.909 53.112 318.29 54.1849 312.914 56.5454L316.13 63.8706C320.155 62.1031 325.577 61.112 332.582 61.112V53.112ZM312.914 56.5454C307.75 58.8126 303.368 61.8819 299.852 65.7881L305.799 71.1399C308.475 68.1661 311.891 65.7314 316.13 63.8706L312.914 56.5454ZM299.836 65.8065C292.621 73.9235 289.194 84.5218 289.194 97.188H297.194C297.194 86.0036 300.188 77.4525 305.815 71.1214L299.836 65.8065ZM289.194 97.188C289.194 109.652 292.634 120.211 299.795 128.523L305.856 123.301C300.174 116.706 297.194 108.116 297.194 97.188H289.194ZM299.798 128.526C307.325 137.241 318.524 141.264 332.582 141.264V133.264C320.036 133.264 311.398 129.719 305.853 123.298L299.798 128.526ZM332.582 141.264C340.359 141.264 347.254 139.373 353.067 135.409L348.56 128.799C344.283 131.715 339.023 133.264 332.582 133.264V141.264ZM353.016 135.443C359.074 131.448 363.458 126.099 366.061 119.46L358.614 116.54C356.63 121.597 353.332 125.651 348.611 128.765L353.016 135.443ZM366.04 119.515L367.588 115.731L360.183 112.701L358.635 116.485L366.04 119.515ZM363.886 118.216H364.058V110.216H363.886V118.216ZM362.381 117.848L384.741 128.168L388.094 120.904L365.734 110.584L362.381 117.848ZM382.706 123.044C378.497 133.513 372.191 141.647 363.808 147.589L368.435 154.115C378.17 147.214 385.394 137.804 390.129 126.028L382.706 123.044ZM363.83 147.573C353.872 154.533 342.526 158.032 329.658 158.032V166.032C344.08 166.032 357.043 162.077 368.413 154.131L363.83 147.573ZM448.609 111.464H452.609V110.211L451.894 109.181L448.609 111.464ZM394.945 34.236V30.236H387.295L391.66 36.5185L394.945 34.236ZM425.389 34.236L428.674 31.954L427.481 30.236H425.389V34.236ZM460.993 85.492L457.708 87.774L460.985 92.492L464.273 87.7814L460.993 85.492ZM496.769 34.236V30.236H494.683L493.489 31.9466L496.769 34.236ZM527.213 34.236L530.501 36.5136L534.849 30.236H527.213V34.236ZM473.721 111.464L470.433 109.186L469.721 110.214V111.464H473.721ZM473.721 161V165H477.721V161H473.721ZM448.609 161H444.609V165H448.609V161ZM451.894 109.181L398.23 31.9534L391.66 36.5185L445.324 113.747L451.894 109.181ZM394.945 38.236H425.389V30.236H394.945V38.236ZM422.104 36.518L457.708 87.774L464.278 83.21L428.674 31.954L422.104 36.518ZM464.273 87.7814L500.049 36.5254L493.489 31.9466L457.713 83.2026L464.273 87.7814ZM496.769 38.236H527.213V30.236H496.769V38.236ZM523.925 31.9584L470.433 109.186L477.009 113.742L530.501 36.5136L523.925 31.9584ZM469.721 111.464V161H477.721V111.464H469.721ZM473.721 157H448.609V165H473.721V157ZM452.609 161V111.464H444.609V161H452.609ZM542.744 34.236V30.236H538.744V34.236H542.744ZM632.872 46.104L630.002 48.8905L630.023 48.9116L630.044 48.9324L632.872 46.104ZM633.044 95.468L630.268 92.5877L626.704 96.0224L630.811 98.7863L633.044 95.468ZM645.944 111.292L642.235 112.789L642.256 112.842L642.279 112.895L645.944 111.292ZM641.644 145.864L638.49 143.404L638.483 143.413L641.644 145.864ZM622.208 158.248L621.035 154.424L620.951 154.45L620.868 154.479L622.208 158.248ZM542.744 161H538.744V165H542.744V161ZM616.188 77.924L612.61 76.1351L612.594 76.168L612.578 76.2011L616.188 77.924ZM616.532 66.572L612.799 68.0079L612.841 68.1189L612.891 68.2272L616.532 66.572ZM614.124 62.788L611.239 65.5581L611.267 65.5876L611.296 65.6164L614.124 62.788ZM567.856 58.488V54.488H563.856V58.488H567.856ZM567.856 85.492H563.856V89.492H567.856V85.492ZM619.284 132.964L616.884 129.764L616.856 129.785L616.828 129.807L619.284 132.964ZM619.112 114.044L616.436 117.017L616.453 117.032L616.47 117.047L619.112 114.044ZM567.856 109.4V105.4H563.856V109.4H567.856ZM567.856 136.576H563.856V140.576H567.856V136.576ZM542.744 38.236H600.192V30.236H542.744V38.236ZM600.192 38.236C613.532 38.236 623.269 41.9558 630.002 48.8905L635.742 43.3175C627.11 34.4282 615.06 30.236 600.192 30.236V38.236ZM630.044 48.9324C635.647 54.5354 638.504 61.627 638.504 70.528H646.504C646.504 59.7063 642.94 50.5152 635.701 43.2756L630.044 48.9324ZM638.504 70.528C638.504 80.2297 635.636 87.4154 630.268 92.5877L635.82 98.3483C643.066 91.3659 646.504 81.9249 646.504 70.528H638.504ZM630.811 98.7863C636.124 102.363 639.903 107.009 642.235 112.789L649.653 109.795C646.711 102.503 641.889 96.5997 635.278 92.1497L630.811 98.7863ZM642.279 112.895C643.601 115.917 644.352 119.862 644.352 124.88H652.352C652.352 119.119 651.498 114.006 649.609 109.689L642.279 112.895ZM644.352 124.88C644.352 132.371 642.341 138.467 638.49 143.404L644.798 148.324C649.892 141.794 652.352 133.901 652.352 124.88H644.352ZM638.483 143.413C634.751 148.226 629.057 151.964 621.035 154.424L623.381 162.072C632.559 159.257 639.823 154.74 644.805 148.315L638.483 143.413ZM620.868 154.479C616.268 156.115 610.389 157 603.116 157V165C610.979 165 617.828 164.051 623.548 162.017L620.868 154.479ZM603.116 157H542.744V165H603.116V157ZM546.744 161V34.236H538.744V161H546.744ZM600.192 89.492C609.157 89.492 616.43 86.7037 619.798 79.6469L612.578 76.2011C611.13 79.235 607.74 81.492 600.192 81.492V89.492ZM619.766 79.7128C620.885 77.4742 621.392 75.0116 621.392 72.42H613.392C613.392 73.9564 613.096 75.1631 612.61 76.1351L619.766 79.7128ZM621.392 72.42C621.392 69.6357 621.111 66.9801 620.174 64.9168L612.891 68.2272C613.099 68.6865 613.392 69.9296 613.392 72.42H621.392ZM620.265 65.1361C619.51 63.1728 618.416 61.4233 616.953 59.9596L611.296 65.6164C611.896 66.2167 612.407 66.9899 612.799 68.0079L620.265 65.1361ZM617.01 60.0179C613.236 56.0867 607.817 54.488 601.568 54.488V62.488C606.556 62.488 609.508 63.7559 611.239 65.5581L617.01 60.0179ZM601.568 54.488H567.856V62.488H601.568V54.488ZM563.856 58.488V85.492H571.856V58.488H563.856ZM567.856 89.492H600.192V81.492H567.856V89.492ZM604.664 140.576C611.643 140.576 617.6 139.342 621.74 136.121L616.828 129.807C614.776 131.402 610.987 132.576 604.664 132.576V140.576ZM621.684 136.164C625.62 133.212 627.412 128.882 627.412 123.848H619.412C619.412 126.84 618.453 128.588 616.884 129.764L621.684 136.164ZM627.412 123.848C627.412 118.752 625.533 114.366 621.755 111.041L616.47 117.047C618.424 118.767 619.412 120.918 619.412 123.848H627.412ZM621.788 111.071C617.297 107.029 610.797 105.4 603.116 105.4V113.4C609.883 113.4 614.047 114.867 616.436 117.017L621.788 111.071ZM603.116 105.4H567.856V113.4H603.116V105.4ZM563.856 109.4V136.576H571.856V109.4H563.856ZM567.856 140.576H604.664V132.576H567.856V140.576ZM669.917 34.236V30.236H665.917V34.236H669.917ZM766.409 34.236H770.409V30.236H766.409V34.236ZM766.409 58.66V62.66H770.409V58.66H766.409ZM695.029 58.66V54.66H691.029V58.66H695.029ZM695.029 85.148H691.029V89.148H695.029V85.148ZM746.801 85.148H750.801V81.148H746.801V85.148ZM746.801 109.916V113.916H750.801V109.916H746.801ZM695.029 109.916V105.916H691.029V109.916H695.029ZM695.029 136.404H691.029V140.404H695.029V136.404ZM766.409 136.404H770.409V132.404H766.409V136.404ZM766.409 161V165H770.409V161H766.409ZM669.917 161H665.917V165H669.917V161ZM669.917 38.236H766.409V30.236H669.917V38.236ZM762.409 34.236V58.66H770.409V34.236H762.409ZM766.409 54.66H695.029V62.66H766.409V54.66ZM691.029 58.66V85.148H699.029V58.66H691.029ZM695.029 89.148H746.801V81.148H695.029V89.148ZM742.801 85.148V109.916H750.801V85.148H742.801ZM746.801 105.916H695.029V113.916H746.801V105.916ZM691.029 109.916V136.404H699.029V109.916H691.029ZM695.029 140.404H766.409V132.404H695.029V140.404ZM762.409 136.404V161H770.409V136.404H762.409ZM766.409 157H669.917V165H766.409V157ZM673.917 161V34.236H665.917V161H673.917ZM787.851 34.236V30.236H783.851V34.236H787.851ZM881.075 45.416L883.778 42.4674L883.756 42.4478L883.735 42.4286L881.075 45.416ZM887.955 97.532L884.548 95.4356L884.542 95.445L884.537 95.4543L887.955 97.532ZM872.131 110.948L873.514 114.701L873.633 114.657L873.75 114.606L872.131 110.948ZM868.863 112.152L867.48 108.399L862.953 110.067L865.431 114.206L868.863 112.152ZM898.103 161V165H905.159L901.535 158.946L898.103 161ZM868.519 161L865.05 162.992L866.203 165H868.519V161ZM843.235 116.968L846.704 114.976L845.55 112.968H843.235V116.968ZM812.963 116.968V112.968H808.963V116.968H812.963ZM812.963 161V165H816.963V161H812.963ZM787.851 161H783.851V165H787.851V161ZM866.799 84.116L870.179 86.2546L870.24 86.1582L870.295 86.0586L866.799 84.116ZM863.187 63.476L865.814 60.4597L865.777 60.4273L865.739 60.3959L863.187 63.476ZM812.963 58.488V54.488H808.963V58.488H812.963ZM812.963 92.544H808.963V96.544H812.963V92.544ZM787.851 38.236H848.911V30.236H787.851V38.236ZM848.911 38.236C861.175 38.236 870.896 41.7089 878.415 48.4034L883.735 42.4286C874.512 34.2164 862.791 30.236 848.911 30.236V38.236ZM878.372 48.3646C885.677 55.0607 889.459 64.1295 889.459 76.032H897.459C897.459 62.2491 892.985 50.9073 883.778 42.4674L878.372 48.3646ZM889.459 76.032C889.459 83.8084 887.76 90.2171 884.548 95.4356L891.361 99.6284C895.489 92.9216 897.459 84.997 897.459 76.032H889.459ZM884.537 95.4543C881.456 100.523 876.851 104.484 870.512 107.29L873.75 114.606C881.4 111.22 887.345 106.237 891.373 99.6097L884.537 95.4543ZM870.748 107.195L867.48 108.399L870.246 115.905L873.514 114.701L870.748 107.195ZM865.431 114.206L894.671 163.054L901.535 158.946L872.295 110.098L865.431 114.206ZM898.103 157H868.519V165H898.103V157ZM871.988 159.008L846.704 114.976L839.766 118.96L865.05 162.992L871.988 159.008ZM843.235 112.968H812.963V120.968H843.235V112.968ZM808.963 116.968V161H816.963V116.968H808.963ZM812.963 157H787.851V165H812.963V157ZM791.851 161V34.236H783.851V161H791.851ZM846.503 96.544C857.117 96.544 865.57 93.5396 870.179 86.2546L863.419 81.9774C860.918 85.9298 855.841 88.544 846.503 88.544V96.544ZM870.295 86.0586C871.88 83.2068 872.519 79.7748 872.519 76.032H864.519C864.519 78.9399 864.011 80.8971 863.302 82.1734L870.295 86.0586ZM872.519 76.032C872.519 69.7546 870.351 64.4109 865.814 60.4597L860.56 66.4923C863.132 68.7331 864.519 71.7601 864.519 76.032H872.519ZM865.739 60.3959C860.829 56.3276 854.511 54.488 847.191 54.488V62.488C853.172 62.488 857.518 63.9737 860.635 66.5561L865.739 60.3959ZM847.191 54.488H812.963V62.488H847.191V54.488ZM808.963 58.488V92.544H816.963V58.488H808.963ZM812.963 96.544H846.503V88.544H812.963V96.544ZM91.0492 317.94L94.0478 315.293L94.0404 315.284L91.0492 317.94ZM91.0492 226.608L88.0774 223.931L88.0705 223.938L91.0492 226.608ZM172.749 218.696L170.474 221.986L170.493 221.999L170.511 222.011L172.749 218.696ZM193.045 245.012L194.698 248.654L198.13 247.097L196.78 243.579L193.045 245.012ZM170.685 255.16V259.16H171.55L172.338 258.802L170.685 255.16ZM170.513 255.16L166.837 256.736L167.876 259.16H170.513V255.16ZM168.965 251.548L165.281 253.107L165.285 253.115L165.289 253.124L168.965 251.548ZM157.441 237.444L155.206 240.761L155.214 240.767L155.222 240.772L157.441 237.444ZM121.149 235.208L119.541 231.545L121.149 235.208ZM109.453 243.464L106.48 240.788L106.472 240.797L106.464 240.807L109.453 243.464ZM109.453 300.912L106.423 303.523L106.426 303.526L109.453 300.912ZM157.441 307.104L155.239 303.765L155.213 303.782L155.188 303.799L157.441 307.104ZM168.965 293L165.263 291.485L165.252 291.512L165.241 291.54L168.965 293ZM170.513 289.216V285.216H167.828L166.811 287.701L170.513 289.216ZM170.685 289.216L172.361 285.584L171.564 285.216H170.685V289.216ZM193.045 299.536L196.757 301.028L198.176 297.498L194.721 295.904L193.045 299.536ZM172.749 325.852L175.041 329.131L175.052 329.123L175.062 329.115L172.749 325.852ZM136.285 333.032C118.366 333.032 104.434 327.057 94.0478 315.293L88.0507 320.587C100.139 334.279 116.365 341.032 136.285 341.032V333.032ZM94.0404 315.284C83.8707 303.83 78.7092 289.558 78.7092 272.188H70.7092C70.7092 291.282 76.441 307.511 88.058 320.596L94.0404 315.284ZM78.7092 272.188C78.7092 254.817 83.8706 240.611 94.028 229.278L88.0705 223.938C76.4412 236.914 70.7092 253.095 70.7092 272.188H78.7092ZM94.0211 229.285C104.655 217.481 118.612 211.516 136.285 211.516V203.516C116.577 203.516 100.377 210.279 88.0774 223.931L94.0211 229.285ZM136.285 211.516C149.031 211.516 160.387 215.011 170.474 221.986L175.024 215.406C163.554 207.475 150.601 203.516 136.285 203.516V211.516ZM170.511 222.011C178.938 227.699 185.217 235.78 189.311 246.445L196.78 243.579C192.159 231.54 184.908 222.077 174.987 215.381L170.511 222.011ZM191.392 241.37L169.032 251.518L172.338 258.802L194.698 248.654L191.392 241.37ZM170.685 251.16H170.513V259.16H170.685V251.16ZM174.19 253.584L172.642 249.972L165.289 253.124L166.837 256.736L174.19 253.584ZM172.649 249.989C169.836 243.34 165.5 238.009 159.66 234.116L155.222 240.772C159.702 243.759 163.049 247.831 165.281 253.107L172.649 249.989ZM159.677 234.127C153.687 230.091 146.818 228.112 139.209 228.112V236.112C145.361 236.112 150.646 237.688 155.206 240.761L159.677 234.127ZM139.209 228.112C131.537 228.112 124.918 229.185 119.541 231.545L122.757 238.871C126.783 237.103 132.204 236.112 139.209 236.112V228.112ZM119.541 231.545C114.377 233.813 109.996 236.882 106.48 240.788L112.426 246.14C115.103 243.166 118.519 240.731 122.757 238.871L119.541 231.545ZM106.464 240.807C99.2486 248.923 95.8212 259.522 95.8212 272.188H103.821C103.821 261.004 106.815 252.453 112.443 246.121L106.464 240.807ZM95.8212 272.188C95.8212 284.652 99.2622 295.211 106.423 303.523L112.484 298.301C106.802 291.706 103.821 283.116 103.821 272.188H95.8212ZM106.426 303.526C113.952 312.241 125.152 316.264 139.209 316.264V308.264C126.664 308.264 118.026 304.719 112.481 298.298L106.426 303.526ZM139.209 316.264C146.987 316.264 153.881 314.373 159.695 310.409L155.188 303.799C150.911 306.715 145.65 308.264 139.209 308.264V316.264ZM159.644 310.443C165.701 306.448 170.086 301.099 172.689 294.46L165.241 291.54C163.258 296.597 159.96 300.651 155.239 303.765L159.644 310.443ZM172.667 294.515L174.215 290.731L166.811 287.701L165.263 291.485L172.667 294.515ZM170.513 293.216H170.685V285.216H170.513V293.216ZM169.009 292.848L191.369 303.168L194.721 295.904L172.361 285.584L169.009 292.848ZM189.334 298.044C185.125 308.513 178.818 316.647 170.436 322.589L175.062 329.115C184.798 322.214 192.022 312.804 196.757 301.028L189.334 298.044ZM170.458 322.573C160.5 329.533 149.153 333.032 136.285 333.032V341.032C150.708 341.032 163.671 337.077 175.041 329.131L170.458 322.573ZM255.237 286.464H259.237V285.211L258.521 284.181L255.237 286.464ZM201.573 209.236V205.236H193.922L198.288 211.519L201.573 209.236ZM232.017 209.236L235.302 206.954L234.108 205.236H232.017V209.236ZM267.621 260.492L264.335 262.774L267.613 267.492L270.901 262.781L267.621 260.492ZM303.397 209.236V205.236H301.311L300.117 206.947L303.397 209.236ZM333.841 209.236L337.129 211.514L341.477 205.236H333.841V209.236ZM280.349 286.464L277.06 284.186L276.349 285.214V286.464H280.349ZM280.349 336V340H284.349V336H280.349ZM255.237 336H251.237V340H255.237V336ZM258.521 284.181L204.857 206.953L198.288 211.519L251.952 288.747L258.521 284.181ZM201.573 213.236H232.017V205.236H201.573V213.236ZM228.731 211.518L264.335 262.774L270.906 258.21L235.302 206.954L228.731 211.518ZM270.901 262.781L306.677 211.525L300.117 206.947L264.341 258.203L270.901 262.781ZM303.397 213.236H333.841V205.236H303.397V213.236ZM330.552 206.958L277.06 284.186L283.637 288.742L337.129 211.514L330.552 206.958ZM276.349 286.464V336H284.349V286.464H276.349ZM280.349 332H255.237V340H280.349V332ZM259.237 336V286.464H251.237V336H259.237ZM349.372 209.236V205.236H345.372V209.236H349.372ZM440.188 220.932L442.913 218.004L442.903 217.995L442.894 217.987L440.188 220.932ZM440.016 283.54L442.72 286.487L442.742 286.467L442.763 286.447L440.016 283.54ZM374.484 295.064V291.064H370.484V295.064H374.484ZM374.484 336V340H378.484V336H374.484ZM349.372 336H345.372V340H349.372V336ZM422.472 265.996L425.204 268.917L425.228 268.895L425.252 268.872L422.472 265.996ZM422.472 238.476L419.739 241.397L419.742 241.4L422.472 238.476ZM374.484 233.488V229.488H370.484V233.488H374.484ZM374.484 270.984H370.484V274.984H374.484V270.984ZM349.372 213.236H406.992V205.236H349.372V213.236ZM406.992 213.236C419.83 213.236 429.867 216.88 437.481 223.877L442.894 217.987C433.538 209.389 421.444 205.236 406.992 205.236V213.236ZM437.463 223.86C444.774 230.664 448.572 239.909 448.572 252.064H456.572C456.572 238.075 452.113 226.566 442.913 218.004L437.463 223.86ZM448.572 252.064C448.572 264.199 444.728 273.582 437.268 280.633L442.763 286.447C452.045 277.674 456.572 266.073 456.572 252.064H448.572ZM437.311 280.593C429.821 287.467 419.848 291.064 406.992 291.064V299.064C421.426 299.064 433.469 294.978 442.72 286.487L437.311 280.593ZM406.992 291.064H374.484V299.064H406.992V291.064ZM370.484 295.064V336H378.484V295.064H370.484ZM374.484 332H349.372V340H374.484V332ZM353.372 336V209.236H345.372V336H353.372ZM406.132 274.984C413.982 274.984 420.609 273.216 425.204 268.917L419.739 263.075C417.225 265.426 412.959 266.984 406.132 266.984V274.984ZM425.252 268.872C429.639 264.631 431.632 258.911 431.632 252.236H423.632C423.632 257.257 422.184 260.711 419.692 263.12L425.252 268.872ZM431.632 252.236C431.632 245.48 429.656 239.71 425.201 235.552L419.742 241.4C422.167 243.663 423.632 247.067 423.632 252.236H431.632ZM425.204 235.555C420.609 231.256 413.982 229.488 406.132 229.488V237.488C412.959 237.488 417.225 239.046 419.739 241.397L425.204 235.555ZM406.132 229.488H374.484V237.488H406.132V229.488ZM370.484 233.488V270.984H378.484V233.488H370.484ZM374.484 274.984H406.132V266.984H374.484V274.984ZM470.665 209.236V205.236H466.665V209.236H470.665ZM495.777 209.236H499.777V205.236H495.777V209.236ZM495.777 260.148H491.777V264.148H495.777V260.148ZM550.473 260.148V264.148H554.473V260.148H550.473ZM550.473 209.236V205.236H546.473V209.236H550.473ZM575.413 209.236H579.413V205.236H575.413V209.236ZM575.413 336V340H579.413V336H575.413ZM550.473 336H546.473V340H550.473V336ZM550.473 284.916H554.473V280.916H550.473V284.916ZM495.777 284.916V280.916H491.777V284.916H495.777ZM495.777 336V340H499.777V336H495.777ZM470.665 336H466.665V340H470.665V336ZM470.665 213.236H495.777V205.236H470.665V213.236ZM491.777 209.236V260.148H499.777V209.236H491.777ZM495.777 264.148H550.473V256.148H495.777V264.148ZM554.473 260.148V209.236H546.473V260.148H554.473ZM550.473 213.236H575.413V205.236H550.473V213.236ZM571.413 209.236V336H579.413V209.236H571.413ZM575.413 332H550.473V340H575.413V332ZM554.473 336V284.916H546.473V336H554.473ZM550.473 280.916H495.777V288.916H550.473V280.916ZM491.777 284.916V336H499.777V284.916H491.777ZM495.777 332H470.665V340H495.777V332ZM474.665 336V209.236H466.665V336H474.665ZM603.717 209.236V205.236H599.717V209.236H603.717ZM700.209 209.236H704.209V205.236H700.209V209.236ZM700.209 233.66V237.66H704.209V233.66H700.209ZM628.829 233.66V229.66H624.829V233.66H628.829ZM628.829 260.148H624.829V264.148H628.829V260.148ZM680.601 260.148H684.601V256.148H680.601V260.148ZM680.601 284.916V288.916H684.601V284.916H680.601ZM628.829 284.916V280.916H624.829V284.916H628.829ZM628.829 311.404H624.829V315.404H628.829V311.404ZM700.209 311.404H704.209V307.404H700.209V311.404ZM700.209 336V340H704.209V336H700.209ZM603.717 336H599.717V340H603.717V336ZM603.717 213.236H700.209V205.236H603.717V213.236ZM696.209 209.236V233.66H704.209V209.236H696.209ZM700.209 229.66H628.829V237.66H700.209V229.66ZM624.829 233.66V260.148H632.829V233.66H624.829ZM628.829 264.148H680.601V256.148H628.829V264.148ZM676.601 260.148V284.916H684.601V260.148H676.601ZM680.601 280.916H628.829V288.916H680.601V280.916ZM624.829 284.916V311.404H632.829V284.916H624.829ZM628.829 315.404H700.209V307.404H628.829V315.404ZM696.209 311.404V336H704.209V311.404H696.209ZM700.209 332H603.717V340H700.209V332ZM607.717 336V209.236H599.717V336H607.717ZM721.651 209.236V205.236H717.651V209.236H721.651ZM814.875 220.416L817.578 217.467L817.557 217.448L817.535 217.429L814.875 220.416ZM821.755 272.532L818.348 270.436L818.343 270.445L818.337 270.454L821.755 272.532ZM805.931 285.948L807.314 289.701L807.433 289.657L807.55 289.606L805.931 285.948ZM802.663 287.152L801.28 283.399L796.753 285.067L799.231 289.206L802.663 287.152ZM831.903 336V340H838.959L835.335 333.946L831.903 336ZM802.319 336L798.85 337.992L800.003 340H802.319V336ZM777.035 291.968L780.504 289.976L779.351 287.968H777.035V291.968ZM746.763 291.968V287.968H742.763V291.968H746.763ZM746.763 336V340H750.763V336H746.763ZM721.651 336H717.651V340H721.651V336ZM800.599 259.116L803.979 261.255L804.04 261.158L804.096 261.059L800.599 259.116ZM796.987 238.476L799.614 235.46L799.577 235.427L799.539 235.396L796.987 238.476ZM746.763 233.488V229.488H742.763V233.488H746.763ZM746.763 267.544H742.763V271.544H746.763V267.544ZM721.651 213.236H782.711V205.236H721.651V213.236ZM782.711 213.236C794.975 213.236 804.697 216.709 812.215 223.403L817.535 217.429C808.312 209.216 796.591 205.236 782.711 205.236V213.236ZM812.172 223.365C819.477 230.061 823.259 239.13 823.259 251.032H831.259C831.259 237.249 826.785 225.907 817.578 217.467L812.172 223.365ZM823.259 251.032C823.259 258.808 821.56 265.217 818.348 270.436L825.162 274.628C829.289 267.922 831.259 259.997 831.259 251.032H823.259ZM818.337 270.454C815.256 275.523 810.651 279.484 804.312 282.29L807.55 289.606C815.2 286.22 821.145 281.237 825.173 274.61L818.337 270.454ZM804.548 282.195L801.28 283.399L804.046 290.905L807.314 289.701L804.548 282.195ZM799.231 289.206L828.471 338.054L835.335 333.946L806.095 285.098L799.231 289.206ZM831.903 332H802.319V340H831.903V332ZM805.788 334.008L780.504 289.976L773.566 293.96L798.85 337.992L805.788 334.008ZM777.035 287.968H746.763V295.968H777.035V287.968ZM742.763 291.968V336H750.763V291.968H742.763ZM746.763 332H721.651V340H746.763V332ZM725.651 336V209.236H717.651V336H725.651ZM780.303 271.544C790.917 271.544 799.37 268.54 803.979 261.255L797.219 256.977C794.718 260.93 789.641 263.544 780.303 263.544V271.544ZM804.096 261.059C805.68 258.207 806.319 254.775 806.319 251.032H798.319C798.319 253.94 797.811 255.897 797.102 257.173L804.096 261.059ZM806.319 251.032C806.319 244.755 804.151 239.411 799.614 235.46L794.36 241.492C796.933 243.733 798.319 246.76 798.319 251.032H806.319ZM799.539 235.396C794.629 231.328 788.311 229.488 780.991 229.488V237.488C786.972 237.488 791.318 238.974 794.435 241.556L799.539 235.396ZM780.991 229.488H746.763V237.488H780.991V229.488ZM742.763 233.488V267.544H750.763V233.488H742.763ZM746.763 271.544H780.303V263.544H746.763V271.544ZM899.971 304.008L896.654 301.771L896.653 301.774L899.971 304.008ZM913.043 289.56L910.5 286.472L910.456 286.508L910.413 286.546L913.043 289.56ZM929.211 277.52L931.393 280.872L931.427 280.85L931.46 280.828L929.211 277.52ZM944.347 266.856L946.719 270.076L946.753 270.052L946.785 270.026L944.347 266.856ZM955.355 256.364L952.327 253.75L952.283 253.801L952.241 253.853L955.355 256.364ZM954.151 236.756L956.801 233.76L956.757 233.721L956.711 233.683L954.151 236.756ZM923.707 236.412L921.465 233.099L921.375 233.16L921.289 233.225L923.707 236.412ZM917.687 247.248L921.632 247.906L921.639 247.866L921.644 247.827L917.687 247.248ZM916.827 252.408V256.408H920.215L920.772 253.066L916.827 252.408ZM892.059 252.408L888.081 251.989L887.615 256.408H892.059V252.408ZM892.747 245.872L896.725 246.291L896.728 246.262L896.73 246.234L892.747 245.872ZM907.539 218.18L905.04 215.057L905.03 215.064L907.539 218.18ZM971.523 219.04L974.224 216.09L974.203 216.071L974.183 216.053L971.523 219.04ZM978.403 265.824L981.742 268.025L981.763 267.994L981.783 267.963L978.403 265.824ZM966.191 280.1L968.777 283.151L968.846 283.093L968.912 283.031L966.191 280.1ZM950.883 291.968L953.101 295.296L953.137 295.273L953.171 295.249L950.883 291.968ZM936.263 302.288L938.579 305.549L938.601 305.533L938.623 305.518L936.263 302.288ZM925.599 311.404L922.659 308.691L916.463 315.404H925.599V311.404ZM983.391 311.404H987.391V307.404H983.391V311.404ZM983.391 336V340H987.391V336H983.391ZM894.295 336H890.295V340H894.295V336ZM898.295 322.928C898.295 316.702 899.964 311.178 903.288 306.242L896.653 301.774C892.409 308.075 890.295 315.165 890.295 322.928H898.295ZM903.287 306.245C906.384 301.653 910.494 297.092 915.672 292.574L910.413 286.546C904.813 291.431 900.208 296.502 896.654 301.771L903.287 306.245ZM915.585 292.648C921.349 287.901 926.617 283.982 931.393 280.872L927.028 274.168C921.943 277.479 916.432 281.587 910.5 286.472L915.585 292.648ZM931.46 280.828C937.224 276.908 942.312 273.324 946.719 270.076L941.974 263.636C937.667 266.81 932.664 270.335 926.961 274.212L931.46 280.828ZM946.785 270.026C951.452 266.437 955.364 262.725 958.468 258.875L952.241 253.853C949.612 257.112 946.186 260.395 941.908 263.686L946.785 270.026ZM958.382 258.978C961.136 255.789 962.623 252.069 962.623 247.936H954.623C954.623 249.995 953.931 251.893 952.327 253.75L958.382 258.978ZM962.623 247.936C962.623 242.236 960.819 237.314 956.801 233.76L951.5 239.752C953.445 241.472 954.623 244.004 954.623 247.936H962.623ZM956.711 233.683C952.297 230.004 946.318 228.456 939.359 228.456V236.456C945.242 236.456 949.124 237.774 951.59 239.829L956.711 233.683ZM939.359 228.456C932.324 228.456 926.237 229.871 921.465 233.099L925.948 239.725C928.973 237.678 933.321 236.456 939.359 236.456V228.456ZM921.289 233.225C917.011 236.471 914.546 241.086 913.729 246.669L921.644 247.827C922.203 244.008 923.752 241.399 926.124 239.599L921.289 233.225ZM913.741 246.59L912.881 251.75L920.772 253.066L921.632 247.906L913.741 246.59ZM916.827 248.408H892.059V256.408H916.827V248.408ZM896.037 252.827L896.725 246.291L888.769 245.453L888.081 251.989L896.037 252.827ZM896.73 246.234C897.665 235.955 902.068 227.721 910.047 221.296L905.03 215.064C895.351 222.858 889.893 233.085 888.763 245.51L896.73 246.234ZM910.037 221.303C917.861 215.045 927.277 211.86 938.499 211.86V203.86C925.641 203.86 914.417 207.555 905.04 215.057L910.037 221.303ZM938.499 211.86C951.386 211.86 961.376 215.361 968.863 222.027L974.183 216.053C964.928 207.812 952.901 203.86 938.499 203.86V211.86ZM968.822 221.99C976.064 228.62 979.735 237.204 979.735 248.108H987.735C987.735 235.162 983.264 224.366 974.224 216.09L968.822 221.99ZM979.735 248.108C979.735 253.487 978.203 258.657 975.022 263.685L981.783 267.963C985.711 261.753 987.735 255.113 987.735 248.108H979.735ZM975.063 263.623C971.928 268.379 968.071 272.896 963.469 277.169L968.912 283.031C973.943 278.36 978.226 273.36 981.742 268.025L975.063 263.623ZM963.604 277.049C958.411 281.452 953.408 285.329 948.594 288.688L953.171 295.249C958.219 291.727 963.421 287.692 968.777 283.151L963.604 277.049ZM948.664 288.64C944.812 291.208 939.887 294.685 933.903 299.058L938.623 305.518C944.564 301.176 949.385 297.774 953.101 295.296L948.664 288.64ZM933.946 299.027C929.429 302.236 925.648 305.454 922.659 308.691L928.538 314.117C931.054 311.392 934.381 308.532 938.579 305.549L933.946 299.027ZM925.599 315.404H983.391V307.404H925.599V315.404ZM979.391 311.404V336H987.391V311.404H979.391ZM983.391 332H894.295V340H983.391V332ZM898.295 336V322.928H890.295V336H898.295ZM1000.04 305.728V301.728H996.042V305.728H1000.04ZM1028.08 305.728H1032.08V301.728H1028.08V305.728ZM1028.08 336V340H1032.08V336H1028.08ZM1000.04 336H996.042V340H1000.04V336ZM1000.04 309.728H1028.08V301.728H1000.04V309.728ZM1024.08 305.728V336H1032.08V305.728H1024.08ZM1028.08 332H1000.04V340H1028.08V332ZM1004.04 336V305.728H996.042V336H1004.04ZM1052.87 318.284L1049.36 320.188L1049.36 320.201L1049.37 320.213L1052.87 318.284ZM1052.87 226.264L1056.39 228.168L1052.87 226.264ZM1126.32 228.844L1129.83 226.923L1129.82 226.911L1129.81 226.899L1126.32 228.844ZM1124.94 318.284L1121.44 316.355L1121.43 316.367L1121.42 316.38L1124.94 318.284ZM1101.55 307.448L1104.14 310.498L1104.16 310.476L1104.19 310.453L1101.55 307.448ZM1109.12 287.668L1105.15 287.139L1105.15 287.15L1105.15 287.16L1109.12 287.668ZM1104.47 240.54L1107.99 238.637L1107.99 238.623L1107.98 238.61L1104.47 240.54ZM1073.34 240.54L1076.86 242.447L1076.87 242.431L1076.88 242.415L1073.34 240.54ZM1073.34 304.008L1076.83 302.047L1076.81 302.022L1076.8 301.996L1073.34 304.008ZM1088.99 333.032C1072.9 333.032 1062.4 327.292 1056.38 316.355L1049.37 320.213C1057.11 334.274 1070.69 341.032 1088.99 341.032V333.032ZM1056.39 316.38C1050.02 304.608 1046.73 289.938 1046.73 272.188H1038.73C1038.73 290.902 1042.2 306.962 1049.36 320.188L1056.39 316.38ZM1046.73 272.188C1046.73 254.557 1050.02 239.943 1056.39 228.168L1049.36 224.36C1042.2 237.582 1038.73 253.584 1038.73 272.188H1046.73ZM1056.39 228.168C1062.31 217.235 1072.64 211.516 1088.48 211.516V203.516C1070.38 203.516 1056.97 210.295 1049.36 224.36L1056.39 228.168ZM1088.48 211.516C1096.58 211.516 1103.36 213.176 1108.96 216.333C1114.55 219.482 1119.18 224.242 1122.82 230.789L1129.81 226.899C1125.54 219.227 1119.91 213.324 1112.89 209.363C1105.88 205.41 1097.69 203.516 1088.48 203.516V211.516ZM1122.81 230.765C1128.34 240.863 1131.26 254.575 1131.26 272.188H1139.26C1139.26 253.796 1136.22 238.611 1129.83 226.923L1122.81 230.765ZM1131.26 272.188C1131.26 289.929 1127.91 304.589 1121.44 316.355L1128.45 320.213C1135.73 306.981 1139.26 290.911 1139.26 272.188H1131.26ZM1121.42 316.38C1115.52 327.293 1105.09 333.032 1088.99 333.032V341.032C1107.3 341.032 1120.84 334.272 1128.46 320.188L1121.42 316.38ZM1088.31 316.264C1094.28 316.264 1099.62 314.333 1104.14 310.498L1098.96 304.398C1095.91 306.984 1092.42 308.264 1088.31 308.264V316.264ZM1104.19 310.453C1109.15 306.098 1111.8 298.195 1113.09 288.175L1105.15 287.16C1103.91 296.863 1101.52 302.148 1098.91 304.443L1104.19 310.453ZM1113.08 288.197C1113.79 282.863 1114.15 277.526 1114.15 272.188H1106.15C1106.15 277.17 1105.82 282.153 1105.15 287.139L1113.08 288.197ZM1114.15 272.188C1114.15 257.861 1112.25 246.509 1107.99 238.637L1100.96 242.443C1104.27 248.56 1106.15 258.307 1106.15 272.188H1114.15ZM1107.98 238.61C1104.08 231.53 1097.45 228.112 1088.99 228.112V236.112C1094.98 236.112 1098.68 238.313 1100.97 242.47L1107.98 238.61ZM1088.99 228.112C1080.37 228.112 1073.62 231.488 1069.81 238.665L1076.88 242.415C1079.03 238.355 1082.71 236.112 1088.99 236.112V228.112ZM1069.83 238.633C1065.67 246.297 1063.84 257.671 1063.84 272.188H1071.84C1071.84 258.038 1073.68 248.314 1076.86 242.447L1069.83 238.633ZM1063.84 272.188C1063.84 287.206 1065.65 298.738 1069.89 306.02L1076.8 301.996C1073.7 296.665 1071.84 286.983 1071.84 272.188H1063.84ZM1069.86 305.969C1073.73 312.864 1080.14 316.264 1088.31 316.264V308.264C1082.71 308.264 1079.14 306.16 1076.83 302.047L1069.86 305.969Z" fill="url(#paint0_linear_69_2)"/>
<path d="M284.422 142.94L287.42 140.293L287.413 140.284L284.422 142.94ZM284.422 51.608L281.45 48.9306L281.443 48.9384L284.422 51.608ZM366.122 43.696L363.847 46.986L363.865 46.9988L363.884 47.0114L366.122 43.696ZM386.418 70.012L388.071 73.6544L391.502 72.0969L390.152 68.5786L386.418 70.012ZM364.058 80.16V84.16H364.923L365.711 83.8024L364.058 80.16ZM363.886 80.16L360.209 81.7357L361.248 84.16H363.886V80.16ZM362.338 76.548L358.654 78.1066L358.657 78.1151L358.661 78.1237L362.338 76.548ZM350.814 62.444L348.578 65.7611L348.586 65.7667L348.595 65.7722L350.814 62.444ZM314.522 60.208L312.914 56.5454V56.5454L314.522 60.208ZM302.826 68.464L299.852 65.7881L299.844 65.7973L299.836 65.8065L302.826 68.464ZM302.826 125.912L299.795 128.523L299.798 128.526L302.826 125.912ZM350.814 132.104L348.611 128.765L348.586 128.782L348.56 128.799L350.814 132.104ZM362.338 118L358.635 116.485L358.624 116.512L358.614 116.54L362.338 118ZM363.886 114.216V110.216H361.2L360.183 112.701L363.886 114.216ZM364.058 114.216L365.734 110.584L364.936 110.216H364.058V114.216ZM386.418 124.536L390.129 126.028L391.548 122.498L388.094 120.904L386.418 124.536ZM366.122 150.852L368.413 154.131L368.424 154.123L368.435 154.115L366.122 150.852ZM329.658 158.032C311.738 158.032 297.806 152.057 287.42 140.293L281.423 145.587C293.512 159.279 309.737 166.032 329.658 166.032V158.032ZM287.413 140.284C277.243 128.83 272.082 114.558 272.082 97.188H264.082C264.082 116.282 269.813 132.511 281.43 145.596L287.413 140.284ZM272.082 97.188C272.082 79.8172 277.243 65.6111 287.4 54.2776L281.443 48.9384C269.814 61.9142 264.082 78.0948 264.082 97.188H272.082ZM287.393 54.2853C298.028 42.4815 311.985 36.516 329.658 36.516V28.516C309.949 28.516 293.749 35.2785 281.45 48.9307L287.393 54.2853ZM329.658 36.516C342.403 36.516 353.759 40.0107 363.847 46.986L368.397 40.406C356.927 32.4746 343.973 28.516 329.658 28.516V36.516ZM363.884 47.0114C372.31 52.6991 378.59 60.7802 382.683 71.4454L390.152 68.5786C385.531 56.5398 378.28 47.0769 368.359 40.3806L363.884 47.0114ZM384.764 66.3696L362.404 76.5176L365.711 83.8024L388.071 73.6544L384.764 66.3696ZM364.058 76.16H363.886V84.16H364.058V76.16ZM367.562 78.5843L366.014 74.9723L358.661 78.1237L360.209 81.7357L367.562 78.5843ZM366.021 74.9894C363.208 68.3398 358.873 63.0094 353.032 59.1158L348.595 65.7722C353.074 68.7586 356.422 72.8309 358.654 78.1066L366.021 74.9894ZM353.049 59.1269C347.059 55.0905 340.19 53.112 332.582 53.112V61.112C338.733 61.112 344.018 62.6881 348.578 65.7611L353.049 59.1269ZM332.582 53.112C324.909 53.112 318.29 54.1849 312.914 56.5454L316.13 63.8706C320.155 62.1031 325.577 61.112 332.582 61.112V53.112ZM312.914 56.5454C307.75 58.8126 303.368 61.8819 299.852 65.7881L305.799 71.1399C308.475 68.1661 311.891 65.7314 316.13 63.8706L312.914 56.5454ZM299.836 65.8065C292.621 73.9235 289.194 84.5218 289.194 97.188H297.194C297.194 86.0036 300.188 77.4525 305.815 71.1214L299.836 65.8065ZM289.194 97.188C289.194 109.652 292.634 120.211 299.795 128.523L305.856 123.301C300.174 116.706 297.194 108.116 297.194 97.188H289.194ZM299.798 128.526C307.325 137.241 318.524 141.264 332.582 141.264V133.264C320.036 133.264 311.398 129.719 305.853 123.298L299.798 128.526ZM332.582 141.264C340.359 141.264 347.254 139.373 353.067 135.409L348.56 128.799C344.283 131.715 339.023 133.264 332.582 133.264V141.264ZM353.016 135.443C359.074 131.448 363.458 126.099 366.061 119.46L358.614 116.54C356.63 121.597 353.332 125.651 348.611 128.765L353.016 135.443ZM366.04 119.515L367.588 115.731L360.183 112.701L358.635 116.485L366.04 119.515ZM363.886 118.216H364.058V110.216H363.886V118.216ZM362.381 117.848L384.741 128.168L388.094 120.904L365.734 110.584L362.381 117.848ZM382.706 123.044C378.497 133.513 372.191 141.647 363.808 147.589L368.435 154.115C378.17 147.214 385.394 137.804 390.129 126.028L382.706 123.044ZM363.83 147.573C353.872 154.533 342.526 158.032 329.658 158.032V166.032C344.08 166.032 357.043 162.077 368.413 154.131L363.83 147.573ZM448.609 111.464H452.609V110.211L451.894 109.181L448.609 111.464ZM394.945 34.236V30.236H387.295L391.66 36.5185L394.945 34.236ZM425.389 34.236L428.674 31.954L427.481 30.236H425.389V34.236ZM460.993 85.492L457.708 87.774L460.985 92.492L464.273 87.7814L460.993 85.492ZM496.769 34.236V30.236H494.683L493.489 31.9466L496.769 34.236ZM527.213 34.236L530.501 36.5136L534.849 30.236H527.213V34.236ZM473.721 111.464L470.433 109.186L469.721 110.214V111.464H473.721ZM473.721 161V165H477.721V161H473.721ZM448.609 161H444.609V165H448.609V161ZM451.894 109.181L398.23 31.9534L391.66 36.5185L445.324 113.747L451.894 109.181ZM394.945 38.236H425.389V30.236H394.945V38.236ZM422.104 36.518L457.708 87.774L464.278 83.21L428.674 31.954L422.104 36.518ZM464.273 87.7814L500.049 36.5254L493.489 31.9466L457.713 83.2026L464.273 87.7814ZM496.769 38.236H527.213V30.236H496.769V38.236ZM523.925 31.9584L470.433 109.186L477.009 113.742L530.501 36.5136L523.925 31.9584ZM469.721 111.464V161H477.721V111.464H469.721ZM473.721 157H448.609V165H473.721V157ZM452.609 161V111.464H444.609V161H452.609ZM542.744 34.236V30.236H538.744V34.236H542.744ZM632.872 46.104L630.002 48.8905L630.023 48.9116L630.044 48.9324L632.872 46.104ZM633.044 95.468L630.268 92.5877L626.704 96.0224L630.811 98.7863L633.044 95.468ZM645.944 111.292L642.235 112.789L642.256 112.842L642.279 112.895L645.944 111.292ZM641.644 145.864L638.49 143.404L638.483 143.413L641.644 145.864ZM622.208 158.248L621.035 154.424L620.951 154.45L620.868 154.479L622.208 158.248ZM542.744 161H538.744V165H542.744V161ZM616.188 77.924L612.61 76.1351L612.594 76.168L612.578 76.2011L616.188 77.924ZM616.532 66.572L612.799 68.0079L612.841 68.1189L612.891 68.2272L616.532 66.572ZM614.124 62.788L611.239 65.5581L611.267 65.5876L611.296 65.6164L614.124 62.788ZM567.856 58.488V54.488H563.856V58.488H567.856ZM567.856 85.492H563.856V89.492H567.856V85.492ZM619.284 132.964L616.884 129.764L616.856 129.785L616.828 129.807L619.284 132.964ZM619.112 114.044L616.436 117.017L616.453 117.032L616.47 117.047L619.112 114.044ZM567.856 109.4V105.4H563.856V109.4H567.856ZM567.856 136.576H563.856V140.576H567.856V136.576ZM542.744 38.236H600.192V30.236H542.744V38.236ZM600.192 38.236C613.532 38.236 623.269 41.9558 630.002 48.8905L635.742 43.3175C627.11 34.4282 615.06 30.236 600.192 30.236V38.236ZM630.044 48.9324C635.647 54.5354 638.504 61.627 638.504 70.528H646.504C646.504 59.7063 642.94 50.5152 635.701 43.2756L630.044 48.9324ZM638.504 70.528C638.504 80.2297 635.636 87.4154 630.268 92.5877L635.82 98.3483C643.066 91.3659 646.504 81.9249 646.504 70.528H638.504ZM630.811 98.7863C636.124 102.363 639.903 107.009 642.235 112.789L649.653 109.795C646.711 102.503 641.889 96.5997 635.278 92.1497L630.811 98.7863ZM642.279 112.895C643.601 115.917 644.352 119.862 644.352 124.88H652.352C652.352 119.119 651.498 114.006 649.609 109.689L642.279 112.895ZM644.352 124.88C644.352 132.371 642.341 138.467 638.49 143.404L644.798 148.324C649.892 141.794 652.352 133.901 652.352 124.88H644.352ZM638.483 143.413C634.751 148.226 629.057 151.964 621.035 154.424L623.381 162.072C632.559 159.257 639.823 154.74 644.805 148.315L638.483 143.413ZM620.868 154.479C616.268 156.115 610.389 157 603.116 157V165C610.979 165 617.828 164.051 623.548 162.017L620.868 154.479ZM603.116 157H542.744V165H603.116V157ZM546.744 161V34.236H538.744V161H546.744ZM600.192 89.492C609.157 89.492 616.43 86.7037 619.798 79.6469L612.578 76.2011C611.13 79.235 607.74 81.492 600.192 81.492V89.492ZM619.766 79.7128C620.885 77.4742 621.392 75.0116 621.392 72.42H613.392C613.392 73.9564 613.096 75.1631 612.61 76.1351L619.766 79.7128ZM621.392 72.42C621.392 69.6357 621.111 66.9801 620.174 64.9168L612.891 68.2272C613.099 68.6865 613.392 69.9296 613.392 72.42H621.392ZM620.265 65.1361C619.51 63.1728 618.416 61.4233 616.953 59.9596L611.296 65.6164C611.896 66.2167 612.407 66.9899 612.799 68.0079L620.265 65.1361ZM617.01 60.0179C613.236 56.0867 607.817 54.488 601.568 54.488V62.488C606.556 62.488 609.508 63.7559 611.239 65.5581L617.01 60.0179ZM601.568 54.488H567.856V62.488H601.568V54.488ZM563.856 58.488V85.492H571.856V58.488H563.856ZM567.856 89.492H600.192V81.492H567.856V89.492ZM604.664 140.576C611.643 140.576 617.6 139.342 621.74 136.121L616.828 129.807C614.776 131.402 610.987 132.576 604.664 132.576V140.576ZM621.684 136.164C625.62 133.212 627.412 128.882 627.412 123.848H619.412C619.412 126.84 618.453 128.588 616.884 129.764L621.684 136.164ZM627.412 123.848C627.412 118.752 625.533 114.366 621.755 111.041L616.47 117.047C618.424 118.767 619.412 120.918 619.412 123.848H627.412ZM621.788 111.071C617.297 107.029 610.797 105.4 603.116 105.4V113.4C609.883 113.4 614.047 114.867 616.436 117.017L621.788 111.071ZM603.116 105.4H567.856V113.4H603.116V105.4ZM563.856 109.4V136.576H571.856V109.4H563.856ZM567.856 140.576H604.664V132.576H567.856V140.576ZM669.917 34.236V30.236H665.917V34.236H669.917ZM766.409 34.236H770.409V30.236H766.409V34.236ZM766.409 58.66V62.66H770.409V58.66H766.409ZM695.029 58.66V54.66H691.029V58.66H695.029ZM695.029 85.148H691.029V89.148H695.029V85.148ZM746.801 85.148H750.801V81.148H746.801V85.148ZM746.801 109.916V113.916H750.801V109.916H746.801ZM695.029 109.916V105.916H691.029V109.916H695.029ZM695.029 136.404H691.029V140.404H695.029V136.404ZM766.409 136.404H770.409V132.404H766.409V136.404ZM766.409 161V165H770.409V161H766.409ZM669.917 161H665.917V165H669.917V161ZM669.917 38.236H766.409V30.236H669.917V38.236ZM762.409 34.236V58.66H770.409V34.236H762.409ZM766.409 54.66H695.029V62.66H766.409V54.66ZM691.029 58.66V85.148H699.029V58.66H691.029ZM695.029 89.148H746.801V81.148H695.029V89.148ZM742.801 85.148V109.916H750.801V85.148H742.801ZM746.801 105.916H695.029V113.916H746.801V105.916ZM691.029 109.916V136.404H699.029V109.916H691.029ZM695.029 140.404H766.409V132.404H695.029V140.404ZM762.409 136.404V161H770.409V136.404H762.409ZM766.409 157H669.917V165H766.409V157ZM673.917 161V34.236H665.917V161H673.917ZM787.851 34.236V30.236H783.851V34.236H787.851ZM881.075 45.416L883.778 42.4674L883.756 42.4478L883.735 42.4286L881.075 45.416ZM887.955 97.532L884.548 95.4356L884.542 95.445L884.537 95.4543L887.955 97.532ZM872.131 110.948L873.514 114.701L873.633 114.657L873.75 114.606L872.131 110.948ZM868.863 112.152L867.48 108.399L862.953 110.067L865.431 114.206L868.863 112.152ZM898.103 161V165H905.159L901.535 158.946L898.103 161ZM868.519 161L865.05 162.992L866.203 165H868.519V161ZM843.235 116.968L846.704 114.976L845.55 112.968H843.235V116.968ZM812.963 116.968V112.968H808.963V116.968H812.963ZM812.963 161V165H816.963V161H812.963ZM787.851 161H783.851V165H787.851V161ZM866.799 84.116L870.179 86.2546L870.24 86.1582L870.295 86.0586L866.799 84.116ZM863.187 63.476L865.814 60.4597L865.777 60.4273L865.739 60.3959L863.187 63.476ZM812.963 58.488V54.488H808.963V58.488H812.963ZM812.963 92.544H808.963V96.544H812.963V92.544ZM787.851 38.236H848.911V30.236H787.851V38.236ZM848.911 38.236C861.175 38.236 870.896 41.7089 878.415 48.4034L883.735 42.4286C874.512 34.2164 862.791 30.236 848.911 30.236V38.236ZM878.372 48.3646C885.677 55.0607 889.459 64.1295 889.459 76.032H897.459C897.459 62.2491 892.985 50.9073 883.778 42.4674L878.372 48.3646ZM889.459 76.032C889.459 83.8084 887.76 90.2171 884.548 95.4356L891.361 99.6284C895.489 92.9216 897.459 84.997 897.459 76.032H889.459ZM884.537 95.4543C881.456 100.523 876.851 104.484 870.512 107.29L873.75 114.606C881.4 111.22 887.345 106.237 891.373 99.6097L884.537 95.4543ZM870.748 107.195L867.48 108.399L870.246 115.905L873.514 114.701L870.748 107.195ZM865.431 114.206L894.671 163.054L901.535 158.946L872.295 110.098L865.431 114.206ZM898.103 157H868.519V165H898.103V157ZM871.988 159.008L846.704 114.976L839.766 118.96L865.05 162.992L871.988 159.008ZM843.235 112.968H812.963V120.968H843.235V112.968ZM808.963 116.968V161H816.963V116.968H808.963ZM812.963 157H787.851V165H812.963V157ZM791.851 161V34.236H783.851V161H791.851ZM846.503 96.544C857.117 96.544 865.57 93.5396 870.179 86.2546L863.419 81.9774C860.918 85.9298 855.841 88.544 846.503 88.544V96.544ZM870.295 86.0586C871.88 83.2068 872.519 79.7748 872.519 76.032H864.519C864.519 78.9399 864.011 80.8971 863.302 82.1734L870.295 86.0586ZM872.519 76.032C872.519 69.7546 870.351 64.4109 865.814 60.4597L860.56 66.4923C863.132 68.7331 864.519 71.7601 864.519 76.032H872.519ZM865.739 60.3959C860.829 56.3276 854.511 54.488 847.191 54.488V62.488C853.172 62.488 857.518 63.9737 860.635 66.5561L865.739 60.3959ZM847.191 54.488H812.963V62.488H847.191V54.488ZM808.963 58.488V92.544H816.963V58.488H808.963ZM812.963 96.544H846.503V88.544H812.963V96.544ZM91.0492 317.94L94.0478 315.293L94.0404 315.284L91.0492 317.94ZM91.0492 226.608L88.0774 223.931L88.0705 223.938L91.0492 226.608ZM172.749 218.696L170.474 221.986L170.493 221.999L170.511 222.011L172.749 218.696ZM193.045 245.012L194.698 248.654L198.13 247.097L196.78 243.579L193.045 245.012ZM170.685 255.16V259.16H171.55L172.338 258.802L170.685 255.16ZM170.513 255.16L166.837 256.736L167.876 259.16H170.513V255.16ZM168.965 251.548L165.281 253.107L165.285 253.115L165.289 253.124L168.965 251.548ZM157.441 237.444L155.206 240.761L155.214 240.767L155.222 240.772L157.441 237.444ZM121.149 235.208L119.541 231.545L121.149 235.208ZM109.453 243.464L106.48 240.788L106.472 240.797L106.464 240.807L109.453 243.464ZM109.453 300.912L106.423 303.523L106.426 303.526L109.453 300.912ZM157.441 307.104L155.239 303.765L155.213 303.782L155.188 303.799L157.441 307.104ZM168.965 293L165.263 291.485L165.252 291.512L165.241 291.54L168.965 293ZM170.513 289.216V285.216H167.828L166.811 287.701L170.513 289.216ZM170.685 289.216L172.361 285.584L171.564 285.216H170.685V289.216ZM193.045 299.536L196.757 301.028L198.176 297.498L194.721 295.904L193.045 299.536ZM172.749 325.852L175.041 329.131L175.052 329.123L175.062 329.115L172.749 325.852ZM136.285 333.032C118.366 333.032 104.434 327.057 94.0478 315.293L88.0507 320.587C100.139 334.279 116.365 341.032 136.285 341.032V333.032ZM94.0404 315.284C83.8707 303.83 78.7092 289.558 78.7092 272.188H70.7092C70.7092 291.282 76.441 307.511 88.058 320.596L94.0404 315.284ZM78.7092 272.188C78.7092 254.817 83.8706 240.611 94.028 229.278L88.0705 223.938C76.4412 236.914 70.7092 253.095 70.7092 272.188H78.7092ZM94.0211 229.285C104.655 217.481 118.612 211.516 136.285 211.516V203.516C116.577 203.516 100.377 210.279 88.0774 223.931L94.0211 229.285ZM136.285 211.516C149.031 211.516 160.387 215.011 170.474 221.986L175.024 215.406C163.554 207.475 150.601 203.516 136.285 203.516V211.516ZM170.511 222.011C178.938 227.699 185.217 235.78 189.311 246.445L196.78 243.579C192.159 231.54 184.908 222.077 174.987 215.381L170.511 222.011ZM191.392 241.37L169.032 251.518L172.338 258.802L194.698 248.654L191.392 241.37ZM170.685 251.16H170.513V259.16H170.685V251.16ZM174.19 253.584L172.642 249.972L165.289 253.124L166.837 256.736L174.19 253.584ZM172.649 249.989C169.836 243.34 165.5 238.009 159.66 234.116L155.222 240.772C159.702 243.759 163.049 247.831 165.281 253.107L172.649 249.989ZM159.677 234.127C153.687 230.091 146.818 228.112 139.209 228.112V236.112C145.361 236.112 150.646 237.688 155.206 240.761L159.677 234.127ZM139.209 228.112C131.537 228.112 124.918 229.185 119.541 231.545L122.757 238.871C126.783 237.103 132.204 236.112 139.209 236.112V228.112ZM119.541 231.545C114.377 233.813 109.996 236.882 106.48 240.788L112.426 246.14C115.103 243.166 118.519 240.731 122.757 238.871L119.541 231.545ZM106.464 240.807C99.2486 248.923 95.8212 259.522 95.8212 272.188H103.821C103.821 261.004 106.815 252.453 112.443 246.121L106.464 240.807ZM95.8212 272.188C95.8212 284.652 99.2622 295.211 106.423 303.523L112.484 298.301C106.802 291.706 103.821 283.116 103.821 272.188H95.8212ZM106.426 303.526C113.952 312.241 125.152 316.264 139.209 316.264V308.264C126.664 308.264 118.026 304.719 112.481 298.298L106.426 303.526ZM139.209 316.264C146.987 316.264 153.881 314.373 159.695 310.409L155.188 303.799C150.911 306.715 145.65 308.264 139.209 308.264V316.264ZM159.644 310.443C165.701 306.448 170.086 301.099 172.689 294.46L165.241 291.54C163.258 296.597 159.96 300.651 155.239 303.765L159.644 310.443ZM172.667 294.515L174.215 290.731L166.811 287.701L165.263 291.485L172.667 294.515ZM170.513 293.216H170.685V285.216H170.513V293.216ZM169.009 292.848L191.369 303.168L194.721 295.904L172.361 285.584L169.009 292.848ZM189.334 298.044C185.125 308.513 178.818 316.647 170.436 322.589L175.062 329.115C184.798 322.214 192.022 312.804 196.757 301.028L189.334 298.044ZM170.458 322.573C160.5 329.533 149.153 333.032 136.285 333.032V341.032C150.708 341.032 163.671 337.077 175.041 329.131L170.458 322.573ZM255.237 286.464H259.237V285.211L258.521 284.181L255.237 286.464ZM201.573 209.236V205.236H193.922L198.288 211.519L201.573 209.236ZM232.017 209.236L235.302 206.954L234.108 205.236H232.017V209.236ZM267.621 260.492L264.335 262.774L267.613 267.492L270.901 262.781L267.621 260.492ZM303.397 209.236V205.236H301.311L300.117 206.947L303.397 209.236ZM333.841 209.236L337.129 211.514L341.477 205.236H333.841V209.236ZM280.349 286.464L277.06 284.186L276.349 285.214V286.464H280.349ZM280.349 336V340H284.349V336H280.349ZM255.237 336H251.237V340H255.237V336ZM258.521 284.181L204.857 206.953L198.288 211.519L251.952 288.747L258.521 284.181ZM201.573 213.236H232.017V205.236H201.573V213.236ZM228.731 211.518L264.335 262.774L270.906 258.21L235.302 206.954L228.731 211.518ZM270.901 262.781L306.677 211.525L300.117 206.947L264.341 258.203L270.901 262.781ZM303.397 213.236H333.841V205.236H303.397V213.236ZM330.552 206.958L277.06 284.186L283.637 288.742L337.129 211.514L330.552 206.958ZM276.349 286.464V336H284.349V286.464H276.349ZM280.349 332H255.237V340H280.349V332ZM259.237 336V286.464H251.237V336H259.237ZM349.372 209.236V205.236H345.372V209.236H349.372ZM440.188 220.932L442.913 218.004L442.903 217.995L442.894 217.987L440.188 220.932ZM440.016 283.54L442.72 286.487L442.742 286.467L442.763 286.447L440.016 283.54ZM374.484 295.064V291.064H370.484V295.064H374.484ZM374.484 336V340H378.484V336H374.484ZM349.372 336H345.372V340H349.372V336ZM422.472 265.996L425.204 268.917L425.228 268.895L425.252 268.872L422.472 265.996ZM422.472 238.476L419.739 241.397L419.742 241.4L422.472 238.476ZM374.484 233.488V229.488H370.484V233.488H374.484ZM374.484 270.984H370.484V274.984H374.484V270.984ZM349.372 213.236H406.992V205.236H349.372V213.236ZM406.992 213.236C419.83 213.236 429.867 216.88 437.481 223.877L442.894 217.987C433.538 209.389 421.444 205.236 406.992 205.236V213.236ZM437.463 223.86C444.774 230.664 448.572 239.909 448.572 252.064H456.572C456.572 238.075 452.113 226.566 442.913 218.004L437.463 223.86ZM448.572 252.064C448.572 264.199 444.728 273.582 437.268 280.633L442.763 286.447C452.045 277.674 456.572 266.073 456.572 252.064H448.572ZM437.311 280.593C429.821 287.467 419.848 291.064 406.992 291.064V299.064C421.426 299.064 433.469 294.978 442.72 286.487L437.311 280.593ZM406.992 291.064H374.484V299.064H406.992V291.064ZM370.484 295.064V336H378.484V295.064H370.484ZM374.484 332H349.372V340H374.484V332ZM353.372 336V209.236H345.372V336H353.372ZM406.132 274.984C413.982 274.984 420.609 273.216 425.204 268.917L419.739 263.075C417.225 265.426 412.959 266.984 406.132 266.984V274.984ZM425.252 268.872C429.639 264.631 431.632 258.911 431.632 252.236H423.632C423.632 257.257 422.184 260.711 419.692 263.12L425.252 268.872ZM431.632 252.236C431.632 245.48 429.656 239.71 425.201 235.552L419.742 241.4C422.167 243.663 423.632 247.067 423.632 252.236H431.632ZM425.204 235.555C420.609 231.256 413.982 229.488 406.132 229.488V237.488C412.959 237.488 417.225 239.046 419.739 241.397L425.204 235.555ZM406.132 229.488H374.484V237.488H406.132V229.488ZM370.484 233.488V270.984H378.484V233.488H370.484ZM374.484 274.984H406.132V266.984H374.484V274.984ZM470.665 209.236V205.236H466.665V209.236H470.665ZM495.777 209.236H499.777V205.236H495.777V209.236ZM495.777 260.148H491.777V264.148H495.777V260.148ZM550.473 260.148V264.148H554.473V260.148H550.473ZM550.473 209.236V205.236H546.473V209.236H550.473ZM575.413 209.236H579.413V205.236H575.413V209.236ZM575.413 336V340H579.413V336H575.413ZM550.473 336H546.473V340H550.473V336ZM550.473 284.916H554.473V280.916H550.473V284.916ZM495.777 284.916V280.916H491.777V284.916H495.777ZM495.777 336V340H499.777V336H495.777ZM470.665 336H466.665V340H470.665V336ZM470.665 213.236H495.777V205.236H470.665V213.236ZM491.777 209.236V260.148H499.777V209.236H491.777ZM495.777 264.148H550.473V256.148H495.777V264.148ZM554.473 260.148V209.236H546.473V260.148H554.473ZM550.473 213.236H575.413V205.236H550.473V213.236ZM571.413 209.236V336H579.413V209.236H571.413ZM575.413 332H550.473V340H575.413V332ZM554.473 336V284.916H546.473V336H554.473ZM550.473 280.916H495.777V288.916H550.473V280.916ZM491.777 284.916V336H499.777V284.916H491.777ZM495.777 332H470.665V340H495.777V332ZM474.665 336V209.236H466.665V336H474.665ZM603.717 209.236V205.236H599.717V209.236H603.717ZM700.209 209.236H704.209V205.236H700.209V209.236ZM700.209 233.66V237.66H704.209V233.66H700.209ZM628.829 233.66V229.66H624.829V233.66H628.829ZM628.829 260.148H624.829V264.148H628.829V260.148ZM680.601 260.148H684.601V256.148H680.601V260.148ZM680.601 284.916V288.916H684.601V284.916H680.601ZM628.829 284.916V280.916H624.829V284.916H628.829ZM628.829 311.404H624.829V315.404H628.829V311.404ZM700.209 311.404H704.209V307.404H700.209V311.404ZM700.209 336V340H704.209V336H700.209ZM603.717 336H599.717V340H603.717V336ZM603.717 213.236H700.209V205.236H603.717V213.236ZM696.209 209.236V233.66H704.209V209.236H696.209ZM700.209 229.66H628.829V237.66H700.209V229.66ZM624.829 233.66V260.148H632.829V233.66H624.829ZM628.829 264.148H680.601V256.148H628.829V264.148ZM676.601 260.148V284.916H684.601V260.148H676.601ZM680.601 280.916H628.829V288.916H680.601V280.916ZM624.829 284.916V311.404H632.829V284.916H624.829ZM628.829 315.404H700.209V307.404H628.829V315.404ZM696.209 311.404V336H704.209V311.404H696.209ZM700.209 332H603.717V340H700.209V332ZM607.717 336V209.236H599.717V336H607.717ZM721.651 209.236V205.236H717.651V209.236H721.651ZM814.875 220.416L817.578 217.467L817.557 217.448L817.535 217.429L814.875 220.416ZM821.755 272.532L818.348 270.436L818.343 270.445L818.337 270.454L821.755 272.532ZM805.931 285.948L807.314 289.701L807.433 289.657L807.55 289.606L805.931 285.948ZM802.663 287.152L801.28 283.399L796.753 285.067L799.231 289.206L802.663 287.152ZM831.903 336V340H838.959L835.335 333.946L831.903 336ZM802.319 336L798.85 337.992L800.003 340H802.319V336ZM777.035 291.968L780.504 289.976L779.351 287.968H777.035V291.968ZM746.763 291.968V287.968H742.763V291.968H746.763ZM746.763 336V340H750.763V336H746.763ZM721.651 336H717.651V340H721.651V336ZM800.599 259.116L803.979 261.255L804.04 261.158L804.096 261.059L800.599 259.116ZM796.987 238.476L799.614 235.46L799.577 235.427L799.539 235.396L796.987 238.476ZM746.763 233.488V229.488H742.763V233.488H746.763ZM746.763 267.544H742.763V271.544H746.763V267.544ZM721.651 213.236H782.711V205.236H721.651V213.236ZM782.711 213.236C794.975 213.236 804.697 216.709 812.215 223.403L817.535 217.429C808.312 209.216 796.591 205.236 782.711 205.236V213.236ZM812.172 223.365C819.477 230.061 823.259 239.13 823.259 251.032H831.259C831.259 237.249 826.785 225.907 817.578 217.467L812.172 223.365ZM823.259 251.032C823.259 258.808 821.56 265.217 818.348 270.436L825.162 274.628C829.289 267.922 831.259 259.997 831.259 251.032H823.259ZM818.337 270.454C815.256 275.523 810.651 279.484 804.312 282.29L807.55 289.606C815.2 286.22 821.145 281.237 825.173 274.61L818.337 270.454ZM804.548 282.195L801.28 283.399L804.046 290.905L807.314 289.701L804.548 282.195ZM799.231 289.206L828.471 338.054L835.335 333.946L806.095 285.098L799.231 289.206ZM831.903 332H802.319V340H831.903V332ZM805.788 334.008L780.504 289.976L773.566 293.96L798.85 337.992L805.788 334.008ZM777.035 287.968H746.763V295.968H777.035V287.968ZM742.763 291.968V336H750.763V291.968H742.763ZM746.763 332H721.651V340H746.763V332ZM725.651 336V209.236H717.651V336H725.651ZM780.303 271.544C790.917 271.544 799.37 268.54 803.979 261.255L797.219 256.977C794.718 260.93 789.641 263.544 780.303 263.544V271.544ZM804.096 261.059C805.68 258.207 806.319 254.775 806.319 251.032H798.319C798.319 253.94 797.811 255.897 797.102 257.173L804.096 261.059ZM806.319 251.032C806.319 244.755 804.151 239.411 799.614 235.46L794.36 241.492C796.933 243.733 798.319 246.76 798.319 251.032H806.319ZM799.539 235.396C794.629 231.328 788.311 229.488 780.991 229.488V237.488C786.972 237.488 791.318 238.974 794.435 241.556L799.539 235.396ZM780.991 229.488H746.763V237.488H780.991V229.488ZM742.763 233.488V267.544H750.763V233.488H742.763ZM746.763 271.544H780.303V263.544H746.763V271.544ZM899.971 304.008L896.654 301.771L896.653 301.774L899.971 304.008ZM913.043 289.56L910.5 286.472L910.456 286.508L910.413 286.546L913.043 289.56ZM929.211 277.52L931.393 280.872L931.427 280.85L931.46 280.828L929.211 277.52ZM944.347 266.856L946.719 270.076L946.753 270.052L946.785 270.026L944.347 266.856ZM955.355 256.364L952.327 253.75L952.283 253.801L952.241 253.853L955.355 256.364ZM954.151 236.756L956.801 233.76L956.757 233.721L956.711 233.683L954.151 236.756ZM923.707 236.412L921.465 233.099L921.375 233.16L921.289 233.225L923.707 236.412ZM917.687 247.248L921.632 247.906L921.639 247.866L921.644 247.827L917.687 247.248ZM916.827 252.408V256.408H920.215L920.772 253.066L916.827 252.408ZM892.059 252.408L888.081 251.989L887.615 256.408H892.059V252.408ZM892.747 245.872L896.725 246.291L896.728 246.262L896.73 246.234L892.747 245.872ZM907.539 218.18L905.04 215.057L905.03 215.064L907.539 218.18ZM971.523 219.04L974.224 216.09L974.203 216.071L974.183 216.053L971.523 219.04ZM978.403 265.824L981.742 268.025L981.763 267.994L981.783 267.963L978.403 265.824ZM966.191 280.1L968.777 283.151L968.846 283.093L968.912 283.031L966.191 280.1ZM950.883 291.968L953.101 295.296L953.137 295.273L953.171 295.249L950.883 291.968ZM936.263 302.288L938.579 305.549L938.601 305.533L938.623 305.518L936.263 302.288ZM925.599 311.404L922.659 308.691L916.463 315.404H925.599V311.404ZM983.391 311.404H987.391V307.404H983.391V311.404ZM983.391 336V340H987.391V336H983.391ZM894.295 336H890.295V340H894.295V336ZM898.295 322.928C898.295 316.702 899.964 311.178 903.288 306.242L896.653 301.774C892.409 308.075 890.295 315.165 890.295 322.928H898.295ZM903.287 306.245C906.384 301.653 910.494 297.092 915.672 292.574L910.413 286.546C904.813 291.431 900.208 296.502 896.654 301.771L903.287 306.245ZM915.585 292.648C921.349 287.901 926.617 283.982 931.393 280.872L927.028 274.168C921.943 277.479 916.432 281.587 910.5 286.472L915.585 292.648ZM931.46 280.828C937.224 276.908 942.312 273.324 946.719 270.076L941.974 263.636C937.667 266.81 932.664 270.335 926.961 274.212L931.46 280.828ZM946.785 270.026C951.452 266.437 955.364 262.725 958.468 258.875L952.241 253.853C949.612 257.112 946.186 260.395 941.908 263.686L946.785 270.026ZM958.382 258.978C961.136 255.789 962.623 252.069 962.623 247.936H954.623C954.623 249.995 953.931 251.893 952.327 253.75L958.382 258.978ZM962.623 247.936C962.623 242.236 960.819 237.314 956.801 233.76L951.5 239.752C953.445 241.472 954.623 244.004 954.623 247.936H962.623ZM956.711 233.683C952.297 230.004 946.318 228.456 939.359 228.456V236.456C945.242 236.456 949.124 237.774 951.59 239.829L956.711 233.683ZM939.359 228.456C932.324 228.456 926.237 229.871 921.465 233.099L925.948 239.725C928.973 237.678 933.321 236.456 939.359 236.456V228.456ZM921.289 233.225C917.011 236.471 914.546 241.086 913.729 246.669L921.644 247.827C922.203 244.008 923.752 241.399 926.124 239.599L921.289 233.225ZM913.741 246.59L912.881 251.75L920.772 253.066L921.632 247.906L913.741 246.59ZM916.827 248.408H892.059V256.408H916.827V248.408ZM896.037 252.827L896.725 246.291L888.769 245.453L888.081 251.989L896.037 252.827ZM896.73 246.234C897.665 235.955 902.068 227.721 910.047 221.296L905.03 215.064C895.351 222.858 889.893 233.085 888.763 245.51L896.73 246.234ZM910.037 221.303C917.861 215.045 927.277 211.86 938.499 211.86V203.86C925.641 203.86 914.417 207.555 905.04 215.057L910.037 221.303ZM938.499 211.86C951.386 211.86 961.376 215.361 968.863 222.027L974.183 216.053C964.928 207.812 952.901 203.86 938.499 203.86V211.86ZM968.822 221.99C976.064 228.62 979.735 237.204 979.735 248.108H987.735C987.735 235.162 983.264 224.366 974.224 216.09L968.822 221.99ZM979.735 248.108C979.735 253.487 978.203 258.657 975.022 263.685L981.783 267.963C985.711 261.753 987.735 255.113 987.735 248.108H979.735ZM975.063 263.623C971.928 268.379 968.071 272.896 963.469 277.169L968.912 283.031C973.943 278.36 978.226 273.36 981.742 268.025L975.063 263.623ZM963.604 277.049C958.411 281.452 953.408 285.329 948.594 288.688L953.171 295.249C958.219 291.727 963.421 287.692 968.777 283.151L963.604 277.049ZM948.664 288.64C944.812 291.208 939.887 294.685 933.903 299.058L938.623 305.518C944.564 301.176 949.385 297.774 953.101 295.296L948.664 288.64ZM933.946 299.027C929.429 302.236 925.648 305.454 922.659 308.691L928.538 314.117C931.054 311.392 934.381 308.532 938.579 305.549L933.946 299.027ZM925.599 315.404H983.391V307.404H925.599V315.404ZM979.391 311.404V336H987.391V311.404H979.391ZM983.391 332H894.295V340H983.391V332ZM898.295 336V322.928H890.295V336H898.295ZM1000.04 305.728V301.728H996.042V305.728H1000.04ZM1028.08 305.728H1032.08V301.728H1028.08V305.728ZM1028.08 336V340H1032.08V336H1028.08ZM1000.04 336H996.042V340H1000.04V336ZM1000.04 309.728H1028.08V301.728H1000.04V309.728ZM1024.08 305.728V336H1032.08V305.728H1024.08ZM1028.08 332H1000.04V340H1028.08V332ZM1004.04 336V305.728H996.042V336H1004.04ZM1052.87 318.284L1049.36 320.188L1049.36 320.201L1049.37 320.213L1052.87 318.284ZM1052.87 226.264L1056.39 228.168L1052.87 226.264ZM1126.32 228.844L1129.83 226.923L1129.82 226.911L1129.81 226.899L1126.32 228.844ZM1124.94 318.284L1121.44 316.355L1121.43 316.367L1121.42 316.38L1124.94 318.284ZM1101.55 307.448L1104.14 310.498L1104.16 310.476L1104.19 310.453L1101.55 307.448ZM1109.12 287.668L1105.15 287.139L1105.15 287.15L1105.15 287.16L1109.12 287.668ZM1104.47 240.54L1107.99 238.637L1107.99 238.623L1107.98 238.61L1104.47 240.54ZM1073.34 240.54L1076.86 242.447L1076.87 242.431L1076.88 242.415L1073.34 240.54ZM1073.34 304.008L1076.83 302.047L1076.81 302.022L1076.8 301.996L1073.34 304.008ZM1088.99 333.032C1072.9 333.032 1062.4 327.292 1056.38 316.355L1049.37 320.213C1057.11 334.274 1070.69 341.032 1088.99 341.032V333.032ZM1056.39 316.38C1050.02 304.608 1046.73 289.938 1046.73 272.188H1038.73C1038.73 290.902 1042.2 306.962 1049.36 320.188L1056.39 316.38ZM1046.73 272.188C1046.73 254.557 1050.02 239.943 1056.39 228.168L1049.36 224.36C1042.2 237.582 1038.73 253.584 1038.73 272.188H1046.73ZM1056.39 228.168C1062.31 217.235 1072.64 211.516 1088.48 211.516V203.516C1070.38 203.516 1056.97 210.295 1049.36 224.36L1056.39 228.168ZM1088.48 211.516C1096.58 211.516 1103.36 213.176 1108.96 216.333C1114.55 219.482 1119.18 224.242 1122.82 230.789L1129.81 226.899C1125.54 219.227 1119.91 213.324 1112.89 209.363C1105.88 205.41 1097.69 203.516 1088.48 203.516V211.516ZM1122.81 230.765C1128.34 240.863 1131.26 254.575 1131.26 272.188H1139.26C1139.26 253.796 1136.22 238.611 1129.83 226.923L1122.81 230.765ZM1131.26 272.188C1131.26 289.929 1127.91 304.589 1121.44 316.355L1128.45 320.213C1135.73 306.981 1139.26 290.911 1139.26 272.188H1131.26ZM1121.42 316.38C1115.52 327.293 1105.09 333.032 1088.99 333.032V341.032C1107.3 341.032 1120.84 334.272 1128.46 320.188L1121.42 316.38ZM1088.31 316.264C1094.28 316.264 1099.62 314.333 1104.14 310.498L1098.96 304.398C1095.91 306.984 1092.42 308.264 1088.31 308.264V316.264ZM1104.19 310.453C1109.15 306.098 1111.8 298.195 1113.09 288.175L1105.15 287.16C1103.91 296.863 1101.52 302.148 1098.91 304.443L1104.19 310.453ZM1113.08 288.197C1113.79 282.863 1114.15 277.526 1114.15 272.188H1106.15C1106.15 277.17 1105.82 282.153 1105.15 287.139L1113.08 288.197ZM1114.15 272.188C1114.15 257.861 1112.25 246.509 1107.99 238.637L1100.96 242.443C1104.27 248.56 1106.15 258.307 1106.15 272.188H1114.15ZM1107.98 238.61C1104.08 231.53 1097.45 228.112 1088.99 228.112V236.112C1094.98 236.112 1098.68 238.313 1100.97 242.47L1107.98 238.61ZM1088.99 228.112C1080.37 228.112 1073.62 231.488 1069.81 238.665L1076.88 242.415C1079.03 238.355 1082.71 236.112 1088.99 236.112V228.112ZM1069.83 238.633C1065.67 246.297 1063.84 257.671 1063.84 272.188H1071.84C1071.84 258.038 1073.68 248.314 1076.86 242.447L1069.83 238.633ZM1063.84 272.188C1063.84 287.206 1065.65 298.738 1069.89 306.02L1076.8 301.996C1073.7 296.665 1071.84 286.983 1071.84 272.188H1063.84ZM1069.86 305.969C1073.73 312.864 1080.14 316.264 1088.31 316.264V308.264C1082.71 308.264 1079.14 306.16 1076.83 302.047L1069.86 305.969Z" fill="black" fill-opacity="0.3"/>
<defs>
<linearGradient id="paint0_linear_69_2" x1="9.48607" y1="180" x2="1094.65" y2="-173.798" gradientUnits="userSpaceOnUse">
<stop stop-color="#F24D56"/>
<stop offset="0.509216" stop-color="#EE0C77"/>
<stop offset="0.964829" stop-color="#F24D56"/>
</linearGradient>
</defs>
</svg>
