<svg width="1053" height="126" viewBox="0 0 1053 126" fill="none" xmlns="http://www.w3.org/2000/svg">
<path d="M17.1894 99.98L20.188 97.3326L20.1806 97.3243L17.1894 99.98ZM17.1894 34.136L14.2175 31.4586L14.2106 31.4664L17.1894 34.136ZM76.0894 28.432L73.8144 31.722L73.8329 31.7348L73.8515 31.7474L76.0894 28.432ZM90.7214 47.404L92.3745 51.0464L95.8062 49.4889L94.4558 45.9706L90.7214 47.404ZM74.6014 54.72V58.72H75.4666L76.2545 58.3624L74.6014 54.72ZM74.4774 54.72L70.8008 56.2957L71.8398 58.72H74.4774V54.72ZM73.3614 52.116L69.6775 53.6746L69.6812 53.6831L69.6848 53.6917L73.3614 52.116ZM65.0534 41.948L62.818 45.2651L62.8263 45.2707L62.8346 45.2762L65.0534 41.948ZM38.8894 40.336L37.2814 36.6734L38.8894 40.336ZM30.4574 46.288L27.4842 43.6121L27.476 43.6213L27.4678 43.6305L30.4574 46.288ZM30.4574 87.704L27.427 90.3148L27.4301 90.3185L30.4574 87.704ZM65.0534 92.168L62.851 88.8289L62.8254 88.8458L62.8001 88.8631L65.0534 92.168ZM73.3614 82L69.6592 80.4855L69.6482 80.5125L69.6375 80.5396L73.3614 82ZM74.4774 79.272V75.272H71.792L70.7752 77.7575L74.4774 79.272ZM74.6014 79.272L76.2776 75.6402L75.48 75.272H74.6014V79.272ZM90.7214 86.712L94.4327 88.2042L95.8518 84.6744L92.3976 83.0802L90.7214 86.712ZM76.0894 105.684L78.3809 108.963L78.3918 108.955L78.4026 108.947L76.0894 105.684ZM49.8014 109.744C37.1621 109.744 27.4381 105.545 20.188 97.3326L14.1908 102.627C23.1433 112.767 35.1607 117.744 49.8014 117.744V109.744ZM20.1806 97.3243C13.0509 89.294 9.4094 79.2783 9.4094 66.996H1.4094C1.4094 81.0017 5.62121 92.9753 14.1982 102.636L20.1806 97.3243ZM9.4094 66.996C9.4094 54.7132 13.0508 44.7472 20.1682 36.8056L14.2106 31.4664C5.62137 41.0502 1.4094 52.9908 1.4094 66.996H9.4094ZM20.1612 36.8133C27.5954 28.5615 37.3445 24.372 49.8014 24.372V16.372C35.309 16.372 23.3168 21.3585 14.2176 31.4587L20.1612 36.8133ZM49.8014 24.372C58.7713 24.372 66.7351 26.8267 73.8144 31.722L78.3644 25.142C69.9024 19.2906 60.3408 16.372 49.8014 16.372V24.372ZM73.8515 31.7474C79.7178 35.7071 84.1093 41.3402 86.9871 48.8374L94.4558 45.9706C91.0508 37.0998 85.6877 30.0849 78.3273 25.1166L73.8515 31.7474ZM89.0683 43.7616L72.9483 51.0776L76.2545 58.3624L92.3745 51.0464L89.0683 43.7616ZM74.6014 50.72H74.4774V58.72H74.6014V50.72ZM78.154 53.1443L77.038 50.5403L69.6848 53.6917L70.8008 56.2957L78.154 53.1443ZM77.0453 50.5574C74.936 45.5718 71.6727 41.5534 67.2722 38.6198L62.8346 45.2762C65.8741 47.3026 68.1495 50.0629 69.6775 53.6746L77.0453 50.5574ZM67.2888 38.6309C62.7713 35.5865 57.5978 34.104 51.9094 34.104V42.104C56.141 42.104 59.7302 43.1841 62.818 45.2651L67.2888 38.6309ZM51.9094 34.104C46.285 34.104 41.3462 34.8889 37.2814 36.6734L40.4974 43.9986C43.2113 42.8071 46.9525 42.104 51.9094 42.104V34.104ZM37.2814 36.6734C33.4294 38.3646 30.1358 40.6659 27.4842 43.6121L33.4306 48.9639C35.243 46.9501 37.5707 45.2834 40.4974 43.9986L37.2814 36.6734ZM27.4678 43.6305C22.0447 49.7315 19.5134 57.6578 19.5134 66.996H27.5134C27.5134 59.1396 29.6114 53.2605 33.447 48.9454L27.4678 43.6305ZM19.5134 66.996C19.5134 76.1963 22.0583 84.0834 27.427 90.3148L33.4878 85.0932C29.5978 80.5779 27.5134 74.6597 27.5134 66.996H19.5134ZM27.4301 90.3185C33.1325 96.9212 41.564 99.888 51.9094 99.888V91.888C43.0761 91.888 37.2063 89.3988 33.4847 85.0895L27.4301 90.3185ZM51.9094 99.888C57.7031 99.888 62.9014 98.4766 67.3068 95.4729L62.8001 88.8631C59.9307 90.8194 56.3664 91.888 51.9094 91.888V99.888ZM67.2558 95.5071C71.8095 92.5036 75.1219 88.467 77.0853 83.4604L69.6375 80.5396C68.2942 83.965 66.068 86.7071 62.851 88.8289L67.2558 95.5071ZM77.0636 83.5145L78.1796 80.7865L70.7752 77.7575L69.6592 80.4855L77.0636 83.5145ZM74.4774 83.272H74.6014V75.272H74.4774V83.272ZM72.9252 82.9038L89.0452 90.3438L92.3976 83.0802L76.2776 75.6402L72.9252 82.9038ZM87.0101 85.2198C84.0487 92.5854 79.6305 98.2709 73.7762 102.421L78.4026 108.947C85.6097 103.838 90.9461 96.876 94.4327 88.2042L87.0101 85.2198ZM73.7979 102.405C66.8157 107.285 58.8615 109.744 49.8014 109.744V117.744C60.416 117.744 69.9871 114.829 78.3809 108.963L73.7979 102.405ZM135.557 77.288H139.557V76.0347L138.842 75.0055L135.557 77.288ZM96.8691 21.612V17.612H89.2187L93.5843 23.8945L96.8691 21.612ZM118.817 21.612L122.102 19.33L120.909 17.612H118.817V21.612ZM144.485 58.564L141.2 60.846L144.477 65.564L147.765 60.8534L144.485 58.564ZM170.277 21.612V17.612H168.191L166.997 19.3226L170.277 21.612ZM192.225 21.612L195.513 23.8896L199.862 17.612H192.225V21.612ZM153.661 77.288L150.373 75.0104L149.661 76.038V77.288H153.661ZM153.661 113V117H157.661V113H153.661ZM135.557 113H131.557V117H135.557V113ZM138.842 75.0055L100.154 19.3295L93.5843 23.8945L132.272 79.5705L138.842 75.0055ZM96.8691 25.612H118.817V17.612H96.8691V25.612ZM115.532 23.894L141.2 60.846L147.77 56.282L122.102 19.33L115.532 23.894ZM147.765 60.8534L173.557 23.9014L166.997 19.3226L141.205 56.2746L147.765 60.8534ZM170.277 25.612H192.225V17.612H170.277V25.612ZM188.937 19.3344L150.373 75.0104L156.949 79.5656L195.513 23.8896L188.937 19.3344ZM149.661 77.288V113H157.661V77.288H149.661ZM153.661 109H135.557V117H153.661V109ZM139.557 113V77.288H131.557V113H139.557ZM203.422 21.612V17.612H199.422V21.612H203.422ZM268.398 30.168L265.528 32.9545L265.549 32.9756L265.569 32.9964L268.398 30.168ZM268.522 65.756L265.746 62.8757L262.182 66.3104L266.288 69.0743L268.522 65.756ZM277.822 77.164L274.113 78.6608L274.134 78.7143L274.157 78.7673L277.822 77.164ZM274.722 102.088L271.568 99.6279L271.561 99.6367L274.722 102.088ZM260.71 111.016L259.537 107.192L259.453 107.218L259.37 107.247L260.71 111.016ZM203.422 113H199.422V117H203.422V113ZM256.37 53.108L252.792 51.3191L252.776 51.352L252.76 51.3851L256.37 53.108ZM256.618 44.924L252.885 46.3599L252.927 46.4709L252.976 46.5792L256.618 44.924ZM254.882 42.196L251.996 44.9661L252.025 44.9956L252.053 45.0244L254.882 42.196ZM221.526 39.096V35.096H217.526V39.096H221.526ZM221.526 58.564H217.526V62.564H221.526V58.564ZM258.602 92.788L256.202 89.588L256.174 89.6091L256.146 89.6306L258.602 92.788ZM258.478 79.148L255.802 82.1212L255.819 82.1361L255.835 82.1509L258.478 79.148ZM221.526 75.8V71.8H217.526V75.8H221.526ZM221.526 95.392H217.526V99.392H221.526V95.392ZM203.422 25.612H244.838V17.612H203.422V25.612ZM244.838 25.612C254.242 25.612 260.939 28.2278 265.528 32.9545L271.268 27.3815C264.78 20.7002 255.77 17.612 244.838 17.612V25.612ZM265.569 32.9964C269.38 36.8074 271.342 41.627 271.342 47.776H279.342C279.342 39.7063 276.674 32.7872 271.226 27.3396L265.569 32.9964ZM271.342 47.776C271.342 54.5337 269.354 59.3994 265.746 62.8757L271.297 68.6363C276.783 63.3499 279.342 56.229 279.342 47.776H271.342ZM266.288 69.0743C269.938 71.5309 272.516 74.7052 274.113 78.6608L281.531 75.6672C279.325 70.1988 275.703 65.7677 270.755 62.4376L266.288 69.0743ZM274.157 78.7673C275.031 80.7646 275.558 83.4463 275.558 86.96H283.558C283.558 82.703 282.927 78.8541 281.487 75.5607L274.157 78.7673ZM275.558 86.96C275.558 92.1475 274.17 96.2913 271.568 99.6279L277.876 104.548C281.721 99.618 283.558 93.6765 283.558 86.96H275.558ZM271.561 99.6367C269.045 102.882 265.159 105.468 259.537 107.192L261.883 114.84C268.661 112.761 274.117 109.396 277.883 104.539L271.561 99.6367ZM259.37 107.247C256.21 108.371 252.107 109 246.946 109V117C252.697 117 257.77 116.307 262.05 114.785L259.37 107.247ZM246.946 109H203.422V117H246.946V109ZM207.422 113V21.612H199.422V113H207.422ZM244.838 62.564C251.498 62.564 257.284 60.4797 259.98 54.8309L252.76 51.3851C251.984 53.011 250.081 54.564 244.838 54.564V62.564ZM259.948 54.8968C260.843 53.1062 261.238 51.1556 261.238 49.14H253.238C253.238 50.1004 253.054 50.7951 252.792 51.3191L259.948 54.8968ZM261.238 49.14C261.238 47.0917 261.037 44.9801 260.259 43.2688L252.976 46.5792C252.973 46.5714 252.994 46.6166 253.025 46.7339C253.056 46.8499 253.092 47.0162 253.125 47.242C253.193 47.7 253.238 48.3234 253.238 49.14H261.238ZM260.351 43.4881C259.756 41.9408 258.886 40.5433 257.71 39.3676L252.053 45.0244C252.366 45.3367 252.653 45.7579 252.885 46.3599L260.351 43.4881ZM257.767 39.4259C254.762 36.2947 250.511 35.096 245.83 35.096V43.096C249.25 43.096 251.034 43.9639 251.996 44.9661L257.767 39.4259ZM245.83 35.096H221.526V43.096H245.83V35.096ZM217.526 39.096V58.564H225.526V39.096H217.526ZM221.526 62.564H244.838V54.564H221.526V62.564ZM248.062 99.392C253.185 99.392 257.782 98.4935 261.058 95.9454L256.146 89.6306C254.958 90.5545 252.528 91.392 248.062 91.392V99.392ZM261.002 95.988C264.169 93.6124 265.578 90.1304 265.578 86.216H257.578C257.578 88.0883 257.002 88.9876 256.202 89.588L261.002 95.988ZM265.578 86.216C265.578 82.2398 264.099 78.7661 261.12 76.1451L255.835 82.1509C256.99 83.1672 257.578 84.4056 257.578 86.216H265.578ZM261.154 76.1748C257.623 72.9967 252.611 71.8 246.946 71.8V79.8C251.697 79.8 254.373 80.8353 255.802 82.1212L261.154 76.1748ZM246.946 71.8H221.526V79.8H246.946V71.8ZM217.526 75.8V95.392H225.526V75.8H217.526ZM221.526 99.392H248.062V91.392H221.526V99.392ZM295.104 21.612V17.612H291.104V21.612H295.104ZM364.668 21.612H368.668V17.612H364.668V21.612ZM364.668 39.22V43.22H368.668V39.22H364.668ZM313.208 39.22V35.22H309.208V39.22H313.208ZM313.208 58.316H309.208V62.316H313.208V58.316ZM350.532 58.316H354.532V54.316H350.532V58.316ZM350.532 76.172V80.172H354.532V76.172H350.532ZM313.208 76.172V72.172H309.208V76.172H313.208ZM313.208 95.268H309.208V99.268H313.208V95.268ZM364.668 95.268H368.668V91.268H364.668V95.268ZM364.668 113V117H368.668V113H364.668ZM295.104 113H291.104V117H295.104V113ZM295.104 25.612H364.668V17.612H295.104V25.612ZM360.668 21.612V39.22H368.668V21.612H360.668ZM364.668 35.22H313.208V43.22H364.668V35.22ZM309.208 39.22V58.316H317.208V39.22H309.208ZM313.208 62.316H350.532V54.316H313.208V62.316ZM346.532 58.316V76.172H354.532V58.316H346.532ZM350.532 72.172H313.208V80.172H350.532V72.172ZM309.208 76.172V95.268H317.208V76.172H309.208ZM313.208 99.268H364.668V91.268H313.208V99.268ZM360.668 95.268V113H368.668V95.268H360.668ZM364.668 109H295.104V117H364.668V109ZM299.104 113V21.612H291.104V113H299.104ZM380.127 21.612V17.612H376.127V21.612H380.127ZM447.335 29.672L450.038 26.7234L450.016 26.7038L449.995 26.6846L447.335 29.672ZM452.295 67.244L448.888 65.1476L448.882 65.157L448.877 65.1663L452.295 67.244ZM440.887 76.916L442.27 80.6694L442.389 80.6253L442.506 80.5737L440.887 76.916ZM438.531 77.784L437.148 74.0306L432.621 75.6986L435.099 79.8384L438.531 77.784ZM459.611 113V117H466.667L463.043 110.946L459.611 113ZM438.283 113L434.814 114.992L435.967 117H438.283V113ZM420.055 81.256L423.524 79.2642L422.37 77.256H420.055V81.256ZM398.231 81.256V77.256H394.231V81.256H398.231ZM398.231 113V117H402.231V113H398.231ZM380.127 113H376.127V117H380.127V113ZM437.043 57.572L440.423 59.7106L440.484 59.6142L440.539 59.5146L437.043 57.572ZM434.439 42.692L437.066 39.6757L437.029 39.6433L436.991 39.6119L434.439 42.692ZM398.231 39.096V35.096H394.231V39.096H398.231ZM398.231 63.648H394.231V67.648H398.231V63.648ZM380.127 25.612H424.147V17.612H380.127V25.612ZM424.147 25.612C432.763 25.612 439.492 28.0449 444.675 32.6594L449.995 26.6846C443.108 20.5524 434.378 17.612 424.147 17.612V25.612ZM444.632 32.6206C449.633 37.2047 452.263 43.4255 452.263 51.744H460.263C460.263 41.5451 456.941 33.0513 450.038 26.7234L444.632 32.6206ZM452.263 51.744C452.263 57.1844 451.076 61.5931 448.888 65.1476L455.701 69.3404C458.805 64.2976 460.263 58.373 460.263 51.744H452.263ZM448.877 65.1663C446.788 68.6033 443.655 71.3164 439.268 73.2583L442.506 80.5737C448.204 78.0516 452.677 74.3167 455.713 69.3217L448.877 65.1663ZM439.504 73.1626L437.148 74.0306L439.914 81.5374L442.27 80.6694L439.504 73.1626ZM435.099 79.8384L456.179 115.054L463.043 110.946L441.963 75.7296L435.099 79.8384ZM459.611 109H438.283V117H459.611V109ZM441.752 111.008L423.524 79.2642L416.586 83.2478L434.814 114.992L441.752 111.008ZM420.055 77.256H398.231V85.256H420.055V77.256ZM394.231 81.256V113H402.231V81.256H394.231ZM398.231 109H380.127V117H398.231V109ZM384.127 113V21.612H376.127V113H384.127ZM422.411 67.648C430.241 67.648 436.806 65.4276 440.423 59.7106L433.662 55.4334C432.154 57.8178 428.965 59.648 422.411 59.648V67.648ZM440.539 59.5146C441.804 57.2388 442.283 54.5588 442.283 51.744H434.283C434.283 53.7239 433.935 54.9291 433.546 55.6294L440.539 59.5146ZM442.283 51.744C442.283 46.9386 440.61 42.7629 437.066 39.6757L431.812 45.7083C433.392 47.0851 434.283 48.9441 434.283 51.744H442.283ZM436.991 39.6119C433.201 36.4716 428.371 35.096 422.907 35.096V43.096C427.032 43.096 429.89 44.1177 431.887 45.7721L436.991 39.6119ZM422.907 35.096H398.231V43.096H422.907V35.096ZM394.231 39.096V63.648H402.231V39.096H394.231ZM398.231 67.648H422.411V59.648H398.231V67.648ZM513.519 99.98L516.517 97.3326L516.51 97.3243L513.519 99.98ZM513.519 34.136L510.547 31.4586L510.54 31.4664L513.519 34.136ZM572.419 28.432L570.144 31.722L570.162 31.7348L570.181 31.7474L572.419 28.432ZM587.051 47.404L588.704 51.0464L592.136 49.4889L590.785 45.9706L587.051 47.404ZM570.931 54.72V58.72H571.796L572.584 58.3624L570.931 54.72ZM570.807 54.72L567.13 56.2957L568.169 58.72H570.807V54.72ZM569.691 52.116L566.007 53.6746L566.011 53.6831L566.014 53.6917L569.691 52.116ZM561.383 41.948L559.147 45.2651L559.156 45.2707L559.164 45.2762L561.383 41.948ZM535.219 40.336L533.611 36.6734L535.219 40.336ZM526.787 46.288L523.814 43.6121L523.805 43.6213L523.797 43.6305L526.787 46.288ZM526.787 87.704L523.756 90.3148L523.759 90.3185L526.787 87.704ZM561.383 92.168L559.18 88.8289L559.155 88.8458L559.129 88.8631L561.383 92.168ZM569.691 82L565.989 80.4855L565.978 80.5125L565.967 80.5396L569.691 82ZM570.807 79.272V75.272H568.121L567.105 77.7575L570.807 79.272ZM570.931 79.272L572.607 75.6402L571.809 75.272H570.931V79.272ZM587.051 86.712L590.762 88.2042L592.181 84.6744L588.727 83.0802L587.051 86.712ZM572.419 105.684L574.71 108.963L574.721 108.955L574.732 108.947L572.419 105.684ZM546.131 109.744C533.492 109.744 523.768 105.545 516.517 97.3326L510.52 102.627C519.473 112.767 531.49 117.744 546.131 117.744V109.744ZM516.51 97.3243C509.38 89.294 505.739 79.2783 505.739 66.996H497.739C497.739 81.0017 501.951 92.9753 510.528 102.636L516.51 97.3243ZM505.739 66.996C505.739 54.7132 509.38 44.7472 516.498 36.8056L510.54 31.4664C501.951 41.0502 497.739 52.9908 497.739 66.996H505.739ZM516.491 36.8133C523.925 28.5615 533.674 24.372 546.131 24.372V16.372C531.638 16.372 519.646 21.3585 510.547 31.4587L516.491 36.8133ZM546.131 24.372C555.101 24.372 563.064 26.8267 570.144 31.722L574.694 25.142C566.232 19.2906 556.67 16.372 546.131 16.372V24.372ZM570.181 31.7474C576.047 35.7071 580.439 41.3402 583.316 48.8374L590.785 45.9706C587.38 37.0998 582.017 30.0849 574.657 25.1166L570.181 31.7474ZM585.398 43.7616L569.278 51.0776L572.584 58.3624L588.704 51.0464L585.398 43.7616ZM570.931 50.72H570.807V58.72H570.931V50.72ZM574.483 53.1443L573.367 50.5403L566.014 53.6917L567.13 56.2957L574.483 53.1443ZM573.375 50.5574C571.265 45.5718 568.002 41.5534 563.602 38.6198L559.164 45.2762C562.203 47.3026 564.479 50.0629 566.007 53.6746L573.375 50.5574ZM563.618 38.6309C559.101 35.5865 553.927 34.104 548.239 34.104V42.104C552.47 42.104 556.06 43.1841 559.147 45.2651L563.618 38.6309ZM548.239 34.104C542.614 34.104 537.676 34.8889 533.611 36.6734L536.827 43.9986C539.541 42.8071 543.282 42.104 548.239 42.104V34.104ZM533.611 36.6734C529.759 38.3646 526.465 40.6659 523.814 43.6121L529.76 48.9639C531.572 46.9501 533.9 45.2834 536.827 43.9986L533.611 36.6734ZM523.797 43.6305C518.374 49.7315 515.843 57.6578 515.843 66.996H523.843C523.843 59.1396 525.941 53.2605 529.776 48.9454L523.797 43.6305ZM515.843 66.996C515.843 76.1963 518.388 84.0834 523.756 90.3148L529.817 85.0932C525.927 80.5779 523.843 74.6597 523.843 66.996H515.843ZM523.759 90.3185C529.462 96.9212 537.893 99.888 548.239 99.888V91.888C539.406 91.888 533.536 89.3988 529.814 85.0895L523.759 90.3185ZM548.239 99.888C554.032 99.888 559.231 98.4766 563.636 95.4729L559.129 88.8631C556.26 90.8194 552.696 91.888 548.239 91.888V99.888ZM563.585 95.5071C568.139 92.5036 571.451 88.467 573.415 83.4604L565.967 80.5396C564.624 83.965 562.397 86.7071 559.18 88.8289L563.585 95.5071ZM573.393 83.5145L574.509 80.7865L567.105 77.7575L565.989 80.4855L573.393 83.5145ZM570.807 83.272H570.931V75.272H570.807V83.272ZM569.255 82.9038L585.375 90.3438L588.727 83.0802L572.607 75.6402L569.255 82.9038ZM583.34 85.2198C580.378 92.5854 575.96 98.2709 570.106 102.421L574.732 108.947C581.939 103.838 587.275 96.876 590.762 88.2042L583.34 85.2198ZM570.127 102.405C563.145 107.285 555.191 109.744 546.131 109.744V117.744C556.745 117.744 566.316 114.829 574.71 108.963L570.127 102.405ZM631.886 77.288H635.886V76.0347L635.171 75.0055L631.886 77.288ZM593.198 21.612V17.612H585.548L589.914 23.8945L593.198 21.612ZM615.146 21.612L618.432 19.33L617.238 17.612H615.146V21.612ZM640.815 58.564L637.529 60.846L640.807 65.564L644.095 60.8534L640.815 58.564ZM666.607 21.612V17.612H664.52L663.326 19.3226L666.607 21.612ZM688.555 21.612L691.843 23.8896L696.191 17.612H688.555V21.612ZM649.99 77.288L646.702 75.0104L645.99 76.038V77.288H649.99ZM649.99 113V117H653.99V113H649.99ZM631.886 113H627.886V117H631.886V113ZM635.171 75.0055L596.483 19.3295L589.914 23.8945L628.602 79.5705L635.171 75.0055ZM593.198 25.612H615.146V17.612H593.198V25.612ZM611.861 23.894L637.529 60.846L644.1 56.282L618.432 19.33L611.861 23.894ZM644.095 60.8534L669.887 23.9014L663.326 19.3226L637.534 56.2746L644.095 60.8534ZM666.607 25.612H688.555V17.612H666.607V25.612ZM685.266 19.3344L646.702 75.0104L653.279 79.5656L691.843 23.8896L685.266 19.3344ZM645.99 77.288V113H653.99V77.288H645.99ZM649.99 109H631.886V117H649.99V109ZM635.886 113V77.288H627.886V113H635.886ZM699.751 21.612V17.612H695.751V21.612H699.751ZM765.223 30.044L767.948 27.1157L767.939 27.1072L767.93 27.0987L765.223 30.044ZM765.099 75.18L767.804 78.1269L767.826 78.1071L767.847 78.0869L765.099 75.18ZM717.855 83.488V79.488H713.855V83.488H717.855ZM717.855 113V117H721.855V113H717.855ZM699.751 113H695.751V117H699.751V113ZM752.451 62.532L755.184 65.4531L755.208 65.4307L755.231 65.408L752.451 62.532ZM752.451 42.692L749.719 45.6131L749.722 45.6162L752.451 42.692ZM717.855 39.096V35.096H713.855V39.096H717.855ZM717.855 66.128H713.855V70.128H717.855V66.128ZM699.751 25.612H741.291V17.612H699.751V25.612ZM741.291 25.612C750.322 25.612 757.27 28.168 762.517 32.9893L767.93 27.0987C760.942 20.6773 751.935 17.612 741.291 17.612V25.612ZM762.498 32.9723C767.506 37.6318 770.151 43.9814 770.151 52.488H778.151C778.151 42.1466 774.845 33.5335 767.948 27.1157L762.498 32.9723ZM770.151 52.488C770.151 60.9751 767.476 67.4298 762.352 72.273L767.847 78.0869C774.792 71.5222 778.151 62.8489 778.151 52.488H770.151ZM762.395 72.2331C757.241 76.9632 750.34 79.488 741.291 79.488V87.488C751.918 87.488 760.888 84.4741 767.804 78.1269L762.395 72.2331ZM741.291 79.488H717.855V87.488H741.291V79.488ZM713.855 83.488V113H721.855V83.488H713.855ZM717.855 109H699.751V117H717.855V109ZM703.751 113V21.612H695.751V113H703.751ZM740.671 70.128C746.474 70.128 751.58 68.8242 755.184 65.4531L749.719 59.6109C748.197 61.0344 745.45 62.128 740.671 62.128V70.128ZM755.231 65.408C758.659 62.0948 760.171 57.6545 760.171 52.612H752.171C752.171 56.0015 751.204 58.1745 749.671 59.656L755.231 65.408ZM760.171 52.612C760.171 47.5195 758.676 43.0299 755.181 39.7678L749.722 45.6162C751.187 46.9834 752.171 49.1072 752.171 52.612H760.171ZM755.184 39.7709C751.58 36.3998 746.474 35.096 740.671 35.096V43.096C745.45 43.096 748.197 44.1896 749.719 45.6131L755.184 39.7709ZM740.671 35.096H717.855V43.096H740.671V35.096ZM713.855 39.096V66.128H721.855V39.096H713.855ZM717.855 70.128H740.671V62.128H717.855V70.128ZM787.195 21.612V17.612H783.195V21.612H787.195ZM805.299 21.612H809.299V17.612H805.299V21.612ZM805.299 58.316H801.299V62.316H805.299V58.316ZM844.732 58.316V62.316H848.732V58.316H844.732ZM844.732 21.612V17.612H840.732V21.612H844.732ZM862.711 21.612H866.711V17.612H862.711V21.612ZM862.711 113V117H866.711V113H862.711ZM844.732 113H840.732V117H844.732V113ZM844.732 76.172H848.732V72.172H844.732V76.172ZM805.299 76.172V72.172H801.299V76.172H805.299ZM805.299 113V117H809.299V113H805.299ZM787.195 113H783.195V117H787.195V113ZM787.195 25.612H805.299V17.612H787.195V25.612ZM801.299 21.612V58.316H809.299V21.612H801.299ZM805.299 62.316H844.732V54.316H805.299V62.316ZM848.732 58.316V21.612H840.732V58.316H848.732ZM844.732 25.612H862.711V17.612H844.732V25.612ZM858.711 21.612V113H866.711V21.612H858.711ZM862.711 109H844.732V117H862.711V109ZM848.732 113V76.172H840.732V113H848.732ZM844.732 72.172H805.299V80.172H844.732V72.172ZM801.299 76.172V113H809.299V76.172H801.299ZM805.299 109H787.195V117H805.299V109ZM791.195 113V21.612H783.195V113H791.195ZM883.116 21.612V17.612H879.116V21.612H883.116ZM952.68 21.612H956.68V17.612H952.68V21.612ZM952.68 39.22V43.22H956.68V39.22H952.68ZM901.22 39.22V35.22H897.22V39.22H901.22ZM901.22 58.316H897.22V62.316H901.22V58.316ZM938.544 58.316H942.544V54.316H938.544V58.316ZM938.544 76.172V80.172H942.544V76.172H938.544ZM901.22 76.172V72.172H897.22V76.172H901.22ZM901.22 95.268H897.22V99.268H901.22V95.268ZM952.68 95.268H956.68V91.268H952.68V95.268ZM952.68 113V117H956.68V113H952.68ZM883.116 113H879.116V117H883.116V113ZM883.116 25.612H952.68V17.612H883.116V25.612ZM948.68 21.612V39.22H956.68V21.612H948.68ZM952.68 35.22H901.22V43.22H952.68V35.22ZM897.22 39.22V58.316H905.22V39.22H897.22ZM901.22 62.316H938.544V54.316H901.22V62.316ZM934.544 58.316V76.172H942.544V58.316H934.544ZM938.544 72.172H901.22V80.172H938.544V72.172ZM897.22 76.172V95.268H905.22V76.172H897.22ZM901.22 99.268H952.68V91.268H901.22V99.268ZM948.68 95.268V113H956.68V95.268H948.68ZM952.68 109H883.116V117H952.68V109ZM887.116 113V21.612H879.116V113H887.116ZM968.139 21.612V17.612H964.139V21.612H968.139ZM1035.35 29.672L1038.05 26.7234L1038.03 26.7038L1038.01 26.6846L1035.35 29.672ZM1040.31 67.244L1036.9 65.1476L1036.89 65.157L1036.89 65.1663L1040.31 67.244ZM1028.9 76.916L1030.28 80.6694L1030.4 80.6253L1030.52 80.5737L1028.9 76.916ZM1026.54 77.784L1025.16 74.0306L1020.63 75.6986L1023.11 79.8384L1026.54 77.784ZM1047.62 113V117H1054.68L1051.05 110.946L1047.62 113ZM1026.29 113L1022.83 114.992L1023.98 117H1026.29V113ZM1008.07 81.256L1011.54 79.2642L1010.38 77.256H1008.07V81.256ZM986.243 81.256V77.256H982.243V81.256H986.243ZM986.243 113V117H990.243V113H986.243ZM968.139 113H964.139V117H968.139V113ZM1025.05 57.572L1028.43 59.7106L1028.5 59.6142L1028.55 59.5146L1025.05 57.572ZM1022.45 42.692L1025.08 39.6757L1025.04 39.6433L1025 39.6119L1022.45 42.692ZM986.243 39.096V35.096H982.243V39.096H986.243ZM986.243 63.648H982.243V67.648H986.243V63.648ZM968.139 25.612H1012.16V17.612H968.139V25.612ZM1012.16 25.612C1020.77 25.612 1027.5 28.0449 1032.69 32.6594L1038.01 26.6846C1031.12 20.5524 1022.39 17.612 1012.16 17.612V25.612ZM1032.64 32.6206C1037.64 37.2047 1040.27 43.4255 1040.27 51.744H1048.27C1048.27 41.5451 1044.95 33.0513 1038.05 26.7234L1032.64 32.6206ZM1040.27 51.744C1040.27 57.1844 1039.09 61.5931 1036.9 65.1476L1043.71 69.3404C1046.82 64.2976 1048.27 58.373 1048.27 51.744H1040.27ZM1036.89 65.1663C1034.8 68.6033 1031.67 71.3164 1027.28 73.2583L1030.52 80.5737C1036.22 78.0516 1040.69 74.3167 1043.72 69.3217L1036.89 65.1663ZM1027.52 73.1626L1025.16 74.0306L1027.93 81.5374L1030.28 80.6694L1027.52 73.1626ZM1023.11 79.8384L1044.19 115.054L1051.05 110.946L1029.97 75.7296L1023.11 79.8384ZM1047.62 109H1026.29V117H1047.62V109ZM1029.76 111.008L1011.54 79.2642L1004.6 83.2478L1022.83 114.992L1029.76 111.008ZM1008.07 77.256H986.243V85.256H1008.07V77.256ZM982.243 81.256V113H990.243V81.256H982.243ZM986.243 109H968.139V117H986.243V109ZM972.139 113V21.612H964.139V113H972.139ZM1010.42 67.648C1018.25 67.648 1024.82 65.4276 1028.43 59.7106L1021.67 55.4334C1020.17 57.8178 1016.98 59.648 1010.42 59.648V67.648ZM1028.55 59.5146C1029.82 57.2388 1030.29 54.5588 1030.29 51.744H1022.29C1022.29 53.7239 1021.95 54.9291 1021.56 55.6294L1028.55 59.5146ZM1030.29 51.744C1030.29 46.9386 1028.62 42.7629 1025.08 39.6757L1019.82 45.7083C1021.4 47.0851 1022.29 48.9441 1022.29 51.744H1030.29ZM1025 39.6119C1021.21 36.4716 1016.38 35.096 1010.92 35.096V43.096C1015.04 43.096 1017.9 44.1177 1019.9 45.7721L1025 39.6119ZM1010.92 35.096H986.243V43.096H1010.92V35.096ZM982.243 39.096V63.648H990.243V39.096H982.243ZM986.243 67.648H1010.42V59.648H986.243V67.648Z" fill="url(#paint0_linear_1_14)"/>
<path d="M17.1894 99.98L20.188 97.3326L20.1806 97.3243L17.1894 99.98ZM17.1894 34.136L14.2175 31.4586L14.2106 31.4664L17.1894 34.136ZM76.0894 28.432L73.8144 31.722L73.8329 31.7348L73.8515 31.7474L76.0894 28.432ZM90.7214 47.404L92.3745 51.0464L95.8062 49.4889L94.4558 45.9706L90.7214 47.404ZM74.6014 54.72V58.72H75.4666L76.2545 58.3624L74.6014 54.72ZM74.4774 54.72L70.8008 56.2957L71.8398 58.72H74.4774V54.72ZM73.3614 52.116L69.6775 53.6746L69.6812 53.6831L69.6848 53.6917L73.3614 52.116ZM65.0534 41.948L62.818 45.2651L62.8263 45.2707L62.8346 45.2762L65.0534 41.948ZM38.8894 40.336L37.2814 36.6734L38.8894 40.336ZM30.4574 46.288L27.4842 43.6121L27.476 43.6213L27.4678 43.6305L30.4574 46.288ZM30.4574 87.704L27.427 90.3148L27.4301 90.3185L30.4574 87.704ZM65.0534 92.168L62.851 88.8289L62.8254 88.8458L62.8001 88.8631L65.0534 92.168ZM73.3614 82L69.6592 80.4855L69.6482 80.5125L69.6375 80.5396L73.3614 82ZM74.4774 79.272V75.272H71.792L70.7752 77.7575L74.4774 79.272ZM74.6014 79.272L76.2776 75.6402L75.48 75.272H74.6014V79.272ZM90.7214 86.712L94.4327 88.2042L95.8518 84.6744L92.3976 83.0802L90.7214 86.712ZM76.0894 105.684L78.3809 108.963L78.3918 108.955L78.4026 108.947L76.0894 105.684ZM49.8014 109.744C37.1621 109.744 27.4381 105.545 20.188 97.3326L14.1908 102.627C23.1433 112.767 35.1607 117.744 49.8014 117.744V109.744ZM20.1806 97.3243C13.0509 89.294 9.4094 79.2783 9.4094 66.996H1.4094C1.4094 81.0017 5.62121 92.9753 14.1982 102.636L20.1806 97.3243ZM9.4094 66.996C9.4094 54.7132 13.0508 44.7472 20.1682 36.8056L14.2106 31.4664C5.62137 41.0502 1.4094 52.9908 1.4094 66.996H9.4094ZM20.1612 36.8133C27.5954 28.5615 37.3445 24.372 49.8014 24.372V16.372C35.309 16.372 23.3168 21.3585 14.2176 31.4587L20.1612 36.8133ZM49.8014 24.372C58.7713 24.372 66.7351 26.8267 73.8144 31.722L78.3644 25.142C69.9024 19.2906 60.3408 16.372 49.8014 16.372V24.372ZM73.8515 31.7474C79.7178 35.7071 84.1093 41.3402 86.9871 48.8374L94.4558 45.9706C91.0508 37.0998 85.6877 30.0849 78.3273 25.1166L73.8515 31.7474ZM89.0683 43.7616L72.9483 51.0776L76.2545 58.3624L92.3745 51.0464L89.0683 43.7616ZM74.6014 50.72H74.4774V58.72H74.6014V50.72ZM78.154 53.1443L77.038 50.5403L69.6848 53.6917L70.8008 56.2957L78.154 53.1443ZM77.0453 50.5574C74.936 45.5718 71.6727 41.5534 67.2722 38.6198L62.8346 45.2762C65.8741 47.3026 68.1495 50.0629 69.6775 53.6746L77.0453 50.5574ZM67.2888 38.6309C62.7713 35.5865 57.5978 34.104 51.9094 34.104V42.104C56.141 42.104 59.7302 43.1841 62.818 45.2651L67.2888 38.6309ZM51.9094 34.104C46.285 34.104 41.3462 34.8889 37.2814 36.6734L40.4974 43.9986C43.2113 42.8071 46.9525 42.104 51.9094 42.104V34.104ZM37.2814 36.6734C33.4294 38.3646 30.1358 40.6659 27.4842 43.6121L33.4306 48.9639C35.243 46.9501 37.5707 45.2834 40.4974 43.9986L37.2814 36.6734ZM27.4678 43.6305C22.0447 49.7315 19.5134 57.6578 19.5134 66.996H27.5134C27.5134 59.1396 29.6114 53.2605 33.447 48.9454L27.4678 43.6305ZM19.5134 66.996C19.5134 76.1963 22.0583 84.0834 27.427 90.3148L33.4878 85.0932C29.5978 80.5779 27.5134 74.6597 27.5134 66.996H19.5134ZM27.4301 90.3185C33.1325 96.9212 41.564 99.888 51.9094 99.888V91.888C43.0761 91.888 37.2063 89.3988 33.4847 85.0895L27.4301 90.3185ZM51.9094 99.888C57.7031 99.888 62.9014 98.4766 67.3068 95.4729L62.8001 88.8631C59.9307 90.8194 56.3664 91.888 51.9094 91.888V99.888ZM67.2558 95.5071C71.8095 92.5036 75.1219 88.467 77.0853 83.4604L69.6375 80.5396C68.2942 83.965 66.068 86.7071 62.851 88.8289L67.2558 95.5071ZM77.0636 83.5145L78.1796 80.7865L70.7752 77.7575L69.6592 80.4855L77.0636 83.5145ZM74.4774 83.272H74.6014V75.272H74.4774V83.272ZM72.9252 82.9038L89.0452 90.3438L92.3976 83.0802L76.2776 75.6402L72.9252 82.9038ZM87.0101 85.2198C84.0487 92.5854 79.6305 98.2709 73.7762 102.421L78.4026 108.947C85.6097 103.838 90.9461 96.876 94.4327 88.2042L87.0101 85.2198ZM73.7979 102.405C66.8157 107.285 58.8615 109.744 49.8014 109.744V117.744C60.416 117.744 69.9871 114.829 78.3809 108.963L73.7979 102.405ZM135.557 77.288H139.557V76.0347L138.842 75.0055L135.557 77.288ZM96.8691 21.612V17.612H89.2187L93.5843 23.8945L96.8691 21.612ZM118.817 21.612L122.102 19.33L120.909 17.612H118.817V21.612ZM144.485 58.564L141.2 60.846L144.477 65.564L147.765 60.8534L144.485 58.564ZM170.277 21.612V17.612H168.191L166.997 19.3226L170.277 21.612ZM192.225 21.612L195.513 23.8896L199.862 17.612H192.225V21.612ZM153.661 77.288L150.373 75.0104L149.661 76.038V77.288H153.661ZM153.661 113V117H157.661V113H153.661ZM135.557 113H131.557V117H135.557V113ZM138.842 75.0055L100.154 19.3295L93.5843 23.8945L132.272 79.5705L138.842 75.0055ZM96.8691 25.612H118.817V17.612H96.8691V25.612ZM115.532 23.894L141.2 60.846L147.77 56.282L122.102 19.33L115.532 23.894ZM147.765 60.8534L173.557 23.9014L166.997 19.3226L141.205 56.2746L147.765 60.8534ZM170.277 25.612H192.225V17.612H170.277V25.612ZM188.937 19.3344L150.373 75.0104L156.949 79.5656L195.513 23.8896L188.937 19.3344ZM149.661 77.288V113H157.661V77.288H149.661ZM153.661 109H135.557V117H153.661V109ZM139.557 113V77.288H131.557V113H139.557ZM203.422 21.612V17.612H199.422V21.612H203.422ZM268.398 30.168L265.528 32.9545L265.549 32.9756L265.569 32.9964L268.398 30.168ZM268.522 65.756L265.746 62.8757L262.182 66.3104L266.288 69.0743L268.522 65.756ZM277.822 77.164L274.113 78.6608L274.134 78.7143L274.157 78.7673L277.822 77.164ZM274.722 102.088L271.568 99.6279L271.561 99.6367L274.722 102.088ZM260.71 111.016L259.537 107.192L259.453 107.218L259.37 107.247L260.71 111.016ZM203.422 113H199.422V117H203.422V113ZM256.37 53.108L252.792 51.3191L252.776 51.352L252.76 51.3851L256.37 53.108ZM256.618 44.924L252.885 46.3599L252.927 46.4709L252.976 46.5792L256.618 44.924ZM254.882 42.196L251.996 44.9661L252.025 44.9956L252.053 45.0244L254.882 42.196ZM221.526 39.096V35.096H217.526V39.096H221.526ZM221.526 58.564H217.526V62.564H221.526V58.564ZM258.602 92.788L256.202 89.588L256.174 89.6091L256.146 89.6306L258.602 92.788ZM258.478 79.148L255.802 82.1212L255.819 82.1361L255.835 82.1509L258.478 79.148ZM221.526 75.8V71.8H217.526V75.8H221.526ZM221.526 95.392H217.526V99.392H221.526V95.392ZM203.422 25.612H244.838V17.612H203.422V25.612ZM244.838 25.612C254.242 25.612 260.939 28.2278 265.528 32.9545L271.268 27.3815C264.78 20.7002 255.77 17.612 244.838 17.612V25.612ZM265.569 32.9964C269.38 36.8074 271.342 41.627 271.342 47.776H279.342C279.342 39.7063 276.674 32.7872 271.226 27.3396L265.569 32.9964ZM271.342 47.776C271.342 54.5337 269.354 59.3994 265.746 62.8757L271.297 68.6363C276.783 63.3499 279.342 56.229 279.342 47.776H271.342ZM266.288 69.0743C269.938 71.5309 272.516 74.7052 274.113 78.6608L281.531 75.6672C279.325 70.1988 275.703 65.7677 270.755 62.4376L266.288 69.0743ZM274.157 78.7673C275.031 80.7646 275.558 83.4463 275.558 86.96H283.558C283.558 82.703 282.927 78.8541 281.487 75.5607L274.157 78.7673ZM275.558 86.96C275.558 92.1475 274.17 96.2913 271.568 99.6279L277.876 104.548C281.721 99.618 283.558 93.6765 283.558 86.96H275.558ZM271.561 99.6367C269.045 102.882 265.159 105.468 259.537 107.192L261.883 114.84C268.661 112.761 274.117 109.396 277.883 104.539L271.561 99.6367ZM259.37 107.247C256.21 108.371 252.107 109 246.946 109V117C252.697 117 257.77 116.307 262.05 114.785L259.37 107.247ZM246.946 109H203.422V117H246.946V109ZM207.422 113V21.612H199.422V113H207.422ZM244.838 62.564C251.498 62.564 257.284 60.4797 259.98 54.8309L252.76 51.3851C251.984 53.011 250.081 54.564 244.838 54.564V62.564ZM259.948 54.8968C260.843 53.1062 261.238 51.1556 261.238 49.14H253.238C253.238 50.1004 253.054 50.7951 252.792 51.3191L259.948 54.8968ZM261.238 49.14C261.238 47.0917 261.037 44.9801 260.259 43.2688L252.976 46.5792C252.973 46.5714 252.994 46.6166 253.025 46.7339C253.056 46.8499 253.092 47.0162 253.125 47.242C253.193 47.7 253.238 48.3234 253.238 49.14H261.238ZM260.351 43.4881C259.756 41.9408 258.886 40.5433 257.71 39.3676L252.053 45.0244C252.366 45.3367 252.653 45.7579 252.885 46.3599L260.351 43.4881ZM257.767 39.4259C254.762 36.2947 250.511 35.096 245.83 35.096V43.096C249.25 43.096 251.034 43.9639 251.996 44.9661L257.767 39.4259ZM245.83 35.096H221.526V43.096H245.83V35.096ZM217.526 39.096V58.564H225.526V39.096H217.526ZM221.526 62.564H244.838V54.564H221.526V62.564ZM248.062 99.392C253.185 99.392 257.782 98.4935 261.058 95.9454L256.146 89.6306C254.958 90.5545 252.528 91.392 248.062 91.392V99.392ZM261.002 95.988C264.169 93.6124 265.578 90.1304 265.578 86.216H257.578C257.578 88.0883 257.002 88.9876 256.202 89.588L261.002 95.988ZM265.578 86.216C265.578 82.2398 264.099 78.7661 261.12 76.1451L255.835 82.1509C256.99 83.1672 257.578 84.4056 257.578 86.216H265.578ZM261.154 76.1748C257.623 72.9967 252.611 71.8 246.946 71.8V79.8C251.697 79.8 254.373 80.8353 255.802 82.1212L261.154 76.1748ZM246.946 71.8H221.526V79.8H246.946V71.8ZM217.526 75.8V95.392H225.526V75.8H217.526ZM221.526 99.392H248.062V91.392H221.526V99.392ZM295.104 21.612V17.612H291.104V21.612H295.104ZM364.668 21.612H368.668V17.612H364.668V21.612ZM364.668 39.22V43.22H368.668V39.22H364.668ZM313.208 39.22V35.22H309.208V39.22H313.208ZM313.208 58.316H309.208V62.316H313.208V58.316ZM350.532 58.316H354.532V54.316H350.532V58.316ZM350.532 76.172V80.172H354.532V76.172H350.532ZM313.208 76.172V72.172H309.208V76.172H313.208ZM313.208 95.268H309.208V99.268H313.208V95.268ZM364.668 95.268H368.668V91.268H364.668V95.268ZM364.668 113V117H368.668V113H364.668ZM295.104 113H291.104V117H295.104V113ZM295.104 25.612H364.668V17.612H295.104V25.612ZM360.668 21.612V39.22H368.668V21.612H360.668ZM364.668 35.22H313.208V43.22H364.668V35.22ZM309.208 39.22V58.316H317.208V39.22H309.208ZM313.208 62.316H350.532V54.316H313.208V62.316ZM346.532 58.316V76.172H354.532V58.316H346.532ZM350.532 72.172H313.208V80.172H350.532V72.172ZM309.208 76.172V95.268H317.208V76.172H309.208ZM313.208 99.268H364.668V91.268H313.208V99.268ZM360.668 95.268V113H368.668V95.268H360.668ZM364.668 109H295.104V117H364.668V109ZM299.104 113V21.612H291.104V113H299.104ZM380.127 21.612V17.612H376.127V21.612H380.127ZM447.335 29.672L450.038 26.7234L450.016 26.7038L449.995 26.6846L447.335 29.672ZM452.295 67.244L448.888 65.1476L448.882 65.157L448.877 65.1663L452.295 67.244ZM440.887 76.916L442.27 80.6694L442.389 80.6253L442.506 80.5737L440.887 76.916ZM438.531 77.784L437.148 74.0306L432.621 75.6986L435.099 79.8384L438.531 77.784ZM459.611 113V117H466.667L463.043 110.946L459.611 113ZM438.283 113L434.814 114.992L435.967 117H438.283V113ZM420.055 81.256L423.524 79.2642L422.37 77.256H420.055V81.256ZM398.231 81.256V77.256H394.231V81.256H398.231ZM398.231 113V117H402.231V113H398.231ZM380.127 113H376.127V117H380.127V113ZM437.043 57.572L440.423 59.7106L440.484 59.6142L440.539 59.5146L437.043 57.572ZM434.439 42.692L437.066 39.6757L437.029 39.6433L436.991 39.6119L434.439 42.692ZM398.231 39.096V35.096H394.231V39.096H398.231ZM398.231 63.648H394.231V67.648H398.231V63.648ZM380.127 25.612H424.147V17.612H380.127V25.612ZM424.147 25.612C432.763 25.612 439.492 28.0449 444.675 32.6594L449.995 26.6846C443.108 20.5524 434.378 17.612 424.147 17.612V25.612ZM444.632 32.6206C449.633 37.2047 452.263 43.4255 452.263 51.744H460.263C460.263 41.5451 456.941 33.0513 450.038 26.7234L444.632 32.6206ZM452.263 51.744C452.263 57.1844 451.076 61.5931 448.888 65.1476L455.701 69.3404C458.805 64.2976 460.263 58.373 460.263 51.744H452.263ZM448.877 65.1663C446.788 68.6033 443.655 71.3164 439.268 73.2583L442.506 80.5737C448.204 78.0516 452.677 74.3167 455.713 69.3217L448.877 65.1663ZM439.504 73.1626L437.148 74.0306L439.914 81.5374L442.27 80.6694L439.504 73.1626ZM435.099 79.8384L456.179 115.054L463.043 110.946L441.963 75.7296L435.099 79.8384ZM459.611 109H438.283V117H459.611V109ZM441.752 111.008L423.524 79.2642L416.586 83.2478L434.814 114.992L441.752 111.008ZM420.055 77.256H398.231V85.256H420.055V77.256ZM394.231 81.256V113H402.231V81.256H394.231ZM398.231 109H380.127V117H398.231V109ZM384.127 113V21.612H376.127V113H384.127ZM422.411 67.648C430.241 67.648 436.806 65.4276 440.423 59.7106L433.662 55.4334C432.154 57.8178 428.965 59.648 422.411 59.648V67.648ZM440.539 59.5146C441.804 57.2388 442.283 54.5588 442.283 51.744H434.283C434.283 53.7239 433.935 54.9291 433.546 55.6294L440.539 59.5146ZM442.283 51.744C442.283 46.9386 440.61 42.7629 437.066 39.6757L431.812 45.7083C433.392 47.0851 434.283 48.9441 434.283 51.744H442.283ZM436.991 39.6119C433.201 36.4716 428.371 35.096 422.907 35.096V43.096C427.032 43.096 429.89 44.1177 431.887 45.7721L436.991 39.6119ZM422.907 35.096H398.231V43.096H422.907V35.096ZM394.231 39.096V63.648H402.231V39.096H394.231ZM398.231 67.648H422.411V59.648H398.231V67.648ZM513.519 99.98L516.517 97.3326L516.51 97.3243L513.519 99.98ZM513.519 34.136L510.547 31.4586L510.54 31.4664L513.519 34.136ZM572.419 28.432L570.144 31.722L570.162 31.7348L570.181 31.7474L572.419 28.432ZM587.051 47.404L588.704 51.0464L592.136 49.4889L590.785 45.9706L587.051 47.404ZM570.931 54.72V58.72H571.796L572.584 58.3624L570.931 54.72ZM570.807 54.72L567.13 56.2957L568.169 58.72H570.807V54.72ZM569.691 52.116L566.007 53.6746L566.011 53.6831L566.014 53.6917L569.691 52.116ZM561.383 41.948L559.147 45.2651L559.156 45.2707L559.164 45.2762L561.383 41.948ZM535.219 40.336L533.611 36.6734L535.219 40.336ZM526.787 46.288L523.814 43.6121L523.805 43.6213L523.797 43.6305L526.787 46.288ZM526.787 87.704L523.756 90.3148L523.759 90.3185L526.787 87.704ZM561.383 92.168L559.18 88.8289L559.155 88.8458L559.129 88.8631L561.383 92.168ZM569.691 82L565.989 80.4855L565.978 80.5125L565.967 80.5396L569.691 82ZM570.807 79.272V75.272H568.121L567.105 77.7575L570.807 79.272ZM570.931 79.272L572.607 75.6402L571.809 75.272H570.931V79.272ZM587.051 86.712L590.762 88.2042L592.181 84.6744L588.727 83.0802L587.051 86.712ZM572.419 105.684L574.71 108.963L574.721 108.955L574.732 108.947L572.419 105.684ZM546.131 109.744C533.492 109.744 523.768 105.545 516.517 97.3326L510.52 102.627C519.473 112.767 531.49 117.744 546.131 117.744V109.744ZM516.51 97.3243C509.38 89.294 505.739 79.2783 505.739 66.996H497.739C497.739 81.0017 501.951 92.9753 510.528 102.636L516.51 97.3243ZM505.739 66.996C505.739 54.7132 509.38 44.7472 516.498 36.8056L510.54 31.4664C501.951 41.0502 497.739 52.9908 497.739 66.996H505.739ZM516.491 36.8133C523.925 28.5615 533.674 24.372 546.131 24.372V16.372C531.638 16.372 519.646 21.3585 510.547 31.4587L516.491 36.8133ZM546.131 24.372C555.101 24.372 563.064 26.8267 570.144 31.722L574.694 25.142C566.232 19.2906 556.67 16.372 546.131 16.372V24.372ZM570.181 31.7474C576.047 35.7071 580.439 41.3402 583.316 48.8374L590.785 45.9706C587.38 37.0998 582.017 30.0849 574.657 25.1166L570.181 31.7474ZM585.398 43.7616L569.278 51.0776L572.584 58.3624L588.704 51.0464L585.398 43.7616ZM570.931 50.72H570.807V58.72H570.931V50.72ZM574.483 53.1443L573.367 50.5403L566.014 53.6917L567.13 56.2957L574.483 53.1443ZM573.375 50.5574C571.265 45.5718 568.002 41.5534 563.602 38.6198L559.164 45.2762C562.203 47.3026 564.479 50.0629 566.007 53.6746L573.375 50.5574ZM563.618 38.6309C559.101 35.5865 553.927 34.104 548.239 34.104V42.104C552.47 42.104 556.06 43.1841 559.147 45.2651L563.618 38.6309ZM548.239 34.104C542.614 34.104 537.676 34.8889 533.611 36.6734L536.827 43.9986C539.541 42.8071 543.282 42.104 548.239 42.104V34.104ZM533.611 36.6734C529.759 38.3646 526.465 40.6659 523.814 43.6121L529.76 48.9639C531.572 46.9501 533.9 45.2834 536.827 43.9986L533.611 36.6734ZM523.797 43.6305C518.374 49.7315 515.843 57.6578 515.843 66.996H523.843C523.843 59.1396 525.941 53.2605 529.776 48.9454L523.797 43.6305ZM515.843 66.996C515.843 76.1963 518.388 84.0834 523.756 90.3148L529.817 85.0932C525.927 80.5779 523.843 74.6597 523.843 66.996H515.843ZM523.759 90.3185C529.462 96.9212 537.893 99.888 548.239 99.888V91.888C539.406 91.888 533.536 89.3988 529.814 85.0895L523.759 90.3185ZM548.239 99.888C554.032 99.888 559.231 98.4766 563.636 95.4729L559.129 88.8631C556.26 90.8194 552.696 91.888 548.239 91.888V99.888ZM563.585 95.5071C568.139 92.5036 571.451 88.467 573.415 83.4604L565.967 80.5396C564.624 83.965 562.397 86.7071 559.18 88.8289L563.585 95.5071ZM573.393 83.5145L574.509 80.7865L567.105 77.7575L565.989 80.4855L573.393 83.5145ZM570.807 83.272H570.931V75.272H570.807V83.272ZM569.255 82.9038L585.375 90.3438L588.727 83.0802L572.607 75.6402L569.255 82.9038ZM583.34 85.2198C580.378 92.5854 575.96 98.2709 570.106 102.421L574.732 108.947C581.939 103.838 587.275 96.876 590.762 88.2042L583.34 85.2198ZM570.127 102.405C563.145 107.285 555.191 109.744 546.131 109.744V117.744C556.745 117.744 566.316 114.829 574.71 108.963L570.127 102.405ZM631.886 77.288H635.886V76.0347L635.171 75.0055L631.886 77.288ZM593.198 21.612V17.612H585.548L589.914 23.8945L593.198 21.612ZM615.146 21.612L618.432 19.33L617.238 17.612H615.146V21.612ZM640.815 58.564L637.529 60.846L640.807 65.564L644.095 60.8534L640.815 58.564ZM666.607 21.612V17.612H664.52L663.326 19.3226L666.607 21.612ZM688.555 21.612L691.843 23.8896L696.191 17.612H688.555V21.612ZM649.99 77.288L646.702 75.0104L645.99 76.038V77.288H649.99ZM649.99 113V117H653.99V113H649.99ZM631.886 113H627.886V117H631.886V113ZM635.171 75.0055L596.483 19.3295L589.914 23.8945L628.602 79.5705L635.171 75.0055ZM593.198 25.612H615.146V17.612H593.198V25.612ZM611.861 23.894L637.529 60.846L644.1 56.282L618.432 19.33L611.861 23.894ZM644.095 60.8534L669.887 23.9014L663.326 19.3226L637.534 56.2746L644.095 60.8534ZM666.607 25.612H688.555V17.612H666.607V25.612ZM685.266 19.3344L646.702 75.0104L653.279 79.5656L691.843 23.8896L685.266 19.3344ZM645.99 77.288V113H653.99V77.288H645.99ZM649.99 109H631.886V117H649.99V109ZM635.886 113V77.288H627.886V113H635.886ZM699.751 21.612V17.612H695.751V21.612H699.751ZM765.223 30.044L767.948 27.1157L767.939 27.1072L767.93 27.0987L765.223 30.044ZM765.099 75.18L767.804 78.1269L767.826 78.1071L767.847 78.0869L765.099 75.18ZM717.855 83.488V79.488H713.855V83.488H717.855ZM717.855 113V117H721.855V113H717.855ZM699.751 113H695.751V117H699.751V113ZM752.451 62.532L755.184 65.4531L755.208 65.4307L755.231 65.408L752.451 62.532ZM752.451 42.692L749.719 45.6131L749.722 45.6162L752.451 42.692ZM717.855 39.096V35.096H713.855V39.096H717.855ZM717.855 66.128H713.855V70.128H717.855V66.128ZM699.751 25.612H741.291V17.612H699.751V25.612ZM741.291 25.612C750.322 25.612 757.27 28.168 762.517 32.9893L767.93 27.0987C760.942 20.6773 751.935 17.612 741.291 17.612V25.612ZM762.498 32.9723C767.506 37.6318 770.151 43.9814 770.151 52.488H778.151C778.151 42.1466 774.845 33.5335 767.948 27.1157L762.498 32.9723ZM770.151 52.488C770.151 60.9751 767.476 67.4298 762.352 72.273L767.847 78.0869C774.792 71.5222 778.151 62.8489 778.151 52.488H770.151ZM762.395 72.2331C757.241 76.9632 750.34 79.488 741.291 79.488V87.488C751.918 87.488 760.888 84.4741 767.804 78.1269L762.395 72.2331ZM741.291 79.488H717.855V87.488H741.291V79.488ZM713.855 83.488V113H721.855V83.488H713.855ZM717.855 109H699.751V117H717.855V109ZM703.751 113V21.612H695.751V113H703.751ZM740.671 70.128C746.474 70.128 751.58 68.8242 755.184 65.4531L749.719 59.6109C748.197 61.0344 745.45 62.128 740.671 62.128V70.128ZM755.231 65.408C758.659 62.0948 760.171 57.6545 760.171 52.612H752.171C752.171 56.0015 751.204 58.1745 749.671 59.656L755.231 65.408ZM760.171 52.612C760.171 47.5195 758.676 43.0299 755.181 39.7678L749.722 45.6162C751.187 46.9834 752.171 49.1072 752.171 52.612H760.171ZM755.184 39.7709C751.58 36.3998 746.474 35.096 740.671 35.096V43.096C745.45 43.096 748.197 44.1896 749.719 45.6131L755.184 39.7709ZM740.671 35.096H717.855V43.096H740.671V35.096ZM713.855 39.096V66.128H721.855V39.096H713.855ZM717.855 70.128H740.671V62.128H717.855V70.128ZM787.195 21.612V17.612H783.195V21.612H787.195ZM805.299 21.612H809.299V17.612H805.299V21.612ZM805.299 58.316H801.299V62.316H805.299V58.316ZM844.732 58.316V62.316H848.732V58.316H844.732ZM844.732 21.612V17.612H840.732V21.612H844.732ZM862.711 21.612H866.711V17.612H862.711V21.612ZM862.711 113V117H866.711V113H862.711ZM844.732 113H840.732V117H844.732V113ZM844.732 76.172H848.732V72.172H844.732V76.172ZM805.299 76.172V72.172H801.299V76.172H805.299ZM805.299 113V117H809.299V113H805.299ZM787.195 113H783.195V117H787.195V113ZM787.195 25.612H805.299V17.612H787.195V25.612ZM801.299 21.612V58.316H809.299V21.612H801.299ZM805.299 62.316H844.732V54.316H805.299V62.316ZM848.732 58.316V21.612H840.732V58.316H848.732ZM844.732 25.612H862.711V17.612H844.732V25.612ZM858.711 21.612V113H866.711V21.612H858.711ZM862.711 109H844.732V117H862.711V109ZM848.732 113V76.172H840.732V113H848.732ZM844.732 72.172H805.299V80.172H844.732V72.172ZM801.299 76.172V113H809.299V76.172H801.299ZM805.299 109H787.195V117H805.299V109ZM791.195 113V21.612H783.195V113H791.195ZM883.116 21.612V17.612H879.116V21.612H883.116ZM952.68 21.612H956.68V17.612H952.68V21.612ZM952.68 39.22V43.22H956.68V39.22H952.68ZM901.22 39.22V35.22H897.22V39.22H901.22ZM901.22 58.316H897.22V62.316H901.22V58.316ZM938.544 58.316H942.544V54.316H938.544V58.316ZM938.544 76.172V80.172H942.544V76.172H938.544ZM901.22 76.172V72.172H897.22V76.172H901.22ZM901.22 95.268H897.22V99.268H901.22V95.268ZM952.68 95.268H956.68V91.268H952.68V95.268ZM952.68 113V117H956.68V113H952.68ZM883.116 113H879.116V117H883.116V113ZM883.116 25.612H952.68V17.612H883.116V25.612ZM948.68 21.612V39.22H956.68V21.612H948.68ZM952.68 35.22H901.22V43.22H952.68V35.22ZM897.22 39.22V58.316H905.22V39.22H897.22ZM901.22 62.316H938.544V54.316H901.22V62.316ZM934.544 58.316V76.172H942.544V58.316H934.544ZM938.544 72.172H901.22V80.172H938.544V72.172ZM897.22 76.172V95.268H905.22V76.172H897.22ZM901.22 99.268H952.68V91.268H901.22V99.268ZM948.68 95.268V113H956.68V95.268H948.68ZM952.68 109H883.116V117H952.68V109ZM887.116 113V21.612H879.116V113H887.116ZM968.139 21.612V17.612H964.139V21.612H968.139ZM1035.35 29.672L1038.05 26.7234L1038.03 26.7038L1038.01 26.6846L1035.35 29.672ZM1040.31 67.244L1036.9 65.1476L1036.89 65.157L1036.89 65.1663L1040.31 67.244ZM1028.9 76.916L1030.28 80.6694L1030.4 80.6253L1030.52 80.5737L1028.9 76.916ZM1026.54 77.784L1025.16 74.0306L1020.63 75.6986L1023.11 79.8384L1026.54 77.784ZM1047.62 113V117H1054.68L1051.05 110.946L1047.62 113ZM1026.29 113L1022.83 114.992L1023.98 117H1026.29V113ZM1008.07 81.256L1011.54 79.2642L1010.38 77.256H1008.07V81.256ZM986.243 81.256V77.256H982.243V81.256H986.243ZM986.243 113V117H990.243V113H986.243ZM968.139 113H964.139V117H968.139V113ZM1025.05 57.572L1028.43 59.7106L1028.5 59.6142L1028.55 59.5146L1025.05 57.572ZM1022.45 42.692L1025.08 39.6757L1025.04 39.6433L1025 39.6119L1022.45 42.692ZM986.243 39.096V35.096H982.243V39.096H986.243ZM986.243 63.648H982.243V67.648H986.243V63.648ZM968.139 25.612H1012.16V17.612H968.139V25.612ZM1012.16 25.612C1020.77 25.612 1027.5 28.0449 1032.69 32.6594L1038.01 26.6846C1031.12 20.5524 1022.39 17.612 1012.16 17.612V25.612ZM1032.64 32.6206C1037.64 37.2047 1040.27 43.4255 1040.27 51.744H1048.27C1048.27 41.5451 1044.95 33.0513 1038.05 26.7234L1032.64 32.6206ZM1040.27 51.744C1040.27 57.1844 1039.09 61.5931 1036.9 65.1476L1043.71 69.3404C1046.82 64.2976 1048.27 58.373 1048.27 51.744H1040.27ZM1036.89 65.1663C1034.8 68.6033 1031.67 71.3164 1027.28 73.2583L1030.52 80.5737C1036.22 78.0516 1040.69 74.3167 1043.72 69.3217L1036.89 65.1663ZM1027.52 73.1626L1025.16 74.0306L1027.93 81.5374L1030.28 80.6694L1027.52 73.1626ZM1023.11 79.8384L1044.19 115.054L1051.05 110.946L1029.97 75.7296L1023.11 79.8384ZM1047.62 109H1026.29V117H1047.62V109ZM1029.76 111.008L1011.54 79.2642L1004.6 83.2478L1022.83 114.992L1029.76 111.008ZM1008.07 77.256H986.243V85.256H1008.07V77.256ZM982.243 81.256V113H990.243V81.256H982.243ZM986.243 109H968.139V117H986.243V109ZM972.139 113V21.612H964.139V113H972.139ZM1010.42 67.648C1018.25 67.648 1024.82 65.4276 1028.43 59.7106L1021.67 55.4334C1020.17 57.8178 1016.98 59.648 1010.42 59.648V67.648ZM1028.55 59.5146C1029.82 57.2388 1030.29 54.5588 1030.29 51.744H1022.29C1022.29 53.7239 1021.95 54.9291 1021.56 55.6294L1028.55 59.5146ZM1030.29 51.744C1030.29 46.9386 1028.62 42.7629 1025.08 39.6757L1019.82 45.7083C1021.4 47.0851 1022.29 48.9441 1022.29 51.744H1030.29ZM1025 39.6119C1021.21 36.4716 1016.38 35.096 1010.92 35.096V43.096C1015.04 43.096 1017.9 44.1177 1019.9 45.7721L1025 39.6119ZM1010.92 35.096H986.243V43.096H1010.92V35.096ZM982.243 39.096V63.648H990.243V39.096H982.243ZM986.243 67.648H1010.42V59.648H986.243V67.648Z" fill="black" fill-opacity="0.3"/>
<defs>
<linearGradient id="paint0_linear_1_14" x1="8.25523" y1="63" x2="638.7" y2="-448.071" gradientUnits="userSpaceOnUse">
<stop stop-color="#F24D56"/>
<stop offset="0.509216" stop-color="#EE0C77"/>
<stop offset="0.964829" stop-color="#F24D56"/>
</linearGradient>
</defs>
</svg>
