<svg width="800" height="262" viewBox="0 0 800 262" fill="none" xmlns="http://www.w3.org/2000/svg">
<path d="M177.75 103.56L180.749 100.913L180.741 100.904L177.75 103.56ZM177.75 35.592L174.778 32.9146L174.771 32.9224L177.75 35.592ZM238.55 29.704L236.275 32.994L236.293 33.0068L236.312 33.0194L238.55 29.704ZM253.654 49.288L255.307 52.9304L258.739 51.3729L257.388 47.8546L253.654 49.288ZM237.014 56.84V60.84H237.879L238.667 60.4824L237.014 56.84ZM236.886 56.84L233.209 58.4157L234.248 60.84H236.886V56.84ZM235.734 54.152L232.05 55.7106L232.054 55.7191L232.057 55.7277L235.734 54.152ZM227.158 43.656L224.923 46.9731L224.931 46.9787L224.939 46.9842L227.158 43.656ZM200.15 41.992L198.542 38.3294L200.15 41.992ZM191.446 48.136L188.473 45.4601L188.465 45.4693L188.456 45.4785L191.446 48.136ZM191.446 90.888L188.416 93.4988L188.419 93.5025L191.446 90.888ZM227.158 95.496L224.956 92.1569L224.93 92.1738L224.905 92.1911L227.158 95.496ZM235.734 85L232.032 83.4855L232.021 83.5125L232.01 83.5396L235.734 85ZM236.886 82.184V78.184H234.201L233.184 80.6695L236.886 82.184ZM237.014 82.184L238.69 78.5522L237.893 78.184H237.014V82.184ZM253.654 89.864L257.365 91.3562L258.784 87.8264L255.33 86.2322L253.654 89.864ZM238.55 109.448L240.841 112.727L240.852 112.719L240.863 112.711L238.55 109.448ZM211.414 113.768C198.335 113.768 188.26 109.421 180.749 100.913L174.751 106.207C183.965 116.643 196.333 121.768 211.414 121.768V113.768ZM180.741 100.904C173.358 92.5887 169.59 82.2183 169.59 69.512H161.59C161.59 83.9417 165.928 96.27 174.759 106.216L180.741 100.904ZM169.59 69.512C169.59 56.8052 173.358 46.4858 180.729 38.2616L174.771 32.9224C165.929 42.7888 161.59 55.0828 161.59 69.512H169.59ZM180.722 38.2693C188.423 29.7215 198.522 25.384 211.414 25.384V17.384C196.487 17.384 184.144 22.5185 174.778 32.9147L180.722 38.2693ZM211.414 25.384C220.699 25.384 228.945 27.9254 236.275 32.994L240.825 26.414C232.112 20.3892 222.268 17.384 211.414 17.384V25.384ZM236.312 33.0194C242.392 37.1231 246.941 42.9602 249.92 50.7214L257.388 47.8546C253.882 38.7198 248.362 31.5009 240.788 26.3886L236.312 33.0194ZM252.001 45.6456L235.361 53.1976L238.667 60.4824L255.307 52.9304L252.001 45.6456ZM237.014 52.84H236.886V60.84H237.014V52.84ZM240.563 55.2643L239.411 52.5763L232.057 55.7277L233.209 58.4157L240.563 55.2643ZM239.418 52.5934C237.25 47.4691 233.897 43.3414 229.377 40.3278L224.939 46.9842C228.099 49.0906 230.463 51.9602 232.05 55.7106L239.418 52.5934ZM229.393 40.3389C224.753 37.2119 219.438 35.688 213.59 35.688V43.688C217.982 43.688 221.712 44.8095 224.923 46.9731L229.393 40.3389ZM213.59 35.688C207.795 35.688 202.716 36.4969 198.542 38.3294L201.758 45.6546C204.581 44.4151 208.462 43.688 213.59 43.688V35.688ZM198.542 38.3294C194.581 40.0686 191.196 42.4339 188.473 45.4601L194.419 50.8119C196.304 48.7181 198.722 46.9874 201.758 45.6546L198.542 38.3294ZM188.456 45.4785C182.884 51.7475 180.278 59.8964 180.278 69.512H188.278C188.278 61.3782 190.451 55.2765 194.436 50.7934L188.456 45.4785ZM180.278 69.512C180.278 78.9843 182.898 87.094 188.416 93.4988L194.476 88.2772C190.437 83.5886 188.278 77.4477 188.278 69.512H180.278ZM188.419 93.5025C194.273 100.281 202.935 103.336 213.59 103.336V95.336C204.447 95.336 198.347 92.7588 194.473 88.2735L188.419 93.5025ZM213.59 103.336C219.549 103.336 224.889 101.885 229.411 98.8009L224.905 92.1911C221.918 94.2274 218.212 95.336 213.59 95.336V103.336ZM229.36 98.8351C234.039 95.7489 237.441 91.603 239.458 86.4604L232.01 83.5396C230.613 87.101 228.298 89.9524 224.956 92.1569L229.36 98.8351ZM239.436 86.5145L240.588 83.6985L233.184 80.6695L232.032 83.4855L239.436 86.5145ZM236.886 86.184H237.014V78.184H236.886V86.184ZM235.338 85.8158L251.978 93.4958L255.33 86.2322L238.69 78.5522L235.338 85.8158ZM249.943 88.3718C246.877 95.996 242.302 101.886 236.237 106.185L240.863 112.711C248.281 107.453 253.775 100.287 257.365 91.3562L249.943 88.3718ZM236.259 106.169C229.028 111.223 220.791 113.768 211.414 113.768V121.768C222.346 121.768 232.2 118.767 240.841 112.727L236.259 106.169ZM299.936 80.136H303.936V78.8827L303.221 77.8535L299.936 80.136ZM260 22.664V18.664H252.35L256.715 24.9465L260 22.664ZM282.656 22.664L285.941 20.382L284.748 18.664H282.656V22.664ZM309.152 60.808L305.867 63.09L309.144 67.808L312.432 63.0974L309.152 60.808ZM335.776 22.664V18.664H333.69L332.496 20.3746L335.776 22.664ZM358.432 22.664L361.72 24.9416L366.068 18.664H358.432V22.664ZM318.624 80.136L315.336 77.8584L314.624 78.886V80.136H318.624ZM318.624 117V121H322.624V117H318.624ZM299.936 117H295.936V121H299.936V117ZM303.221 77.8535L263.285 20.3815L256.715 24.9465L296.651 82.4185L303.221 77.8535ZM260 26.664H282.656V18.664H260V26.664ZM279.371 24.946L305.867 63.09L312.437 58.526L285.941 20.382L279.371 24.946ZM312.432 63.0974L339.056 24.9534L332.496 20.3746L305.872 58.5186L312.432 63.0974ZM335.776 26.664H358.432V18.664H335.776V26.664ZM355.144 20.3864L315.336 77.8584L321.912 82.4136L361.72 24.9416L355.144 20.3864ZM314.624 80.136V117H322.624V80.136H314.624ZM318.624 113H299.936V121H318.624V113ZM303.936 117V80.136H295.936V117H303.936ZM369.99 22.664V18.664H365.99V22.664H369.99ZM437.062 31.496L434.192 34.2825L434.213 34.3036L434.234 34.3244L437.062 31.496ZM437.19 68.232L434.414 65.3517L430.85 68.7864L434.956 71.5503L437.19 68.232ZM446.79 80.008L443.081 81.5048L443.102 81.5583L443.125 81.6113L446.79 80.008ZM443.59 105.736L440.436 103.276L440.429 103.285L443.59 105.736ZM429.126 114.952L427.953 111.128L427.869 111.154L427.786 111.183L429.126 114.952ZM369.99 117H365.99V121H369.99V117ZM424.646 55.176L421.068 53.3871L421.052 53.42L421.036 53.4531L424.646 55.176ZM424.902 46.728L421.169 48.1639L421.211 48.2749L421.261 48.3832L424.902 46.728ZM423.11 43.912L420.224 46.6821L420.253 46.7116L420.282 46.7404L423.11 43.912ZM388.678 40.712V36.712H384.678V40.712H388.678ZM388.678 60.808H384.678V64.808H388.678V60.808ZM426.95 96.136L424.55 92.936L424.522 92.9571L424.494 92.9786L426.95 96.136ZM426.822 82.056L424.146 85.0292L424.163 85.0441L424.18 85.0589L426.822 82.056ZM388.678 78.6V74.6H384.678V78.6H388.678ZM388.678 98.824H384.678V102.824H388.678V98.824ZM369.99 26.664H412.742V18.664H369.99V26.664ZM412.742 26.664C422.474 26.664 429.424 29.3718 434.192 34.2825L439.932 28.7095C433.265 21.8442 424.002 18.664 412.742 18.664V26.664ZM434.234 34.3244C438.194 38.2847 440.23 43.2937 440.23 49.672H448.23C448.23 41.373 445.487 34.2646 439.89 28.6676L434.234 34.3244ZM440.23 49.672C440.23 56.675 438.169 61.7341 434.414 65.3517L439.966 71.1123C445.598 65.6846 448.23 58.3703 448.23 49.672H440.23ZM434.956 71.5503C438.745 74.1003 441.423 77.3972 443.081 81.5048L450.499 78.5112C448.232 72.8908 444.51 68.3371 439.424 64.9137L434.956 71.5503ZM443.125 81.6113C444.037 83.6939 444.582 86.4809 444.582 90.12H452.582C452.582 85.7377 451.933 81.7834 450.455 78.4047L443.125 81.6113ZM444.582 90.12C444.582 95.4995 443.143 99.806 440.436 103.276L446.744 108.196C450.693 103.133 452.582 97.0285 452.582 90.12H444.582ZM440.429 103.285C437.811 106.66 433.775 109.343 427.953 111.128L430.299 118.776C437.277 116.636 442.883 113.174 446.751 108.187L440.429 103.285ZM427.786 111.183C424.506 112.349 420.255 113 414.918 113V121C420.845 121 426.066 120.285 430.466 118.721L427.786 111.183ZM414.918 113H369.99V121H414.918V113ZM373.99 117V22.664H365.99V117H373.99ZM412.742 64.808C419.595 64.808 425.504 62.665 428.256 56.8989L421.036 53.4531C420.204 55.1963 418.177 56.808 412.742 56.808V64.808ZM428.224 56.9648C429.138 55.1369 429.542 53.1436 429.542 51.08H421.542C421.542 52.0884 421.349 52.8258 421.068 53.3871L428.224 56.9648ZM429.542 51.08C429.542 48.9703 429.335 46.8134 428.543 45.0728L421.261 48.3832C421.26 48.3827 421.284 48.4363 421.318 48.5629C421.352 48.6883 421.39 48.8649 421.425 49.102C421.495 49.5826 421.542 50.2327 421.542 51.08H429.542ZM428.635 45.2921C428.027 43.7101 427.138 42.2833 425.938 41.0836L420.282 46.7404C420.618 47.0767 420.924 47.5272 421.169 48.1639L428.635 45.2921ZM425.996 41.1419C422.926 37.9441 418.578 36.712 413.766 36.712V44.712C417.317 44.712 419.198 45.6133 420.224 46.6821L425.996 41.1419ZM413.766 36.712H388.678V44.712H413.766V36.712ZM384.678 40.712V60.808H392.678V40.712H384.678ZM388.678 64.808H412.742V56.808H388.678V64.808ZM416.07 102.824C421.348 102.824 426.058 101.898 429.406 99.2934L424.494 92.9786C423.234 93.9585 420.691 94.824 416.07 94.824V102.824ZM429.35 99.336C432.582 96.9124 434.022 93.3597 434.022 89.352H426.022C426.022 91.3176 425.414 92.2876 424.55 92.936L429.35 99.336ZM434.022 89.352C434.022 85.2824 432.51 81.7328 429.465 79.0531L424.18 85.0589C425.401 86.1339 426.022 87.4482 426.022 89.352H434.022ZM429.498 79.0828C425.887 75.8327 420.751 74.6 414.918 74.6V82.6C419.837 82.6 422.637 83.6713 424.146 85.0292L429.498 79.0828ZM414.918 74.6H388.678V82.6H414.918V74.6ZM384.678 78.6V98.824H392.678V78.6H384.678ZM388.678 102.824H416.07V94.824H388.678V102.824ZM464.63 22.664V18.664H460.63V22.664H464.63ZM536.438 22.664H540.438V18.664H536.438V22.664ZM536.438 40.84V44.84H540.438V40.84H536.438ZM483.318 40.84V36.84H479.318V40.84H483.318ZM483.318 60.552H479.318V64.552H483.318V60.552ZM521.846 60.552H525.846V56.552H521.846V60.552ZM521.846 78.984V82.984H525.846V78.984H521.846ZM483.318 78.984V74.984H479.318V78.984H483.318ZM483.318 98.696H479.318V102.696H483.318V98.696ZM536.438 98.696H540.438V94.696H536.438V98.696ZM536.438 117V121H540.438V117H536.438ZM464.63 117H460.63V121H464.63V117ZM464.63 26.664H536.438V18.664H464.63V26.664ZM532.438 22.664V40.84H540.438V22.664H532.438ZM536.438 36.84H483.318V44.84H536.438V36.84ZM479.318 40.84V60.552H487.318V40.84H479.318ZM483.318 64.552H521.846V56.552H483.318V64.552ZM517.846 60.552V78.984H525.846V60.552H517.846ZM521.846 74.984H483.318V82.984H521.846V74.984ZM479.318 78.984V98.696H487.318V78.984H479.318ZM483.318 102.696H536.438V94.696H483.318V102.696ZM532.438 98.696V117H540.438V98.696H532.438ZM536.438 113H464.63V121H536.438V113ZM468.63 117V22.664H460.63V117H468.63ZM552.395 22.664V18.664H548.395V22.664H552.395ZM621.771 30.984L624.474 28.0354L624.453 28.0158L624.431 27.9966L621.771 30.984ZM626.891 69.768L623.484 67.6716L623.479 67.681L623.473 67.6903L626.891 69.768ZM615.115 79.752L616.498 83.5054L616.617 83.4613L616.734 83.4097L615.115 79.752ZM612.683 80.648L611.3 76.8946L606.773 78.5626L609.251 82.7024L612.683 80.648ZM634.443 117V121H641.499L637.875 114.946L634.443 117ZM612.427 117L608.958 118.992L610.111 121H612.427V117ZM593.611 84.232L597.08 82.2402L595.927 80.232H593.611V84.232ZM571.083 84.232V80.232H567.083V84.232H571.083ZM571.083 117V121H575.083V117H571.083ZM552.395 117H548.395V121H552.395V117ZM611.147 59.784L614.527 61.9226L614.588 61.8262L614.644 61.7266L611.147 59.784ZM608.459 44.424L611.086 41.4077L611.049 41.3753L611.011 41.3439L608.459 44.424ZM571.083 40.712V36.712H567.083V40.712H571.083ZM571.083 66.056H567.083V70.056H571.083V66.056ZM552.395 26.664H597.835V18.664H552.395V26.664ZM597.835 26.664C606.755 26.664 613.734 29.1836 619.111 33.9714L624.431 27.9966C617.349 21.6911 608.371 18.664 597.835 18.664V26.664ZM619.068 33.9326C624.261 38.6927 626.987 45.1509 626.987 53.768H634.987C634.987 43.2705 631.569 34.5393 624.474 28.0354L619.068 33.9326ZM626.987 53.768C626.987 59.403 625.757 63.9784 623.484 67.6716L630.298 71.8644C633.486 66.6829 634.987 60.5916 634.987 53.768H626.987ZM623.473 67.6903C621.301 71.2633 618.046 74.0804 613.496 76.0943L616.734 83.4097C622.595 80.8156 627.19 76.9767 630.309 71.8457L623.473 67.6903ZM613.732 75.9986L611.3 76.8946L614.066 84.4014L616.498 83.5054L613.732 75.9986ZM609.251 82.7024L631.011 119.054L637.875 114.946L616.115 78.5936L609.251 82.7024ZM634.443 113H612.427V121H634.443V113ZM615.896 115.008L597.08 82.2402L590.142 86.2238L608.958 118.992L615.896 115.008ZM593.611 80.232H571.083V88.232H593.611V80.232ZM567.083 84.232V117H575.083V84.232H567.083ZM571.083 113H552.395V121H571.083V113ZM556.395 117V22.664H548.395V117H556.395ZM596.043 70.056C604.105 70.056 610.828 67.7702 614.527 61.9226L607.767 57.6454C606.176 60.1604 602.829 62.056 596.043 62.056V70.056ZM614.644 61.7266C615.935 59.4028 616.427 56.6601 616.427 53.768H608.427C608.427 55.8252 608.066 57.0932 607.65 57.8414L614.644 61.7266ZM616.427 53.768C616.427 48.8399 614.713 44.5669 611.086 41.4077L605.832 47.4403C607.495 48.8891 608.427 50.8454 608.427 53.768H616.427ZM611.011 41.3439C607.128 38.1263 602.174 36.712 596.555 36.712V44.712C600.835 44.712 603.817 45.7724 605.907 47.5041L611.011 41.3439ZM596.555 36.712H571.083V44.712H596.555V36.712ZM567.083 40.712V66.056H575.083V40.712H567.083ZM571.083 70.056H596.043V62.056H571.083V70.056ZM17.525 234.56L20.5236 231.913L20.5162 231.904L17.525 234.56ZM17.525 166.592L14.5531 163.915L14.5462 163.922L17.525 166.592ZM78.325 160.704L76.05 163.994L76.0685 164.007L76.0871 164.019L78.325 160.704ZM93.429 180.288L95.0821 183.93L98.5138 182.373L97.1634 178.855L93.429 180.288ZM76.789 187.84V191.84H77.6542L78.4421 191.482L76.789 187.84ZM76.661 187.84L72.9844 189.416L74.0234 191.84H76.661V187.84ZM75.509 185.152L71.8251 186.711L71.8288 186.719L71.8324 186.728L75.509 185.152ZM66.933 174.656L64.6976 177.973L64.7059 177.979L64.7142 177.984L66.933 174.656ZM39.925 172.992L38.317 169.329L39.925 172.992ZM31.221 179.136L28.2478 176.46L28.2396 176.469L28.2314 176.479L31.221 179.136ZM31.221 221.888L28.1906 224.499L28.1937 224.502L31.221 221.888ZM66.933 226.496L64.7306 223.157L64.705 223.174L64.6796 223.191L66.933 226.496ZM75.509 216L71.8068 214.485L71.7958 214.512L71.7851 214.54L75.509 216ZM76.661 213.184V209.184H73.9756L72.9588 211.669L76.661 213.184ZM76.789 213.184L78.4652 209.552L77.6675 209.184H76.789V213.184ZM93.429 220.864L97.1403 222.356L98.5594 218.826L95.1052 217.232L93.429 220.864ZM78.325 240.448L80.6165 243.727L80.6274 243.719L80.6382 243.711L78.325 240.448ZM51.189 244.768C38.1097 244.768 28.0351 240.421 20.5236 231.913L14.5264 237.207C23.7403 247.643 36.1083 252.768 51.189 252.768V244.768ZM20.5162 231.904C13.1332 223.589 9.365 213.218 9.365 200.512H1.365C1.365 214.942 5.70347 227.27 14.5338 237.216L20.5162 231.904ZM9.365 200.512C9.365 187.805 13.133 177.486 20.5038 169.262L14.5462 163.922C5.70363 173.789 1.365 186.083 1.365 200.512H9.365ZM20.4968 169.269C28.1976 160.721 38.2974 156.384 51.189 156.384V148.384C36.2619 148.384 23.919 153.519 14.5532 163.915L20.4968 169.269ZM51.189 156.384C60.4736 156.384 68.72 158.925 76.05 163.994L80.6 157.414C71.8873 151.389 62.0431 148.384 51.189 148.384V156.384ZM76.0871 164.019C82.1667 168.123 86.7156 173.96 89.6946 181.721L97.1634 178.855C93.6571 169.72 88.1366 162.501 80.5629 157.389L76.0871 164.019ZM91.7759 176.646L75.1359 184.198L78.4421 191.482L95.0821 183.93L91.7759 176.646ZM76.789 183.84H76.661V191.84H76.789V183.84ZM80.3376 186.264L79.1856 183.576L71.8324 186.728L72.9844 189.416L80.3376 186.264ZM79.1929 183.593C77.0249 178.469 73.6723 174.341 69.1518 171.328L64.7142 177.984C67.8737 180.091 70.2385 182.96 71.8251 186.711L79.1929 183.593ZM69.1684 171.339C64.5282 168.212 59.2134 166.688 53.365 166.688V174.688C57.7566 174.688 61.4871 175.809 64.6976 177.973L69.1684 171.339ZM53.365 166.688C47.5699 166.688 42.4911 167.497 38.317 169.329L41.533 176.655C44.3562 175.415 48.2374 174.688 53.365 174.688V166.688ZM38.317 169.329C34.3557 171.069 30.9714 173.434 28.2478 176.46L34.1942 181.812C36.0786 179.718 38.497 177.987 41.533 176.655L38.317 169.329ZM28.2314 176.479C22.659 182.747 20.053 190.896 20.053 200.512H28.053C28.053 192.378 30.2257 186.277 34.2106 181.793L28.2314 176.479ZM20.053 200.512C20.053 209.984 22.6726 218.094 28.1906 224.499L34.2514 219.277C30.2121 214.589 28.053 208.448 28.053 200.512H20.053ZM28.1937 224.502C34.0481 231.281 42.7103 234.336 53.365 234.336V226.336C44.2224 226.336 38.1219 223.759 34.2483 219.274L28.1937 224.502ZM53.365 234.336C59.324 234.336 64.6637 232.885 69.1863 229.801L64.6796 223.191C61.693 225.227 57.9873 226.336 53.365 226.336V234.336ZM69.1354 229.835C73.8144 226.749 77.2162 222.603 79.2329 217.46L71.7851 214.54C70.3885 218.101 68.0729 220.952 64.7306 223.157L69.1354 229.835ZM79.2112 217.515L80.3632 214.699L72.9588 211.669L71.8068 214.485L79.2112 217.515ZM76.661 217.184H76.789V209.184H76.661V217.184ZM75.1128 216.816L91.7528 224.496L95.1052 217.232L78.4652 209.552L75.1128 216.816ZM89.7177 219.372C86.6523 226.996 82.0767 232.886 76.0118 237.185L80.6382 243.711C88.0559 238.453 93.5497 231.287 97.1403 222.356L89.7177 219.372ZM76.0335 237.169C68.8033 242.223 60.5664 244.768 51.189 244.768V252.768C62.1209 252.768 71.9747 249.767 80.6165 243.727L76.0335 237.169ZM139.711 211.136H143.711V209.883L142.996 208.853L139.711 211.136ZM99.775 153.664V149.664H92.1246L96.4902 155.947L99.775 153.664ZM122.431 153.664L125.716 151.382L124.523 149.664H122.431V153.664ZM148.927 191.808L145.642 194.09L148.919 198.808L152.207 194.097L148.927 191.808ZM175.551 153.664V149.664H173.465L172.271 151.375L175.551 153.664ZM198.207 153.664L201.495 155.942L205.843 149.664H198.207V153.664ZM158.399 211.136L155.111 208.858L154.399 209.886V211.136H158.399ZM158.399 248V252H162.399V248H158.399ZM139.711 248H135.711V252H139.711V248ZM142.996 208.853L103.06 151.381L96.4902 155.947L136.426 213.419L142.996 208.853ZM99.775 157.664H122.431V149.664H99.775V157.664ZM119.146 155.946L145.642 194.09L152.212 189.526L125.716 151.382L119.146 155.946ZM152.207 194.097L178.831 155.953L172.271 151.375L145.647 189.519L152.207 194.097ZM175.551 157.664H198.207V149.664H175.551V157.664ZM194.919 151.386L155.111 208.858L161.687 213.414L201.495 155.942L194.919 151.386ZM154.399 211.136V248H162.399V211.136H154.399ZM158.399 244H139.711V252H158.399V244ZM143.711 248V211.136H135.711V248H143.711ZM209.765 153.664V149.664H205.765V153.664H209.765ZM277.349 162.368L280.074 159.44L280.065 159.431L280.056 159.423L277.349 162.368ZM277.221 208.96L279.926 211.907L279.947 211.887L279.969 211.867L277.221 208.96ZM228.453 217.536V213.536H224.453V217.536H228.453ZM228.453 248V252H232.453V248H228.453ZM209.765 248H205.765V252H209.765V248ZM264.165 195.904L266.898 198.825L266.922 198.803L266.945 198.78L264.165 195.904ZM264.165 175.424L261.432 178.345L261.436 178.348L264.165 175.424ZM228.453 171.712V167.712H224.453V171.712H228.453ZM228.453 199.616H224.453V203.616H228.453V199.616ZM209.765 157.664H252.645V149.664H209.765V157.664ZM252.645 157.664C261.993 157.664 269.198 160.311 274.642 165.313L280.056 159.423C272.87 152.82 263.606 149.664 252.645 149.664V157.664ZM274.624 165.296C279.823 170.134 282.565 176.725 282.565 185.536H290.565C290.565 174.891 287.163 166.036 280.074 159.44L274.624 165.296ZM282.565 185.536C282.565 194.327 279.792 201.026 274.473 206.053L279.969 211.867C287.109 205.118 290.565 196.201 290.565 185.536H282.565ZM274.516 206.013C269.168 210.922 262.011 213.536 252.645 213.536V221.536C263.589 221.536 272.815 218.433 279.926 211.907L274.516 206.013ZM252.645 213.536H228.453V221.536H252.645V213.536ZM224.453 217.536V248H232.453V217.536H224.453ZM228.453 244H209.765V252H228.453V244ZM213.765 248V153.664H205.765V248H213.765ZM252.005 203.616C257.978 203.616 263.211 202.274 266.898 198.825L261.432 192.983C259.828 194.484 256.955 195.616 252.005 195.616V203.616ZM266.945 198.78C270.452 195.389 272.005 190.843 272.005 185.664H264.005C264.005 189.189 262.998 191.469 261.385 193.028L266.945 198.78ZM272.005 185.664C272.005 180.433 270.469 175.837 266.894 172.5L261.436 178.348C262.981 179.79 264.005 182.02 264.005 185.664H272.005ZM266.898 172.503C263.211 169.054 257.978 167.712 252.005 167.712V175.712C256.955 175.712 259.828 176.844 261.432 178.345L266.898 172.503ZM252.005 167.712H228.453V175.712H252.005V167.712ZM224.453 171.712V199.616H232.453V171.712H224.453ZM228.453 203.616H252.005V195.616H228.453V203.616ZM300.03 153.664V149.664H296.03V153.664H300.03ZM318.718 153.664H322.718V149.664H318.718V153.664ZM318.718 191.552H314.718V195.552H318.718V191.552ZM359.422 191.552V195.552H363.422V191.552H359.422ZM359.422 153.664V149.664H355.422V153.664H359.422ZM377.982 153.664H381.982V149.664H377.982V153.664ZM377.982 248V252H381.982V248H377.982ZM359.422 248H355.422V252H359.422V248ZM359.422 209.984H363.422V205.984H359.422V209.984ZM318.718 209.984V205.984H314.718V209.984H318.718ZM318.718 248V252H322.718V248H318.718ZM300.03 248H296.03V252H300.03V248ZM300.03 157.664H318.718V149.664H300.03V157.664ZM314.718 153.664V191.552H322.718V153.664H314.718ZM318.718 195.552H359.422V187.552H318.718V195.552ZM363.422 191.552V153.664H355.422V191.552H363.422ZM359.422 157.664H377.982V149.664H359.422V157.664ZM373.982 153.664V248H381.982V153.664H373.982ZM377.982 244H359.422V252H377.982V244ZM363.422 248V209.984H355.422V248H363.422ZM359.422 205.984H318.718V213.984H359.422V205.984ZM314.718 209.984V248H322.718V209.984H314.718ZM318.718 244H300.03V252H318.718V244ZM304.03 248V153.664H296.03V248H304.03ZM399.045 153.664V149.664H395.045V153.664H399.045ZM470.853 153.664H474.853V149.664H470.853V153.664ZM470.853 171.84V175.84H474.853V171.84H470.853ZM417.733 171.84V167.84H413.733V171.84H417.733ZM417.733 191.552H413.733V195.552H417.733V191.552ZM456.261 191.552H460.261V187.552H456.261V191.552ZM456.261 209.984V213.984H460.261V209.984H456.261ZM417.733 209.984V205.984H413.733V209.984H417.733ZM417.733 229.696H413.733V233.696H417.733V229.696ZM470.853 229.696H474.853V225.696H470.853V229.696ZM470.853 248V252H474.853V248H470.853ZM399.045 248H395.045V252H399.045V248ZM399.045 157.664H470.853V149.664H399.045V157.664ZM466.853 153.664V171.84H474.853V153.664H466.853ZM470.853 167.84H417.733V175.84H470.853V167.84ZM413.733 171.84V191.552H421.733V171.84H413.733ZM417.733 195.552H456.261V187.552H417.733V195.552ZM452.261 191.552V209.984H460.261V191.552H452.261ZM456.261 205.984H417.733V213.984H456.261V205.984ZM413.733 209.984V229.696H421.733V209.984H413.733ZM417.733 233.696H470.853V225.696H417.733V233.696ZM466.853 229.696V248H474.853V229.696H466.853ZM470.853 244H399.045V252H470.853V244ZM403.045 248V153.664H395.045V248H403.045ZM486.81 153.664V149.664H482.81V153.664H486.81ZM556.186 161.984L558.889 159.035L558.868 159.016L558.846 158.997L556.186 161.984ZM561.306 200.768L557.899 198.672L557.894 198.681L557.888 198.69L561.306 200.768ZM549.53 210.752L550.913 214.505L551.032 214.461L551.149 214.41L549.53 210.752ZM547.098 211.648L545.715 207.895L541.188 209.563L543.666 213.702L547.098 211.648ZM568.858 248V252H575.914L572.29 245.946L568.858 248ZM546.842 248L543.373 249.992L544.526 252H546.842V248ZM528.026 215.232L531.495 213.24L530.342 211.232H528.026V215.232ZM505.498 215.232V211.232H501.498V215.232H505.498ZM505.498 248V252H509.498V248H505.498ZM486.81 248H482.81V252H486.81V248ZM545.562 190.784L548.942 192.923L549.003 192.826L549.059 192.727L545.562 190.784ZM542.874 175.424L545.501 172.408L545.464 172.375L545.426 172.344L542.874 175.424ZM505.498 171.712V167.712H501.498V171.712H505.498ZM505.498 197.056H501.498V201.056H505.498V197.056ZM486.81 157.664H532.25V149.664H486.81V157.664ZM532.25 157.664C541.17 157.664 548.149 160.184 553.526 164.971L558.846 158.997C551.764 152.691 542.786 149.664 532.25 149.664V157.664ZM553.483 164.933C558.676 169.693 561.402 176.151 561.402 184.768H569.402C569.402 174.27 565.984 165.539 558.889 159.035L553.483 164.933ZM561.402 184.768C561.402 190.403 560.172 194.978 557.899 198.672L564.713 202.864C567.901 197.683 569.402 191.592 569.402 184.768H561.402ZM557.888 198.69C555.716 202.263 552.461 205.08 547.911 207.094L551.149 214.41C557.01 211.816 561.605 207.977 564.724 202.846L557.888 198.69ZM548.147 206.999L545.715 207.895L548.481 215.401L550.913 214.505L548.147 206.999ZM543.666 213.702L565.426 250.054L572.29 245.946L550.53 209.594L543.666 213.702ZM568.858 244H546.842V252H568.858V244ZM550.311 246.008L531.495 213.24L524.557 217.224L543.373 249.992L550.311 246.008ZM528.026 211.232H505.498V219.232H528.026V211.232ZM501.498 215.232V248H509.498V215.232H501.498ZM505.498 244H486.81V252H505.498V244ZM490.81 248V153.664H482.81V248H490.81ZM530.458 201.056C538.52 201.056 545.243 198.77 548.942 192.923L542.182 188.645C540.591 191.16 537.244 193.056 530.458 193.056V201.056ZM549.059 192.727C550.35 190.403 550.842 187.66 550.842 184.768H542.842C542.842 186.825 542.481 188.093 542.065 188.841L549.059 192.727ZM550.842 184.768C550.842 179.84 549.128 175.567 545.501 172.408L540.247 178.44C541.91 179.889 542.842 181.845 542.842 184.768H550.842ZM545.426 172.344C541.543 169.126 536.589 167.712 530.97 167.712V175.712C535.25 175.712 538.232 176.772 540.322 178.504L545.426 172.344ZM530.97 167.712H505.498V175.712H530.97V167.712ZM501.498 171.712V197.056H509.498V171.712H501.498ZM505.498 201.056H530.458V193.056H505.498V201.056ZM619.513 224.192L616.197 221.955L616.195 221.958L619.513 224.192ZM629.241 213.44L626.698 210.352L626.654 210.388L626.612 210.426L629.241 213.44ZM641.273 204.48L643.456 207.832L643.489 207.81L643.522 207.788L641.273 204.48ZM652.537 196.544L654.91 199.764L654.943 199.74L654.976 199.714L652.537 196.544ZM660.729 188.736L657.702 186.122L657.658 186.173L657.615 186.225L660.729 188.736ZM659.833 174.144L662.483 171.148L662.439 171.109L662.394 171.071L659.833 174.144ZM637.177 173.888L634.936 170.575L634.846 170.636L634.759 170.701L637.177 173.888ZM632.697 181.952L636.643 182.61L636.649 182.57L636.655 182.531L632.697 181.952ZM632.057 185.792V189.792H635.445L636.003 186.45L632.057 185.792ZM613.625 185.792L609.647 185.373L609.182 189.792H613.625V185.792ZM614.137 180.928L618.115 181.347L618.118 181.318L618.121 181.29L614.137 180.928ZM625.145 160.32L622.646 157.197L622.636 157.204L625.145 160.32ZM672.761 160.96L675.462 158.01L675.442 157.991L675.421 157.973L672.761 160.96ZM677.881 195.776L681.221 197.977L681.241 197.946L681.261 197.915L677.881 195.776ZM668.793 206.4L671.38 209.451L671.449 209.393L671.515 209.331L668.793 206.4ZM657.401 215.232L659.62 218.56L659.655 218.537L659.69 218.513L657.401 215.232ZM646.521 222.912L648.838 226.173L648.86 226.157L648.881 226.142L646.521 222.912ZM638.585 229.696L635.646 226.983L629.449 233.696H638.585V229.696ZM681.593 229.696H685.593V225.696H681.593V229.696ZM681.593 248V252H685.593V248H681.593ZM615.289 248H611.289V252H615.289V248ZM619.289 238.272C619.289 233.835 620.475 229.925 622.831 226.426L616.195 221.958C612.919 226.822 611.289 232.298 611.289 238.272H619.289ZM622.829 226.429C625.075 223.098 628.07 219.769 631.87 216.454L626.612 210.426C622.39 214.108 618.9 217.947 616.197 221.955L622.829 226.429ZM631.784 216.528C636.052 213.013 639.941 210.121 643.456 207.832L639.09 201.128C635.267 203.618 631.134 206.699 626.698 210.352L631.784 216.528ZM643.522 207.788C647.82 204.865 651.617 202.19 654.91 199.764L650.164 193.324C646.972 195.676 643.26 198.292 639.024 201.172L643.522 207.788ZM654.976 199.714C658.498 197.005 661.471 194.188 663.843 191.247L657.615 186.225C655.72 188.575 653.232 190.963 650.098 193.374L654.976 199.714ZM663.756 191.35C665.953 188.807 667.161 185.805 667.161 182.464H659.161C659.161 183.731 658.748 184.911 657.702 186.122L663.756 191.35ZM667.161 182.464C667.161 177.996 665.739 174.028 662.483 171.148L657.183 177.14C658.365 178.186 659.161 179.764 659.161 182.464H667.161ZM662.394 171.071C658.859 168.126 654.141 166.944 648.825 166.944V174.944C653.066 174.944 655.687 175.896 657.272 177.217L662.394 171.071ZM648.825 166.944C643.462 166.944 638.71 168.022 634.936 170.575L639.418 177.201C641.446 175.829 644.46 174.944 648.825 174.944V166.944ZM634.759 170.701C631.332 173.301 629.38 176.992 628.739 181.373L636.655 182.531C637.038 179.914 638.073 178.229 639.595 177.075L634.759 170.701ZM628.751 181.294L628.111 185.134L636.003 186.45L636.643 182.61L628.751 181.294ZM632.057 181.792H613.625V189.792H632.057V181.792ZM617.603 186.211L618.115 181.347L610.159 180.509L609.647 185.373L617.603 186.211ZM618.121 181.29C618.791 173.915 621.933 168.042 627.654 163.436L622.636 157.204C615.216 163.179 611.019 171.045 610.153 180.566L618.121 181.29ZM627.644 163.443C633.267 158.945 640.043 156.64 648.185 156.64V148.64C638.407 148.64 629.823 151.455 622.646 157.197L627.644 163.443ZM648.185 156.64C657.582 156.64 664.755 159.188 670.101 163.947L675.421 157.973C668.308 151.639 659.097 148.64 648.185 148.64V156.64ZM670.06 163.91C675.219 168.634 677.849 174.738 677.849 182.592H685.849C685.849 172.696 682.42 164.38 675.462 158.01L670.06 163.91ZM677.849 182.592C677.849 186.387 676.772 190.047 674.501 193.637L681.261 197.915C684.28 193.143 685.849 188.013 685.849 182.592H677.849ZM674.541 193.575C672.257 197.04 669.441 200.34 666.071 203.469L671.515 209.331C675.313 205.804 678.555 202.021 681.221 197.977L674.541 193.575ZM666.206 203.349C662.363 206.608 658.665 209.473 655.112 211.951L659.69 218.513C663.476 215.871 667.373 212.848 671.38 209.451L666.206 203.349ZM655.182 211.904C652.298 213.826 648.62 216.424 644.161 219.682L648.881 226.142C653.297 222.915 656.872 220.392 659.62 218.56L655.182 211.904ZM644.204 219.651C640.802 222.068 637.93 224.508 635.646 226.983L641.524 232.409C643.336 230.446 645.754 228.364 648.838 226.173L644.204 219.651ZM638.585 233.696H681.593V225.696H638.585V233.696ZM677.593 229.696V248H685.593V229.696H677.593ZM681.593 244H615.289V252H681.593V244ZM619.289 248V238.272H611.289V248H619.289ZM693.985 225.472V221.472H689.985V225.472H693.985ZM714.849 225.472H718.849V221.472H714.849V225.472ZM714.849 248V252H718.849V248H714.849ZM693.985 248H689.985V252H693.985V248ZM693.985 229.472H714.849V221.472H693.985V229.472ZM710.849 225.472V248H718.849V225.472H710.849ZM714.849 244H693.985V252H714.849V244ZM697.985 248V225.472H689.985V248H697.985ZM733.302 234.816L729.784 236.72L729.791 236.733L729.798 236.745L733.302 234.816ZM733.302 166.336L736.82 168.24L733.302 166.336ZM787.958 168.256L791.467 166.335L791.46 166.323L791.453 166.311L787.958 168.256ZM786.934 234.816L783.43 232.887L783.423 232.899L783.416 232.912L786.934 234.816ZM769.526 226.752L772.114 229.802L772.14 229.78L772.166 229.757L769.526 226.752ZM775.158 212.032L771.193 211.503L771.192 211.514L771.19 211.525L775.158 212.032ZM771.702 176.96L775.22 175.057L775.213 175.043L775.205 175.03L771.702 176.96ZM748.534 176.96L752.05 178.867L752.059 178.851L752.067 178.835L748.534 176.96ZM748.534 224.192L752.02 222.231L752.006 222.206L751.991 222.18L748.534 224.192ZM760.182 244.768C748.484 244.768 741.066 240.626 736.806 232.887L729.798 236.745C735.778 247.608 746.28 252.768 760.182 252.768V244.768ZM736.82 232.912C732.179 224.338 729.75 213.598 729.75 200.512H721.75C721.75 214.562 724.356 226.692 729.784 236.72L736.82 232.912ZM729.75 200.512C729.75 187.516 732.177 176.818 736.82 168.24L729.784 164.432C724.358 174.457 721.75 186.543 721.75 200.512H729.75ZM736.82 168.24C741.007 160.505 748.296 156.384 759.798 156.384V148.384C746.042 148.384 735.667 153.565 729.784 164.432L736.82 168.24ZM759.798 156.384C765.687 156.384 770.551 157.59 774.538 159.837C778.512 162.076 781.832 165.473 784.463 170.201L791.453 166.311C788.196 160.458 783.879 155.918 778.466 152.867C773.066 149.824 766.794 148.384 759.798 148.384V156.384ZM784.449 170.177C788.452 177.489 790.614 187.504 790.614 200.512H798.614C798.614 186.725 796.339 175.237 791.467 166.335L784.449 170.177ZM790.614 200.512C790.614 213.589 788.146 224.319 783.43 232.887L790.438 236.745C795.962 226.711 798.614 214.571 798.614 200.512H790.614ZM783.416 232.912C779.24 240.628 771.882 244.768 760.182 244.768V252.768C774.082 252.768 784.559 247.607 790.452 236.72L783.416 232.912ZM759.67 234.336C764.355 234.336 768.562 232.816 772.114 229.802L766.938 223.702C764.858 225.467 762.494 226.336 759.67 226.336V234.336ZM772.166 229.757C776.154 226.252 778.167 220.037 779.126 212.539L771.19 211.525C770.272 218.705 768.53 222.302 766.886 223.747L772.166 229.757ZM779.123 212.561C779.658 208.547 779.926 204.53 779.926 200.512H771.926C771.926 204.174 771.682 207.837 771.193 211.503L779.123 212.561ZM779.926 200.512C779.926 189.793 778.511 181.14 775.22 175.057L768.184 178.863C770.525 183.191 771.926 190.239 771.926 200.512H779.926ZM775.205 175.03C772.096 169.387 766.792 166.688 760.182 166.688V174.688C764.324 174.688 766.7 176.17 768.199 178.89L775.205 175.03ZM760.182 166.688C753.462 166.688 748.046 169.345 745.001 175.085L752.067 178.835C753.459 176.212 755.808 174.688 760.182 174.688V166.688ZM745.018 175.053C741.8 180.986 740.438 189.662 740.438 200.512H748.438C748.438 190.029 749.807 183.003 752.05 178.867L745.018 175.053ZM740.438 200.512C740.438 211.716 741.779 220.535 745.077 226.204L751.991 222.18C749.828 218.462 748.438 211.494 748.438 200.512H740.438ZM745.048 226.153C748.134 231.64 753.263 234.336 759.67 234.336V226.336C755.837 226.336 753.542 224.936 752.02 222.231L745.048 226.153Z" fill="url(#paint0_linear_1_62)"/>
<path d="M177.75 103.56L180.749 100.913L180.741 100.904L177.75 103.56ZM177.75 35.592L174.778 32.9146L174.771 32.9224L177.75 35.592ZM238.55 29.704L236.275 32.994L236.293 33.0068L236.312 33.0194L238.55 29.704ZM253.654 49.288L255.307 52.9304L258.739 51.3729L257.388 47.8546L253.654 49.288ZM237.014 56.84V60.84H237.879L238.667 60.4824L237.014 56.84ZM236.886 56.84L233.209 58.4157L234.248 60.84H236.886V56.84ZM235.734 54.152L232.05 55.7106L232.054 55.7191L232.057 55.7277L235.734 54.152ZM227.158 43.656L224.923 46.9731L224.931 46.9787L224.939 46.9842L227.158 43.656ZM200.15 41.992L198.542 38.3294L200.15 41.992ZM191.446 48.136L188.473 45.4601L188.465 45.4693L188.456 45.4785L191.446 48.136ZM191.446 90.888L188.416 93.4988L188.419 93.5025L191.446 90.888ZM227.158 95.496L224.956 92.1569L224.93 92.1738L224.905 92.1911L227.158 95.496ZM235.734 85L232.032 83.4855L232.021 83.5125L232.01 83.5396L235.734 85ZM236.886 82.184V78.184H234.201L233.184 80.6695L236.886 82.184ZM237.014 82.184L238.69 78.5522L237.893 78.184H237.014V82.184ZM253.654 89.864L257.365 91.3562L258.784 87.8264L255.33 86.2322L253.654 89.864ZM238.55 109.448L240.841 112.727L240.852 112.719L240.863 112.711L238.55 109.448ZM211.414 113.768C198.335 113.768 188.26 109.421 180.749 100.913L174.751 106.207C183.965 116.643 196.333 121.768 211.414 121.768V113.768ZM180.741 100.904C173.358 92.5887 169.59 82.2183 169.59 69.512H161.59C161.59 83.9417 165.928 96.27 174.759 106.216L180.741 100.904ZM169.59 69.512C169.59 56.8052 173.358 46.4858 180.729 38.2616L174.771 32.9224C165.929 42.7888 161.59 55.0828 161.59 69.512H169.59ZM180.722 38.2693C188.423 29.7215 198.522 25.384 211.414 25.384V17.384C196.487 17.384 184.144 22.5185 174.778 32.9147L180.722 38.2693ZM211.414 25.384C220.699 25.384 228.945 27.9254 236.275 32.994L240.825 26.414C232.112 20.3892 222.268 17.384 211.414 17.384V25.384ZM236.312 33.0194C242.392 37.1231 246.941 42.9602 249.92 50.7214L257.388 47.8546C253.882 38.7198 248.362 31.5009 240.788 26.3886L236.312 33.0194ZM252.001 45.6456L235.361 53.1976L238.667 60.4824L255.307 52.9304L252.001 45.6456ZM237.014 52.84H236.886V60.84H237.014V52.84ZM240.563 55.2643L239.411 52.5763L232.057 55.7277L233.209 58.4157L240.563 55.2643ZM239.418 52.5934C237.25 47.4691 233.897 43.3414 229.377 40.3278L224.939 46.9842C228.099 49.0906 230.463 51.9602 232.05 55.7106L239.418 52.5934ZM229.393 40.3389C224.753 37.2119 219.438 35.688 213.59 35.688V43.688C217.982 43.688 221.712 44.8095 224.923 46.9731L229.393 40.3389ZM213.59 35.688C207.795 35.688 202.716 36.4969 198.542 38.3294L201.758 45.6546C204.581 44.4151 208.462 43.688 213.59 43.688V35.688ZM198.542 38.3294C194.581 40.0686 191.196 42.4339 188.473 45.4601L194.419 50.8119C196.304 48.7181 198.722 46.9874 201.758 45.6546L198.542 38.3294ZM188.456 45.4785C182.884 51.7475 180.278 59.8964 180.278 69.512H188.278C188.278 61.3782 190.451 55.2765 194.436 50.7934L188.456 45.4785ZM180.278 69.512C180.278 78.9843 182.898 87.094 188.416 93.4988L194.476 88.2772C190.437 83.5886 188.278 77.4477 188.278 69.512H180.278ZM188.419 93.5025C194.273 100.281 202.935 103.336 213.59 103.336V95.336C204.447 95.336 198.347 92.7588 194.473 88.2735L188.419 93.5025ZM213.59 103.336C219.549 103.336 224.889 101.885 229.411 98.8009L224.905 92.1911C221.918 94.2274 218.212 95.336 213.59 95.336V103.336ZM229.36 98.8351C234.039 95.7489 237.441 91.603 239.458 86.4604L232.01 83.5396C230.613 87.101 228.298 89.9524 224.956 92.1569L229.36 98.8351ZM239.436 86.5145L240.588 83.6985L233.184 80.6695L232.032 83.4855L239.436 86.5145ZM236.886 86.184H237.014V78.184H236.886V86.184ZM235.338 85.8158L251.978 93.4958L255.33 86.2322L238.69 78.5522L235.338 85.8158ZM249.943 88.3718C246.877 95.996 242.302 101.886 236.237 106.185L240.863 112.711C248.281 107.453 253.775 100.287 257.365 91.3562L249.943 88.3718ZM236.259 106.169C229.028 111.223 220.791 113.768 211.414 113.768V121.768C222.346 121.768 232.2 118.767 240.841 112.727L236.259 106.169ZM299.936 80.136H303.936V78.8827L303.221 77.8535L299.936 80.136ZM260 22.664V18.664H252.35L256.715 24.9465L260 22.664ZM282.656 22.664L285.941 20.382L284.748 18.664H282.656V22.664ZM309.152 60.808L305.867 63.09L309.144 67.808L312.432 63.0974L309.152 60.808ZM335.776 22.664V18.664H333.69L332.496 20.3746L335.776 22.664ZM358.432 22.664L361.72 24.9416L366.068 18.664H358.432V22.664ZM318.624 80.136L315.336 77.8584L314.624 78.886V80.136H318.624ZM318.624 117V121H322.624V117H318.624ZM299.936 117H295.936V121H299.936V117ZM303.221 77.8535L263.285 20.3815L256.715 24.9465L296.651 82.4185L303.221 77.8535ZM260 26.664H282.656V18.664H260V26.664ZM279.371 24.946L305.867 63.09L312.437 58.526L285.941 20.382L279.371 24.946ZM312.432 63.0974L339.056 24.9534L332.496 20.3746L305.872 58.5186L312.432 63.0974ZM335.776 26.664H358.432V18.664H335.776V26.664ZM355.144 20.3864L315.336 77.8584L321.912 82.4136L361.72 24.9416L355.144 20.3864ZM314.624 80.136V117H322.624V80.136H314.624ZM318.624 113H299.936V121H318.624V113ZM303.936 117V80.136H295.936V117H303.936ZM369.99 22.664V18.664H365.99V22.664H369.99ZM437.062 31.496L434.192 34.2825L434.213 34.3036L434.234 34.3244L437.062 31.496ZM437.19 68.232L434.414 65.3517L430.85 68.7864L434.956 71.5503L437.19 68.232ZM446.79 80.008L443.081 81.5048L443.102 81.5583L443.125 81.6113L446.79 80.008ZM443.59 105.736L440.436 103.276L440.429 103.285L443.59 105.736ZM429.126 114.952L427.953 111.128L427.869 111.154L427.786 111.183L429.126 114.952ZM369.99 117H365.99V121H369.99V117ZM424.646 55.176L421.068 53.3871L421.052 53.42L421.036 53.4531L424.646 55.176ZM424.902 46.728L421.169 48.1639L421.211 48.2749L421.261 48.3832L424.902 46.728ZM423.11 43.912L420.224 46.6821L420.253 46.7116L420.282 46.7404L423.11 43.912ZM388.678 40.712V36.712H384.678V40.712H388.678ZM388.678 60.808H384.678V64.808H388.678V60.808ZM426.95 96.136L424.55 92.936L424.522 92.9571L424.494 92.9786L426.95 96.136ZM426.822 82.056L424.146 85.0292L424.163 85.0441L424.18 85.0589L426.822 82.056ZM388.678 78.6V74.6H384.678V78.6H388.678ZM388.678 98.824H384.678V102.824H388.678V98.824ZM369.99 26.664H412.742V18.664H369.99V26.664ZM412.742 26.664C422.474 26.664 429.424 29.3718 434.192 34.2825L439.932 28.7095C433.265 21.8442 424.002 18.664 412.742 18.664V26.664ZM434.234 34.3244C438.194 38.2847 440.23 43.2937 440.23 49.672H448.23C448.23 41.373 445.487 34.2646 439.89 28.6676L434.234 34.3244ZM440.23 49.672C440.23 56.675 438.169 61.7341 434.414 65.3517L439.966 71.1123C445.598 65.6846 448.23 58.3703 448.23 49.672H440.23ZM434.956 71.5503C438.745 74.1003 441.423 77.3972 443.081 81.5048L450.499 78.5112C448.232 72.8908 444.51 68.3371 439.424 64.9137L434.956 71.5503ZM443.125 81.6113C444.037 83.6939 444.582 86.4809 444.582 90.12H452.582C452.582 85.7377 451.933 81.7834 450.455 78.4047L443.125 81.6113ZM444.582 90.12C444.582 95.4995 443.143 99.806 440.436 103.276L446.744 108.196C450.693 103.133 452.582 97.0285 452.582 90.12H444.582ZM440.429 103.285C437.811 106.66 433.775 109.343 427.953 111.128L430.299 118.776C437.277 116.636 442.883 113.174 446.751 108.187L440.429 103.285ZM427.786 111.183C424.506 112.349 420.255 113 414.918 113V121C420.845 121 426.066 120.285 430.466 118.721L427.786 111.183ZM414.918 113H369.99V121H414.918V113ZM373.99 117V22.664H365.99V117H373.99ZM412.742 64.808C419.595 64.808 425.504 62.665 428.256 56.8989L421.036 53.4531C420.204 55.1963 418.177 56.808 412.742 56.808V64.808ZM428.224 56.9648C429.138 55.1369 429.542 53.1436 429.542 51.08H421.542C421.542 52.0884 421.349 52.8258 421.068 53.3871L428.224 56.9648ZM429.542 51.08C429.542 48.9703 429.335 46.8134 428.543 45.0728L421.261 48.3832C421.26 48.3827 421.284 48.4363 421.318 48.5629C421.352 48.6883 421.39 48.8649 421.425 49.102C421.495 49.5826 421.542 50.2327 421.542 51.08H429.542ZM428.635 45.2921C428.027 43.7101 427.138 42.2833 425.938 41.0836L420.282 46.7404C420.618 47.0767 420.924 47.5272 421.169 48.1639L428.635 45.2921ZM425.996 41.1419C422.926 37.9441 418.578 36.712 413.766 36.712V44.712C417.317 44.712 419.198 45.6133 420.224 46.6821L425.996 41.1419ZM413.766 36.712H388.678V44.712H413.766V36.712ZM384.678 40.712V60.808H392.678V40.712H384.678ZM388.678 64.808H412.742V56.808H388.678V64.808ZM416.07 102.824C421.348 102.824 426.058 101.898 429.406 99.2934L424.494 92.9786C423.234 93.9585 420.691 94.824 416.07 94.824V102.824ZM429.35 99.336C432.582 96.9124 434.022 93.3597 434.022 89.352H426.022C426.022 91.3176 425.414 92.2876 424.55 92.936L429.35 99.336ZM434.022 89.352C434.022 85.2824 432.51 81.7328 429.465 79.0531L424.18 85.0589C425.401 86.1339 426.022 87.4482 426.022 89.352H434.022ZM429.498 79.0828C425.887 75.8327 420.751 74.6 414.918 74.6V82.6C419.837 82.6 422.637 83.6713 424.146 85.0292L429.498 79.0828ZM414.918 74.6H388.678V82.6H414.918V74.6ZM384.678 78.6V98.824H392.678V78.6H384.678ZM388.678 102.824H416.07V94.824H388.678V102.824ZM464.63 22.664V18.664H460.63V22.664H464.63ZM536.438 22.664H540.438V18.664H536.438V22.664ZM536.438 40.84V44.84H540.438V40.84H536.438ZM483.318 40.84V36.84H479.318V40.84H483.318ZM483.318 60.552H479.318V64.552H483.318V60.552ZM521.846 60.552H525.846V56.552H521.846V60.552ZM521.846 78.984V82.984H525.846V78.984H521.846ZM483.318 78.984V74.984H479.318V78.984H483.318ZM483.318 98.696H479.318V102.696H483.318V98.696ZM536.438 98.696H540.438V94.696H536.438V98.696ZM536.438 117V121H540.438V117H536.438ZM464.63 117H460.63V121H464.63V117ZM464.63 26.664H536.438V18.664H464.63V26.664ZM532.438 22.664V40.84H540.438V22.664H532.438ZM536.438 36.84H483.318V44.84H536.438V36.84ZM479.318 40.84V60.552H487.318V40.84H479.318ZM483.318 64.552H521.846V56.552H483.318V64.552ZM517.846 60.552V78.984H525.846V60.552H517.846ZM521.846 74.984H483.318V82.984H521.846V74.984ZM479.318 78.984V98.696H487.318V78.984H479.318ZM483.318 102.696H536.438V94.696H483.318V102.696ZM532.438 98.696V117H540.438V98.696H532.438ZM536.438 113H464.63V121H536.438V113ZM468.63 117V22.664H460.63V117H468.63ZM552.395 22.664V18.664H548.395V22.664H552.395ZM621.771 30.984L624.474 28.0354L624.453 28.0158L624.431 27.9966L621.771 30.984ZM626.891 69.768L623.484 67.6716L623.479 67.681L623.473 67.6903L626.891 69.768ZM615.115 79.752L616.498 83.5054L616.617 83.4613L616.734 83.4097L615.115 79.752ZM612.683 80.648L611.3 76.8946L606.773 78.5626L609.251 82.7024L612.683 80.648ZM634.443 117V121H641.499L637.875 114.946L634.443 117ZM612.427 117L608.958 118.992L610.111 121H612.427V117ZM593.611 84.232L597.08 82.2402L595.927 80.232H593.611V84.232ZM571.083 84.232V80.232H567.083V84.232H571.083ZM571.083 117V121H575.083V117H571.083ZM552.395 117H548.395V121H552.395V117ZM611.147 59.784L614.527 61.9226L614.588 61.8262L614.644 61.7266L611.147 59.784ZM608.459 44.424L611.086 41.4077L611.049 41.3753L611.011 41.3439L608.459 44.424ZM571.083 40.712V36.712H567.083V40.712H571.083ZM571.083 66.056H567.083V70.056H571.083V66.056ZM552.395 26.664H597.835V18.664H552.395V26.664ZM597.835 26.664C606.755 26.664 613.734 29.1836 619.111 33.9714L624.431 27.9966C617.349 21.6911 608.371 18.664 597.835 18.664V26.664ZM619.068 33.9326C624.261 38.6927 626.987 45.1509 626.987 53.768H634.987C634.987 43.2705 631.569 34.5393 624.474 28.0354L619.068 33.9326ZM626.987 53.768C626.987 59.403 625.757 63.9784 623.484 67.6716L630.298 71.8644C633.486 66.6829 634.987 60.5916 634.987 53.768H626.987ZM623.473 67.6903C621.301 71.2633 618.046 74.0804 613.496 76.0943L616.734 83.4097C622.595 80.8156 627.19 76.9767 630.309 71.8457L623.473 67.6903ZM613.732 75.9986L611.3 76.8946L614.066 84.4014L616.498 83.5054L613.732 75.9986ZM609.251 82.7024L631.011 119.054L637.875 114.946L616.115 78.5936L609.251 82.7024ZM634.443 113H612.427V121H634.443V113ZM615.896 115.008L597.08 82.2402L590.142 86.2238L608.958 118.992L615.896 115.008ZM593.611 80.232H571.083V88.232H593.611V80.232ZM567.083 84.232V117H575.083V84.232H567.083ZM571.083 113H552.395V121H571.083V113ZM556.395 117V22.664H548.395V117H556.395ZM596.043 70.056C604.105 70.056 610.828 67.7702 614.527 61.9226L607.767 57.6454C606.176 60.1604 602.829 62.056 596.043 62.056V70.056ZM614.644 61.7266C615.935 59.4028 616.427 56.6601 616.427 53.768H608.427C608.427 55.8252 608.066 57.0932 607.65 57.8414L614.644 61.7266ZM616.427 53.768C616.427 48.8399 614.713 44.5669 611.086 41.4077L605.832 47.4403C607.495 48.8891 608.427 50.8454 608.427 53.768H616.427ZM611.011 41.3439C607.128 38.1263 602.174 36.712 596.555 36.712V44.712C600.835 44.712 603.817 45.7724 605.907 47.5041L611.011 41.3439ZM596.555 36.712H571.083V44.712H596.555V36.712ZM567.083 40.712V66.056H575.083V40.712H567.083ZM571.083 70.056H596.043V62.056H571.083V70.056ZM17.525 234.56L20.5236 231.913L20.5162 231.904L17.525 234.56ZM17.525 166.592L14.5531 163.915L14.5462 163.922L17.525 166.592ZM78.325 160.704L76.05 163.994L76.0685 164.007L76.0871 164.019L78.325 160.704ZM93.429 180.288L95.0821 183.93L98.5138 182.373L97.1634 178.855L93.429 180.288ZM76.789 187.84V191.84H77.6542L78.4421 191.482L76.789 187.84ZM76.661 187.84L72.9844 189.416L74.0234 191.84H76.661V187.84ZM75.509 185.152L71.8251 186.711L71.8288 186.719L71.8324 186.728L75.509 185.152ZM66.933 174.656L64.6976 177.973L64.7059 177.979L64.7142 177.984L66.933 174.656ZM39.925 172.992L38.317 169.329L39.925 172.992ZM31.221 179.136L28.2478 176.46L28.2396 176.469L28.2314 176.479L31.221 179.136ZM31.221 221.888L28.1906 224.499L28.1937 224.502L31.221 221.888ZM66.933 226.496L64.7306 223.157L64.705 223.174L64.6796 223.191L66.933 226.496ZM75.509 216L71.8068 214.485L71.7958 214.512L71.7851 214.54L75.509 216ZM76.661 213.184V209.184H73.9756L72.9588 211.669L76.661 213.184ZM76.789 213.184L78.4652 209.552L77.6675 209.184H76.789V213.184ZM93.429 220.864L97.1403 222.356L98.5594 218.826L95.1052 217.232L93.429 220.864ZM78.325 240.448L80.6165 243.727L80.6274 243.719L80.6382 243.711L78.325 240.448ZM51.189 244.768C38.1097 244.768 28.0351 240.421 20.5236 231.913L14.5264 237.207C23.7403 247.643 36.1083 252.768 51.189 252.768V244.768ZM20.5162 231.904C13.1332 223.589 9.365 213.218 9.365 200.512H1.365C1.365 214.942 5.70347 227.27 14.5338 237.216L20.5162 231.904ZM9.365 200.512C9.365 187.805 13.133 177.486 20.5038 169.262L14.5462 163.922C5.70363 173.789 1.365 186.083 1.365 200.512H9.365ZM20.4968 169.269C28.1976 160.721 38.2974 156.384 51.189 156.384V148.384C36.2619 148.384 23.919 153.519 14.5532 163.915L20.4968 169.269ZM51.189 156.384C60.4736 156.384 68.72 158.925 76.05 163.994L80.6 157.414C71.8873 151.389 62.0431 148.384 51.189 148.384V156.384ZM76.0871 164.019C82.1667 168.123 86.7156 173.96 89.6946 181.721L97.1634 178.855C93.6571 169.72 88.1366 162.501 80.5629 157.389L76.0871 164.019ZM91.7759 176.646L75.1359 184.198L78.4421 191.482L95.0821 183.93L91.7759 176.646ZM76.789 183.84H76.661V191.84H76.789V183.84ZM80.3376 186.264L79.1856 183.576L71.8324 186.728L72.9844 189.416L80.3376 186.264ZM79.1929 183.593C77.0249 178.469 73.6723 174.341 69.1518 171.328L64.7142 177.984C67.8737 180.091 70.2385 182.96 71.8251 186.711L79.1929 183.593ZM69.1684 171.339C64.5282 168.212 59.2134 166.688 53.365 166.688V174.688C57.7566 174.688 61.4871 175.809 64.6976 177.973L69.1684 171.339ZM53.365 166.688C47.5699 166.688 42.4911 167.497 38.317 169.329L41.533 176.655C44.3562 175.415 48.2374 174.688 53.365 174.688V166.688ZM38.317 169.329C34.3557 171.069 30.9714 173.434 28.2478 176.46L34.1942 181.812C36.0786 179.718 38.497 177.987 41.533 176.655L38.317 169.329ZM28.2314 176.479C22.659 182.747 20.053 190.896 20.053 200.512H28.053C28.053 192.378 30.2257 186.277 34.2106 181.793L28.2314 176.479ZM20.053 200.512C20.053 209.984 22.6726 218.094 28.1906 224.499L34.2514 219.277C30.2121 214.589 28.053 208.448 28.053 200.512H20.053ZM28.1937 224.502C34.0481 231.281 42.7103 234.336 53.365 234.336V226.336C44.2224 226.336 38.1219 223.759 34.2483 219.274L28.1937 224.502ZM53.365 234.336C59.324 234.336 64.6637 232.885 69.1863 229.801L64.6796 223.191C61.693 225.227 57.9873 226.336 53.365 226.336V234.336ZM69.1354 229.835C73.8144 226.749 77.2162 222.603 79.2329 217.46L71.7851 214.54C70.3885 218.101 68.0729 220.952 64.7306 223.157L69.1354 229.835ZM79.2112 217.515L80.3632 214.699L72.9588 211.669L71.8068 214.485L79.2112 217.515ZM76.661 217.184H76.789V209.184H76.661V217.184ZM75.1128 216.816L91.7528 224.496L95.1052 217.232L78.4652 209.552L75.1128 216.816ZM89.7177 219.372C86.6523 226.996 82.0767 232.886 76.0118 237.185L80.6382 243.711C88.0559 238.453 93.5497 231.287 97.1403 222.356L89.7177 219.372ZM76.0335 237.169C68.8033 242.223 60.5664 244.768 51.189 244.768V252.768C62.1209 252.768 71.9747 249.767 80.6165 243.727L76.0335 237.169ZM139.711 211.136H143.711V209.883L142.996 208.853L139.711 211.136ZM99.775 153.664V149.664H92.1246L96.4902 155.947L99.775 153.664ZM122.431 153.664L125.716 151.382L124.523 149.664H122.431V153.664ZM148.927 191.808L145.642 194.09L148.919 198.808L152.207 194.097L148.927 191.808ZM175.551 153.664V149.664H173.465L172.271 151.375L175.551 153.664ZM198.207 153.664L201.495 155.942L205.843 149.664H198.207V153.664ZM158.399 211.136L155.111 208.858L154.399 209.886V211.136H158.399ZM158.399 248V252H162.399V248H158.399ZM139.711 248H135.711V252H139.711V248ZM142.996 208.853L103.06 151.381L96.4902 155.947L136.426 213.419L142.996 208.853ZM99.775 157.664H122.431V149.664H99.775V157.664ZM119.146 155.946L145.642 194.09L152.212 189.526L125.716 151.382L119.146 155.946ZM152.207 194.097L178.831 155.953L172.271 151.375L145.647 189.519L152.207 194.097ZM175.551 157.664H198.207V149.664H175.551V157.664ZM194.919 151.386L155.111 208.858L161.687 213.414L201.495 155.942L194.919 151.386ZM154.399 211.136V248H162.399V211.136H154.399ZM158.399 244H139.711V252H158.399V244ZM143.711 248V211.136H135.711V248H143.711ZM209.765 153.664V149.664H205.765V153.664H209.765ZM277.349 162.368L280.074 159.44L280.065 159.431L280.056 159.423L277.349 162.368ZM277.221 208.96L279.926 211.907L279.947 211.887L279.969 211.867L277.221 208.96ZM228.453 217.536V213.536H224.453V217.536H228.453ZM228.453 248V252H232.453V248H228.453ZM209.765 248H205.765V252H209.765V248ZM264.165 195.904L266.898 198.825L266.922 198.803L266.945 198.78L264.165 195.904ZM264.165 175.424L261.432 178.345L261.436 178.348L264.165 175.424ZM228.453 171.712V167.712H224.453V171.712H228.453ZM228.453 199.616H224.453V203.616H228.453V199.616ZM209.765 157.664H252.645V149.664H209.765V157.664ZM252.645 157.664C261.993 157.664 269.198 160.311 274.642 165.313L280.056 159.423C272.87 152.82 263.606 149.664 252.645 149.664V157.664ZM274.624 165.296C279.823 170.134 282.565 176.725 282.565 185.536H290.565C290.565 174.891 287.163 166.036 280.074 159.44L274.624 165.296ZM282.565 185.536C282.565 194.327 279.792 201.026 274.473 206.053L279.969 211.867C287.109 205.118 290.565 196.201 290.565 185.536H282.565ZM274.516 206.013C269.168 210.922 262.011 213.536 252.645 213.536V221.536C263.589 221.536 272.815 218.433 279.926 211.907L274.516 206.013ZM252.645 213.536H228.453V221.536H252.645V213.536ZM224.453 217.536V248H232.453V217.536H224.453ZM228.453 244H209.765V252H228.453V244ZM213.765 248V153.664H205.765V248H213.765ZM252.005 203.616C257.978 203.616 263.211 202.274 266.898 198.825L261.432 192.983C259.828 194.484 256.955 195.616 252.005 195.616V203.616ZM266.945 198.78C270.452 195.389 272.005 190.843 272.005 185.664H264.005C264.005 189.189 262.998 191.469 261.385 193.028L266.945 198.78ZM272.005 185.664C272.005 180.433 270.469 175.837 266.894 172.5L261.436 178.348C262.981 179.79 264.005 182.02 264.005 185.664H272.005ZM266.898 172.503C263.211 169.054 257.978 167.712 252.005 167.712V175.712C256.955 175.712 259.828 176.844 261.432 178.345L266.898 172.503ZM252.005 167.712H228.453V175.712H252.005V167.712ZM224.453 171.712V199.616H232.453V171.712H224.453ZM228.453 203.616H252.005V195.616H228.453V203.616ZM300.03 153.664V149.664H296.03V153.664H300.03ZM318.718 153.664H322.718V149.664H318.718V153.664ZM318.718 191.552H314.718V195.552H318.718V191.552ZM359.422 191.552V195.552H363.422V191.552H359.422ZM359.422 153.664V149.664H355.422V153.664H359.422ZM377.982 153.664H381.982V149.664H377.982V153.664ZM377.982 248V252H381.982V248H377.982ZM359.422 248H355.422V252H359.422V248ZM359.422 209.984H363.422V205.984H359.422V209.984ZM318.718 209.984V205.984H314.718V209.984H318.718ZM318.718 248V252H322.718V248H318.718ZM300.03 248H296.03V252H300.03V248ZM300.03 157.664H318.718V149.664H300.03V157.664ZM314.718 153.664V191.552H322.718V153.664H314.718ZM318.718 195.552H359.422V187.552H318.718V195.552ZM363.422 191.552V153.664H355.422V191.552H363.422ZM359.422 157.664H377.982V149.664H359.422V157.664ZM373.982 153.664V248H381.982V153.664H373.982ZM377.982 244H359.422V252H377.982V244ZM363.422 248V209.984H355.422V248H363.422ZM359.422 205.984H318.718V213.984H359.422V205.984ZM314.718 209.984V248H322.718V209.984H314.718ZM318.718 244H300.03V252H318.718V244ZM304.03 248V153.664H296.03V248H304.03ZM399.045 153.664V149.664H395.045V153.664H399.045ZM470.853 153.664H474.853V149.664H470.853V153.664ZM470.853 171.84V175.84H474.853V171.84H470.853ZM417.733 171.84V167.84H413.733V171.84H417.733ZM417.733 191.552H413.733V195.552H417.733V191.552ZM456.261 191.552H460.261V187.552H456.261V191.552ZM456.261 209.984V213.984H460.261V209.984H456.261ZM417.733 209.984V205.984H413.733V209.984H417.733ZM417.733 229.696H413.733V233.696H417.733V229.696ZM470.853 229.696H474.853V225.696H470.853V229.696ZM470.853 248V252H474.853V248H470.853ZM399.045 248H395.045V252H399.045V248ZM399.045 157.664H470.853V149.664H399.045V157.664ZM466.853 153.664V171.84H474.853V153.664H466.853ZM470.853 167.84H417.733V175.84H470.853V167.84ZM413.733 171.84V191.552H421.733V171.84H413.733ZM417.733 195.552H456.261V187.552H417.733V195.552ZM452.261 191.552V209.984H460.261V191.552H452.261ZM456.261 205.984H417.733V213.984H456.261V205.984ZM413.733 209.984V229.696H421.733V209.984H413.733ZM417.733 233.696H470.853V225.696H417.733V233.696ZM466.853 229.696V248H474.853V229.696H466.853ZM470.853 244H399.045V252H470.853V244ZM403.045 248V153.664H395.045V248H403.045ZM486.81 153.664V149.664H482.81V153.664H486.81ZM556.186 161.984L558.889 159.035L558.868 159.016L558.846 158.997L556.186 161.984ZM561.306 200.768L557.899 198.672L557.894 198.681L557.888 198.69L561.306 200.768ZM549.53 210.752L550.913 214.505L551.032 214.461L551.149 214.41L549.53 210.752ZM547.098 211.648L545.715 207.895L541.188 209.563L543.666 213.702L547.098 211.648ZM568.858 248V252H575.914L572.29 245.946L568.858 248ZM546.842 248L543.373 249.992L544.526 252H546.842V248ZM528.026 215.232L531.495 213.24L530.342 211.232H528.026V215.232ZM505.498 215.232V211.232H501.498V215.232H505.498ZM505.498 248V252H509.498V248H505.498ZM486.81 248H482.81V252H486.81V248ZM545.562 190.784L548.942 192.923L549.003 192.826L549.059 192.727L545.562 190.784ZM542.874 175.424L545.501 172.408L545.464 172.375L545.426 172.344L542.874 175.424ZM505.498 171.712V167.712H501.498V171.712H505.498ZM505.498 197.056H501.498V201.056H505.498V197.056ZM486.81 157.664H532.25V149.664H486.81V157.664ZM532.25 157.664C541.17 157.664 548.149 160.184 553.526 164.971L558.846 158.997C551.764 152.691 542.786 149.664 532.25 149.664V157.664ZM553.483 164.933C558.676 169.693 561.402 176.151 561.402 184.768H569.402C569.402 174.27 565.984 165.539 558.889 159.035L553.483 164.933ZM561.402 184.768C561.402 190.403 560.172 194.978 557.899 198.672L564.713 202.864C567.901 197.683 569.402 191.592 569.402 184.768H561.402ZM557.888 198.69C555.716 202.263 552.461 205.08 547.911 207.094L551.149 214.41C557.01 211.816 561.605 207.977 564.724 202.846L557.888 198.69ZM548.147 206.999L545.715 207.895L548.481 215.401L550.913 214.505L548.147 206.999ZM543.666 213.702L565.426 250.054L572.29 245.946L550.53 209.594L543.666 213.702ZM568.858 244H546.842V252H568.858V244ZM550.311 246.008L531.495 213.24L524.557 217.224L543.373 249.992L550.311 246.008ZM528.026 211.232H505.498V219.232H528.026V211.232ZM501.498 215.232V248H509.498V215.232H501.498ZM505.498 244H486.81V252H505.498V244ZM490.81 248V153.664H482.81V248H490.81ZM530.458 201.056C538.52 201.056 545.243 198.77 548.942 192.923L542.182 188.645C540.591 191.16 537.244 193.056 530.458 193.056V201.056ZM549.059 192.727C550.35 190.403 550.842 187.66 550.842 184.768H542.842C542.842 186.825 542.481 188.093 542.065 188.841L549.059 192.727ZM550.842 184.768C550.842 179.84 549.128 175.567 545.501 172.408L540.247 178.44C541.91 179.889 542.842 181.845 542.842 184.768H550.842ZM545.426 172.344C541.543 169.126 536.589 167.712 530.97 167.712V175.712C535.25 175.712 538.232 176.772 540.322 178.504L545.426 172.344ZM530.97 167.712H505.498V175.712H530.97V167.712ZM501.498 171.712V197.056H509.498V171.712H501.498ZM505.498 201.056H530.458V193.056H505.498V201.056ZM619.513 224.192L616.197 221.955L616.195 221.958L619.513 224.192ZM629.241 213.44L626.698 210.352L626.654 210.388L626.612 210.426L629.241 213.44ZM641.273 204.48L643.456 207.832L643.489 207.81L643.522 207.788L641.273 204.48ZM652.537 196.544L654.91 199.764L654.943 199.74L654.976 199.714L652.537 196.544ZM660.729 188.736L657.702 186.122L657.658 186.173L657.615 186.225L660.729 188.736ZM659.833 174.144L662.483 171.148L662.439 171.109L662.394 171.071L659.833 174.144ZM637.177 173.888L634.936 170.575L634.846 170.636L634.759 170.701L637.177 173.888ZM632.697 181.952L636.643 182.61L636.649 182.57L636.655 182.531L632.697 181.952ZM632.057 185.792V189.792H635.445L636.003 186.45L632.057 185.792ZM613.625 185.792L609.647 185.373L609.182 189.792H613.625V185.792ZM614.137 180.928L618.115 181.347L618.118 181.318L618.121 181.29L614.137 180.928ZM625.145 160.32L622.646 157.197L622.636 157.204L625.145 160.32ZM672.761 160.96L675.462 158.01L675.442 157.991L675.421 157.973L672.761 160.96ZM677.881 195.776L681.221 197.977L681.241 197.946L681.261 197.915L677.881 195.776ZM668.793 206.4L671.38 209.451L671.449 209.393L671.515 209.331L668.793 206.4ZM657.401 215.232L659.62 218.56L659.655 218.537L659.69 218.513L657.401 215.232ZM646.521 222.912L648.838 226.173L648.86 226.157L648.881 226.142L646.521 222.912ZM638.585 229.696L635.646 226.983L629.449 233.696H638.585V229.696ZM681.593 229.696H685.593V225.696H681.593V229.696ZM681.593 248V252H685.593V248H681.593ZM615.289 248H611.289V252H615.289V248ZM619.289 238.272C619.289 233.835 620.475 229.925 622.831 226.426L616.195 221.958C612.919 226.822 611.289 232.298 611.289 238.272H619.289ZM622.829 226.429C625.075 223.098 628.07 219.769 631.87 216.454L626.612 210.426C622.39 214.108 618.9 217.947 616.197 221.955L622.829 226.429ZM631.784 216.528C636.052 213.013 639.941 210.121 643.456 207.832L639.09 201.128C635.267 203.618 631.134 206.699 626.698 210.352L631.784 216.528ZM643.522 207.788C647.82 204.865 651.617 202.19 654.91 199.764L650.164 193.324C646.972 195.676 643.26 198.292 639.024 201.172L643.522 207.788ZM654.976 199.714C658.498 197.005 661.471 194.188 663.843 191.247L657.615 186.225C655.72 188.575 653.232 190.963 650.098 193.374L654.976 199.714ZM663.756 191.35C665.953 188.807 667.161 185.805 667.161 182.464H659.161C659.161 183.731 658.748 184.911 657.702 186.122L663.756 191.35ZM667.161 182.464C667.161 177.996 665.739 174.028 662.483 171.148L657.183 177.14C658.365 178.186 659.161 179.764 659.161 182.464H667.161ZM662.394 171.071C658.859 168.126 654.141 166.944 648.825 166.944V174.944C653.066 174.944 655.687 175.896 657.272 177.217L662.394 171.071ZM648.825 166.944C643.462 166.944 638.71 168.022 634.936 170.575L639.418 177.201C641.446 175.829 644.46 174.944 648.825 174.944V166.944ZM634.759 170.701C631.332 173.301 629.38 176.992 628.739 181.373L636.655 182.531C637.038 179.914 638.073 178.229 639.595 177.075L634.759 170.701ZM628.751 181.294L628.111 185.134L636.003 186.45L636.643 182.61L628.751 181.294ZM632.057 181.792H613.625V189.792H632.057V181.792ZM617.603 186.211L618.115 181.347L610.159 180.509L609.647 185.373L617.603 186.211ZM618.121 181.29C618.791 173.915 621.933 168.042 627.654 163.436L622.636 157.204C615.216 163.179 611.019 171.045 610.153 180.566L618.121 181.29ZM627.644 163.443C633.267 158.945 640.043 156.64 648.185 156.64V148.64C638.407 148.64 629.823 151.455 622.646 157.197L627.644 163.443ZM648.185 156.64C657.582 156.64 664.755 159.188 670.101 163.947L675.421 157.973C668.308 151.639 659.097 148.64 648.185 148.64V156.64ZM670.06 163.91C675.219 168.634 677.849 174.738 677.849 182.592H685.849C685.849 172.696 682.42 164.38 675.462 158.01L670.06 163.91ZM677.849 182.592C677.849 186.387 676.772 190.047 674.501 193.637L681.261 197.915C684.28 193.143 685.849 188.013 685.849 182.592H677.849ZM674.541 193.575C672.257 197.04 669.441 200.34 666.071 203.469L671.515 209.331C675.313 205.804 678.555 202.021 681.221 197.977L674.541 193.575ZM666.206 203.349C662.363 206.608 658.665 209.473 655.112 211.951L659.69 218.513C663.476 215.871 667.373 212.848 671.38 209.451L666.206 203.349ZM655.182 211.904C652.298 213.826 648.62 216.424 644.161 219.682L648.881 226.142C653.297 222.915 656.872 220.392 659.62 218.56L655.182 211.904ZM644.204 219.651C640.802 222.068 637.93 224.508 635.646 226.983L641.524 232.409C643.336 230.446 645.754 228.364 648.838 226.173L644.204 219.651ZM638.585 233.696H681.593V225.696H638.585V233.696ZM677.593 229.696V248H685.593V229.696H677.593ZM681.593 244H615.289V252H681.593V244ZM619.289 248V238.272H611.289V248H619.289ZM693.985 225.472V221.472H689.985V225.472H693.985ZM714.849 225.472H718.849V221.472H714.849V225.472ZM714.849 248V252H718.849V248H714.849ZM693.985 248H689.985V252H693.985V248ZM693.985 229.472H714.849V221.472H693.985V229.472ZM710.849 225.472V248H718.849V225.472H710.849ZM714.849 244H693.985V252H714.849V244ZM697.985 248V225.472H689.985V248H697.985ZM733.302 234.816L729.784 236.72L729.791 236.733L729.798 236.745L733.302 234.816ZM733.302 166.336L736.82 168.24L733.302 166.336ZM787.958 168.256L791.467 166.335L791.46 166.323L791.453 166.311L787.958 168.256ZM786.934 234.816L783.43 232.887L783.423 232.899L783.416 232.912L786.934 234.816ZM769.526 226.752L772.114 229.802L772.14 229.78L772.166 229.757L769.526 226.752ZM775.158 212.032L771.193 211.503L771.192 211.514L771.19 211.525L775.158 212.032ZM771.702 176.96L775.22 175.057L775.213 175.043L775.205 175.03L771.702 176.96ZM748.534 176.96L752.05 178.867L752.059 178.851L752.067 178.835L748.534 176.96ZM748.534 224.192L752.02 222.231L752.006 222.206L751.991 222.18L748.534 224.192ZM760.182 244.768C748.484 244.768 741.066 240.626 736.806 232.887L729.798 236.745C735.778 247.608 746.28 252.768 760.182 252.768V244.768ZM736.82 232.912C732.179 224.338 729.75 213.598 729.75 200.512H721.75C721.75 214.562 724.356 226.692 729.784 236.72L736.82 232.912ZM729.75 200.512C729.75 187.516 732.177 176.818 736.82 168.24L729.784 164.432C724.358 174.457 721.75 186.543 721.75 200.512H729.75ZM736.82 168.24C741.007 160.505 748.296 156.384 759.798 156.384V148.384C746.042 148.384 735.667 153.565 729.784 164.432L736.82 168.24ZM759.798 156.384C765.687 156.384 770.551 157.59 774.538 159.837C778.512 162.076 781.832 165.473 784.463 170.201L791.453 166.311C788.196 160.458 783.879 155.918 778.466 152.867C773.066 149.824 766.794 148.384 759.798 148.384V156.384ZM784.449 170.177C788.452 177.489 790.614 187.504 790.614 200.512H798.614C798.614 186.725 796.339 175.237 791.467 166.335L784.449 170.177ZM790.614 200.512C790.614 213.589 788.146 224.319 783.43 232.887L790.438 236.745C795.962 226.711 798.614 214.571 798.614 200.512H790.614ZM783.416 232.912C779.24 240.628 771.882 244.768 760.182 244.768V252.768C774.082 252.768 784.559 247.607 790.452 236.72L783.416 232.912ZM759.67 234.336C764.355 234.336 768.562 232.816 772.114 229.802L766.938 223.702C764.858 225.467 762.494 226.336 759.67 226.336V234.336ZM772.166 229.757C776.154 226.252 778.167 220.037 779.126 212.539L771.19 211.525C770.272 218.705 768.53 222.302 766.886 223.747L772.166 229.757ZM779.123 212.561C779.658 208.547 779.926 204.53 779.926 200.512H771.926C771.926 204.174 771.682 207.837 771.193 211.503L779.123 212.561ZM779.926 200.512C779.926 189.793 778.511 181.14 775.22 175.057L768.184 178.863C770.525 183.191 771.926 190.239 771.926 200.512H779.926ZM775.205 175.03C772.096 169.387 766.792 166.688 760.182 166.688V174.688C764.324 174.688 766.7 176.17 768.199 178.89L775.205 175.03ZM760.182 166.688C753.462 166.688 748.046 169.345 745.001 175.085L752.067 178.835C753.459 176.212 755.808 174.688 760.182 174.688V166.688ZM745.018 175.053C741.8 180.986 740.438 189.662 740.438 200.512H748.438C748.438 190.029 749.807 183.003 752.05 178.867L745.018 175.053ZM740.438 200.512C740.438 211.716 741.779 220.535 745.077 226.204L751.991 222.18C749.828 218.462 748.438 211.494 748.438 200.512H740.438ZM745.048 226.153C748.134 231.64 753.263 234.336 759.67 234.336V226.336C755.837 226.336 753.542 224.936 752.02 222.231L745.048 226.153Z" fill="black" fill-opacity="0.3"/>
<defs>
<linearGradient id="paint0_linear_1_62" x1="6.27178" y1="131" x2="735.985" y2="-85.1311" gradientUnits="userSpaceOnUse">
<stop stop-color="#F24D56"/>
<stop offset="0.509216" stop-color="#EE0C77"/>
<stop offset="0.964829" stop-color="#F24D56"/>
</linearGradient>
</defs>
</svg>
