<svg width="1620" height="330" viewBox="0 0 1620 330" fill="none" xmlns="http://www.w3.org/2000/svg">
<path d="M382.698 107.236V103.236H378.698V107.236H382.698ZM459.066 111.536L457.527 115.228L457.554 115.239L457.58 115.25L459.066 111.536ZM477.986 124.264L480.841 121.463L480.827 121.449L480.814 121.436L477.986 124.264ZM477.986 216.972L480.844 219.77L480.849 219.765L480.854 219.76L477.986 216.972ZM459.066 229.7L457.54 226.002L457.527 226.008L459.066 229.7ZM382.698 234H378.698V238H382.698V234ZM461.302 198.396L458.268 195.789L458.258 195.801L458.248 195.812L461.302 198.396ZM461.302 142.84L458.252 145.428L458.26 145.438L458.268 145.447L461.302 142.84ZM407.81 131.488V127.488H403.81V131.488H407.81ZM407.81 209.576H403.81V213.576H407.81V209.576ZM382.698 111.236H437.05V103.236H382.698V111.236ZM437.05 111.236C444.344 111.236 451.157 112.574 457.527 115.228L460.604 107.844C453.214 104.765 445.35 103.236 437.05 103.236V111.236ZM457.58 115.25C463.911 117.782 469.771 121.706 475.157 127.092L480.814 121.436C474.734 115.356 467.98 110.794 460.551 107.822L457.58 115.25ZM475.13 127.065C486.247 138.396 491.874 152.777 491.874 170.532H499.874C499.874 150.906 493.575 134.442 480.841 121.463L475.13 127.065ZM491.874 170.532C491.874 188.287 486.247 202.734 475.117 214.184L480.854 219.76C493.575 206.672 499.874 190.158 499.874 170.532H491.874ZM475.128 214.174C470.122 219.285 464.271 223.225 457.54 226.003L460.592 233.397C468.308 230.213 475.07 225.667 480.844 219.77L475.128 214.174ZM457.527 226.008C451.157 228.662 444.344 230 437.05 230V238C445.35 238 453.214 236.471 460.604 233.392L457.527 226.008ZM437.05 230H382.698V238H437.05V230ZM386.698 234V107.236H378.698V234H386.698ZM436.534 213.576C447.855 213.576 457.25 209.377 464.355 200.98L458.248 195.812C452.74 202.322 445.623 205.576 436.534 205.576V213.576ZM464.335 201.003C471.364 192.824 474.762 182.563 474.762 170.532H466.762C466.762 180.976 463.852 189.291 458.268 195.789L464.335 201.003ZM474.762 170.532C474.762 158.604 471.358 148.404 464.335 140.233L458.268 145.447C463.859 151.953 466.762 160.214 466.762 170.532H474.762ZM464.352 140.252C457.156 131.771 447.776 127.488 436.534 127.488V135.488C445.472 135.488 452.605 138.773 458.252 145.428L464.352 140.252ZM436.534 127.488H407.81V135.488H436.534V127.488ZM403.81 131.488V209.576H411.81V131.488H403.81ZM407.81 213.576H436.534V205.576H407.81V213.576ZM528.265 215.94L531.145 213.164L531.139 213.158L531.133 213.152L528.265 215.94ZM528.437 124.436L531.305 127.224L531.318 127.211L531.33 127.198L528.437 124.436ZM621.317 124.436L618.423 127.198L618.436 127.211L618.448 127.224L621.317 124.436ZM621.317 216.112L618.448 213.324L618.436 213.337L618.423 213.35L621.317 216.112ZM603.601 198.912L600.684 196.175L600.662 196.198L600.641 196.221L603.601 198.912ZM603.601 141.636L606.496 138.876L606.493 138.873L603.601 141.636ZM546.153 141.636L549.048 144.396L549.058 144.386L549.067 144.376L546.153 141.636ZM546.153 198.912L543.236 201.649L543.237 201.651L546.153 198.912ZM574.877 231.032C557.08 231.032 542.608 225.056 531.145 213.164L525.385 218.716C538.46 232.28 555.062 239.032 574.877 239.032V231.032ZM531.133 213.152C520.111 201.809 514.549 187.588 514.549 170.188H506.549C506.549 189.481 512.797 205.761 525.396 218.728L531.133 213.152ZM514.549 170.188C514.549 152.922 520.156 138.694 531.305 127.224L525.568 121.648C512.866 134.716 506.549 150.99 506.549 170.188H514.549ZM531.33 127.198C542.547 115.447 556.947 109.516 574.877 109.516V101.516C554.967 101.516 538.407 108.198 525.543 121.674L531.33 127.198ZM574.877 109.516C592.807 109.516 607.207 115.447 618.423 127.198L624.21 121.674C611.347 108.198 594.787 101.516 574.877 101.516V109.516ZM618.448 127.224C629.47 138.567 635.033 152.788 635.033 170.188H643.033C643.033 150.895 636.785 134.615 624.185 121.648L618.448 127.224ZM635.033 170.188C635.033 187.71 629.465 201.986 618.448 213.324L624.185 218.9C636.79 205.928 643.033 189.588 643.033 170.188H635.033ZM618.423 213.35C607.207 225.101 592.807 231.032 574.877 231.032V239.032C594.787 239.032 611.347 232.35 624.21 218.874L618.423 213.35ZM574.877 214.264C588.028 214.264 598.772 210.17 606.56 201.603L600.641 196.221C594.669 202.79 586.264 206.264 574.877 206.264V214.264ZM606.517 201.649C614.309 193.347 618.093 182.743 618.093 170.188H610.093C610.093 181.025 606.882 189.571 600.684 196.175L606.517 201.649ZM618.093 170.188C618.093 157.634 614.309 147.073 606.496 138.876L600.705 144.396C606.882 150.876 610.093 159.35 610.093 170.188H618.093ZM606.493 138.873C598.312 130.308 587.645 126.112 574.877 126.112V134.112C585.729 134.112 594.213 137.599 600.708 144.399L606.493 138.873ZM574.877 126.112C562.007 126.112 551.321 130.3 543.239 138.896L549.067 144.376C555.432 137.606 563.896 134.112 574.877 134.112V126.112ZM543.257 138.876C535.444 147.073 531.661 157.634 531.661 170.188H539.661C539.661 159.35 542.872 150.876 549.048 144.396L543.257 138.876ZM531.661 170.188C531.661 182.743 535.444 193.347 543.236 201.649L549.069 196.175C542.872 189.571 539.661 181.025 539.661 170.188H531.661ZM543.237 201.651C551.225 210.154 561.925 214.264 574.877 214.264V206.264C563.748 206.264 555.299 202.806 549.068 196.173L543.237 201.651ZM660.558 107.236V103.236H656.558V107.236H660.558ZM684.466 107.236L687.488 104.615L686.292 103.236H684.466V107.236ZM722.65 151.268L719.628 153.889L722.671 157.397L725.69 153.868L722.65 151.268ZM760.318 107.236V103.236H758.476L757.279 104.636L760.318 107.236ZM784.226 107.236H788.226V103.236H784.226V107.236ZM784.226 234V238H788.226V234H784.226ZM759.286 234H755.286V238H759.286V234ZM759.286 148.688H763.286V138.25L756.311 146.015L759.286 148.688ZM722.822 189.28L719.866 191.974L722.844 195.242L725.798 191.953L722.822 189.28ZM685.67 148.516L688.627 145.822L681.67 138.189V148.516H685.67ZM685.67 234V238H689.67V234H685.67ZM660.558 234H656.558V238H660.558V234ZM660.558 111.236H684.466V103.236H660.558V111.236ZM681.444 109.857L719.628 153.889L725.672 148.647L687.488 104.615L681.444 109.857ZM725.69 153.868L763.358 109.836L757.279 104.636L719.611 148.668L725.69 153.868ZM760.318 111.236H784.226V103.236H760.318V111.236ZM780.226 107.236V234H788.226V107.236H780.226ZM784.226 230H759.286V238H784.226V230ZM763.286 234V148.688H755.286V234H763.286ZM756.311 146.015L719.847 186.607L725.798 191.953L762.262 151.361L756.311 146.015ZM725.779 186.586L688.627 145.822L682.714 151.21L719.866 191.974L725.779 186.586ZM681.67 148.516V234H689.67V148.516H681.67ZM685.67 230H660.558V238H685.67V230ZM664.558 234V107.236H656.558V234H664.558ZM853.526 107.236V103.236H850.879L849.844 105.672L853.526 107.236ZM877.778 107.236L881.46 105.672L880.425 103.236H877.778V107.236ZM931.614 234V238H937.659L935.296 232.436L931.614 234ZM904.094 234L900.406 235.548L901.435 238H904.094V234ZM890.162 200.804L893.85 199.256L892.821 196.804H890.162V200.804ZM841.142 200.804V196.804H838.483L837.454 199.256L841.142 200.804ZM827.21 234V238H829.869L830.898 235.548L827.21 234ZM799.69 234L796.008 232.436L793.646 238H799.69V234ZM880.014 176.724V180.724H886.033L883.702 175.175L880.014 176.724ZM865.566 142.324L869.254 140.775L865.544 131.942L861.872 140.791L865.566 142.324ZM851.29 176.724L847.596 175.191L845.299 180.724H851.29V176.724ZM853.526 111.236H877.778V103.236H853.526V111.236ZM874.096 108.8L927.932 235.564L935.296 232.436L881.46 105.672L874.096 108.8ZM931.614 230H904.094V238H931.614V230ZM907.782 232.452L893.85 199.256L886.474 202.352L900.406 235.548L907.782 232.452ZM890.162 196.804H841.142V204.804H890.162V196.804ZM837.454 199.256L823.522 232.452L830.898 235.548L844.83 202.352L837.454 199.256ZM827.21 230H799.69V238H827.21V230ZM803.372 235.564L857.208 108.8L849.844 105.672L796.008 232.436L803.372 235.564ZM883.702 175.175L869.254 140.775L861.878 143.873L876.326 178.273L883.702 175.175ZM861.872 140.791L847.596 175.191L854.985 178.257L869.261 143.857L861.872 140.791ZM851.29 180.724H880.014V172.724H851.29V180.724ZM947.153 107.236V103.236H943.153V107.236H947.153ZM972.265 107.236H976.265V103.236H972.265V107.236ZM972.265 234V238H976.265V234H972.265ZM947.153 234H943.153V238H947.153V234ZM947.153 111.236H972.265V103.236H947.153V111.236ZM968.265 107.236V234H976.265V107.236H968.265ZM972.265 230H947.153V238H972.265V230ZM951.153 234V107.236H943.153V234H951.153ZM1000.59 107.236V103.236H996.587V107.236H1000.59ZM1024.67 107.236L1027.89 104.865L1026.69 103.236H1024.67V107.236ZM1086.59 191.344L1083.37 193.715L1090.59 203.524V191.344H1086.59ZM1086.59 107.236V103.236H1082.59V107.236H1086.59ZM1111.7 107.236H1115.7V103.236H1111.7V107.236ZM1111.7 234V238H1115.7V234H1111.7ZM1087.45 234L1084.22 236.361L1085.42 238H1087.45V234ZM1025.7 149.548L1028.93 147.187L1021.7 137.3V149.548H1025.7ZM1025.7 234V238H1029.7V234H1025.7ZM1000.59 234H996.587V238H1000.59V234ZM1000.59 111.236H1024.67V103.236H1000.59V111.236ZM1021.45 109.607L1083.37 193.715L1089.81 188.973L1027.89 104.865L1021.45 109.607ZM1090.59 191.344V107.236H1082.59V191.344H1090.59ZM1086.59 111.236H1111.7V103.236H1086.59V111.236ZM1107.7 107.236V234H1115.7V107.236H1107.7ZM1111.7 230H1087.45V238H1111.7V230ZM1090.68 231.639L1028.93 147.187L1022.47 151.909L1084.22 236.361L1090.68 231.639ZM1021.7 149.548V234H1029.7V149.548H1021.7ZM1025.7 230H1000.59V238H1025.7V230ZM1004.59 234V107.236H996.587V234H1004.59ZM1150.51 223.164L1148.01 226.287L1148.02 226.295L1150.51 223.164ZM1135.55 193.408L1131.57 193.816L1131.57 193.823L1131.57 193.83L1135.55 193.408ZM1134.86 186.7V182.7H1130.43L1130.88 187.108L1134.86 186.7ZM1160.66 186.7L1164.65 186.458L1164.43 182.7H1160.66V186.7ZM1161.01 192.376L1165 192.136L1165 192.134L1161.01 192.376ZM1169.43 205.62L1167.41 209.07L1167.42 209.077L1167.43 209.083L1169.43 205.62ZM1208.82 207.684L1210.38 211.366L1210.41 211.355L1210.44 211.344L1208.82 207.684ZM1216.05 202.18L1219.66 203.883L1219.66 203.883L1216.05 202.18ZM1214.33 189.968L1216.62 186.691L1216.61 186.683L1216.6 186.675L1214.33 189.968ZM1201.43 184.12L1200.24 187.94L1200.25 187.944L1200.26 187.947L1201.43 184.12ZM1182.85 179.476L1183.74 175.576L1183.72 175.571L1183.69 175.566L1182.85 179.476ZM1163.07 173.284L1164.53 169.558L1164.52 169.557L1163.07 173.284ZM1146.56 162.62L1149.46 159.867L1149.41 159.812L1149.35 159.759L1146.56 162.62ZM1151.89 115.148L1149.38 112.037L1149.37 112.045L1151.89 115.148ZM1225.85 116.352L1223.29 119.422L1223.3 119.437L1223.32 119.451L1225.85 116.352ZM1239.61 143.356L1235.61 143.524L1235.61 143.548L1235.62 143.572L1239.61 143.356ZM1239.95 149.72V153.72H1244.18L1243.95 149.504L1239.95 149.72ZM1214.84 149.72L1210.87 150.232L1211.32 153.72H1214.84V149.72ZM1214.15 144.388L1210.18 144.865L1210.18 144.882L1210.19 144.9L1214.15 144.388ZM1210.71 136.476L1213.82 133.959L1213.82 133.959L1210.71 136.476ZM1200.22 130.628L1199.07 134.459L1199.08 134.462L1199.09 134.464L1200.22 130.628ZM1174.25 130.8L1175.51 134.595L1175.53 134.588L1175.55 134.581L1174.25 130.8ZM1167.03 134.412L1164.53 131.289L1164.42 131.373L1164.32 131.463L1167.03 134.412ZM1164.45 138.196L1168.24 139.461L1168.28 139.356L1168.3 139.248L1164.45 138.196ZM1165.13 146.452L1162.31 149.28L1162.31 149.28L1165.13 146.452ZM1172.19 150.752L1170.68 154.456L1170.71 154.471L1170.75 154.485L1172.19 150.752ZM1184.05 154.536L1182.98 158.389L1183.04 158.407L1183.11 158.423L1184.05 154.536ZM1190.42 156.084L1189.47 159.971L1189.49 159.975L1189.51 159.979L1190.42 156.084ZM1198.5 157.976L1199.55 154.117L1199.48 154.098L1199.41 154.081L1198.5 157.976ZM1202.29 159.008L1203.34 155.151L1203.34 155.149L1202.29 159.008ZM1213.47 162.276L1212.12 166.043L1212.17 166.062L1212.23 166.08L1213.47 162.276ZM1227.4 168.984L1225.26 172.362L1225.26 172.367L1225.27 172.372L1227.4 168.984ZM1238.58 180.336L1235.09 182.301L1235.11 182.335L1235.13 182.368L1238.58 180.336ZM1227.91 224.884L1225.63 221.598L1225.63 221.603L1225.62 221.607L1227.91 224.884ZM1191.11 230.516C1174.08 230.516 1161.56 226.836 1153 220.033L1148.02 226.295C1158.5 234.628 1173.05 238.516 1191.11 238.516V230.516ZM1153.01 220.041C1145.4 213.948 1140.81 205.091 1139.53 192.986L1131.57 193.83C1133.04 207.64 1138.43 218.62 1148.01 226.287L1153.01 220.041ZM1139.53 193L1138.84 186.292L1130.88 187.108L1131.57 193.816L1139.53 193ZM1134.86 190.7H1160.66V182.7H1134.86V190.7ZM1156.67 186.942L1157.01 192.618L1165 192.134L1164.65 186.458L1156.67 186.942ZM1157.01 192.616C1157.44 199.78 1161.07 205.351 1167.41 209.07L1171.46 202.17C1167.25 199.697 1165.26 196.439 1165 192.136L1157.01 192.616ZM1167.43 209.083C1173.46 212.563 1181.54 214.092 1191.28 214.092V206.092C1182.21 206.092 1175.73 204.639 1171.43 202.157L1167.43 209.083ZM1191.28 214.092C1199.32 214.092 1205.83 213.296 1210.38 211.366L1207.26 204.002C1204.24 205.283 1199.06 206.092 1191.28 206.092V214.092ZM1210.44 211.344C1214.48 209.56 1218.09 207.23 1219.66 203.883L1212.43 200.477C1212.17 201.029 1210.96 202.368 1207.21 204.024L1210.44 211.344ZM1219.66 203.883C1220.84 201.395 1221.42 198.749 1221.42 195.988H1213.42C1213.42 197.585 1213.09 199.066 1212.43 200.477L1219.66 203.883ZM1221.42 195.988C1221.42 194.193 1221.13 192.388 1220.31 190.759L1213.16 194.337C1213.26 194.542 1213.42 195.031 1213.42 195.988H1221.42ZM1220.31 190.759C1219.47 189.069 1218.12 187.743 1216.62 186.691L1212.03 193.245C1212.82 193.799 1213.08 194.192 1213.16 194.337L1220.31 190.759ZM1216.6 186.675C1212.83 184.08 1208.13 181.978 1202.59 180.293L1200.26 187.947C1205.27 189.473 1209.17 191.269 1212.05 193.261L1216.6 186.675ZM1202.61 180.3C1199.12 179.216 1192.79 177.637 1183.74 175.576L1181.96 183.376C1191.03 185.443 1197.08 186.96 1200.24 187.94L1202.61 180.3ZM1183.69 175.566C1178.11 174.361 1171.72 172.37 1164.53 169.558L1161.61 177.01C1169.09 179.931 1175.9 182.068 1182.01 183.386L1183.69 175.566ZM1164.52 169.557C1158.21 167.096 1153.23 163.842 1149.46 159.867L1143.66 165.373C1148.37 170.342 1154.4 174.197 1161.62 177.011L1164.52 169.557ZM1149.35 159.759C1145.22 155.72 1142.99 150.178 1142.99 142.668H1134.99C1134.99 151.899 1137.8 159.658 1143.76 165.481L1149.35 159.759ZM1142.99 142.668C1142.99 132.486 1146.77 124.465 1154.41 118.251L1149.37 112.045C1139.81 119.82 1134.99 130.146 1134.99 142.668H1142.99ZM1154.4 118.259C1161.8 112.285 1172.86 109 1188.18 109V101C1171.86 101 1158.73 104.48 1149.38 112.037L1154.4 118.259ZM1188.18 109C1203.63 109 1215.17 112.64 1223.29 119.422L1228.41 113.282C1218.41 104.928 1204.84 101 1188.18 101V109ZM1223.32 119.451C1231.18 125.864 1235.2 133.813 1235.61 143.524L1243.61 143.188C1243.1 131.112 1237.95 121.058 1228.38 113.253L1223.32 119.451ZM1235.62 143.572L1235.96 149.936L1243.95 149.504L1243.6 143.14L1235.62 143.572ZM1239.95 145.72H1214.84V153.72H1239.95V145.72ZM1218.81 149.208L1218.12 143.876L1210.19 144.9L1210.87 150.232L1218.81 149.208ZM1218.13 143.911C1217.68 140.242 1216.21 136.908 1213.82 133.959L1207.6 138.993C1209.12 140.86 1209.93 142.801 1210.18 144.865L1218.13 143.911ZM1213.82 133.959C1211.12 130.618 1206.69 128.369 1201.35 126.792L1199.09 134.464C1203.84 135.869 1206.41 137.518 1207.6 138.993L1213.82 133.959ZM1201.37 126.797C1197.43 125.614 1192.65 125.08 1187.15 125.08V133.08C1192.2 133.08 1196.14 133.578 1199.07 134.459L1201.37 126.797ZM1187.15 125.08C1181.63 125.08 1176.84 125.674 1172.95 127.019L1175.55 134.581C1178.31 133.633 1182.12 133.08 1187.15 133.08V125.08ZM1172.98 127.005C1169.64 128.121 1166.75 129.512 1164.53 131.289L1169.52 137.535C1170.74 136.56 1172.67 135.543 1175.51 134.595L1172.98 127.005ZM1164.32 131.463C1162.62 133.027 1161.2 134.905 1160.59 137.144L1168.3 139.248C1168.38 138.964 1168.68 138.319 1169.73 137.361L1164.32 131.463ZM1160.65 136.931C1159.93 139.089 1159.59 141.353 1159.59 143.7H1167.59C1167.59 142.148 1167.81 140.743 1168.24 139.461L1160.65 136.931ZM1159.59 143.7C1159.59 146.153 1161.08 148.056 1162.31 149.28L1167.96 143.624C1167.79 143.455 1167.67 143.318 1167.59 143.212C1167.5 143.105 1167.47 143.044 1167.46 143.029C1167.44 142.988 1167.59 143.233 1167.59 143.7H1159.59ZM1162.31 149.28C1164.42 151.397 1167.3 153.081 1170.68 154.456L1173.69 147.048C1170.88 145.901 1169.06 144.718 1167.96 143.624L1162.31 149.28ZM1170.75 154.485C1173.9 155.696 1177.99 156.996 1182.98 158.389L1185.13 150.683C1180.26 149.324 1176.44 148.101 1173.62 147.019L1170.75 154.485ZM1183.11 158.423L1189.47 159.971L1191.36 152.197L1185 150.649L1183.11 158.423ZM1189.51 159.979L1197.59 161.871L1199.41 154.081L1191.33 152.189L1189.51 159.979ZM1197.45 161.835L1201.23 162.867L1203.34 155.149L1199.55 154.117L1197.45 161.835ZM1201.23 162.865C1207.12 164.482 1210.69 165.531 1212.12 166.043L1214.81 158.509C1213.04 157.875 1209.15 156.744 1203.34 155.151L1201.23 162.865ZM1212.23 166.08C1216.45 167.453 1220.79 169.533 1225.26 172.362L1229.54 165.606C1224.6 162.472 1219.65 160.081 1214.7 158.472L1212.23 166.08ZM1225.27 172.372C1229.71 175.162 1232.94 178.483 1235.09 182.301L1242.06 178.371C1239.17 173.245 1234.94 168.998 1229.52 165.596L1225.27 172.372ZM1235.13 182.368C1237.38 186.187 1238.53 190.466 1238.53 195.3H1246.53C1246.53 189.126 1245.05 183.429 1242.02 178.304L1235.13 182.368ZM1238.53 195.3C1238.53 207.088 1234.19 215.657 1225.63 221.598L1230.19 228.17C1241.13 220.58 1246.53 209.427 1246.53 195.3H1238.53ZM1225.62 221.607C1217.33 227.412 1205.95 230.516 1191.11 230.516V238.516C1206.99 238.516 1220.15 235.199 1230.21 228.161L1225.62 221.607Z" fill="url(#paint0_linear_454_3)"/>
<path d="M382.698 107.236V103.236H378.698V107.236H382.698ZM459.066 111.536L457.527 115.228L457.554 115.239L457.58 115.25L459.066 111.536ZM477.986 124.264L480.841 121.463L480.827 121.449L480.814 121.436L477.986 124.264ZM477.986 216.972L480.844 219.77L480.849 219.765L480.854 219.76L477.986 216.972ZM459.066 229.7L457.54 226.002L457.527 226.008L459.066 229.7ZM382.698 234H378.698V238H382.698V234ZM461.302 198.396L458.268 195.789L458.258 195.801L458.248 195.812L461.302 198.396ZM461.302 142.84L458.252 145.428L458.26 145.438L458.268 145.447L461.302 142.84ZM407.81 131.488V127.488H403.81V131.488H407.81ZM407.81 209.576H403.81V213.576H407.81V209.576ZM382.698 111.236H437.05V103.236H382.698V111.236ZM437.05 111.236C444.344 111.236 451.157 112.574 457.527 115.228L460.604 107.844C453.214 104.765 445.35 103.236 437.05 103.236V111.236ZM457.58 115.25C463.911 117.782 469.771 121.706 475.157 127.092L480.814 121.436C474.734 115.356 467.98 110.794 460.551 107.822L457.58 115.25ZM475.13 127.065C486.247 138.396 491.874 152.777 491.874 170.532H499.874C499.874 150.906 493.575 134.442 480.841 121.463L475.13 127.065ZM491.874 170.532C491.874 188.287 486.247 202.734 475.117 214.184L480.854 219.76C493.575 206.672 499.874 190.158 499.874 170.532H491.874ZM475.128 214.174C470.122 219.285 464.271 223.225 457.54 226.003L460.592 233.397C468.308 230.213 475.07 225.667 480.844 219.77L475.128 214.174ZM457.527 226.008C451.157 228.662 444.344 230 437.05 230V238C445.35 238 453.214 236.471 460.604 233.392L457.527 226.008ZM437.05 230H382.698V238H437.05V230ZM386.698 234V107.236H378.698V234H386.698ZM436.534 213.576C447.855 213.576 457.25 209.377 464.355 200.98L458.248 195.812C452.74 202.322 445.623 205.576 436.534 205.576V213.576ZM464.335 201.003C471.364 192.824 474.762 182.563 474.762 170.532H466.762C466.762 180.976 463.852 189.291 458.268 195.789L464.335 201.003ZM474.762 170.532C474.762 158.604 471.358 148.404 464.335 140.233L458.268 145.447C463.859 151.953 466.762 160.214 466.762 170.532H474.762ZM464.352 140.252C457.156 131.771 447.776 127.488 436.534 127.488V135.488C445.472 135.488 452.605 138.773 458.252 145.428L464.352 140.252ZM436.534 127.488H407.81V135.488H436.534V127.488ZM403.81 131.488V209.576H411.81V131.488H403.81ZM407.81 213.576H436.534V205.576H407.81V213.576ZM528.265 215.94L531.145 213.164L531.139 213.158L531.133 213.152L528.265 215.94ZM528.437 124.436L531.305 127.224L531.318 127.211L531.33 127.198L528.437 124.436ZM621.317 124.436L618.423 127.198L618.436 127.211L618.448 127.224L621.317 124.436ZM621.317 216.112L618.448 213.324L618.436 213.337L618.423 213.35L621.317 216.112ZM603.601 198.912L600.684 196.175L600.662 196.198L600.641 196.221L603.601 198.912ZM603.601 141.636L606.496 138.876L606.493 138.873L603.601 141.636ZM546.153 141.636L549.048 144.396L549.058 144.386L549.067 144.376L546.153 141.636ZM546.153 198.912L543.236 201.649L543.237 201.651L546.153 198.912ZM574.877 231.032C557.08 231.032 542.608 225.056 531.145 213.164L525.385 218.716C538.46 232.28 555.062 239.032 574.877 239.032V231.032ZM531.133 213.152C520.111 201.809 514.549 187.588 514.549 170.188H506.549C506.549 189.481 512.797 205.761 525.396 218.728L531.133 213.152ZM514.549 170.188C514.549 152.922 520.156 138.694 531.305 127.224L525.568 121.648C512.866 134.716 506.549 150.99 506.549 170.188H514.549ZM531.33 127.198C542.547 115.447 556.947 109.516 574.877 109.516V101.516C554.967 101.516 538.407 108.198 525.543 121.674L531.33 127.198ZM574.877 109.516C592.807 109.516 607.207 115.447 618.423 127.198L624.21 121.674C611.347 108.198 594.787 101.516 574.877 101.516V109.516ZM618.448 127.224C629.47 138.567 635.033 152.788 635.033 170.188H643.033C643.033 150.895 636.785 134.615 624.185 121.648L618.448 127.224ZM635.033 170.188C635.033 187.71 629.465 201.986 618.448 213.324L624.185 218.9C636.79 205.928 643.033 189.588 643.033 170.188H635.033ZM618.423 213.35C607.207 225.101 592.807 231.032 574.877 231.032V239.032C594.787 239.032 611.347 232.35 624.21 218.874L618.423 213.35ZM574.877 214.264C588.028 214.264 598.772 210.17 606.56 201.603L600.641 196.221C594.669 202.79 586.264 206.264 574.877 206.264V214.264ZM606.517 201.649C614.309 193.347 618.093 182.743 618.093 170.188H610.093C610.093 181.025 606.882 189.571 600.684 196.175L606.517 201.649ZM618.093 170.188C618.093 157.634 614.309 147.073 606.496 138.876L600.705 144.396C606.882 150.876 610.093 159.35 610.093 170.188H618.093ZM606.493 138.873C598.312 130.308 587.645 126.112 574.877 126.112V134.112C585.729 134.112 594.213 137.599 600.708 144.399L606.493 138.873ZM574.877 126.112C562.007 126.112 551.321 130.3 543.239 138.896L549.067 144.376C555.432 137.606 563.896 134.112 574.877 134.112V126.112ZM543.257 138.876C535.444 147.073 531.661 157.634 531.661 170.188H539.661C539.661 159.35 542.872 150.876 549.048 144.396L543.257 138.876ZM531.661 170.188C531.661 182.743 535.444 193.347 543.236 201.649L549.069 196.175C542.872 189.571 539.661 181.025 539.661 170.188H531.661ZM543.237 201.651C551.225 210.154 561.925 214.264 574.877 214.264V206.264C563.748 206.264 555.299 202.806 549.068 196.173L543.237 201.651ZM660.558 107.236V103.236H656.558V107.236H660.558ZM684.466 107.236L687.488 104.615L686.292 103.236H684.466V107.236ZM722.65 151.268L719.628 153.889L722.671 157.397L725.69 153.868L722.65 151.268ZM760.318 107.236V103.236H758.476L757.279 104.636L760.318 107.236ZM784.226 107.236H788.226V103.236H784.226V107.236ZM784.226 234V238H788.226V234H784.226ZM759.286 234H755.286V238H759.286V234ZM759.286 148.688H763.286V138.25L756.311 146.015L759.286 148.688ZM722.822 189.28L719.866 191.974L722.844 195.242L725.798 191.953L722.822 189.28ZM685.67 148.516L688.627 145.822L681.67 138.189V148.516H685.67ZM685.67 234V238H689.67V234H685.67ZM660.558 234H656.558V238H660.558V234ZM660.558 111.236H684.466V103.236H660.558V111.236ZM681.444 109.857L719.628 153.889L725.672 148.647L687.488 104.615L681.444 109.857ZM725.69 153.868L763.358 109.836L757.279 104.636L719.611 148.668L725.69 153.868ZM760.318 111.236H784.226V103.236H760.318V111.236ZM780.226 107.236V234H788.226V107.236H780.226ZM784.226 230H759.286V238H784.226V230ZM763.286 234V148.688H755.286V234H763.286ZM756.311 146.015L719.847 186.607L725.798 191.953L762.262 151.361L756.311 146.015ZM725.779 186.586L688.627 145.822L682.714 151.21L719.866 191.974L725.779 186.586ZM681.67 148.516V234H689.67V148.516H681.67ZM685.67 230H660.558V238H685.67V230ZM664.558 234V107.236H656.558V234H664.558ZM853.526 107.236V103.236H850.879L849.844 105.672L853.526 107.236ZM877.778 107.236L881.46 105.672L880.425 103.236H877.778V107.236ZM931.614 234V238H937.659L935.296 232.436L931.614 234ZM904.094 234L900.406 235.548L901.435 238H904.094V234ZM890.162 200.804L893.85 199.256L892.821 196.804H890.162V200.804ZM841.142 200.804V196.804H838.483L837.454 199.256L841.142 200.804ZM827.21 234V238H829.869L830.898 235.548L827.21 234ZM799.69 234L796.008 232.436L793.646 238H799.69V234ZM880.014 176.724V180.724H886.033L883.702 175.175L880.014 176.724ZM865.566 142.324L869.254 140.775L865.544 131.942L861.872 140.791L865.566 142.324ZM851.29 176.724L847.596 175.191L845.299 180.724H851.29V176.724ZM853.526 111.236H877.778V103.236H853.526V111.236ZM874.096 108.8L927.932 235.564L935.296 232.436L881.46 105.672L874.096 108.8ZM931.614 230H904.094V238H931.614V230ZM907.782 232.452L893.85 199.256L886.474 202.352L900.406 235.548L907.782 232.452ZM890.162 196.804H841.142V204.804H890.162V196.804ZM837.454 199.256L823.522 232.452L830.898 235.548L844.83 202.352L837.454 199.256ZM827.21 230H799.69V238H827.21V230ZM803.372 235.564L857.208 108.8L849.844 105.672L796.008 232.436L803.372 235.564ZM883.702 175.175L869.254 140.775L861.878 143.873L876.326 178.273L883.702 175.175ZM861.872 140.791L847.596 175.191L854.985 178.257L869.261 143.857L861.872 140.791ZM851.29 180.724H880.014V172.724H851.29V180.724ZM947.153 107.236V103.236H943.153V107.236H947.153ZM972.265 107.236H976.265V103.236H972.265V107.236ZM972.265 234V238H976.265V234H972.265ZM947.153 234H943.153V238H947.153V234ZM947.153 111.236H972.265V103.236H947.153V111.236ZM968.265 107.236V234H976.265V107.236H968.265ZM972.265 230H947.153V238H972.265V230ZM951.153 234V107.236H943.153V234H951.153ZM1000.59 107.236V103.236H996.587V107.236H1000.59ZM1024.67 107.236L1027.89 104.865L1026.69 103.236H1024.67V107.236ZM1086.59 191.344L1083.37 193.715L1090.59 203.524V191.344H1086.59ZM1086.59 107.236V103.236H1082.59V107.236H1086.59ZM1111.7 107.236H1115.7V103.236H1111.7V107.236ZM1111.7 234V238H1115.7V234H1111.7ZM1087.45 234L1084.22 236.361L1085.42 238H1087.45V234ZM1025.7 149.548L1028.93 147.187L1021.7 137.3V149.548H1025.7ZM1025.7 234V238H1029.7V234H1025.7ZM1000.59 234H996.587V238H1000.59V234ZM1000.59 111.236H1024.67V103.236H1000.59V111.236ZM1021.45 109.607L1083.37 193.715L1089.81 188.973L1027.89 104.865L1021.45 109.607ZM1090.59 191.344V107.236H1082.59V191.344H1090.59ZM1086.59 111.236H1111.7V103.236H1086.59V111.236ZM1107.7 107.236V234H1115.7V107.236H1107.7ZM1111.7 230H1087.45V238H1111.7V230ZM1090.68 231.639L1028.93 147.187L1022.47 151.909L1084.22 236.361L1090.68 231.639ZM1021.7 149.548V234H1029.7V149.548H1021.7ZM1025.7 230H1000.59V238H1025.7V230ZM1004.59 234V107.236H996.587V234H1004.59ZM1150.51 223.164L1148.01 226.287L1148.02 226.295L1150.51 223.164ZM1135.55 193.408L1131.57 193.816L1131.57 193.823L1131.57 193.83L1135.55 193.408ZM1134.86 186.7V182.7H1130.43L1130.88 187.108L1134.86 186.7ZM1160.66 186.7L1164.65 186.458L1164.43 182.7H1160.66V186.7ZM1161.01 192.376L1165 192.136L1165 192.134L1161.01 192.376ZM1169.43 205.62L1167.41 209.07L1167.42 209.077L1167.43 209.083L1169.43 205.62ZM1208.82 207.684L1210.38 211.366L1210.41 211.355L1210.44 211.344L1208.82 207.684ZM1216.05 202.18L1219.66 203.883L1219.66 203.883L1216.05 202.18ZM1214.33 189.968L1216.62 186.691L1216.61 186.683L1216.6 186.675L1214.33 189.968ZM1201.43 184.12L1200.24 187.94L1200.25 187.944L1200.26 187.947L1201.43 184.12ZM1182.85 179.476L1183.74 175.576L1183.72 175.571L1183.69 175.566L1182.85 179.476ZM1163.07 173.284L1164.53 169.558L1164.52 169.557L1163.07 173.284ZM1146.56 162.62L1149.46 159.867L1149.41 159.812L1149.35 159.759L1146.56 162.62ZM1151.89 115.148L1149.38 112.037L1149.37 112.045L1151.89 115.148ZM1225.85 116.352L1223.29 119.422L1223.3 119.437L1223.32 119.451L1225.85 116.352ZM1239.61 143.356L1235.61 143.524L1235.61 143.548L1235.62 143.572L1239.61 143.356ZM1239.95 149.72V153.72H1244.18L1243.95 149.504L1239.95 149.72ZM1214.84 149.72L1210.87 150.232L1211.32 153.72H1214.84V149.72ZM1214.15 144.388L1210.18 144.865L1210.18 144.882L1210.19 144.9L1214.15 144.388ZM1210.71 136.476L1213.82 133.959L1213.82 133.959L1210.71 136.476ZM1200.22 130.628L1199.07 134.459L1199.08 134.462L1199.09 134.464L1200.22 130.628ZM1174.25 130.8L1175.51 134.595L1175.53 134.588L1175.55 134.581L1174.25 130.8ZM1167.03 134.412L1164.53 131.289L1164.42 131.373L1164.32 131.463L1167.03 134.412ZM1164.45 138.196L1168.24 139.461L1168.28 139.356L1168.3 139.248L1164.45 138.196ZM1165.13 146.452L1162.31 149.28L1162.31 149.28L1165.13 146.452ZM1172.19 150.752L1170.68 154.456L1170.71 154.471L1170.75 154.485L1172.19 150.752ZM1184.05 154.536L1182.98 158.389L1183.04 158.407L1183.11 158.423L1184.05 154.536ZM1190.42 156.084L1189.47 159.971L1189.49 159.975L1189.51 159.979L1190.42 156.084ZM1198.5 157.976L1199.55 154.117L1199.48 154.098L1199.41 154.081L1198.5 157.976ZM1202.29 159.008L1203.34 155.151L1203.34 155.149L1202.29 159.008ZM1213.47 162.276L1212.12 166.043L1212.17 166.062L1212.23 166.08L1213.47 162.276ZM1227.4 168.984L1225.26 172.362L1225.26 172.367L1225.27 172.372L1227.4 168.984ZM1238.58 180.336L1235.09 182.301L1235.11 182.335L1235.13 182.368L1238.58 180.336ZM1227.91 224.884L1225.63 221.598L1225.63 221.603L1225.62 221.607L1227.91 224.884ZM1191.11 230.516C1174.08 230.516 1161.56 226.836 1153 220.033L1148.02 226.295C1158.5 234.628 1173.05 238.516 1191.11 238.516V230.516ZM1153.01 220.041C1145.4 213.948 1140.81 205.091 1139.53 192.986L1131.57 193.83C1133.04 207.64 1138.43 218.62 1148.01 226.287L1153.01 220.041ZM1139.53 193L1138.84 186.292L1130.88 187.108L1131.57 193.816L1139.53 193ZM1134.86 190.7H1160.66V182.7H1134.86V190.7ZM1156.67 186.942L1157.01 192.618L1165 192.134L1164.65 186.458L1156.67 186.942ZM1157.01 192.616C1157.44 199.78 1161.07 205.351 1167.41 209.07L1171.46 202.17C1167.25 199.697 1165.26 196.439 1165 192.136L1157.01 192.616ZM1167.43 209.083C1173.46 212.563 1181.54 214.092 1191.28 214.092V206.092C1182.21 206.092 1175.73 204.639 1171.43 202.157L1167.43 209.083ZM1191.28 214.092C1199.32 214.092 1205.83 213.296 1210.38 211.366L1207.26 204.002C1204.24 205.283 1199.06 206.092 1191.28 206.092V214.092ZM1210.44 211.344C1214.48 209.56 1218.09 207.23 1219.66 203.883L1212.43 200.477C1212.17 201.029 1210.96 202.368 1207.21 204.024L1210.44 211.344ZM1219.66 203.883C1220.84 201.395 1221.42 198.749 1221.42 195.988H1213.42C1213.42 197.585 1213.09 199.066 1212.43 200.477L1219.66 203.883ZM1221.42 195.988C1221.42 194.193 1221.13 192.388 1220.31 190.759L1213.16 194.337C1213.26 194.542 1213.42 195.031 1213.42 195.988H1221.42ZM1220.31 190.759C1219.47 189.069 1218.12 187.743 1216.62 186.691L1212.03 193.245C1212.82 193.799 1213.08 194.192 1213.16 194.337L1220.31 190.759ZM1216.6 186.675C1212.83 184.08 1208.13 181.978 1202.59 180.293L1200.26 187.947C1205.27 189.473 1209.17 191.269 1212.05 193.261L1216.6 186.675ZM1202.61 180.3C1199.12 179.216 1192.79 177.637 1183.74 175.576L1181.96 183.376C1191.03 185.443 1197.08 186.96 1200.24 187.94L1202.61 180.3ZM1183.69 175.566C1178.11 174.361 1171.72 172.37 1164.53 169.558L1161.61 177.01C1169.09 179.931 1175.9 182.068 1182.01 183.386L1183.69 175.566ZM1164.52 169.557C1158.21 167.096 1153.23 163.842 1149.46 159.867L1143.66 165.373C1148.37 170.342 1154.4 174.197 1161.62 177.011L1164.52 169.557ZM1149.35 159.759C1145.22 155.72 1142.99 150.178 1142.99 142.668H1134.99C1134.99 151.899 1137.8 159.658 1143.76 165.481L1149.35 159.759ZM1142.99 142.668C1142.99 132.486 1146.77 124.465 1154.41 118.251L1149.37 112.045C1139.81 119.82 1134.99 130.146 1134.99 142.668H1142.99ZM1154.4 118.259C1161.8 112.285 1172.86 109 1188.18 109V101C1171.86 101 1158.73 104.48 1149.38 112.037L1154.4 118.259ZM1188.18 109C1203.63 109 1215.17 112.64 1223.29 119.422L1228.41 113.282C1218.41 104.928 1204.84 101 1188.18 101V109ZM1223.32 119.451C1231.18 125.864 1235.2 133.813 1235.61 143.524L1243.61 143.188C1243.1 131.112 1237.95 121.058 1228.38 113.253L1223.32 119.451ZM1235.62 143.572L1235.96 149.936L1243.95 149.504L1243.6 143.14L1235.62 143.572ZM1239.95 145.72H1214.84V153.72H1239.95V145.72ZM1218.81 149.208L1218.12 143.876L1210.19 144.9L1210.87 150.232L1218.81 149.208ZM1218.13 143.911C1217.68 140.242 1216.21 136.908 1213.82 133.959L1207.6 138.993C1209.12 140.86 1209.93 142.801 1210.18 144.865L1218.13 143.911ZM1213.82 133.959C1211.12 130.618 1206.69 128.369 1201.35 126.792L1199.09 134.464C1203.84 135.869 1206.41 137.518 1207.6 138.993L1213.82 133.959ZM1201.37 126.797C1197.43 125.614 1192.65 125.08 1187.15 125.08V133.08C1192.2 133.08 1196.14 133.578 1199.07 134.459L1201.37 126.797ZM1187.15 125.08C1181.63 125.08 1176.84 125.674 1172.95 127.019L1175.55 134.581C1178.31 133.633 1182.12 133.08 1187.15 133.08V125.08ZM1172.98 127.005C1169.64 128.121 1166.75 129.512 1164.53 131.289L1169.52 137.535C1170.74 136.56 1172.67 135.543 1175.51 134.595L1172.98 127.005ZM1164.32 131.463C1162.62 133.027 1161.2 134.905 1160.59 137.144L1168.3 139.248C1168.38 138.964 1168.68 138.319 1169.73 137.361L1164.32 131.463ZM1160.65 136.931C1159.93 139.089 1159.59 141.353 1159.59 143.7H1167.59C1167.59 142.148 1167.81 140.743 1168.24 139.461L1160.65 136.931ZM1159.59 143.7C1159.59 146.153 1161.08 148.056 1162.31 149.28L1167.96 143.624C1167.79 143.455 1167.67 143.318 1167.59 143.212C1167.5 143.105 1167.47 143.044 1167.46 143.029C1167.44 142.988 1167.59 143.233 1167.59 143.7H1159.59ZM1162.31 149.28C1164.42 151.397 1167.3 153.081 1170.68 154.456L1173.69 147.048C1170.88 145.901 1169.06 144.718 1167.96 143.624L1162.31 149.28ZM1170.75 154.485C1173.9 155.696 1177.99 156.996 1182.98 158.389L1185.13 150.683C1180.26 149.324 1176.44 148.101 1173.62 147.019L1170.75 154.485ZM1183.11 158.423L1189.47 159.971L1191.36 152.197L1185 150.649L1183.11 158.423ZM1189.51 159.979L1197.59 161.871L1199.41 154.081L1191.33 152.189L1189.51 159.979ZM1197.45 161.835L1201.23 162.867L1203.34 155.149L1199.55 154.117L1197.45 161.835ZM1201.23 162.865C1207.12 164.482 1210.69 165.531 1212.12 166.043L1214.81 158.509C1213.04 157.875 1209.15 156.744 1203.34 155.151L1201.23 162.865ZM1212.23 166.08C1216.45 167.453 1220.79 169.533 1225.26 172.362L1229.54 165.606C1224.6 162.472 1219.65 160.081 1214.7 158.472L1212.23 166.08ZM1225.27 172.372C1229.71 175.162 1232.94 178.483 1235.09 182.301L1242.06 178.371C1239.17 173.245 1234.94 168.998 1229.52 165.596L1225.27 172.372ZM1235.13 182.368C1237.38 186.187 1238.53 190.466 1238.53 195.3H1246.53C1246.53 189.126 1245.05 183.429 1242.02 178.304L1235.13 182.368ZM1238.53 195.3C1238.53 207.088 1234.19 215.657 1225.63 221.598L1230.19 228.17C1241.13 220.58 1246.53 209.427 1246.53 195.3H1238.53ZM1225.62 221.607C1217.33 227.412 1205.95 230.516 1191.11 230.516V238.516C1206.99 238.516 1220.15 235.199 1230.21 228.161L1225.62 221.607Z" fill="black" fill-opacity="0.3"/>
<defs>
<linearGradient id="paint0_linear_454_3" x1="12.7004" y1="165" x2="1322.91" y2="-458.903" gradientUnits="userSpaceOnUse">
<stop stop-color="#F24D56"/>
<stop offset="0.509216" stop-color="#EE0C77"/>
<stop offset="0.964829" stop-color="#F24D56"/>
</linearGradient>
</defs>
</svg>
