<svg width="1620" height="330" viewBox="0 0 1620 330" fill="none" xmlns="http://www.w3.org/2000/svg">
<path d="M277.939 107.236V103.236H273.939V107.236H277.939ZM368.755 118.932L371.48 116.004L371.471 115.995L371.461 115.987L368.755 118.932ZM368.583 181.54L371.288 184.487L371.309 184.467L371.331 184.447L368.583 181.54ZM303.051 193.064V189.064H299.051V193.064H303.051ZM303.051 234V238H307.051V234H303.051ZM277.939 234H273.939V238H277.939V234ZM351.039 163.996L353.771 166.917L353.795 166.895L353.819 166.872L351.039 163.996ZM351.039 136.476L348.306 139.397L348.31 139.4L351.039 136.476ZM303.051 131.488V127.488H299.051V131.488H303.051ZM303.051 168.984H299.051V172.984H303.051V168.984ZM277.939 111.236H335.559V103.236H277.939V111.236ZM335.559 111.236C348.398 111.236 358.434 114.88 366.048 121.877L371.461 115.987C362.105 107.389 350.011 103.236 335.559 103.236V111.236ZM366.03 121.86C373.341 128.664 377.139 137.909 377.139 150.064H385.139C385.139 136.075 380.68 124.566 371.48 116.004L366.03 121.86ZM377.139 150.064C377.139 162.199 373.295 171.582 365.835 178.633L371.331 184.447C380.612 175.674 385.139 164.073 385.139 150.064H377.139ZM365.878 178.593C358.388 185.467 348.415 189.064 335.559 189.064V197.064C349.993 197.064 362.036 192.978 371.288 184.487L365.878 178.593ZM335.559 189.064H303.051V197.064H335.559V189.064ZM299.051 193.064V234H307.051V193.064H299.051ZM303.051 230H277.939V238H303.051V230ZM281.939 234V107.236H273.939V234H281.939ZM334.699 172.984C342.549 172.984 349.176 171.216 353.771 166.917L348.306 161.075C345.793 163.426 341.526 164.984 334.699 164.984V172.984ZM353.819 166.872C358.206 162.631 360.199 156.911 360.199 150.236H352.199C352.199 155.257 350.751 158.711 348.259 161.12L353.819 166.872ZM360.199 150.236C360.199 143.48 358.223 137.71 353.768 133.552L348.31 139.4C350.734 141.663 352.199 145.067 352.199 150.236H360.199ZM353.771 133.555C349.176 129.256 342.549 127.488 334.699 127.488V135.488C341.526 135.488 345.793 137.046 348.306 139.397L353.771 133.555ZM334.699 127.488H303.051V135.488H334.699V127.488ZM299.051 131.488V168.984H307.051V131.488H299.051ZM303.051 172.984H334.699V164.984H303.051V172.984ZM399.232 107.236V103.236H395.232V107.236H399.232ZM492.456 118.416L495.159 115.467L495.138 115.448L495.116 115.429L492.456 118.416ZM499.336 170.532L495.93 168.436L495.924 168.445L495.918 168.454L499.336 170.532ZM483.512 183.948L484.895 187.701L485.015 187.657L485.131 187.606L483.512 183.948ZM480.244 185.152L478.862 181.399L474.334 183.067L476.812 187.206L480.244 185.152ZM509.484 234V238H516.541L512.917 231.946L509.484 234ZM479.9 234L476.432 235.992L477.585 238H479.9V234ZM454.616 189.968L458.085 187.976L456.932 185.968H454.616V189.968ZM424.344 189.968V185.968H420.344V189.968H424.344ZM424.344 234V238H428.344V234H424.344ZM399.232 234H395.232V238H399.232V234ZM478.18 157.116L481.561 159.255L481.622 159.158L481.677 159.059L478.18 157.116ZM474.568 136.476L477.196 133.46L477.158 133.427L477.12 133.396L474.568 136.476ZM424.344 131.488V127.488H420.344V131.488H424.344ZM424.344 165.544H420.344V169.544H424.344V165.544ZM399.232 111.236H460.292V103.236H399.232V111.236ZM460.292 111.236C472.557 111.236 482.278 114.709 489.796 121.403L495.116 115.429C485.893 107.216 474.172 103.236 460.292 103.236V111.236ZM489.754 121.365C497.058 128.061 500.84 137.13 500.84 149.032H508.84C508.84 135.249 504.366 123.907 495.159 115.467L489.754 121.365ZM500.84 149.032C500.84 156.808 499.141 163.217 495.93 168.436L502.743 172.628C506.87 165.922 508.84 157.997 508.84 149.032H500.84ZM495.918 168.454C492.837 173.523 488.233 177.484 481.893 180.29L485.131 187.606C492.781 184.22 498.726 179.237 502.755 172.61L495.918 168.454ZM482.13 180.195L478.862 181.399L481.627 188.905L484.895 187.701L482.13 180.195ZM476.812 187.206L506.052 236.054L512.917 231.946L483.677 183.098L476.812 187.206ZM509.484 230H479.9V238H509.484V230ZM483.369 232.008L458.085 187.976L451.148 191.96L476.432 235.992L483.369 232.008ZM454.616 185.968H424.344V193.968H454.616V185.968ZM420.344 189.968V234H428.344V189.968H420.344ZM424.344 230H399.232V238H424.344V230ZM403.232 234V107.236H395.232V234H403.232ZM457.884 169.544C468.498 169.544 476.952 166.54 481.561 159.255L474.8 154.977C472.3 158.93 467.223 161.544 457.884 161.544V169.544ZM481.677 159.059C483.261 156.207 483.9 152.775 483.9 149.032H475.9C475.9 151.94 475.393 153.897 474.684 155.173L481.677 159.059ZM483.9 149.032C483.9 142.755 481.732 137.411 477.196 133.46L471.941 139.492C474.514 141.733 475.9 144.76 475.9 149.032H483.9ZM477.12 133.396C472.21 129.328 465.892 127.488 458.572 127.488V135.488C464.554 135.488 468.9 136.974 472.016 139.556L477.12 133.396ZM458.572 127.488H424.344V135.488H458.572V127.488ZM420.344 131.488V165.544H428.344V131.488H420.344ZM424.344 169.544H457.884V161.544H424.344V169.544ZM530.94 107.236V103.236H526.94V107.236H530.94ZM556.052 107.236H560.052V103.236H556.052V107.236ZM556.052 234V238H560.052V234H556.052ZM530.94 234H526.94V238H530.94V234ZM530.94 111.236H556.052V103.236H530.94V111.236ZM552.052 107.236V234H560.052V107.236H552.052ZM556.052 230H530.94V238H556.052V230ZM534.94 234V107.236H526.94V234H534.94ZM577.494 213.704L574.332 211.255L573.494 212.336V213.704H577.494ZM641.306 131.316L644.469 133.765L649.464 127.316H641.306V131.316ZM577.494 131.316H573.494V135.316H577.494V131.316ZM577.494 107.236V103.236H573.494V107.236H577.494ZM675.534 107.236H679.534V103.236H675.534V107.236ZM675.534 127.704L678.692 130.16L679.534 129.076V127.704H675.534ZM611.722 209.748L608.565 207.292L603.544 213.748H611.722V209.748ZM675.534 209.748H679.534V205.748H675.534V209.748ZM675.534 234V238H679.534V234H675.534ZM577.494 234H573.494V238H577.494V234ZM580.657 216.153L644.469 133.765L638.144 128.867L574.332 211.255L580.657 216.153ZM641.306 127.316H577.494V135.316H641.306V127.316ZM581.494 131.316V107.236H573.494V131.316H581.494ZM577.494 111.236H675.534V103.236H577.494V111.236ZM671.534 107.236V127.704H679.534V107.236H671.534ZM672.377 125.248L608.565 207.292L614.88 212.204L678.692 130.16L672.377 125.248ZM611.722 213.748H675.534V205.748H611.722V213.748ZM671.534 209.748V234H679.534V209.748H671.534ZM675.534 230H577.494V238H675.534V230ZM581.494 234V213.704H573.494V234H581.494ZM697.101 107.236V103.236H693.101V107.236H697.101ZM793.593 107.236H797.593V103.236H793.593V107.236ZM793.593 131.66V135.66H797.593V131.66H793.593ZM722.213 131.66V127.66H718.213V131.66H722.213ZM722.213 158.148H718.213V162.148H722.213V158.148ZM773.985 158.148H777.985V154.148H773.985V158.148ZM773.985 182.916V186.916H777.985V182.916H773.985ZM722.213 182.916V178.916H718.213V182.916H722.213ZM722.213 209.404H718.213V213.404H722.213V209.404ZM793.593 209.404H797.593V205.404H793.593V209.404ZM793.593 234V238H797.593V234H793.593ZM697.101 234H693.101V238H697.101V234ZM697.101 111.236H793.593V103.236H697.101V111.236ZM789.593 107.236V131.66H797.593V107.236H789.593ZM793.593 127.66H722.213V135.66H793.593V127.66ZM718.213 131.66V158.148H726.213V131.66H718.213ZM722.213 162.148H773.985V154.148H722.213V162.148ZM769.985 158.148V182.916H777.985V158.148H769.985ZM773.985 178.916H722.213V186.916H773.985V178.916ZM718.213 182.916V209.404H726.213V182.916H718.213ZM722.213 213.404H793.593V205.404H722.213V213.404ZM789.593 209.404V234H797.593V209.404H789.593ZM793.593 230H697.101V238H793.593V230ZM701.101 234V107.236H693.101V234H701.101ZM858.896 107.236V103.236H854.896V107.236H858.896ZM949.712 118.932L952.437 116.004L952.427 115.995L952.418 115.987L949.712 118.932ZM949.54 181.54L952.244 184.487L952.266 184.467L952.287 184.447L949.54 181.54ZM884.008 193.064V189.064H880.008V193.064H884.008ZM884.008 234V238H888.008V234H884.008ZM858.896 234H854.896V238H858.896V234ZM931.996 163.996L934.728 166.917L934.752 166.895L934.776 166.872L931.996 163.996ZM931.996 136.476L929.263 139.397L929.266 139.4L931.996 136.476ZM884.008 131.488V127.488H880.008V131.488H884.008ZM884.008 168.984H880.008V172.984H884.008V168.984ZM858.896 111.236H916.516V103.236H858.896V111.236ZM916.516 111.236C929.354 111.236 939.391 114.88 947.005 121.877L952.418 115.987C943.062 107.389 930.968 103.236 916.516 103.236V111.236ZM946.987 121.86C954.298 128.664 958.096 137.909 958.096 150.064H966.096C966.096 136.075 961.637 124.566 952.437 116.004L946.987 121.86ZM958.096 150.064C958.096 162.199 954.252 171.582 946.792 178.633L952.287 184.447C961.569 175.674 966.096 164.073 966.096 150.064H958.096ZM946.835 178.593C939.345 185.467 929.372 189.064 916.516 189.064V197.064C930.95 197.064 942.993 192.978 952.244 184.487L946.835 178.593ZM916.516 189.064H884.008V197.064H916.516V189.064ZM880.008 193.064V234H888.008V193.064H880.008ZM884.008 230H858.896V238H884.008V230ZM862.896 234V107.236H854.896V234H862.896ZM915.656 172.984C923.506 172.984 930.133 171.216 934.728 166.917L929.263 161.075C926.749 163.426 922.483 164.984 915.656 164.984V172.984ZM934.776 166.872C939.163 162.631 941.156 156.911 941.156 150.236H933.156C933.156 155.257 931.708 158.711 929.216 161.12L934.776 166.872ZM941.156 150.236C941.156 143.48 939.18 137.71 934.725 133.552L929.266 139.4C931.691 141.663 933.156 145.067 933.156 150.236H941.156ZM934.728 133.555C930.133 129.256 923.506 127.488 915.656 127.488V135.488C922.483 135.488 926.749 137.046 929.263 139.397L934.728 133.555ZM915.656 127.488H884.008V135.488H915.656V127.488ZM880.008 131.488V168.984H888.008V131.488H880.008ZM884.008 172.984H915.656V164.984H884.008V172.984ZM991.025 215.94L993.905 213.164L993.9 213.158L993.894 213.152L991.025 215.94ZM991.197 124.436L994.066 127.224L994.078 127.211L994.091 127.198L991.197 124.436ZM1084.08 124.436L1081.18 127.198L1081.2 127.211L1081.21 127.224L1084.08 124.436ZM1084.08 216.112L1081.21 213.324L1081.2 213.337L1081.18 213.35L1084.08 216.112ZM1066.36 198.912L1063.44 196.175L1063.42 196.198L1063.4 196.221L1066.36 198.912ZM1066.36 141.636L1069.26 138.876L1069.25 138.873L1066.36 141.636ZM1008.91 141.636L1011.81 144.396L1011.82 144.386L1011.83 144.376L1008.91 141.636ZM1008.91 198.912L1006 201.649L1006 201.651L1008.91 198.912ZM1037.64 231.032C1019.84 231.032 1005.37 225.056 993.905 213.164L988.145 218.716C1001.22 232.28 1017.82 239.032 1037.64 239.032V231.032ZM993.894 213.152C982.872 201.809 977.309 187.588 977.309 170.188H969.309C969.309 189.481 975.557 205.761 988.157 218.728L993.894 213.152ZM977.309 170.188C977.309 152.922 982.917 138.694 994.066 127.224L988.329 121.648C975.627 134.716 969.309 150.99 969.309 170.188H977.309ZM994.091 127.198C1005.31 115.447 1019.71 109.516 1037.64 109.516V101.516C1017.73 101.516 1001.17 108.198 988.304 121.674L994.091 127.198ZM1037.64 109.516C1055.57 109.516 1069.97 115.447 1081.18 127.198L1086.97 121.674C1074.11 108.198 1057.55 101.516 1037.64 101.516V109.516ZM1081.21 127.224C1092.23 138.567 1097.79 152.788 1097.79 170.188H1105.79C1105.79 150.895 1099.55 134.615 1086.95 121.648L1081.21 127.224ZM1097.79 170.188C1097.79 187.71 1092.23 201.986 1081.21 213.324L1086.95 218.9C1099.55 205.928 1105.79 189.588 1105.79 170.188H1097.79ZM1081.18 213.35C1069.97 225.101 1055.57 231.032 1037.64 231.032V239.032C1057.55 239.032 1074.11 232.35 1086.97 218.874L1081.18 213.35ZM1037.64 214.264C1050.79 214.264 1061.53 210.17 1069.32 201.603L1063.4 196.221C1057.43 202.79 1049.02 206.264 1037.64 206.264V214.264ZM1069.28 201.649C1077.07 193.347 1080.85 182.743 1080.85 170.188H1072.85C1072.85 181.025 1069.64 189.571 1063.44 196.175L1069.28 201.649ZM1080.85 170.188C1080.85 157.634 1077.07 147.073 1069.26 138.876L1063.47 144.396C1069.64 150.876 1072.85 159.35 1072.85 170.188H1080.85ZM1069.25 138.873C1061.07 130.308 1050.41 126.112 1037.64 126.112V134.112C1048.49 134.112 1056.97 137.599 1063.47 144.399L1069.25 138.873ZM1037.64 126.112C1024.77 126.112 1014.08 130.3 1006 138.896L1011.83 144.376C1018.19 137.606 1026.66 134.112 1037.64 134.112V126.112ZM1006.02 138.876C998.205 147.073 994.421 157.634 994.421 170.188H1002.42C1002.42 159.35 1005.63 150.876 1011.81 144.396L1006.02 138.876ZM994.421 170.188C994.421 182.743 998.205 193.347 1006 201.649L1011.83 196.175C1005.63 189.571 1002.42 181.025 1002.42 170.188H994.421ZM1006 201.651C1013.99 210.154 1024.69 214.264 1037.64 214.264V206.264C1026.51 206.264 1018.06 202.806 1011.83 196.173L1006 201.651ZM1134.15 215.94L1137.03 213.164L1137.03 213.158L1137.02 213.152L1134.15 215.94ZM1134.33 124.436L1137.2 127.224L1137.21 127.211L1137.22 127.198L1134.33 124.436ZM1227.21 124.436L1224.31 127.198L1224.33 127.211L1224.34 127.224L1227.21 124.436ZM1227.21 216.112L1224.34 213.324L1224.33 213.337L1224.31 213.35L1227.21 216.112ZM1209.49 198.912L1206.57 196.175L1206.55 196.198L1206.53 196.221L1209.49 198.912ZM1209.49 141.636L1212.39 138.876L1212.38 138.873L1209.49 141.636ZM1152.04 141.636L1154.94 144.396L1154.95 144.386L1154.96 144.376L1152.04 141.636ZM1152.04 198.912L1149.13 201.649L1149.13 201.651L1152.04 198.912ZM1180.77 231.032C1162.97 231.032 1148.5 225.056 1137.03 213.164L1131.27 218.716C1144.35 232.28 1160.95 239.032 1180.77 239.032V231.032ZM1137.02 213.152C1126 201.809 1120.44 187.588 1120.44 170.188H1112.44C1112.44 189.481 1118.69 205.761 1131.29 218.728L1137.02 213.152ZM1120.44 170.188C1120.44 152.922 1126.05 138.694 1137.2 127.224L1131.46 121.648C1118.76 134.716 1112.44 150.99 1112.44 170.188H1120.44ZM1137.22 127.198C1148.44 115.447 1162.84 109.516 1180.77 109.516V101.516C1160.86 101.516 1144.3 108.198 1131.43 121.674L1137.22 127.198ZM1180.77 109.516C1198.7 109.516 1213.1 115.447 1224.31 127.198L1230.1 121.674C1217.24 108.198 1200.68 101.516 1180.77 101.516V109.516ZM1224.34 127.224C1235.36 138.567 1240.92 152.788 1240.92 170.188H1248.92C1248.92 150.895 1242.67 134.615 1230.08 121.648L1224.34 127.224ZM1240.92 170.188C1240.92 187.71 1235.36 201.986 1224.34 213.324L1230.08 218.9C1242.68 205.928 1248.92 189.588 1248.92 170.188H1240.92ZM1224.31 213.35C1213.1 225.101 1198.7 231.032 1180.77 231.032V239.032C1200.68 239.032 1217.24 232.35 1230.1 218.874L1224.31 213.35ZM1180.77 214.264C1193.92 214.264 1204.66 210.17 1212.45 201.603L1206.53 196.221C1200.56 202.79 1192.15 206.264 1180.77 206.264V214.264ZM1212.41 201.649C1220.2 193.347 1223.98 182.743 1223.98 170.188H1215.98C1215.98 181.025 1212.77 189.571 1206.57 196.175L1212.41 201.649ZM1223.98 170.188C1223.98 157.634 1220.2 147.073 1212.39 138.876L1206.6 144.396C1212.77 150.876 1215.98 159.35 1215.98 170.188H1223.98ZM1212.38 138.873C1204.2 130.308 1193.54 126.112 1180.77 126.112V134.112C1191.62 134.112 1200.1 137.599 1206.6 144.399L1212.38 138.873ZM1180.77 126.112C1167.9 126.112 1157.21 130.3 1149.13 138.896L1154.96 144.376C1161.32 137.606 1169.79 134.112 1180.77 134.112V126.112ZM1149.15 138.876C1141.33 147.073 1137.55 157.634 1137.55 170.188H1145.55C1145.55 159.35 1148.76 150.876 1154.94 144.396L1149.15 138.876ZM1137.55 170.188C1137.55 182.743 1141.33 193.347 1149.13 201.649L1154.96 196.175C1148.76 189.571 1145.55 181.025 1145.55 170.188H1137.55ZM1149.13 201.651C1157.12 210.154 1167.82 214.264 1180.77 214.264V206.264C1169.64 206.264 1161.19 202.806 1154.96 196.173L1149.13 201.651ZM1266.45 107.236V103.236H1262.45V107.236H1266.45ZM1291.56 107.236H1295.56V103.236H1291.56V107.236ZM1291.56 209.404H1287.56V213.404H1291.56V209.404ZM1354.17 209.404H1358.17V205.404H1354.17V209.404ZM1354.17 234V238H1358.17V234H1354.17ZM1266.45 234H1262.45V238H1266.45V234ZM1266.45 111.236H1291.56V103.236H1266.45V111.236ZM1287.56 107.236V209.404H1295.56V107.236H1287.56ZM1291.56 213.404H1354.17V205.404H1291.56V213.404ZM1350.17 209.404V234H1358.17V209.404H1350.17ZM1354.17 230H1266.45V238H1354.17V230ZM1270.45 234V107.236H1262.45V234H1270.45Z" fill="url(#paint0_linear_454_3)"/>
<path d="M277.939 107.236V103.236H273.939V107.236H277.939ZM368.755 118.932L371.48 116.004L371.471 115.995L371.461 115.987L368.755 118.932ZM368.583 181.54L371.288 184.487L371.309 184.467L371.331 184.447L368.583 181.54ZM303.051 193.064V189.064H299.051V193.064H303.051ZM303.051 234V238H307.051V234H303.051ZM277.939 234H273.939V238H277.939V234ZM351.039 163.996L353.771 166.917L353.795 166.895L353.819 166.872L351.039 163.996ZM351.039 136.476L348.306 139.397L348.31 139.4L351.039 136.476ZM303.051 131.488V127.488H299.051V131.488H303.051ZM303.051 168.984H299.051V172.984H303.051V168.984ZM277.939 111.236H335.559V103.236H277.939V111.236ZM335.559 111.236C348.398 111.236 358.434 114.88 366.048 121.877L371.461 115.987C362.105 107.389 350.011 103.236 335.559 103.236V111.236ZM366.03 121.86C373.341 128.664 377.139 137.909 377.139 150.064H385.139C385.139 136.075 380.68 124.566 371.48 116.004L366.03 121.86ZM377.139 150.064C377.139 162.199 373.295 171.582 365.835 178.633L371.331 184.447C380.612 175.674 385.139 164.073 385.139 150.064H377.139ZM365.878 178.593C358.388 185.467 348.415 189.064 335.559 189.064V197.064C349.993 197.064 362.036 192.978 371.288 184.487L365.878 178.593ZM335.559 189.064H303.051V197.064H335.559V189.064ZM299.051 193.064V234H307.051V193.064H299.051ZM303.051 230H277.939V238H303.051V230ZM281.939 234V107.236H273.939V234H281.939ZM334.699 172.984C342.549 172.984 349.176 171.216 353.771 166.917L348.306 161.075C345.793 163.426 341.526 164.984 334.699 164.984V172.984ZM353.819 166.872C358.206 162.631 360.199 156.911 360.199 150.236H352.199C352.199 155.257 350.751 158.711 348.259 161.12L353.819 166.872ZM360.199 150.236C360.199 143.48 358.223 137.71 353.768 133.552L348.31 139.4C350.734 141.663 352.199 145.067 352.199 150.236H360.199ZM353.771 133.555C349.176 129.256 342.549 127.488 334.699 127.488V135.488C341.526 135.488 345.793 137.046 348.306 139.397L353.771 133.555ZM334.699 127.488H303.051V135.488H334.699V127.488ZM299.051 131.488V168.984H307.051V131.488H299.051ZM303.051 172.984H334.699V164.984H303.051V172.984ZM399.232 107.236V103.236H395.232V107.236H399.232ZM492.456 118.416L495.159 115.467L495.138 115.448L495.116 115.429L492.456 118.416ZM499.336 170.532L495.93 168.436L495.924 168.445L495.918 168.454L499.336 170.532ZM483.512 183.948L484.895 187.701L485.015 187.657L485.131 187.606L483.512 183.948ZM480.244 185.152L478.862 181.399L474.334 183.067L476.812 187.206L480.244 185.152ZM509.484 234V238H516.541L512.917 231.946L509.484 234ZM479.9 234L476.432 235.992L477.585 238H479.9V234ZM454.616 189.968L458.085 187.976L456.932 185.968H454.616V189.968ZM424.344 189.968V185.968H420.344V189.968H424.344ZM424.344 234V238H428.344V234H424.344ZM399.232 234H395.232V238H399.232V234ZM478.18 157.116L481.561 159.255L481.622 159.158L481.677 159.059L478.18 157.116ZM474.568 136.476L477.196 133.46L477.158 133.427L477.12 133.396L474.568 136.476ZM424.344 131.488V127.488H420.344V131.488H424.344ZM424.344 165.544H420.344V169.544H424.344V165.544ZM399.232 111.236H460.292V103.236H399.232V111.236ZM460.292 111.236C472.557 111.236 482.278 114.709 489.796 121.403L495.116 115.429C485.893 107.216 474.172 103.236 460.292 103.236V111.236ZM489.754 121.365C497.058 128.061 500.84 137.13 500.84 149.032H508.84C508.84 135.249 504.366 123.907 495.159 115.467L489.754 121.365ZM500.84 149.032C500.84 156.808 499.141 163.217 495.93 168.436L502.743 172.628C506.87 165.922 508.84 157.997 508.84 149.032H500.84ZM495.918 168.454C492.837 173.523 488.233 177.484 481.893 180.29L485.131 187.606C492.781 184.22 498.726 179.237 502.755 172.61L495.918 168.454ZM482.13 180.195L478.862 181.399L481.627 188.905L484.895 187.701L482.13 180.195ZM476.812 187.206L506.052 236.054L512.917 231.946L483.677 183.098L476.812 187.206ZM509.484 230H479.9V238H509.484V230ZM483.369 232.008L458.085 187.976L451.148 191.96L476.432 235.992L483.369 232.008ZM454.616 185.968H424.344V193.968H454.616V185.968ZM420.344 189.968V234H428.344V189.968H420.344ZM424.344 230H399.232V238H424.344V230ZM403.232 234V107.236H395.232V234H403.232ZM457.884 169.544C468.498 169.544 476.952 166.54 481.561 159.255L474.8 154.977C472.3 158.93 467.223 161.544 457.884 161.544V169.544ZM481.677 159.059C483.261 156.207 483.9 152.775 483.9 149.032H475.9C475.9 151.94 475.393 153.897 474.684 155.173L481.677 159.059ZM483.9 149.032C483.9 142.755 481.732 137.411 477.196 133.46L471.941 139.492C474.514 141.733 475.9 144.76 475.9 149.032H483.9ZM477.12 133.396C472.21 129.328 465.892 127.488 458.572 127.488V135.488C464.554 135.488 468.9 136.974 472.016 139.556L477.12 133.396ZM458.572 127.488H424.344V135.488H458.572V127.488ZM420.344 131.488V165.544H428.344V131.488H420.344ZM424.344 169.544H457.884V161.544H424.344V169.544ZM530.94 107.236V103.236H526.94V107.236H530.94ZM556.052 107.236H560.052V103.236H556.052V107.236ZM556.052 234V238H560.052V234H556.052ZM530.94 234H526.94V238H530.94V234ZM530.94 111.236H556.052V103.236H530.94V111.236ZM552.052 107.236V234H560.052V107.236H552.052ZM556.052 230H530.94V238H556.052V230ZM534.94 234V107.236H526.94V234H534.94ZM577.494 213.704L574.332 211.255L573.494 212.336V213.704H577.494ZM641.306 131.316L644.469 133.765L649.464 127.316H641.306V131.316ZM577.494 131.316H573.494V135.316H577.494V131.316ZM577.494 107.236V103.236H573.494V107.236H577.494ZM675.534 107.236H679.534V103.236H675.534V107.236ZM675.534 127.704L678.692 130.16L679.534 129.076V127.704H675.534ZM611.722 209.748L608.565 207.292L603.544 213.748H611.722V209.748ZM675.534 209.748H679.534V205.748H675.534V209.748ZM675.534 234V238H679.534V234H675.534ZM577.494 234H573.494V238H577.494V234ZM580.657 216.153L644.469 133.765L638.144 128.867L574.332 211.255L580.657 216.153ZM641.306 127.316H577.494V135.316H641.306V127.316ZM581.494 131.316V107.236H573.494V131.316H581.494ZM577.494 111.236H675.534V103.236H577.494V111.236ZM671.534 107.236V127.704H679.534V107.236H671.534ZM672.377 125.248L608.565 207.292L614.88 212.204L678.692 130.16L672.377 125.248ZM611.722 213.748H675.534V205.748H611.722V213.748ZM671.534 209.748V234H679.534V209.748H671.534ZM675.534 230H577.494V238H675.534V230ZM581.494 234V213.704H573.494V234H581.494ZM697.101 107.236V103.236H693.101V107.236H697.101ZM793.593 107.236H797.593V103.236H793.593V107.236ZM793.593 131.66V135.66H797.593V131.66H793.593ZM722.213 131.66V127.66H718.213V131.66H722.213ZM722.213 158.148H718.213V162.148H722.213V158.148ZM773.985 158.148H777.985V154.148H773.985V158.148ZM773.985 182.916V186.916H777.985V182.916H773.985ZM722.213 182.916V178.916H718.213V182.916H722.213ZM722.213 209.404H718.213V213.404H722.213V209.404ZM793.593 209.404H797.593V205.404H793.593V209.404ZM793.593 234V238H797.593V234H793.593ZM697.101 234H693.101V238H697.101V234ZM697.101 111.236H793.593V103.236H697.101V111.236ZM789.593 107.236V131.66H797.593V107.236H789.593ZM793.593 127.66H722.213V135.66H793.593V127.66ZM718.213 131.66V158.148H726.213V131.66H718.213ZM722.213 162.148H773.985V154.148H722.213V162.148ZM769.985 158.148V182.916H777.985V158.148H769.985ZM773.985 178.916H722.213V186.916H773.985V178.916ZM718.213 182.916V209.404H726.213V182.916H718.213ZM722.213 213.404H793.593V205.404H722.213V213.404ZM789.593 209.404V234H797.593V209.404H789.593ZM793.593 230H697.101V238H793.593V230ZM701.101 234V107.236H693.101V234H701.101ZM858.896 107.236V103.236H854.896V107.236H858.896ZM949.712 118.932L952.437 116.004L952.427 115.995L952.418 115.987L949.712 118.932ZM949.54 181.54L952.244 184.487L952.266 184.467L952.287 184.447L949.54 181.54ZM884.008 193.064V189.064H880.008V193.064H884.008ZM884.008 234V238H888.008V234H884.008ZM858.896 234H854.896V238H858.896V234ZM931.996 163.996L934.728 166.917L934.752 166.895L934.776 166.872L931.996 163.996ZM931.996 136.476L929.263 139.397L929.266 139.4L931.996 136.476ZM884.008 131.488V127.488H880.008V131.488H884.008ZM884.008 168.984H880.008V172.984H884.008V168.984ZM858.896 111.236H916.516V103.236H858.896V111.236ZM916.516 111.236C929.354 111.236 939.391 114.88 947.005 121.877L952.418 115.987C943.062 107.389 930.968 103.236 916.516 103.236V111.236ZM946.987 121.86C954.298 128.664 958.096 137.909 958.096 150.064H966.096C966.096 136.075 961.637 124.566 952.437 116.004L946.987 121.86ZM958.096 150.064C958.096 162.199 954.252 171.582 946.792 178.633L952.287 184.447C961.569 175.674 966.096 164.073 966.096 150.064H958.096ZM946.835 178.593C939.345 185.467 929.372 189.064 916.516 189.064V197.064C930.95 197.064 942.993 192.978 952.244 184.487L946.835 178.593ZM916.516 189.064H884.008V197.064H916.516V189.064ZM880.008 193.064V234H888.008V193.064H880.008ZM884.008 230H858.896V238H884.008V230ZM862.896 234V107.236H854.896V234H862.896ZM915.656 172.984C923.506 172.984 930.133 171.216 934.728 166.917L929.263 161.075C926.749 163.426 922.483 164.984 915.656 164.984V172.984ZM934.776 166.872C939.163 162.631 941.156 156.911 941.156 150.236H933.156C933.156 155.257 931.708 158.711 929.216 161.12L934.776 166.872ZM941.156 150.236C941.156 143.48 939.18 137.71 934.725 133.552L929.266 139.4C931.691 141.663 933.156 145.067 933.156 150.236H941.156ZM934.728 133.555C930.133 129.256 923.506 127.488 915.656 127.488V135.488C922.483 135.488 926.749 137.046 929.263 139.397L934.728 133.555ZM915.656 127.488H884.008V135.488H915.656V127.488ZM880.008 131.488V168.984H888.008V131.488H880.008ZM884.008 172.984H915.656V164.984H884.008V172.984ZM991.025 215.94L993.905 213.164L993.9 213.158L993.894 213.152L991.025 215.94ZM991.197 124.436L994.066 127.224L994.078 127.211L994.091 127.198L991.197 124.436ZM1084.08 124.436L1081.18 127.198L1081.2 127.211L1081.21 127.224L1084.08 124.436ZM1084.08 216.112L1081.21 213.324L1081.2 213.337L1081.18 213.35L1084.08 216.112ZM1066.36 198.912L1063.44 196.175L1063.42 196.198L1063.4 196.221L1066.36 198.912ZM1066.36 141.636L1069.26 138.876L1069.25 138.873L1066.36 141.636ZM1008.91 141.636L1011.81 144.396L1011.82 144.386L1011.83 144.376L1008.91 141.636ZM1008.91 198.912L1006 201.649L1006 201.651L1008.91 198.912ZM1037.64 231.032C1019.84 231.032 1005.37 225.056 993.905 213.164L988.145 218.716C1001.22 232.28 1017.82 239.032 1037.64 239.032V231.032ZM993.894 213.152C982.872 201.809 977.309 187.588 977.309 170.188H969.309C969.309 189.481 975.557 205.761 988.157 218.728L993.894 213.152ZM977.309 170.188C977.309 152.922 982.917 138.694 994.066 127.224L988.329 121.648C975.627 134.716 969.309 150.99 969.309 170.188H977.309ZM994.091 127.198C1005.31 115.447 1019.71 109.516 1037.64 109.516V101.516C1017.73 101.516 1001.17 108.198 988.304 121.674L994.091 127.198ZM1037.64 109.516C1055.57 109.516 1069.97 115.447 1081.18 127.198L1086.97 121.674C1074.11 108.198 1057.55 101.516 1037.64 101.516V109.516ZM1081.21 127.224C1092.23 138.567 1097.79 152.788 1097.79 170.188H1105.79C1105.79 150.895 1099.55 134.615 1086.95 121.648L1081.21 127.224ZM1097.79 170.188C1097.79 187.71 1092.23 201.986 1081.21 213.324L1086.95 218.9C1099.55 205.928 1105.79 189.588 1105.79 170.188H1097.79ZM1081.18 213.35C1069.97 225.101 1055.57 231.032 1037.64 231.032V239.032C1057.55 239.032 1074.11 232.35 1086.97 218.874L1081.18 213.35ZM1037.64 214.264C1050.79 214.264 1061.53 210.17 1069.32 201.603L1063.4 196.221C1057.43 202.79 1049.02 206.264 1037.64 206.264V214.264ZM1069.28 201.649C1077.07 193.347 1080.85 182.743 1080.85 170.188H1072.85C1072.85 181.025 1069.64 189.571 1063.44 196.175L1069.28 201.649ZM1080.85 170.188C1080.85 157.634 1077.07 147.073 1069.26 138.876L1063.47 144.396C1069.64 150.876 1072.85 159.35 1072.85 170.188H1080.85ZM1069.25 138.873C1061.07 130.308 1050.41 126.112 1037.64 126.112V134.112C1048.49 134.112 1056.97 137.599 1063.47 144.399L1069.25 138.873ZM1037.64 126.112C1024.77 126.112 1014.08 130.3 1006 138.896L1011.83 144.376C1018.19 137.606 1026.66 134.112 1037.64 134.112V126.112ZM1006.02 138.876C998.205 147.073 994.421 157.634 994.421 170.188H1002.42C1002.42 159.35 1005.63 150.876 1011.81 144.396L1006.02 138.876ZM994.421 170.188C994.421 182.743 998.205 193.347 1006 201.649L1011.83 196.175C1005.63 189.571 1002.42 181.025 1002.42 170.188H994.421ZM1006 201.651C1013.99 210.154 1024.69 214.264 1037.64 214.264V206.264C1026.51 206.264 1018.06 202.806 1011.83 196.173L1006 201.651ZM1134.15 215.94L1137.03 213.164L1137.03 213.158L1137.02 213.152L1134.15 215.94ZM1134.33 124.436L1137.2 127.224L1137.21 127.211L1137.22 127.198L1134.33 124.436ZM1227.21 124.436L1224.31 127.198L1224.33 127.211L1224.34 127.224L1227.21 124.436ZM1227.21 216.112L1224.34 213.324L1224.33 213.337L1224.31 213.35L1227.21 216.112ZM1209.49 198.912L1206.57 196.175L1206.55 196.198L1206.53 196.221L1209.49 198.912ZM1209.49 141.636L1212.39 138.876L1212.38 138.873L1209.49 141.636ZM1152.04 141.636L1154.94 144.396L1154.95 144.386L1154.96 144.376L1152.04 141.636ZM1152.04 198.912L1149.13 201.649L1149.13 201.651L1152.04 198.912ZM1180.77 231.032C1162.97 231.032 1148.5 225.056 1137.03 213.164L1131.27 218.716C1144.35 232.28 1160.95 239.032 1180.77 239.032V231.032ZM1137.02 213.152C1126 201.809 1120.44 187.588 1120.44 170.188H1112.44C1112.44 189.481 1118.69 205.761 1131.29 218.728L1137.02 213.152ZM1120.44 170.188C1120.44 152.922 1126.05 138.694 1137.2 127.224L1131.46 121.648C1118.76 134.716 1112.44 150.99 1112.44 170.188H1120.44ZM1137.22 127.198C1148.44 115.447 1162.84 109.516 1180.77 109.516V101.516C1160.86 101.516 1144.3 108.198 1131.43 121.674L1137.22 127.198ZM1180.77 109.516C1198.7 109.516 1213.1 115.447 1224.31 127.198L1230.1 121.674C1217.24 108.198 1200.68 101.516 1180.77 101.516V109.516ZM1224.34 127.224C1235.36 138.567 1240.92 152.788 1240.92 170.188H1248.92C1248.92 150.895 1242.67 134.615 1230.08 121.648L1224.34 127.224ZM1240.92 170.188C1240.92 187.71 1235.36 201.986 1224.34 213.324L1230.08 218.9C1242.68 205.928 1248.92 189.588 1248.92 170.188H1240.92ZM1224.31 213.35C1213.1 225.101 1198.7 231.032 1180.77 231.032V239.032C1200.68 239.032 1217.24 232.35 1230.1 218.874L1224.31 213.35ZM1180.77 214.264C1193.92 214.264 1204.66 210.17 1212.45 201.603L1206.53 196.221C1200.56 202.79 1192.15 206.264 1180.77 206.264V214.264ZM1212.41 201.649C1220.2 193.347 1223.98 182.743 1223.98 170.188H1215.98C1215.98 181.025 1212.77 189.571 1206.57 196.175L1212.41 201.649ZM1223.98 170.188C1223.98 157.634 1220.2 147.073 1212.39 138.876L1206.6 144.396C1212.77 150.876 1215.98 159.35 1215.98 170.188H1223.98ZM1212.38 138.873C1204.2 130.308 1193.54 126.112 1180.77 126.112V134.112C1191.62 134.112 1200.1 137.599 1206.6 144.399L1212.38 138.873ZM1180.77 126.112C1167.9 126.112 1157.21 130.3 1149.13 138.896L1154.96 144.376C1161.32 137.606 1169.79 134.112 1180.77 134.112V126.112ZM1149.15 138.876C1141.33 147.073 1137.55 157.634 1137.55 170.188H1145.55C1145.55 159.35 1148.76 150.876 1154.94 144.396L1149.15 138.876ZM1137.55 170.188C1137.55 182.743 1141.33 193.347 1149.13 201.649L1154.96 196.175C1148.76 189.571 1145.55 181.025 1145.55 170.188H1137.55ZM1149.13 201.651C1157.12 210.154 1167.82 214.264 1180.77 214.264V206.264C1169.64 206.264 1161.19 202.806 1154.96 196.173L1149.13 201.651ZM1266.45 107.236V103.236H1262.45V107.236H1266.45ZM1291.56 107.236H1295.56V103.236H1291.56V107.236ZM1291.56 209.404H1287.56V213.404H1291.56V209.404ZM1354.17 209.404H1358.17V205.404H1354.17V209.404ZM1354.17 234V238H1358.17V234H1354.17ZM1266.45 234H1262.45V238H1266.45V234ZM1266.45 111.236H1291.56V103.236H1266.45V111.236ZM1287.56 107.236V209.404H1295.56V107.236H1287.56ZM1291.56 213.404H1354.17V205.404H1291.56V213.404ZM1350.17 209.404V234H1358.17V209.404H1350.17ZM1354.17 230H1266.45V238H1354.17V230ZM1270.45 234V107.236H1262.45V234H1270.45Z" fill="black" fill-opacity="0.3"/>
<defs>
<linearGradient id="paint0_linear_454_3" x1="12.7004" y1="165" x2="1322.91" y2="-458.903" gradientUnits="userSpaceOnUse">
<stop stop-color="#F24D56"/>
<stop offset="0.509216" stop-color="#EE0C77"/>
<stop offset="0.964829" stop-color="#F24D56"/>
</linearGradient>
</defs>
</svg>
